<?xml version="1.0" encoding="iso-8859-1"?>
<!-- Generator: Adobe Illustrator 18.1.1, SVG Export Plug-In . SVG Version: 6.00 Build 0)  -->
<svg version="1.1" id="_x31_1" xmlns="http://www.w3.org/2000/svg" xmlns:xlink="http://www.w3.org/1999/xlink" x="0px" y="0px"
	 viewBox="0 0 512 512" style="enable-background:new 0 0 512 512;" xml:space="preserve">
<g>
	<path style="fill:#21983A;" d="M247.947,296.426c-4.749,2.6-3.211,14.901-11.668,17.977c-8.457,3.076-1.355-13.007,0.769-19.222
		C239.172,288.966,247.947,296.426,247.947,296.426"/>
	<path style="fill:#21983A;" d="M104.03,382.065c-6.92-5.383-7.689-6.151,4.613-3.845c12.302,2.307,13.84,8.458,9.996,10.765
		C114.795,391.292,104.03,382.065,104.03,382.065z"/>
	<path style="fill:#21983A;" d="M110.95,366.688c-7.495-1.874-17.685-7.689-4.613-6.92c13.072,0.769,19.412-2.824,20.47,2.817
		C127.866,368.226,117.101,368.226,110.95,366.688z"/>
	<path style="fill:#21983A;" d="M187.022,175.873c2.354,1.072,3.441,2.664,6.796,3.899c3.35,1.377,3.114,2.439,4.53,3.9
		c0.678,0.763,0.895,1.087,1.069,1.536c0.128,0.395,0.347,1.17,0.055,1.946c-0.181,0.323-0.32,0.24-0.36,0.27l0.041,0.017
		l0.279,0.207c-0.089,0.369-0.284,2.516-0.207,2.467c1.156,0.678,2.528,1.235,4.201,1.069c0.743-1.1,1.122-2.579,0.932-3.864
		c-0.171-1.282-0.706-2.277-1.286-3.093c0.007,0.002-0.427-1.324-1.264-2.644c-0.814-1.338-1.963-2.686-2.719-3.324
		c-1.479-1.29-3.385-3.683-4.667-4.457c-1.292-0.801-4.639-0.694-6.912-1.551c-1.204-0.452-1.968,0.328-1.963,1.23
		C185.529,174.387,185.874,175.378,187.022,175.873z"/>
	<path style="fill:#21983A;" d="M178.647,186.401c2.593,1.436,3.922,2.929,7.357,4.134c3.548,1.362,3.255,2.498,4.88,4.027
		c0.783,0.803,1.061,1.142,1.316,1.624c0.124,0.24,0.243,0.521,0.362,0.904c0.105,0.364,0.262,0.913,0.19,1.345l-0.092,0.18
		l0.288-0.051l0.385-0.05c0.419-0.042,0.614,0.003,0.695,0.008l0.099,0.021l-0.071-0.016c0.047-0.037,0.411,0.21,0.031-0.086
		l-0.354-0.472l-0.195-0.35l-0.082-0.18v0.017l-0.148,0.254l-0.604,0.693c-0.4,0.468-0.648,0.902-0.64,0.906
		c0.761,1.148,1.558,2.374,3.21,3.059c0.659-0.327,1.508-0.865,2.06-1.879c0.552-1.024,0.466-2.111,0.255-2.786
		c-0.452-1.394-1.166-2.138-1.839-2.882c0.004-0.001-0.589-1.228-1.495-2.498c-0.89-1.283-2.066-2.643-2.86-3.303
		c-0.398-0.331-0.806-0.735-1.283-1.19l-0.385-0.356l-0.235-0.198l0.01-0.036l-0.691-0.683c-0.919-0.907-1.823-1.692-2.488-2.068
		c-1.357-0.795-4.774-0.514-6.803-1.649C177.566,181.667,175.972,184.896,178.647,186.401z"/>
	<path style="fill:#21983A;" d="M151.99,17.762c1.077,1.131,2.047,2.537,2.934,3.982c1.274,2.006,3.479,6.235,6.218,10.151
		c1.367,1.948,2.9,3.779,4.299,5.202c1.389,1.434,2.616,2.463,3.122,3.069c1.346,1.654,3.783,2.964,5.882,2.856
		c2.117-0.078,3.662-1.438,3.914-4.258c0.216-2.324-0.712-3.657-1.782-4.44c-1.086-0.777-2.466-1.05-3.669-0.929
		c-0.77,0.139-4.051-1.275-7.1-4.302c-3.065-2.94-5.922-7.021-7.524-8.895c-1.651-2.009-3.24-3.91-4.404-5.233
		c-0.216-0.239-0.731-0.802-1.664-1.484c-0.92-0.668-2.344-1.483-4.23-1.734c-1.88-0.266-4.033,0.124-6.067,0.962
		c-2.063,0.841-4.027,2.027-6.016,3.489c-3.837,3.035-7.257,6.775-10.597,10.348l-8.954,9.941
		c-10.049,11.274-11.801,12.395-13.323,13.63c-1.532,1.206-1.315,3.48-0.437,5.039c0.837,1.58,3.126,1.991,5.03-0.94
		c1.756-2.81,2.555-4.118,11.797-15.069c2.468-2.915,5.461-6.429,8.663-10.015c3.201-3.543,6.632-7.332,10.009-10.06
		c3.436-2.648,7.26-4.325,9.599-3.863C150.048,15.564,151.483,17.294,151.99,17.762z"/>
	<path style="fill:#21983A;" d="M198.575,18.039c-0.823,1.049-1.587,2.125-2.318,3.15c-1.056,1.428-2.819,4.283-4.645,6.447
		c-1.82,2.239-3.814,3.37-4.6,3.241c-1.089-0.093-1.87,0.032-2.374,0.888c-0.463,0.859-0.873,2.465-0.261,5.256
		c0.494,2.251,1.908,3.21,3.507,3.098c1.594-0.11,3.094-1.332,3.542-2.517c0.383-0.725,2.825-3.395,4.3-6.445
		c1.544-3.028,2.75-6.17,3.415-7.689c0.661-1.609,1.5-3.003,2.317-3.726c0.295-0.261,1.238-1.399,2.887-2.598
		c0.868-0.635,1.756-1.059,3.133-1.694c1.183-0.545,2.515-1.003,3.864-1.083c2.727-0.274,5.24,1.568,6.948,4.179
		c1.739,2.571,2.915,5.508,3.834,7.93c3.414,9.708,3.658,11.349,4.02,12.731c0.814,2.976,8.538,0.526,5.568-2.614
		c-1.461-1.651-2.085-2.312-5.817-11.63c-1.071-2.477-2.354-5.539-4.485-8.576c-1.073-1.5-2.418-3.014-4.224-4.142
		c-1.793-1.144-4.086-1.665-6.092-1.481c-2.022,0.158-3.737,0.82-5.184,1.513l-0.92,0.454c-0.365,0.169-0.716,0.342-1.045,0.541
		c-0.666,0.368-1.258,0.78-1.79,1.182C200.038,16.087,198.984,17.573,198.575,18.039z"/>
	<path style="fill:#21983A;" d="M256.375,51.604c5.271,3.769,10.986,8.022,16.982,12.505l4.534,3.335
		c0.757,0.551,1.419,0.958,2.297,1.501l0.616,0.385l0.31,0.192l0.077,0.049l0.019,0.012c-5.492,8.716-1.528,2.412-2.762,4.353
		l-0.037-0.024l-0.154-0.096l-0.453-0.275h-0.224l-0.107,0.069l-0.411,0.225c-0.975,0.52-1.99,0.949-3.012,1.345
		c-2.057,0.757-4.169,1.269-6.283,1.618c-8.48,1.334-16.822,0.471-24.807-0.054c-4.001-0.283-7.908-0.54-11.704-0.512
		c-3.829,0.021-7.63,0.229-11.355,0.5c-7.449,0.552-13.869,1.162-19.222,1.389c-5.352,0.25-9.636,0.16-12.795-0.119
		c-6.334-0.607-8.128-1.53-5.872-1.258c2.274,0.189,5.71-0.13,11.307-0.901c5.611-0.729,13.351-2.19,24.686-3.334
		c5.675-0.533,11.112-0.904,16.273-0.84c5.143,0.075,9.865,0.447,14.185,0.65c8.62,0.483,15.657,0.183,20.36-1.15
		c2.344-0.658,3.74-1.226,4.992-1.77c0.316-0.13,0.62-0.27,0.915-0.422c0.071-0.025,0.501-0.268,0.806-0.435l0.968-0.544
		c1.3-1.494,2.679,0.426,4.227,1.235l0.349,0.242l0.083,0.06l0.043,0.029l0.012,0.007l0.004,0.005
		c-1.232,1.955,2.767-4.372-2.77,4.38l-0.021-0.015l-0.171-0.119l-0.729-0.502l-1.732-1.202c-1.266-0.933-2.612-2.004-4.282-3.301
		c-3.325-2.58-7.781-6.053-14.205-10.624c-12.843-9.165-20.742-13.993-24.495-15.998c-1.863-1.024-2.676-1.488-2.402-1.747
		c0.261-0.236,1.669-0.193,3.869,0.55C243.086,43.922,256.364,51.652,256.375,51.604z"/>
	<path style="fill:#21983A;" d="M253.727,82.287c-10.075,5.483-22.145,17.054-30.302,27.697c-4.101,5.33-6.334,9.403-7.25,11.94
		c-0.481,1.265-0.667,2.14-0.791,2.566c-0.131,0.429-0.223,0.402-0.238-0.109c-0.019-0.998-0.276-2.6,0.257-5.242
		c0.536-2.615,1.897-6.2,4.952-10.509c6.172-8.55,12.129-14.479,15.523-18.049c1.725-1.763,2.325-2.151,3.899-3.273
		c1.616-1.076,4.07-3.058,10.286-7.064c6.279-3.96,10.865-4.981,12.954-4.957c2.117,0.065,1.784,0.662-0.114,1.296
		C258.99,77.894,253.689,82.276,253.727,82.287z"/>
	<path style="fill:#21983A;" d="M83.666,71.346c-8.589,11.458-15.418,21.26-22.173,32.547c-3.353,5.659-6.668,11.699-9.916,18.623
		c-3.226,6.927-6.44,14.729-9.15,23.997c-0.671,2.32-1.261,4.519-1.783,6.633l-1.454,5.802c-0.956,3.646-1.872,6.896-2.712,9.845
		l-4.32,14.887c-1.238,4.293-2.327,8.182-3.336,12.504c-0.992,4.321-1.942,9.075-2.442,15.185
		c-0.443,6.119-0.197,10.536,0.318,14.138c0.552,3.428,0.768,5.813,0.957,8.771c0.376,5.808,0.414,12.832,0.723,29.427
		c0.412,16.633,0.613,16.701,0.634,15.473c0.118-1.202,0.121-3.638,1.427,8.303c0.727,5.985,1.752,11.094,3.141,15.405
		c0.702,2.156,1.487,4.113,2.453,5.891c0.978,1.762,2.091,3.409,3.828,4.731c0.869,0.649,1.961,1.174,3.093,1.356
		c1.138,0.179,2.198,0.015,2.975-0.274c1.567-0.6,2.308-1.394,2.862-1.963c1.051-1.185,1.273-1.801,1.301-1.797
		c-0.941,0.618-1.951,1.19-3.093,1.546c-1.116,0.362-2.479,0.425-3.498-0.138c-1.989-1.192-2.363-3.269-2.757-5.099
		c-0.622-3.8-0.436-7.719-0.174-11.615c-1.71-8.191-2.701-16.767-3.604-25.318l-2.424-25.842l-0.336-7.712
		c-0.133-2.382-0.3-5.207-0.627-8.389l-0.573-4.777c-0.148-1.559-0.21-3.19-0.203-4.865c0.077-13.498,4.856-29.294,7.335-38.256
		c1.264-4.503,2.874-9.537,4.59-14.813l2.602-8.085c0.849-2.785,1.668-5.254,2.618-7.852c3.74-10.225,8.431-19.522,11.504-25.728
		c3.055-6.211,7.336-15.754,12.917-26.023c5.551-10.268,12.402-21.252,19.765-30.345c7.373-9.038,9.656-13.312,7.339-13.059
		C99.228,54.766,92.323,59.896,83.666,71.346z"/>
	<path style="fill:#21983A;" d="M122.481,201.033c3.583-0.331,7.704-3.003,11.238-6.589c3.593-3.572,6.829-7.902,10.008-11.731
		c6.29-7.809,10.527-9.784,9.536-8.564c-1,1.185-1.249,4.705-5.73,10.787c-4.493,6.096-8.215,11.038-10.669,13.888
		c-1.219,1.434-1.73,1.692-3.008,2.46l-2.827,1.613c-1.338,0.711-3.159,1.719-6.025,2.545c-2.888,0.797-5.406,0.593-7.152,0.081
		c-1.773-0.5-2.841-1.251-3.434-1.821c-1.151-1.203-0.544-1.717,0.868-1.429c1.445,0.296,3.4,0.167,4.816-0.25
		C121.539,201.608,122.479,201.025,122.481,201.033z"/>
	<path style="fill:#21983A;" d="M166.293,157.201c1.888-0.942,4.123-1.88,6.701-2.272c2.565-0.414,5.386-0.173,7.946,0.614
		c5.164,1.606,9.33,4.687,12.75,7.561c6.7,5.888,8.266,9.493,7.242,8.713c-1.052-0.774-4.368-0.903-9.562-4.973
		c-2.599-2.011-5.046-3.62-7.219-4.68c-2.167-1.07-4.028-1.562-5.355-1.686c-1.323-0.1-1.623-0.259-2.601-0.541
		c-0.945-0.166-2.696-0.79-6.437,0.927c-3.655,1.885-5.914,3.473-7.3,3.796c-1.356,0.394-1.74-0.256-0.935-1.375
		c0.806-1.105,1.863-2.667,2.866-3.909C165.38,158.132,166.293,157.199,166.293,157.201z"/>
	<path style="fill:#21983A;" d="M192.462,204.215l-1.059,1.543l-0.632,0.863c-0.328,0.412-0.659,0.836-1.027,1.223l-0.552,0.603
		l-0.278,0.305l-0.408,0.031l-1.677,0.069l-2.163,0.096c-2.594,0.121-5.28,0.243-7.722,0c-4.88-0.486-6.833-2.432-6.1-2.432
		c0.733,0,2.195-1.947,5.858-1.947c3.662,0,6.589-0.485,8.296-0.971c0.429-0.122,0.705-0.153,0.957-0.13l0.334,0.069l0.079,0.12
		l0.383,0.189l0.294-0.197c0.236-0.288,0.533-0.691,0.813-1.172c1.14-1.969,1.996-2.973,2.731-3.432
		c0.7-0.479,1.461-0.554,1.6,0.378C192.471,201.116,192.488,204.192,192.462,204.215z"/>
	<path style="fill:#21983A;" d="M75.607,232.695c2.231,2.301,4.784,4.581,7.625,6.681c2.837,2.077,5.998,4.059,9.326,5.29
		c0.876,0.308,1.549,0.53,2.575,0.721l0.563,0.104l0.609,0.283l0.659,0.301c0.41,0.181,0.827,0.348,1.245,0.495
		c1.678,0.604,3.419,0.952,5.259,1.061c1.843,0.115,3.783-0.002,5.839-0.161l3.158-0.232l1.998-0.104l0.09-0.121l0.624-0.714
		c0.538-0.589,1.083-1.166,1.644-1.721c1.114-1.113,2.268-2.163,3.441-3.171c2.351-2.008,4.778-3.853,7.223-5.59
		c4.896-3.475,9.854-6.56,14.606-9.454l5.827-3.524l2.695-1.638l2.588-1.416l4.693-2.508l2.103-1.096l0.99-0.51
		c0.257-0.126,0.326-0.137,0.502-0.217l0.24-0.344l0.447-0.749l0.874-1.407c0.565-0.889,1.102-1.679,1.602-2.378
		c1.001-1.395,1.865-2.414,2.574-3.068c0.697-0.668,1.314-0.933,1.471-0.879c0.175,0.032-0.124,0.13-0.603,0.625
		c-0.768,0.797-1.382,1.999-2.099,3.596c-0.354,0.801-0.727,1.709-1.132,2.734l-1.416,3.659c-4.44,3.235-9.734,6.762-17.883,12.104
		c-6.182,3.907-11.842,7.578-16.653,11.221c-2.406,1.816-4.596,3.622-6.519,5.412c-0.96,0.898-1.852,1.788-2.668,2.671
		c-0.396,0.447-0.796,0.882-1.153,1.325l-1.74,2.156l-2.219,0.07l-1.283,0.091l-2.301,0.234c-1.492,0.166-2.92,0.338-4.262,0.447
		c-2.477,0.202-4.192,0.104-5.725-0.145c-1.534-0.266-2.932-0.649-4.831-1.455c-0.473-0.203-0.975-0.435-1.515-0.705
		c-0.808-0.402-0.31-0.249-1.181-0.475c-1.458-0.385-3.058-0.986-4.852-1.863c-3.573-1.769-8.014-4.567-13.448-9.348
		c-10.832-9.667-14.298-18.371-14.723-22.377c-0.234-2.033,0.095-2.889,0.39-2.736c0.336,0.145,0.693,1.243,1.427,3.042
		c1.45,3.641,4.715,7.828,7.713,10.809C73.006,230.735,75.618,232.686,75.607,232.695z"/>
	<path style="fill:#21983A;" d="M232.288,183.375c0.603,1.462,1.637,3.734,2.664,6.372c1.939,0.055,3.877,0.14,5.809,0.27
		c-0.451-1.466-0.947-2.937-1.478-4.373c-2.387-6.419-5.146-12.137-6-14.063c-1.761-3.834-4.446-9.553-5.686-14.588
		c-0.631-2.513-1.42-5.727-1.899-8.29c-0.492-2.567-0.706-4.477-0.711-4.478c0.012-0.003-0.212-2.418-0.583-5.275
		c-0.402-2.883-0.815-6.154-2.148-8.798c-0.004,0.009-0.765-1.832-1.667-2.883c-0.875-1.021-2.322-1.246-3.395,3.084
		c-0.902,4.326-1.54,6.891-2.263,8.369c-0.686,1.479-1.34,1.851-1.345,1.846c-0.007,0.002,1.04,3.194,2.594,6.594
		c1.521,3.431,3.523,7.064,4.275,9.09c0.714,2.05,3.174,8.042,5.859,13.79C228.995,175.807,231.536,181.471,232.288,183.375z"/>
	<path style="fill:#21983A;" d="M239.849,228.708c-0.16,5.987-0.311,11.203-0.665,15.704c-0.19,2.566-1.082,6.83-2.375,11.123
		c-1.256,4.307-2.919,8.623-3.769,11.702c-1.745,6.265-7.196,8.868-7.147,8.818c-2.173,3.878-4.652,7.621-7.367,11.223
		c0,0-2.232,2.156-4.997,4.671c-2.764,2.521-6.087,5.371-7.892,7.266c-3.657,3.767,2.624,1.719,7.381-2.558
		c4.656-4.288,4.848-2.588,7.339-6.132c2.464-3.523,8.499-9.578,11.956-15.073c1.768-2.694,4.316-7.459,6.029-11.706
		c1.75-4.234,2.767-7.868,2.775-7.864l1.085-4.581c0.748-3.264,1.969-8.486,2.836-16.453c0.148-1.272,0.306-3.638,0.363-6.551
		C243.554,228.495,241.703,228.624,239.849,228.708z"/>
	<path style="fill:#21983A;" d="M215.219,38.612c-7.579,0.944-4.738-10.422,3.788-8.527c0.944,3.788-1.897,8.527-6.632,8.527
		H215.219z"/>
	<path style="fill:#21983A;" d="M306.933,236.376c10.935,0.869,26.438,0.609,39.304,1.558l2.32,0.19
		c0.763,0.077,1.273,0.105,1.982,0.13l3.706,0.109c2.269,0.078,4.087,0.217,5.441,0.396c2.722,0.351,3.552,0.899,2.558,0.856
		c-0.984-0.008-2.413,0.495-4.791,1.084c-1.193,0.294-2.621,0.613-4.372,0.881c-0.877,0.133-1.829,0.256-2.9,0.331
		c-1.118,0.083-2.267,0.024-3.454-0.013c-9.668-0.385-17.412-0.255-21.94,0.003c-4.533,0.259-2.564-0.54-16.092-1.076
		c-13.531-0.535-16.023-2.825-12.137-3.107C300.437,237.432,306.933,236.376,306.933,236.376z"/>
	<path style="fill:#21983A;" d="M384.176,224.083c5.789-1.296,12.349-1.833,19.216-1.088c6.805,0.784,14.151,2.787,20.225,7.568
		c3.004,2.373,5.568,5.516,7.115,9.155c1.571,3.626,2.115,7.616,1.906,11.425c-0.054,0.954-0.141,1.903-0.276,2.838l-0.4,2.352
		l-0.223,1.237c-0.348,0.088-0.819,0.027-1.221,0.048l-2.335,0.009l-0.157,0.057l-1.856,1.546c-2.622,2.24-5.137,4.583-7.662,6.841
		c-5.02,4.523-9.736,8.234-14.387,10.172c-4.638,2.01-8.916,1.926-11.711,1.199c-2.845-0.714-4.443-1.725-5.186-2.192
		c-0.736-0.494-0.616-0.53,0.3-0.091c1.822,0.76,4.955,1.887,9.846,1.081c2.423-0.436,5.188-1.509,8.185-3.432
		c3.01-1.909,6.24-4.642,9.952-8.029c3.764-3.423,7.083-6.667,10.824-9.74c0.345-0.248,0.625-0.665,1.111-0.546l0.973-0.007
		c0.226-0.016,0.488,0.016,0.669-0.042l0.1-0.675c0.043-0.309,0.123-0.961,0.156-1.417c0.193-2.006,0.133-3.941-0.105-5.754
		c-0.5-3.628-1.887-6.706-3.636-9.045c-1.752-2.351-3.796-4.003-5.644-5.192c-3.793-2.259-4.99-2.751-8.276-4.05
		c-1.662-0.597-3.914-1.317-7.501-1.881c-3.577-0.516-8.56-0.94-15.376,0.102c-1.634,0.268-3.443,0.603-4.649,0.985
		c-1.384,0.492-2.658,1.128-3.838,1.806c-2.36,1.358-4.373,2.831-6.232,4.023c-3.671,2.47-6.857,3.631-8.899,3.766
		c-2.044,0.164-2.851-0.214-2.655-0.378c0.185-0.231,1.356-0.309,3.214-0.907c3.805-1.141,7.704-4.866,11.245-7.59
		C380.542,225.411,383.949,224.037,384.176,224.083z"/>
	<path style="fill:#21983A;" d="M333.164,274.734c-1.276,0.117-2.568,0.188-3.827,0.202c-1.765,0.019-5.176,0.026-8.27-0.332
		c-3.112-0.329-5.774-1.124-6.385-1.804c-0.9-0.901-1.843-1.425-2.766-1.14c-0.884,0.317-2.205,1.228-3.892,3.517
		c-1.371,1.869-0.8,3.776,0.56,4.791c1.337,1.04,3.138,1.157,4.246,0.656c0.767-0.281,4.129-0.242,7.538-0.652
		c3.436-0.359,7.039-0.977,8.794-1.361c1.849-0.402,3.588-0.675,4.8-0.623c0.883,0.046,6.502-0.423,13.246-1.272
		c6.75-0.832,14.633-1.949,20.167-2.569c10.893-1.198,12.377-0.737,13.81-0.624c2.75,0.386,4.441-7.692-0.552-6.125
		c-2.31,0.859-3.416,1.178-13.801,2.725c-5.529,0.837-13.348,2.075-20.087,3.008C340.009,274.085,334.355,274.637,333.164,274.734z"
		/>
	<path style="fill:#21983A;" d="M399.323,257.442c1.225,0.285,2.52,0.623,3.876,1.142c1.333,0.554,2.832,1.186,4.114,2.748
		c0.625,0.774,1.082,1.891,1.097,2.989c0.024,1.092-0.276,2.065-0.657,2.887c-0.84,1.665-1.761,2.802-2.97,4.072
		c-1.213,1.209-2.746,2.25-4.47,2.829c-1.719,0.592-3.548,0.728-5.242,0.552c-3.415-0.364-6.332-1.703-8.864-3.132
		c-5.023-2.973-7.83-5.757-9.529-7.347c-1.661-1.628-2.063-2.281-1.367-1.82c0.696,0.465,1.924,0.907,3.832,1.835
		c1.921,0.904,4.474,2.371,8.033,4.371c3.548,1.979,7.117,3.103,9.922,2.78c2.818-0.285,4.552-1.885,5.537-3.225
		c0.979-1.433,1.388-1.82,1.95-2.753c0.232-0.488,0.511-1.032,0.19-1.719c-0.296-0.754-1.882-1.867-4.554-2.521
		c-5.414-1.23-8.956-1.496-10.508-2.057c-1.59-0.48-1.328-0.996,0.371-1.143c1.69-0.14,3.964-0.357,5.851-0.439
		C397.82,257.398,399.321,257.443,399.323,257.442z"/>
	<path style="fill:#21983A;" d="M292.218,250.986c5.796,0.615,14.029-0.06,20.902-0.064c6.883-0.005,9.71,0.977,8.675,1.042
		c-1.035,0.049-3.037,1.344-8.223,1.567c-5.182,0.215-9.332,0.577-11.766,0.869c-2.436,0.261-1.39-0.207-8.687-0.452
		c-7.324-0.383-8.528-2.124-6.446-2.182C288.759,251.686,292.223,250.989,292.218,250.986z"/>
	<path style="fill:#21983A;" d="M290.468,265.672c7.136-0.272,17.188-1.08,25.564-0.654c8.372,0.426,11.657,1.784,10.408,1.721
		c-1.255-0.034-3.791,1.012-10.027,0.912c-6.241-0.091-11.226,0.278-14.119,0.651c-2.891,0.412-1.673-0.329-10.37,0.193
		c-8.658,0.657-10.484-0.443-8.027-1.05C286.348,266.86,290.465,265.668,290.468,265.672z"/>
	<path style="fill:#21983A;" d="M402.345,255.977c1.241-1.658,2.75-4.117,4.366-5.791c1.599-1.679,2.758-1.967,2.557-1.686
		c-0.217,0.269-0.01,1.321-1.122,2.694c-1.101,1.369-1.836,2.571-2.163,3.328c-0.319,0.76-0.475,0.225-1.809,2.201
		c-1.228,1.991-2.253,2.031-2.113,1.308C402.205,257.315,402.328,255.971,402.345,255.977z"/>
	<path style="fill:#21983A;" d="M401.327,247.672c0.502,0.634,1.125,1.441,1.629,2.195c0.525,0.775,0.893,1.154,1.433,1.535
		c1.138,0.747,1.835,1.542,1.542,1.517c-0.24-0.079-0.922,0.684-2.274,0.077c-1.366-0.657-2.122-1.757-2.585-2.107
		c-0.492-0.368,0.046-0.448-0.984-1.696c-1.106-1.125-0.93-2.06-0.368-1.916L401.327,247.672z"/>
	<path style="fill:#21983A;" d="M228.691,187.87c10.935,0.868,26.438,0.609,39.306,1.559l2.32,0.189
		c0.761,0.077,1.273,0.106,1.982,0.13l3.704,0.109c2.27,0.079,4.087,0.216,5.441,0.396c2.722,0.351,3.554,0.898,2.559,0.855
		c-0.986-0.008-2.412,0.495-4.792,1.085c-1.193,0.293-2.62,0.613-4.371,0.881c-0.879,0.133-1.83,0.256-2.901,0.331
		c-1.117,0.083-2.267,0.024-3.454-0.013c-9.667-0.385-17.412-0.255-21.94,0.003c-4.533,0.26-2.562-0.54-16.092-1.076
		c-13.531-0.536-16.023-2.824-12.137-3.107C222.194,188.927,228.691,187.87,228.691,187.87z"/>
	<path style="fill:#21983A;" d="M305.933,175.577c5.789-1.296,12.35-1.834,19.216-1.087c6.806,0.784,14.151,2.788,20.226,7.568
		c3.003,2.372,5.567,5.516,7.114,9.154c1.571,3.626,2.115,7.617,1.907,11.426c-0.055,0.954-0.141,1.902-0.276,2.837l-0.401,2.353
		l-0.223,1.237c-0.347,0.088-0.819,0.027-1.221,0.048l-2.334,0.01l-0.158,0.056l-1.855,1.547c-2.623,2.24-5.138,4.583-7.662,6.841
		c-5.021,4.523-9.736,8.235-14.388,10.172c-4.637,2.011-8.916,1.927-11.711,1.2c-2.844-0.714-4.443-1.725-5.184-2.192
		c-0.736-0.495-0.617-0.53,0.299-0.091c1.822,0.76,4.953,1.887,9.846,1.081c2.422-0.435,5.187-1.509,8.185-3.432
		c3.011-1.908,6.239-4.641,9.951-8.028c3.764-3.423,7.083-6.667,10.824-9.74c0.346-0.247,0.626-0.663,1.112-0.546l0.973-0.007
		c0.225-0.016,0.488,0.016,0.668-0.042l0.1-0.676c0.044-0.307,0.124-0.96,0.157-1.417c0.193-2.007,0.134-3.941-0.104-5.753
		c-0.5-3.629-1.888-6.707-3.636-9.045c-1.751-2.351-3.796-4.003-5.645-5.193c-3.792-2.259-4.99-2.75-8.275-4.05
		c-1.664-0.598-3.915-1.317-7.502-1.881c-3.576-0.516-8.559-0.94-15.376,0.102c-1.634,0.268-3.442,0.604-4.649,0.986
		c-1.385,0.492-2.658,1.128-3.837,1.806c-2.361,1.359-4.373,2.831-6.232,4.024c-3.672,2.469-6.858,3.631-8.899,3.766
		c-2.044,0.165-2.851-0.214-2.656-0.378c0.186-0.231,1.356-0.309,3.215-0.907c3.804-1.142,7.704-4.866,11.245-7.59
		C302.301,176.906,305.708,175.531,305.933,175.577z"/>
	<path style="fill:#21983A;" d="M254.921,226.229c-1.275,0.117-2.567,0.188-3.826,0.203c-1.766,0.019-5.178,0.025-8.27-0.333
		c-3.112-0.328-5.775-1.123-6.386-1.803c-0.9-0.901-1.842-1.425-2.765-1.141c-0.885,0.318-2.205,1.229-3.894,3.517
		c-1.37,1.869-0.798,3.777,0.56,4.791c1.338,1.04,3.138,1.157,4.247,0.655c0.766-0.281,4.128-0.243,7.538-0.652
		c3.435-0.359,7.037-0.977,8.794-1.361c1.848-0.402,3.589-0.676,4.799-0.624c0.883,0.045,6.503-0.423,13.246-1.272
		c6.75-0.831,14.633-1.948,20.167-2.568c10.894-1.198,12.378-0.736,13.811-0.623c2.751,0.385,4.44-7.693-0.553-6.126
		c-2.31,0.86-3.416,1.179-13.799,2.726c-5.53,0.838-13.35,2.075-20.087,3.008C261.767,225.579,256.114,226.131,254.921,226.229z"/>
	<path style="fill:#21983A;" d="M321.081,208.937c1.225,0.284,2.52,0.622,3.877,1.142c1.331,0.553,2.831,1.186,4.113,2.747
		c0.626,0.775,1.083,1.89,1.097,2.988c0.024,1.093-0.276,2.066-0.657,2.888c-0.839,1.665-1.76,2.802-2.97,4.073
		c-1.213,1.209-2.745,2.249-4.47,2.829c-1.717,0.592-3.548,0.727-5.242,0.552c-3.414-0.364-6.332-1.704-8.864-3.133
		c-5.022-2.973-7.83-5.757-9.53-7.346c-1.66-1.628-2.062-2.282-1.365-1.82c0.695,0.465,1.922,0.907,3.83,1.834
		c1.923,0.904,4.474,2.371,8.034,4.371c3.547,1.98,7.116,3.102,9.922,2.78c2.817-0.285,4.551-1.885,5.537-3.225
		c0.978-1.433,1.388-1.821,1.949-2.753c0.232-0.488,0.51-1.032,0.189-1.718c-0.295-0.755-1.882-1.868-4.555-2.521
		c-5.413-1.23-8.955-1.495-10.507-2.057c-1.589-0.479-1.327-0.996,0.372-1.142c1.689-0.14,3.963-0.357,5.851-0.439
		C319.577,208.893,321.078,208.938,321.081,208.937z"/>
	<path style="fill:#21983A;" d="M213.976,202.48c5.797,0.615,14.03-0.059,20.902-0.064c6.883-0.005,9.71,0.977,8.676,1.042
		c-1.036,0.05-3.036,1.344-8.224,1.567c-5.182,0.215-9.332,0.577-11.765,0.87c-2.437,0.261-1.39-0.207-8.688-0.452
		c-7.323-0.383-8.527-2.124-6.445-2.182C210.517,203.181,213.981,202.484,213.976,202.48z"/>
	<path style="fill:#21983A;" d="M212.225,217.166c7.136-0.271,17.188-1.081,25.564-0.655c8.372,0.426,11.657,1.785,10.408,1.721
		c-1.254-0.035-3.79,1.013-10.027,0.912c-6.241-0.09-11.225,0.278-14.118,0.652c-2.891,0.412-1.674-0.329-10.37,0.193
		c-8.659,0.657-10.484-0.444-8.028-1.051C208.107,218.355,212.223,217.162,212.225,217.166z"/>
	<path style="fill:#21983A;" d="M324.102,207.473c1.242-1.659,2.751-4.117,4.367-5.791c1.598-1.679,2.757-1.967,2.556-1.686
		c-0.216,0.269-0.01,1.32-1.121,2.693c-1.103,1.37-1.838,2.571-2.164,3.329c-0.319,0.76-0.475,0.225-1.808,2.201
		c-1.229,1.99-2.254,2.031-2.113,1.308C323.962,208.809,324.086,207.464,324.102,207.473z"/>
	<path style="fill:#21983A;" d="M323.084,199.167c0.501,0.634,1.125,1.44,1.63,2.195c0.524,0.775,0.892,1.153,1.433,1.534
		c1.138,0.747,1.835,1.542,1.542,1.517c-0.24-0.08-0.924,0.684-2.275,0.078c-1.365-0.657-2.122-1.758-2.584-2.107
		c-0.493-0.368,0.045-0.447-0.986-1.695c-1.106-1.126-0.929-2.061-0.368-1.916L323.084,199.167z"/>
	<path style="fill:#21983A;" d="M386.253,153.761c10.936,0.868,26.438,0.609,39.306,1.558l2.32,0.19
		c0.761,0.077,1.273,0.106,1.982,0.13l3.704,0.109c2.271,0.078,4.087,0.216,5.442,0.396c2.722,0.35,3.552,0.898,2.558,0.855
		c-0.986-0.008-2.414,0.496-4.792,1.084c-1.193,0.293-2.62,0.613-4.371,0.881c-0.877,0.133-1.83,0.256-2.9,0.331
		c-1.118,0.083-2.267,0.024-3.455-0.013c-9.667-0.384-17.413-0.255-21.94,0.004c-4.533,0.258-2.562-0.541-16.091-1.077
		c-13.532-0.535-16.023-2.824-12.138-3.107C379.757,154.817,386.253,153.761,386.253,153.761z"/>
	<path style="fill:#21983A;" d="M463.496,141.467c5.789-1.295,12.349-1.833,19.216-1.087c6.805,0.785,14.15,2.788,20.225,7.568
		c3.003,2.372,5.567,5.516,7.115,9.154c1.57,3.627,2.115,7.617,1.906,11.426c-0.055,0.954-0.141,1.903-0.276,2.838l-0.4,2.352
		l-0.224,1.237c-0.347,0.088-0.818,0.027-1.22,0.047l-2.335,0.01l-0.157,0.056l-1.857,1.546c-2.621,2.24-5.136,4.583-7.661,6.841
		c-5.02,4.524-9.737,8.236-14.387,10.172c-4.638,2.012-8.917,1.927-11.712,1.2c-2.843-0.714-4.442-1.725-5.184-2.191
		c-0.734-0.496-0.617-0.53,0.3-0.092c1.822,0.76,4.953,1.887,9.846,1.081c2.423-0.435,5.188-1.508,8.186-3.432
		c3.01-1.908,6.237-4.641,9.95-8.028c3.764-3.423,7.083-6.667,10.824-9.74c0.345-0.247,0.626-0.663,1.112-0.546l0.973-0.007
		c0.226-0.017,0.488,0.016,0.669-0.042l0.1-0.676c0.042-0.308,0.124-0.96,0.157-1.417c0.193-2.007,0.133-3.942-0.105-5.753
		c-0.5-3.629-1.888-6.707-3.636-9.046c-1.753-2.351-3.796-4.003-5.644-5.193c-3.792-2.259-4.991-2.75-8.276-4.05
		c-1.664-0.597-3.914-1.317-7.502-1.881c-3.576-0.516-8.559-0.939-15.375,0.102c-1.635,0.268-3.444,0.603-4.651,0.986
		c-1.384,0.492-2.657,1.128-3.838,1.805c-2.36,1.36-4.372,2.832-6.231,4.024c-3.672,2.47-6.858,3.631-8.899,3.767
		c-2.044,0.164-2.851-0.214-2.656-0.378c0.186-0.231,1.356-0.31,3.215-0.907c3.805-1.142,7.705-4.866,11.246-7.59
		C459.863,142.796,463.27,141.421,463.496,141.467z"/>
	<path style="fill:#21983A;" d="M412.484,192.119c-1.276,0.117-2.568,0.188-3.826,0.203c-1.766,0.019-5.178,0.025-8.272-0.333
		c-3.112-0.328-5.774-1.123-6.386-1.804c-0.9-0.9-1.842-1.425-2.765-1.14c-0.885,0.317-2.206,1.229-3.892,3.517
		c-1.371,1.868-0.8,3.777,0.559,4.791c1.338,1.04,3.139,1.156,4.248,0.655c0.766-0.281,4.128-0.243,7.537-0.652
		c3.436-0.359,7.038-0.977,8.794-1.361c1.849-0.401,3.588-0.675,4.799-0.623c0.883,0.045,6.503-0.423,13.246-1.272
		c6.751-0.831,14.634-1.949,20.168-2.569c10.893-1.198,12.378-0.736,13.811-0.623c2.75,0.386,4.44-7.692-0.552-6.125
		c-2.311,0.86-3.417,1.179-13.802,2.726c-5.529,0.838-13.348,2.075-20.086,3.008C419.329,191.469,413.676,192.021,412.484,192.119z"
		/>
	<path style="fill:#21983A;" d="M478.642,174.827c1.225,0.284,2.521,0.622,3.877,1.142c1.332,0.553,2.831,1.186,4.114,2.747
		c0.625,0.774,1.082,1.89,1.096,2.988c0.025,1.092-0.276,2.066-0.656,2.888c-0.84,1.665-1.762,2.802-2.971,4.072
		c-1.212,1.209-2.745,2.25-4.47,2.83c-1.717,0.592-3.547,0.727-5.242,0.552c-3.414-0.364-6.331-1.704-8.863-3.133
		c-5.023-2.973-7.831-5.756-9.531-7.346c-1.66-1.627-2.062-2.281-1.365-1.82c0.695,0.465,1.923,0.907,3.832,1.834
		c1.922,0.905,4.473,2.372,8.033,4.371c3.547,1.98,7.116,3.103,9.922,2.781c2.817-0.285,4.551-1.885,5.537-3.226
		c0.979-1.433,1.387-1.82,1.948-2.753c0.234-0.488,0.512-1.032,0.19-1.718c-0.295-0.755-1.882-1.868-4.554-2.522
		c-5.413-1.229-8.956-1.495-10.508-2.057c-1.589-0.48-1.328-0.996,0.373-1.142c1.688-0.141,3.963-0.357,5.85-0.439
		C477.14,174.783,478.64,174.828,478.642,174.827z"/>
	<path style="fill:#21983A;" d="M371.539,168.37c5.796,0.616,14.029-0.059,20.9-0.064c6.885-0.005,9.711,0.977,8.677,1.042
		c-1.035,0.05-3.036,1.344-8.224,1.567c-5.182,0.215-9.331,0.577-11.765,0.869c-2.437,0.26-1.39-0.207-8.688-0.452
		c-7.323-0.383-8.527-2.124-6.445-2.183C368.079,169.07,371.543,168.374,371.539,168.37z"/>
	<path style="fill:#21983A;" d="M369.787,183.056c7.135-0.271,17.188-1.081,25.565-0.654c8.371,0.426,11.657,1.785,10.407,1.722
		c-1.254-0.035-3.79,1.012-10.026,0.912c-6.241-0.091-11.226,0.278-14.12,0.652c-2.89,0.412-1.671-0.33-10.369,0.193
		c-8.659,0.657-10.484-0.444-8.028-1.051C365.668,184.244,369.785,183.052,369.787,183.056z"/>
	<path style="fill:#21983A;" d="M481.665,173.362c1.241-1.659,2.75-4.117,4.366-5.791c1.599-1.679,2.758-1.967,2.554-1.686
		c-0.215,0.269-0.009,1.32-1.12,2.693c-1.101,1.37-1.837,2.571-2.163,3.329c-0.32,0.76-0.478,0.224-1.809,2.201
		c-1.228,1.99-2.254,2.031-2.113,1.307C481.523,174.7,481.648,173.355,481.665,173.362z"/>
	<path style="fill:#21983A;" d="M480.646,165.057c0.502,0.634,1.125,1.44,1.63,2.195c0.524,0.775,0.892,1.154,1.433,1.535
		c1.138,0.747,1.834,1.542,1.542,1.517c-0.24-0.08-0.923,0.684-2.274,0.077c-1.366-0.657-2.123-1.758-2.585-2.107
		c-0.492-0.368,0.045-0.447-0.985-1.695c-1.106-1.126-0.93-2.061-0.368-1.916L480.646,165.057z"/>
	<path style="fill:#21983A;" d="M270.922,105.03c10.936,0.868,26.439,0.609,39.305,1.558l2.32,0.189
		c0.761,0.078,1.273,0.106,1.982,0.13l3.706,0.109c2.27,0.078,4.087,0.216,5.441,0.396c2.722,0.35,3.552,0.898,2.558,0.855
		c-0.984-0.008-2.413,0.495-4.792,1.084c-1.192,0.293-2.619,0.613-4.371,0.882c-0.878,0.133-1.829,0.255-2.9,0.33
		c-1.118,0.084-2.267,0.024-3.454-0.013c-9.668-0.384-17.413-0.255-21.94,0.004c-4.533,0.26-2.563-0.541-16.092-1.076
		c-13.531-0.535-16.023-2.824-12.137-3.107C264.427,106.087,270.922,105.03,270.922,105.03z"/>
	<path style="fill:#21983A;" d="M348.166,92.737c5.789-1.295,12.349-1.834,19.216-1.087c6.806,0.784,14.151,2.787,20.226,7.567
		c3.002,2.372,5.567,5.516,7.114,9.153c1.571,3.626,2.115,7.617,1.906,11.426c-0.055,0.954-0.141,1.902-0.276,2.838l-0.4,2.352
		l-0.223,1.237c-0.348,0.088-0.819,0.027-1.221,0.047l-2.335,0.009l-0.157,0.057l-1.855,1.547c-2.623,2.241-5.138,4.583-7.663,6.841
		c-5.02,4.523-9.736,8.235-14.387,10.171c-4.638,2.012-8.916,1.927-11.711,1.2c-2.844-0.714-4.443-1.725-5.185-2.192
		c-0.736-0.495-0.616-0.53,0.299-0.092c1.822,0.76,4.954,1.887,9.846,1.081c2.423-0.435,5.188-1.508,8.186-3.432
		c3.009-1.909,6.239-4.642,9.95-8.028c3.764-3.423,7.085-6.667,10.825-9.74c0.345-0.247,0.625-0.663,1.111-0.546l0.973-0.007
		c0.226-0.017,0.488,0.016,0.669-0.042l0.099-0.676c0.044-0.308,0.124-0.96,0.158-1.417c0.193-2.007,0.134-3.941-0.105-5.753
		c-0.5-3.629-1.887-6.707-3.636-9.046c-1.75-2.351-3.796-4.003-5.644-5.193c-3.792-2.259-4.989-2.75-8.275-4.05
		c-1.664-0.597-3.915-1.317-7.503-1.881c-3.576-0.516-8.558-0.939-15.375,0.103c-1.634,0.268-3.443,0.603-4.649,0.986
		c-1.385,0.492-2.658,1.127-3.837,1.805c-2.362,1.359-4.374,2.831-6.233,4.024c-3.671,2.471-6.857,3.632-8.899,3.767
		c-2.044,0.164-2.851-0.214-2.655-0.378c0.185-0.231,1.356-0.31,3.213-0.907c3.806-1.142,7.705-4.866,11.246-7.59
		C344.532,94.066,347.941,92.691,348.166,92.737z"/>
	<path style="fill:#21983A;" d="M297.154,143.389c-1.275,0.117-2.568,0.188-3.826,0.203c-1.766,0.019-5.177,0.025-8.27-0.333
		c-3.113-0.329-5.776-1.123-6.387-1.804c-0.899-0.9-1.841-1.425-2.765-1.141c-0.885,0.318-2.205,1.229-3.892,3.518
		c-1.371,1.869-0.8,3.776,0.56,4.791c1.337,1.04,3.138,1.156,4.247,0.656c0.766-0.281,4.128-0.243,7.537-0.652
		c3.435-0.359,7.038-0.976,8.794-1.361c1.849-0.402,3.588-0.676,4.8-0.624c0.883,0.045,6.502-0.423,13.245-1.271
		c6.751-0.832,14.634-1.949,20.169-2.569c10.892-1.198,12.378-0.736,13.809-0.623c2.751,0.385,4.44-7.692-0.552-6.126
		c-2.31,0.861-3.417,1.179-13.799,2.726c-5.53,0.838-13.35,2.075-20.087,3.008C303.999,142.739,298.345,143.291,297.154,143.389z"/>
	<path style="fill:#21983A;" d="M363.312,126.097c1.225,0.284,2.521,0.622,3.877,1.142c1.332,0.553,2.831,1.186,4.114,2.747
		c0.625,0.774,1.082,1.89,1.097,2.988c0.024,1.093-0.276,2.066-0.657,2.888c-0.84,1.664-1.76,2.802-2.97,4.073
		c-1.213,1.209-2.746,2.249-4.47,2.829c-1.719,0.592-3.548,0.728-5.242,0.552c-3.415-0.364-6.332-1.704-8.864-3.133
		c-5.023-2.973-7.83-5.757-9.53-7.347c-1.661-1.627-2.062-2.281-1.366-1.82c0.696,0.465,1.923,0.907,3.832,1.834
		c1.923,0.904,4.474,2.372,8.033,4.371c3.548,1.98,7.116,3.103,9.923,2.781c2.817-0.286,4.55-1.886,5.537-3.226
		c0.978-1.433,1.386-1.82,1.949-2.753c0.232-0.488,0.511-1.032,0.19-1.718c-0.296-0.754-1.882-1.868-4.555-2.521
		c-5.413-1.23-8.956-1.495-10.507-2.057c-1.59-0.48-1.328-0.996,0.372-1.142c1.688-0.141,3.964-0.357,5.85-0.439
		C361.81,126.053,363.31,126.098,363.312,126.097z"/>
	<path style="fill:#21983A;" d="M256.208,119.64c5.797,0.615,14.029-0.059,20.902-0.064c6.883-0.005,9.71,0.976,8.675,1.042
		c-1.036,0.05-3.036,1.344-8.224,1.567c-5.182,0.215-9.331,0.577-11.765,0.87c-2.437,0.26-1.39-0.207-8.687-0.452
		c-7.324-0.383-8.528-2.124-6.446-2.182C252.748,120.34,256.214,119.644,256.208,119.64z"/>
	<path style="fill:#21983A;" d="M254.458,134.326c7.135-0.271,17.187-1.081,25.563-0.655c8.371,0.426,11.657,1.785,10.408,1.722
		c-1.255-0.035-3.791,1.012-10.027,0.912c-6.241-0.091-11.226,0.278-14.119,0.652c-2.891,0.411-1.672-0.33-10.37,0.193
		c-8.658,0.657-10.484-0.444-8.028-1.051C250.338,135.514,254.456,134.322,254.458,134.326z"/>
	<path style="fill:#21983A;" d="M366.335,124.632c1.241-1.658,2.75-4.117,4.365-5.791c1.599-1.679,2.758-1.968,2.557-1.686
		c-0.217,0.269-0.01,1.32-1.122,2.693c-1.102,1.369-1.837,2.571-2.163,3.329c-0.319,0.76-0.475,0.224-1.809,2.201
		c-1.228,1.99-2.253,2.031-2.113,1.308C366.194,125.969,366.318,124.625,366.335,124.632z"/>
	<path style="fill:#21983A;" d="M365.316,116.327c0.502,0.634,1.126,1.44,1.631,2.195c0.523,0.775,0.892,1.154,1.432,1.535
		c1.137,0.747,1.836,1.542,1.543,1.517c-0.241-0.08-0.923,0.684-2.276,0.077c-1.365-0.657-2.121-1.758-2.582-2.107
		c-0.493-0.367,0.045-0.447-0.986-1.695c-1.106-1.126-0.931-2.061-0.369-1.915L365.316,116.327z"/>
	<path style="fill:#21983A;" d="M57.393,288.204c-5.406,0.784-8.819,3.646-10.303,6.437c-1.508,2.81-1.166,5.413,0.072,6.505
		c1.23,1.118,0.813,4.542,0.728,8.89c-0.119,4.342,0.128,9.586,1.64,13.867c3.05,8.493,0.501,14.213,1.806,16.645
		c1.366,2.42,2.451,9.254,2.722,11.803c0.385,2.539,1.741,9.291,1.679,9.305c0.057-0.019,1.076,6.852,0.614,10.303
		c-0.18,1.702-0.207,6.115-1.412,11.416c-1.148,5.294-3.703,11.376-7.136,16.001c-3.854,5.185-6.536,7.986-8.332,10.182
		c-1.84,2.156-2.906,3.619-4.368,5.354c-1.848,2.165-2.543,3.836-1.66,4.166c0.855,0.298,3.389-0.682,7.472-4.473
		c8.056-7.645,12.501-12.88,15.354-17.953c2.71-5.144,3.948-8.209,5.514-13.824c0.734-2.822,1.013-4.414,1.355-6.474
		c0.301-2.061,0.686-4.618,0.833-9.354c0.062-5.736-0.336-5.655-1.447-9.268c-1.196-3.553-0.466-5.466-2.126-10.658
		c-1.698-5.135-1.127-6.997-1.723-10.458c-0.571-3.434-0.535-4.382-1.799-12.844c-1.23-8.411-2.209-15.004-1.833-19.134
		c0.331-4.06,0.171-7.499,1.732-9.607C58.244,293.013,57.307,288.322,57.393,288.204z"/>
	<path style="fill:#21983A;" d="M139.025,358.84c0.332-0.971,5.871-5.067,5.21-9.478c-0.627-4.361-1.523-4.09-1.837-5.268
		c-0.313-1.178-3.48-3.851-4.715-3.61c-1.246,0.217-6.954,4.309-8.526,5.589c-1.587,1.259-3.278,3.94-2.487,4.931
		c0.785,0.991,3.21,2.687,2.815,3.839l-2.678,7.741c-1.507,4.244-3.477,9.752-5.932,14.979c-2.423,5.25-5.518,10.062-8.647,13.12
		c-1.549,1.549-3.075,2.683-4.348,3.486c-0.364,0.216-0.521,0.353-0.992,0.599l-1.167,0.631l-0.501,0.271l-0.388,0.376l-0.617,0.601
		c-0.383,0.377-0.664,0.632-0.943,0.879l-0.96,0.837c-0.687,0.586-1.474,1.22-2.327,1.882c-1.703,1.324-3.681,2.75-5.646,4.14
		c-3.926,2.78-7.794,5.447-9.173,7.017c-2.767,3.129-3.7,4.177-5.751,5.985c-2.06,1.759-10.348,7.121-12.732,9.153
		c-0.603,0.487-1.947,1.528-3.59,2.95c-0.838,0.767-1.661,1.404-2.713,2.575c-0.904,1.125-1.636,2.164-2.367,3.357
		c-1.425,2.336-2.474,4.893-3.04,7.048c-0.579,2.156-0.716,3.878-0.755,4.531c-0.031,0.653-0.155,2.379,0.178,4.674
		c0.312,2.284,1.189,5.137,2.815,7.688c1.596,2.57,3.933,4.712,6.18,6.074c2.248,1.385,4.356,2.042,5.618,2.28
		c5.149,0.998,10.346-0.258,10.274-2.018c0.037-1.857-0.453-2.99-4.852-3.948c-2.222-0.55-4.57-0.801-6.379-1.401
		c-1.766-0.536-5.977-2.829-8.014-7.952c-0.519-1.234-1.059-3.66-0.688-6.664c0.34-2.994,1.644-6.463,3.736-9.427
		c0.244-0.361,0.55-0.765,0.783-1.066c0.226-0.315,0.453-0.529,0.774-0.825c0.674-0.645,1.371-1.263,2.067-1.854
		c1.387-1.187,2.777-2.272,4.073-3.228c2.586-1.916,4.764-3.339,5.903-4.032c4.577-2.759,4.645-4.479,6.681-6.279
		c2.039-1.776,12.368-8.238,14.819-10.115c1.24-0.9,4.371-2.967,7.408-5.339c0.759-0.595,1.51-1.207,2.227-1.82
		c0.664-0.541,1.086-1.052,1.809-1.309c0.595-0.262,1.318-0.689,1.929-1.052c0.618-0.344,1.085-0.718,1.463-0.973
		c0.74-0.523,2.579-1.768,4.685-3.703c2.124-1.914,4.405-4.573,6.396-7.391c3.974-5.661,6.774-11.798,7.259-13.449
		C132.37,370.54,138.702,359.824,139.025,358.84z"/>
	<path style="fill:#21983A;" d="M30.851,418.975c-3.105,1.004-6.394,1.608-9.611,2.233c-3.208,0.635-6.405,1.327-8.937,2.855
		c-2.536,1.49-4.322,3.965-5.418,7.1c-0.555,1.449-0.831,3.209-1.135,4.959c-0.272,1.749-0.443,3.522-0.496,5.3
		c-0.247,7.119,1.576,14.313,5.161,20.445c3.553,6.162,8.703,11.238,14.304,15.046c5.618,3.821,11.049,6.102,15.642,7.614
		c4.613,1.504,8.435,2.239,11.288,2.694c5.727,0.829,7.583,0.979,5.44,1.127c-2.128,0.044-5.335,0.611-10.774,0.315
		c-2.713-0.176-5.982-0.589-9.818-1.646c-3.826-1.056-8.243-2.749-12.944-5.652c-9.427-5.783-16.096-13.812-19.603-21.672
		c-3.571-7.894-4.108-15.291-3.915-20.545c0.115-2.65,0.376-4.345,0.714-5.862c0.15-0.752,0.376-1.517,0.595-2.318
		c0.305-0.895,0.618-1.684,1.09-2.701c0.965-1.908,2.322-4.813,6.134-7.569c1.893-1.337,4.369-2.401,7.209-3.14
		c2.842-0.766,6.062-1.241,9.585-2.071c1.749-0.413,3.398-0.892,4.835-1.41c1.327-0.523,2.646-1.245,3.826-1.997
		c2.382-1.516,4.401-3.15,6.177-4.566c3.533-2.879,6.139-4.942,7.949-6.027c1.807-1.102,2.724-1.302,2.732-0.949
		c0.016,0.363-0.821,1.282-2.333,2.775c-3.029,2.983-6.707,7.377-10.305,10.628c-1.785,1.633-3.575,2.963-5.002,3.809
		C31.764,418.622,30.825,418.968,30.851,418.975z"/>
	<path style="fill:#21983A;" d="M48.048,474.41c2.916,2.581,7.976,4.1,13.375,5.631c5.359,1.545,11.51,3.551,15.87,7.774
		c2.146,2.075,3.49,4.297,4.252,6.198c0.781,1.905,1.052,3.491,1.151,4.659c0.154,2.344-0.247,3.075-0.416,2.306
		c-0.194-0.771-0.969-1.828-2.138-3.416c-1.223-1.571-2.767-3.667-5.398-6.144c-2.675-2.485-5.827-3.864-8.581-4.778
		c-2.773-0.908-5.21-1.385-7.037-1.714c-1.837-0.323-2.316-0.597-3.667-1.235l-2.979-1.353c-1.394-0.65-3.332-1.433-5.922-3.048
		c-2.594-1.642-4.27-3.686-5.13-5.401c-0.885-1.725-1.065-3.089-1.037-3.947c0.119-1.736,0.911-1.592,1.651-0.281
		c0.757,1.347,2.222,2.772,3.551,3.574C46.916,474.06,48.051,474.403,48.048,474.41z"/>
	<path style="fill:#21983A;" d="M61.732,468.952c1.689,0.563,3.86,0.947,6.159,1.387c0.157,0.02,0.927,0.17,1.245,0.331l0.831,0.301
		l1.703,0.614l3.514,1.313c4.733,1.783,9.843,4.565,13.21,8.417c3.372,3.802,4.577,7.109,5.142,9.044
		c0.528,1.968,0.362,2.709,0.025,2.099c-0.348-0.607-1.281-1.297-2.623-2.482c-1.356-1.177-3.06-2.869-5.335-5.256
		c-4.641-4.798-10.012-6.332-13.066-7.129c-1.562-0.373-1.943-0.648-3.058-1.273l-1.009-0.537l-0.669-0.329
		c-0.255-0.118-0.561-0.264-0.554-0.274c-1.031-0.301-2.844-0.67-5.287-1.178c-2.498-0.499-4.683-1.492-5.996-2.619
		c-1.335-1.109-1.949-2.137-2.237-2.845c-0.537-1.452,0.184-1.749,1.326-1.011c1.166,0.75,2.864,1.347,4.224,1.437
		C60.633,469.08,61.73,468.942,61.732,468.952z"/>
	<path style="fill:#21983A;" d="M79.619,469.026c1.219,1.175,3.104,2.136,5.161,3.197c2.039,1.064,4.331,2.334,6.005,4.243
		c1.689,1.914,2.098,3.876,2.027,4.968c-0.07,1.125-0.453,1.528-0.572,1.233c-0.127-0.302-0.768-0.576-1.569-0.978
		c-0.814-0.412-1.728-0.918-2.747-1.901c-2.107-1.982-4.625-2.753-6.117-3.105c-1.537-0.378-0.478-0.745-4.442-3.298
		c-1.993-1.356-2.692-2.86-2.682-3.772c0.002-0.927,0.621-1.344,1.23-1.094C77.16,469.06,79.626,469.044,79.619,469.026z"/>
	<path style="fill:#21983A;" d="M145.816,35.183c1.956,1.158,5.366,1.116,7.866,2.415c2.551,1.29,2.936,3.698,2.48,3.479
		c-0.431-0.201-1.804,1.33-3.676,0.735c-1.906-0.602-3.608-0.592-4.657-0.404c-1.058,0.185-0.371-0.603-3.138-1.478
		c-1.392-0.445-2.075-1.363-2.196-2.153c-0.124-0.796,0.325-1.388,0.742-1.466C144.124,36.168,145.82,35.181,145.816,35.183z"/>
	<path style="fill:#21983A;" d="M241.266,63.708c-5.684-0.944-8.525-6.629-3.79-6.629C242.215,57.08,241.266,63.708,241.266,63.708z
		"/>
	<path style="fill:#21983A;" d="M177.325,72.709c-13.261,0.947-12.315,7.58-6.629,8.526c5.681,0.946,14.209,6.627,2.84,4.734
		c-11.367-1.893-11.367-6.627-9.472-10.417c1.893-3.792,4.735-3.792,10.419-6.634C180.164,66.077,177.325,72.709,177.325,72.709z"/>
	<path style="fill:#21983A;" d="M229.103,290.131c0.018,0.006-0.333-4.226,3.493-3.816c3.781,0.499,4.97-2.111,7.64-0.008
		c2.602,2.13,5.052,2.258,6.715,3.446c1.647,1.167,5.121,2.976,7.664,4.258c1.287,0.609,3.234,2.281,5.009,4.239
		c1.801,1.938,3.381,4.154,4.62,5.499c2.453,2.786,2.118,4.84,3.481,6.796c1.373,1.98,3.263,3.938,3.27,3.948
		c0.026-0.001,0.447,2.873,0.37,4.518c-0.013,0.823,0.672,4.14,0.967,7.766c0.321,3.631,0.34,7.514,0.197,9.482
		c-0.023,1.999-0.548,5.656-1.613,8.694c-1.023,3.103-2.408,5.79-3.1,6.996c-1.402,2.428-3.481,3.845-4.056,4.839
		c-2.353,3.998-2.409,3.951-2.393,3.962c0.029,0.041-4.714,5.993-6.439,7.969c-1.696,2.018-4.818,3.786-6.202,6.034
		c-1.38,2.249-4.295,5.646-6.681,9.882c-2.365,4.207-6.706,7.864-8.371,13.286c-0.813,2.691-2.789,5.092-4.57,7.261
		c-1.787,2.155-3.396,4.069-3.558,5.37c-0.377,2.576-2.74,7.629-3.89,8.769c-1.225,1.13-0.965-3.715-0.306-6.265
		c0.473-2.566,3.305-9.903,3.6-11.055c0.203-1.228,4.916-3.55,5.556-6.643c0.601-3.184,5.193-8.665,6.371-10.101
		c1.121-1.501,6.896-7.861,7.819-9.529c0.438-0.85,3.674-5.223,7.093-9.899c3.443-4.666,6.824-9.753,7.975-11.828
		c1.176-2.058,4.619-6.691,6.537-11.683c0.984-2.526,1.501-4.944,1.632-7.203c0.207-2.194,0.267-3.899,0.242-4.632
		c-0.014-1.463,0.065-4.878-0.471-8.233c-0.484-3.363-1.633-6.591-2.708-7.712c-2.143-2.194-2.491-4.71-4.622-7.108
		c-1.991-2.406-5.485-6.248-6.952-7.279c-0.691-0.533-2.975-2.341-5.475-3.728c-2.477-1.411-5.065-2.478-5.646-2.472
		c-1.166-0.035-4.706,0.348-8.952,0.07C229.11,293.793,229.101,290.165,229.103,290.131z"/>
	<path style="fill:#21983A;" d="M135.989,344.075c2.932,0.928,7.1,0.755,11.285,0.09c4.217-0.657,8.557-1.753,12.551-2.603
		c7.964-1.742,11.671-1.413,10.543-0.904c-1.15,0.428-2.827,3.253-8.97,5.011l-14.046,3.874c-1.49,0.416-1.952,0.328-3.165,0.231
		c-1.233-0.174-3.166-0.063-7.914-0.693c-2.383-0.383-4.311-1.253-5.567-2.298c-1.268-1.043-1.822-2.156-1.965-2.889
		c-0.223-1.51,0.613-1.528,1.444-0.817c0.902,0.743,2.414,1.13,3.629,1.148C135.042,344.261,135.992,344.068,135.989,344.075z"/>
	<path style="fill:#21983A;" d="M180.596,349.072c6.061,4.095,16.617,6.251,25.115,8.919c8.579,2.692,11.577,5.6,10.255,5.226
		c-1.316-0.38-4.393,0.807-10.926-0.877c-6.546-1.682-11.902-2.793-15.107-3.403c-1.606-0.3-2.003-0.574-3.127-1.197
		c-1.116-0.658-2.998-1.514-7.374-3.758c-4.385-2.315-6.336-4.875-6.843-6.249c-0.515-1.407,0.212-1.724,1.314-1.015
		C176.172,348.211,180.603,349.111,180.596,349.072z"/>
	<path style="fill:#21983A;" d="M188.77,395.395c-0.163,0.835-0.275,1.598-0.286,2.359l-0.039,2.936
		c-0.028,1.988-0.071,4.033-0.166,6.132c-0.193,4.193-0.59,8.618-1.617,13.107l-0.198,0.841l-0.131,0.678
		c-0.1,0.597-0.248,1.181-0.385,1.769c-0.29,1.17-0.653,2.313-1.05,3.439c-0.802,2.248-1.775,4.407-2.791,6.508
		c-2.021,4.198-4.245,8.227-5.588,12.366c-1.326,4.021-1.803,8.627-0.178,11.737c1.523,3.122,5.499,4.793,9.772,5.505
		c4.297,0.725,8.863,0.755,13.356,0.6c4.504-0.165,8.98-0.536,13.366-0.914c8.771-0.781,16.32-1.442,22.63-1.532
		c6.309-0.116,11.381,0.32,15.074,1.196c3.708,0.845,5.941,2.125,6.88,2.844c0.939,0.733,0.762,0.771-0.417,0.13
		c-2.437-1.218-6.51-1.846-13.069-1.522c-6.585,0.264-15.685,1.62-28.899,3.06c-6.613,0.683-12.934,1.29-18.96,1.406
		c-6.002,0.059-11.811-0.195-17.07-2.354c-2.593-1.105-5.022-2.892-6.539-5.283c-1.524-2.384-2.078-5.028-2.18-7.355
		c-0.207-4.673,0.978-8.574,2.053-11.64c2.326-6.078,3.467-7.462,5.657-11.694c1.043-2.102,2.583-4.85,3.564-9.242l0.231-1.04
		l0.231-0.911c0.137-0.626,0.296-1.275,0.421-1.965c0.27-1.372,0.501-2.879,0.685-4.532c0.374-3.308,0.526-7.203,0.533-11.819
		l0.006-1.714l0.001-0.841l0.043-0.993c0.105-1.28,0.333-2.414,0.588-3.492c0.509-2.156,1.14-4.074,1.754-5.87
		c1.245-3.577,2.474-6.625,3.537-9.277c2.143-5.289,3.615-8.974,4.43-11.326c0.821-2.339,1.051-3.368,1.371-3.129
		c0.297,0.236,0.52,1.902-0.011,4.564c-1.036,5.303-3.18,12.111-4.627,17.647C189.205,391.33,188.712,395.442,188.77,395.395z"/>
	<path style="fill:#21983A;" d="M233.297,449.815c3.555,0.215,7.879,0.061,12.485,0.417c4.568,0.348,9.592,1.374,13.563,3.943
		c3.983,2.581,5.558,5.715,6.124,7.462c0.549,1.818,0.341,2.494,0.029,1.958c-0.327-0.537-1.223-1.117-2.549-1.972
		c-1.343-0.85-3.017-1.992-5.452-3.455c-5.021-2.902-10.093-2.832-12.826-2.669c-2.829,0.309-1.48-0.791-10.089-0.831
		c-8.686,0.112-10.402-2.342-7.896-2.832C229.157,451.335,233.288,449.807,233.297,449.815z"/>
	<path style="fill:#21983A;" d="M250.548,438.012c4.321,0.613,9.689,0.677,15.378,1.332c5.622,0.65,11.916,2.083,16.597,5.862
		c2.317,1.851,3.814,3.974,4.701,5.807c0.897,1.846,1.247,3.41,1.397,4.563c0.264,2.316-0.135,3.054-0.323,2.301
		c-0.222-0.754-1.017-1.775-2.273-3.26c-1.28-1.477-2.945-3.407-5.724-5.603c-2.828-2.199-6.058-3.24-8.829-3.809
		c-2.793-0.56-5.195-0.664-6.971-0.654c-3.598,0.088-1.854-0.809-12.778-1.569c-5.505-0.38-8.82-1.564-10.158-2.561
		c-1.347-1-0.868-1.628,0.664-1.535C245.335,439.08,250.545,438.012,250.548,438.012z"/>
	<path style="fill:#21983A;" d="M236.377,429.344c4.894,0.149,10.854-0.369,17.165-0.551c6.28-0.173,13.072,0.064,19.052,2.107
		c6.012,2.022,9.367,5.41,10.809,7.487c1.458,2.148,1.465,3.053,0.904,2.386c-0.592-0.654-1.863-1.309-3.831-2.224
		c-1.995-0.902-4.655-2.03-8.604-3.292c-3.979-1.246-7.829-1.557-11.086-1.6c-3.27-0.028-5.991,0.229-7.992,0.493
		c-4.035,0.565-2.249-0.459-14.544,0.01c-6.184,0.207-9.948-0.614-11.578-1.422c-1.639-0.819-1.241-1.507,0.491-1.608
		C230.663,430.944,236.379,429.353,236.377,429.344z"/>
	<path style="fill:#21983A;" d="M219.439,423.995c-0.875,1.675-0.457,3.994,1.293,5.444c1.713,1.508,4.334,2.044,6.805,2.044
		c2.498,0.01,4.503-0.253,5.803-0.261c1.297-0.044,1.884,0.156,1.488,0.384c-0.399,0.219-0.746,0.974-1.643,1.892
		c-0.884,0.892-2.386,2.015-4.929,2.314c-5.081,0.632-9.418-1.129-11.631-2.923c-1.121-0.885-1.264-1.363-1.642-2.416
		c-0.169-0.541-0.397-1.25-0.582-2.35c-0.173-1.089-0.314-2.615,0.124-4.578c0.452-1.965,1.399-3.241,2.212-4.031
		c0.833-0.795,1.59-1.138,2.142-1.254c1.127-0.204,1.487,0.462,1.08,1.251c-0.415,0.806-0.695,2.01-0.699,2.932
		C219.245,423.373,219.442,423.995,219.439,423.995z"/>
	<path style="fill:#21983A;" d="M175.04,37.298c15.449,3.09,22.918-3.581,20.77,0c0,0,2.148,5.014-3.581,4.297
		c-5.729-0.716-12.893,0.716-17.904,0.716C169.31,42.312,171.462,36.582,175.04,37.298z"/>
	<path style="fill:#21983A;" d="M207.497,68.969c-10.446,0.654-18.681,2.132-21.929,1.828c-3.247-0.305,8.124-1.828,16.245-2.741
		C209.934,67.142,212.371,68.665,207.497,68.969z"/>
	<path style="fill:#21983A;" d="M111.662,194.754c0-2.569,1.624-14.619,6.498-21.116s0,8.122,0,8.122l-1.625,17.866
		C116.535,199.627,111.662,206.937,111.662,194.754z"/>
	<path style="fill:#21983A;" d="M82.424,189.881c-7.431-0.93-9.746-11.371,0-9.746C92.171,181.76,95.419,191.505,82.424,189.881z"/>
	<path style="fill:#21983A;" d="M94.605,162.268c11.223,4.809,11.37,8.933,3.249,10.558c-8.122,1.625-13.805-6.497-13.805-6.497
		S83.234,157.395,94.605,162.268z"/>
	<path style="fill:#21983A;" d="M49.938,258.916c-1.625-8.122-6.495-15.431,2.437-12.995c8.932,2.436,5.687,1.624,4.872,9.746
		c-0.814,8.122-4.872,12.995-4.872,12.995L49.938,258.916z"/>
	<path style="fill:#21983A;" d="M43.44,236.988c-3.248-6.497-6.499-8.934,0-8.122C49.938,229.678,43.44,236.988,43.44,236.988z"/>
	<path style="fill:#21983A;" d="M42.628,201.252c0-8.122,0.812-17.868,5.684-13.807c4.873,4.061,4.063,12.182,0,14.619
		C44.251,204.5,42.628,201.252,42.628,201.252z"/>
	<path style="fill:#21983A;" d="M54.729,170.885c0-6.497,7.311-13.807,11.371-9.746c4.059,4.06-5.688,14.619-5.688,14.619
		L54.729,170.885z"/>
	<path style="fill:#21983A;" d="M66.179,148.46c-4.922-2.955-3.245-10.558,3.25-9.746C75.926,139.527,70.239,150.896,66.179,148.46z
		"/>
	<path style="fill:#21983A;" d="M79.176,121.659c0.811-7.31,3.245-8.122,6.495-13.807c3.251-5.686,7.31-4.874,9.747,4.06
		c2.436,8.935,1.622,5.685-4.875,12.183C84.05,130.593,78.364,128.969,79.176,121.659z"/>
	<path style="fill:#21983A;" d="M103.542,83.487c-5.856-0.836-3.248-11.371,4.872-17.868c8.121-6.497,9.744,0,6.495,4.872
		C111.662,75.365,109.228,84.3,103.542,83.487z"/>
</g>
</svg>
