<?xml version="1.0" encoding="iso-8859-1"?>
<!-- Generator: Adobe Illustrator 18.1.1, SVG Export Plug-In . SVG Version: 6.00 Build 0)  -->
<svg version="1.1" id="_x37_" xmlns="http://www.w3.org/2000/svg" xmlns:xlink="http://www.w3.org/1999/xlink" x="0px" y="0px"
	 viewBox="0 0 512 512" style="enable-background:new 0 0 512 512;" xml:space="preserve">
<g>
	<g>
		<path style="fill:#21983A;" d="M208.393,83.757c2.334-0.019,4.7-0.009,6.999,0.041c6.476,0.098,24.925,0.592,28.04,1.873
			c2.149,0.78,4.782,1.168,6.795,0.778c2.016-0.417,3.458-1.521,4.142-4.221c0.5-2.246-1.476-3.914-3.707-4.54
			c-2.256-0.671-4.836-0.473-6.458,0.148c-1.075,0.392-6.553,0.728-12.498,1.18l-15.585,1.201c-3.339,0.307-6.495,0.452-8.644,0.307
			c-3.098-0.329-40.492,0.499-60.199-2.668c-4.819-0.764-8.525-1.682-11.249-2.712c-1.363-0.507-2.473-1.05-3.334-1.587
			c-0.899-0.573-1.214-0.894-1.573-1.342c-0.65-0.854-0.577-1.678-0.385-2.172c0.201-0.512,0.462-0.805,0.709-1.068
			c0.395-0.398,0.968-1.532,1.128-2.48c0.2-1,0.155-2.04-0.162-2.867c-0.304-0.826-1.111-1.34-2.237-1.166
			c-0.567,0.098-1.23,0.378-1.953,0.947c-0.365,0.291-0.723,0.633-1.121,1.119c-0.463,0.568-0.926,1.271-1.273,2.061
			c-0.655,1.544-0.902,2.967-0.673,4.567c0.242,1.58,1.076,3.369,3.049,4.957c1.06,0.849,2.073,1.407,3.2,1.921
			c1.144,0.521,2.434,1.006,3.91,1.444c2.951,0.888,6.643,1.656,11.392,2.305C166.993,84.589,204.028,83.664,208.393,83.757z"/>
		<path style="fill:#21983A;" d="M134.12,61.218c8.366-5.269,17.736-16.257,25.833-24.883c8.121-8.669,12.328-11.464,11.29-10.015
			c-1.09,1.407-1.754,5.495-7.665,12.369c-5.912,6.841-10.634,12.348-13.365,15.659c-1.369,1.654-1.898,1.989-3.25,2.996
			c-1.385,0.98-3.462,2.749-8.603,6.674c-5.194,3.907-9.317,4.999-11.237,4.861c-1.941-0.162-1.671-0.935-0.126-1.64
			C130.225,65.762,134.149,61.215,134.12,61.218z"/>
		<path style="fill:#21983A;" d="M200.205,22.383c-0.326-0.754-1.611-2.924-3.507-5.704c-1.91-2.746-4.474-6.199-7.71-8.769
			c-1.561-1.231-3.538-2.287-5.08-2.38c-1.42-0.081-2.523,1.338-3.291,2.803c-1.492,2.994-2.235,5.761-2.653,6.789
			c-1.144,3.253-1.994,6.548-3.212,9.22c-1.15,2.687-2.839,4.654-3.672,5.202c-1.659,1.14-2.725,1.087-3.264-0.367
			c-0.587-1.508-0.538-2.094,0.68-2.86c0.626-0.347,2.65-1.913,4.102-4.421c1.492-2.441,2.602-5.392,3.039-6.86
			c0.571-1.927,1.114-3.941,1.869-5.996c0.386-1.026,0.818-2.068,1.443-3.1c0.621-1.011,1.477-2.108,2.871-2.772
			c1.383-0.693,3.104-0.521,4.21-0.167c1.187,0.333,2.26,0.838,3.241,1.406c1.96,1.147,3.559,2.536,4.969,3.902
			c2.807,2.753,4.866,5.454,6.45,7.488c1.564,2.053,2.619,3.443,3.05,3.898c0.813,0.902,1.088,1.502,0.631,1.706
			c-0.242,0.373-0.533,0.942-0.898,1.461c-0.32,0.545-0.982,0.875-1.727,0.685C201.059,23.419,200.452,23.005,200.205,22.383z"/>
		<path style="fill:#21983A;" d="M224.457,21.956c0.735-0.442,2.529-2.67,4.488-6.261l3.311-6.049
			c1.265-2.185,2.655-4.542,4.732-6.606c1.041-1.016,2.305-1.954,3.808-2.496c1.559-0.531,2.986-0.631,4.523-0.48
			c3.085,0.388,5.425,2.256,6.998,3.955c3.146,3.534,4.526,6.722,5.206,7.94c1.886,3.802,3.859,7.327,5.62,9.954
			c1.746,2.655,3.241,4.274,3.656,4.914c0.827,1.325,0.876,1.904-0.639,3.326c-1.491,1.377-2.491,1.67-3.724-0.191
			c-0.642-0.914-2.157-4.109-3.458-7.483c-1.328-3.377-2.743-6.891-3.669-8.486c-1.187-2.091-2.484-4.195-3.993-6.048
			c-1.497-1.844-3.286-3.419-5.136-3.967c-0.932-0.283-1.803-0.333-2.788-0.157c-0.992,0.138-1.622,0.457-2.38,0.999
			c-1.445,1.075-2.663,2.874-3.691,4.666c-2.039,3.657-3.55,7.396-4.993,10.242c-1.399,2.874-2.751,4.944-3.289,5.746
			c-1.057,1.623-2.146,2.127-2.881,2.013c-0.762-0.112-1.252-0.778-1.762-1.427C223.475,24.692,223.342,22.707,224.457,21.956z"/>
		<path style="fill:#21983A;" d="M400.485,193.357c-0.874-8.369-4.428-17.226-8.661-24.994c-2.118-3.9-4.38-7.584-6.537-11.003
			l-3.112-4.943c-1.001-1.577-1.815-2.964-2.571-4.421c-3.024-5.82-8.492-14.204-12.541-22.731l-1.521-3.352
			c-0.639-1.307-1.263-2.454-1.915-3.555c-1.309-2.215-2.718-4.231-4.086-6.039c-2.745-3.615-5.281-6.455-6.929-8.609
			c-3.329-4.264-6.893-8.868-10.746-14.229l-12.819-17.934c-2.413-3.298-5.246-6.927-8.547-10.706
			c-1.671-1.906-3.374-3.772-5.352-5.782c-1.031-1.097-2.051-1.901-3.1-2.867l-3.127-2.75l-12.831-11.018
			c-2.156-1.878-4.26-3.769-6.368-5.73l-1.591-1.508l-0.796-0.756c-0.259-0.25-0.502-0.491-0.938-0.847
			c-1.563-1.323-2.862-2.286-4.229-3.264c-3.141-2.201-5.18-3.394-6.519-4.197c-1.313-0.778-1.966-1.069-2.479-1.119
			c-0.927-0.064-1.609,0.598-1.573,1.716c0.112,1.125,0.335,2.398,2.791,4.737c1.23,1.181,3.089,2.567,5.688,4.581
			c0.647,0.509,1.334,1.068,2.06,1.682c0.78,0.664,1.47,1.328,2.179,2.025c1.449,1.414,3.103,2.936,4.983,4.614
			c15.244,13.313,8.936,7.655,13.922,12.906c2.478,2.644,3.334,4.162,3.738,5.458c0.372,1.297,0.512,2.349,1.043,4.124
			c0.576,1.766,2.874,5.282,5.244,9.142c2.399,3.86,4.966,8.129,6.715,11.182c3.445,5.991,16.876,15.338,19.777,17.727
			c2.777,2.48,9.669,11.012,11.156,15.413c0.401,1.113,1.535,2.675,2.922,4.568c0.692,0.947,1.468,1.977,2.241,3.091l1.132,1.614
			l1.234,2.085c3.559,5.856,8.242,11.176,11.367,13.994c6.254,5.628,6.883,11.47,9.714,16.316c2.711,4.852,4.499,8.862,6.235,17.913
			c0.799,4.514,2.019,6.374,3.678,8.523c1.605,2.158,3.725,4.579,5.168,10.382c0.688,2.899,1.357,6.239,1.713,9.863
			c0.188,1.794,0.305,3.681,0.293,5.718c-0.092,1.992-0.203,3.846-0.4,5.734c-0.73,7.539-2.513,14.998-4.892,20.666
			c-1.177,2.818-2.72,6.341-4.477,9.882c-1.431,2.839-2.387,6.432-3.12,10.018c-0.733,3.586-1.331,7.162-1.998,10.04
			c-0.645,2.881-1.344,5.054-1.644,5.913l-3.264,10.454c-1.52,4.573-3.606,9.746-6.585,13.342c-0.096,0.114-0.191,0.228-0.286,0.341
			c0.447,0.436,0.833,0.957,1.054,1.64c0.121,0.373,0.213,0.769,0.31,1.164c0.794-0.942,1.494-1.894,2.159-2.853
			c2.484-3.672,4.362-7.527,5.999-11.253c0.81-1.854,1.544-3.681,2.192-5.347l0.952-2.453c0.402-1.016,0.716-1.994,0.995-2.92
			c1.056-3.7,1.675-6.72,2.306-9.388c0.614-2.667,1.197-4.988,1.808-7.16c0.61-2.161,1.237-4.172,1.894-6.087
			c0.693-2.096,1.178-3.081,2.548-6.712c2.273-6.348,4.949-14.851,6.82-23.95c0.48-2.272,0.9-4.581,1.271-6.901
			c0.184-1.118,0.362-2.379,0.533-3.665c0.142-1.266,0.217-2.755,0.255-3.893C401.208,202.15,400.923,197.519,400.485,193.357z"/>
		<path style="fill:#21983A;" d="M159.573,92.418c-2.638-1.801-4.527-3.579-6.15-5.059l-3.922-3.755
			c-2.069-2.032-3.227-3.179-3.553-3.976c-0.336-0.776,0.291-1.209,1.661-0.978c1.359,0.221,3.34,1.206,5.259,2.927
			c3.869,3.441,7.248,6.887,11.255,9.087c4.047,2.472,7.921,4.883,11.114,7.408c6.318,5.019,12.546,10.891,16.006,18.711
			c0.844,1.937,1.633,4.507,1.908,7.107c0.301,2.596,0.053,5.168-0.433,7.029c-0.476,1.875-1.119,3.06-1.408,3.206
			c-0.333,0.142-0.235-0.726-0.089-3.1c0.156-4.778-1.148-7.96-2.757-11.022c-1.697-3.058-3.852-6.118-7.726-10.311
			C172.98,101.203,159.594,92.651,159.573,92.418z"/>
		<path style="fill:#21983A;" d="M200.717,26.014c1.996,0.545,4.567,0.386,7.155-0.334c2.603-0.706,5.245-1.884,7.891-2.705
			c2.637-0.84,4.8-0.959,6.035-0.707c1.244,0.252,1.558,0.632,1.15,0.628c-0.91,0.038-2.216,1.394-5.883,2.793
			c-3.74,1.461-6.801,2.915-8.733,3.639c-0.958,0.379-1.275,0.347-2.09,0.336c-0.816-0.053-2.146,0.092-5.23-0.238
			c-3.105-0.436-4.642-1.68-5.158-2.411c-0.533-0.752-0.157-1.126,0.624-0.947C198.094,26.509,200.75,26.06,200.717,26.014z"/>
		<path style="fill:#21983A;" d="M196.44,214.173c-0.019,7.188-0.17,13.206,0.242,19.879c0.225,3.336,0.565,6.841,1.445,10.729
			l1.479,5.834c0.507,2.046,1.05,4.236,1.711,6.565c1.331,4.662,2.536,8.323,4.086,11.288l0.304,0.559
			c0.118,0.247,0.282,0.473,0.468,0.681l0.647,0.806c0.407,0.528,0.776,1.049,1.121,1.561c0.688,1.026,1.273,2.02,1.871,3
			c1.169,1.949,2.533,3.895,4.522,5.416l6.175,4.433c4.874,3.488,6.92,4.821,9.421,6.532c2.548,1.653,5.446,3.907,13.123,7.86
			c3.88,1.899,5.915,2.686,6.854,3.048c0.944,0.359,0.806,0.285,0.528,0.133c-0.537-0.348-1.691-0.781,4.24,0.952
			c5.976,1.644,10.377,1.735,13.145,1.613c2.786-0.147,4.013-0.554,4.014-0.533c-3.967-1.385-7.736-3.065-11.274-4.99
			c-8.373-1.466-16.52-4.404-24.176-8.397c-0.007,0.007-5.04-3.039-10.704-7.326l-4.396-3.32l-2.277-1.685l-2.181-1.537
			c-2.383-1.758-3.673-4.53-5.103-6.646c-0.681-1.04-1.452-2.161-2.327-3.277c-0.262-0.336-0.088-0.103-0.284-0.461l-0.382-0.812
			c-0.247-0.557-0.475-1.149-0.688-1.763c-0.856-2.46-1.486-5.219-2.025-7.941l-1.456-7.927l-1.299-6.291
			c-0.64-3.313-1.633-8.46-2.296-14.342c-0.681-5.875-1.09-12.43-1.034-18.396C200.019,197.471,196.545,199.837,196.44,214.173z"/>
		<path style="fill:#21983A;" d="M280.292,272.225c2.683,0.574,4.97,1.389,5.957,3.881c0.552,1.528,0.674,1.93,1.037,2.346
			c0.334,0.414,0.907,0.837,1.778,2.458c0.433,0.792,2.524,3.884,3.933,8.512c1.492,4.605,2.334,10.575,2.961,16.573
			c1.225,11.896,3.988,24.283,5.248,28.528c1.176,4.273,2.887,9.063,4.791,13.456c1.889,4.405,4.019,8.371,5.659,11.246
			c1.63,2.875,2.157,4.652,1.91,5.466c-0.232,0.797-1.215,0.53-2.235-1.025c-1.018-1.542-3.029-4.35-4.777-7.203
			c-1.764-2.843-3.276-5.692-3.76-6.934c-0.5-1.238-2.22-5.297-3.639-9.394c-1.452-4.086-2.642-8.185-2.902-9.218
			c-0.282-1.028-2.816-10.834-4.463-20.887c-0.826-5.071-1.54-9.928-2.539-13.582c-0.949-3.66-2.068-6.001-2.435-6.477
			c-0.733-0.971-1.569-2.489-2.544-3.726c-0.975-1.238-2.075-2.184-2.915-2.332c-1.256-0.24-1.616-1.012-1.834-2.346
			c-0.198-1.33-0.255-3.143-0.535-5.097C278.763,274.756,278.596,271.866,280.292,272.225z"/>
		<path style="fill:#21983A;" d="M360.738,328.545l0.583-8.604l0.347-3.86c0.082-0.733,0.098-0.931,0.089-1.627l0.019-1.751
			c0.061-4.58,0.298-8.429,0.719-11.569c0.815-6.301,2.355-9.661,3.253-10.706c0.919-1.056,1.102-0.012,0.899,2.399l-0.914,11.4
			c-0.182,2.517-0.264,5.056-0.297,7.596l-0.018,1.906l-0.004,0.956v0.476l-0.04,0.647l-0.343,3.771l-1.038,14.903
			c-0.69,9.801-1.897,19.091-4.628,27.289c-1.513,3.983-3.286,7.603-3.91,11.193c-0.305,1.782-0.302,3.521,0.093,5.202l0.538,3.176
			l0.478,3.086c0.294,2.084,0.509,4.319,0.345,6.586c-0.151,2.267-0.654,4.43-1.251,6.473c-0.303,1.026-0.633,2.028-0.977,3.02
			c-0.256,0.669-0.419,1.64-0.51,2.527c-0.177,1.841-0.098,3.809,0.035,5.816c0.13,2.013,0.355,4.326,0.393,6.851
			c0.014,1.261-0.022,2.575-0.2,3.921c-0.085,0.673-0.217,1.353-0.39,2.029c-0.214,0.847-0.429,1.232-0.586,1.837
			c-1.322,4.533-0.463,9.613-0.226,13.437c0.326,3.866,0.072,6.584-0.184,7.017c-0.291,0.435-0.27-1.313-1.107-6.311
			c-0.864-4.98-1.879-9.442-1.22-13.796c0.074-0.538,0.18-1.068,0.302-1.592l0.204-0.78l0.102-0.562
			c0.133-0.866,0.177-1.751,0.17-2.644c-0.018-1.792-0.242-3.608-0.498-5.487c-0.259-1.885-0.571-3.829-0.759-5.954
			c-0.162-2.154-0.309-4.362,0.319-7.134c0.7-2.268,1.326-4.419,1.703-6.815c0.389-2.365,0.296-4.812-0.161-7.777l-0.749-4.588
			l-0.196-1.185l0.003,0.017l-0.038-0.173l-0.076-0.34l-0.128-0.688c-0.152-0.924-0.226-1.866-0.218-2.801
			c0.032-3.785,1.286-7.226,2.517-10.298l1.838-4.488c0.519-1.325,0.935-2.848,1.354-4.318c0.816-2.938,1.449-5.822,1.958-8.543
			C360.245,336.765,360.65,328.526,360.738,328.545z"/>
		<path style="fill:#21983A;" d="M326.354,415.646c-0.062-2.696-0.124-5.433-0.245-8.124c-0.083-1.889-0.25-4.674-0.701-7.857
			c-0.437-3.184-1.236-6.727-2.194-10.044c-1.938-6.627-4.092-12.497-4.314-14.454c-0.691-5.268-4.065-12.128-8.989-9.527
			c-4.033,2.132-1.109,9.321,1.532,12.068c0.839,0.911,3.777,6.378,6.405,12.488c1.305,3.06,2.436,6.306,3.178,9.283
			c0.754,2.974,1.181,5.661,1.452,7.438c0.573,3.75,0.769,7.363,0.659,9.818l-0.079,9.095c-0.102,4.84,0.064,11.324-0.316,18.172
			c-0.251,3.401-0.764,6.934-2.268,9.975c-1.464,3.06-4.059,5.428-7.054,7.148c-6.183,3.314-12.947,5.245-18.412,7.139
			c-10.82,3.581-16.921,6.156-20.635,8.014c-3.715,1.87-5.125,2.806-6.504,3.72c-1.388,0.954-2.217,2.355-2.422,3.619
			c-0.221,1.268,0.2,2.344,0.856,2.91c0.673,0.578,1.526,0.74,2.392,0.476c0.893-0.273,1.809-1.013,3.273-2.582
			c1.453-1.497,2.648-2.622,5.798-4.495c3.174-1.859,8.423-4.341,18.545-7.912c5.346-1.98,12.126-3.946,18.907-7.643
			c3.367-1.939,6.66-4.907,8.46-8.714c1.839-3.772,2.332-7.748,2.587-11.362c0.23-3.636,0.181-7.063,0.188-10.184l-0.004-8.543
			L326.354,415.646z"/>
		<path style="fill:#21983A;" d="M352.456,457.752c0.31,4.916-0.277,9.018-1.81,12.945c-1.585,3.893-4.133,7.672-9.577,11.014
			c-2.737,1.649-5.207,2.513-7.27,3.115c-2.075,0.592-3.788,0.901-5.356,1.14l-4.646,0.614c-1.73,0.284-3.52,0.811-5.598,1.673
			c-4.103,1.792-5.568,2.672-7.552,3.534c-1.948,0.807-4.372,2.06-9.722,3.66c-2.694,0.707-3.791,0.693-4.454,0.755
			c-0.642,0.043-0.551,0.057-0.336,0.09c0.361,0.062,1.379,0.204-2.899,0.731c-4.372,0.474-7.832,1.98-9.58,3.662
			c-1.776,1.715-1.895,2.967-1.93,2.913c3.237-1.761,6.227-1.035,9.012-0.355c2.831-0.764,5.939-0.93,9.38-1.987
			c3.256-1.064,6.126-2.605,8.904-4.171c0.01,0.04,3.979-1.846,8.589-3.826c2.307-0.961,4.818-1.863,7.042-2.237
			c2.36-0.35,4.868-0.705,6.56-1.071c3.451-0.719,7.909-1.606,12.054-3.426c4.166-1.74,7.79-4.686,9.573-7.145
			c1.885-2.389,3.572-6.77,3.904-11.457c0.406-4.7-0.229-9.595-0.804-13.951c-0.611-4.379-2.022-5.849-2.802-5.019
			C352.293,449.79,352.073,452.848,352.456,457.752z"/>
		<path style="fill:#21983A;" d="M313.785,485.678c-12.907,0.566-24.811,9.501-33.228,18.691c-1.265,1.38,3.328,1.011,4.257-0.004
			c6.702-7.317,16.799-15.798,27.133-16.253C313.525,488.045,316.876,485.54,313.785,485.678z"/>
		<path style="fill:#21983A;" d="M314.944,480.193c-15.45,3.864-46.389,8.414-52.034,26.848c-0.493,1.611,4.128,0.961,4.603-0.581
			c5.023-16.414,34.254-20.537,48.041-23.986C318.335,481.778,317.706,479.503,314.944,480.193z"/>
		<path style="fill:#21983A;" d="M297.652,472.412c-19.015,7.408-34.151,19.826-43.325,38.246c-1.005,2.016,3.609,1.509,4.295,0.129
			c8.722-17.509,22.731-29.354,40.865-36.416C302.484,473.204,299.75,471.596,297.652,472.412z"/>
		<path style="fill:#21983A;" d="M258.476,389.816c6.817,14.299,13.03,31.419,4.811,46.532
			c-6.269,11.524-23.578,8.749-34.251,11.175c-7.683,1.746-15.169,4.832-22.352,8.002c-3.543,1.564-12.279,4.673-12.883,9.38
			c-0.257,2.004,4.4,1.206,4.622-0.507c0.78-6.061,22.151-11.617,26.974-13.156c9.409-3,19.717-1.773,29.117-5.15
			c25.021-8.988,17.422-38.929,8.564-57.508C262.256,386.861,257.745,388.286,258.476,389.816z"/>
		<path style="fill:#21983A;" d="M291.539,331.642c-9.718,17.201-5.757,34.477-1.507,52.612c2.938,12.543,6.159,25.585,6.266,38.522
			c0.047,5.699-3.632,12.367-5.554,17.678c-3.115,8.602-5.447,15.564-14.929,19.983c-2.747,1.282,1.597,0.964,2.62,0.488
			c17.828-8.309,23.761-33.863,21.395-51.693c-3.441-25.937-17.945-53.339-3.761-78.437
			C296.347,330.304,292.173,330.521,291.539,331.642z"/>
		<path style="fill:#21983A;" d="M247.944,458.204c-13.594,0.699-24.152,12.671-33.107,21.656c-2.041,2.048,2.408,2.803,3.85,1.354
			c7.649-7.676,17.211-19.048,28.844-19.645C250.136,461.433,251.083,458.044,247.944,458.204z"/>
		<path style="fill:#21983A;" d="M244.523,450.496c-12,4.442-23.678,6.815-35.105,12.855c-7.012,3.708-17.746,9.54-18.762,18.348
			c-0.162,1.394,4.418,0.481,4.558-0.735c1.112-9.62,13.788-15.253,21.379-19.062c9.494-4.766,19.729-6.444,29.594-10.094
			C249.25,450.675,246.376,449.809,244.523,450.496z"/>
		<path style="fill:#21983A;" d="M230.867,462.625c-5.771,2.679-12.828,1.813-18.887,4.133c-6.625,2.538-12.695,5.92-18.159,10.458
			c-2.406,1.996,1.338,3.255,2.994,1.88c5.566-4.623,11.777-8.062,18.638-10.356c5.779-1.934,11.789-1.049,17.388-3.648
			C235.714,463.758,233.131,461.573,230.867,462.625z"/>
		<path style="fill:#21983A;" d="M233.723,162.693c6.74,5.03,15.514,7.364,20.843,8.542c1.337,0.283,1.93,0.528,2.091,0.985
			c0.147,0.421-0.241,1.044-1.111,1.556c-1.727,1.099-5.185,1.358-7.163,0.725c-4.059-1.109-10.681-4.121-15.583-6.806
			c-2.502-1.271-12.004-6.732-20.939-12.785c-8.982-5.989-17.558-12.348-19.462-13.77c-0.951-0.711-3.497-2.67-6.853-5.352
			c-1.649-1.319-3.614-2.893-5.526-4.654l-5.883-5.468c-3.981-3.741-8.061-7.526-11.684-10.518c-3.601-3-6.822-5.173-8.576-5.789
			c-0.511-0.191-0.981-0.352-1.307-0.424l-0.33-0.067l-0.01-0.028l-0.016-0.421c-0.035-0.278-0.052-0.421-0.117-0.581l1.815-2.365
			c2.045,5.587,0.063,8.373-1.602,5.44c-0.455-0.802-1.144-2.208-1.942-3.921l-0.667-1.428l1.498-0.424
			c1.455-0.414,2.449,0.014,3.377,0.326c0.917,0.362,1.763,0.819,2.579,1.308c1.632,0.98,3.156,2.097,4.536,3.16
			c2.75,2.132,4.913,4.048,5.605,4.645c0.919,0.768,5.763,5.734,10.843,10.953c4.988,5.309,10.99,10.103,13.316,11.603
			c4.619,3.022,17.152,12.54,22.446,15.962c2.619,1.751,6.941,3.771,10.93,5.497C228.818,160.334,232.467,161.757,233.723,162.693z"
			/>
		<path style="fill:#21983A;" d="M318.496,179.402c2.28-2.413,4.14-5.489,6.132-8.521c1.014-1.532,1.996-2.986,3.089-4.493
			c1.094-1.471,2.225-2.829,3.295-4.152c2.16-2.642,4.002-5.123,5.181-7.734c1.232-2.341,1.49-5.399,3.224-8.148
			c0.845-1.368,1.938-2.175,2.713-2.465c0.774-0.314,1.232-0.247,1.375-0.11c0.319,0.335-0.516,1.083-1.103,2.308
			c-0.603,1.24-0.877,2.943-1.105,4.906c-0.126,0.976-0.261,2.008-0.521,3.058c-0.264,1.099-0.712,2.07-1.055,2.83
			c-1.569,3.336-4.86,7.074-7.933,10.753c-2.985,3.669-5.514,8.247-8.228,12.247c-0.703,0.98-1.894,2.751-3.964,4.783
			c-0.256,0.257-0.525,0.512-0.819,0.764l-0.439,0.386l-0.209,0.217l-1.62,1.697c-1.135,1.173-2.379,2.427-3.719,3.733
			c-5.359,5.218-12.272,11.322-19.929,16.476c-7.612,5.149-16.159,9.306-23.895,10.296c-3.833,0.486-7.363,0.307-10.131-0.587
			c-2.665-0.83-4.411-1.811-5.339-2.313c-0.925-0.509-2.602-1.515-4.679-3.038c-2.085-1.511-4.555-3.557-7.308-5.827l-2.132-1.716
			l-0.552-0.428l-0.167-0.128l-0.262-0.166l-1.277-0.795c-1.715-1.08-3.467-2.244-5.259-3.445
			c-3.583-2.401-7.303-4.975-11.181-7.291c-1.928-1.219-3.912-2.091-6.032-3.412c-2.049-1.28-3.953-2.641-5.769-4.088
			c-3.626-2.887-6.761-6.018-9.631-8.814c-2.837-2.834-5.509-5.238-7.826-7.36c-2.232-2.046-4.243-3.524-5.718-4.526
			c-5.939-3.909-9.853-7.191-11.215-9.294c-1.385-2.075-0.512-2.629,2.261-0.874c2.718,1.816,9.927,6.013,16.022,11.467
			c5.937,5.365,11.274,10.862,12.715,12.157c0.734,0.654,3.044,3.11,6.624,5.985c1.822,1.426,3.869,2.976,6.341,4.326
			c2.505,1.409,5.074,3.063,7.619,4.795c5.065,3.522,10.181,7.094,14.669,10.089c4.146,3.393,7.497,6.223,9.465,7.457
			c1.941,1.242,4.764,3.175,8.431,4.497c3.632,1.392,8.248,1.278,12.639,0.361c8.882-1.928,16.887-7.001,21.22-9.949
			c4.388-2.979,10.234-8.419,15.122-13.775c2.461-2.665,4.712-5.287,6.572-7.474l0.679-0.799l0.332-0.388l0.345-0.345l0.159-0.155
			c0.424-0.397,0.795-0.793,1.142-1.154L318.496,179.402z"/>
		<path style="fill:#21983A;" d="M160.899,150.34c3.768,1.166,6.513,0.014,6.614-0.811c0.09-0.44-0.38-0.835-1.409-1.201
			c-1.031-0.388-2.622-0.742-4.833-1.577c-4.467-1.79-7.689-4.036-11.119-6.644c-1.698-1.333-3.425-2.815-5.27-4.6
			c-0.922-0.892-1.877-1.854-2.882-2.908l-0.764-0.805l-0.339-0.379l-0.337-0.462l-1.401-1.966
			c-3.76-5.501-7.324-10.984-11.053-15.645c-3.577-4.885-7.637-8.702-10.674-12.138c-2.956-3.307-4.917-4.459-4.963-2.843
			c0.004,0.812,0.618,2.351,2.198,4.398c1.566,2.058,4.135,4.493,7.549,7.484c1.827,1.618,3.133,2.96,4.244,4.29
			c1.11,1.332,2.159,2.479,3.132,3.809c2.015,2.63,4.123,5.825,8.198,11.593l1.224,1.711l0.635,0.89l0.731,0.816l2.689,3.02
			c1.777,1.99,3.536,3.915,5.365,5.713C152.078,145.648,156.096,148.82,160.899,150.34z"/>
		<path style="fill:#21983A;" d="M138.709,116.365c-0.716-0.6-5.042-2.994-9.209-5.785c-4.192-2.755-8.356-5.701-9.408-6.453
			c-3.2-2.32-6.774-3.533-7.491-4.029c-0.716-0.511-0.912-0.919-0.278-1.827c0.636-0.911,1.024-1.181,1.816-0.621
			c0.8,0.55,5.028,4.047,6.536,4.982c3.939,2.441,8.356,5.228,12.034,7.294c3.671,2.094,6.597,3.405,7.303,3.619
			c1.408,0.44,1.044,1.233,0.675,2.046C140.333,116.397,139.278,116.899,138.709,116.365z"/>
		<path style="fill:#21983A;" d="M140.188,111.94c-0.94-0.463-6.712-2.084-11.393-5.873c-4.725-3.676-8.347-8.485-9.373-9.534
			c-1.482-1.723-3.17-3.12-4.609-3.888c-1.436-0.8-2.534-0.98-2.912-1.133c-0.758-0.316-1.068-0.579-0.807-1.676
			c0.255-1.061,0.575-1.49,1.729-1.061c0.584,0.183,2.376,1.182,3.87,2.605c1.518,1.401,2.864,3.046,3.597,3.784
			c3.735,3.933,7.866,8.312,12.03,10.594c4.084,2.404,7.721,3.015,8.53,3.146c1.672,0.147,1.502,1.016,1.334,1.889
			C142.026,111.668,140.997,112.347,140.188,111.94z"/>
		<path style="fill:#21983A;" d="M141.033,106.393c-0.469-0.255-2.063-0.788-4.091-1.723c-2.032-0.923-4.498-2.241-6.904-3.703
			c-4.819-2.91-9.376-6.389-10.512-7.294c-3.47-2.734-7.226-4.687-7.966-5.416c-0.738-0.704-0.906-1.199-0.121-1.977
			c0.786-0.786,1.221-0.969,1.985-0.233c0.718,0.773,5.059,5.038,6.717,6.13c4.214,2.953,9.128,6.056,13.304,8.128
			c4.173,2.122,7.538,3.02,8.297,3.065c1.521,0.147,1.364,0.968,1.225,1.861C142.848,106.103,141.819,106.84,141.033,106.393z"/>
		<path style="fill:#21983A;" d="M151.752,109.52c-1.024-1.483-15.715-10.798-17.797-12.248c-3.191-2.153-6.731-3.353-7.456-3.933
			c-0.715-0.554-0.901-1.012-0.189-1.854c0.715-0.854,1.107-1.092,1.831-0.526c0.693,0.597,4.847,3.953,6.365,4.807
			c7.85,4.493,17.626,10.406,18.974,11.172c1.37,0.7,0.846,1.428,0.325,2.142C153.279,109.798,152.196,110.105,151.752,109.52z"/>
		<path style="fill:#21983A;" d="M238.888,160.185c8.695-8.962,16.343-18.939,26.652-26.186c1.963-1.38-2.67-0.933-3.57-0.302
			c-10.539,7.408-18.39,17.551-27.283,26.715C233.601,161.534,238.062,161.036,238.888,160.185z"/>
		<path style="fill:#21983A;" d="M177.616,167.202c-10.118,4.742-19.759,10.173-25.942,19.769
			c-4.647,7.213-4.048,17.613,4.595,21.39c20.514,8.961,39.327-6.184,53.677-19.196c1.106-1.002-3.326-0.564-4.2,0.23
			c-12.398,11.241-32.425,28.417-49.149,14.58c-15.888-13.145,15.163-31.948,23.727-35.962
			C183.096,166.714,178.81,166.643,177.616,167.202z"/>
		<path style="fill:#21983A;" d="M220.703,138.462c8.35-5.409,19.333-14.222,28.465-21.471c9.14-7.224,12.861-10.106,11.726-8.792
			c-1.198,1.254-2.844,4.68-9.629,10.386c-6.786,5.666-12.258,10.122-15.387,12.828c-3.161,2.665-2.01,1.252-12.1,8.39
			c-10.198,7.043-13.085,6.872-10.223,4.805C216.372,142.486,220.709,138.466,220.703,138.462z"/>
		<path style="fill:#21983A;" d="M262.506,107.987c5.442-6.351,10.808-12.747,15.776-19.478c5.195-7.039,8.757-15.068,14.406-21.821
			c0.665-0.797-2.053-0.479-2.532,0.093c-5.094,6.09-8.759,13.032-12.985,19.721c-4.887,7.731-11.262,14.651-17.194,21.578
			C259.306,108.863,262.02,108.556,262.506,107.987z"/>
		<path style="fill:#21983A;" d="M277.135,98.4c0.202-0.471,0.726-2.135,2.127-3.776c0.68-0.826,1.52-1.659,2.408-2.497l1.269-1.223
			l0.939-1.573c2.602-4.407,4.297-9.366,4.675-10.62c1.294-3.855,0.9-7.653,1-8.499c0.103-0.869,0.342-1.247,1.287-1.154
			c0.945,0.093,1.307,0.299,1.185,1.313c-0.027,1.042-1.505,6.594-2.077,8.354c-0.598,2.351-1.418,4.814-2.406,7.162
			c-0.482,1.183-1.025,2.325-1.564,3.427l-0.835,1.609l-0.424,0.769c-0.083,0.26-0.562,0.799-0.694,0.906
			c-1.572,1.628-2.831,2.961-3.469,4.088c-0.663,1.111-0.774,1.913-0.799,2.213c-0.022,1.173-0.673,1.192-1.47,1.194
			C277.532,100.134,276.765,99.24,277.135,98.4z"/>
		<path style="fill:#21983A;" d="M281.244,106.711c0.257-0.598,1.069-2.491,2.691-4.536c1.57-2.077,3.855-4.374,5.849-6.844
			c3.926-4.987,5.296-11.614,5.985-13.144c0.828-2.434,1.495-4.847,2.254-6.784c0.742-1.937,1.599-3.379,2.037-3.864
			c0.875-0.98,1.503-1.202,2.1-0.483c0.626,0.74,0.684,1.114-0.113,1.968c-0.41,0.414-1.709,1.935-2.699,3.884
			c-1.011,1.923-1.825,4.123-2.151,5.221c-0.852,2.869-1.64,5.987-2.913,8.98c-0.321,0.747-0.671,1.483-1.077,2.196
			c-0.275,0.579-0.749,1.449-1.175,2.065c-0.887,1.323-1.838,2.475-2.722,3.555c-1.784,2.139-3.29,3.998-4.199,5.499
			c-0.928,1.496-1.219,2.56-1.283,2.943c-0.174,1.484-0.759,1.439-1.571,1.464C281.495,108.894,280.732,107.72,281.244,106.711z"/>
		<path style="fill:#21983A;" d="M284.842,91.116c3.057-3.972,6.508-7.665,9.738-11.493c2.964-3.514,6.743-7.3,8.663-11.539
			c0.208-0.466-2.405-0.231-2.727,0.479c-2.03,4.488-6.003,8.367-9.143,12.09c-3.075,3.646-6.345,7.16-9.257,10.941
			C281.919,91.851,284.34,91.766,284.842,91.116z"/>
		<path style="fill:#21983A;" d="M275.891,123.319c2.461-1.202,5.041-2.634,7.45-4.567c2.413-1.92,4.63-4.331,6.555-7.053
			c3.801-5.478,6.761-11.972,8.488-17.987c0.447-1.514,0.771-2.915,1.045-4.267c0.311-1.356,0.492-2.382,0.547-3.513
			c0.109-2.196,0.177-4.176,0.668-5.578c0.467-1.411,1.132-2.158,1.47-2.442c0.334-0.3,0.363-0.214,0.089,0.198
			c-0.568,0.835-0.919,2.37-0.617,4.747c0.11,1.197,0.397,2.634,0.397,4.497c-0.078,1.913-0.371,3.914-0.945,6.37
			c-2.527,9.668-6.571,16.606-9.152,20.562c-1.333,1.96-1.859,2.424-3.213,3.707c-1.402,1.183-3.581,3.521-9.711,6.922
			c-3.063,1.658-5.507,2.73-7.275,3.726c-1.779,0.973-2.949,1.785-3.727,2.292c-1.506,1.068-1.696,0.573-0.386-0.971
			C270.223,126.842,276.003,123.361,275.891,123.319z"/>
		<path style="fill:#21983A;" d="M186.911,23.052c-3.177-2.384-8.737-0.794-7.148,1.589c1.589,2.382,7.148,2.382,7.148,2.382V23.052
			z"/>
		<path style="fill:#21983A;" d="M235.362,28.609c-3.553,1.777-3.971-7.943,2.382-7.148
			C244.097,22.258,240.127,26.227,235.362,28.609z"/>
		<path style="fill:#21983A;" d="M191.677,65.148c5.56-3.179,11.914-3.179,7.148,0.793
			C194.059,69.912,191.677,65.148,191.677,65.148z"/>
		<path style="fill:#21983A;" d="M178.175,65.941c-4.765-4.766-6.355,0-3.972,2.382C176.586,70.705,178.175,65.941,178.175,65.941z"
			/>
		<path style="fill:#21983A;" d="M239.827,299.296c0.723,1.899,1.457,3.269,0.372,5.106c-1.325,2.241-0.514,1.328-0.688,4.183
			c-0.012,1.413,1.012,11.377,3.874,21.428c0.725,2.52,1.546,5.006,2.516,7.427c0.966,2.486,1.757,4.978,2.433,7.224
			c1.349,4.521,2.26,8.243,2.78,10.161c1.971,7.714,5.286,17.32,7.658,22.706c2.321,5.373,0.384,6.943-1.074,3.988l-3.476-6.822
			c-1.308-2.658-2.436-5.276-2.774-6.403c-0.76-2.254-4.657-14.763-5.167-16.504c-0.13-0.442-0.793-2.784-1.883-5.987
			c-0.54-1.592-1.209-3.446-1.957-5.287c-0.792-1.861-1.754-3.993-2.545-6.144c-3.288-8.611-5.115-17.597-5.679-18.675
			c-1.078-2.213-1.649-7.01-2.807-8.586c-1.772-2.41,1.01-4.588,4.084-6.829C236.877,299.275,239.38,298.121,239.827,299.296z"/>
		<path style="fill:#21983A;" d="M271.372,460.983c-5.981,1.98-10.242,2.182-18.383,4.788c-8.172,2.62-9.401,2.12-14.611,3.558
			c-2.599,0.747-3.628,1.101-4.948,1.43l-2.418,0.612c-1.023,0.286-2.334,0.519-4.379,1.373c-3.726,1.732-3.534,1.778-3.309,1.694
			c0.293-0.076,0.815-0.197-1.395,1.278c-2.168,1.459-3.424,2.582-4.274,3.379c-0.836,0.8-1.207,1.287-1.202,1.302
			c1.902,0.442,4.069,0.474,6.184,0.355c1.673-1.189,3.186-2.436,4.708-3.531c0.76-0.544,1.521-1.045,2.294-1.458
			c0.775-0.405,1.711-0.826,2.575-1.209c-0.001-0.004,2.527-0.738,5.603-1.456l8.754-1.923c4.112-0.982,10.537-1.564,13.694-2.318
			c3.16-0.737,9.09-3.788,14.141-5.684c2.55-0.951,3.23-2.118,2.562-2.658C276.289,459.951,274.334,459.977,271.372,460.983z"/>
		<path style="fill:#21983A;" d="M307.329,136.113c1.98-5.745,2.125-10.101,1.996-13.095c-0.169-3.005-0.495-4.745-0.316-5.518
			c0.162-0.775,0.75-0.552,1.523,0.6c0.749,1.144,1.568,3.305,1.68,6.106c0.212,5.594-1.204,10.996-3.222,15.726
			c-2.039,4.737-4.645,8.887-7.315,12.254c-5.362,6.717-11.724,12.569-18.863,17.251c-3.549,2.372-9.297,5.29-13.154,6.379
			c-1.915,0.573-3.304,0.752-3.574,0.637c-0.28-0.141,0.561-0.481,2.899-1.556c4.654-2.235,7.579-4.455,10.658-6.793
			c3.046-2.396,6.247-5.002,10.771-9.197c4.531-4.19,9.317-9.601,12.379-14.306C305.916,139.925,307.322,136.099,307.329,136.113z"
			/>
	</g>
	<g>
		<path style="fill:#21983A;" d="M273.485,54.817c-2.383-1.587-3.176-10.323,2.383-7.941c5.558,2.382,7.942,7.941,4.765,10.325
			C277.456,59.583,273.485,54.817,273.485,54.817z"/>
		<path style="fill:#21983A;" d="M319.551,95.325c6.355,3.179,5.558,8.738,0,8.738c-5.559,0-7.942-1.59-7.942-4.766
			c0-3.177-1.589-15.886,1.589-11.914C316.374,91.356,319.551,95.325,319.551,95.325z"/>
		<path style="fill:#21983A;" d="M335.436,113.593c-0.794,6.355-1.589,5.559,3.971,5.559c5.561,0,3.971-1.589,2.384-7.148
			C340.202,106.445,335.436,113.593,335.436,113.593z"/>
		<path style="fill:#21983A;" d="M356.086,141.393c5.56,5.559,2.384,11.12-1.589,11.914c-3.971,0.793-2.382-7.151-2.382-10.327
			C352.116,139.803,356.086,141.393,356.086,141.393z"/>
		<path style="fill:#21983A;" d="M371.177,158.072c4.961,3.722,3.971,12.707,3.971,12.707s-5.559,3.176-9.531,0
			c-3.971-3.177-0.794-7.943-0.794-7.943S368.002,155.689,371.177,158.072z"/>
		<path style="fill:#21983A;" d="M360.057,187.458c-0.721,7.95,7.148,14.298,7.148,14.298s7.149-4.768,7.149-11.12
			C374.354,184.282,360.85,178.721,360.057,187.458z"/>
		<path style="fill:#21983A;" d="M346.555,181.103c2.383,4.766,5.56,9.533,0.794,7.945c-4.765-1.59-7.15-1.59-6.354-6.356
			C341.79,177.928,346.555,181.103,346.555,181.103z"/>
		<path style="fill:#21983A;" d="M377.531,224.789c0-3.972-6.354-7.15,0.794-11.12c7.149-3.972,5.561-7.943,7.149-0.793
			c1.588,7.148-2.383,14.294-4.765,18.265C378.325,235.113,377.531,224.789,377.531,224.789z"/>
		<path style="fill:#21983A;" d="M360.057,222.406c3.972,2.384,1.589,10.325,1.589,10.325s-7.942-1.59-7.942-4.766
			C353.704,224.789,356.085,220.023,360.057,222.406z"/>
		<path style="fill:#21983A;" d="M310.814,293.888c9.531,0.793,15.885-3.972,18.267,0.793c2.383,4.766-1.587,4.766-3.176,7.148
			c-1.59,2.384-8.738,1.59-8.738,1.59s-3.804,1.168-7.148,1.587c-12.707,1.589-12.709,0-14.297-7.943
			c-1.588-7.941-0.793-9.528,6.355-5.558C309.227,295.475,310.814,293.888,310.814,293.888z"/>
		<path style="fill:#21983A;" d="M312.402,320.098c6.355-1.589,11.12-2.382,11.12-2.382c2.384,1.587-1.588,5.559-2.382,7.941
			c-0.795,2.382-3.176,6.353-7.148,5.559c-3.972-0.794-11.12-3.177-10.326-7.941C304.46,318.509,312.402,320.098,312.402,320.098z"
			/>
		<path style="fill:#21983A;" d="M240.127,309.771c3.971,0.797,3.971,3.971,11.119,2.384c7.149-1.587,6.355,3.177,3.177,6.354
			c-3.177,3.176-9.53,7.148-9.53,7.148l-7.943-12.707L240.127,309.771z"/>
		<path style="fill:#21983A;" d="M250.451,334.395c7.042,2.01,8.737-3.973,11.12-1.59c2.383,2.384,2.382,3.972-1.59,8.738
			c-3.971,4.766-4.766,5.556-9.531,3.969C245.686,343.925,244.891,332.808,250.451,334.395z"/>
		<path style="fill:#21983A;" d="M310.02,138.214c7.148,7.148,14.297,11.914,8.737,14.296c-5.56,2.384-15.091-2.382-15.091-2.382
			L310.02,138.214z"/>
		<path style="fill:#21983A;" d="M302.078,154.1c4.765,4.766,4.765,11.914,4.765,11.914c-11.12-1.59-7.944,6.355-13.503,3.972
			c-5.559-2.384-10.325-3.177-4.766-7.15C294.135,158.866,302.078,154.1,302.078,154.1z"/>
	</g>
</g>
</svg>
