<?xml version="1.0" encoding="iso-8859-1"?>
<!-- Generator: Adobe Illustrator 18.1.1, SVG Export Plug-In . SVG Version: 6.00 Build 0)  -->
<svg version="1.1" id="_x35_" xmlns="http://www.w3.org/2000/svg" xmlns:xlink="http://www.w3.org/1999/xlink" x="0px" y="0px"
	 viewBox="0 0 512 512" style="enable-background:new 0 0 512 512;" xml:space="preserve">
<g>
	<g>
		<path style="fill:#FFFFFF;" d="M183.333,487.259c0.121-0.131,0.241-0.249,0.363-0.378
			C183.566,487.007,183.444,487.132,183.333,487.259z"/>
		<path style="fill:#FFFFFF;" d="M388.648,188.592c-0.721-7.839-1.2-15.032-1.59-17.758c-0.867-6.069,0-6.935-1.3-16.038
			c-0.975-6.822-5.115-12.914-17.527-27.032c-1.725-2.921-3.982-5.932-6.504-7.306c-2.68-2.984-5.635-6.253-8.911-9.875
			c-2.963-3.274-5.95-6.445-8.93-9.51c0.043-0.016,0.066-0.025,0.066-0.025s-18.168-22.289-39.993-36.254
			c-5.293-4.313-9.673-7.734-12.694-10.126c-10.403-8.235-17.772-16.472-17.772-16.472l-10.836-26.008c0,0-4.768-10.836-13.438-9.97
			c-8.67,0.866-19.071,12.571-19.071,12.571s-6.069,0.867-15.172,1.3c-9.103,0.433-23.84-1.733-32.942,0.867
			c-9.103,2.601-50.282,11.703-50.282,11.703s-3.468,6.068,5.202,11.703c2.394,1.556,4.281,2.912,5.92,4.244
			c-2.871,0.434,4.048,5.509,4.048,5.509s5.852,6.502,9.103,11.053c2.399,3.358,7.977,10.957,12.048,16.542
			c1.741,2.606,3.876,5.795,5.956,8.893c3.066,5.523,7.598,14.826,10.36,22.246c0.424,3.072,0.963,6.2,2.413,9.101
			c0.217,7.368,1.735,32.944,1.735,32.944c-1.3,8.67,1.734,15.172,1.734,16.472c0,1.3-13.437-15.605-19.506-21.24
			c-6.069-5.636-9.97-16.471-11.703-22.972c-1.733-6.502,1.733-7.369-2.168-27.742c-3.901-20.373-14.737-16.471-16.037-20.372
			c-1.3-3.901-8.235-19.506-14.304-25.574s-5.635-6.502-8.67-6.502c-3.035,0-0.866,6.069-0.866,6.069s-3.901-1.735-0.434,6.502
			c3.467,8.237,4.769,20.372,4.335,32.509c-12.136,19.073,0.866,42.478,2.601,44.646c1.735,2.168,3.034,13.871,3.034,13.871
			s4.769,17.771,7.369,26.441c2.601,8.67-0.867,12.136,8.668,31.642c14.304,16.038,26.007,8.67,26.875,9.97
			c0.867,1.3,17.338,8.67,17.338,8.67s13.438-6.069,16.905-3.901c-0.096,0.234-0.179,0.484-0.251,0.747
			c-1.815,0.631-3.551,1.182-5.167,1.637c-0.865,3.459,5.177,23.013,16.2,39.554c0.289,1.888,0.439,3.991,0.559,6.602
			c-0.78,6.014-2.264,16.958-4.125,28.288c-14.154,46.844-8.764,56.651-2.447,69.681c6.935,14.304,9.536,22.974,17.772,32.076
			c8.236,9.103,25.573,33.81,29.474,45.513c3.901,11.703-7.802,13.87-28.174,14.304c-20.372,0.434-33.377,6.935-43.347,16.471
			c3.901-2.168,19.94-3.034,19.94-3.034s-10.163,4.67-20.443,15.659c7.783-7.645,44.05-14.274,29.979-9.157
			c-14.304,5.201-13.871,13.871-13.871,13.871s10.837-6.936,17.339-6.936c-12.57,4.334-14.738,14.304-14.738,14.304
			s14.738-8.235,25.574-9.103c10.836-0.867,15.605-0.433,3.901,2.601c-11.703,3.034-18.638,18.64-16.038,15.172
			s23.84-9.536,38.577-9.97c14.737-0.434,26.008-3.901,42.913-13.004c16.905-9.103,21.24-32.942,17.772-47.247
			c-3.468-14.304-17.338-51.582-18.638-60.685c-1.3-9.103,0.866-13.87,2.601-19.506c2.655-1.608,5.811-4.113,9.23-7.172
			c0.373,0.252,0.714,0.483,0.978,0.672c10.207-6.501,41.808-47.681,41.808-47.681s0.383,0.841,1.684,2.125
			c2.212,2.568,6.267,6.493,10.055,6.068c7.028,3.06,2.969,1.755,8.367-5.363c0.79-0.83,1.556-1.752,2.302-2.75
			c8.597-9.926,18.356-40.985,20.069-54.695c0.98-7.848,1.682-15.418,1.481-22.005c0.038-0.347,0.058-0.535,0.058-0.535
			C398.11,223.62,390.648,195.814,388.648,188.592z"/>
	</g>
	<g>
		<path style="fill:#231815;" d="M134.085,35.414c-1.692-0.937-3.047-2.047-3.845-2.955c-0.404-0.452-0.665-0.857-0.79-1.123
			c-0.065-0.133-0.089-0.226-0.095-0.272l-0.029-0.025c-0.203,0.036-0.34,0.057-0.479,0.065c-0.509,0.03-0.494-0.067-0.234,0.058
			c0.141,0.062,0.296,0.154,0.519,0.303l0.146,0.111l0.03,0.015l0.02-0.014c0.076-0.066,0.288-0.223,0.425-0.325
			c0.295-0.217,0.249-0.328-0.14-0.432c-0.387-0.091-1.035-0.225-1.834-0.284c-0.8-0.081-1.719,0.272-2.358,1.093
			c-0.639,0.794-1.04,1.829-1.158,2.917c-0.216,2.168,0.664,4.792,4.06,7.066c0.51,0.333,1.313,0.825,2.458,1.375
			c0.578,0.274,1.232,0.565,2.038,0.85c0.405,0.142,0.846,0.282,1.374,0.411c0.541,0.122,1.114,0.268,2.15,0.272l-0.574-0.041
			c2.057,0.207,4.485,0.514,7.133,1.134c2.637,0.577,5.603,1.699,9.253,2.701c3.595,0.992,7.61,1.547,11.43,1.841
			c3.794,0.35,7.689,0.784,11.569,1.319c7.757,1.072,15.46,2.592,22.091,4.659c0.829,0.254,1.641,0.522,2.433,0.794
			c0.183,0.065,0.492,0.179,0.731,0.22l0.58,0.142l1.157,0.32c1.532,0.453,3,0.965,4.38,1.471c2.762,1.021,5.185,2.041,7.176,2.945
			c9.354,4.287,13.624,7.162,15.826,8.524c2.175,1.415,2.494,1.228,3.99,0.888c0.721-0.13,1.07-0.65,0.795-1.575
			c-0.274-0.91-0.975-1.848-1.953-2.715c-1.954-1.738-5.012-3.227-8.389-4.396c-1.691-0.587-5.734-2.532-11.17-4.842
			c-2.728-1.152-5.77-2.42-9.177-3.581l-1.314-0.42l-1.158-0.335l-2.53-0.93c-1.746-0.616-3.53-1.196-5.331-1.736
			c-7.204-2.159-14.658-3.707-20.994-4.779c-3.168-0.535-6.06-0.952-8.508-1.266c-2.441-0.286-4.276-0.573-5.618-0.792
			c-1.757-0.281-3.571-0.757-5.381-1.413c-1.811-0.65-3.661-1.486-5.567-2.263c-3.818-1.586-7.636-2.674-10.388-3.369l-0.545-0.137
			l0.053,1.392c-0.014-0.356,0.024-0.674,0.051-1.065l0.029-0.258V36.95l-0.016-0.018l-0.152-0.09l-0.473-0.259
			c-0.331-0.192-0.649-0.399-0.904-0.575C134.367,35.649,134.085,35.412,134.085,35.414z"/>
		<path style="fill:#231815;" d="M130.559,26.839c-0.566,0.123-3.93-1.356-5.852,0.019c-1.938,1.356-1.611,1.704-2.111,2.137
			c-0.498,0.42-1.107,2.564-0.695,3.102c0.387,0.568,3.932,2.313,5.024,2.699c1.071,0.432,2.916,0.496,3.203-0.137
			c0.288-0.635,0.464-2.211,1.144-2.344c0.58-0.078,7.092-1.494,13.637-3.395c6.561-1.887,13.274-3.78,14.815-4.122
			c0.778-0.193,1.821-0.427,3.085-0.677c1.266-0.257,2.685-0.627,4.009-0.947c2.678-0.668,5.218-1.347,6.248-1.886
			c2.058-1.081,2.752-1.431,4.179-1.947c1.425-0.538,6.812-1.401,8.483-1.623c0.831-0.14,3.664-0.51,6.459-0.705
			c2.795-0.213,5.547-0.235,6.2-0.237c0.651-0.018,3.402-0.003,6.311,0.163c2.911,0.151,5.979,0.452,7.304,0.434
			c2.649-0.053,5.536-0.121,5.704-1.06c0.16-0.926,0.114-1.732-2.921-2.389c-1.561-0.335-3.29-0.255-4.653-0.216
			c-1.365,0.053-4.661-0.089-8.332,0.226c-1.831,0.136-6.449,0.194-10.963,0.656c-4.52,0.423-8.911,1.168-10.426,1.373
			c-3.043,0.419-3.435,1.302-4.876,1.816c-1.444,0.498-8.111,1.961-9.759,2.401c-0.842,0.202-2.827,0.676-4.913,1.02
			c-2.09,0.389-4.186,0.85-5.102,1.1c-1.862,0.465-14.344,2.917-16.091,3.532c-0.88,0.334-3.031,0.606-5.02,0.759
			C132.662,26.75,130.842,26.784,130.559,26.839z"/>
		<path style="fill:#231815;" d="M220.617,23.863c0.499-0.277,1.427-1.031,2.564-2.311c1.146-1.274,2.466-3.091,3.906-5.34
			c1.458-2.238,3.015-4.934,5.151-7.642c2.103-2.702,5.069-5.331,8.628-6.767c3.538-1.464,7.324-1.857,10.79-1.797
			c0.833-0.003,1.959,0.082,2.894,0.343c0.968,0.253,1.886,0.651,2.702,1.143c1.638,0.993,2.869,2.292,3.822,3.563
			c1.895,2.574,2.916,5.05,3.708,7.015c0.772,1.977,1.244,3.49,1.519,4.361c1.615,5.303,3.441,10.253,5.316,13.82
			c0.924,1.78,1.834,3.199,2.58,4.163c0.744,0.977,1.297,1.49,1.517,1.792c0.456,0.624,0.613,0.886,0.523,1.401
			c-0.098,0.502-0.352,1.234-0.959,2.389c-0.62,1.137-1.128,1.9-1.902,2.105c-0.747,0.197-1.791-0.23-2.779-1.473
			c-0.503-0.612-1.41-2.022-2.177-3.868c-0.789-1.846-1.492-4.116-2.113-6.438c-1.222-4.65-2.301-9.504-3.163-11.772
			c-1.088-2.959-2.29-5.984-3.873-8.642c-1.566-2.653-3.671-4.812-5.914-5.162c-0.283-0.05-0.569-0.079-0.857-0.096l-0.441-0.003
			l-0.572,0.015c-0.772,0.02-1.53,0.075-2.276,0.151c-1.488,0.155-2.91,0.43-4.224,0.837c-2.64,0.81-4.751,2.183-6.434,3.949
			c-1.69,1.768-3.016,3.897-4.221,6.01c-1.201,2.116-2.3,4.206-3.38,6.037c-2.127,3.699-4.255,6.248-5.03,7.191
			c-1.572,1.935-2.884,2.395-3.779,2.194c-0.917-0.207-1.514-1.059-2.126-1.897c-0.61-0.848-0.806-1.971-0.716-2.964
			C219.403,25.176,219.795,24.317,220.617,23.863z"/>
		<path style="fill:#231815;" d="M285.773,47.47c2.467,1.855,5.891,4.38,9.646,7.419c3.763,3.028,7.844,6.55,11.96,9.895
			c4.112,3.353,8.311,6.471,12.178,9.038c4.006,2.66,7.461,5.209,9.825,7.198c2.37,1.992,7.393,6.338,13.324,12.181
			c5.929,5.839,12.731,13.215,18.748,21.026c3.016,3.896,5.836,7.896,8.317,11.794c0.638,0.977,1.19,1.919,1.761,2.821
			c0.524,0.764,1.195,1.674,1.804,2.467c1.251,1.632,2.52,3.179,3.711,4.648c2.393,2.932,4.45,5.59,5.916,7.778
			c1.478,2.182,2.385,3.869,2.809,4.677c0.857,1.595,1.35,3.378,1.501,4.954c0.173,1.595,0.089,3.058-0.029,4.349
			c-0.241,2.584-0.574,4.494,0.358,5.758c0.932,1.255,1.843,3.689,2.224,6.125c0.387,2.438,0.301,4.824-0.587,6.098
			c-0.922,1.257-0.613,3.209,0.065,5.412c0.671,2.207,1.675,4.677,2.068,7.247c0.794,5.141-0.319,8.866,1.378,13.891
			c0.819,2.527,3.179,10.733,4.746,19.943c0.38,2.309,0.699,4.683,0.858,7.086c0.147,2.41,0.197,4.813-0.307,7.383l-0.711,2.999
			l-0.556,2.657c-0.342,1.697-0.64,3.228-0.944,4.487c-0.662,2.508-1.114,7.764-2.371,14.481c-1.365,6.832-4.17,14.408-7.451,21.68
			c-3.28,7.255-6.958,14.137-9.891,19.669l-1.069,2.009l-0.508,0.954c0-0.003-0.204,0.462-0.388,0.822
			c-0.72,1.456-1.636,2.879-2.777,4.07c-1.133,1.204-2.479,2.068-3.582,2.586c-1.114,0.516-1.994,0.759-2.611,0.912
			c-2.483,0.556-4.188,0.289-5.488-0.086c-1.286-0.403-2.136-1.021-2.517-1.698c-0.787-1.37,0.5-2.932,4.236-3.727
			c0.894-0.229,2.532-0.484,4.001-1.302c0.728-0.415,1.404-0.999,2.055-1.895c0.324-0.444,0.639-0.959,0.944-1.53
			c0.155-0.298,0.288-0.566,0.456-0.923l0.613-1.124c3.034-5.497,6.89-12.182,10.37-19.103c3.49-6.897,6.49-14.158,8.13-20.36
			c1.496-6.215,1.985-11.674,2.447-14.479c0.432-2.818,0.809-6.911,1.855-11.59c0.445-1.836,0.412-3.984,0.259-6.303
			c-0.164-2.298-0.49-4.681-0.87-7.017c-1.577-9.364-3.817-18.04-4.201-20.616c-0.845-5.154-0.586-8.741-1.38-13.961
			c-0.39-2.619-0.937-5-1.389-7.363c-0.222-1.186-0.427-2.36-0.538-3.615c-0.03-0.31-0.047-0.639-0.063-0.963l-0.028-0.848
			c-0.011-0.56-0.011-1.114,0.004-1.662c0.06-2.194,0.365-4.756,0.456-7.174c0.102-2.417-0.034-4.7-0.644-6.252
			c-1.209-3.067-0.244-7.064-2.34-10.672c-0.49-0.89-1.849-3.116-4.231-6.055c-2.341-2.98-5.781-6.532-9.4-11.087l-0.715-0.946
			l-0.603-0.894c-0.404-0.606-0.811-1.204-1.217-1.775c-0.809-1.168-1.657-2.339-2.531-3.511c-1.746-2.345-3.605-4.69-5.525-6.978
			c-3.837-4.578-7.922-8.922-11.755-12.679c-7.646-7.53-16.212-15.37-24.434-22.162c-2.059-1.704-4.066-3.33-6.076-4.91
			c-2.062-1.656-3.941-3.286-5.716-4.889c-3.538-3.198-6.529-6.209-9.028-8.651c-9.882-9.823-13.878-12.891-18.011-15.967
			C278.122,46.235,283.615,45.835,285.773,47.47z"/>
		<path style="fill:#231815;" d="M152.827,51.843c-2.914-2.485-5.33-3.894-7.03-4.837c-1.714-0.928-2.753-1.392-3.275-1.585
			c-1.055-0.375-0.015,0.335,1.093,1.919c1.096,1.591,1.237,3.017,1.641,4.314c0.394,1.317,1.041,2.46,2.864,3.889
			c0.908,0.724,3.628,2.724,6.612,6.523c1.506,1.887,3.069,4.221,4.777,6.83c1.731,2.593,3.575,5.496,6.075,8.14
			c4.57,4.8,8.494,10.68,11.756,16.13c1.636,2.724,3.132,5.331,4.473,7.661l0.474,0.824c0.096,0.207,0.217,0.535,0.319,0.816
			c0.212,0.578,0.394,1.146,0.561,1.695c0.33,1.1,0.582,2.131,0.79,3.058c0.801,3.723,1.267,6.586,1.822,8.717
			c0.531,2.136,1.082,3.551,1.565,4.465c1.01,1.818,1.533,1.705,2.485,1.436c0.97-0.328,0.88-1.223,0.424-2.574
			c-0.471-1.356-1.298-3.381-2.208-5.743c-0.497-1.166-1.102-4.334-2.187-8.668c-0.286-1.079-0.616-2.23-1.038-3.425l-0.173-0.476
			c-0.063-0.213-0.18-0.427-0.287-0.615l-0.443-0.809l-0.904-1.666l-3.844-7.072c-2.667-4.828-5.666-9.675-8.67-13.485
			c-0.744-0.954-1.487-1.853-2.196-2.667c-0.357-0.4-0.672-0.759-0.928-1.102l-0.819-1.087c-1.027-1.413-1.821-2.636-2.4-3.481
			c-2.296-3.393-4.511-7.941-6.84-11.371C155.037,54.142,152.812,51.843,152.827,51.843z"/>
		<path style="fill:#231815;" d="M280.183,127.802c-1.718,6.748-4.164,12.117-7.02,17.876c-2.911,5.75-6.295,11.922-11.12,20.062
			c-2.428,4.065-4.528,7.122-6.36,9.587c-1.881,2.531-3.332,4.424-4.803,6.098c-2.917,3.331-5.43,5.831-9.556,10.026
			c-4.169,4.155-5.97,5.68-8.267,7.51c-1.159,0.903-2.459,1.865-4.332,3.152c-1.874,1.281-4.319,2.9-7.844,4.935
			c-3.532,2.014-5.359,2.864-6.191,3.292c-0.837,0.417-0.696,0.375-0.414,0.291c0.548-0.202,1.738-0.43-3.369,2.235
			c-5.137,2.577-8.737,4.349-11.067,5.626c-2.329,1.261-3.368,2.004-3.363,2.017c4.122,0.434,8.427,0.446,12.771,0.084
			c8.205-3.946,15.624-9.105,22.405-14.876c-0.008-0.004,4.978-3.5,10.421-8.38c5.487-4.826,11.302-11.114,14.285-14.991
			l2.358-3.015l2.602-3.215c1.784-2.226,3.61-4.569,5.34-6.894c3.467-4.643,6.522-9.246,8.308-12.469
			c1.791-3.217,3.914-8.369,5.791-14.238c1.886-5.871,3.478-12.442,4.522-18.505c0.531-3.036,0.436-5.235,0.121-6.515
			c-0.324-1.285-0.843-1.665-1.384-1.238C282.902,117.134,281.843,121.082,280.183,127.802z"/>
		<path style="fill:#231815;" d="M237.107,102.986c0.474,1.163,0.82,2.305,0.994,3.321c0.155,1.025,0.192,2.197,0.16,3.281
			c-0.074,2.197-0.474,4.319-1.137,6.494c-1.313,4.374-3.759,8.881-7.067,15.271c-1.653,3.331-2.757,5.849-3.844,7.91
			c-1.057,2.063-1.959,3.67-2.812,5.11c-1.709,2.88-3.203,5.105-5.452,8.938c-2.267,3.82-3.236,5.303-4.52,7.109
			c-0.651,0.894-1.382,1.871-2.451,3.209c-1.076,1.345-2.447,3.057-4.474,5.307c-4.215,4.644-4.215,4.562-3.852,4.313
			c0.357-0.282,1.109-0.789-1.702,2.577c-2.824,3.333-4.607,5.726-5.741,7.189l-1.578,2.006c0.604,0.111,1.404-0.02,2.161-0.208
			c0.767-0.193,1.542-0.455,2.305-0.746c1.529-0.585,3.03-1.284,4.509-2.017c2.174-2.602,4.154-5.278,6.089-7.964
			c1.926-2.627,3.854-5.471,5.574-8.28c0,0.001,2.747-3.604,5.745-8.13c3.006-4.518,6.264-9.933,7.974-13.099
			c0.86-1.581,1.863-3.337,2.926-5.155c1.081-1.807,2.147-3.735,3.257-5.387c2.351-3.513,4.637-7.028,5.84-9.628
			c1.2-2.556,2.572-6.858,2.666-11.813c0.025-1.229-0.029-2.489-0.166-3.746c-0.161-1.262-0.301-2.484-0.712-3.839
			c-0.772-2.519-1.928-4.666-2.866-6.706c-0.956-2.029-1.751-3.307-2.376-4.028c-0.617-0.714-1.133-0.852-1.444-0.39
			c-0.313,0.458-0.411,1.556-0.077,3.14C235.35,98.616,236.144,100.645,237.107,102.986z"/>
		<path style="fill:#231815;" d="M184.446,224.034c2.723,0.292,5.016-0.165,6.529-0.786c1.526-0.62,2.32-1.373,2.351-1.906
			c0.029-0.554-0.696-0.88-2.234-1.021c-1.538-0.182-3.905-0.108-7.143-0.66c-3.293-0.583-6.005-1.792-8.437-3.294
			c-2.425-1.517-4.57-3.354-6.568-5.551c-1.989-2.202-3.838-4.776-5.473-7.933c-0.814-1.581-1.57-3.309-2.212-5.218
			c-0.321-0.955-0.608-1.949-0.847-3.003c-0.25-1.086-0.564-2.207-0.916-3.342c-1.426-4.563-3.393-8.794-5.097-12.942
			c-1.704-4.149-3.196-8.207-3.777-12.279c-1.51-8.333-3.398-15.838-5.603-22.189c-1.087-3.1-2.427-5.21-3.49-6.196
			c-1.077-0.991-1.759-0.866-1.801,0.189c-0.086,2.107,1.873,8.124,6.042,20.322c1.112,3.26,1.854,5.868,2.409,8.221l0.386,1.758
			c0.155,0.615,0.313,1.195,0.471,1.757c0.325,1.133,0.681,2.238,1.076,3.375c0.788,2.274,1.754,4.669,3.024,7.607
			c1.242,2.945,2.906,6.399,4.432,10.975c0.294,0.907,0.568,1.844,0.777,2.728c0.201,0.928,0.447,1.956,0.717,2.895
			c0.549,1.909,1.204,3.745,1.944,5.518c1.488,3.54,3.304,6.841,5.509,9.804c2.2,2.956,4.816,5.577,7.868,7.553
			C177.426,222.395,180.922,223.661,184.446,224.034z"/>
		<path style="fill:#231815;" d="M189.753,171.849c-2.454-4.653-6.704-9.712-11.361-14.705l-3.56-3.787l-0.903-0.965l-0.452-0.49
			c-0.164-0.188-0.251-0.251-0.565-0.641l-1.6-2.078c-2.112-2.737-4.234-5.553-5.946-8.51c-0.858-1.474-1.561-2.906-2.128-4.253
			c-0.575-1.325-1.003-2.673-1.308-3.69c-0.302-0.969-0.611-1.737-0.974-2.32c-0.095-0.154-0.202-0.306-0.34-0.491
			c-0.145-0.189-0.362-0.47-0.495-0.712c-0.291-0.505-0.415-1.031-0.466-1.504c-0.069-0.891,0.056-1.44,0.141-1.919
			c0.096-0.463,0.203-0.792,0.292-1.006c0.179-0.424,0.297-0.381,0.301,0.11c0.01,0.49,0.127,1.115,0.399,1.878
			c0.141,0.382,0.316,0.784,0.612,1.121c0.297,0.354,0.706,0.509,1.269,0.946c0.545,0.413,1.076,0.98,1.553,1.636
			c0.481,0.655,0.914,1.445,1.316,2.178c0.842,1.51,1.826,3.238,3.064,5.255c2.475,4.033,5.348,7.332,7.745,10.255l0.223,0.268
			l0.132,0.128l0.472,0.472l0.927,0.912l1.752,1.68l2.964,2.766c1.708,1.571,2.056,2.154,3.101,3.655
			c0.518,0.754,1.214,1.736,2.3,3.236c1.077,1.506,2.574,3.5,4.497,6.475c1.915,2.984,3.071,5.687,3.582,7.927
			c0.523,2.241,0.385,3.975,0.056,4.987c-0.337,1.023-0.766,1.347-1.022,1.217c-0.279-0.135-0.405-0.695-0.561-1.598
			c-0.282-1.831-1.492-4.048-2.706-5.668C190.862,172.979,189.748,171.852,189.753,171.849z"/>
		<path style="fill:#231815;" d="M284.047,261.294c-2.436,0.569-5.37,2.969-7.678,5.274c-1.156,1.161-2.16,2.296-2.828,3.278
			c-0.671,0.992-0.998,1.811-0.74,2.624c0.255,0.824,0.4,2.037,0.208,3.549c-0.18,1.511-0.749,3.368-1.647,5.4
			c-1.792,4.045-4.648,8.778-5.325,12.087c-0.187,0.824-0.436,1.681-0.719,2.447c-0.305,0.781-0.725,1.657-1.152,2.502
			c-0.867,1.7-1.863,3.416-2.859,5.08c-1.995,3.32-3.962,6.457-4.93,8.573c-0.97,2.108-2.869,5.933-4.588,10.653
			c-1.731,4.711-3.267,10.314-3.843,15.707c-0.565,5.387-0.994,8.397-1.551,11.585c-0.531,3.189-1.194,6.556-1.651,12.627
			c-0.431,6.075,0.362,9.187,1.228,9.641c0.89,0.457,1.874-1.697,2.426-6.12c0.568-4.427,0.593-7.059,0.732-9.688
			c0.154-2.624,0.42-5.252,1.792-9.539c2.734-8.573,5.341-17.031,6.954-23.572c1.563-6.591,5.793-13.712,8.799-18.748
			c0.743-1.272,1.721-2.672,2.82-4.056l1.759-2.178c0.565-0.696,1.149-1.382,1.73-2.05c2.33-2.652,4.578-5.128,5.44-6.493
			c0.859-1.33,3.025-4.333,4.51-7.642c1.546-3.271,2.053-6.709,2.039-6.689c-0.005,0.027,1.176-2.834,1.241-6.3
			C286.346,265.797,285.359,262.195,284.047,261.294z"/>
		<path style="fill:#231815;" d="M357.054,296.995c1.582-4.094,2.321-7.182,2.819-9.352c0.475-2.177,0.682-3.461,0.717-4.095
			c0.061-1.281-0.556,0.072-2.445,1.708c-1.897,1.622-4.004,2.116-5.751,2.866c-1.769,0.748-3.14,1.713-3.979,4.125
			c-0.442,1.207-1.429,4.799-4.042,9.352c-1.302,2.285-3.035,4.78-5.15,7.504c-1.05,1.368-2.194,2.799-3.36,4.386
			c-1.191,1.653-2.173,3.175-3.269,4.786c-4.292,6.389-8.675,13.034-13.171,18.525c-2.239,2.753-4.492,5.229-6.61,7.349
			l-1.558,1.523c-0.53,0.48-0.988,0.977-1.44,1.298c-1.018,0.783-2.001,1.46-2.893,2.049c-3.594,2.333-6.418,3.968-8.48,5.325
			c-2.073,1.342-3.421,2.365-4.254,3.18c-1.655,1.659-1.302,2.331-0.409,3.704c0.95,1.359,2.09,1.302,3.518,0.471
			c1.426-0.846,3.323-2.54,5.378-4.607c1.009-1.064,4.07-3.034,8.228-5.94l1.642-1.207c0.423-0.338,0.618-0.546,0.877-0.768
			l0.76-0.688c1.023-0.93,2.074-1.918,3.139-2.95c2.133-2.064,4.313-4.323,6.415-6.672c4.216-4.699,8.118-9.717,11.372-13.935
			l4.316-5.667l0.86-1.149l0.751-0.965l1.274-1.623c1.407-1.84,3.199-3.755,4.967-5.715c1.774-1.954,3.523-3.97,4.991-5.859
			C355.22,300.181,357.041,296.977,357.054,296.995z"/>
		<path style="fill:#231815;" d="M300.238,373.861c-0.339-4.434-0.216-7.66-0.071-9.919c0.16-2.26,0.34-3.568,0.379-4.215
			c0.081-1.286-0.457,0.022-1.826,1.965c-1.356,1.952-2.847,2.96-4.033,4.334c-1.169,1.373-2.055,3.151-1.862,6.654
			c0.112,1.742,0.603,6.832,2.212,13.565c0.805,3.364,1.89,7.133,3.294,11.082c1.412,3.984,3.158,7.989,4.854,12.122
			c3.434,8.249,6.983,16.852,9.279,24.827c1.156,3.98,1.99,7.796,2.429,11.244c0.446,3.447,0.485,6.52,0.258,8.974
			c-0.448,4.926-1.796,8.421-3.067,10.851c-1.289,2.44-2.456,3.897-3.207,4.93c-1.563,2.025-1.448,2.461-0.912,3.667
			c0.484,1.19,1.942,0.777,3.72-0.955c1.763-1.713,3.66-4.861,4.582-8.473c0.481-1.774,1.944-6.303,2.019-12.307
			c0.161-5.993-0.997-13.239-2.883-20.307c-1.865-7.083-4.328-14.055-6.454-19.908c-2.137-5.843-3.94-10.611-4.927-13.104
			c-2-4.988-3.229-11.325-3.624-16.339C299.976,377.53,300.247,373.858,300.238,373.861z"/>
		<path style="fill:#231815;" d="M261.34,406.478c-0.785-1.277-1.555-2.585-2.277-3.872c-1.011-1.811-2.948-5.313-4.485-8.687
			c-1.571-3.369-2.616-6.61-2.661-7.645c-0.102-1.411-0.423-2.994-0.976-4.15c-0.565-1.138-1.398-1.992-2.911-1.808
			c-1.232,0.154-1.798,1.523-1.713,3.068c0.067,1.547,0.751,3.157,1.453,4.028c0.443,0.592,1.962,3.88,3.946,7.213
			c1.953,3.359,4.252,6.863,5.42,8.554c1.229,1.783,2.347,3.487,3,4.714c0.462,0.905,3.898,6.446,8.035,13.138
			c4.126,6.691,8.797,14.676,11.161,20.633c2.381,5.842,2.574,9.43,2.243,11.404c-0.363,1.986-0.9,2.546-1.298,3.111
			c-0.437,0.549-0.7,1.122-0.856,1.724c-0.152,0.596-0.185,1.2,0,1.651c0.183,0.443,0.601,0.731,1.305,0.56
			c0.677-0.168,1.728-0.853,2.481-2.432c0.644-1.517,0.975-2.717,1.045-5.138c0.016-2.405-0.493-6.019-2.919-11.714
			c-2.554-6.098-7.294-14.058-11.508-20.79L261.34,406.478z"/>
		<path style="fill:#231815;" d="M209.433,311.777c0.269-0.894,0.516-1.737,0.833-2.594l0.957-2.62
			c0.912-2.42,2.677-7.139,4.187-11.668c1.518-4.518,2.848-8.708,3.685-9.875c2.255-3.18,2.862-8.524-3.139-9.419
			c-4.906-0.73-6.107,4.496-5.162,7.223c0.302,0.894-0.05,5.191-0.735,9.819c-0.669,4.624-1.834,9.63-2.352,12.121
			c-0.272,1.313-0.578,2.573-0.906,3.709c-0.334,1.163-0.626,2.184-0.96,2.98c-0.236,0.585-0.963,2.803-1.924,6.073
			c-0.955,3.271-2.157,7.596-3.139,12.448c-0.982,4.843-1.694,10.245-1.599,15.503c0.067,5.256,1.027,10.3,2.354,14.274
			c1.293,3.919,2.758,6.821,3.986,9.063c1.242,2.241,2.273,3.83,3.062,5.045l2.825,4.273c1.251,1.864,3.876,1.69,5.391,0.547
			c1.531-1.156,2.033-3.124-0.604-5.047c-1.267-0.958-2.229-1.651-3.889-3.579c-0.823-0.969-1.813-2.253-2.975-4.106
			c-1.15-1.854-2.49-4.28-3.697-7.611c-1.298-3.546-2.26-8.065-2.403-12.914c-0.17-4.845,0.428-9.973,1.328-14.688
			c0.898-4.719,2.046-9.04,2.974-12.393C208.468,314.995,209.188,312.61,209.433,311.777z"/>
		<path style="fill:#231815;" d="M220.273,398.529c-2.235-2.224-3.585-4.721-4.139-6.984c-0.563-2.267-0.305-4.254,0.41-5.445
			c0.714-1.207,1.807-1.613,2.894-1.307c1.102,0.316,2.201,1.283,3.444,3.236c0.622,0.978,1.65,2.727,3.191,5.045
			c1.533,2.32,3.57,5.203,6.012,8.473c4.851,6.569,11.4,14.562,17.652,23.545c3.076,4.538,6.178,9.251,8.258,14.826
			c0.501,1.407,0.927,2.881,1.152,4.482c0.222,1.59,0.246,3.346-0.243,5.132c-0.458,1.768-1.597,3.51-2.855,4.579l-0.856,0.734
			c-0.324,0.235-0.643,0.491-0.974,0.693c-0.657,0.423-1.323,0.785-1.988,1.074c-2.663,1.178-5.209,1.604-7.569,1.89
			c-2.364,0.269-4.569,0.342-6.61,0.371c-4.074,0.048-7.528-0.076-10.112,0.135c-0.839-0.023-0.307-0.37,1.467-0.793
			c1.773-0.425,4.798-0.768,8.652-1.219c1.925-0.237,4.06-0.513,6.318-0.983c2.245-0.477,4.659-1.13,6.855-2.384
			c1.091-0.62,2.062-1.476,2.895-2.439c0.798-0.959,1.242-2.164,1.331-3.435c0.168-2.572-0.846-5.249-2.081-7.752
			c-2.566-5.035-6.185-9.711-9.713-14.121c-3.562-4.403-7.155-8.523-10.369-12.235C226.822,406.271,222.002,400.331,220.273,398.529
			z"/>
		<path style="fill:#231815;" d="M246.343,470.701c1.381-0.136,2.782-0.251,4.148-0.347c3.838-0.282,14.826-0.882,16.825-0.755
			c2.691,0.248,6.738-0.448,6.177-2.227c-0.437-1.406-4.328-0.955-6.144-0.361c-1.161,0.446-12.749,1.633-16.505,2.138
			c-1.98,0.259-3.852,0.474-5.132,0.549c-0.935,0.074-6.946,0.56-14.157,1.779c-3.601,0.616-7.5,1.438-11.171,2.521
			c-3.671,1.074-7.109,2.438-9.785,3.914c-5.298,2.904-7.485,5.901-8.586,7.737c-1.087,1.896-1.299,2.746-1.575,3.528
			c-0.505,1.638,0.061,2.961,0.608,3.134c0.603,0.185,1.005-0.599,1.358-2.869c0.227-1.099,0.4-1.935,1.307-3.572
			c0.949-1.573,2.731-4.104,7.519-6.822c2.542-1.441,5.866-2.796,9.458-3.873c3.592-1.086,7.443-1.922,11.035-2.553
			C238.915,471.37,245.055,470.845,246.343,470.701z"/>
		<path style="fill:#231815;" d="M305.851,481.067c3.364-3.886,4.12-7.476,3.395-8.221c-0.375-0.4-1.119-0.14-2.264,0.885
			c-1.156,1.02-2.701,2.814-5.008,5.263c-4.76,4.903-9.065,7.91-14.364,10.353c-2.657,1.204-5.586,2.178-8.996,3.01
			c-1.705,0.424-3.532,0.794-5.506,1.295c-0.494,0.13-0.997,0.268-1.509,0.433c-0.255,0.084-0.514,0.174-0.773,0.273
			c-0.149,0.056-0.229,0.099-0.335,0.127l-0.363,0.109c-0.995,0.291-2.055,0.518-3.17,0.694c-4.47,0.69-8.985,0.744-13.365,0.878
			c-4.385,0.114-8.67,0.243-12.79,0.673c-4.118,0.427-8.083,1.156-11.717,2.406c-3.636,1.233-6.91,3.053-9.522,5.286
			c-2.559,2.202-3.725,4.484-4.047,5.847c-0.309,1.397,0.122,1.915,1.062,1.46c0.956-0.442,2.376-1.877,4.79-3.883
			c2.427-1.989,6.007-4.471,11.705-6.589c3.049-1.123,5.609-1.68,7.914-2.069c2.313-0.38,4.393-0.569,6.662-0.707
			c2.27-0.138,4.729-0.208,7.838-0.321c3.11-0.147,6.873-0.193,11.792-0.987c0.982-0.171,1.958-0.372,2.927-0.626l0.724-0.201
			c0.105-0.03,0.284-0.075,0.439-0.142l0.3-0.112c0.396-0.14,0.814-0.263,1.242-0.372c1.72-0.436,3.546-0.72,5.341-1.039
			c3.604-0.62,7.17-1.354,10.55-2.5C295.586,490.066,301.527,486.065,305.851,481.067z"/>
		<path style="fill:#231815;" d="M266.046,488.566c-1.886,1.99-5.814,1.308-5.805,1.307c-0.003,0.003-3.109-0.319-5.047-0.663
			c-1.94-0.343-4.255-0.289-5.798-0.248c-1.542,0.02-9.245,0.309-11.935,0.513c-2.7,0.127-9.763,1.176-11.456,1.449
			c-5.718,0.773-7.494,1.664-7.495,1.636c0,0-1.291,0.359-2.833,0.854c-1.546,0.488-3.318,1.145-4.375,1.54
			c-2.118,0.725-5.007,1.812-5.942,3.057c-0.465,0.593-0.715,0.698-1.083,0.844c-0.356,0.151-0.86,0.324-1.542,1.229
			c-0.673,0.894-1.361,1.836-1.853,2.404c-0.476,0.557-0.907,0.641-0.788-0.514c0.121-1.159,1.095-2.925,2.241-3.999
			c1.121-1.11,2.217-1.711,2.21-1.72c1.313-1.247,2.793-2.278,4.319-3.196c0.031-0.011,2.394,0.626,4.393-0.748
			c2.042-1.448,6.693-2.413,8.561-3.071c1.872-0.693,4.163-1.397,6.893-1.692c2.728-0.298,5.841-0.551,8.563-0.721
			c2.72-0.178,6.586-0.725,8.139-0.776c1.557-0.075,9.308-0.258,10.85-0.274c1.552-0.028,5.749-1.628,5.741-1.633
			c0-0.005,0.432,1.523,3.521,1.787C268.62,486.162,266.068,488.567,266.046,488.566z"/>
		<path style="fill:#231815;" d="M239.559,479.297c4.921-0.64,6.46-3.298-0.912-2.458c-3.748,0.47-6.562,1.252-9.569,2.23
			c-3,1.01-6.223,2.114-10.644,3.939c-4.414,1.83-8.442,4.386-11.364,7.612c-2.945,3.2-4.878,6.708-6.409,9.676
			c-1.477,2.926-1.336,4.649-0.33,4.089c0.507-0.278,1.232-1.129,2.128-2.65c0.912-1.515,1.935-3.717,3.393-6.54
			c1.603-3.003,2.936-4.474,4.65-5.995c1.758-1.474,3.928-3.067,8.404-5.076c3.593-1.58,7.214-2.502,10.667-3.214
			C233.037,480.209,236.361,479.744,239.559,479.297z"/>
		<path style="fill:#231815;" d="M217.314,467.947c1.085-0.221,2.193-0.405,3.275-0.544c1.521-0.193,4.467-0.495,7.215-0.478
			c2.753-0.008,5.266,0.326,5.986,0.667c1.994,0.842,4.715,1.189,5.321-1.754c0.225-1.217-0.546-2.065-1.614-2.466
			c-1.064-0.409-2.368-0.363-3.182-0.043c-0.54,0.194-3.26,0.307-6.162,0.704c-2.91,0.371-6.009,1.001-7.509,1.389
			c-1.584,0.397-3.071,0.753-4.109,0.884c-0.753,0.102-5.594,1.018-11.19,3.068c-2.798,1.016-5.774,2.316-8.515,3.812
			c-2.743,1.487-5.236,3.182-7.158,4.767c-3.777,3.142-5.412,5.544-6.399,7c-0.959,1.491-1.298,2.104-1.623,2.704
			c-0.665,1.239,0.031,2.545,0.902,2.907c0.902,0.368,1.844,0.01,2.193-1.803c0.206-0.885,0.344-1.563,1.048-2.897
			c0.733-1.302,1.978-3.372,5.278-6.253c1.763-1.526,4.098-3.175,6.713-4.636c2.61-1.471,5.485-2.763,8.214-3.786
			C211.462,469.125,216.307,468.161,217.314,467.947z"/>
		<path style="fill:#231815;" d="M206.944,229.407c-0.354-3.148-0.14-5.32,0.127-6.716c0.271-1.407,0.572-2.081,0.638-2.44
			c0.16-0.66-0.565-0.283-2.458,0.685c-1.878,1.007-3.904,1.643-5.527,2.658c-1.606,1.017-2.836,2.565-2.611,5.472
			c0.107,1.448,0.793,5.593,2.619,10.743c1.796,5.169,4.706,11.35,8.396,17.377c3.676,6.035,8.126,11.917,12.6,16.725
			c4.455,4.833,8.955,8.522,12.185,10.807c6.482,4.587,10.676,5.53,12.741,5.713c2.125,0.103,2.349-0.62,2.747-2.201
			c0.361-1.617-0.411-2.428-1.69-2.893c-1.295-0.468-3.255-0.665-5.616-1.049c-1.167-0.175-3.97-1.382-7.257-3.863
			c-3.295-2.452-7.001-6.149-10.3-10.333c-3.318-4.173-6.248-8.797-8.498-12.831c-2.258-4.034-3.85-7.476-4.798-9.278
			c-1.915-3.608-3.051-8.398-3.36-12.154C206.535,232.053,206.951,229.399,206.944,229.407z"/>
		<path style="fill:#231815;" d="M146.619,86.045c-1.6-5.078-2.01-8.726-5.148-15.221c-1.594-3.229-2.426-5.062-3.058-6.628
			c-0.643-1.558-1.088-2.847-2.159-4.84l-2.094-3.762c-0.55-0.998-1.101-2.254-2.795-5.019c-1.753-2.737-1.829-2.704-1.716-2.485
			c0.083,0.236,0.295,0.664-1.26-1.055c-1.58-1.707-3.019-2.566-4.004-3.002c-0.989-0.437-1.545-0.46-1.542-0.465
			c0.65,1.604,1.178,3.203,1.587,4.802c2.359,2.058,4.511,4.413,6.46,6.951c-0.001,0,1.096,1.89,2.238,4.243
			c1.159,2.344,2.338,5.158,3.05,6.75c1.465,3.176,2.728,8.313,3.571,10.797c0.875,2.465,3.687,7.123,4.987,11.374
			C146.053,92.726,148.192,91.129,146.619,86.045z"/>
		<path style="fill:#231815;" d="M129.656,79.555l0.392,1.216l0.239,1.222c0.227,1.195,0.754,3.471,1.318,5.582
			c0.554,2.113,1.118,4.071,1.168,4.706c0.131,1.728,1.203,4.018,2.827,3.18c1.323-0.681,0.457-2.974-0.349-3.897
			c-0.266-0.301-1.097-2.104-1.887-4.14c-0.803-2.031-1.535-4.297-1.873-5.416c-0.201-0.603-0.297-1.13-0.496-1.73
			c-0.184-0.514-0.335-0.98-0.433-1.368c-0.166-0.557-1.205-4.146-2.756-8.428c-0.794-2.132-1.739-4.437-2.931-6.527
			c-1.082-2.004-1.781-4.165-2.325-5.927c-1.021-3.511-1.725-5.551-2.249-6.769c-0.518-1.226-0.743-1.693-0.952-2.155
			c-0.442-0.935-1.384-1.237-1.906-1.002c-0.533,0.243-0.662,0.936,0.271,2.111c0.443,0.58,0.775,1.01,1.323,2.075
			c0.555,1.068,1.227,2.792,2.274,6.132c0.592,1.783,1.304,3.939,2.498,6.117c1.16,1.98,2.106,4.228,2.908,6.334
			C128.289,75.108,129.382,78.792,129.656,79.555z"/>
		<path style="fill:#231815;" d="M156.641,113.112c0.203,4.078-0.011,5.885,0.047,6.478c0.053,0.589,0.342-0.039,1.309-0.973
			c1.912-1.874,4.657-1.989,4.525-5.035c-0.033-0.761-0.295-2.96-0.692-5.929c-0.388-2.972-0.922-6.715-1.243-10.624l-0.029-0.368
			c-0.004-0.178-0.027-0.395-0.058-0.544l-0.141-0.79c-0.11-0.524-0.217-1.05-0.354-1.57c-0.265-1.04-0.575-2.067-0.951-3.058
			c-0.738-1.987-1.685-3.84-2.724-5.481c-2.078-3.298-4.511-5.697-6.195-7.25c-3.424-3.076-5.488-4.183-6.574-4.667
			c-1.117-0.447-1.387-0.123-1.985,0.658c-1.166,1.618,0.98,2.593,3.705,3.586c0.681,0.249,2.23,1.233,3.968,2.889
			c1.732,1.652,3.617,4.001,4.979,6.694c1.392,2.677,2.238,5.654,2.58,8.22c0.051,0.32,0.084,0.635,0.116,0.942
			c0.017,0.166,0.037,0.288,0.032,0.334l0.006,0.45c0.005,0.635,0.021,1.227,0.042,1.768c0.043,1.083,0.104,1.966,0.179,2.578
			C157.786,106.329,156.67,113.123,156.641,113.112z"/>
		<path style="fill:#231815;" d="M116.877,121.924l1.276,2.921c0.584,1.354,1.874,3.881,3.155,6.183
			c1.277,2.305,2.458,4.422,2.572,5.221c0.343,2.174,2.189,4.311,5.364,1.986c2.6-1.918,0.902-4.502-0.691-5.035
			c-0.521-0.189-2.192-1.898-3.876-3.852c-1.702-1.946-3.329-4.217-4.111-5.356c-0.842-1.189-1.472-2.413-1.718-3.316
			c-0.16-0.654-1.886-4.727-2.493-9.947c-0.315-2.597-0.344-5.453,0.037-8.127c0.368-2.677,1.156-5.148,2.074-7.038
			c1.843-3.718,3.684-5.293,4.747-6.228c1.114-0.913,1.629-1.153,2.104-1.416c0.945-0.509,0.946-2.032,0.422-3.162
			c-0.508-1.109-1.765-1.768-3.151-0.121c-0.639,0.803-1.091,1.392-2.125,2.617c-0.974,1.249-2.729,3.093-4.562,7.141
			c-0.958,2.156-1.765,4.911-2.116,7.839c-0.367,2.927-0.295,6.005,0.081,8.798C114.592,116.651,116.522,121.017,116.877,121.924z"
			/>
		<path style="fill:#231815;" d="M119.101,80.701c-0.046-5.901-1.845-14.15-3.161-20.975c-1.303-6.827-1.511-9.701-1.114-8.746
			c0.344,0.973,2.083,2.678,3.311,7.876c1.201,5.18,2.131,9.329,2.756,11.755c0.31,1.214,0.293,1.577,0.324,2.56
			c0.017,0.987,0.133,2.58,0.41,6.316c0.259,3.746-0.179,6.026-0.61,7.02c-0.444,0.998-0.809,0.761-0.858-0.281
			C120.066,84.118,119.11,80.695,119.101,80.701z"/>
		<path style="fill:#231815;" d="M190.977,141.436c0.043-0.576,0.095-1.163,0.166-1.733l0.406-3.839
			c0.146-1.479,0.265-2.892,0.499-3.344c0.674-1.229,0.137-3.017-2.829-2.37c-2.42,0.518-2.254,1.963-1.454,2.625
			c0.269,0.211,0.646,1.446,0.909,2.864c0.267,1.413,0.429,2.994,0.529,3.774c0.109,0.82,0.121,1.598-0.005,2.116
			c-0.083,0.752-1.308,9.834-1.049,14.958c0.103,2.502,0.344,3.939,0.462,4.833c0.126,0.897,0.171,1.251,0.201,1.601
			c0.214,1.474,4.404,0.484,3.115-1.039c-0.309-0.39-0.537-0.683-0.82-1.408c-0.258-0.733-0.599-1.898-0.794-4.123
			C189.831,151.62,190.991,142.536,190.977,141.436z"/>
		<path style="fill:#231815;" d="M129.349,144.239c2.588,2.06,2.64,7.044,2.653,7.063c-0.008-0.003,0.348,3.993,0.449,6.543
			c0.091,2.546,0.762,5.487,1.212,7.448c0.447,1.957,2.729,11.763,3.462,15.222l0.798,3.449l0.254,1.109l0.155,1.154l0.274,2.291
			c0.328,3.04,0.768,5.847,0.965,6.929c0.589,3.652,1.61,5.901,2.385,7.175c0.785,1.276,1.252,1.661,1.239,1.67
			c0.013-0.009,0.973,1.335,2.572,2.532c1.59,1.239,3.74,2.433,5.02,3.154c2.536,1.476,6.021,3.509,8.049,3.79
			c2.017,0.268,1.22,0.984,4.083,1.91c1.431,0.443,2.8,1.132,3.547,1.681c0.744,0.542,0.82,1.03-0.538,0.99
			c-1.356-0.039-3.504-0.642-5.252-1.305c-1.758-0.655-3.139-1.342-3.139-1.341c-2.178-0.541-4.338-1.187-6.482-1.958
			c-0.025-0.025-1.43-2.73-4.453-3.698c-0.767-0.259-1.666-0.703-2.592-1.329c-0.93-0.618-1.872-1.481-2.657-2.409
			c-1.605-1.868-2.584-4.019-3.229-5.229c-1.314-2.434-2.338-5.612-2.659-9.213l-0.464-5.511l-0.067-0.674l-0.017-0.147
			l-0.067-0.337l-0.275-1.359l-0.561-2.641c-0.734-3.422-2.312-8.216-2.763-10.177c-0.457-1.953-2.712-11.782-3.117-13.768
			c-0.442-1.958-3.323-7.081-3.308-7.104c0.013-0.001,1.659-0.843,1.455-4.923C126.143,141.146,129.35,144.274,129.349,144.239z"/>
		<path style="fill:#231815;" d="M241.862,26.707c-2.8-1.867-5.602-5.601-0.933-8.402c7.467-3.733,10.268,10.27,0,7.47
			L241.862,26.707z"/>
		<path style="fill:#231815;" d="M215.554,460.864c0.902-0.161,1.821-0.293,2.717-0.396c1.262-0.143,3.702-0.386,5.994-0.475
			c2.291-0.094,4.432-0.042,5.09,0.192c1.783,0.625,4.347,0.262,4.059-2.756c-0.239-2.474-2.987-2.387-4.184-1.537
			c-0.392,0.278-2.534,0.701-4.866,1.2c-2.337,0.49-4.862,1.065-6.09,1.402c-1.294,0.349-2.521,0.626-3.379,0.692
			c-0.624,0.055-4.605,0.691-9.329,1.943c-4.732,1.22-10.157,3.218-13.766,5.137c-3.56,1.859-5.407,3.311-6.549,4.202
			c-1.134,0.912-1.566,1.297-1.991,1.666c-0.872,0.772-0.556,2.093,0.16,2.709c0.736,0.626,1.677,0.717,2.385-0.632
			c0.367-0.659,0.643-1.161,1.507-2.06c0.881-0.879,2.353-2.203,5.517-3.976c3.36-1.915,8.579-3.924,13.23-5.181
			C210.7,461.705,214.713,461.017,215.554,460.864z"/>
		<path style="fill:#231815;" d="M235.766,154.835l-1.89-1.596c-0.87-0.748-2.6-2.141-4.33-3.349
			c-1.717-1.226-3.443-2.244-3.893-2.738c-1.21-1.392-3.793-1.918-4.442,1.06c-0.539,2.406,1.379,3.083,2.598,2.817
			c0.399-0.103,2.13,0.352,3.966,1.15c1.84,0.781,3.76,1.892,4.702,2.443c1.001,0.574,1.88,1.218,2.386,1.763
			c0.377,0.39,2.965,2.695,5.899,5.731c2.946,3.019,6.342,6.67,8.905,9.108c2.507,2.409,4.079,3.67,5.044,4.464l1.726,1.413
			c0.766,0.627,1.904,0.086,2.424-0.705c0.523-0.803,0.536-1.766-0.813-2.156c-0.658-0.204-1.154-0.349-2.12-0.911
			c-0.961-0.568-2.4-1.553-4.789-3.695c-2.558-2.273-5.966-5.836-9.001-8.869C239.118,157.719,236.365,155.318,235.766,154.835z"/>
		<path style="fill:#231815;" d="M252.462,138.796l-1.453-1.317c-0.335-0.309-0.836-0.753-1.432-1.233
			c-0.291-0.246-0.622-0.494-0.943-0.745l-0.095-0.103l-0.05-0.062l-0.135-0.14c-0.18-0.168-0.366-0.345-0.547-0.491
			c-1.483-1.178-2.725-1.895-2.95-2.362c-0.34-0.599-0.8-1.002-1.317-0.949c-0.505,0.07-1.265,0.46-2.329,1.544
			c-0.862,0.886-0.777,1.858-0.273,2.464c0.496,0.615,1.272,0.827,1.841,0.696c0.375-0.057,1.883,0.303,3.18,0.824
			c0.154,0.07,0.32,0.139,0.461,0.217c0.166,0.086,0.236,0.118,0.503,0.32l0.363,0.201l0.259,0.122l0.503,0.243
			c0.649,0.325,1.206,0.643,1.58,0.846c0.785,0.434,1.464,0.944,1.825,1.397c0.273,0.323,2.199,2.196,4.283,4.737
			c2.099,2.521,4.467,5.612,6.278,7.708c1.774,2.066,2.895,3.181,3.578,3.887c0.69,0.702,0.945,0.997,1.204,1.278
			c1.117,1.156,4.047-2.015,1.932-2.653c-0.517-0.177-0.909-0.303-1.628-0.792c-0.714-0.495-1.766-1.346-3.472-3.167
			c-1.827-1.938-4.222-4.95-6.422-7.508C255.027,141.186,252.925,139.193,252.462,138.796z"/>
		<path style="fill:#231815;" d="M259.401,117.677l-1.943-1.189c-0.9-0.554-2.686-1.566-4.497-2.344
			c-1.796-0.805-3.62-1.335-4.163-1.68c-0.723-0.488-1.756-0.692-2.544-0.347c-0.796,0.338-1.28,1.206-1.105,2.706
			c0.32,2.439,1.962,2.47,2.934,1.87c0.309-0.213,1.885-0.269,3.648,0.067c1.761,0.31,3.659,0.988,4.588,1.332
			c0.985,0.353,1.869,0.808,2.392,1.237c0.389,0.302,3.02,2.039,5.979,4.487c2.974,2.424,6.319,5.477,8.706,7.608
			c4.709,4.186,5.443,4.765,6.049,5.387c1.342,1.227,4.282-1.972,1.784-2.756c-1.209-0.456-1.862-0.519-6.421-4.276
			c-2.429-2.013-5.819-5.015-8.905-7.462C262.839,119.851,260.012,118.037,259.401,117.677z"/>
		<path style="fill:#231815;" d="M202.654,103.84c-0.688,0.057-1.388,0.081-2.065,0.063c-0.951-0.019-2.791-0.107-4.4-0.479
			c-1.629-0.349-2.903-1.032-3.124-1.45c-0.347-0.56-0.723-0.928-1.264-0.921c-0.528,0.023-1.377,0.287-2.497,1.312
			c-0.909,0.833-0.894,1.831-0.315,2.551c0.563,0.728,1.556,1.054,2.227,0.931c0.452-0.04,2.34,0.39,4.272,0.383
			c1.94,0.034,3.952-0.197,4.927-0.371c1.03-0.179,1.989-0.31,2.654-0.281c0.485,0.03,3.586-0.208,7.267-0.888
			c3.687-0.654,7.945-1.714,10.915-2.528c5.835-1.631,6.665-1.841,7.481-1.971c1.651-0.329,0.869-4.612-1.225-3.045
			c-1.038,0.729-1.478,1.208-6.868,2.936c-2.878,0.908-7.033,2.014-10.655,2.712C206.366,103.522,203.298,103.797,202.654,103.84z"
			/>
		<path style="fill:#231815;" d="M266.827,80.709c-0.937,0.316-1.896,0.61-2.836,0.871c-2.635,0.778-10.248,2.644-11.735,2.409
			c-2.005-0.253-4.663,0.635-3.796,3.54c0.712,2.381,3.582,1.737,4.688,0.66c0.748-0.659,8.649-3.505,11.126-4.653
			c1.318-0.577,2.578-1.063,3.477-1.274c0.655-0.16,4.774-1.473,9.651-3.387c4.885-1.891,10.487-4.483,14.277-6.623
			c3.737-2.086,5.753-3.509,7.015-4.371l2.231-1.557c0.983-0.693,0.907-2.055,0.314-2.795c-0.603-0.749-1.599-0.954-2.613,0.45
			c-0.509,0.678-0.884,1.187-1.911,2.112c-1.036,0.913-2.724,2.264-6.116,4.282c-3.609,2.169-9.059,4.774-13.898,6.705
			C271.873,79.034,267.704,80.412,266.827,80.709z"/>
		<path style="fill:#231815;" d="M274.365,255.52c-3.23,0.054-6.507,0.033-9.693-0.048c-2.241-0.058-5.52-0.168-9.249-0.363
			l-5.83-0.351c-1.992-0.202-4.121-0.352-6.142-0.47c-4.073-0.236-7.975-0.436-11.13-0.714c-3.154-0.269-5.556-0.606-6.653-0.859
			c-2.986-0.67-6.629-1.34-9.426-1.765c-2.793-0.383-4.885-0.602-5.337,0.876c-0.368,1.22,1.891,2.998,4.905,3.948
			c2.997,0.997,6.568,1.292,8.801,1.143c0.735-0.045,3.01,0.057,6.124,0.108c3.115,0.061,7.071,0.058,11.185,0.079
			c2.057,0.015,4.155,0.039,6.196,0.133c2.084,0.118,4.15,0.118,6.059,0.158c3.84,0.055,7.2,0.046,9.41,0.009
			c4.659-0.069,9.054-0.161,12.051-0.14c1.095,0.003,5.161-0.029,11.077-0.374c5.906-0.359,13.694-1.017,22.08-2.588
			c16.755-2.856,36.449-6.455,49.833-11.198c6.537-2.434,11.368-4.99,15.194-6.967l8.751-4.663c4.293-2.263,5.99-3.036,7.647-3.806
			c3.333-1.547,5.443-3.556,5.428-4.589c0.003-1.007-2.297-1.081-7.46,1.939c-2.477,1.473-4.264,2.588-8.281,4.927
			c-2.01,1.166-4.564,2.657-8.068,4.567c-3.51,1.887-7.955,4.259-13.972,6.563c-3.194,1.24-6.857,2.278-10.797,3.341
			c-3.929,1.051-8.115,2.056-12.42,2.996c-8.61,1.882-17.692,3.496-26.118,4.978c-8.367,1.6-16.167,2.286-22.241,2.673
			C280.217,255.44,275.877,255.487,274.365,255.52z"/>
		<path style="fill:#231815;" d="M217.714,226.65c-0.001-0.001-1.053-2.163,2.458-2.389c3.515-0.235,3.845-1.758,6.652-1.152
			c2.811,0.6,4.897,0.099,6.649,0.241c1.754,0.15,5.246-0.042,7.656-0.467c2.408-0.378,8.713-0.453,11.794-1.178
			c3.071-0.692,4.558-0.3,6.592-0.884c2.031-0.586,3.97-1.627,3.97-1.626c0,0.001,2.448-0.254,3.865-0.323
			c0.355-0.017,1.264-0.173,2.479-0.413c1.203-0.255,2.84-0.556,4.461-0.796c3.274-0.504,6.823-0.861,8.593-0.987
			c3.556-0.293,11.658-0.817,14.093-0.938c2.447-0.116,4.568,0.236,5.607,0.11c4.151-0.537,4.135-0.584,4.14-0.57
			c-0.001-0.003,1.726-0.169,3.732-0.449c2.01-0.273,4.292-0.697,5.463-0.959c0.58-0.119,1.237-0.238,1.914-0.339
			c0.71-0.099,1.431-0.156,2.122-0.231c1.405-0.145,2.803-0.321,3.982-0.681c2.357-0.716,6.474-1.599,10.782-3.107
			c4.29-1.504,9.532-2.253,14.196-4.717c2.323-1.225,5.208-2.043,7.764-2.813c2.555-0.761,4.779-1.481,5.739-2.22
			c0.961-0.734,2.634-1.707,4.165-2.631c1.536-0.916,2.921-1.794,3.561-2.052c0.64-0.259,0.272,0.436-0.559,1.378
			c-0.825,0.941-2.144,2.084-3.134,2.798c-0.975,0.73-3.035,2.057-5.03,3.175c-1.99,1.128-3.887,2.075-4.337,2.374
			c-0.91,0.627-5.369,0.692-7.819,2.16c-2.455,1.537-8.963,3.162-10.67,3.576c-1.694,0.486-9.615,2.137-11.296,2.691
			c-0.418,0.147-1.862,0.545-3.868,1.059c-2.014,0.531-4.567,1.096-7.208,1.843c-5.336,1.378-11.175,2.04-13.456,2.311
			c-2.29,0.292-7.858,0.432-13.168,0.527c-5.313,0.088-10.383,0.383-11.773,0.563c-1.392,0.166-4.617,0.413-7.788,1.087
			c-3.196,0.632-6.384,1.307-7.711,1.886c-2.655,1.159-5.17,1.17-8.281,1.877c-3.114,0.731-8.428,1.153-10.195,1.302
			c-0.883,0.089-3.802,0.3-6.631,0.434c-2.829,0.142-5.567,0.229-6.094,0.353c-1.051,0.253-4.217,1.212-8.463,1.676
			C218.419,228.609,217.714,226.648,217.714,226.65z"/>
		<path style="fill:#231815;" d="M281.281,181.744c4.559-0.627,9.556-1.689,14.849-2.89c2.648-0.585,5.381-1.247,8.228-1.716
			c2.779-0.471,5.553-1.064,8.346-1.769c11.178-2.803,22.258-7.449,32.362-11.64c20.196-8.578,29.001-10.289,25.865-9.206
			c-3.111,1.129-8.87,4.37-23.94,10.922c-7.553,3.253-14.396,6.135-20.349,8.318c-5.946,2.197-10.98,3.737-14.736,4.732
			c-3.758,0.976-4.894,1.125-7.891,1.514c-1.44,0.196-3.391,0.551-6.366,1.168c-2.984,0.607-6.996,1.539-12.7,2.585
			c-5.707,1.033-10.379,1.411-14.003,1.269c-3.628-0.128-6.176-0.786-7.674-1.421c-1.505-0.64-1.992-1.15-1.792-1.211
			c0.212-0.091,1.109,0.216,2.686,0.549c3.165,0.697,7.528,0.467,10.996-0.053C278.641,182.388,281.28,181.735,281.281,181.744z"/>
		<path style="fill:#231815;" d="M310.629,139.987c-1.153,0.229-2.332,0.409-3.481,0.554c-1.615,0.215-4.743,0.532-7.682,0.632
			c-2.939,0.107-5.682,0.006-6.513-0.243c-2.253-0.663-5.569-0.403-5.36,2.625c0.175,2.481,3.706,2.498,5.289,1.671
			c0.519-0.272,3.292-0.632,6.314-1.145c3.024-0.493,6.288-1.153,7.871-1.554c1.672-0.406,3.247-0.763,4.344-0.892
			c0.797-0.094,5.906-1.02,11.893-2.905c6.004-1.83,12.789-4.724,17.437-6.968c4.579-2.196,7.136-3.549,8.74-4.347
			c1.604-0.801,2.236-1.087,2.86-1.364c2.504-1.153,1.5-5.527-1.824-2.737c-0.81,0.667-1.394,1.176-2.819,2.089
			c-1.426,0.908-3.675,2.263-7.913,4.413c-4.515,2.305-11.127,5.205-17.045,7.07C316.839,138.803,311.707,139.784,310.629,139.987z"
			/>
		<path style="fill:#231815;" d="M290.242,114.415c1.21-1.755,3.35-0.978,3.388-0.997l3.045,0.584
			c1.214,0.265,2.63,0.052,3.563-0.119c0.467-0.081,1.871-0.345,3.355-0.709c1.484-0.355,3.048-0.803,3.855-1.046
			c1.628-0.453,5.735-2.257,6.748-2.641c3.417-1.239,4.405-2.036,4.407-2.031c0,0.001,3.038-1.551,4.413-2.057
			c1.373-0.512,3.35-0.819,4.136-1.487c0.79-0.671,0.828,0.11,2.217-0.344c1.402-0.455,3.149,0.224,2.122,0.923
			c-1.02,0.688-3.88,1.26-3.882,1.267l-2.674,1.758c0.003,0-1.714-0.986-2.787,0.229c-1.071,1.209-3.802,2.24-4.804,3.015
			c-1.001,0.773-2.24,1.632-3.871,2.199c-1.628,0.57-3.507,1.189-5.172,1.684c-1.656,0.506-3.967,1.49-4.954,1.702
			c-0.488,0.112-1.961,0.434-3.454,0.673c-1.491,0.245-3.001,0.399-3.505,0.434c-0.966,0.119-3.735,1.676-3.772,1.648
			c0.005-0.015-0.312-1.481-2.283-2.013C288.388,116.504,290.288,114.418,290.242,114.415z"/>
		<path style="fill:#231815;" d="M202.147,130.922c-0.583,0.037-1.177,0.027-1.751,0.001c-0.81-0.042-2.368-0.16-3.796-0.43
			c-1.43-0.267-2.718-0.668-3.059-1.017c-0.933-0.905-2.465-1.021-3.126,1.934c-0.535,2.425,1.346,2.908,2.307,2.278
			c0.316-0.194,1.797-0.231,3.384-0.35c1.59-0.113,3.289-0.302,4.115-0.462c0.871-0.158,1.685-0.254,2.249-0.201
			c0.409,0.039,3.049-0.039,6.197-0.589c3.153-0.512,6.772-1.595,9.225-2.636c2.418-1.01,3.725-1.785,4.558-2.227
			c0.82-0.466,1.158-0.629,1.483-0.801c1.359-0.771-1.069-4.329-2.084-2.536c-0.268,0.438-0.475,0.765-1.086,1.303
			c-0.613,0.531-1.646,1.281-3.749,2.278c-2.24,1.074-5.655,2.174-8.691,2.724C205.292,130.773,202.691,130.897,202.147,130.922z"/>
		<path style="fill:#231815;" d="M201.034,154.518c-0.329-0.062-0.66-0.146-0.979-0.249c-0.886-0.293-3.49-1.122-3.9-1.749
			c-0.53-0.868-1.628-0.777-1.973,2.235c-0.287,2.458,0.585,2.639,1.154,1.976c0.352-0.456,3.246-0.482,4.225-0.571
			c0.51-0.051,0.978-0.025,1.272,0.119c0.218,0.098,1.666,0.452,3.491,0.678c1.82,0.247,4.041,0.21,5.589-0.076
			c1.521-0.264,2.375-0.551,2.909-0.696c0.54-0.147,0.759-0.188,0.98-0.22c0.926-0.21-0.98-4.055-1.534-2.9
			c-0.154,0.273-0.26,0.5-0.62,0.768c-0.359,0.267-0.964,0.615-2.181,0.926c-1.293,0.347-3.246,0.457-4.958,0.278
			C202.8,154.88,201.342,154.57,201.034,154.518z"/>
		<path style="fill:#231815;" d="M252.526,327.854l-0.088,0.008c-0.122-0.034-0.448-0.109-0.865-0.483
			c-0.566-0.504-0.433-0.282,1.712,1.857c1.753,1.75,1.833,1.737,1.318,1.181c-0.337-0.365-0.631-0.925-0.791-1.171
			c-0.084-0.129-0.108-0.196-0.032-0.149c0.112,0.069,0.417-0.132,0.644-0.178c0.222-0.047,0.367,0.06,0.474,0.131
			c0.216,0.142-2.801-2.909-2.323-2.316c0.231,0.287,0.375,0.456,0.316,0.653C252.829,327.596,252.555,327.823,252.526,327.854z"/>
		<path style="fill:#231815;" d="M273.385,330.128l-2.853-0.998c-1.314-0.481-3.86-1.371-6.263-2.191
			c-2.398-0.825-4.661-1.572-5.304-2c-1.732-1.19-4.794-1.448-5.033,1.595c-0.207,2.455,2.457,2.98,3.907,2.55
			c0.47-0.151,2.749,0.085,5.249,0.512c2.498,0.418,5.205,1.016,6.539,1.293c1.408,0.288,2.711,0.656,3.553,1.036
			c0.615,0.278,4.694,1.707,9.517,3.717c4.832,1.989,10.367,4.631,14.101,6.747c3.678,2.071,5.633,3.457,6.821,4.335
			c1.18,0.89,1.594,1.286,2.003,1.666c1.589,1.519,5.263-1.067,1.783-2.761c-0.843-0.382-1.463-0.65-2.744-1.364
			c-1.286-0.702-3.222-1.876-6.831-3.783c-3.845-2.045-9.449-4.647-14.387-6.62C278.512,331.866,274.279,330.431,273.385,330.128z"
			/>
		<path style="fill:#231815;" d="M221.531,329.066l-2.686-0.617c-1.239-0.303-3.643-0.836-5.919-1.279
			c-2.272-0.457-4.418-0.827-5.061-1.143c-1.736-0.894-4.503-0.657-4.295,2.376c0.159,2.473,2.624,2.55,3.85,1.895
			c0.399-0.234,2.461-0.361,4.748-0.326c2.286,0.028,4.783,0.242,6.013,0.335c1.296,0.095,2.507,0.293,3.299,0.561
			c0.578,0.197,4.384,1.098,8.868,2.594c4.494,1.465,9.625,3.592,13.078,5.37c3.406,1.73,5.218,2.931,6.327,3.68
			c1.101,0.764,1.484,1.119,1.871,1.446c1.5,1.33,4.928-1.523,1.666-2.831c-0.785-0.302-1.369-0.498-2.56-1.092
			c-1.201-0.575-3-1.572-6.357-3.154c-3.574-1.707-8.795-3.799-13.415-5.25C226.345,330.151,222.368,329.257,221.531,329.066z"/>
		<path style="fill:#231815;" d="M161.429,36.029c-4.334,0-8.668-5.201-1.733-5.201C166.631,30.827,161.429,36.029,161.429,36.029z"
			/>
		<path style="fill:#231815;" d="M185.704,26.492c4.334,0,10.402-5.201,13.87-1.733s-7.802,5.201-7.802,5.201
			S179.636,26.492,185.704,26.492z"/>
		<path style="fill:#231815;" d="M239.368,77.68c-0.723,0.561-1.558,0.988-2.414,1.261c-0.599,0.192-1.51,0.401-2.563,0.404
			c-0.262,0.005-0.533-0.006-0.808-0.029c-0.269-0.024-0.603-0.051-0.698-0.1c-0.429-0.179-1.027-0.492-1.535-0.775
			c-2.108-1.185-4.012-2.466-4.522-2.945c-1.402-1.308-3.782-2.657-4.561-1.158c-0.643,1.26,1.82,2.832,3.173,3.129
			c0.448,0.099,2.481,1.148,4.789,2.207c0.582,0.262,1.174,0.527,1.798,0.758l0.528,0.179c0.217,0.051,0.424,0.038,0.566,0.053
			c0.323,0.01,0.64,0.01,0.946-0.005c1.228-0.056,2.271-0.338,2.924-0.58c1.388-0.509,2.537-1.286,3.281-1.855
			c0.26-0.208,1.311-1.008,2.253-2.631c0.466-0.804,0.886-1.825,1.111-2.974c0.24-1.133,0.411-2.408,0.283-3.757
			c-0.112-1.344-0.603-2.763-1.514-3.899c-0.902-1.142-2.117-1.975-3.34-2.608c-2.476-1.251-4.991-1.923-6.998-2.593
			c-3.982-1.244-6.047-2.325-7.218-3.123c-1.165-0.804-1.519-1.217-1.882-1.593c-0.701-0.759-1.594-1.062-2.112-0.862
			c-0.491,0.166-0.584,1.12,1.001,2.335c0.771,0.547,1.349,0.918,2.648,1.628c1.298,0.697,3.382,1.636,7.199,2.772
			c2.019,0.636,4.506,1.287,6.817,2.431c1.148,0.575,2.225,1.317,3.001,2.274c0.778,0.956,1.21,2.128,1.323,3.325
			c0.123,1.195-0.021,2.389-0.246,3.473c-0.21,1.076-0.581,1.989-1.017,2.737C240.708,76.658,239.696,77.424,239.368,77.68z"/>
	</g>
</g>
</svg>
