<?xml version="1.0" encoding="iso-8859-1"?>
<!-- Generator: Adobe Illustrator 18.1.1, SVG Export Plug-In . SVG Version: 6.00 Build 0)  -->
<svg version="1.1" id="_x37_" xmlns="http://www.w3.org/2000/svg" xmlns:xlink="http://www.w3.org/1999/xlink" x="0px" y="0px"
	 viewBox="0 0 512 512" style="enable-background:new 0 0 512 512;" xml:space="preserve">
<g>
	<path style="fill:#21983A;" d="M255.065,126.257c2.915,3.216,5.436,5.751,7.102,7.448c0.838,0.885,1.408,1.375,1.845,1.871
		c0.447,0.521,0.612,0.97,0.933,1.129c0.275,0.158,0.965,0.171,1.588-0.463c0.63-0.583,0.901-2.095,0.496-3.792
		c-0.75-3.373-3.348-7.543-7.887-12.559c-9.348-10.084-17.738-16.231-26.847-22.849L217.532,86.67
		c-5.401-3.744-11.295-7.998-18.415-12.756c-1.697-1.068-3.165-2.146-5.278-3.017l0.148,0.063
		c-14.327-7.276-29.336-11.519-43.3-14.3c-3.577-0.729-6.898-1.148-10.165-1.901c-3.26-0.697-6.422-1.477-9.485-2.301
		c-3.06-0.822-6.021-1.692-8.88-2.562l-2.173-0.664c-0.686-0.192-1.278-0.394-1.926-0.63c-1.271-0.463-2.518-0.989-3.686-1.551
		c-1.201-0.581-2.289-1.153-3.151-1.687c-0.426-0.262-0.796-0.519-1.046-0.716l-0.254-0.202l-0.028-0.009l-0.327,0.166
		c-0.232,0.106-0.426,0.174-0.585,0.206c-0.63,0.101-0.225-0.141,0.497,0.555c0.06,0.086,0.134-0.231,0.363-0.387
		c0.422-0.396,0.986-0.771,1.447-1.107c1.929-1.305,2.447-2.423,0.532-3.069c-0.475-0.15-1.102-0.253-1.915-0.248
		c-0.831,0.049-1.788,0.042-3.246,0.803c-0.363,0.202-0.778,0.498-1.201,0.97c-0.415,0.463-0.852,1.213-0.979,2.106
		c-0.141,0.893,0.039,1.764,0.296,2.403c0.257,0.648,0.574,1.139,0.887,1.563c1.278,1.626,2.644,2.581,4.179,3.556
		c1.539,0.94,3.239,1.775,5.172,2.535c0.961,0.377,2.004,0.743,3.151,1.053l3.077,0.856c4.38,1.157,9.492,2.274,15.411,3.065
		c2.986,0.398,5.679,0.702,8.162,0.944c2.507,0.209,4.598,0.438,6.669,0.766c4.134,0.62,7.757,1.345,11.538,2.274
		c3.778,0.938,7.721,2.069,12.446,3.674c4.714,1.63,10.221,3.729,16.939,6.993l0.179,0.086l0.134,0.044
		c0.398,0.127,1.306,0.616,2.053,1.053c0.789,0.463,1.609,0.974,2.447,1.509c11.77,7.755,22.178,16.321,31.783,24.571
		C238.551,109.695,247.421,117.914,255.065,126.257z"/>
	<path style="fill:#21983A;" d="M213.159,28.454c5.897-0.433,9.707-2.547,9.89-4.347c0.176-1.822-3.25-3.28-11.788-2.841
		c-17.33,0.748-26.53,4.389-48.715,5.889c-11.101,0.833-21.83,1.609-31.745,2.968c-4.957,0.697-9.707,1.521-14.193,2.771
		c-2.243,0.63-4.419,1.366-6.517,2.366c-0.546,0.266-0.986,0.488-1.609,0.852c-0.687,0.414-1.303,0.831-1.891,1.305
		c-1.211,0.928-2.077,2.049-2.891,3.222l-0.06,0.086c0.049,1.037,0.229,1.952,0.57,2.87c0.342,0.884,0.817,1.787,1.176,2.456
		c0.662,1.171,1.109,1.766,1.591,2.405c0.926,1.164,1.619,1.773,2.398,1.947c0.732,0.192,1.676-0.659,1.827-2.639
		c0.088-0.965-0.018-2.139-0.296-3.443c-0.116-0.609-0.074-0.796-0.088-1.084c0.01-0.269-0.06-0.523,0.042-0.782
		c0.278-0.264,0.585-0.47,0.894-0.662l0.627-0.371c0.447-0.261,0.94-0.526,1.468-0.796c2.123-1.079,4.817-2.218,7.961-3.431
		c7.475-2.785,12.151-3.519,17.573-4.264c5.464-0.68,11.823-1.238,23.417-2.329C181.347,28.982,197.825,29.58,213.159,28.454z"/>
	<path style="fill:#21983A;" d="M229.323,28.571c-2.637,3.375-2.609,7.135-1.007,8.033c1.616,0.812,3.827-0.13,7.447-4.419
		c3.743-4.343,6.242-7.985,9.369-11.653c1.577-1.803,3.341-3.614,5.672-5.077c2.257-1.387,5.426-2.627,8.51-1.137
		c1.62,0.75,2.961,1.799,3.736,3.213c0.803,1.407,1.127,3.151,1.412,4.926c0.26,1.762,0.556,3.653,0.838,5.362
		c0.268,1.732,0.482,3.447,0.673,5.135c0.715,6.732,1.306,13.186,2.88,18.612c1.556,5.35,4.88,6.595,6.024,4.434
		c0.609-1.07,0.764-2.942,0.321-5.639c-0.447-2.715-1.423-6.251-3.099-11.214c-1.796-5.341-2.373-8.6-3.112-12.424
		c-0.419-1.942-0.62-3.764-1.18-6.535c-0.313-1.356-0.711-3.019-1.848-4.804c-1.12-1.801-3.067-3.299-5.176-4.197
		c-1.789-0.878-3.982-1.132-5.817-0.963c-1.887,0.162-3.605,0.685-5.179,1.322c-3.141,1.301-5.788,3.056-8.218,4.884
		C236.735,20.137,232.721,24.19,229.323,28.571z"/>
	<path style="fill:#21983A;" d="M289.703,38.567c-3.046-1.792-5.954-1.187-6.799,0.361c-0.873,1.593,0.085,3.926,3.94,6.427
		c3.912,2.637,7.267,4.137,10.989,5.933c3.7,1.797,7.718,3.931,12.453,8.054c9.415,8.3,17.091,17.333,24.125,23.073
		c3.451,2.831,6.482,1.975,6.535-0.34c0.06-2.356-2.468-5.919-9.999-10.19c-8.112-4.667-8.126-6.653-18.39-15.143
		C304.322,50.001,297.576,43.213,289.703,38.567z"/>
	<path style="fill:#21983A;" d="M359.734,89.99c-1.092,0.296-2.623,0.569-3.697,1.958c-1.099,1.334-1.123,4.054-0.25,6.908
		c1.754,5.817,6.707,12.501,14.094,17.515l10.795,7.478l6.711,4.799c1.148,0.843,2.313,1.711,3.419,2.584
		c1.07,0.831,2.278,1.863,2.746,2.356l0.525,0.572c8.531,8.183,18.809,13.543,27.597,18.492c8.862,4.838,16.122,9.492,20.763,13.173
		c1.849,1.391,3.827,3.339,5.94,5.329l6.457,6.258c4.383,4.338,8.897,8.947,12.897,13.695c4.007,4.741,7.415,9.668,9.795,14.388
		c2.401,4.713,3.82,9.16,4.711,12.654c0.912,3.491,1.788,8.58,1.986,14.842c0.12,3.174,0.074,6.457-0.317,10.038
		c-0.377,3.577-0.989,7.391-1.774,11.337c-1.567,7.899-3.782,16.365-6.486,24.801c-1.362,4.223-2.845,8.397-4.574,12.473
		c-1.648,4-3.81,7.83-5.964,11.702c-2.151,3.868-4.102,7.399-5.588,10.8c-0.718,1.711-1.384,3.218-2.032,4.827
		c-0.62,1.584-1.127,3.123-1.556,4.62c-1.708,5.989-2.401,11.181-3.644,16.344c-0.627,2.567-1.32,5.197-2.387,7.769
		c-1.113,2.62-2.394,5.38-4.032,8.239c-1.658,2.834-3.658,5.861-6.619,8.45c-2.926,2.627-7.084,4.375-12.063,4.572
		c-4.968,0.22-9.387-0.38-13.182-0.664c-3.799-0.329-7-0.502-9.605-0.51c-5.218-0.013-8.031,0.51-8.647,0.936
		c-0.623,0.452,0.929,0.813,4.447,1.273l16.534,2.199c3.806,0.463,7.366,0.79,10.788,0.611c3.408-0.169,6.686-0.933,9.422-2.315
		c2.757-1.357,4.901-3.208,6.633-5.088c1.729-1.903,3.091-3.87,4.292-5.875c1.208-2.005,2.253-4.058,3.26-6.218
		c0.965-2.176,2.056-4.355,2.908-7.068c1.746-5.149,2.732-11.258,4.711-18.335c1.031-3.581,2.264-6.778,4-10.098
		c1.553-3.341,3.398-6.383,5.369-9.531c1.961-3.126,4.007-6.273,5.845-9.593c0.908-1.655,1.806-3.376,2.549-5.089
		c0.764-1.667,1.493-3.369,2.162-5.063c5.26-13.545,8.404-26.629,9.954-38.123c0.363-2.878,0.679-5.846,0.859-8.91
		c0.187-3.086,0.123-6.234-0.035-9.336c-0.331-6.253-1.275-12.67-3.183-18.779c-1.88-6.116-4.781-11.823-8.123-16.791
		c-3.331-4.984-7.007-9.279-10.443-13.055l-11.51-12.543c-2.028-2.25-4.06-4.554-6.052-6.889c-2.028-2.405-4.345-4.816-6.665-6.883
		c-4.662-4.202-9.475-7.577-13.541-10.292c-4.081-2.708-7.426-4.788-9.563-6.098c-3.943-2.435-12.693-7.79-18.678-14.054
		l-0.12-0.146c-1.261-1.454-2.292-2.32-3.352-3.264c-1.046-0.908-2.053-1.736-3.024-2.521l-5.225-4.116l-4.954-3.813l-11.992-10.637
		c-3.13-2.776-6.39-5.704-8.964-8.156c-1.289-1.22-2.384-2.326-3.151-3.13c-0.373-0.391-0.665-0.715-0.82-0.843L359.734,89.99z"/>
	<path style="fill:#21983A;" d="M174.908,16.866c-0.923,1.169-1.282,2.565-1.105,3.717c0.162,1.16,0.859,1.968,1.69,2.255
		c0.845,0.298,1.799,0.201,2.718-0.088c0.933-0.303,1.845-0.854,2.964-2.028c2.32-2.37,3.915-4.778,5.655-7.51
		c0.887-1.38,1.813-2.762,2.989-4.401c1.028-1.542,2.289-3.169,4.172-4.355c0.848-0.518,1.757-0.871,2.708-0.81
		c0.944,0.069,1.76,0.628,2.338,1.289c1.194,1.356,2.218,3.505,3.12,5.405c1.803,3.915,3.69,7.751,6.211,10.614
		c1.222,1.407,2.672,1.877,3.732,1.673c1.081-0.204,1.771-1.026,1.986-2.09c0.204-1.063-0.025-2.334-0.81-3.727
		c-0.796-1.414-2.155-2.98-4.524-5.218c-2.549-2.435-3.584-4.246-4.957-6.431c-0.349-0.553-0.725-1.137-1.211-1.775
		c-0.479-0.632-1.257-1.514-2.197-2.176c-0.954-0.667-2.19-1.206-3.651-1.208c-1.437-0.028-3.088,0.54-4.542,1.502
		c-2.017,1.364-3.517,2.852-4.961,4.248c-1.267,1.245-2.774,2.417-4.197,3.575C180.161,11.662,177.305,13.866,174.908,16.866z"/>
	<path style="fill:#21983A;" d="M131.002,101.762c5.028-3.391,9.126-4.996,9.633-6.758c0.261-0.85-0.63-1.931-3.288-2.215
		c-2.584-0.187-6.947,0.255-12.028,4.107c-0.778,0.62-1.511,1.29-2.19,2.024c-0.866,0.947-1.665,2.076-2.285,3.194
		c-1.225,2.26-1.701,4.642-1.926,6.806c1.394,0.989,2.782,1.919,4.144,2.81c1.384,0.815,2.94,1.701,3.715,2.007
		c1.919,0.866,3.845,1.567,5.788,2.1c3.876,1.077,7.764,1.63,11.813,1.956c8.112,0.69,16.946,0.264,28.484,1.114
		c27.1,3.414,52.472,8.111,70.207,14.517c8.616,3.079,13.436,2.884,11.756-0.016c-0.87-1.419-3.472-3.482-8.32-5.588
		c-4.834-2.107-11.936-4.176-21.474-5.355c-10.2-1.215-15.939-1.926-22.745-3.021l-11.665-1.801l-7.683-1.118
		c-2.824-0.436-6.172-0.833-9.795-1.06c-9.45-0.609-18.323-0.891-26.537-2.305c-4.095-0.709-8.003-1.683-11.605-3.058
		c-1.796-0.694-3.51-1.488-5.126-2.384c-0.986-0.535-1.204-0.713-1.567-0.965c-0.324-0.243-0.627-0.482-0.901-0.729
		c-0.211-0.076-0.003-0.324,0.018-0.477l0.222-0.498c0.165-0.317,0.366-0.604,0.578-0.861l0.352-0.379
		c0.208-0.208,0.475-0.486,0.732-0.713C129.833,102.623,130.403,102.178,131.002,101.762z"/>
	<path style="fill:#21983A;" d="M134.132,58.65c-0.905-1.459-2.834-1.509-4.426-0.706c-1.574,0.785-2.655,2.829-1.183,5.461
		c2.989,5.239,7.749,4.901,12.017,10.482c2.074,2.78,3.521,5.866,4.028,8.714c0.532,2.864,0.063,5.308-0.634,7.186
		c-0.658,1.731,0.866,3.669,2.968,3.869c1.042,0.06,2.264-0.435,3.141-1.901c0.849-1.421,1.303-3.993,0.144-6.862
		c-1.285-2.972-2.028-4.363-2.746-6.183c-0.761-1.766-1.641-3.877-4.127-6.882C139.35,67.125,136.523,62.539,134.132,58.65z"/>
	<path style="fill:#21983A;" d="M148.754,118.573l20.995,15.198c7.489,6.03,14.098,13.353,19.221,20.659
		c5.105,7.32,7.637,13.1,8.862,16.568c1.201,3.491,1.183,4.683,0.648,3.484c-0.553-1.195-1.799-2.79-3.764-5.429
		c-1.979-2.628-4.651-6.308-8.454-11.554c-7.612-10.498-15.654-17.407-20.456-20.627c-5.204-3.137-2.514-2.581-17.372-13.144
		c-7.486-5.178-11.936-8.074-13.96-9.591c-2.042-1.482-1.461-2.003,1.105-1.151C140.653,114.695,148.761,118.571,148.754,118.573z"
		/>
	<path style="fill:#21983A;" d="M208.638,213.451c-4.222-19.363-6.979-27.511-6.387-30.29c0.285-1.352,1.468-1.222,3.039,0.393
		c1.56,1.598,3.352,4.716,4.528,8.887c2.338,8.325,4.155,16.598,5.735,24.498l1.109,5.841c0.352,2.014,0.63,3.572,1.109,5.264
		c0.915,3.352,2.084,6.588,3.204,9.612c4.595,12.105,10.876,23.704,18.682,33.936c1.968,2.547,4.535,5.656,7.39,8.436
		c2.845,2.789,6.003,5.2,8.654,6.82c2.633,1.646,4.714,2.546,4.986,3.046c0.303,0.421-1.324,0.666-5.482-0.755
		c-4.112-1.496-7.376-3.348-10.256-5.232c-2.88-1.898-5.373-3.88-7.799-6.088c-4.796-4.447-9.468-9.765-14.619-18.752
		c-5.126-9.026-9.7-20.157-11.707-29.711c-0.243-1.202-0.447-2.391-0.585-3.572l-0.348-2.995l-0.63-4.941L208.638,213.451z"/>
	<path style="fill:#21983A;" d="M282.989,202.987c2.76,1.216,5.51,3.924,7.753,6.501c2.275,2.621,4.179,5.278,5.87,7.364
		c3.387,4.199,5.316,8.142,7.14,11.267c0.912,1.544,1.451,4.866,1.849,8.043c0.215,2.919,0.158,6.285,0.662,8.265
		c0.514,2.012-0.236,4.789-1.021,7.519c-0.778,2.745-1.591,5.436-1.042,7.681c1.165,4.526,0.588,10.902-1.053,14.052
		c-0.785,1.588-0.511,2.866-0.292,4.186c0.222,1.297,0.363,2.665-0.694,3.832c-1.042,1.164-2.123,2.583-2.968,3.414
		c-0.834,0.861-1.422,1.308-1.422,1.327c0,0,0.743,0.676,1.648,1.153c0.88,0.461,1.979,0.665,2.334-0.127
		c0.345-0.761,1.521-1.345,2.686-2.093c1.155-0.72,2.292-1.516,2.433-1.965c0.158-0.435,0.753-2.222,1.113-4.463
		c0.387-2.225,0.507-4.889,0.306-6.714c-0.363-3.572,2.285-8.943,3.436-12.851c1.162-3.815,6.454-4.31,4.112-7.222
		c-2.377-2.863-2.975-4.163-3.067-6.059c-0.106-1.933-3.278-3.074-0.352-6.489c1.444-1.75,2.986-4.558,3.528-7.507
		c0.599-2.641,0.62-4.984-0.468-5.468c-2.151-0.989-4.035-4.243-3.736-5.75c0.352-1.468,3.859-9.135,1.451-10.922
		c-2.341-1.752-6.714-4.92-9.306-4.912c-2.581,0-4.081,1.114-6.493-0.307c-1.211-0.697-1.285-0.514-1.665-0.797
		c-0.391-0.264-1.049-1.07-3.609-3.357c-2.577-2.252-4.461-2.91-5.771-2.905c-1.314,0.011-2.123,0.625-2.88,1.245
		c-0.75,0.637-1.412,1.613-1.753,2.311C281.397,201.969,281.415,202.337,282.989,202.987z"/>
	<path style="fill:#21983A;" d="M365.248,208.069c-2.338-10.151-9.873-11.929-6.859,2.82c1.458,7.517,3.362,13.036,5.25,19.14
		c1.803,6.121,3.876,12.767,3.732,22.495c-0.085,9.7-1.274,19.068-3.119,27.458c-1.859,8.375-4.433,15.842-7.563,21.407
		c-1.525,2.704-2.408,4.699-2.662,6.185c-0.247,1.461,0.204,2.502,1.623,2.456c1.387-0.039,3.813-1.352,6.165-4.656
		c2.345-3.275,4.471-8.443,5.415-15.371c0.951-7.404,1.405-11.508,2.13-16.42c0.634-4.905,1.542-10.594,1.468-21.034
		c-0.074-4.162-0.141-8.23-0.542-12.21c-0.356-3.926-0.817-7.711-1.32-11.397C367.941,221.58,366.713,214.65,365.248,208.069z"/>
	<path style="fill:#21983A;" d="M324.053,324.805c4.172-1.334,7.404-3.424,9.352-5.348c1.961-1.938,2.665-3.65,2.334-4.5
		c-0.345-0.877-1.679-0.916-4.091-0.194c-2.444,0.694-6.003,2.088-11.446,3.581c-5.56,1.489-10.693,2.31-15.654,3.019
		c-4.965,0.688-9.777,1.216-14.837,1.66c-5.063,0.442-10.376,0.766-16.376,1.037l-9.573,0.451
		c-3.391,0.171-7.091,0.454-10.989,1.204c-7.848,1.428-15.087,5.06-21.09,9.635c-3.032,2.259-5.841,4.674-8.566,7.049l-4.024,3.535
		l-1.968,1.72l-0.954,0.819c-0.271,0.192-0.556,0.389-0.891,0.588c-2.577,1.547-5.732,2.086-8.841,2.255
		c-3.13,0.162-6.274-0.039-9.366-0.276c-6.186-0.444-12.168-1.271-18.217-0.278c-2.94,0.488-5.612,1.766-7.338,3.461
		c-1.746,1.694-2.447,3.547-2.627,4.824c-0.289,2.639,0.824,3.19,2.148,2.207c0.701-0.468,1.567-1.28,2.732-2.039
		c1.176-0.753,2.637-1.421,4.943-1.845c2.292-0.433,5.419-0.558,9.337-0.507c3.926,0.024,8.63,0.283,14.225-0.085
		c5.947-0.428,11.031-1.398,15.055-4.024c0.482-0.324,0.968-0.68,1.468-1.092l1.13-1.063l2.091-1.979l4.179-3.847
		c2.877-2.563,5.982-5.306,10.133-8.209c4.155-2.857,9.436-5.862,17.094-7.457c6.081-1.26,12.39-1.109,18.523-1.076l18.02,0.423
		C301.713,328.584,313.195,328.264,324.053,324.805z"/>
	<path style="fill:#21983A;" d="M291.636,284.212c4.873-0.572,7.549-5.186,10.883-6.133c1.711-0.489,2.609,0.891,2.778,2.628
		c0.187,1.743-0.419,3.818-1.359,4.482c-1.866,1.318-5.331,3.501-8.119,4.987c-1.377,0.773-6.897,3.616-12.587,5.79
		c-5.665,2.237-11.422,3.935-12.7,4.306c-1.278,0.38-7.021,1.674-13.042,2.788c-6.017,1.153-12.309,2.164-14.619,3.158
		c-4.655,2.002-7.116-3.692-5.042-4.607c2.063-0.873,10.556-2.227,11.816-2.51c0.634-0.113,4.454-0.15,8.486-0.472
		c4.028-0.31,8.253-0.933,9.63-1.665c2.753-1.387,11.175-3.447,14.39-4.81c1.616-0.627,3.641-2.547,5.38-4.354
		C289.284,286.006,290.745,284.309,291.636,284.212z"/>
	<path style="fill:#21983A;" d="M227.387,306.144c2.528,0.634,4.581-0.718,4.982-2.445c0.405-1.744-0.651-3.795-4.155-4.868
		c-3.602-1.109-6.697-1.083-10.08-0.734c-3.398,0.389-6.964,0.889-11.901,1.778c-2.232,0.447-4.556,0.391-6.929,0.467
		c-1.186,0.044-2.405,0.123-3.641,0.379c-1.204,0.186-2.633,0.885-3.232,1.076c-0.746,0.137-1.788,0.275-2.531,0.192
		c-0.792-0.056-1.451-0.262-2.137-0.569c-1.32-0.6-3.172-1.84-5.334-2.318c-2.109-0.477-3.616,0.252-4.236,1.12
		c-0.648,0.903-0.549,1.97,0.032,2.88c0.574,0.908,1.62,1.66,2.711,2.243c0.57,0.311,1.095,0.544,2.116,0.917
		c0.979,0.322,2.803,1.081,5.232,0.965c1.264-0.069,2.303-0.326,3.169-0.586c0.923-0.282,1.496-0.519,2.37-0.863
		c0.458-0.139,0.743-0.359,1.039-0.563c0.342-0.238,0.472-0.283,0.68-0.398c0.391-0.197,0.827-0.335,1.303-0.447
		c0.961-0.227,2.116-0.297,3.69-0.371c1.57-0.1,3.613-0.106,6.383-0.736c3.542-0.866,7.278-0.5,10.616,0.236
		C220.919,304.236,224.126,305.334,227.387,306.144z"/>
	<path style="fill:#21983A;" d="M180.457,321.453c-4.655-0.585-9.968-1.746-15.242-1.493c-2.951,0.04-4.095,0.403-5.993,2.246
		c-0.901,0.857-1.806,1.856-2.694,2.852l-1.422,1.609c-0.616,0.591-1.042,0.979-1.599,1.468c-2.112,1.87-4.306,3.165-6.214,3.912
		c-1.929,0.741-3.556,0.972-4.739,1.019c-2.387,0.009-3.06-0.463-2.271-0.542c0.796-0.106,1.947-0.727,3.595-1.783
		c1.662-1.074,3.736-2.612,6.514-5.169l1.025-0.982c0.341-0.352,0.69-0.662,0.88-0.926l1.778-2.155c1.183-1.385,2.317-2.7,3.7-3.824
		c1.342-1.151,3.186-1.901,4.63-2.144c1.451-0.273,2.581-0.352,3.521-0.472c3.866-0.366,2.51,0.362,13.397,1.801
		c5.401,0.667,8.327,0.759,9.866,0.91c1.521,0.118,1.669,0.815,0.088,1.535C186.16,320.733,180.432,321.449,180.457,321.453z"/>
	<path style="fill:#21983A;" d="M179.432,331.505c-2.014-0.305-4.172-0.637-6.39-0.864c-2.197-0.217-4.535-0.342-6.468,0.046
		c-0.972,0.181-1.757,0.528-2.292,0.96c-0.155,0.146-0.19,0.164-0.433,0.412l-0.651,0.667l-1.306,1.326
		c-1.76,1.759-3.574,3.463-5.486,4.945c-3.778,2.998-7.475,4.278-9.753,4.097c-1.13-0.062-1.824-0.359-2.12-0.57
		c-0.296-0.208-0.239-0.312,0.113-0.276c0.725,0.067,1.824-0.389,3.186-1.375c1.38-0.984,3.067-2.484,5.64-4.635
		c2.574-2.164,4.679-4.445,6.44-6.424c0.486-0.528,0.736-0.901,1.405-1.539c0.598-0.555,1.243-0.993,1.866-1.315
		c1.246-0.657,2.373-0.965,3.299-1.197c1.855-0.41,2.377-0.257,3.743-0.058c1.352,0.204,3.539,0.649,8.285,1.237
		c4.729,0.588,7.246,0.852,8.605,1.132c1.335,0.246,1.454,0.938,0.049,1.521C184.403,330.736,179.404,331.496,179.432,331.505z"/>
	<path style="fill:#21983A;" d="M187.755,344.75c-3.32,0.431-6.721,1.183-9.454,3.452c-2.799,2.213-5.19,5.47-7.464,8.378
		c-4.482,5.919-7.376,7.882-6.855,6.841c0.595-0.977,0.095-3.912,3.338-8.786c3.236-4.843,6.26-8.639,8.559-10.711
		c1.134-1.032,1.605-1.162,2.746-1.544c1.127-0.359,3.116-0.988,7.116-1.754c3.922-0.752,6.151-0.875,7.394-0.66
		c1.215,0.22,1.296,0.903,0.257,1.495L187.755,344.75z"/>
	<path style="fill:#21983A;" d="M146.388,254.587c3.25-0.46,4.926-2.711,4.591-4.443c-0.342-1.785-2.419-3.014-6.531-2.662
		c-8.32,0.546-13.137,3.334-24.742,3.715l-4.32,0.21c-1.468,0.093-2.739,0.195-4.084,0.144c-2.665-0.074-5.278-0.442-7.844-0.762
		c-5.056-0.669-10.341-1.132-14.904,0.789c-2.208,0.91-3.271,2.524-3.391,3.692c-0.123,1.211,0.57,2.03,1.627,2.387
		c1.067,0.352,2.426,0.266,4.049-0.069c1.634-0.347,3.623-1.01,7.25-1.908c3.926-0.919,6.443-0.732,9.337-0.579
		c1.468,0.084,3.074,0.211,5.155,0.143c2.19-0.107,4.26-0.382,7.271-0.592C129.291,253.936,137.942,255.857,146.388,254.587z"/>
	<path style="fill:#21983A;" d="M202.621,248.778c5.003-7.061,6.274-13.082,5.003-14.386c-0.648-0.678-1.929-0.215-3.866,1.657
		c-1.947,1.863-4.524,5.148-8.126,9.924c-7.404,9.644-13.376,16.707-21.097,23.259c-3.88,3.229-8.257,6.262-13.675,8.785
		c-5.408,2.51-11.894,4.5-19.7,5.096c-7.795,0.614-15.555-0.417-23.231-0.597c-3.838-0.095-7.683-0.018-11.468,0.609
		c-3.771,0.621-7.514,1.855-10.742,3.97c-3.274,2.113-5.651,5.008-7.862,7.551l-3.049,3.604l-1.813,2.051
		c-1.176,1.236-2.099,2.484-3.296,3.162c-0.236-0.026-0.095-0.38-0.063-0.548l0.194-0.609c0.134-0.398,0.236-0.79,0.32-1.178
		c0.176-0.769,0.264-1.51,0.264-2.213c0-0.685-0.106-1.26-0.303-1.79c-0.081-0.18-0.282-0.725-0.56-1.299
		c-0.261-0.562-0.542-1.069-0.824-1.533c-1.155-1.852-2.246-2.915-2.676-3.385c-0.553-0.761-0.292-1.208-0.577-1.359
		c-0.113-0.086-0.369-0.125-0.746-0.067c-0.384,0.056-0.912,0.197-1.331,0.602c-0.444,0.393-0.771,1.109-0.736,2.014
		c0.071,1.053,0.327,1.928,0.581,2.841c0.26,0.908,0.539,1.829,0.774,2.819l0.176,0.808l0.109,0.516l0.134,0.812
		c0.137,1.155,0.225,2.319-0.278,4.387c-0.113,0.507-0.282,1.07-0.352,1.556l-0.137,1.426c-0.085,0.549-0.014,0.85,0.039,1.19
		c0.056,0.327,0.095,0.724,0.165,1.005c0.349,0.956,0.655,1.931,0.873,2.41c0.254,0.574,0.377,0.919,0.437,1.278l0.014,0.486
		l0.099,0.285l0.676,0.236c0.831-0.012,1.528-0.269,2.426-0.643c0.887-0.422,1.929-1.007,3.151-2.23
		c2.458-2.53,5.126-6.331,7.626-9.767c3.461-5.023,5.852-8.686,8.757-10.82c2.933-2.215,6.207-3.302,9.88-3.91
		c3.697-0.602,7.845-0.671,13.144-0.461l8.968,0.41c3.352,0.128,7.189,0.216,11.499-0.171c13.774-1.153,26.273-6.051,36.438-13.022
		C188.069,266.564,196.135,257.855,202.621,248.778z"/>
	<path style="fill:#21983A;" d="M77.414,260.104c2.468-0.118,3.961-1.385,3.933-2.45c-0.028-1.095-1.472-1.926-4.76-1.901
		c-6.63-0.046-10.348,1.222-19.259-0.294c-4.44-0.71-8.978-0.704-12.988,0.269c-4.021,0.917-7.496,2.438-10.323,3.927
		c-2.767,1.498-3.162,3.488-1.792,3.987c1.419,0.556,4.345-0.484,9.246-3.709c2.69-1.676,4.461-2.181,6.535-2.517
		c2.102-0.287,4.503-0.421,9.028,0.093c3.634,0.437,7.084,1.35,10.482,1.898C70.907,259.985,74.231,260.252,77.414,260.104z"/>
	<path style="fill:#21983A;" d="M48.951,269.257c-3.031-0.509-6.806-0.563-10.33,0.215c-3.577,0.76-6.454,2.502-8.316,4.998
		c-1.905,2.507-2.993,4.924-3.866,6.244c-0.835,1.357-1.356,1.75-1.239,1.194c0.123-0.553-0.144-1.467-0.19-2.972
		c-0.011-1.481,0.095-3.681,1.75-6.357c1.658-2.658,3.975-4.57,6.095-5.73c2.13-1.19,4.028-1.81,5.408-2.278
		c1.398-0.445,1.827-0.368,2.947-0.294l7.007,0.454c4.077,0.34,6.345,1.356,7.316,2.127c0.968,0.79,0.652,1.412-0.489,1.437
		C52.732,268.319,48.933,269.231,48.951,269.257z"/>
	<path style="fill:#21983A;" d="M45.525,279.698c-3.246,0.655-7.176,1.317-10.063,3.044c-2.905,1.692-5.035,4.85-7.007,7.891
		c-1.958,3.051-3.486,5.26-4.57,6.48c-1.07,1.232-1.662,1.507-1.44,0.979c0.479-1.03-0.437-3.887,2.338-9.087
		c1.423-2.567,2.859-4.862,4.398-6.713c1.525-1.863,3.172-3.215,4.443-4.105c1.282-0.879,1.757-0.921,2.894-1.148
		c1.134-0.222,2.993-0.482,6.82-1.375c3.799-0.912,6.095-1.172,7.334-0.968c1.222,0.194,1.306,0.879,0.292,1.489L45.525,279.698z"/>
	<path style="fill:#21983A;" d="M57.362,285.161c1.943-0.563,2.82-2.017,2.524-3.037c-0.299-1.046-1.694-1.639-4.306-1.009
		c-2.672,0.609-4.56,1.435-6.771,2.209c-1.106,0.382-2.288,0.734-3.669,1.012c-1.377,0.308-2.972,0.437-4.859,1.016
		c-1.912,0.595-3.458,1.943-4.609,3.331c-1.18,1.398-2.12,2.863-2.993,4.273c-1.722,2.832-3.13,5.496-4.243,7.816
		c-1.084,2.273-0.211,3.875,1.148,3.651c1.376-0.215,3.169-2.248,4.313-7.107c0.637-2.598,1.285-3.968,2.211-5.44
		c0.468-0.724,1.01-1.489,1.739-2.315c0.746-0.817,1.62-1.686,3.081-2.238c2.437-0.819,5.577-0.498,8.369-0.776
		C52.144,286.346,54.859,285.89,57.362,285.161z"/>
	<path style="fill:#21983A;" d="M62.904,293.458c-3.619-0.331-8.014,0.074-12.07,1.642c-4.081,1.528-7.721,4.257-10.852,7.096
		c-3.13,2.838-5.359,5.01-6.834,6.183c-1.447,1.203-2.137,1.424-1.757,0.872c0.813-1.042,0.644-4.477,5.447-9.566
		c4.827-5.014,9.887-7.978,12.999-9.404c1.553-0.734,2.074-0.729,3.401-0.861c1.331-0.072,3.493-0.389,8.39-0.422
		c4.898,0.044,7.651,1.074,8.859,1.815c1.204,0.776,0.88,1.403-0.472,1.451C67.284,292.31,62.872,293.419,62.904,293.458z"/>
	<path style="fill:#21983A;" d="M291.506,345.721c3.486-1.956,6.327-3.361,8.464-4.329c2.116-0.989,3.634-1.623,4.031-2.493
		c0.398-0.792-0.517-2.049-3.662-2.514c-3.098-0.44-8.288,0.437-14.158,3.993c-5.968,3.618-10.362,7.78-14.122,12.105
		c-3.468,4.239-7.292,8.776-8.742,15.006c-0.718,3.081-0.539,6.475,0.444,9.515c0.965,3.065,2.542,5.832,4.338,8.547
		c1.803,2.722,3.876,5.387,6.066,8.235c2.208,2.856,4.623,5.853,7.376,8.968c5.486,6.237,11.598,11.776,18.143,16.337
		c6.545,4.572,13.492,8.151,20.386,10.95l2.669,0.912c0.831,0.289,1.644,0.605,2.444,0.926c1.602,0.644,3.133,1.375,4.588,2.174
		c2.912,1.604,5.503,3.526,7.82,5.677c4.651,4.266,8.235,9.23,11.439,13.855c3.091,4.545,5.556,7.721,7.338,9.33
		c1.768,1.606,2.957,1.651,3.095-0.264c0.116-1.9-0.926-5.764-4.144-11.244c-1.616-2.734-3.754-5.873-6.7-9.299
		c-2.954-3.42-6.848-7.179-12.151-10.268c-5.669-3.243-10.756-4.634-14.742-5.678c-3.841-1.317-7.341-2.825-10.873-4.671
		c-3.56-1.861-7.271-4.1-11.651-7.302c-4.352-3.229-9.38-7.44-15.07-13.726c-4.517-4.993-8.499-10.438-11.887-15.767
		c-1.644-2.678-3.049-5.405-3.781-8.107c-0.753-2.706-0.701-5.316,0.123-7.774c0.831-2.463,2.338-4.788,4.123-6.936
		c0.873-1.077,1.873-2.095,2.887-3.234c0.954-1.042,1.947-2.053,2.961-3.033C282.616,351.711,286.989,348.282,291.506,345.721z"/>
	<path style="fill:#21983A;" d="M384.588,401.874c-2.704-4.69-5.933-7.663-8.345-9.561c-2.472-1.885-4.359-2.671-5.236-2.322
		c-0.884,0.356-0.74,1.85,0.729,4.63c0.729,1.391,1.796,3.102,3.123,5.167c1.359,2.107,2.778,4.361,4.352,7.466
		c1.655,3.253,3.5,6.477,5.362,9.295c0.936,1.426,1.88,2.794,2.827,4.116c0.93,1.29,1.775,2.482,2.616,3.734
		c3.331,4.956,6.246,9.903,8.735,15.307c2.437,5.403,4.581,11.33,5.127,18.235c0.243,3.431,0.031,7.123-1.141,10.814
		c-1.155,3.683-3.377,7.329-6.767,10.256c-3.429,2.753-7.64,4.801-11.855,6.114c-4.26,1.328-8.676,1.947-13.059,2.229
		c-8.788,0.54-17.478-0.108-25.945,0.475c-2.12,0.139-4.218,0.352-6.292,0.655c-2.063,0.264-4.201,0.775-6.109,1.253
		c-3.912,0.986-7.658,2.07-11.288,3.178c-7.253,2.232-14.003,4.556-20.164,7.16c-3.007,1.283-5.538,2.655-7.545,4.116
		c-1.957,1.466-3.57,2.982-4.197,4.885c-0.264,0.85-0.032,1.63,0.377,2.053c0.373,0.435,0.93,0.646,1.285,0.764
		c0.746,0.211,0.627,0.118,0.718-0.363c0.06-0.266,0.37-0.664,0.863-0.921l1.937-0.884c1.732-0.768,4.218-1.755,7.355-2.977
		l27.153-10.455c3.169-1.19,6.081-2.215,8.609-2.905c2.574-0.641,5.06-1.06,7.394-1.336c4.7-0.554,8.961-0.619,13.622-0.66
		c4.665-0.067,9.771,0.049,16.274-0.694c3.246-0.396,6.855-1.035,10.784-2.366c1.961-0.66,3.993-1.51,6.059-2.581
		c2.074-1.135,4.099-2.266,6.285-4.128c3.204-2.826,5.736-6.378,7.299-10.225c1.584-3.85,2.239-7.906,2.338-11.823
		c0.148-7.878-1.704-15.242-4.127-22.036c-2.479-6.804-5.63-13.105-9.299-18.953c-1.877-2.905-3.584-5.521-5.207-8.288
		C387.591,407.558,386.264,404.87,384.588,401.874z"/>
	<path style="fill:#21983A;" d="M324.409,485.108c-3.204,0.651-6.711,1.62-10.616,2.435c-4.035,0.748-7.859,1.224-11.841,2.121
		c-3.94,0.85-7.834,1.982-11.566,3.412c-0.908,0.345-1.908,0.754-2.711,1.091l-0.109,0.056l-0.303,0.18l-0.602,0.366l-1.176,0.769
		c-1.553,1.063-3.032,2.241-4.465,3.463c-2.859,2.444-5.348,4.711-7.623,6.389c-2.26,1.699-4.278,2.817-5.834,3.471
		c-3.155,1.255-4.264,1.048-3.176,0.618c1.07-0.495,2.475-1.671,4.503-3.73c2.07-2.035,4.556-5.127,8.869-9.191
		c2.18-2.007,4.394-3.852,6.679-5.348l0.856-0.546c0.229-0.173,0.845-0.463,1.046-0.537l1.736-0.755
		c1.141-0.484,2.253-0.928,3.327-1.329c4.296-1.614,7.964-2.635,10.647-3.38c2.694-0.732,3.5-0.741,5.658-0.91
		c1.063-0.099,2.553-0.162,4.56-0.449c2.039-0.294,4.845-0.935,8.809-1.945c7.943-2.097,13.147-2.149,15.439-1.593
		c2.306,0.556,1.848,1.215-0.412,1.523C331.517,481.913,324.412,485.108,324.409,485.108z"/>
	<path style="fill:#21983A;" d="M302.681,480.767c6.077-0.076,8.179-7.063-1.211-7.267c-4.792-0.033-8.436,1.074-12.242,2.549
		c-3.806,1.537-7.81,3.255-13.33,5.744c-5.514,2.502-10.503,6.128-13.837,10.73c-3.384,4.561-5.07,9.691-5.778,14.043
		c-0.645,4.354,1.849,6.255,3.781,5.095c0.997-0.556,1.884-1.819,2.521-3.79c0.662-1.986,0.993-4.639,1.51-8.299
		c0.641-3.942,1.997-5.97,3.785-7.95c1.891-1.93,4.278-3.984,9.471-6.693c4.2-2.125,8.69-3.069,12.953-3.553
		C294.587,480.895,298.71,480.865,302.681,480.767z"/>
	<path style="fill:#21983A;" d="M289.566,474.584c2.056-0.278,2.993-1.915,3.2-3.683c0.292-1.759-1.514-3.795-5.214-3.394
		c-3.708,0.415-6.148,1.926-8.637,3.656c-2.493,1.759-5.017,3.746-8.887,5.794c-7.714,4.058-15.01,8.399-19.34,13.431
		c-2.134,2.495-0.774,4.987,1.335,5.244c1.06,0.165,2.281-0.123,3.503-1.023c1.232-0.908,2.465-2.424,3.894-4.924
		c1.581-2.671,2.943-3.859,4.644-5.035c1.732-1.164,3.813-2.364,7.588-4.646C277.743,476.408,284.189,475.336,289.566,474.584z"/>
	<path style="fill:#21983A;" d="M295.858,465.023c-2.887,0.917-4.126,3.556-3.278,5.13c0.884,1.579,2.799,2.442,6.419,1.528
		c3.774-0.928,6.577-2.345,9.686-3.917c3.113-1.551,6.567-3.215,11.711-4.193c10.299-1.931,20.199-1.956,27.393-2.051
		c3.454-0.033,5.035-2.276,4.032-4.255c-1.053-1.972-5.218-3.479-12.32-1.007c-7.549,2.718-8.816,1.519-19.745,3.919
		C311.057,462.219,303.22,462.719,295.858,465.023z"/>
	<path style="fill:#21983A;" d="M220.144,371.568c0.57-5.288-1.591-10.41-0.479-14.11c1.13-3.63,5.648,0.908,5.707,3.072
		c0.039,2.206,0.257,6.128,0.761,9.089c0.208,1.477,1.285,7.32,4.049,12.441c2.634,5.184,6.637,9.515,7.521,10.445
		c0.451,0.475,1.588,1.792,3.285,3.482c1.686,1.697,3.905,3.792,6.176,5.975c4.595,4.297,9.049,9.272,10.978,11.105
		c2.018,1.789,2.088,3.963,1.387,5.214c-0.697,1.276-2.024,1.76-2.76,1c-0.732-0.776-2.225-2.898-3.908-4.829
		c-1.655-1.943-3.394-3.737-3.845-4.206c-0.44-0.475-2.743-3.579-5.496-6.718c-2.743-3.137-5.729-6.412-7.031-7.383
		c-1.334-0.926-3.468-3.206-5.31-5.788c-1.87-2.567-3.377-5.44-4.201-7.088c-0.834-1.63-2.718-3.833-4.243-6.13
		C221.204,374.863,220.025,372.573,220.144,371.568z"/>
	<path style="fill:#21983A;" d="M258.072,427.608c0.004-1.539,0.792-3.024,1.764-3.799c0.944-0.752,2.303-0.563,2.651,1.859
		c0.68,4.648,0.912,9.443-0.813,11.772c-0.887,1.188-2.468,3.926-4.848,6.769c-2.345,2.87-5.542,5.716-8.514,7.82
		c-1.475,1.065-3.908,2.454-6.834,3.635c-2.926,1.199-6.316,2.199-9.587,2.935c-6.556,1.475-12.58,2.049-13.908,2.5
		c-2.708,0.938-16.654,2.012-19.235,2.299c-1.317,0.134-5.186,0.347-9.366,0.894c-4.19,0.518-8.626,1.544-11.228,2.662
		c-2.634,1.063-5.229,2.457-7.066,4.155c-1.855,1.672-2.94,3.597-3.222,4.901c-0.268,1.285-1.158,1.382-1.972,0.885
		c-0.796-0.486-1.429-1.69-0.926-2.714c0.246-0.5,0.852-1.806,1.979-3.345c1.109-1.547,2.789-3.267,4.796-4.669
		c4.003-2.861,9.003-4.348,10.957-4.839c3.957-1.042,9.795-1.834,12.534-1.551c2.729,0.192,14.369-0.704,18.351-1.653
		c4.017-0.887,13.594-3.179,18.819-4.014c5.362-0.766,10.214-4.229,15.344-7.128c2.672-1.414,6.44-5.477,8.299-9.952
		c0.489-1.106,0.891-2.211,1.218-3.273c0.32-1.067,0.595-2.086,0.697-2.847C258.202,429.309,258.068,428.133,258.072,427.608z"/>
	<path style="fill:#21983A;" d="M211.557,468.458c5.584-0.521,6.964-5.185-1.158-4.66c-4.158,0.248-7.306,1.077-10.686,2.113
		c-3.38,1.053-6.993,2.223-12.115,3.604c-5.123,1.4-10.028,3.088-14.295,5.38c-4.274,2.267-7.848,5.188-10.299,8.26
		c-2.408,3.075-1.704,5.406-0.123,5.068c0.806-0.134,1.845-0.836,3.13-2.144c1.313-1.301,2.859-3.204,5.172-5.748
		c2.532-2.695,4.458-3.808,6.736-4.912c2.32-1.062,5.074-2.144,10.274-3.739C196.568,469.194,204.388,469.123,211.557,468.458z"/>
	<path style="fill:#21983A;" d="M226.739,476.124c-12.249,0.159-29.431,2.035-43.17,5.119c-6.88,1.509-11.57,2.957-14.39,3.832
		c-2.806,0.898-3.806,1.04-2.873,0.484c0.937-0.526,2.109-1.745,4.436-3.26c2.313-1.523,5.802-3.349,11.13-4.755
		c10.658-2.711,19.319-3.942,24.347-4.92c5.038-0.864,2.954,0.033,18.133-0.829c15.15-0.715,18.126,1.29,13.837,1.988
		C233.883,474.459,226.735,476.117,226.739,476.124z"/>
	<path style="fill:#21983A;" d="M248.85,484.798c2.715-0.387,4.165-2.736,3.542-4.413c-0.275-0.85-0.912-1.565-1.796-2.051
		c-0.891-0.489-2.053-0.746-3.729-0.623c-6.88,0.352-10.612,3.963-19.942,4.697c-9.348,0.673-18.2,0.176-24.917,0.884
		c-3.299,0.338-4.31,2.963-3.01,4.695c1.32,1.753,4.633,2.678,10.707,0.312c6.588-2.482,7.704-1.262,17.478-2.442
		C235.041,484.89,241.97,485.74,248.85,484.798z"/>
	<path style="fill:#21983A;" d="M293.844,427.414c-0.444-1.095-1.349-1.841-2.299-2.086c-0.958-0.253-1.901,0.025-2.563,0.604
		c-0.676,0.584-1.141,1.403-1.454,2.218c-0.306,0.826-0.43,1.665-0.144,2.778c0.553,2.285,1.644,4.051,2.817,6.133
		c1.141,2.083,2.338,4.553,2.398,8.156c0.042,3.59-0.609,7.06-1.69,9.968c-1.063,2.914-2.623,5.223-4.042,6.442
		c-0.676,0.584-0.806,1.292-0.768,2.201c0.049,0.88,0.328,1.947,1.158,2.62c0.803,0.687,2.327,0.9,3.996-0.141
		c1.644-1.014,3.155-3.281,3.415-6.287c0.239-3.178,0.38-4.739,0.771-6.667c0.338-1.901,0.852-4.137,0.612-8.177
		c-0.218-3.215-0.296-6.216-0.517-9.146C295.294,433.101,294.967,430.254,293.844,427.414z"/>
	<path style="fill:#21983A;" d="M183.051,191.29c0.398-3.498-1.25-5.934-3.017-6.141c-1.796-0.21-3.612,1.6-4.355,6.306
		c-0.799,4.806-0.697,8.566-0.718,12.746c-0.046,4.158-0.19,8.778-2.215,14.776c-2.038,5.977-4.908,11.431-8.225,15.844
		c-3.299,4.435-7.042,7.757-10.482,9.883c-1.669,1.046-2.68,2.13-3.106,3.225c-0.415,1.074-0.222,2.162,0.778,2.787
		c0.989,0.63,2.862,0.787,5.359-0.331c2.468-1.097,5.51-3.565,7.919-7.721c2.503-4.447,3.75-6.882,5.426-9.748
		c1.588-2.88,3.542-6.232,5.605-12.823C179.182,209.592,181.974,200.328,183.051,191.29z"/>
	<path style="fill:#21983A;" d="M262.729,146.281c-1.746-0.766-3.352-0.514-3.968,0.379c-0.595,0.854-0.134,2.514,2.841,3.899
		c3.046,1.352,5.782,1.482,8.577,1.085c1.405-0.211,2.841-0.56,4.363-1.139c1.517-0.584,3.151-1.393,4.728-2.783
		c1.577-1.393,2.658-3.271,3.183-5.204c0.546-1.94,0.592-3.908,0.426-5.748c-0.373-3.686-1.553-6.887-2.782-9.457
		c-1.253-2.524-3.162-2.792-3.729-1.516c-0.637,1.331,0.155,3.882,2.732,8.207c1.31,2.385,1.574,3.973,1.532,5.73
		c-0.049,0.878-0.173,1.822-0.535,2.901c-0.373,1.072-0.954,2.32-2.208,3.54c-2.06,1.965-5.07,2.451-7.711,2.208
		C267.49,148.145,265.018,147.263,262.729,146.281z"/>
	<path style="fill:#21983A;" d="M421.85,340.416c3.521-2.873,4.348-6.623,3.035-7.857c-0.627-0.649-1.662-0.769-3.028-0.329
		c-1.377,0.451-3.123,1.451-5.503,3.245c-4.88,3.621-8.5,6.957-12.256,10.872l-1.56,1.625l-1.324,1.732
		c-0.863,1.13-1.767,2.294-2.753,3.493c-1.979,2.398-4.278,4.968-7.225,7.683c-1.475,1.355-2.968,2.656-4.489,3.866
		c-0.778,0.579-1.542,1.276-2.176,1.535c-0.905,0.394-1.855,0.914-2.707,1.44c-3.44,2.167-6.264,4.771-8.943,7.232
		c-5.299,4.957-9.946,9.645-14.221,12.64c-2.067,1.458-3.271,2.634-3.926,3.736c-0.63,1.076-0.732,2.197,0.401,2.887
		c1.091,0.681,3.616,0.693,6.633-0.953c3.028-1.614,6.327-4.757,9.57-9.385c3.464-4.936,5.644-7.47,8.559-10.043
		c1.458-1.257,3.091-2.568,5.19-3.734l0.81-0.414c0.282-0.139,0.93-0.37,1.292-0.722c0.803-0.613,1.331-1.039,2.039-1.63
		c1.338-1.125,2.76-2.415,4.306-3.912l7.186-6.899l3.458-3.248l1.697-1.561l1.605-1.148
		C412.428,347.129,417.364,344.115,421.85,340.416z"/>
	<path style="fill:#21983A;" d="M245.005,35.428c-6.436,1.209-3.616-7.966-0.722-9.413
		C247.181,24.566,256.593,33.256,245.005,35.428z"/>
	<path style="fill:#21983A;" d="M189.255,20.947c-5.021,1.005-5.795-5.792-1.451-7.241
		C192.153,12.257,196.494,19.498,189.255,20.947z"/>
	<path style="fill:#21983A;" d="M291.351,70.909c9.415,2.172,18.097,6.517,10.133,8.69c-7.961,2.171-13.031,0.723-14.478-2.173
		c-1.451-2.898-6.517-9.413-2.172-12.309C289.175,62.221,291.351,70.909,291.351,70.909z"/>
	<path style="fill:#21983A;" d="M349.999,115.078c10.137,5.068,20.273,12.309,11.587,12.309c-8.69,0-6.517,10.862-15.207-0.723
		c-8.69-11.586-7.964-3.621-8.69-11.586c-0.722-7.968,0.067-8.415,6.517-7.241C352.171,109.286,349.999,115.078,349.999,115.078z"/>
	<path style="fill:#21983A;" d="M378.962,138.973c9.415,2.896,17.379,6.515,8.686,7.964c-8.686,1.447-10.859,5.068-13.031,0
		c-2.169-5.068-3.62-5.794-2.898-9.415C372.448,133.905,378.962,138.973,378.962,138.973z"/>
	<path style="fill:#21983A;" d="M360.861,149.108c5.725,2.454,6.517,7.964,0.725,8.691c-5.795,0.724-10.137-4.346-9.415-6.517
		C352.896,149.108,355.791,146.937,360.861,149.108z"/>
	<path style="fill:#21983A;" d="M402.858,163.589c-2.894-7.241-6.517-10.137,1.447-7.964c7.964,2.174,6.517,0.724,11.587,5.068
		c5.067,4.347,9.411,4.347,5.789,7.966c-3.62,3.623-9.411,4.345-11.584,3.623C407.928,171.555,402.858,163.589,402.858,163.589z"/>
	<path style="fill:#21983A;" d="M388.377,176.624c-3.183,5.306,10.858,2.898,3.623,8.691c-7.246,5.79-10.866-1.449-10.866-3.621
		c0-2.172-5.067-2.172-1.451-6.517c3.623-4.343-2.169-0.725,3.623-4.343C389.102,167.212,390.549,173.004,388.377,176.624z"/>
	<path style="fill:#21983A;" d="M424.579,212.102c7.827,3.913,13.034,7.966,13.76,2.174c0.722-5.792,1.447-7.964,1.447-11.586
		c0-3.619,2.898-0.724,0-3.619c-2.894-2.896-10.137-6.516-10.137-6.516s-8.69,0-10.862,3.619
		C416.614,199.795,420.234,209.932,424.579,212.102z"/>
	<path style="fill:#21983A;" d="M471.646,220.794c4.345,9.411,1.447,13.76-4.345,13.033c-5.792-0.722-6.517-6.517-7.964-9.413
		c-1.447-2.896,2.172-3.619,0.725-7.241c-1.454-3.62-0.725-8.688,2.169-7.964C465.129,209.932,471.646,220.794,471.646,220.794z"/>
	<path style="fill:#21983A;" d="M434.719,245.413c-1.891,3.776-1.451,14.481,2.894,12.307c4.348-2.171,7.242-6.517,7.242-9.411
		c0-2.896,1.447-7.241-2.172-8.693C439.06,238.169,436.891,241.069,434.719,245.413z"/>
	<path style="fill:#21983A;" d="M451.373,270.03c4.95,6.605,5.788,11.585,7.235,6.517c1.454-5.07,2.176-11.585,2.176-11.585
		S449.197,267.136,451.373,270.03z"/>
	<path style="fill:#21983A;" d="M352.171,325.06c9.228,5.538,12.312,13.032,11.584,5.07c-0.722-7.964-2.894-10.862-3.62-13.034
		c-0.722-2.171-0.722-4.345-3.619-2.896C353.618,315.648,344.932,320.715,352.171,325.06z"/>
	<path style="fill:#21983A;" d="M327.553,335.198c5.067-4.345,10.137-6.517,12.309-4.345c2.172,2.171,2.898,2.894,3.62,5.792
		c0.725,2.896,1.848,6.986-0.722,6.517c-7.964-1.447-4.345,2.172-14.482,0C318.142,340.99,327.553,335.198,327.553,335.198z"/>
	<path style="fill:#21983A;" d="M329.725,214.276c6.517-0.724,13.034,2.896,9.411,6.517c-3.619,3.619-2.894,6.515-11.584,7.243
		c-8.686,0.722-17.376-2.174-13.756-5.796C317.42,218.619,329.725,214.276,329.725,214.276z"/>
	<path style="fill:#21983A;" d="M330.447,249.757c-6.51-0.724-12.306-5.792-3.616-7.241c8.686-1.447,9.411-4.346,13.031-1.447
		C343.482,243.965,330.447,249.757,330.447,249.757z"/>
	<path style="fill:#21983A;" d="M183.46,215c4.345,5.068,6.517,9.413,7.243,2.173c0.722-7.241,7.964-3.62,0.722-7.241
		C184.189,206.312,183.46,215,183.46,215z"/>
	<path style="fill:#21983A;" d="M174.049,225.137c3.387-1.933,13.756,3.621,5.792,6.515
		C171.876,234.553,168.979,228.036,174.049,225.137z"/>
	<path style="fill:#21983A;" d="M148.708,47.014c-7.429,2.97-4.348-2.894,0.722-4.343C154.497,41.224,155.944,44.12,148.708,47.014z
		"/>
	<path style="fill:#21983A;" d="M216.578,70.597c-2.884-1.607-5.384-1.412-5.729-0.69c-0.391,0.803,1.067,1.731,4.711,3.892
		c7.32,4.748,11.492,7.707,20.407,15.237c8.827,7.67,16.883,15.003,22.618,20.751c2.81,2.788,4.834,3.398,4.662,1.959
		c-0.183-1.417-2.651-4.964-9.211-9.753c-7.003-5.093-7.644-6.237-17.048-14.128C229.376,81.732,224.017,74.764,216.578,70.597z"/>
	<path style="fill:#21983A;" d="M177.2,339.348c-1.176-0.511-2.373-1.047-3.556-1.447c-1.151-0.403-2.384-0.627-3.151-0.498
		c-0.634,0.099-1.183,0.537-2.401,1.591c-0.581,0.489-1.387,1.097-2.197,1.493l-0.313,0.183l-0.525,0.292
		c-0.352,0.192-0.715,0.363-1.081,0.521c-3.032,1.229-5.077,0.923-6.2,0.835c-1.172-0.137-1.662-0.391-1.281-0.546
		c0.373-0.148,0.803-0.775,1.683-1.493c0.884-0.739,2.13-1.459,3.764-2.253c0.866-0.394,1.489-0.91,2.352-1.438
		c0.585-0.417,1.127-1,1.743-1.602c0.616-0.6,1.331-1.23,2.172-1.671c0.824-0.444,1.69-0.692,2.391-0.805
		c1.327-0.21,1.68-0.002,2.542,0.338c0.841,0.34,2.176,1.033,4.753,2.033c2.524,0.954,3.711,1.491,4.503,2.063
		c0.754,0.54,0.799,1.22-0.099,1.503C180.566,339.082,177.175,339.363,177.2,339.348z"/>
</g>
</svg>
