<?xml version="1.0" encoding="iso-8859-1"?>
<!-- Generator: Adobe Illustrator 18.1.1, SVG Export Plug-In . SVG Version: 6.00 Build 0)  -->
<svg version="1.1" id="_x34_" xmlns="http://www.w3.org/2000/svg" xmlns:xlink="http://www.w3.org/1999/xlink" x="0px" y="0px"
	 viewBox="0 0 512 512" style="enable-background:new 0 0 512 512;" xml:space="preserve">
<g>
	<g>
		<path style="fill:#21983A;" d="M245.666,57.058c2.006,1.048,4.02,2.155,5.96,3.269c5.419,3.164,21.06,12.208,23.641,14.373
			c3.365,3.099,9.653,5.485,11.221,0.786c1.282-3.806-4.493-6.55-7.72-6.826c-1.061-0.069-5.911-2.019-11.176-4.402l-13.809-6.366
			c-2.988-1.338-5.761-2.687-7.562-3.781c-0.658-0.398-3.165-1.762-6.887-3.623c-3.771-1.836-8.585-4.22-14.385-6.334
			c-5.648-1.761-11.706-4.045-17.697-5.916c-5.978-1.875-11.955-3.255-16.995-3.544c-4.755-0.482-8.617-0.98-11.714-1.113
			c-1.557-0.076-2.933-0.086-4.21,0.023c-0.636,0.051-1.258,0.144-1.888,0.308c-0.624,0.183-1.288,0.372-2.016,1.043l0.281-0.229
			c-2.025,1.198-2.831,3.449-2.668,4.891c0.112,1.49,0.634,2.407,1.182,3.193c1.206,1.608,3.023,1.932,4.135,1.608
			c1.162-0.32,1.742-1.159,1.858-1.911c0.123-0.774-0.172-1.495-0.562-2.031c-0.402-0.544-0.86-0.901-1.378-1.138
			c-0.221-0.105-0.346-0.171-0.448-0.254c-0.09-0.075-0.183-0.3,0.287-0.75l0.41-0.393l-0.786-0.671l0.382,0.464l0.237,0.352
			l0.006,0.001l0.221-0.122c0.227-0.105,0.612-0.202,1.053-0.28c0.893-0.16,2.072-0.236,3.486-0.244
			c2.863-0.028,6.6,0.325,11.866,0.765c4.723,0.173,10.379,1.392,16.235,3.159c5.858,1.76,11.95,4.002,17.757,5.769
			c1.243,0.338,2.645,0.993,3.939,1.501l3.768,1.617c2.413,1.07,4.612,2.108,6.525,3.036
			C242.036,55.154,244.725,56.573,245.666,57.058z"/>
		<path style="fill:#21983A;" d="M200.769,96.578c-3.332-15.688-10.08-31.048-12.725-38.691c-1.296-3.842-3.616-8.351-6.18-11.388
			c-2.555-3.052-5.269-4.595-7.062-2.873c-1.474,1.409-0.589,4.505,0.997,7.816c1.6,3.306,3.914,6.87,5.708,8.98
			c1.804,2.091,5.993,8.684,9.547,16.399c3.625,7.675,6.407,16.491,7.228,21.893c1.809,10.75,1.684,21.832-1.058,30.443
			c-1.306,4.243-1.366,7.893-0.226,9.089c0.572,0.567,1.481,0.44,2.583-0.84c1.078-1.273,2.343-3.76,2.996-7.713
			c0.635-3.943,0.734-7.045,0.746-9.706c0.004-2.662-0.107-4.893-0.26-7.112C202.714,108.447,202.335,104.022,200.769,96.578z"/>
		<path style="fill:#21983A;" d="M169.173,28.449c1.995-2.311,4.993-4.295,8.286-5.679c3.303-1.411,6.921-2.355,10.481-3.027
			c7.135-1.321,14.065-1.64,18.404-1.666c8.57-0.122,14.47-0.627,20.256-0.831c5.841-0.265,15.909-0.875,24.452-1.205
			c8.567-0.343,6.546,1.867,2.257,2.771c-4.281,0.91-12.213,1.761-15.812,1.78c-1.803,0.027-7.368,0.037-12.815,0.304
			c-5.45,0.253-10.806,0.764-12.235,0.901l-9.827,1.257c-4.267,0.556-8.639,1.309-10.72,1.674c-2.085,0.344-4.923,0.524-7.723,1.23
			c-2.78,0.682-5.566,2.003-6.922,4.081c-1.307,2.063-1.671,2.79-2.409,3.025c-0.699,0.25-1.633-0.033-3.051,0.226
			c-1.399,0.263-2.854,0.604-3.691,0.048C167.304,32.859,167.016,31.01,169.173,28.449z"/>
		<path style="fill:#21983A;" d="M292.103,6.684c-0.661-1.294-1.412-2.594-2.464-3.803c-0.529-0.599-1.128-1.184-1.868-1.668
			c-0.367-0.255-0.815-0.491-1.259-0.649c-0.412-0.148-0.818-0.27-1.229-0.353c-3.343-0.639-6.226,0.301-8.681,1.171
			c-4.911,1.907-8.607,4.229-11.22,5.421c-2.596,1.221-5.445,3.288-7.171,5.387c-1.73,2.107-2.39,4.185-0.816,5.752
			c1.309,1.281,3.634,0.555,5.814-0.829c2.192-1.389,4.318-3.408,5.473-4.952c1.16-1.489,5.005-5.388,10.045-7.909
			c1.256-0.602,2.592-1.091,3.92-1.287c1.293-0.2,2.711-0.084,3.645,0.459c2.091,1.293,3.274,3.718,3.962,5.376
			c2.645,6.992,3.645,14.567,5.078,21.026c0.677,3.282,3.028,5.265,4.431,4.963c1.396-0.336,1.888-2.018,0.053-6.742
			c-1.831-4.786-2.792-7.694-3.734-10.569C295.077,14.599,294.443,11.641,292.103,6.684z"/>
		<path style="fill:#21983A;" d="M224.453,4.529c1.023-0.519,2.108-0.754,3.041-0.564c0.933,0.172,1.743,0.753,2.377,1.503
			c1.27,1.521,1.816,3.441,1.901,4.688c0.187,2.487,1.337,5.993,4.627,4.966c2.724-0.847,1.616-5.092-0.036-6.631
			c-0.823-0.723-2.287-3.299-4.972-5.281c-1.327-0.981-3.128-1.558-4.681-1.375c-1.556,0.146-2.764,0.756-3.653,1.165
			c-3.559,1.781-6.18,4.726-8.322,7.185c-2.115,2.606,1.213,6.405,3.188,1.952c1.063-2.203,1.825-3.4,2.7-4.472
			C221.512,6.636,222.508,5.57,224.453,4.529z"/>
		<path style="fill:#21983A;" d="M301.98,40.768c-0.008-0.027,2.947-1.933,3.923-0.87c1.032,1.08,3.172-0.182,2.901,1.311
			c-0.227,1.525,0.873,1.808,1.038,2.583c0.169,0.786,1.109,1.927,2.057,2.473c0.928,0.545,1.965,3.243,3.164,4.003
			c1.186,0.756,0.838,1.923,1.722,2.351c0.884,0.426,2.29,0.389,2.29,0.391c0-0.002,0.48,1.039,0.64,1.74
			c0.08,0.351,0.972,1.329,1.956,2.441c1.087,1.225,1.923,2.348,2.427,2.994c0.903,1.226,3.274,3.801,3.92,4.649
			c0.643,0.848,0.566,2.054,0.91,2.365l1.387,1.245l2.492,3.29c0.647,0.858,0.631,2.592,1.55,3.245
			c0.924,0.651,2.018,2.132,3.757,3.362c1.755,1.23,2.196,3.749,4.669,4.919c2.48,1.223,1.763,5.389,2.893,5.966
			c1.179,0.578,2.106,2.969,1.792,3.848c-0.314,0.878-2.228-0.376-3.056-1.134c-0.84-0.768-3.1-3.153-3.649-3.343
			c-0.521-0.198,0.551-3.07-1.007-3.528c-1.552-0.441-2.891-3.02-3.336-3.644c-0.432-0.626-2.199-3.682-2.942-4.084
			c-0.724-0.422-6.423-6.228-7.914-7.588c-1.49-1.355-5.238-8.123-5.921-9.098c-0.633-0.946-3.085-4.694-4.698-4.851
			c-1.599-0.166-1.816-1.422-3.016-2.187c-1.202-0.762-2.512-2.714-3.026-3.299c-0.542-0.555-3.072-4.15-3.607-4.354
			c-0.565-0.166-2.575-0.463-4.29-1.893C299.284,42.553,301.981,40.733,301.98,40.768z"/>
		<path style="fill:#21983A;" d="M188.218,235.29c-0.912-5.922-1.292-12.007-1.214-17.935c0.053-2.951,0.157-5.931,0.469-8.69
			c0.329-2.794,0.806-5.552,1.366-8.182c2.304-10.533,5.649-19.365,7.91-25.073c2.324-5.673,4.64-13.135,5.262-19.295
			c0.664-6.169-0.378-10.72-2.864-10.288c-2.05,0.337-3.495,4.865-5.056,10.286c-1.51,5.432-3.075,11.902-3.682,16.163
			c-0.296,2.128-1.171,6.161-2.313,11.326c-1.123,5.164-2.514,11.469-3.39,18.152c-0.411,3.327-0.8,6.783-0.8,10.184
			c-0.053,3.376,0.007,6.708,0.169,9.886c0.312,6.355,1.05,12.076,1.71,16.333c1.301,8.521,3.705,16.936,7.283,24.551
			c3.552,7.624,8.312,14.389,13.621,19.782c5.368,5.467,11.222,7.046,12.604,6.127c0.735-0.456,0.435-1.483-1.153-3.137
			c-1.571-1.686-4.45-3.96-8.574-7.631c-4.11-3.703-6.914-7.143-9.134-10.261c-2.211-3.134-3.83-5.978-5.259-8.915
			C192.41,252.767,190.056,246.529,188.218,235.29z"/>
		<path style="fill:#21983A;" d="M364.515,139.973c2.338,5.213,4.035,11.746,6.131,18.07c0.535,1.574,1.103,3.139,1.744,4.64
			c0.563,1.353,1.493,3.163,2.281,4.988c1.605,3.634,2.998,7.445,4.146,11.294c2.314,7.707,3.591,15.502,4.397,22.435
			c0.405,3.473,0.7,6.743,0.936,9.736c0.214,2.958,0.452,5.62,0.585,8.062c0.585,9.624,0.611,18.101-1.014,25.617
			c-0.791,3.749-1.951,7.225-3.401,10.432c-0.361,0.803-0.747,1.585-1.141,2.358l-1.173,2.162c-0.671,1.254-1.284,2.613-1.861,4.005
			c-2.345,5.596-4.585,13.953-7.305,23.139c-1.41,4.608-2.836,9.399-5.121,14.344c-0.297,0.62-0.611,1.247-0.96,1.879l-0.632,1.089
			l-0.342,0.475l-0.191,0.289l-1.864,3.03c-1.366,2.178-2.855,4.447-5.033,6.584c-0.568,0.542-1.112,1.013-1.81,1.517
			c-0.745,0.536-1.534,0.99-2.311,1.325c-1.563,0.68-3.123,0.911-4.507,0.808c-2.803-0.218-4.744-1.591-5.953-2.738
			c-1.151-1.132-1.516-1.89-1.78-2.484c-0.222-0.579-0.204-0.921-0.022-1.066c0.379-0.301,1.351,0.219,2.883,1.012
			c1.561,0.817,3.931,1.857,6.368,1.026c2.435-0.82,4.288-3.132,5.897-5.688c0.809-1.294,1.562-2.686,2.322-4.116
			c0.383-0.718,0.762-1.443,1.189-2.179c0.2-0.367,0.492-0.769,0.62-1.028l0.512-1.034c2.565-5.763,4.121-11.929,5.398-15.636
			l3.405-10.56c1.625-4.831,3.411-10.663,6.278-16.315c3.019-5.162,4.728-10.564,5.429-15.233c0.723-4.634,0.652-8.319,0.645-9.859
			c-0.015-1.544-0.187-4.542-0.643-8.324c-0.429-3.771-1.202-8.364-1.838-13.082c-1.266-9.393-3.16-18.918-4.331-23.382
			c-1.076-4.484-2.336-10.551-4.81-16.438c-0.611-1.5-1.287-2.853-2.055-4.435l-2.088-4.597c-1.344-3.007-2.676-5.856-4.257-8.248
			c-3.141-4.781-4.273-6.942-4.478-8.81c-0.22-1.85,0.582-3.354,0.863-6.104c0.28-2.734,0.721-5.196,2.166-5.736
			C359.14,132.647,361.973,134.288,364.515,139.973z"/>
		<path style="fill:#21983A;" d="M329.109,341.628c6.504-11.933,10.599-25.45,13.367-31.767c1.383-3.164,2.418-7.377,2.297-10.805
			c-0.091-3.433-1.316-5.937-3.779-5.741c-2.029,0.152-3.216,2.583-4.02,5.518c-0.795,2.94-1.215,6.456-1.132,8.801
			c0.107,2.335-0.771,8.858-2.639,15.779c-0.923,3.454-2.069,7.008-3.359,10.137c-1.372,3.099-2.649,5.957-3.893,7.861
			c-2.429,3.897-5.215,7.561-7.943,11.108c-0.451,0.486-0.786,1.303-1.003,1.737l-0.708,1.558c-0.445,1.037-0.868,2.07-1.252,3.087
			l-2.164,5.823c-1.331,3.621-1.077,6.722,0.047,7.881c0.577,0.547,1.454,0.505,2.477-0.556c1.01-1.05,2.085-3.164,2.751-6.33
			c0.668-3.154,1.14-5.523,1.694-7.534c0.276-1,0.55-1.916,0.859-2.768c0.153-0.448,0.121-0.445,0.402-0.875l0.735-1.167
			C323.779,350.257,325.983,347.291,329.109,341.628z"/>
		<path style="fill:#21983A;" d="M271.609,296.215c1.238,2.665,0.748,6.425-0.085,9.16c-0.828,2.769-1.882,4.714-1.875,4.716
			l-1.701,3.646l-1.454,3.222c-0.065,0.041-0.157,0.353-0.26,0.66l-0.289,0.866l-0.539,1.631c-1.383,4.101-1.968,9.277-2.156,12.719
			c-0.116,1.719-0.373,6.903,0.002,12.393c0.316,5.497,1.417,11.231,2.225,14.135c0.39,1.452,0.995,3.513,1.932,5.682l3.296,7.094
			c2.277,4.819,4.449,9.393,5.223,11.203c5.219,12.124,7.181,16.131,7.218,16.115c-0.006,0.004,1.238,2.843,2.576,6.371
			c1.35,3.523,2.738,7.754,3.385,10.342c1.39,5.173,2.003,12.255,2.988,15.707c0.993,3.474-0.264,2.706,0.054,7.978
			c0.243,5.339-1.83,10.455-2.351,6.113c-0.27-2.16-0.34-5.803-0.521-8.918l-0.35-5.703c-0.884-3.669-1.955-7.276-3.192-10.818
			c0,0.033,1.462-4.797-1.268-9.5c-2.613-4.675-6.273-14.416-8.56-18.216c-2.221-3.812-4.859-8.378-7.326-14.01l-3.871-8.873
			c-0.636-1.539-1.369-3.022-1.958-4.728c-0.578-1.672-1.055-3.232-1.462-4.803c-0.823-3.112-1.694-6.908-2.241-10.405
			c-0.571-3.493-0.849-6.673-0.893-8.487c-0.065-1.813-0.074-7.259,0.464-12.641c0.481-5.39,1.482-10.694,1.853-12.451
			c0.202-1.156,0.49-2.358,0.709-3.824c0.236-1.442,0.474-3.021,0.668-4.476c0.4-2.911,0.547-5.287,0.542-5.285
			c-0.001-0.002,0.65,0.005,1.625-0.78c0.945-0.786,2.335-2.37,3.206-5.628c0.75-3.223,1.65-3.504,2.676-2.764
			C270.891,294.387,271.619,296.213,271.609,296.215z"/>
		<path style="fill:#21983A;" d="M315.395,461.521c2.396-5.841,4.09-11.794,5.347-17.772c0.315-1.49,0.588-2.978,0.839-4.456
			l0.351-2.214l0.474-1.939c0.689-2.87,1.23-5.708,1.647-8.47c1.7-11.06,1.162-20.853,0.417-27.206
			c-0.337-3.184-1.134-6.753-2.394-10.172c-0.323-0.85-0.663-1.709-1.02-2.483c-0.309-0.714-0.821-1.813-1.322-2.614
			c-1.011-1.655-2.022-2.896-2.847-3.958c-1.686-2.103-2.611-3.489-3.406-4.809c-0.791-1.274-1.505-2.364-2.784-2.241
			c-0.993,0.083-2.118,1.535-2.206,4.169c-0.151,2.638,1.241,5.929,2.729,8.403c0.73,1.27,1.42,2.419,1.858,3.396l0.844,1.911
			l0.802,1.896c1.055,2.502,1.932,4.923,2.683,6.806c0.754,1.88,1.844,5.664,2.491,10.674c0.643,5.004,0.793,11.224,0.077,17.661
			c-0.176,1.608-0.396,3.231-0.675,4.847l-0.452,2.421l-0.121,0.602c-0.055,0.204-0.109,0.549-0.121,0.75l-0.133,1.223
			c-0.381,3.256-0.932,6.459-1.607,9.484c-0.676,3.027-1.474,5.877-2.344,8.434c-0.426,1.272-0.897,2.493-1.339,3.619
			c-0.418,1.101-0.925,2.038-1.492,2.854c-2.262,3.299-6.018,5.239-9.42,7.961c-1.693,1.347-3.323,2.978-4.567,4.753
			c-1.252,1.608-2.52,3.386-3.634,5.12c-4.507,6.957-7.779,14.309-12.763,18.746c-2.436,2.213-4.761,3.795-6.682,5.08
			c-1.907,1.271-3.32,2.281-3.572,3.114c-0.258,0.797,0.657,1.5,3.287,1.296c1.303-0.122,3.047-0.512,5.109-1.504
			c2.047-0.983,4.396-2.642,6.498-5.098c2.102-2.451,3.512-4.829,4.7-6.964c1.176-2.143,2.116-4.075,2.994-5.842
			c1.741-3.535,3.227-6.431,4.953-9.159c0.431-0.683,0.874-1.351,1.342-2.019c0.543-0.736,0.943-1.418,1.426-2.021
			c0.957-1.244,2.151-2.405,3.607-3.584c1.45-1.191,3.199-2.368,5.118-3.956C311.986,466.694,314.084,464.51,315.395,461.521z"/>
		<path style="fill:#21983A;" d="M262.943,499.842c5.243-4.389,11.185-8.494,14.396-9.745c1.599-0.641,3.404-1.65,4.597-2.673
			c1.188-1.047,1.776-2.015,1.307-3.415c-0.461-1.163-2.324-1.133-3.937-0.451c-1.649,0.665-3.206,1.893-4.019,2.883
			c-0.825,0.989-3.429,3.327-6.225,5.852c-2.805,2.518-5.826,5.209-7.751,6.668c-3.855,2.929-7.635,5.913-10.713,8.859
			c-0.767,0.749-1.233,1.643-1.352,2.483c-0.186,0.887,0.285,1.524,0.835,1.628c0.478,0.156,0.712,0.02,1.143-0.112
			c0.35-0.091,1.033-0.837,1.953-2.08c1.899-2.525,3.211-3.927,4.526-5.251C259.038,503.168,260.449,501.924,262.943,499.842z"/>
		<path style="fill:#21983A;" d="M248.309,495.033c5.57-5.138,12.676-9.133,16.259-10.758c1.817-0.783,3.922-2.098,5.269-3.558
			c1.357-1.456,1.886-3.003,0.765-3.975c-0.917-0.802-2.42-0.315-3.977,0.571c-1.551,0.894-3.18,2.228-4.083,3.287
			c-0.89,1.07-3.889,3.539-7.187,6.209c-3.31,2.658-6.755,5.669-8.788,7.504c-4.139,3.564-7.627,8.197-9.058,12.962
			c-0.756,2.398,0.174,4.354,1.069,4.601c0.975,0.262,1.639-0.848,2.112-4.13c0.608-3.326,1.583-5.187,2.625-6.914
			C244.415,499.116,245.699,497.49,248.309,495.033z"/>
		<path style="fill:#21983A;" d="M280.412,459.768c-2.947,1.672-6.375,3.405-9.589,5.177c-3.113,2.001-6.525,4.362-9.817,6.782
			c-6.637,4.876-13.219,10.276-18.941,15.416c-5.731,5.13-9.506,8.948-11.742,11.243c-2.226,2.3-3.047,2.969-2.433,1.969
			c0.629-0.986,1.257-2.68,2.758-5.273c1.52-2.567,3.939-6.04,8.236-10.15c8.611-8.176,16.055-14.036,20.311-17.606
			c2.143-1.767,2.86-2.13,4.75-3.213l4.106-2.404c2.079-1.211,4.651-2.353,8.195-4.384c7.064-3.942,10.585-6.835,12.296-8.254
			c0.863-0.695,1.337-0.961,1.511-0.729c0.156,0.219-0.009,0.95-0.675,1.976C286.827,454.567,280.385,459.796,280.412,459.768z"/>
		<path style="fill:#21983A;" d="M218.657,298.991c2.458,9.566,5.435,23.928,10.077,37.195c2.322,6.633,5.142,12.952,8.262,18.306
			c3.101,5.367,6.486,9.752,9.307,12.985c0.709,0.809,1.409,1.579,2.138,2.332l2.251,2.338c1.464,1.548,2.851,3.061,4.164,4.546
			c2.628,2.971,4.967,5.832,7.046,8.677c4.09,5.702,7.479,11.284,8.783,18.027c0.612,3.297,0.686,7.852-1.534,12.184
			c-2.171,4.227-5.914,7.747-10.305,10.189c-8.823,4.85-18.93,6.248-27.381,8.442c-8.443,2.118-11.01,3.314-11.484,2.574
			c-0.417-0.665,2.035-3.081,6.268-4.825c4.165-1.805,10.436-3.48,16.382-5.195c5.973-1.678,11.468-3.827,14.529-5.662
			c1.519-0.883,4.768-2.798,7.248-6.522c1.209-1.801,2.034-4.076,2.154-6.581c0.133-2.503-0.405-5.183-1.331-7.743
			c-1.882-5.144-5.121-9.79-7.916-13.362c-2.824-3.578-5.273-6.143-6.292-7.227c-1.024-1.078-3.081-3.124-5.777-5.553
			c-2.805-2.475-6.014-5.743-8.901-9.379c-5.883-7.242-10.188-15.999-11.92-20.258c-1.792-4.267-3.417-10.198-5.064-16.249
			c-1.662-6.05-3.424-12.237-5.979-17.062c-5.097-9.636-3.354-9.996-1.888-15.038C212.911,291.099,216.015,288.634,218.657,298.991z
			"/>
		<path style="fill:#21983A;" d="M253.772,437.835c-6.441,0.433-15.137,3.739-22.113,6.741c-6.983,3.006-10.031,4.051-9.111,3.346
			c0.971-0.6,2.281-3.005,7.629-5.586c5.335-2.522,9.727-4.28,12.304-5.36c1.291-0.535,1.698-0.57,2.782-0.741l6.962-1.171
			c4.155-0.604,6.725-0.128,7.828,0.33c1.113,0.472,0.855,0.899-0.292,0.98C257.424,436.52,253.755,437.817,253.772,437.835z"/>
		<path style="fill:#21983A;" d="M235.339,453.245c7.135-4.478,15.18-8.327,19.319-9.326c2.069-0.514,4.473-1.442,6.156-2.515
			c1.677-1.094,2.651-2.258,2.124-3.901c-0.482-1.359-2.584-1.511-4.63-0.948c-2.071,0.548-4.183,1.744-5.362,2.78
			c-1.187,1.032-4.817,3.364-8.713,5.906c-3.909,2.528-8.088,5.274-10.68,6.754c-5.18,3.011-10.3,6.044-14.2,9.925
			c-0.954,1.005-1.531,2.316-1.403,3.509c0.111,1.174,1.056,1.615,1.568,1.576c0.559-0.018,0.863-0.358,1.197-0.668
			c0.186-0.185,0.302-0.221,0.562-0.611l1.151-1.656c2.209-2.945,4.092-4.504,5.824-5.947
			C230.052,456.691,231.953,455.373,235.339,453.245z"/>
		<path style="fill:#21983A;" d="M263.105,447.772c5.032-2.853,10.735-5.273,13.765-6.133c1.526-0.39,3.268-1.323,4.282-2.556
			c1.023-1.236,1.242-2.671,0.007-3.87c-1.991-1.912-5.162,0.36-6.512,2.08c-1.164,1.83-9.357,7.163-13.057,9.035
			c-3.723,1.836-7.35,4.076-10.076,6.678c-1.394,1.317-1.23,3.192-0.426,3.901c0.844,0.735,2.027,0.547,3.369-1.593
			c1.447-2.151,2.592-3.273,3.768-4.283C259.426,450.03,260.732,449.145,263.105,447.772z"/>
		<path style="fill:#21983A;" d="M368.996,95.71c-5.022-1.751-9.983-3.779-14.839-5.317c-4.589-1.32-8.592-2.676-11.526-3.518
			c-2.845-0.955-7.12-0.844-9.878,0.651c-2.789,1.446-3.897,3.652-2.54,5.685c1.118,1.698,3.247,1.747,5.305,1.592
			c2.056-0.185,4.303-0.56,6.017-1.03c0.835-0.251,2.495-0.409,4.723-0.292c2.193,0.107,5.053,0.463,7.819,0.847
			c5.525,1.072,11.536,3.054,14.973,4.44c1.73,0.708,3.472,1.401,5.225,2.044c1.711,0.605,3.477,1.31,5.268,1.806
			c3.547,1.02,6.943,1.694,9.781,2.684c1.418,0.487,2.686,0.58,3.802,0.452c1.116-0.144,2.072-0.458,2.635-1.046
			c0.547-0.569,0.626-1.39-0.221-2.378c-0.834-0.943-2.665-1.956-5.379-2.31c-5.366-0.64-8.142-0.63-10.913-1.216
			c-1.323-0.262-2.749-0.695-4.396-1.158C373.227,97.163,371.362,96.542,368.996,95.71z"/>
		<path style="fill:#21983A;" d="M400.237,81.454c0.249,3.145-0.27,6.378-1.189,9.143c-0.327,1.076-1.116,2.403-1.722,3.428
			c-0.649,1.053-1.294,1.933-1.897,2.581c-2.419,2.635-4.043,7.16,0.479,9.022c3.791,1.491,6.041-3.342,5.811-6.009
			c-0.051-0.672,0.091-1.863,0.344-3.352l0.449-2.441l0.275-1.479l0.13-1.439c0.381-3.826,0.216-7.928,0.123-10.36
			c-0.06-4.927-1.369-9.739-2.621-13.707c-1.364-4.035-8.412-2.681-4.768,2.398c1.76,2.595,2.605,4.195,3.252,5.847
			C399.506,76.747,399.983,78.468,400.237,81.454z"/>
		<path style="fill:#21983A;" d="M417.536,70.845c1.761,7.696,2.693,14.238,3.512,21.388c0.39,3.573,0.758,7.317,0.938,11.397
			c0.079,2.029,0.121,4.175-0.073,6.261c-0.055,0.546-0.11,0.962-0.221,1.542l-0.343,1.831l-0.648,3.834
			c-0.803,5.273-1.711,9.027-3.345,11.721c-1.605,2.713-3.502,4.561-5.293,6.148c-3.874,3.135-6.413,5.867-12.236,5.832
			c-2.912-0.062-5.069-0.68-6.819-1.162c-1.761-0.516-3.148-1.011-4.707-1.585c-1.566-0.57-3.28-1.267-5.871-2.101
			c-1.257-0.425-2.977-0.841-4.683-1.158c-1.752-0.349-3.769-0.701-6.121-1.051c-9.406-1.292-9.404-1.125-8.738-1.008
			c0.669,0.179,1.991,0.452-4.723,0.179c-13.428-0.393-18.719,1.839-18.724,1.79c4.433,1.361,8.862,2.74,13.231,4.196
			c4.843-0.067,9.681-0.059,14.501,0.119c2.409,0.085,4.813,0.22,7.205,0.412l3.577,0.349c1.176,0.119,2.241,0.302,3.417,0.57
			c0.002,0,1.526,0.451,3.996,1.354c2.486,0.866,5.878,2.305,10.067,3.251c2.091,0.454,4.422,0.732,6.83,0.498
			c2.403-0.222,4.817-1.023,6.825-2.209c0.998-0.571,1.955-1.281,2.719-1.92l2.15-1.755c1.387-1.173,2.605-2.322,3.585-3.365
			c1.95-2.058,4.092-4.763,5.542-7.995c1.459-3.22,2.255-6.555,3.05-9.615l1.153-4.474c0.373-1.294,0.849-3.226,0.986-4.738
			c0.343-3.089,0.301-5.688,0.204-7.771c-0.335-8.384-4.833-23.97-8.232-36.899c-1.699-6.501-3.59-8.726-4.24-7.465
			C415.321,58.516,415.748,63.167,417.536,70.845z"/>
		<path style="fill:#21983A;" d="M360.31,52.737c2.83,0.041,5.684,0.332,8.554,0.679c2.939,0.228,5.062,0.815,6.703,2.198
			c1.619,1.336,2.929,3.379,4.342,5.183c1.399,1.827,2.753,3.392,4.03,4.671c1.239,1.26,3.221,2.598,5.677,3.04
			c2.45,0.468,4.833-0.082,6.403-0.891c3.19-1.686,4.176-4.024,2.758-5.983c-1.171-1.662-3.656-1.39-5.628-1.257
			c-0.993,0.06-1.724,0.076-2.433,0.026c-0.711-0.035-1.567-0.204-2.39-0.376c-0.802-0.135-2.376-0.92-4.224-2.406
			c-0.928-0.737-1.918-1.66-3.058-2.7c-1.135-1.028-2.49-2.188-4.123-3.017c-1.629-0.841-3.432-1.272-5.133-1.428
			c-1.755-0.126-3.196-0.134-4.751-0.244l-7.865-0.374c-2.075-0.095-4.168-0.083-6.251,0.095l-1.558,0.164l-0.388,0.05l-0.097,0.012
			l-0.049,0.008l-0.025,0.003l-0.005,0.001l0.145-0.02l-0.012,0.001l-0.163,0.311c-0.095,0.205,0.016,0.246,0.012,0.359
			l-0.019,0.161l-0.011,0.046l-0.038,0.052l0.038-0.036l0.17-0.072c0.124-0.019,0.491-0.09,0.764-0.029l0.042-0.085l0.211-0.38
			c0.188-0.29,0.438-0.6,0.726-0.884c2.386-2.348,5.9-3.304,8.952-3.275c3.02-0.007,5.696-0.971,6.455-2.418
			c0.352-0.713,0.137-1.516-1.002-2.217c-1.132-0.643-3.276-1.222-6.489-0.629c-3.191,0.631-5.559,1.786-7.394,3.043
			c-1.83,1.3-3.19,2.606-4.264,4.475c-0.255,0.498-0.518,1.007-0.65,1.873c-0.044,0.395-0.126,1.086,0.404,1.954
			c0.293,0.459,0.729,0.772,1.218,0.964c0.234,0.077,0.485,0.124,0.736,0.142l0.327,0.004l0.078-0.01l0.156-0.018l0.252-0.035
			l0.037-0.008l0.073-0.015l0.296-0.061l0.607-0.115l1.286-0.2C355.531,52.834,357.628,52.695,360.31,52.737z"/>
		<path style="fill:#21983A;" d="M373.411,35.313c-1.534-1.786-2.93-3.345-3.378-5.119c-0.251-0.881-0.307-1.818-0.242-2.765
			c0.079-0.961,0.224-1.976,0.444-2.868c0.843-3.695,2.798-6.61,4.193-7.141c0.295-0.018,0.489,0.037,0.624,0.108l0.19,0.13
			l1.216,0.437c0.874,0.292,1.821,0.539,2.716,0.599c1.816,0.139,3.158-0.564,3.385-2.141c0.185-1.275-0.538-2.286-1.678-3.236
			c-0.581-0.474-1.319-0.945-2.197-1.366l-0.677-0.3l-0.356-0.137l-0.561-0.198c-0.789-0.275-1.576-0.456-2.32-0.641
			c-1.539,0.484-2.833,1.271-3.584,2.185c-1.937,2.024-3.764,6.684-4.102,11.924c-0.204,2.521-0.02,5.552,1.346,7.774
			c0.629,1.115,1.399,2.01,2.069,2.803c0.71,0.833,1.202,1.395,1.795,2.215c0.438,0.597,0.838,1.243,1.213,2.037
			c0.369,0.786,0.699,1.899,1.06,3.106c0.926,0.738,1.396,1.645,1.719,2.522c0.091,0.217,0.134,0.447,0.202,0.661l0.322-0.026
			l0.459-0.239c0.601-0.331,1.197-0.667,1.751-1.064c1.115-0.772,1.983-1.894,2.212-2.965c0.229-1.07,0.275-2.011,0.196-3.527
			c-0.056-0.932-0.418-2.067-0.61-2.92l-0.12-0.62l-0.098-0.346l-0.215-0.649c-0.303-0.838-0.658-1.613-1.177-1.989
			c-0.502-0.367-1.205-0.339-1.884,0.619c-0.324,0.444-0.643,1.292-0.737,2.117c-0.066,0.23-0.028,0.466,0.185,0.913
			c0.338,0.707,0.756,1.57,0.677,2.369c-0.076,0.789-0.456,1.389-0.86,1.884c-0.192,0.209-0.472,0.547-0.636,0.591
			c-0.047-0.206-0.105-0.433-0.181-0.679c-0.155-0.493-0.367-1.066-0.705-1.709c-0.177-0.334-0.388-0.686-0.643-1.055l-0.417-0.565
			L373.411,35.313z"/>
		<path style="fill:#21983A;" d="M385.289,35.297c-0.174-0.437-0.329-0.884-0.469-1.332l-0.256-0.881l-0.295-1.106
			c-0.373-1.482-0.675-2.992-0.975-4.483c-0.299-1.491-0.606-2.966-0.944-4.365l-0.467-1.881c-0.089-0.402-0.111-0.597-0.148-0.848
			l0.49-0.384l0.224-0.143l0.113-0.068l0.218-0.184c0.583-0.496,1.133-0.903,1.631-1.224c1.773-1.157,3.685-2.601,5.029-4.057
			c1.32-1.467,2.123-3.074,0.984-4.706c-0.919-1.317-2.977-1.148-5.027-0.038c-2.062,1.084-3.911,3.101-4.684,4.608
			c-0.232,0.445-0.631,1.083-1.134,1.867l-0.392,0.618l-0.627,0.909c-0.451,0.66-0.943,1.344-1.385,2.043
			c0.484,0.99,1.003,2.068,1.397,2.962c0.326,0.701,0.635,1.421,0.93,2.183c0.59,1.515,1.103,3.151,1.586,4.773
			c0.482,1.623,0.954,3.223,1.433,4.664c0.543,1.68,1.121,3.146,1.601,4.359c0.443,1.106,0.933,2.207,1.468,3.335l0.409,0.853
			l0.211,0.43l0.105,0.216l0.067-0.033c0.16-0.182,0.385-0.282,0.758-0.141c0.369-0.825,0.817-1.7,1.259-2.448
			c0.457-0.728,0.834-1.449,1.36-1.725c1.045-0.652,1.889-1.622,2.206-2.806c0.178-0.58,0.271-1.215,0.294-1.849l-0.027-0.972
			c-0.036-0.351-0.04-0.665-0.013-0.742c0.05-0.294,0.123-0.447,0.307-0.849c0.182-0.386,0.402-0.874,0.576-1.347
			c0.999-2.893-0.327-5.023-1.488-5.369c-0.605-0.184-1.213,0.062-1.668,0.807c-0.473,0.741-0.733,2.003-1.021,3.621
			c-0.054,0.274-0.121,0.548-0.216,0.897c-0.091,0.335-0.234,0.859-0.278,1.327c-0.028,0.236-0.033,0.47-0.032,0.699l0.014,0.339
			l0.027,0.162l0.127,0.364c0.174,0.482,0.225,1.018,0.104,1.486c-0.281,0.95-1.242,1.294-1.701,2.258
			c-0.134,0.245-0.243,0.516-0.331,0.805c-0.032,0.273-0.123-0.068-0.192-0.141l-0.223-0.412
			C385.923,36.776,385.604,36.107,385.289,35.297z"/>
		<path style="fill:#21983A;" d="M395.25,31.139c-0.4-1.065-0.512-2.274-0.56-3.363l-0.007-0.844l0.016-1.247
			c0.015-0.422,0.042-0.837,0.083-1.222l0.075-0.541l0.048-0.208l0.022-0.069l-0.047-0.004c-0.231-0.054-0.458-0.117-0.683-0.191
			l0.728,0.239l0.064-0.292c0.506-2.337,1.617-3.937,2.577-4.545c1.12-0.716,2.085-1.26,3.029-2.075
			c0.903-0.818,1.864-1.975,1.475-3.921c-0.302-1.545-2.056-2.272-4.197-1.674c-1.054,0.275-2.12,0.909-2.954,1.671
			c-0.819,0.788-1.403,1.685-1.654,2.452c-0.545,1.277-1.599,4.35-1.589,7.638l0.043-0.203c-0.14,0.909-0.036,1.325-0.01,1.935
			l0.183,1.669c0.137,1.054,0.338,2.583,0.566,3.714c0.46,2.407,1.046,4.167,1.78,5.448c0.17,0.283,0.365,0.563,0.639,0.781
			c0.849,0.863,1.803,1.775,3.069,1.772c0.629-0.042,1.086-0.417,1.404-0.779c0.331-0.371,0.575-0.775,0.809-1.199
			c0.454-0.846,0.844-1.819,1.158-3.029c0.318-1.202,0.536-2.592,0.768-3.955c0.279-1.699,0.097-2.262-0.205-2.997
			c-0.315-0.671-0.743-1.268-1.221-1.681c-0.459-0.426-1.202-0.396-1.838,0.357c-0.306,0.359-0.563,0.858-0.73,1.47
			c-0.081,0.276-0.16,0.736-0.16,0.844l0.062,0.394c0.302,1.254,0.413,2.79,0.228,3.955c-0.103,0.56-0.278,1.25-0.858,1.388
			c-0.567,0.071-1.081-0.38-1.597-0.909h-0.001C395.528,31.745,395.375,31.453,395.25,31.139z"/>
		<path style="fill:#21983A;" d="M414.955,34.643c-1.196-6.428-3.288-12.936-3.654-16.491c-0.153-1.781-0.983-3.803-2.326-4.95
			c-1.346-1.156-3.12-1.378-5.057,0.134c-3.121,2.478-1.008,6.102,0.954,7.513c1.005,0.668,2.933,3.149,4.478,6.195
			c1.573,3.025,2.721,6.572,2.905,8.761c0.402,4.376,0.292,8.752-0.332,12.325c-0.297,1.756,1.102,3.286,2.594,3.754
			c1.454,0.472,3.16-0.467,2.738-3.789c-0.468-3.257-0.927-5.028-1.212-6.827C415.724,39.484,415.543,37.691,414.955,34.643z"/>
		<path style="fill:#21983A;" d="M183.843,123.955c-2.494,1.086-5.155,2.642-7.962,4.397l-4.376,2.729
			c-0.402,0.221-0.679,0.457-1.369,0.767l-1.21,0.553l-2.449,1.098c-6.568,2.911-13.443,5.738-19.893,7.828
			c-12.94,4.233-18.855,3.251-16.796,2.898c2.012-0.442,5.471-2.914,14.888-6.247c9.443-3.377,16.702-6.886,20.826-9.104
			c1.031-0.56,1.706-0.883,2.343-1.142l0.474-0.185c0.083-0.027,0.033,0.013,0.252-0.097l1.067-0.506
			c1.675-0.743,4.18-2.312,10.508-5.836c3.203-1.716,6.066-2.688,8.376-3.047c2.313-0.369,4.018-0.149,5.023,0.173
			c2.004,0.734,1.449,1.279-0.442,1.412c-1.942,0.184-4.363,1.172-6.161,2.239C185.126,122.939,183.849,123.963,183.843,123.955z"/>
		<path style="fill:#21983A;" d="M123.239,100.861c0.006,2.762,0.147,5.573,0.496,8.316c0.175,1.381,0.381,2.702,0.666,4.066
			c0.29,1.272,0.407,2.213,0.453,3.388c0.113,4.528-0.518,8.76-0.967,11.591c-0.501,2.792-0.432,6.731,1.496,9.846
			c0.945,1.526,2.388,2.646,3.646,2.831c1.274,0.208,2.161-0.409,2.715-1.497c0.47-0.908,0.565-1.758,0.662-2.49
			c0.085-0.739,0.07-1.436-0.06-2.33c-0.268-1.744-0.785-4.376-1.479-6.125c-0.354-0.868-0.729-2.608-1.06-4.913
			c-0.348-2.302-0.604-5.16-1.236-8.211c-0.171-0.758-0.359-1.553-0.625-2.303c-0.237-0.728-0.441-1.349-0.629-2.06
			c-0.376-1.384-0.662-2.78-0.866-4.126c-0.397-2.7-0.464-5.195-0.334-7.044c0.519-7.419,2.227-14.683,3.988-20.806
			c0.885-3.055-0.109-5.771-1.521-6.478c-1.395-0.702-3.268,0.648-3.795,5.862c-0.494,5.209-0.659,8.229-0.91,11.235
			C123.663,92.619,123.277,95.613,123.239,100.861z"/>
		<path style="fill:#21983A;" d="M98.488,88.851c1.757-2.466-0.492-5.165,0.751-7.035c1.257-1.896,6.232,0.482,6.227,1.709
			l-0.107,5.084c-0.03,0.848-0.142,4.18-0.404,7.487c-0.244,3.307-0.652,6.58-0.756,7.306c-0.098,0.728-0.835,3.895-1.661,7.186
			c-0.81,3.295-1.728,6.706-1.532,8.178c0.456,2.854-5.182,2.229-5.462,0.905c-0.199-1.452,1.025-5.794,1.16-6.506
			c0.079-0.336,1.157-2.16,2.104-4.194c0.936-2.029,1.759-4.254,1.553-5.121c-0.352-1.715,0.766-6.342,0.882-8.249
			C101.395,93.678,97.846,89.743,98.488,88.851z"/>
		<path style="fill:#21983A;" d="M92.993,124.641c0.512-2.241,5.642-2.114,5.078,0.168c-0.542,2.324,1.571,4.615,0.737,5.853
			c-0.868,1.247-1.498,5.898-0.963,9.357c0.238,1.725,0.216,5.245,0.561,8.465c0.308,3.225,0.982,6.104,1.448,6.663
			c0.453,0.571,1.119,2.473,1.895,4.28c0.763,1.817,1.656,3.512,1.965,4.046c0.298,0.538,1.063,2.179,2.204,3.789
			c1.118,1.63,2.657,3.162,3.811,3.935c2.21,1.614,5.174,3.184,6.717,2.816c1.471-0.374,0.272,3.858-0.969,3.615
			c-0.581-0.11-3.025-0.511-5.429-1.556c-2.424-0.994-4.673-2.658-5.464-3.424c-1.657-1.464-3.609-4.042-3.821-5.604
			c-0.127-0.773-0.959-2.464-1.758-4.272c-0.815-1.798-1.618-3.708-2.218-4.654c-1.282-1.814-3.557-6.963-3.111-9.985
			c0.365-2.92-1.563-6.08-0.757-9.527c0.394-1.695,0.188-4.766,0.084-7.657C92.875,128.065,92.834,125.373,92.993,124.641z"/>
		<path style="fill:#21983A;" d="M124.382,176.18c4.176,0.389,7.297,0.082,10.718-0.243l2.561-0.314l1.266-0.16l0.582-0.061
			c0.186-0.035,0.617,0.012,1.002-0.109c2.082-0.481,4.007-1.005,6.391-1.736c9.379-2.856,10.778-2.02,16.767-3.004
			c5.994-0.89,4.821-0.794,13.325-0.757c8.458,0.223,0.003-0.04,5.976-0.541c5.935-0.414,8.293-2.346,8.311-2.376
			c-2.009-1.362-4.113-2.659-6.266-3.905c-4.549,0.598-9.023,1.404-13.46,2.315c-0.001-0.066-12.347,0.704-17.184,1.654
			c-2.424,0.435-5.492,0.751-8.407,1.066l-4.158,0.474l-1.804,0.252c-0.217,0.03-0.703,0.12-0.603,0.091
			c-0.062,0-0.043-0.018-0.425,0.015c-2.287,0.191-4.733,1.206-7.629,2.055c-1.424,0.427-2.922,0.815-4.4,1.011
			c-1.458,0.193-2.961,0.179-4.009-0.235c-0.935-0.369-1.41-0.685-1.93-0.98c-0.473-0.27-0.976-0.404-1.418-0.019
			c-0.416,0.354-0.837,1.41-0.091,2.795c0.353,0.659,1.109,1.379,1.969,1.835C122.33,175.769,123.324,176.051,124.382,176.18z"/>
		<path style="fill:#21983A;" d="M140.573,67.129c-1.526,0.644-3.032,1.341-4.489,2.026c-1.55,0.711-2.817,1.431-4.061,1.838
			c-2.502,0.889-4.797,1.041-6.296,0.702c-1.501-0.329-3.219-0.347-4.613,0.283c-1.381,0.63-2.464,1.947-2.315,4.411
			c0.123,2.005,1.471,3.042,3.16,3.309c1.682,0.277,3.652-0.263,4.751-1.102c1.107-0.81,4.389-2.257,7.432-4.357
			c0.773-0.515,1.518-1.071,2.219-1.588c0.671-0.468,1.418-0.944,2.113-1.353c1.404-0.829,2.741-1.449,3.79-1.764
			c4.201-1.316,8.466-1.673,12.143-1.441c1.819,0.101,3.202-1.522,3.416-3.064c0.212-1.519-0.863-3.024-4.059-2.234
			c-3.172,0.832-4.951,1.483-6.727,2.041C145.277,65.419,143.482,65.915,140.573,67.129z"/>
		<path style="fill:#21983A;" d="M149.644,54.716c-4.133-0.197-8.436-0.091-11.684-0.742c-0.389-0.084-0.752-0.185-1.051-0.297
			l-0.376-0.17l-0.67-0.295c-0.918-0.381-1.782-0.676-2.603-0.928c-1.638-0.506-3.103-0.842-4.317-1.141
			c-1.214-0.291-2.668-0.384-4.189-0.086c-1.51,0.298-3.127,1.033-4.282,2.257c-1.174,1.193-1.664,2.794-1.373,3.861
			c0.27,1.101,1.145,1.656,2.34,1.907c0.99,0.213,1.808,0.152,2.421,0.222c0.619,0.055,0.982,0.175,1.4,0.127
			c0.772-0.103,2.267-0.687,3.425-1.314c0.559-0.325,1.742-0.667,3.326-0.74c0.785-0.035,1.67-0.01,2.552,0.123
			c0.338,0.041,1.186,0.267,1.773,0.296c0.63,0.059,1.233,0.071,1.827,0.067c4.67-0.146,9.334-0.67,12.157-0.239
			c2.434,0.324,4.898,0.779,6.829,1.706c2.019,0.938,2.653,2.281,2.351,3.717l2.047-1.936c-0.704-0.041-1.384-0.049-2.015-0.032
			c-2.596,0.125-3.911,1.866-4.288,3.382c-0.139,0.767,0.145,1.517,1.093,1.946c0.932,0.437,2.444,0.407,4.081-0.061
			c0.418-0.117,0.78-0.198,1.129-0.276l2.977-0.669l-0.072-2.08c-0.087-2.502-1.291-4.491-2.643-5.555
			c-1.388-1.113-2.587-1.5-3.765-1.877C155.695,55.232,153.37,54.897,149.644,54.716z"/>
		<path style="fill:#21983A;" d="M84.173,51.626c0.735,1.989,1.769,3.691,2.676,5.367c1.023,1.726,2.007,3.237,2.821,4.712
			c1.673,2.91,2.293,5.52,2.063,7.151l-0.07,0.62l-0.012,0.158c0,0.078-0.021,0.02,0.009,0.315c0.03,0.32-0.006,0.229-0.001,0.364
			l-0.074,1.166c-0.042,0.901-0.06,2.107,0.257,3.31c0.305,1.202,0.993,2.255,1.776,2.663c0.786,0.428,1.555,0.287,2.291-0.268
			c0.613-0.458,0.931-1.031,1.181-1.545c0.247-0.526,0.418-1.016,0.525-1.711c0.103-0.693,0.186-1.637,0.095-2.756
			c-0.044-0.545-0.147-1.134-0.306-1.68l-0.132-0.405l-0.026,0.07l-0.057-0.153c-0.078-0.216-0.158-0.418-0.243-0.605
			c-0.341-0.739-0.863-2.169-1.756-3.767c-0.868-1.614-2.118-3.334-3.427-5.001c-1.309-1.691-2.668-3.287-3.677-4.981
			c-1.063-1.648-1.851-3.215-2.121-4.447c-0.293-1.222-0.317-2.448,0.025-3.516c0.172-0.533,0.429-1.027,0.756-1.478
			c0.158-0.227,0.337-0.444,0.532-0.646c0.149-0.172,0.308-0.269,0.536-0.414c1.998-1.172,4.399-2.054,6.482-2.796
			c2.122-0.739,3.201-2.384,3.202-3.557c0.018-1.194-1.883-1.873-5.124,0.034c-1.632,0.957-2.888,1.752-3.983,2.477
			c-1.112,0.793-1.972,1.225-3.079,2.441c-0.791,1.03-1.418,2.174-1.721,3.7C83.29,47.962,83.478,49.751,84.173,51.626z"/>
		<path style="fill:#21983A;" d="M109.157,53.738c-1.479-3.824-2.824-7.841-2.419-9.882c0.17-1.004,0.099-2.074-0.313-2.446
			c-0.223-0.139-0.568-0.286-1.002-0.599c-0.448-0.293-0.937-0.694-1.806-1.044c-0.701-0.281-1.434-0.289-1.998,0.122
			c-0.567,0.384-0.91,1.231-0.996,1.986c-0.178,1.46,0.397,2.645,1.047,3.263c1.233,1.345,4.924,7,5.607,9.723
			c0.127,0.513,0.196,0.875,0.246,1.232c0.024,0.349,0.143,0.718,0.008,1l-0.787,0.576l-0.37,0.264l-0.511,0.405l-1.955,1.532
			c-1.927,1.494,0.912,6.045,2.969,2.683c0.631-1.031,1.109-1.787,1.549-2.417c0.592-0.785,1.239-1.538,1.881-2.238
			c-0.03-0.587-0.236-1.246-0.411-1.97c-0.104-0.369-0.227-0.754-0.366-1.163L109.157,53.738z"/>
		<path style="fill:#21983A;" d="M121.148,47.707c-0.833-3.808-2.157-7.517-3.737-10.673c-0.78-1.574-1.594-3.002-2.339-4.253
			l-1.054-1.737l-0.478-0.797l-0.758-1.057c-0.646-0.936-1.471-1.943-2.349-2.961c-1.387,0.597-2.89,1.306-4.225,2.097
			c-0.369,0.214-0.543,0.349-0.714,0.476l-0.52,0.428c-0.332,0.296-0.627,0.611-0.87,0.948c-1.006,1.354-1.004,2.773,0.208,3.707
			c0.99,0.777,2.043,0.744,3.178,0.457c0.296-0.073,0.579-0.175,0.882-0.293l0.437-0.179l0.098-0.018l0.278-0.286l0.39-0.16
			l0.223-0.017c0.111,0.034,0.139-0.033,0.399,0.183c0.457,0.345,0.983,0.783,1.54,1.31c1.114,1.05,2.355,2.455,3.45,4.077
			c2.213,3.205,3.71,7.412,3.968,9.847c0.08,1.623-0.291,3.267-0.788,4.883l-0.773,2.46c-0.232,0.75-0.357,1.095-0.484,1.601
			c-0.465,0.1-0.975,0.105-1.4,0.147l-2.109,0.236c-4.473,0.517-5.622,6.053,1.077,3.864c1.24-0.449,3.719-1.055,5.195-1.523
			l0.209-2.097l0.244-1.628c0.126-0.764,0.285-1.511,0.455-2.331C121.057,52.791,121.705,50.81,121.148,47.707z"/>
		<path style="fill:#21983A;" d="M131.139,40.274c-0.111-0.708-0.218-1.192-0.51-2.028c-0.362-0.712-0.605-1.15-0.932-1.692
			l-1.772-2.895c-0.536-0.912-0.988-1.788-1.288-2.608c-0.381-0.856-0.677-2.733-0.819-4.18l-0.385-0.206l-0.538-0.05l-1.024-0.086
			c-0.66-0.067-1.314-0.095-1.924-0.09c-0.585-0.015-1.465,0.076-1.992,0.131c-0.444,0.034-0.892,0.095-1.33,0.191
			c-0.879,0.193-1.721,0.514-2.419,0.973c-0.706,0.464-1.254,1.047-1.583,1.826c-0.153,0.386-0.171,0.774-0.025,1.163
			c0.162,0.393,0.507,0.761,0.73,1.077c0.378,0.488,0.9,0.844,1.299,1.122c0.484,0.236,1.113,0.282,1.775,0.213
			c0.665-0.069,1.363-0.257,2.002-0.505c0.32-0.125,0.626-0.265,0.903-0.414c0.265-0.145,0.154-0.223,0.271-0.367
			c0.069-0.138,0.202-0.294,0.43-0.464l0.414-0.256l0.41-0.035l0.425,0.572l0.323,0.457l0.527,0.798
			c0.731,1.052,1.549,2.045,2.32,2.998c0.77,0.954,1.496,1.885,2.026,2.781c0.488,0.75,0.599,1.751,0.62,2.439
			c0.012,1.947-0.802,3.726-1.923,5.247c-1.12,1.531-2.484,2.863-3.769,4.135c-1.306,1.274-1.242,3.166-0.429,4.007
			c0.823,0.826,2.151,0.816,3.661-1.64c1.538-2.499,2.457-4.077,3.24-5.727c0.389-0.832,0.761-1.694,1.048-2.79
			C131.188,43.285,131.378,41.925,131.139,40.274z"/>
		<path style="fill:#21983A;" d="M294.636,82.541c-1.346,2.409-3.847,4.081-6.224,4.355c-2.385,0.322-4.435-0.461-5.557-1.196
			c-2.285-1.361-5.545-3.754-6.923-1.724c-0.537,0.847,0.111,2.055,1.308,3.053c1.187,1.003,2.926,1.721,4.115,1.833
			c1.142,0.114,4.522,0.935,7.934-0.192c1.682-0.526,3.232-1.521,4.385-2.651c1.17-1.126,1.958-2.36,2.499-3.3
			c2.236-3.774,2.217-8.726,0.359-12.215c-0.928-1.803-2.653-2.224-3.266-1.767c-0.685,0.505-0.374,1.416,1.084,3.319
			c1.391,2.043,1.662,3.637,1.725,5.113C296.071,78.653,295.901,80.257,294.636,82.541z"/>
		<path style="fill:#21983A;" d="M254.611,47.139c-6.246-3.023-12.944-5.888-16.063-7.524c-3.094-1.702-8.234-3.057-8.424-1.044
			c-0.153,1.598,4.733,3.145,7.146,3.543c1.211,0.172,4.53,1.105,8.062,2.376c3.535,1.257,7.269,2.854,9.404,3.982
			c4.273,2.254,8.472,4.658,11.873,6.95c1.699,1.134,3.288,1.497,3.844,1.142c0.553-0.333-0.035-1.593-3.02-3.137L254.611,47.139z"
			/>
		<path style="fill:#21983A;" d="M278.735,15.123c-3.167-0.528-4.223-7.391,1.056-6.334
			C285.069,9.845,285.069,16.179,278.735,15.123z"/>
		<path style="fill:#21983A;" d="M221.723,11.428c-2.986-0.746,0-5.279,2.112-4.751C225.947,7.206,223.835,11.957,221.723,11.428z"
			/>
	</g>
	<path style="fill:#21983A;" d="M346.833,156.07c5.767,8.646,8.447,15.483,1.408,14.077c-7.038-1.407-9.854-2.815-9.15-7.742
		C339.796,157.477,345.425,153.958,346.833,156.07z"/>
	<path style="fill:#21983A;" d="M355.279,194.078c2.816,5.63,7.039,10.558,0.704,8.446c-6.334-2.112-7.038-5.63-5.63-7.742
		C351.76,192.671,355.279,194.078,355.279,194.078z"/>
	<path style="fill:#21983A;" d="M343.314,213.082c-1.408,7.039,0.704,13.373,4.224,7.742c3.519-5.63,7.741-6.333,4.223-9.149
		C348.241,208.859,343.314,213.082,343.314,213.082z"/>
	<path style="fill:#21983A;" d="M367.949,220.824c3.339,3.339,3.521,10.558-1.408,12.67c-4.927,2.111-4.222-2.815-5.63-5.631
		C359.503,225.047,366.541,219.416,367.949,220.824z"/>
	<path style="fill:#21983A;" d="M341.906,249.683c-1.3,5.199-0.001,15.483,4.927,9.853c4.927-5.63,7.743-7.038,7.743-11.262
		C354.576,244.051,343.315,244.053,341.906,249.683z"/>
	<path style="fill:#21983A;" d="M341.202,96.947c0.704,7.039-4.223,21.115,2.112,16.188c6.335-4.927,7.742-7.743,7.742-10.558
		c0-2.815-0.703-8.446-0.703-8.446L341.202,96.947z"/>
	<path style="fill:#21983A;" d="M369.05,98.77c1.715,2.399,4.53,5.919-0.397,10.846c-4.927,4.927-10.559,5.631-9.15,2.816
		c1.409-2.816,4.223-11.966,2.816-14.781C360.911,94.835,369.05,98.77,369.05,98.77z"/>
	<path style="fill:#21983A;" d="M186.94,121.887c-1.288,2.51,1.525,12.364-2.697,13.068c-4.223,0.704-8.362-6.602-8.362-6.602
		L186.94,121.887z"/>
	<path style="fill:#21983A;" d="M168.926,132.401c0.537,2.554,5.463,8.89,0.537,9.593c-4.926,0.703-7.038-3.52-7.038-3.52
		l-5.632-3.519L168.926,132.401z"/>
	<path style="fill:#21983A;" d="M290.525,308.807c0.84,4.198,15.485,5.63,15.485,5.63c-3.52,4.223-8.446,5.63-8.446,5.63h-6.334
		c0,0,4.222,0.704-3.521,0.704c-7.742,0-3.518,0.001-9.149-3.519c-5.632-3.52-7.04-2.816,0.703-9.151
		C287.006,301.768,289.821,305.287,290.525,308.807z"/>
	<path style="fill:#21983A;" d="M288.414,329.922c-4.224,0-9.854-1.408-11.966,2.815c-2.111,4.223,0.703,6.335,3.519,7.039
		c2.815,0.704-2.814,1.409,2.815,0.704c5.631-0.704,5.631-4.927,10.558-2.816c4.926,2.112,5.631-1.407,5.631-4.223
		C298.972,330.625,288.414,329.922,288.414,329.922z"/>
	<path style="fill:#21983A;" d="M222.955,308.807c7.83-0.784,16.19-7.038,15.485-2.112c-0.704,4.926-7.038,8.446-7.038,8.446
		s-2.111,6.333-5.631,4.926C222.251,318.66,215.916,309.511,222.955,308.807z"/>
	<path style="fill:#21983A;" d="M227.179,328.514c4.223-0.703,10.558-2.112,10.558,0c0,2.112-0.705,6.334-4.223,10.558
		c-3.519,4.223,2.113,9.149-3.519,4.223C224.363,338.369,227.179,328.514,227.179,328.514z"/>
	<path style="fill:#21983A;" d="M229.641,27.265c-4.744-0.593-5.278-3.167-2.639-3.167c2.639,0,2.639-0.528,5.279-0.528
		c2.64,0,5.279-0.527,5.279-0.527S233.864,27.793,229.641,27.265z"/>
	<path style="fill:#21983A;" d="M195.153,30.784c-1.794,0-2.797-3.591-0.705-3.87C199.729,26.21,200.081,30.784,195.153,30.784z"/>
</g>
</svg>
