<?xml version="1.0" encoding="iso-8859-1"?>
<!-- Generator: Adobe Illustrator 18.1.1, SVG Export Plug-In . SVG Version: 6.00 Build 0)  -->
<svg version="1.1" id="_x32_" xmlns="http://www.w3.org/2000/svg" xmlns:xlink="http://www.w3.org/1999/xlink" x="0px" y="0px"
	 viewBox="0 0 512 512" style="enable-background:new 0 0 512 512;" xml:space="preserve">
<g>
	<g>
		<path style="fill:#21983A;" d="M211.996,57.483c-1.016,1.312-2.087,2.607-3.177,3.823c-1.531,1.71-4.52,4.982-7.544,7.747
			c-3.009,2.795-6.059,4.979-7.28,5.213c-3.33,0.825-5.972,3.125-2.613,8.816c1.432,2.31,3.485,2.739,5.207,2.103
			c1.73-0.62,3.022-2.201,3.377-3.616c0.265-0.925,2.888-4.117,5.441-7.683c2.584-3.555,5.198-7.477,6.4-9.459
			c1.265-2.088,2.556-3.966,3.654-5.078c1.044-0.595,4.48-7.529,12.053-10.753c1.815-0.757,3.928-1.216,5.457-0.79
			c1.696,0.401,2.801,1.878,3.156,3.599c0.156,0.787,0.412,2.36,0.798,3.43c0.375,1.159,0.824,2.235,1.293,3.254
			c0.946,2.03,1.984,3.83,2.964,5.417c3.929,6.193,6.614,9.34,8.164,11.41c1.593,2.033,2.184,2.862,2.777,3.669
			c1.219,1.643,3.897,1.042,5.382-0.42c1.485-1.485,2.113-3.426-0.458-4.853c-1.25-0.717-2.204-1.245-3.916-2.823
			c-1.673-1.598-4.279-4.202-7.944-9.563c-0.959-1.433-1.952-3.054-2.82-4.802c-0.43-0.873-0.83-1.777-1.147-2.686
			c-0.155-0.453-0.289-0.904-0.398-1.352l-0.365-1.72c-0.622-2.911-2.964-6.013-6.18-6.714c-3.36-0.802-6.106,0.102-8.399,1.037
			c-4.608,2.043-7.891,5.125-10.094,7.839L211.996,57.483z"/>
		<path style="fill:#21983A;" d="M280.056,46.811c-1.067,0.878-1.932,1.79-2.753,2.672c-1.181,1.226-3.056,3.71-4.78,5.802
			c-1.735,2.126-3.461,3.623-4.303,3.617c-2.483,0.284-2.167,0.546-0.005,6.905c1.007,2.521,2.949,3.249,4.536,2.688
			c1.587-0.531,2.47-2.018,2.425-3.229c0.051-0.819,1.37-3.484,2.398-6.159c1.064-2.695,2.225-5.392,2.863-6.678
			c0.618-1.353,1.577-2.5,2.314-2.803c0.277-0.075,1.165-0.815,2.704-0.928c0.757-0.064,1.661,0.146,2.43,0.717
			c0.792,0.574,1.383,1.274,2.159,2.428c2.864,4.503,5.11,11.011,7.215,15.343c2,4.329,3.518,6.757,4.495,8.272l1.817,2.738
			c0.893,1.259,3.189,0.175,4.462-1.463c1.281-1.667,2.073-3.391,0.455-3.809c-0.812-0.259-1.46-0.47-2.496-1.41
			c-1.028-0.96-2.465-2.684-4.471-6.456c-1.077-2.011-2.257-4.558-3.529-7.286c-1.288-2.726-2.614-5.64-4.449-8.32
			c-0.837-1.239-2.249-2.901-3.763-3.795c-1.509-0.956-3.201-1.247-4.614-1.083C282.273,44.888,280.65,46.381,280.056,46.811z"/>
		<path style="fill:#21983A;" d="M291.613,110.19c2.233-0.048,4.501-0.023,6.717,0.056l14.865,0.626
			c5.718,0.266,14.28-1.334,16.046-1.334c7.143,0,8.379,1.461,6.423-4.97c-1.538-5.184-7.338-4.246-10.089-2.38
			c-0.875,0.655-5.854,1.699-11.519,2.348c-5.651,0.672-11.92,1.093-14.994,1.421c-3.239,0.333-6.3,0.504-8.396,0.368
			c-0.766-0.044-3.606-0.062-7.758,0.163c-2.078,0.123-4.47,0.311-7.113,0.645l-8.294,1.082c-5.846,0.702-12.259,1.347-18.422,2.289
			c-3.08,0.468-6.097,1.016-8.939,1.645l-4.062,0.975c-1.317,0.276-2.681,0.673-3.872,1.061c-4.725,1.603-8.148,3.215-10.909,4.358
			c-2.746,1.17-4.764,1.973-6.317,2.517c-3.102,1.08-4.31,1.239-5.46,1.424c-2.224,0.35-3.504,2.572-3.936,4.657
			c-0.152,1.037,0.15,2.058,1.261,2.63c1.088,0.57,2.919,0.577,5.039-0.46l3.534-4.056l6.191-3.334
			c2.496-1.213,4.758-1.694,8.8-3.176c1.103-0.39,2.148-0.728,3.425-1.027c1.281-0.337,2.638-0.728,3.967-1.036
			c2.694-0.65,8.929-1.276,11.916-1.775c5.977-1,12.341-1.71,18.275-2.482l8.43-1.188c2.519-0.346,4.907-0.56,6.983-0.705
			C287.567,110.256,290.567,110.212,291.613,110.19z"/>
		<path style="fill:#21983A;" d="M284.259,67.036c-1.722-0.487-3.484-0.892-5.207-1.237c-2.415-0.534-7.137-1.08-11.466-1.339
			c-4.401-0.276-8.127-0.616-9.59-1.086c-1.892-0.585-3.709-0.652-4.622-0.175c-0.52,0.236-0.761,0.703-1.299,1.306
			c-0.522,0.608-1.283,1.338-1.918,2.512c-0.513,0.949-0.533,1.943,0.07,2.82c0.656,0.892,1.708,1.485,2.762,1.761
			c2.137,0.54,3.998,0.014,4.978-0.676c0.16-0.115,0.506-0.244,0.95-0.359c0.547-0.115,1.253-0.231,2.066-0.351
			c1.628-0.236,3.689-0.492,5.83-0.704c4.283-0.467,8.892-0.532,11.164-0.403c2.392,0.078,4.632,0.51,6.055,1.097
			c0.523,0.222,2.496,0.83,5.255,2.124l10.612,4.765c4.042,1.867,8.395,3.966,12.511,6.093l3.038,1.591l1.471,0.787
			c0.26,0.145,0.478,0.244,0.614,0.345l0.654,0.44l4.956,3.396c2.896,2.058,5.257,3.804,6.655,5.165
			c1.416,1.444,2.038,2.694,2.452,3.738c0.779,2.129,0.924,3.247,1.208,4.22c0.558,2.106,2.981,2.726,4.483,2
			c0.77-0.335,1.356-0.919,1.557-1.627c0.198-0.726,0.042-1.516-0.762-2.718c-0.825-1.178-1.27-2.21-2.743-4.702
			c-0.76-1.228-1.927-2.773-3.749-4.314c-1.893-1.505-4.037-2.962-6.955-4.911l-5.061-3.297l-0.699-0.454
			c-0.334-0.236-0.668-0.362-0.88-0.484l-1.499-0.77l-3.091-1.56c-4.188-2.087-8.613-4.162-12.734-6.013l-10.884-4.736
			C287.404,67.918,285.052,67.262,284.259,67.036z"/>
		<path style="fill:#21983A;" d="M181.63,86.123c-3.863,3-7.161,5.971-10.344,8.713c-3.157,2.658-6.459,5.247-9.82,7.982
			c-6.725,5.507-14.156,11.558-22.899,20.974c-8.658,9.497-12.916,15.463-16.108,20.751c-1.66,2.786-2.636,5.16-3.983,7.78
			c-1.281,2.627-2.643,5.494-4.222,9.141c-3.161,7.309-4.232,10.328-5.785,14.031c-0.76,1.893-1.56,3.974-2.62,6.877
			c-1.083,2.881-2.338,6.68-4.401,11.56c-2.265,5.188-3.156,7.926-3.599,9.234c-0.416,1.303-0.321,1.115-0.142,0.724
			c0.18-0.388,0.452-0.963,0.398-0.434c-0.017,0.544-0.54,2.1-1.209,6.424c-0.621,4.375-0.152,8.213,0.528,11.133
			c0.689,2.949,1.555,5.158,2.294,6.849c1.502,3.368,2.553,4.687,2.543,4.697c-0.051-5.494,0.007-11.14,1.258-16.035
			c-1.118-10.341,4.834-21.45,7.232-32.744l1.721-4.784c1.099-2.86,2.786-6.889,4.708-11.143c1.939-4.286,4.141-8.903,6.181-13.17
			l2.863-5.98c0.86-1.633,1.831-3.185,2.623-4.435c3.245-5.07,8.514-10.733,13.923-15.706c5.403-4.996,10.88-9.408,14.427-12.485
			c3.543-3.08,8.611-8.043,14.313-13.608c5.836-5.627,11.412-12.252,17.94-16.178c3.215-1.951,5.444-2.875,6.79-3.371
			c1.329-0.498,2.002-0.835,1.49-1.528c-0.476-0.677-2.572-1.425-5.586-0.756C189.15,81.258,185.492,83.119,181.63,86.123z"/>
		<path style="fill:#21983A;" d="M313.148,120.384c-8.292,10.297-20.015,25.551-24.687,40.05c-2.357,7.223-2.519,12.6-2.494,15.771
			c0.078,3.182,0.105,4.23-0.192,3.083c-0.245-1.147-0.966-2.805-1.462-5.786c-0.472-2.95-0.678-7.339,0.972-13.182
			c1.664-5.82,4.005-10.727,6.13-14.793c2.143-4.067,4.112-7.305,5.542-9.702c2.966-4.727,1.956-2.529,12.041-15.7
			c2.527-3.292,4.833-5.811,6.842-7.519c2.015-1.708,3.662-2.628,4.741-3.093c2.206-0.86,2.067-0.199,0.258,1.235
			C317.079,113.608,313.138,120.38,313.148,120.384z"/>
		<path style="fill:#21983A;" d="M291.973,181.912c14.26-1.219,29.961-1.961,46.592-2.337l3.146-0.048l0.865,0.004l0.151,0.008
			c0.638,0.312,1.956,1.032,1.313,0.671l-0.083-0.096l-0.219-0.197c-0.188-0.123-0.412-0.245-0.723-0.303
			c-0.293-0.071-0.655-0.069-1.003-0.08l-0.536,0.003l-0.64-0.514c-0.433-0.629-0.908-0.341-1.367-0.36l-1.357,0.095
			c-3.465,0.269-6.823,0.459-8.382,0.898c-1.238,0.496-1.956,0.814-2.142,1.083c-0.218,0.264-0.286,0.43-0.444,0.531l-0.242,0.073
			l0.024-0.277l0.144-0.255c0.436-0.562,1.229-1.616,5.565-1.878l5.811-0.484l4.353-0.312l6.575-0.427l13.287-0.723
			c2.239-0.097,4.453-0.197,6.771-0.212l0.98,0.018c0.517,0.003,1.026,0.118,1.481,0.361c0.534,0.265,0.886,0.383,1.413,0.574
			l3.177,1.066c1.109,0.394,2.244,0.815,3.435,1.495c0.593,0.349,1.208,0.765,1.807,1.4c0.593,0.604,1.169,1.591,1.278,2.7
			c0.01,0.278,0.032,0.518-0.001,0.827l-0.055,0.476c-0.086,0.527-0.214,0.944-0.372,1.337c-0.326,0.803-0.822,1.496-1.364,2.054
			c-1.098,1.118-2.323,1.758-3.501,2.272c-2.375,0.992-4.723,1.433-7.006,1.805c-2.198,0.321-4.452,0.729-6.695,1.016
			c-4.493,0.617-8.99,1.075-13.467,1.418c-8.958,0.684-17.838,0.985-26.544,1.287c-8.673,0.251-17.275,0.802-25.67,0.906
			c-16.75,0.288-30.82,0.786-42.462,2.426c-0.937,0.043-2.162,0.751-3.263,1.423c-1.113,0.699-2.171,1.478-3.172,2.269
			c-2.001,1.592-3.785,3.254-5.374,4.889c-3.173,3.28-5.58,6.471-7.289,9.37c-3.495,5.817-3.824,10.379-3.667,12.42
			c0.236,2.069,0.026,1.929-0.294-0.535c-0.461-4.884,1.546-12.871,9.874-22.487c2.091-2.38,4.55-4.875,7.657-7.225
			c0.785-0.581,1.611-1.151,2.533-1.669c0.464-0.255,0.948-0.501,1.507-0.7c0.279-0.094,0.597-0.188,0.916-0.23l0.771-0.126
			c2.044-0.346,4.212-0.668,6.48-0.964c9.078-1.19,19.797-1.793,32.353-2.106c6.295-0.172,12.359-0.308,18.312-0.675l17.322-0.722
			c11.173-0.458,21.587-1.077,31.055-2.337c2.364-0.316,4.673-0.674,6.927-1.059c2.306-0.359,4.415-0.709,6.351-1.34
			c1.897-0.591,3.649-1.583,4.134-2.682l0.146-0.405l0.031-0.13l0.035-0.364l-0.124-0.338c-0.203-0.335-0.897-0.819-1.655-1.168
			c-1.551-0.736-3.359-1.228-5.165-1.828c-0.454-0.153-0.918-0.315-1.398-0.51c-0.658-0.273-0.607-0.291-0.722-0.276
			c-0.574-0.012-1.607,0.014-2.399,0.044c-3.396,0.129-6.582,0.331-9.495,0.518l-13.034,0.844l-2.547,0.146l-1.282,0.073
			l-0.302,0.012l-0.096-0.001l-1.086-0.011l-0.888,0.033c-0.607,0.031-0.138,0.102,0.103,0.067l1.075-0.03l0.727-0.026l0.415-0.017
			l0.109-0.004l0.055-0.004l0.015-0.001l0.005-0.002c0.072,1.608,1.376-0.752,0.977-0.281c-0.031,0.33-0.046,0.663-0.046,0.994
			c-0.016,0.375-0.013,0.106-0.018,0.187h-0.027l-0.813-0.007c-9.25,0.084-21.817,0.356-39.297,1.543
			c-8.737,0.626-16.576,1.35-23.493,2.338c-3.512,0.484-6.548,1.11-9.73,1.781c-3.174,0.559-6.089,0.768-8.745,1.083
			c-5.307,0.545-9.617,1.699-12.589,3.82c-1.304,0.905-2.453,2.445-3.473,3.545l-2.692,3.135c-6.186,7.364-5.684,5.683,0.296-2.423
			l2.4-3.113c0.427-0.53,0.861-1.065,1.35-1.603c0.496-0.566,1.144-1.041,1.723-1.448c2.424-1.714,5.361-2.805,8.325-3.496
			c2.976-0.7,6.001-1.067,8.883-1.518c2.934-0.393,5.498-1.11,8.258-1.788C283.6,182.742,291.979,181.986,291.973,181.912z"/>
		<path style="fill:#21983A;" d="M299.795,97.633c-3.793-0.541-4.753-5.227-1.427-4.753
			C301.695,93.357,303.121,98.11,299.795,97.633z"/>
		<path style="fill:#21983A;" d="M316.843,94.402c-2.326-0.517-3.336-4.287-0.478-3.81
			C319.225,91.067,321.131,95.354,316.843,94.402z"/>
		<path style="fill:#21983A;" d="M200.004,119.857c-9.01,5.545-9.703,22.869,3.465,21.484c9.01-0.692,6.93-2.078-0.693-3.464
			c-7.624-1.387-8.316-6.931-2.771-12.475C204.856,119.857,200.004,119.857,200.004,119.857z"/>
		<path style="fill:#21983A;" d="M226.723,108.086c0.999-1.629,3.843-1.841,3.835-1.835c0-0.004,2.214-0.3,3.614-0.36
			c1.402-0.07,3.014-0.425,4.092-0.65c1.074-0.246,6.476-1.294,8.379-1.592c1.893-0.343,6.901-1.319,8.127-1.449
			c4.095-0.499,5.448-0.824,5.448-0.835c-0.004-0.011,3.823-0.568,5.483-0.622c1.655-0.084,3.863,0.132,4.964-0.109
			c1.105-0.239,0.827,0.249,2.474,0.295c1.658,0.057,3.234,0.928,1.864,1.089c-1.36,0.144-4.607-0.149-4.612-0.133
			c-1.179,0.164-2.353,0.352-3.521,0.561c0.004,0-1.408-0.957-3.018-0.353c-1.605,0.587-4.857,0.875-6.184,1.279
			c-1.329,0.393-2.916,0.834-4.803,1.091c-1.889,0.259-4.043,0.591-5.924,0.908c-1.885,0.315-4.52,1.065-5.589,1.279
			c-1.072,0.189-6.408,1.339-7.461,1.614c-1.075,0.244-3.717,1.948-3.708,1.956c0.002,0.007-0.526-0.917-2.682-0.545
			C225.366,110.105,226.68,108.094,226.723,108.086z"/>
		<path style="fill:#21983A;" d="M230.5,78.969c-3.952-3.952-3.465-8.317,0-11.09c3.463-2.772,6.235,0.001,6.235,4.159
			C236.735,76.197,232.578,81.048,230.5,78.969z"/>
		<path style="fill:#21983A;" d="M286.426,69.099c-2.241-3.831,2.934-7.336,5.732-2.55
			C294.959,71.333,289.926,75.082,286.426,69.099z"/>
		<path style="fill:#21983A;" d="M133.699,244.238c2.536,4.849,7.308,9.183,13.347,11.554c5.997,2.4,13.239,2.816,19.722,0.492
			c6.577-2.347,12.338-6.94,16.01-12.895c3.745-5.922,5.588-12.85,6.128-19.514c0.518-6.722,0.377-12.803,1.101-17.764
			c0.628-4.975,1.873-8.939,3.527-11.538c1.632-2.637,3.493-3.706,4.335-4.059c0.871-0.36,0.824-0.226-0.082,0.327
			c-1.796,1.169-3.777,3.976-4.612,9.049c-0.451,2.529-0.671,5.611-0.728,9.354c-0.095,3.757,0.131,8.138-0.124,13.467
			c-0.426,10.654-4.017,20.208-9.383,26.661c-2.657,3.242-5.662,5.728-8.582,7.542c-2.923,1.806-5.686,3.048-8.211,3.829
			c-2.5,0.776-4.191,0.99-5.722,1.103c-1.536,0.094-2.942,0.083-4.97-0.126c-2.018-0.244-4.705-0.615-8.558-2.015
			c-3.759-1.446-9.025-3.884-13.969-9.951c-2.447-3.103-3.8-6.253-4.945-9.025c-1.105-2.79-1.901-5.243-2.642-7.35l-1.044-2.911
			c-0.198-0.549-0.184-0.563-0.483-1.024l-0.67-1.072c-0.879-1.398-1.478-2.722-1.683-3.794c-0.396-2.171,0.115-3.016,0.279-2.809
			c0.259,0.187,0.324,1.406,1.204,3.169c0.448,0.88,1.094,1.747,1.841,2.654c0.385,0.502,0.731,0.821,1.178,1.551l0.848,1.695
			l3.109,6.609C131.82,241.527,133.685,244.245,133.699,244.238z"/>
		<path style="fill:#21983A;" d="M166.263,212.646c0.003,0.532,0.021,1.378-0.008,1.647c-0.063,0.415-0.212,1.003-0.371,1.467
			c-0.402,1.373-1.907,3.911-4.144,4.778c-2.174,0.961-4.507,0.317-5.074-0.153c-0.812-0.641-1.792-1.129-2.848-1.082
			c-1.044,0.063-2.21,0.641-3.05,2.467c-0.681,1.477-0.159,2.705,0.927,3.472c1.073,0.774,2.688,0.991,3.738,0.665
			c0.62-0.218,4.208,0.161,7.525-1.744c1.622-0.914,2.97-2.311,3.811-3.69c0.859-1.38,1.268-2.711,1.455-3.582
			c0.193-0.951,0.318-1.757,0.355-2.693c-0.04-0.825-0.042-1.472,0.01-2.043c0.091-0.816,0.004-6.045,0.416-12.323
			c0.377-6.279,1.507-13.595,3.131-18.442c1.545-4.788,3.082-7.18,4.065-8.573c1.003-1.389,1.516-1.809,1.98-2.243
			c0.906-0.854,0.703-2.412-0.03-3.477c-0.675-1.019-2.219-1.346-3.45,0.892l-1.764,3.519c-0.81,1.665-2.121,4.22-3.539,9.056
			c-1.552,5.154-2.611,12.647-2.93,19.096C166.117,206.115,166.268,211.52,166.263,212.646z"/>
		<path style="fill:#21983A;" d="M185.643,160.839c-0.578,0.42-1.134,0.873-1.661,1.325c-0.759,0.622-2.089,1.949-3.19,3.327
			c-1.119,1.365-2.033,2.767-2.519,3.118c-1.367,0.919-1.736,3.277,1.568,3.875c2.656,0.512,3.117-0.809,2.693-1.861
			c-0.151-0.334,0.128-1.714,0.745-3.162c0.594-1.456,1.539-2.918,2.042-3.611c0.514-0.745,1.143-1.337,1.664-1.588
			c0.332-0.104,2.706-1.96,5.75-1.477c3.093,0.628,6.564,2.75,8.713,4.375c4.212,3.359,4.157,4.318,4.503,4.844
			c0.254,0.576,1.409,0.428,2.4,0.07c0.979-0.33,1.624-1.361,0.435-2.297c-0.562-0.42-0.983-0.676-1.769-1.331
			c-0.792-0.639-1.939-1.669-4.184-3.222c-2.424-1.628-5.92-3.786-9.746-4.527c-2.067-0.32-3.892,0.216-5.143,0.783
			C186.68,160.055,185.913,160.644,185.643,160.839z"/>
		<path style="fill:#21983A;" d="M196.809,167.156c-0.504,0.271-0.986,0.574-1.458,0.857c-1.42,0.799-4.547,3.479-5.424,3.342
			c-1.212-0.038-1.972,0.812-0.104,3.567c1.552,2.249,3.078,1.223,3.073,0.095c0.132-0.745,2.703-4.207,3.583-5.17
			c0.458-0.555,0.998-0.958,1.435-1.083c0.306-0.084,2.214-1.071,4.728-1.008c1.244,0.019,2.543,0.296,3.579,0.937
			c1.05,0.622,1.855,1.56,2.461,2.405c2.269,3.5,2.395,4.297,2.634,4.826c0.483,1.193,4.607-1.133,2.941-2.085
			c-0.868-0.503-1.097-0.681-3.688-4.191c-0.741-0.913-1.772-2.066-3.232-2.88c-1.446-0.837-3.196-1.149-4.685-1.13
			C199.595,165.624,197.235,166.902,196.809,167.156z"/>
		<path style="fill:#21983A;" d="M191.045,182.457c0.458-0.972,0.68-1.235,0.799-1.29l0.383,0.104
			c-0.064,0.058,0.902,0.09,1.991-0.299c0.993-0.275,1.97-1.061,2.687-1.5c0.157-0.055,0.601-0.475,1.232-0.606
			c0.506-0.155,1.078-0.309,1.695-0.456c1.219-0.297,2.526-0.505,3.204-0.592c1.339-0.242,4.936-0.716,5.824-0.569
			c2.92,0.283,3.936,0.276,3.945,0.247c-0.005-0.05,2.816,0.408,3.89,1.112c1.121,0.604,2.111,1.967,2.916,2.288
			c0.835,0.35,0.134,0.746,0.762,1.721c0.645,1.087-0.223,2.555-0.883,1.952c-0.56-0.562-1.38-2.301-1.448-2.306
			c-0.67-0.33-1.372-0.55-2.081-0.693c0.051,0.019,0.053-1.966-1.281-1.651c-1.226,0.304-3.202-0.235-4.128,0.058
			c-0.903,0.262-1.918,0.559-3.121,0.522c-1.208-0.035-2.613,0.026-3.839,0.184c-1.241,0.14-2.863,0.908-3.532,1.099l-0.799,0.207
			c-0.112-0.01-0.521,0.251-0.949,0.541c-0.807,0.562-1.685,1.326-2.038,1.587c-0.331,0.25-0.688,1.077-1.33,1.861
			c-0.622,0.779-1.456,1.404-1.449,1.389c0.035-0.055-0.89-1.371-2.563-1.973c-0.835-0.374-0.693-1.094-0.451-1.733
			C190.735,183.019,191.049,182.454,191.045,182.457z"/>
		<path style="fill:#21983A;" d="M197.178,188.594c-0.15-2.052,1.206-1.552,1.231-1.56c-0.003,0.001,1.075,0.132,1.832,0.335
			c0.756,0.209,1.472-0.012,1.951-0.158l3.738-1.116c0.841-0.252,2.971-1.224,3.539-1.335c1.861-0.408,2.408-0.86,2.408-0.87
			c-0.013-0.013,1.719-0.652,2.554-0.635c0.836-0.026,1.887,0.5,2.48,0.25c0.633-0.238,0.36,0.488,1.066,0.839
			c0.367,0.196,0.512,0.719,0.398,1.132c-0.096,0.408-0.389,0.713-0.635,0.748l-0.69-0.33c-0.265-0.174-0.543-0.361-0.546-0.356
			c-0.45,0.155-0.896,0.384-1.322,0.627c0.032-0.003-0.724-1.687-1.338-0.819c-0.555,0.842-1.931,1.033-2.405,1.551
			c-0.466,0.506-1.022,1.036-1.837,1.229c-0.815,0.193-1.754,0.437-2.581,0.673c-0.826,0.229-1.848,0.966-2.324,1.11l-3.363,1.022
			c-0.464,0.145-1.245,2.085-1.267,2.087c-0.003-0.006-0.725-1.507-1.881-1.668C197.034,191.153,197.234,188.579,197.178,188.594z"
			/>
		<path style="fill:#21983A;" d="M163.835,143.409c1.527-1.585,2.716,0.02,2.688,0.016c0.012-0.008,0.969,1.047,1.44,1.853
			c0.48,0.804,1.25,1.348,1.766,1.717c0.527,0.363,3,2.294,3.81,3.016c0.833,0.7,3.228,2.285,3.727,2.765
			c1.702,1.577,2.514,1.784,2.517,1.784c0,0,1.827,1.155,2.499,1.786c0.673,0.627,1.315,1.796,2.026,1.875
			c0.708,0.077,0.083,0.645,0.772,1.258c0.686,0.608,0.65,2.235-0.179,2.055c-0.843-0.179-1.985-1.765-1.977-1.765l-1.994-0.713
			c-0.003,0,0.465-1.837-0.727-1.818c-1.193,0.017-2.535-1.252-3.353-1.445c-0.817-0.201-1.742-0.494-2.523-1.208l-2.486-2.203
			c-0.798-0.691-2.195-1.278-2.658-1.646c-0.461-0.369-2.85-2.129-3.371-2.398c-0.509-0.353-2.589,0.375-2.567,0.38
			c-0.005-0.003,0.577-1.6-0.34-2.525C161.975,145.254,163.807,143.401,163.835,143.409z"/>
		<path style="fill:#21983A;" d="M214.316,182.936c1.527-1.585,2.717,0.019,2.688,0.016c0.012-0.008,0.97,1.047,1.441,1.853
			c0.479,0.803,1.251,1.347,1.767,1.715c0.527,0.363,3.001,2.295,3.811,3.017c0.832,0.7,3.227,2.286,3.726,2.766
			c1.703,1.577,2.515,1.783,2.516,1.783c0,0,1.828,1.155,2.499,1.785c0.673,0.629,1.317,1.797,2.026,1.875
			c0.709,0.079,0.083,0.645,0.771,1.258c0.688,0.609,0.65,2.235-0.179,2.054c-0.842-0.179-1.984-1.763-1.977-1.763l-1.994-0.714
			c-0.002,0,0.465-1.837-0.727-1.817c-1.193,0.016-2.534-1.253-3.352-1.445c-0.818-0.202-1.742-0.494-2.523-1.209l-2.486-2.201
			c-0.798-0.692-2.197-1.278-2.66-1.646c-0.461-0.369-2.849-2.129-3.37-2.398c-0.508-0.353-2.589,0.375-2.568,0.38
			c-0.003-0.003,0.578-1.598-0.34-2.525C212.458,184.78,214.289,182.928,214.316,182.936z"/>
		<path style="fill:#21983A;" d="M377.133,317.442c-3.121-2.005-6.315-3.024-7.263-3.491c-0.478-0.223-1.945-2.157-3.259-4.279
			c-1.319-2.12-2.506-4.398-2.863-5.086c-0.805-1.348-2.417-5.708-3.848-8.129c-1.475-2.448-1.265-4.785-3.311-6.791
			c-0.184-0.182-0.359-0.436-0.53-0.723c-0.208,0.027-0.412,0.064-0.626,0.063c-1.386-0.006-2.814-0.101-4.102-0.644
			c-0.6-0.253-1.152-0.576-1.636-0.961c-0.034,1.211,0.022,2.418,0.031,2.417c-0.003,0.008,1.893,1.628,2.949,3.388
			c1.072,1.75,0.141,3.51,1.719,6.171c1.502,2.622,3.004,8.688,4.694,10.49c1.609,1.804,3.443,4.595,4.074,6.227
			c0.602,1.674,2.573,2.677,3.195,5.676c0.694,3.005,3.434,1.092,6.034,3.152c2.665,2.036,5.297-2.081,5.311-2.066
			C377.711,322.83,380.251,319.409,377.133,317.442z"/>
		<path style="fill:#21983A;" d="M349.096,280.78c1.177-1.328,3.052-2.161,4.725-1.457c0.002,0,0.007,0.002,0.009,0.002
			c-0.121-1.508-0.179-2.811-0.24-3.534c-0.08-0.839-0.092-3.173,0.06-6.032c-1.465,0.419-2.8,0.898-3.949,1.463
			c-0.513,0.251-1.051,0.409-1.589,0.497c0.075,1.794,0.349,4.788,0.766,7.611C348.948,279.825,349.021,280.307,349.096,280.78z"/>
		<path style="fill:#21983A;" d="M352.758,260.273c0.633-0.135,1.27-0.155,1.881-0.069c0.416-2.888,0.838-5.393,0.912-6.721
			c0.003-0.029,0.004-0.07,0.006-0.099c-0.194-0.081-0.388-0.149-0.583-0.26c-0.902-0.515-1.727-0.889-3.167-1.136
			c0.412,0.071-0.484,0.003-0.985-0.019c-0.108,0.048-0.727,0.168-0.809,0.198c-0.026,0.007-0.05,0.007-0.075,0.015
			c-0.006,0.122-0.012,0.217-0.02,0.347c-0.043,0.999-1.432,2.819-1.699,5.175c-0.126,0.825-0.205,2.341-0.245,4.086
			C349.528,261.161,351.116,260.623,352.758,260.273z"/>
		<path style="fill:#21983A;" d="M356.714,243.641c0.132-0.775,0.266-1.552,0.418-2.324c0.904-4.893,2.145-9.426,2.214-10.264
			c0.066-1.716,3.508-8.338,4.194-9.786c0.513-1.581,3.908-6.61,4.313-9.505c0.341-3.006,5.378-4.088,5.573-5.135
			c0.23-1.049,3.543-7.045,4.222-9.181c0.86-2.148,1.276-6.268-0.125-5.599c-1.277,0.648-3.996,4.272-4.532,6.567
			c-0.403,2.337-7.358,4.944-8.848,10.348c-0.698,2.658-1.995,4.912-3.215,7.199c-0.613,1.155-1.184,2.291-1.637,3.434
			c-0.375,0.93-0.765,1.984-0.985,3.056c-0.904,4.304-2.334,8.014-2.667,10.352c-0.328,2.32-2.615,4.703-3.263,6.96
			c-0.213,0.656-0.494,1.697-0.784,2.823C353.328,242.649,355.076,243.033,356.714,243.641z"/>
		<path style="fill:#21983A;" d="M254.838,202.121c0.021-0.012,1.85,2.2,0.92,3.165c-0.923,1.032,0.291,2.633-0.98,2.614
			c-1.315,0.03-1.39,1.004-1.992,1.273c-0.604,0.292-1.332,1.336-1.458,2.222c-0.169,0.81-1.731,2.593-1.614,3.816
			c0.102,1.124-0.792,1.552-0.53,2.348c0.263,0.79,1.168,1.476,1.17,1.471c-0.007-0.003-0.232,0.864-0.435,1.408
			c-0.312,0.555,0.901,4.246,1.512,5.392c0.245,0.597,0.76,1.537,1.318,2.384c0.803,1.261,1.187,2.704,1.266,3.359
			c0.207,1.491-0.65,2.745-0.734,3.277c-0.189,1.232-0.524,1.802-0.657,2.081l-0.162,0.274c0-0.006-0.322,0.476-0.958,0.944
			c-0.631,0.486-1.581,0.833-2.481,0.979l-1.293,0.232c-0.903,0.175-2.291-0.373-3.131,0.165c-0.818,0.532-2.377,1.018-3.688,2.224
			c-1.248,1.161-3.404,1.381-4.088,3.403c-0.303,0.979-1.131,1.385-1.936,1.817c-0.8,0.412-1.554,0.865-1.488,1.338
			c0.123,0.914-0.615,2.306-1.218,2.702c-0.654,0.39-1.24-1.318-1.142-2.32c0.032-0.475,0.199-1.423,0.497-2.3
			c0.276-0.881,0.669-1.67,0.697-1.93c0.099-0.588,2.629-0.343,2.904-1.621c0.308-1.405,2.831-2.582,3.466-2.844
			c0.615-0.374,3.716-1.311,4.313-1.749c0.283-0.283,2.895-1.44,5.202-2.14c0.718-0.184,1.339-0.576,1.59-1.135
			c0.265-0.532,0.305-1.016,0.301-1.291c-0.004-0.341,0.07-0.815,0.021-1.503c-0.058-0.796-0.214-1.534-0.667-2.498
			c-0.923-2.05-1.421-4.126-1.594-4.683c-0.18-0.555-0.436-1.89-0.633-3.22c-0.217-1.332-0.365-2.66-0.809-3.247
			c-0.882-1.205-0.26-2.288-0.321-3.685c-0.09-1.456,0.946-3.646,1.307-4.326c0.142-0.367,0.784-1.496,1.509-2.503
			c0.71-1.022,1.514-1.903,1.558-2.176c0.098-0.508,0.239-2.397,1.499-4.077C253.169,200.081,254.86,202.135,254.838,202.121z"/>
		<path style="fill:#21983A;" d="M235.336,278.746c-0.689-2.332-1.342-4.712-1.968-7.049c-0.376-1.65-1.275-4.073-1.475-6.437
			c-0.239-2.508,0.052-5.408,0.605-8.32c0.549-2.929,1.228-5.828,1.633-8.441c0.239-1.471,0.267-2.35,0.464-3.132
			c0.162-0.776,0.344-1.38,0.512-1.758c0.901-2.024,1.655-4.767,1.423-7.229c-0.222-2.462-1.526-4.353-4.197-4.323
			c-2.187,0.018-3.445,1.566-4.191,3.603c-0.737,2.025-0.911,4.736-0.463,6.566c0.154,0.551,0.115,2.494,0.326,4.883
			c0.123,1.965-0.102,4.957-0.356,8.063c-0.26,3.133-0.405,6.611,0.074,9.684c0.209,1.514,0.616,2.983,1.032,4.17l1.101,2.886
			c1.249,3.262,2.266,6.41,2.767,8.611c0.194,0.803,0.977,3.759,2.387,8.015l5.35,15.805c2.144,6.054,4.82,12.62,8.45,18.42
			c1.767,2.914,3.952,5.565,5.751,7.947c1.831,2.438,3.454,4.806,4.831,7c0.678,1.077,1.286,2.115,1.853,3.101
			c0.535,1.024,1.153,1.943,1.337,2.639c0.534,1.702,0.723,3.491,0.949,5.098c0.405,3.212,0.994,5.977,2.445,7.958
			c2.872,3.516,5.485,3.844,7.233,3.939c1.911,0.017,3.102-0.838,3.793-1.676c0.69-0.867,0.996-1.854,0.918-2.697
			c-0.077-0.842-0.623-1.527-1.656-1.747c-1.013-0.241-2.486,0.063-3.484,0.36c-0.493,0.128-0.881,0.199-1.506-0.03
			c-0.245-0.063-0.813-0.422-1.093-0.611c-0.364-0.212-0.607-0.494-0.959-0.985c-0.66-1.014-1.204-2.892-1.696-5.882
			c-0.303-1.504-0.497-3.267-1.365-5.482c-0.117-0.301-0.248-0.635-0.433-0.921l-0.4-0.687l-0.829-1.413
			c-0.583-0.961-1.207-1.971-1.898-3.022c-1.468-2.246-3.183-4.659-5.094-7.134c-1.967-2.537-3.937-4.855-5.645-7.591
			c-3.473-5.406-6.127-11.708-8.296-17.688l-5.55-15.978C236.554,282.969,235.668,279.83,235.336,278.746z"/>
		<path style="fill:#21983A;" d="M282.243,354.913c-0.007,0-0.945-4.712,1.324-5.332c2.282-0.612,2.245-3.982,4.176-2.691
			c1.944,1.264,3.233,0.191,4.419,0.542c1.189,0.353,3.483,0.102,5.018-0.579c1.527-0.656,5.827,0.161,7.807-0.635
			c1.964-0.813,3.116,0.46,4.398-0.262c1.283-0.715,2.372-2.367,2.37-2.372c0,0,1.664,0.166,2.662,0.457
			c0.999,0.302,7.655-1.613,9.876-2.182c2.24-0.532,7.233-2.341,8.747-2.788c1.561-0.436,3.273,0.192,3.913-0.109l2.645-1.175
			l6.186-1.495c1.588-0.376,3.959,0.535,5.413-0.316c1.456-0.838,4.148-1.534,6.666-3.246c2.868-1.847,6.613-1.246,9.117-4.078
			c1.227-1.396,2.991-1.55,4.581-1.651c1.583-0.08,3.011-0.162,3.202-0.898c0.199-0.728,0.721-1.345,1.17-1.727
			c0.451-0.378,0.915-0.582,1.434-0.641c0.522-0.048,1.045,0.312,1.298,1.062c0.269,0.73,0.109,1.803-0.213,2.487
			c-0.283,0.686-1.194,1.958-2.28,3.039c-1.07,1.085-2.211,1.999-2.432,2.365c-0.518,0.781-4.247-1.309-5.504,0.563
			c-1.319,1.957-5.777,2.646-6.893,2.943c-1.134,0.309-6.405,1.338-7.427,2.045c-0.995,0.805-12.774,4.965-15.482,6.242
			c-1.342,0.612-4.966,1.425-8.504,2.032c-3.521,0.615-6.918,1.033-7.833,1.242c-1.836,0.444-8.668,0.879-10.258,2.599
			c-1.598,1.747-3.395,1.092-5.41,1.902c-2.023,0.819-5.606,0.85-6.775,1c-1.171,0.18-7.789,0.466-8.449,0.971
			c-0.657,0.546-2.607,2.643-5.422,3.805C282.955,359.164,282.237,354.911,282.243,354.913z"/>
		<path style="fill:#21983A;" d="M362.049,255.106c-0.304,1.176-0.203,2.817,0.681,3.915c0.453,0.501,1.175,0.809,2.167,0.443
			c0.936-0.35,2.332-1.518,2.813-3.981c0.44-2.497-0.288-4.641-1.228-6.194c-0.963-1.585-2.195-2.726-3.529-3.71
			c-1.342-0.979-2.812-1.788-4.473-2.559c-1.675-0.749-3.521-1.529-5.904-1.941c-1.189-0.179-2.491-0.206-3.753,0.343
			c-1.25,0.691-1.87,1.208-2.849,1.749c-1.794,1.049-3.616,1.931-5.397,2.641c-3.557,1.422-6.99,2.139-9.651,2.088
			c-1.294-0.016-2.176,0.234-2.855,0.721c-0.656,0.471-1.097,1.211-0.828,2.06c0.249,0.854,1.336,1.835,3.348,2.167
			c1.981,0.327,4.757-0.129,7.635-1.838c3.043-1.849,4.645-2.841,6.68-3.924c1.002-0.555,2.085-1.153,3.391-2.002
			c1.682-1.084,1.801-1.585,3.871-1.375C358.473,244.674,363.333,251.752,362.049,255.106z"/>
		<path style="fill:#21983A;" d="M359.381,259.219c2.491,2.066,5.92-0.314,2.189-3.647c-1.964-1.689-3.943-2.457-6.164-2.957
			c-1.12-0.234-2.304-0.42-3.66-0.436c-1.39-0.035-2.82,0.293-4.364,0.673c-3.077,0.829-5.98,1.319-8.665,1.042
			c-2.676-0.227-5.034-0.956-7.023-1.634c-1.922-0.67-3.293,0.222-3.09,1.507c0.19,1.21,2.19,3.104,6.965,2.828
			c2.51-0.225,3.882-0.333,5.545-0.443c1.628-0.103,3.647-0.405,6.733-1.356c1.22-0.347,2.359-0.525,3.346-0.367
			c1.027,0.154,2.051,0.577,3.002,1.084C356.109,256.553,357.771,257.917,359.381,259.219z"/>
		<path style="fill:#21983A;" d="M363.912,272.091c-0.891,1.703-0.813,3.639,0.223,4.578c0.957,0.852,3.163,0.884,5.193-2.862
			c0.948-1.948,1.316-4.277,0.683-6.434c-0.619-2.172-2.126-3.746-3.652-4.701c-3.164-1.891-6.394-2.48-10.931-3.74
			c-1.17-0.26-2.399-0.419-3.656-0.295c-1.259,0.104-2.486,0.594-3.499,1.17c-2.014,1.208-3.582,2.29-5.362,2.668
			c-1.743,0.449-3.497,0.317-5.336,0.234c-1.782-0.098-3.442-0.255-4.89-0.48c-1.417-0.22-2.383-0.04-3.047,0.367
			c-0.627,0.417-1.291,0.955-1.144,1.905c0.408,1.969,4.412,4.06,10.798,2.454c3.656-0.81,5.854-1.809,7.966-3.113
			c1.058-0.638,2.073-1.417,3.162-1.94c1.066-0.522,2.302-0.756,4.428-0.371c3.384,0.758,6.883,2.293,8.752,4.293
			C365.493,267.877,365.065,269.762,363.912,272.091z"/>
		<path style="fill:#21983A;" d="M359.148,274.949c1.555,2.946,5.631,2.038,3.406-2.553c-1.214-2.447-3.576-4.291-6.271-4.541
			c-2.718-0.294-5.042,0.85-8.044,1.822c-1.518,0.481-2.999,0.814-4.426,0.756c-1.426-0.052-2.77-0.447-3.988-1.004
			c-2.443-1.117-4.405-2.761-6.089-4.117c-1.616-1.351-3.235-0.984-3.467,0.302c-0.208,1.22,0.992,3.649,5.602,5.199
			c2.48,0.734,3.868,1.147,5.612,1.51c1.684,0.358,4.083,0.499,7.349-0.739c2.529-0.933,4.909-1.431,6.637-0.699
			C357.195,271.56,358.18,273.16,359.148,274.949z"/>
		<path style="fill:#21983A;" d="M362.168,287.247c-0.399,1.166,0.273,2.563,1.462,3.28c1.115,0.66,3.091,0.579,4.138-2.423
			c1.018-3.062-0.221-6.423-2.55-8.122c-2.353-1.749-5.059-2.095-8.367-2.294c-1.668-0.103-3.366,0.046-4.866,0.178
			c-1.51,0.111-2.977,0.143-4.364,0.093c-2.767-0.089-5.244-0.553-6.753-1.319c-0.725-0.359-1.384-0.324-2.08-0.068
			c-0.675,0.263-1.314,0.806-1.509,1.616c-0.2,0.788,0.097,1.948,1.442,2.905c1.326,0.954,3.548,1.403,5.963,0.811
			c2.568-0.642,3.883-0.887,5.538-1.013c0.817-0.071,1.701-0.131,2.797-0.266c1.03-0.121,2.187-0.272,3.693-0.277
			c2.389-0.041,4.523,0.972,5.352,2.387C362.924,284.121,362.69,285.677,362.168,287.247z"/>
		<path style="fill:#21983A;" d="M356.45,292.598c1.124,0.756,2.369,0.47,3.03-0.317c0.675-0.769,0.607-2.205-1.167-3.503
			c-3.665-2.573-6.644-1.772-11.671-3.611c-2.462-0.901-4.544-2.419-6.198-4.03c-1.671-1.618-2.906-3.321-4.09-4.804
			c-0.57-0.715-1.365-1.093-2.076-1.031c-0.688,0.106-0.985,0.71-1.084,1.263c-0.113,0.589-0.256,1.147,0.247,2.067
			c0.467,0.877,1.447,1.998,3.186,3.01c1.861,1.069,2.833,1.723,3.974,2.565c1.152,0.799,2.48,1.87,5.345,2.832
			C350.266,288.355,353.512,290.629,356.45,292.598z"/>
		<path style="fill:#21983A;" d="M98.848,229.818c0,0.015,2.872-0.828,3.11,1.919c0.18,2.723,2.136,3.167,1.096,5.307
			c-1.075,2.104-0.732,3.79-1.212,5.109c-0.488,1.306-0.931,3.982-1.025,5.894c-0.066,1.934-1.926,6.497-2.177,8.902
			c-0.245,2.414-1.318,3.267-1.377,4.895c-0.066,1.624,0.458,3.354,0.456,3.354c-0.007-0.007-0.65,1.765-1.137,2.751
			c-0.551,0.996-1.661,8.835-1.912,11.447c-0.374,2.608-0.552,8.641-0.557,10.464c-0.056,1.823-0.708,3.393-0.626,4.18l0.349,3.14
			c-0.027,0,0.249,5.227,0.505,7.045c0.166,1.812-0.334,4.212,0.276,6.058c0.589,1.805,1.061,4.996,2.247,8.243
			c1.18,3.195,1.214,7.264,3.647,10.312c1.189,1.493,1.813,3.419,2.52,5.129c0.674,1.713,1.442,3.209,2.229,3.596
			c1.473,0.851,4.265,3.158,4.922,4.069c0.609,0.99-2.674,0.221-4.258-0.773c-0.807-0.43-2.303-1.493-3.578-2.671
			c-1.287-1.161-2.322-2.419-2.663-2.685c-0.746-0.584-0.454-4.255-1.931-5.868c-1.64-1.65-2.67-6.709-2.891-8.011
			c-0.331-1.304-1.084-7.408-1.556-8.689c-0.194-0.653-1.263-4.381-1.962-8.528c-0.737-4.122-1.15-8.584-1.285-10.345
			c-0.177-1.76,0.038-6.044,0.579-10.102c0.51-4.063,1.311-7.891,1.47-8.954c0.276-2.154,2.344-9.664,1.967-11.934
			c-0.393-2.283,0.575-4,0.82-6.408c0.248-2.415,1.379-6.251,1.633-7.554c0.313-1.294,1.875-8.548,1.609-9.373
			c-0.175-0.823-1.01-3.307-1.404-6.376C96.314,230.321,98.826,229.829,98.848,229.818z"/>
		<path style="fill:#21983A;" d="M195.156,338.072c-0.307-2.325-0.817-4.431-1.367-6.341l-0.388-1.339l-0.088-0.505
			c-0.043-0.322-0.091-0.637,0.015-0.937c0.111-0.316,0.457-0.469,0.754-0.587l1.678-0.837c1.916-0.973,3.978-2.11,6.327-3.401
			c4.743-2.592,7.571-3.177,10.041-3.335c2.625-0.207,4.739-0.218,8.115-0.717c3.367-0.485,4.695-0.621,6.365-0.602
			c0.831,0.016,1.747,0.071,3.005,0.218l2.213,0.297l3.299,0.378c9.657,1.039,0.073-0.036,6.811-0.219
			c3.299-0.05,5.455-0.57,6.925-1.061c1.449-0.486,2.213-0.97,2.222-0.985c-1.602-2.29-3.958-4.354-6.346-6.246
			c-2.701,0.166-5.288,0.499-7.822,0.827c-2.608,0.36-4.835,0.597-7.59,0.897c0.004-0.014-3.634-0.205-7.889,0.042
			c-4.322,0.244-8.956,0.664-11.871,1.095c-6.157,0.991-14.592,3.309-18.463,5.186l-1.092,0.567l-1.523,0.849
			c-0.952,0.662-1.933,1.417-2.564,2.459c-1.476,2.147-1.103,5.187,0.267,7.828c0.737,1.589,1.071,1.933,1.515,2.761
			c0.417,0.734,0.795,1.471,1.108,2.232c0.635,1.514,1.01,3.128,1.035,4.693c0.007,3.072,0.98,4.61,2.471,4.329
			C193.697,345.357,195.72,342.838,195.156,338.072z"/>
		<path style="fill:#21983A;" d="M112.202,326.453c0.897,2.79,1.346,5.182,2.007,8.038l1.355,5.304
			c0.004-0.002,0.574,1.985,1.69,4.652c1.096,2.666,2.759,5.974,4.118,8.539c2.672,5.169,7.325,10.543,10.528,13.982
			c1.583,1.742,6.471,6.871,11.98,12.048c5.482,5.198,11.537,10.467,14.708,13.165c1.582,1.353,3.863,3.206,6.472,5.291
			c2.69,2.098,5.491,4.772,7.923,7.576c4.952,5.585,8.309,11.906,9.318,14.478c3.598,8.575,3.679,15.17,3.086,19.112
			c-0.64,3.979-1.443,5.503-1.38,5.514c0.026-0.064-1.708,4.482-5.91,8.115c-1.976,1.947-4.802,3.493-7.171,4.551
			c-2.423,1.093-4.609,1.964-6.217,2.648c-3.225,1.331-6.89,2.937-9.932,5.093c-3.059,2.116-5.453,4.702-6.559,6.756
			c-1.097,2.055-1.714,2.64-2.619,3.43c-0.871,0.803-2.072,1.794-3.675,4.964c-3.121,6.265-7.482,12.585-6.357,6.463
			c0.628-3.062,2.69-8.004,5.152-11.871c2.406-3.905,5.111-6.636,5.104-6.628c3.126-4.549,7.379-8.525,12.126-11.519
			c0,0.007,1.797-0.003,4.286-0.391c2.464-0.41,5.77-1.124,8.586-3.312c0.686-0.549,1.455-1.129,2.19-1.769
			c0.765-0.631,1.373-1.317,2.238-2.19c1.518-1.607,2.893-3.468,3.84-5.486c1.956-4.024,1.921-8.595,1.266-11.158
			c-1.245-5.169-4.158-11.023-8.311-17.497c-2.079-3.234-4.68-6.518-7.605-9.41c-0.724-0.717-1.489-1.423-2.237-2.07l-2.511-2.114
			l-4.956-4.191c-6.429-5.422-15.897-12.997-19.326-16.441c-1.731-1.694-6.909-6.81-11.735-12.318
			c-4.873-5.463-9.226-11.462-10.564-13.559c-1.388-2.051-4.565-5.577-7.081-9.186c-2.57-3.527-4.256-7.38-4.254-7.384
			c0.015,0.004,0.711-0.544,1.361-2.427c0.346-0.941,0.661-2.208,1.114-3.904c0.471-1.681,0.98-3.82,2.191-6.279
			c1.233-2.453,2.577-3.222,3.354-3.323c0.803-0.093,1.225,0.518,1.512,1.261C111.774,324.513,112.187,326.477,112.202,326.453z"/>
		<path style="fill:#21983A;" d="M158.868,322.783c-0.003-0.008-0.721-3.806,4.373-3.064c5.11,0.757,6.239-1.588,10.137,0.591
			c3.84,2.214,7.122,2.83,9.447,4.42l4.701,3.121l2.701,1.93l1.289,0.962l0.621,0.473c0.283,0.213,0.551,0.429,0.76,0.673
			c1.446,1.395,3.388,4.135,5.103,7.245c1.707,3.096,3.095,6.459,4.154,8.639c2.122,4.406,1.585,6.807,2.702,9.784
			c1.084,3.006,2.632,5.999,2.63,6.004c0.019,0.002,0.203,3.754,0.055,5.879l1.421,22.79c0.087,1.286,0.138,2.97,0.422,4.617
			c0.278,1.731,0.735,3.661,1.257,5.55c1.045,3.781,2.305,7.409,2.833,9.119c1.079,3.421,1.265,6.633,1.805,8.091
			c2.165,5.866,2.104,5.919,2.12,5.905c-0.006,0.001,0.724,2.52,1.422,5.563c0.714,3.036,1.288,6.639,1.453,8.552
			c0.417,3.849-0.754,8.838-1.709,12.698c-0.452,1.957-1.551,4.601-3.523,7.129c-1.938,2.555-4.638,4.911-7.448,7.085
			c-2.817,2.202-6.144,3.802-9.27,5.599c-1.566,0.898-3.073,1.861-4.421,2.963c-0.661,0.555-1.298,1.136-1.843,1.765
			c-0.546,0.617-1.28,1.476-1.873,2.23c-2.498,3.141-6.022,5.67-8.88,8.055c-2.886,2.351-5.159,4.686-5.719,6.288
			c-0.58,1.578-1.759,3.952-2.744,6.275c-1.01,2.305-1.876,4.542-2.442,5.404c-1.178,1.757-0.768-4.76,0.479-8.131
			c0.532-1.681,1.91-4.964,3.692-7.79c1.739-2.846,3.735-5.252,4.151-5.931c0.823-1.457,7.07-3.696,9.492-7.196
			c1.156-1.819,3.672-4.191,6.518-5.9c2.787-1.748,5.574-3.107,6.692-3.747c1.117-0.639,4.36-2.256,7.304-4.384
			c3-2.066,5.325-4.978,5.809-6.193c0.264-0.585,1.369-2.528,1.962-5.459c0.622-2.924,0.622-6.764,0.013-10.645
			c-1.197-7.786-4.223-15.731-5.331-18.869c-1.092-3.148-3.644-10.847-5.315-18.636c-0.396-1.95-0.716-3.91-0.882-5.806
			c-0.131-1.935-0.129-3.629-0.177-5.195l-0.152-6.522c-0.102-2.059-0.129-6.825-0.479-11.559c-0.339-4.735-1.142-9.421-2.065-11.31
			c-1.814-3.75-1.982-7.312-3.896-11.411c-0.965-2.024-2.177-4.726-3.493-7.102c-1.289-2.39-2.671-4.448-3.414-5.44
			c-0.347-0.468-1.215-1.626-2.181-2.793c-0.94-0.94-2.671-2.373-4.213-3.462c-3.196-2.298-6.739-3.798-7.491-3.9
			c-1.538-0.273-6.029-0.408-12.055-0.97C159.258,326.16,158.836,322.779,158.868,322.783z"/>
		<path style="fill:#21983A;" d="M341.558,347.23c0.357-2.677,0.789-4.81,1.045-6.378c0.278-1.565,0.454-2.659,0.579-3.649
			c0.106-0.929,0.38-1.773,1.382-1.579c0.97,0.092,2.771,1.83,3.046,4.863c0.174,1.48,0.031,3.929-0.71,6.825
			c-0.723,2.909-1.99,6.296-3.645,9.983c-1.64,3.691-3.724,7.68-5.801,11.854c-2.161,4.325-4.695,8.759-7.55,13.107
			c-2.873,4.332-6.054,8.567-9.445,12.464c-3.372,3.91-6.98,7.465-10.321,10.674c-3.325,3.201-6.26,6.235-8.029,9.362
			c-1.823,3.101-2.294,6.236-2.147,8.707c-0.013,0.803-0.279,0.244-0.481-1.455c-0.169-1.68-0.038-4.617,1.592-7.934
			c1.566-3.335,4.515-6.812,7.882-10.411c3.374-3.606,6.987-7.601,10.323-11.96c6.756-8.698,12.215-18.754,15.863-27.315
			C339.135,355.945,341.368,349.348,341.558,347.23z"/>
		<path style="fill:#21983A;" d="M286.479,350.694c0.083-0.074,4.657,0.869,3.926,4.577c-0.565,3.978,2.761,4.96,0.772,7.94
			c-1.947,3.046-1.436,5.799-2.371,7.888c-0.469,1.04-0.942,2.643-1.488,4.411l-0.423,1.347c-0.115,0.495-0.462,1.246-0.579,1.55
			c-0.309,0.791-0.582,1.569-0.795,2.286c-0.853,2.882-5.429,9.061-6.501,12.669c-1.08,3.586-3.014,4.56-3.475,7.042
			c-0.451,2.485,0.14,5.227,0.15,5.221c-0.003-0.003-1.322,2.504-2.181,3.931c-0.429,0.708-1.319,4.011-1.757,7.65
			c-0.474,3.64-0.418,7.581-0.326,9.542c0.033,0.995,0.158,2.397,0.301,3.708c0.19,1.28,0.531,2.608,1.02,3.752
			c0.941,2.331,2.602,3.715,3.445,4.349c1.577,1.275,3.248,2.975,4.347,3.207c4.407,0.7,4.512,0.438,4.483,0.512
			c-0.005,0.005,1.888,0.284,4.207,0.409c2.313,0.137,5.042,0.108,6.466,0.056c2.824-0.07,6.65,1.091,9.522,0.348
			c2.858-0.723,7.839-1.264,13.2-2.805c5.395-1.527,11.835-0.782,18.329-2.901c3.275-1.063,7.276-0.566,10.775,0.345
			c3.515,0.879,6.454,2.223,8.177,2.177c1.727-0.073,4.523,0.67,6.952,2.047c2.445,1.34,4.363,3.287,4.803,4.336
			c0.462,1.038-0.813,0.655-2.513,0.048c-1.714-0.619-3.935-1.304-5.47-1.661c-1.523-0.413-4.545-1.052-7.337-1.166
			c-2.79-0.16-5.331,0.015-5.975,0.203c-1.204,0.337-6.269-3.147-9.685-1.556c-3.334,1.498-11.298,1.709-13.408,1.952
			c-2.099,0.194-11.775,0.795-13.823,1.466c-1.027,0.321-7.035,1.507-13.619,2.171c-3.289,0.34-6.736,0.49-9.75,0.37
			c-3.01-0.118-5.586-0.548-7.046-0.898c-1.436-0.348-3.973-1.179-6.543-3.189c-2.615-1.932-4.846-5.325-5.657-8.791
			c-0.456-1.718-0.645-3.456-0.675-5.026c-0.038-1.588-0.044-2.962-0.006-4.292c0.078-2.608,0.313-4.592,0.37-5.452
			c0.108-1.724,0.787-5.665,1.754-9.499c0.926-3.853,2.079-7.612,1.982-9.47c-0.175-3.729,1.854-6.197,2.962-9.89
			c1.118-3.727,4.303-9.25,5.214-11.142l1.392-2.745l1.046-2.052c0.221-0.431,0.27-0.512,0.395-0.871l0.393-1.093
			c0.965-2.977,1.495-6.147,1.369-6.798c-0.2-1.345-1.648-5.145-1.476-10.768c0.117-2.848,1.557-4.443,2.781-5.037
			C285.411,350.468,286.477,350.701,286.479,350.694z"/>
		<path style="fill:#21983A;" d="M323.533,431.932c-7.143,1.688-10.802-4.325-4.693-4.988c1.524-0.166,5.281-0.229,10.264-0.209
			l8.277,0.094c2.999,0.066,6.3,0.16,9.719,0.813c3.437,0.596,6.828,2.062,9.707,3.772c3.005,1.781,5.444,4.077,7.499,6.253
			c4.01,4.449,7.219,8.077,9.817,9.998c0.773,0.719-1.688-0.221-5.285-3.188c-3.628-2.839-8.016-8.21-14.26-11.043
			c-6.17-3.2-13.415-2.747-19.268-2.443C329.433,431.289,324.943,431.6,323.533,431.932z"/>
		<path style="fill:#21983A;" d="M168.597,478.064c0.764-0.588,1.638-1.102,2.536-1.54c1.25-0.637,3.822-1.647,6.395-2.567
			c2.564-0.891,5.085-2.028,6.025-2.293c1.261-0.25,2.71-1.289,3.187-2.685c0.499-1.409-0.136-2.737-1.995-3.443
			c-3.039-1.077-3.774-0.155-4.308,1.408c-0.074,0.492-1.723,1.984-4.054,3.372c-2.291,1.392-4.964,2.885-6.175,3.786
			c-1.301,0.913-2.491,1.815-3.365,2.382c-0.702,0.284-4.45,3.85-6.214,9.434c-0.952,2.721-1.599,5.723-2.477,8.428
			c-0.853,2.719-2.047,5.106-3.375,6.82c-2.649,3.36-4.951,4.518-6.237,5.283c-1.352,0.713-1.926,0.893-2.478,1.085
			c-2.161,0.684-1.147,6.471,2.176,3.742c0.773-0.687,1.325-1.191,2.615-2.202c1.223-1.057,3.452-2.448,6.235-6.225
			c1.461-2.019,2.751-4.779,3.603-7.675c0.881-2.894,1.479-5.869,2.341-8.424c0.833-2.569,1.984-4.688,3.11-6.165
			C167.253,479.069,168.219,478.365,168.597,478.064z"/>
		<path style="fill:#21983A;" d="M164.082,462.703c3.158-1.941,5.938-1.697,7.365-0.772c1.439,0.935,1.461,2.738-1.364,4.044
			c-1.381,0.68-5.001,1.74-9.268,3.512c-2.108,0.924-4.371,2.07-6.403,3.705c-0.263,0.197-0.515,0.406-0.756,0.631l-0.37,0.331
			l-0.16,0.148c-0.252,0.313-0.726,1.025-1.036,1.551c-0.684,1.151-1.226,2.405-1.652,3.765c-0.863,2.708-1.18,5.948-2.054,9.228
			c-0.87,3.322-2.379,6.296-3.944,8.853c-3.189,5.065-6.522,8.962-9.177,11.13c-0.969,0.558,0.964-1.399,3.439-5.277
			c2.405-3.859,6.09-9.593,7.134-16.283c0.534-3.329,0.632-6.929,1.762-10.347c0.549-1.698,1.322-3.308,2.24-4.737
			c0.605-0.94,1.253-1.395,1.819-1.979c0.598-0.556,1.208-1.064,1.821-1.53C158.476,464.984,162.91,463.546,164.082,462.703z"/>
		<path style="fill:#21983A;" d="M330.887,418.676l-3.028,0.485c-2.794,0.464-10.509,1.894-11.748,1.124
			c-0.906-0.397-1.812-0.529-2.361-0.145c-0.317,0.19-0.483,0.543-0.794,1.054c-0.322,0.484-0.81,1.121-1.213,2.03
			c-0.323,0.736-0.353,1.431,0.007,2.013c0.403,0.602,0.969,0.986,1.592,1.192c1.256,0.413,2.498,0.065,3.179-0.499
			c0.476-0.355,2.845-1.06,5.263-1.938l6.289-2.248c1.333-0.488,2.628-0.815,3.528-0.817l1.097-0.068l0.939-0.023
			c0.508-0.003,0.875-0.071,1.318-0.104c1.757-0.157,4.078-0.242,6.567,0.061c5.04,0.46,10.337,3.304,13.713,5.815
			c6.673,4.972,7.398,6.058,8.22,6.82c1.63,1.654,5.915-2.2,2.471-3.553c-1.715-0.638-2.373-1.001-9.08-5.631
			c-1.823-1.199-4.11-2.616-6.727-3.755c-2.603-1.151-5.544-1.943-8.299-2.222c-2.757-0.3-5.29-0.165-7.219,0.049l-0.698,0.081
			c-0.217,0.025-0.173,0.018-0.475,0.026c-0.443,0.014-0.832,0.042-1.165,0.079L330.887,418.676z"/>
		<path style="fill:#21983A;" d="M315.704,419.303c-1.565,0.56-3.321,0.281-4.474-0.495c-1.179-0.792-1.617-1.936-1.485-2.744
			c0.112-0.827,0.662-1.35,1.273-1.654c0.62-0.283,1.223-0.416,1.872-0.337c0.594,0.116,2.607,0.351,6.074-0.649
			c1.7-0.457,3.662-1.127,5.847-1.84c2.153-0.684,4.684-1.52,7.401-1.77c2.51-0.274,5.159-0.452,7.852-0.159
			c2.691,0.247,5.379,1.23,7.425,2.518c4.038,2.629,6.697,5.306,8.617,6.965c0.514,0.665-1.274-0.273-4.295-2.147
			c-2.974-1.814-7.413-4.907-12.677-4.555c-2.563,0.053-5.249,0.527-7.705,1.078c-2.379,0.626-4.657,1.657-6.728,2.523
			C320.606,417.879,317.015,418.966,315.704,419.303z"/>
		<path style="fill:#21983A;" d="M174.787,168.479c-0.67,0.057-1.285-0.241-1.754-0.717c-0.478-0.513-0.762-1.153-0.868-1.665
			c-0.235-1.074,0.039-1.797,0.028-1.798c-0.046-0.054,0.592-2.228,1.372-3.205c0.729-1.039,1.228-2.265,1.615-3.077
			c0.188-0.405,0.767-1.608,1.542-2.806c0.692-1.217,1.933-2.441,2.528-2.86c0.602-0.507,1.744-1.416,3.019-2.001
			c1.258-0.614,2.606-0.859,3.128-0.851c1.753-0.041,2.886,0.272,3.597,0.434c0.709,0.182,1.008,0.256,1.012,0.245
			c-0.007,0.007,0.785,0.293,1.625,0.87c0.848,0.561,1.685,1.435,2.062,2.038c0.83,1.217,0.991,3.09,1.529,3.863
			c0.555,0.812-0.259,0.764-0.195,2.048c0.027,1.365-1.42,2.437-1.718,1.452c-0.237-0.934-0.077-3.162-0.143-3.186
			c-0.429-0.726-0.939-1.361-1.506-1.879c0.043,0.062,0.975-1.783-0.452-2.147c-1.272-0.319-3.033-1.321-3.965-1.045
			c-0.881,0.198-1.728,0.54-2.779,0.743c-1.066,0.211-2.295,0.812-3.273,1.59l-0.726,0.695c-0.154,0.183-0.336,0.479-0.499,0.779
			l-0.787,1.562c-0.486,0.606-2.062,4.192-2.113,4.925c-0.097,0.36,0.179,1.108,0.556,1.586c0.374,0.502,0.809,0.63,0.803,0.626
			c0.081,0.017-1.85,0.323-1.59,1.695c0.22,0.585-0.04,1.214-0.626,1.636C175.639,168.465,174.783,168.498,174.787,168.479z"/>
		<path style="fill:#21983A;" d="M342.148,113.939c2.146,0.793,4.684,1.389,7.439,1.998c1.382,0.31,2.819,0.623,4.293,1.007
			c0.737,0.19,1.483,0.402,2.235,0.636l0.917,0.3h0.087l0.536-0.009l-2.056,2.055c0.156-0.863-1.957-2.453-4.174-3.316
			c-2.236-0.956-4.664-1.69-6.988-2.409c-4.996-1.505-8.585-2.789-10.59-3.914c-2.025-1.115-2.415-1.866-1.694-1.484
			c1.527,0.742,4.885,0.097,12.639,2.037c3.301,0.879,6.346,1.722,9.016,2.886c1.331,0.589,2.584,1.263,3.679,2.226
			c1.089,0.927,1.998,2.439,2.045,3.974l0.052,1.718l-1.929,0.16l-0.491,0.038l-0.812,0.039l-0.749-0.226l-0.386-0.095
			c-3.52-0.742-1.624-0.912-12.616-3.616c-5.589-1.526-8.465-4.054-9.346-5.402c-0.91-1.396-0.299-1.588,1.018-0.799
			C336.967,113.459,342.16,113.984,342.148,113.939z"/>
		<path style="fill:#21983A;" d="M381.587,66.549c1.291,1.816,1.11,4.512,0.616,6.857c-0.622,3.419-3.74,9.676-7.577,14.99
			c-0.787,0.955-2.112,2.211-3.175,3.228c-1.115,1.063-2.19,2.086-3.135,3.059c-1.906,1.922-3.238,3.722-3.86,4.61
			c-0.857,1.171-1.67,2.786-1.879,4.667c-0.24,1.874,0.277,3.844,1.114,5.16c1.743,2.667,3.864,3.183,4.665,1.974
			c0.727-1.016-0.207-2.763-0.577-4.422c-0.435-1.593-0.2-3.389,0.197-4.96c0.099-0.486,0.746-1.962,2.22-3.87
			c1.437-1.935,3.678-4.169,5.95-6.827c4.098-5.85,7.033-12.602,7.745-16.343c0.403-1.914,0.57-3.853,0.345-5.608
			c-0.103-0.834-0.303-1.762-0.677-2.453c-0.332-0.701-0.708-1.31-1.054-1.846c-0.263-0.379-0.911-1.277-1.999-2.405
			c-1.058-1.152-2.603-2.494-3.918-4.376c-1.246-1.846-2.21-4.549-2.313-7.4c-0.126-2.887,1.47-5.801,4.267-7.617
			c2.743-1.871,6.185-2.992,9.674-3.873c3.513-0.873,7.146-1.48,10.716-2.114c3.543-0.62,7.163-1.32,10.349-2.602
			c3.229-1.264,6.055-3.121,8.098-5.342c4.111-4.407,4.898-9.55,4.546-13.176c-0.36-3.721-1.608-6.27-2.632-8.08
			c-2.218-3.571-3.538-4.614-4.655-5.722c-2.398-2.216-5.082-2.377-5.74-1.713c-0.742,0.779,0.405,1.958,3.992,4.484
			c1.676,1.31,2.974,2.339,4.777,5.349c0.826,1.525,1.772,3.626,1.991,6.648c0.188,2.948-0.484,7.044-3.858,10.758
			c-1.775,1.967-4.282,3.669-7.238,4.854c-3.012,1.241-6.327,1.906-9.903,2.556c-3.541,0.651-7.209,1.275-10.824,2.183
			c-3.596,0.927-7.215,2.076-10.331,4.189c-1.541,1.057-2.934,2.418-3.847,4.074c-0.927,1.648-1.286,3.52-1.248,5.227
			c0.038,1.718,0.418,3.292,0.893,4.707c0.444,1.386,1.131,2.807,1.931,3.873c1.619,2.182,3.291,3.557,4.359,4.751
			C380.697,65.164,381.291,66.071,381.587,66.549z"/>
		<path style="fill:#21983A;" d="M342.598,46.714c-1.546-1.694-3.547-2.689-5.396-3.473c-1.311-0.566-3.253-1.213-5.309-2.033
			c-2.041-0.817-4.198-1.942-5.385-3.597c-1.225-1.616-1.468-3.702-1.346-5.416c0.126-1.671,0.626-2.974,0.909-3.513l2.428-4.438
			c0.598-1.266,1.184-2.358,0.414-3.673c-0.609-1.063-2.803-0.648-4.36,1.029c-1.587,1.614-2.39,4.003-2.443,5.517
			c-0.015,0.504-0.364,1.975-0.4,4.086c-0.002,2.077,0.27,4.906,1.997,7.371c1.705,2.477,4.464,3.74,6.691,4.526
			c2.28,0.79,4.242,1.284,5.5,1.705c2.676,0.781,4.958,2.149,5.847,3.616c0.153,0.271,0.587,0.837,0.917,1.88
			c0.444,1.023,0.554,2.31,0.105,4.006c-0.41,1.672-1.279,3.553-2.028,5.771c-0.365,1.111-0.698,2.335-0.728,3.697
			c-0.074,1.375,0.489,2.842,1.293,3.979c1.803,2.514,4.904,3.151,7.498,3.759c2.635,0.601,5.447,1.07,7.152,2.715
			c0.823,0.775,1.306,1.931,1.627,3.104c0.306,1.164,0.377,2.36,0.26,3.525c-0.232,2.337-1.078,4.507-1.886,6.442
			c-1.663,3.797-3.143,6.846-3.862,9.493c-0.757,2.633-0.842,4.775-0.683,6.378c0.412,3.222,1.132,4.354,1.612,5.459
			c1.155,2.247,3.211,2.861,4.01,2.383c0.889-0.525,0.517-1.795-1.352-4.272c-0.815-1.264-1.476-2.242-1.766-4.74
			c-0.108-1.253-0.032-2.908,0.592-5.146c0.597-2.253,1.851-4.995,3.426-8.733c0.803-2.005,1.703-4.322,1.962-7.039
			c0.126-1.354,0.043-2.806-0.334-4.219c-0.379-1.37-0.957-2.829-2.159-4.023c-2.45-2.266-5.518-2.595-8.112-3.215
			c-2.614-0.553-5.219-1.234-6.41-2.946c-1.432-1.775-1.048-3.916-0.35-6.058c0.696-2.109,1.609-4.097,2.065-6.075
			c0.224-0.992,0.341-1.989,0.245-2.941c-0.057-0.475-0.142-0.932-0.292-1.349l-0.364-1.011
			C343.646,47.918,342.933,47.114,342.598,46.714z"/>
		<path style="fill:#21983A;" d="M277.443,310.454c-0.719,1.081-1.479,2.29-2.171,3.607c-0.342,0.658-0.67,1.342-0.929,2.045
			c-0.253,0.694-0.455,1.443-0.413,2.05c0.014,0.542,0.388,0.894,0.977,1.126c0.597,0.206,1.347,0.225,2.08,0.133
			c0.731-0.085,1.478-0.273,2.12-0.544l0.437-0.217l0.393-0.292c0.291-0.227,0.574-0.467,0.843-0.716
			c1.116-0.971,1.901-2.038,3.139-2.623c0.637-0.296,1.39-0.204,1.83,0.036c0.465,0.229,0.759,0.51,0.997,0.748
			c0.898,0.993,0.98,1.4,0.689,1.052c-0.32-0.305-0.895-0.834-1.931-1.169c-0.526-0.151-1.073-0.017-1.635,0.513
			c-0.572,0.513-1.18,1.289-2.02,2.112c-0.42,0.411-0.851,0.801-1.293,1.156c-0.493,0.407-1.046,0.619-1.551,0.807
			c-1.03,0.354-2.032,0.53-2.997,0.527c-0.949-0.004-1.931-0.203-2.658-0.834c-0.349-0.313-0.626-0.674-0.77-1.138
			c-0.125-0.41-0.141-0.779-0.14-1.099c0.079-1.264,0.283-1.543,0.632-2.366c0.38-0.803,1.018-2.09,2.729-4.85
			c1.731-2.749,2.903-4.239,3.438-4.931c0.518-0.698,0.68-0.508,0.32,0.379C278.787,307.675,277.419,310.447,277.443,310.454z"/>
		<path style="fill:#21983A;" d="M282.569,301.021l0.704,0.23l0.37,0.158l0.491,0.356c0.292,0.377,0.346,0.597,0.455,0.832
			l0.251,0.544l0.035,0.045l-0.132,0.137l-0.012,0.022c0.257-0.345,0.073-0.095,0.129-0.17h0.003l0.005,0.003l0.02,0.014
			l0.036,0.027l0.303,0.22l0.622,0.448l1.272,0.906c1.789,1.3,3.333,2.827,4.783,4.153c1.423,1.343,2.408,2.257,3.029,2.723
			c0.618,0.455,0.869,0.561,0.579,0.522c-0.522-0.094-1.984-0.198-4.265-2.19c-2.253-1.987-4.042-3.53-5.236-4.167
			c-0.597-0.357-0.736-0.502-1.147-0.868l-0.987-0.853c-0.319-0.389-0.4-0.729-0.549-1.072l-0.174-0.371l-0.084-0.061l-0.301-0.115
			c-0.437-0.156-0.846-0.246-1.139-0.248l-0.289,0.036l-0.162,0.131l-0.117,0.55l-0.008,0.524c0.005,0.575-0.218,0.585-0.477,0.015
			c-0.113-0.291-0.257-0.637-0.265-1.084c-0.026-0.493,0.317-1.024,0.807-1.203C282.01,300.898,282.561,301.053,282.569,301.021z"/>
		<path style="fill:#21983A;" d="M276.988,313.497c0.898,0.474,2.263,1.048,3.026,1.984c0.75,0.926,0.568,1.638,0.474,1.501
			c-0.114-0.123-0.719-0.035-1.281-0.578c-0.569-0.552-1.165-0.804-1.534-0.88c-0.374-0.055-0.076-0.259-1.043-0.706
			c-0.96-0.373-1.068-1.03-0.703-1.093C276.283,313.661,276.985,313.494,276.988,313.497z"/>
		<path style="fill:#21983A;" d="M280.662,309.422l-0.003-0.164l-0.006-0.799l0.613-0.025l0.35-0.036l0.671-0.107l0.132,0.698
			l0.068,0.342l0.122,0.655l-0.728,0.165l-0.341,0.079l-1.713,0.384l1.003-1.566l0.265-0.416l1.252,0.922
			c-0.207,0.276-0.352,0.357-0.502,0.463l-0.427,0.217c-0.866,0.31-1.384-0.095-1.266-0.137c0.116-0.054,0.13-0.639,0.64-0.912
			l0.342-0.241l0.105-0.117l0.027-0.05v-0.011l0.058,0.033l0.873,0.597l-0.017,0.034l-0.165,0.494l-0.694-1.155l0.04-0.023
			l0.302-0.031l-0.61,0.832l0.042-0.361l0.723,0.534l-0.35,0.031l0.514-0.699l0.005,0.034l0.01,0.25l-0.226,0.059l-0.27,0.098
			l-0.067-0.007l-0.261-0.161l-0.157-0.082l0.007-0.004l0.016-0.008l0.045-0.036l0.38-0.177l0.371,0.271l0.035,0.223l0.037,0.135
			l-0.004,0.105l-0.015,0.048l-0.008,0.022l-0.064,0.075l-0.22,0.137l-0.352-0.022l-0.134-0.084l-0.031-0.027l-0.194-0.265
			l-0.058-0.07l-0.086-0.084L280.662,309.422z"/>
		<path style="fill:#21983A;" d="M289.37,319.477c0.253,0.765,0.485,1.61,0.589,2.564c0.04,0.479,0.065,0.976-0.045,1.549
			c-0.107,0.412-0.198,0.544-0.297,0.792l-0.3,0.648c-0.799,1.682-1.616,3.396-2.138,4.961c-0.258,0.771-0.402,1.431-0.388,1.895
			c0.013,0.458,0.169,0.693,0.414,0.874c0.517,0.319,0.822,0.383,0.539,0.393l-0.512,0.007c-0.215-0.007-0.516-0.044-0.827-0.287
			c-0.314-0.24-0.549-0.703-0.617-1.233c-0.076-0.536-0.011-1.147,0.165-1.81c0.779-2.618,1.747-4.51,2.129-5.68
			c0.104-0.284,0.179-0.46,0.246-0.611l0.112-0.203l0.031-0.047l0.04-0.101c0.089-0.341,0.271-1.091-0.247-2.755
			c-0.547-1.651-1.084-2.486-1.322-2.901c-0.266-0.39-0.144-0.589,0.374-0.288C288.312,317.844,289.382,319.477,289.37,319.477z"/>
		<path style="fill:#21983A;" d="M292.746,329.569c-0.423,0.76-0.742,1.747-0.865,2.788c-0.125,1.046-0.066,2.152-0.036,3.189
			c0.077,2.085-0.279,3.028-0.344,2.706c-0.038-0.317-0.696-0.865-0.863-2.489c-0.167-1.615-0.219-2.968-0.207-3.787
			c-0.001-0.407,0.062-0.516,0.184-0.809l0.76-1.859c0.993-2.124,1.874-2.07,1.65-1.466
			C292.816,328.467,292.737,329.576,292.746,329.569z"/>
		<path style="fill:#21983A;" d="M288.253,334.241c-0.071,0.794-0.127,1.727-0.156,2.653c-0.012,0.467-0.016,0.927-0.008,1.373
			l0.025,0.609l-0.019,0.105l0.264,0.149l0.56-0.098c0.325-0.115,0.504-0.16,0.422-0.045c-0.083,0.1-0.08,0.342-0.305,0.672
			c-0.117,0.163-0.297,0.341-0.61,0.455c-0.334,0.122-0.79,0.107-1.256-0.045l-0.154-0.073l-0.035-0.175l-0.073-0.35l-0.083-0.639
			l-0.08-0.87c-0.044-0.531-0.085-0.969-0.13-1.289c-0.103-0.633,0.185-0.371,0.273-2.187c0.023-0.897,0.127-1.422,0.279-1.698
			c0.154-0.27,0.36-0.267,0.461-0.002L288.253,334.241z"/>
		<path style="fill:#21983A;" d="M296.838,329.653c2.096,0.427,5.216-0.178,7.529-1.032c2.306-0.834,3.171-1.506,2.969-1.175
			c-0.131,0.143-0.227,0.458-0.547,0.885c-0.316,0.418-0.873,0.943-1.822,1.362c-1.899,0.807-3.498,1.174-4.44,1.431
			c-0.472,0.121-0.616,0.098-0.995,0.073c-0.386-0.04-1.002-0.027-2.45-0.147c-1.46-0.137-2.278-0.632-2.564-0.949
			c-0.289-0.33-0.124-0.48,0.251-0.392C295.544,329.891,296.848,329.664,296.838,329.653z"/>
		<path style="fill:#21983A;" d="M302.736,311.043l2.427-0.613c0.802-0.222,1.627-0.546,2.524-0.87
			c0.889-0.318,1.875-0.653,2.997-0.698c1.124-0.053,2.3,0.328,3.225,0.949c1.767,1.185,3.258,2.805,4.333,4.624
			c1.059,1.796,1.828,3.976,1.364,6.133c-0.236,1.058-0.717,1.895-1.174,2.595c-0.461,0.698-0.916,1.276-1.313,1.798
			c-0.797,1.031-1.323,1.866-1.569,2.548c-0.256,0.677-0.283,1.168-0.313,1.402c-0.027,0.238-0.062,0.224-0.092-0.056
			c-0.05-0.533-0.174-1.434,0.38-2.795c0.268-0.68,0.701-1.437,1.239-2.306c0.52-0.871,1.201-1.856,1.564-3.101
			c0.345-1.239,0.134-2.534-0.282-3.648c-0.418-1.117-1.013-2.097-1.64-2.927c-0.63-0.831-1.296-1.518-1.934-2.051
			c-0.313-0.268-0.641-0.49-0.952-0.711c-0.299-0.217-0.567-0.374-0.828-0.494c-0.514-0.243-0.855-0.318-1.165-0.391
			c-0.313-0.061-0.601-0.108-1.05-0.102c-0.449,0.011-1.057,0.088-2.027,0.401l-1.761,0.609c-0.703,0.25-1.577,0.477-2.513,0.725
			c-3.816,1.052-6.209,1.351-7.307,1.337c-1.106-0.007-0.944-0.241,0.152-0.491C299.227,312.417,302.736,311.043,302.736,311.043z"
			/>
		<path style="fill:#21983A;" d="M311.529,326.55c0.16,0.876,0.92,1.833,1.926,2.548c1.004,0.726,2.213,1.252,3.325,1.661
			c2.227,0.784,3.277,1.018,2.908,1.094c-0.349-0.005-1.19,0.645-3.133,0.114c-1.895-0.553-3.32-1.299-4.156-1.799
			c-0.422-0.251-0.504-0.379-0.739-0.684c-0.204-0.33-0.696-0.754-1.3-2.149c-0.273-0.714-0.282-1.356-0.192-1.814
			c0.082-0.46,0.251-0.75,0.388-0.912c0.288-0.319,0.451-0.169,0.423,0.19c-0.028,0.37,0.072,0.854,0.223,1.194
			C311.354,326.336,311.531,326.55,311.529,326.55z"/>
		<path style="fill:#21983A;" d="M317.492,325.788c0.065,0.728,0.28,1.591,0.68,2.281c0.395,0.697,0.99,1.16,1.683,1.535
			c0.683,0.375,1.241,0.658,1.556,0.884c0.324,0.216,0.412,0.371,0.281,0.346c-0.255-0.07-0.901,0.454-2.255-0.079
			c-1.349-0.538-2.242-1.526-2.653-2.118c-0.211-0.293-0.222-0.405-0.265-0.679c-0.04-0.273-0.126-0.708-0.313-1.656
			c-0.332-1.886,0.318-2.316,0.522-1.814C316.94,324.999,317.489,325.793,317.492,325.788z"/>
		<path style="fill:#21983A;" d="M313.242,309.398c1.981-0.417,4.427-2.05,6.765-2.967c2.362-0.902,3.515-0.589,3.148-0.497
			c-0.357,0.119-0.883,0.831-2.534,1.56c-1.656,0.754-2.91,1.555-3.65,2.037c-0.753,0.46-0.474,0.151-2.969,1.052
			c-1.271,0.41-2.104,0.368-2.483,0.249c-0.382-0.126-0.346-0.335-0.003-0.464C312.224,310.124,313.25,309.403,313.242,309.398z"/>
		<path style="fill:#21983A;" d="M316.995,310.939c0.306-0.568,0.835-1.017,1.377-1.304c0.547-0.295,1.123-0.488,1.694-0.653
			c1.138-0.321,2.286-0.508,3.202-0.745c0.932-0.24,1.299-0.452,1.525-0.753c0.211-0.302,0.308-0.488,0.32-0.324
			c-0.009,0.151,0.16,0.388,0.068,0.862c-0.082,0.477-0.601,1.069-1.413,1.336c-1.615,0.508-2.835,0.762-3.471,1.106
			c-0.313,0.159-0.413,0.153-0.675,0.189l-0.536,0.146c-0.226,0.089-0.536,0.24-0.759,0.546c-0.408,0.594-0.365,1.268-0.501,1.58
			c-0.103,0.326-0.309,0.351-0.458,0.04c-0.141-0.306-0.342-0.75-0.392-1.194C316.906,311.332,316.995,310.932,316.995,310.939z"/>
		<path style="fill:#21983A;" d="M317.494,308.476c1.498-0.232,3.419-1.255,5.137-1.845c1.729-0.589,2.62-0.376,2.369-0.267
			c-0.258,0.106-0.546,0.817-1.809,1.359c-1.265,0.539-2.248,1.065-2.816,1.414c-0.579,0.332-0.382,0.034-2.271,0.581
			c-1.94,0.485-2.408-0.212-1.886-0.416C316.735,309.09,317.499,308.474,317.494,308.476z"/>
		<path style="fill:#21983A;" d="M345.925,214.128c-2.343,4-2.104,11.038-2.844,16.781c-0.766,5.882-2.763,7.851-2.41,6.988
			c0.258-0.862-0.083-2.68,0.337-6.903c0.386-4.265,0.369-7.764,0.451-9.839c0.027-1.042,0.134-1.332,0.365-2.122
			c0.275-0.781,0.487-2.106,1.671-5.086c1.294-3,3.114-4.182,3.934-4.471c0.865-0.302,0.925,0.091,0.36,0.702
			C346.554,211.43,345.876,214.137,345.925,214.128z"/>
		<path style="fill:#21983A;" d="M334.439,215.696c-3.085,3.817-4.845,10.989-6.117,16.75c-1.295,5.808-1.938,8.197-1.981,7.306
			c0.027-0.881-0.89-2.812-0.092-7.378c0.82-4.531,1.691-8.122,2.22-10.251c0.265-1.066,0.433-1.342,0.84-2.104
			c0.439-0.749,0.972-2.047,2.741-4.875c1.83-2.844,3.936-3.852,4.887-3.93c0.979-0.095,0.892,0.317,0.17,0.765
			C335.572,212.958,334.399,215.696,334.439,215.696z"/>
		<path style="fill:#21983A;" d="M321.556,219.336c-1.283,4.371-2.339,10.66-3.171,15.831c-0.82,5.164-1.522,7.308-1.571,6.511
			c0.035-0.786-0.955-2.438-0.497-6.489c0.481-4.026,0.939-7.228,1.106-9.121c0.187-1.886,0.43-1.019,1.726-6.486
			c1.304-5.445,2.619-6.241,2.496-4.626C321.516,216.574,321.556,219.336,321.556,219.336z"/>
		<path style="fill:#21983A;" d="M309.637,221.872c-2.142,3.839-3.286,10.079-3.286,15.141c0,5.051,0.288,7.269-0.068,6.544
			c-0.19-0.731-1.741-2.054-1.973-6.209c-0.15-4.102,0.298-7.364,0.514-9.29c0.117-0.964,0.249-1.218,0.543-1.919
			c0.317-0.694,0.719-1.861,1.867-4.498c1.189-2.631,2.421-3.924,3.106-4.383c0.701-0.464,0.894-0.14,0.543,0.569
			C310.154,219.257,309.62,221.877,309.637,221.872z"/>
		<path style="fill:#21983A;" d="M274.97,219.284c1.596-0.037,3.315,0.011,5.112,0.546c1.779,0.451,3.665,1.938,4.507,3.647
			c2.045,3.292,2.308,7.425,1.992,11.218c-0.325,3.853-1.196,7.645-2.033,11.392c-0.418,1.873-0.843,3.738-1.177,5.584
			c-0.17,0.926-0.307,1.845-0.422,2.756c-0.045,0.485-0.097,0.839-0.123,1.425l-0.09,2.704c-0.886-0.09-1.938-0.255-2.691-0.23
			c-0.471,0.005-0.886,0.031-1.339,0.061c-0.894,0.07-1.799,0.174-2.701,0.29l-5.358,0.791c-8.816,1.339-15.32,2.119-19.165,0.427
			c-0.941-0.434-1.61-1.212-1.792-1.916c-0.177-0.705-0.056-1.199,0.012-1.495c0.197-0.584,0.22-0.504,0.131,0.176
			c-0.089,0.664,0.165,1.694,1.139,2.244c0.942,0.557,2.293,0.719,3.937,0.696c3.313-0.052,7.905-0.894,14.519-2.014l6.153-0.99
			c0.995-0.144,1.98-0.268,2.964-0.354c0.479-0.041,1.004-0.071,1.453-0.083c0.271-0.007,0.418-0.006,0.619,0.014l0.023-0.595
			c0.016-0.446,0.075-0.967,0.113-1.435c0.109-0.952,0.235-1.875,0.386-2.757c0.294-1.775,0.636-3.415,0.948-4.94
			c0.637-3.049,1.144-5.632,1.437-7.711c0.4-3.049,0.55-3.897,0.729-6.251c0.048-1.165,0.129-2.742-0.398-4.984
			c-0.264-1.11-0.802-2.363-1.684-3.669c-0.793-1.189-2.38-2.011-4.564-2.214c-4.399-0.3-8.145,0.633-10.992,0.974
			c-2.87,0.432-4.953,0.597-6.271,0.545c-2.642-0.202-2.129-0.501,0.486-0.818c2.634-0.392,6.072-1.373,8.941-2.05
			C272.624,219.559,274.969,219.279,274.97,219.284z"/>
		<path style="fill:#21983A;" d="M259.853,280.442c-0.228,3.078,0.228,7.428,0,11.051c-0.228,3.621-1.141,5.07-1.141,4.529
			c0-0.544-0.912-1.631-0.912-4.349c0-2.718-0.23-4.89-0.456-6.158c-0.228-1.27,0.227-0.727,0.227-4.531
			c0-3.802,1.142-4.528,1.37-3.442C259.168,278.63,259.853,280.442,259.853,280.442z"/>
		<path style="fill:#21983A;" d="M273.576,278.164c-0.717,3.371-0.689,8.271,0.828,11.564c0.721,1.663,1.501,2.757,1.947,3.477
			c0.465,0.701,0.56,1.041,0.311,0.856c-0.245-0.184-0.752-0.264-1.486-0.647c-0.721-0.376-1.714-1.096-2.504-2.565
			c-1.518-2.963-1.763-5.625-2.041-7.112c-0.181-1.502,0.112-0.904,0.6-5.264c0.612-4.31,1.876-4.922,1.916-3.681
			C273.187,276.051,273.568,278.17,273.576,278.164z"/>
		<path style="fill:#21983A;" d="M292.158,275.251c-0.341,2.648-0.092,6.326,0.069,9.247c0.173,2.886-0.006,4.283-0.218,3.884
			c-0.127-0.409-1.428-1.024-1.794-3.457c-0.31-2.389-0.499-4.287-0.718-5.4c-0.202-1.104,0.223-0.641,0.361-3.903
			c0.136-3.226,1.229-3.832,1.46-2.902C291.544,273.656,292.158,275.251,292.158,275.251z"/>
		<path style="fill:#21983A;" d="M305.43,270.537c-0.432,2.678-0.626,6.399-0.672,9.259c-0.03,2.821-0.137,4.22-0.367,3.823
			c-0.114-0.404-1.452-1.036-1.675-3.535c-0.137-2.43-0.112-4.336-0.24-5.456c-0.117-1.113,0.313-0.617,0.641-3.822
			c0.255-3.154,1.289-3.785,1.533-2.848C304.885,268.899,305.432,270.534,305.43,270.537z"/>
		<path style="fill:#21983A;" d="M319.881,267.434c-0.192,3.384,0.585,8.016,1.938,11.467c1.366,3.439,2.019,5.095,1.56,4.679
			c-0.313-0.476-1.981-0.785-3.35-3.661c-1.285-2.859-1.865-5.303-2.288-6.711c-0.36-1.413,0.032-0.868-0.129-5.126
			c-0.064-4.244,1.117-5.021,1.336-3.826C319.169,265.461,319.878,267.439,319.881,267.434z"/>
		<path style="fill:#21983A;" d="M336.883,312.774c0.503,2.648,1.501,6.151,2.241,8.931c0.741,2.758,0.756,4.178,0.487,3.815
			c-0.192-0.385-1.557-0.735-2.374-2.995c-0.772-2.23-1.349-3.999-1.815-4.995c-0.466-0.986,0.117-0.674-0.626-3.727
			c-0.812-2.952-0.122-3.903,0.454-3.143C335.811,311.435,336.885,312.77,336.883,312.774z"/>
		<path style="fill:#21983A;" d="M348.681,303.472c0.169,4.163,1.542,9.964,3.016,14.478c1.404,4.513,2.704,5.98,2.107,5.615
			c-0.475-0.413-2.483-0.991-3.933-4.645c-1.364-3.582-2.129-6.509-2.701-8.206c-0.508-1.709-0.052-1.027-0.684-6.275
			c-0.503-5.308,0.852-6.319,1.039-4.827C347.774,301.094,348.676,303.477,348.681,303.472z"/>
	</g>
	<g>
		<path style="fill:#21983A;" d="M188.609,108.748c-3.718,3.718-4.144-4.834,0.689-6.905
			C194.132,99.771,192.751,104.604,188.609,108.748z"/>
		<path style="fill:#21983A;" d="M149.802,132.971c2.033-3.05,6.559-7.652,9.292-7.652c2.733,0,3.279,8.745-1.64,9.838
			C152.535,136.249,147.615,136.249,149.802,132.971z"/>
		<path style="fill:#21983A;" d="M140.967,152.936c0.947-3.789-2.072-7.596,3.452-6.214c5.523,1.381,6.214,7.596,2.762,9.668
			C143.728,158.46,140.276,155.697,140.967,152.936z"/>
		<path style="fill:#21983A;" d="M125.51,164.595c3.981,2.388,2.972,4.16,0,8.32c-2.971,4.16-1.189,10.104-6.537,7.725
			C113.625,178.264,119.567,161.029,125.51,164.595z"/>
		<path style="fill:#21983A;" d="M137.514,184.007c-7.719,0-15.189,12.429-8.975,11.738c6.214-0.69,11.737,0.691,14.499-2.072
			C145.8,190.911,141.657,184.007,137.514,184.007z"/>
		<path style="fill:#21983A;" d="M135.444,204.029c5.46-4.55,12.429-4.833,11.047-0.69c-1.38,4.143-2.762,4.144-5.523,4.834
			C138.205,208.862,131.301,207.483,135.444,204.029z"/>
		<path style="fill:#21983A;" d="M111.404,238.366c3.668,2.568,7.287,8.328,1.041,9.89C106.2,249.816,106.2,234.723,111.404,238.366
			z"/>
		<path style="fill:#21983A;" d="M112.659,215.767c-2.847-2.847-1.381-6.213,2.071-7.594
			C118.182,206.791,117.492,220.6,112.659,215.767z"/>
		<path style="fill:#21983A;" d="M104.373,271.003c5.259,0,5.524,8.285,1.381,8.285C101.612,279.288,101.61,271.003,104.373,271.003
			z"/>
		<path style="fill:#21983A;" d="M131.991,331.763c10.998,1.737,10.357,2.762,4.834,4.143c-5.524,1.38-5.523,10.356-13.119,8.285
			C116.111,342.119,118.873,329.691,131.991,331.763z"/>
		<path style="fill:#21983A;" d="M131.991,356.619c9.061-2.471,20.714-4.143,15.19,0c-5.524,4.142-6.905,11.737-13.119,9.665
			C127.849,364.214,124.397,358.691,131.991,356.619z"/>
	</g>
</g>
</svg>
