<?xml version="1.0" encoding="iso-8859-1"?>
<!-- Generator: Adobe Illustrator 18.1.1, SVG Export Plug-In . SVG Version: 6.00 Build 0)  -->
<svg version="1.1" id="_x37_" xmlns="http://www.w3.org/2000/svg" xmlns:xlink="http://www.w3.org/1999/xlink" x="0px" y="0px"
	 viewBox="0 0 512 512" style="enable-background:new 0 0 512 512;" xml:space="preserve">
<g>
	<path style="fill:#21983A;" d="M136.593,188.421c-1.259-1.022-2.512-2.088-3.745-3.164c-1.188-1.041-2.327-2.166-3.414-3.317
		c-3.106-3.196-8.585-9.983-13.535-16.56c-4.939-6.575-9.706-12.711-11.048-14.731c-1.739-2.757-4.509-5.892-7.626-7.576
		c-1.532-0.842-3.174-1.287-4.444-1.106c-1.291,0.17-1.999,0.943-2.101,2.069c-0.132,1.842,0.973,3.198,2.835,5.167
		c1.847,1.897,4.333,4.102,6.193,5.295c1.241,0.731,6.455,6.124,11.951,12.448c5.498,6.298,11.611,13.169,14.943,16.249
		c3.446,3.345,7.045,6.041,9.316,8.063c0.424,0.364,1.437,1.206,3.001,2.363c1.577,1.134,3.677,2.652,6.558,3.923
		c1.441,0.617,3.11,1.155,4.99,1.285c1.871,0.14,3.934-0.233,5.791-1.142c1.867-0.899,3.529-2.238,5.011-3.764
		c1.503-1.588,2.713-3.131,4.259-4.638c6.025-6.058,13.047-12.271,19.796-18.178c6.768-5.895,13.35-11.433,18.828-15.942
		c10.784-8.866,14.634-10.369,18.59-13.279c3.965-2.899,12.021-5.458,13.57-6.462c3.115-2.024,6.799-14.1,3.231-11.632
		c-1.209,0.837-5.984,2.253-10.573,6.276c-2.209,1.942-3.788,3.387-7.425,6.412l-19.462,16.202
		c-5.413,4.568-11.932,10.142-18.669,16.084c-6.727,5.963-13.718,12.203-19.892,18.458c-1.544,1.515-3.027,3.368-4.284,4.71
		c-1.333,1.386-2.77,2.529-4.256,3.241c-2.969,1.494-6.096,0.884-8.69-0.288c-2.605-1.17-4.722-2.685-6.346-3.862
		C138.32,189.828,137.183,188.896,136.593,188.421z"/>
	<path style="fill:#21983A;" d="M210.88,47.015c-3.463-1.732-7.688-2.045-11.321-1.172c-3.845,0.699-7.152,3.285-9.22,5.98
		c-2.131,2.717-3.485,5.475-4.706,7.773c-1.201,2.317-2.245,4.212-3.209,5.517c-0.225,0.296-0.515,0.719-0.692,0.92l-0.091,0.066
		l-0.228,0.273l-0.454,0.558c-0.602,0.752-1.186,1.541-1.733,2.329c-1.097,1.585-2.052,3.16-2.786,4.591l-0.505,1.053l-0.216,0.507
		c-0.087,0.199-0.074,0.25-0.284,0.634c-0.026,0.288-0.015,0.295,0.148,0.504l0.142,0.186l0.006,0.006l-0.048-0.07
		c0.034,0.072,0.011,0.163-0.199,0.364c-0.167,0.155-0.671,0.628-0.824,1.066c-0.184,0.452-0.147,0.746-0.106,0.962
		c0.107,0.422,0.32,0.598,0.526,0.763c0.434,0.29,0.932,0.354,1.499,0.276c0.425-0.04,0.955-0.322,1.156-0.316l-0.598-0.146
		l-0.36-0.142l-0.098-0.064l0.02,0.019l0.1,0.119l0.071,0.108l0.029,0.059l0.139,0.22c0.188,0.301,0.438,0.776,0.519,0.977
		l0.065,0.03l0.269-0.015c0.243-0.046,0.536-0.146,0.819-0.28c0.573-0.273,1.029-0.623,1.432-0.985
		c0.276-0.292,0.136-0.026,0.365-0.246l0.452-0.369c0.613-0.509,1.204-1.119,1.785-1.778c1.155-1.325,2.177-2.861,3.018-4.32
		c0.424-0.733,0.797-1.446,1.125-2.122l0.449-0.98c0.125-0.222,0.28-0.559,0.335-0.75l0.152-0.505l1.963-6.512
		c0.902-2.809,1.996-6.172,4.031-8.996c1.016-1.399,2.296-2.62,3.806-3.468c1.443-0.835,3.283-1.278,4.93-1.507
		c3.381-0.452,6.433,0.611,8.345,1.878c3.896,2.533,6.739,6.448,9.309,10.257c2.563,3.851,4.854,7.756,7.383,11.238
		c1.263,1.744,2.815,2.967,4.205,3.563c1.386,0.608,2.563,0.591,3.156,0.168c0.603-0.431,0.662-1.217,0.064-2.338
		c-0.603-1.13-1.851-2.639-4.007-4.956c-4.281-4.727-6.58-7.93-9.046-10.918c-1.234-1.513-2.48-3.033-4.119-4.735
		C216.188,50.616,214.162,48.643,210.88,47.015z"/>
	<path style="fill:#21983A;" d="M116.817,54.796c0.945,0.839,1.834,1.785,2.626,2.774c0.551,0.702,1.343,1.744,2.162,2.999
		c0.409,0.627,0.83,1.302,1.238,2.009l0.607,1.07c0.115,0.21,0.178,0.318,0.2,0.403l0.204,0.517
		c0.589,1.518,1.163,3.133,1.719,4.479c0.545,1.352,1.072,2.448,1.246,3.031c0.414,1.577,1.89,3.377,3.657,3.883
		c1.78,0.536,3.292-0.307,3.896-2.471c0.509-1.787,0.234-2.889-0.157-3.595c-0.415-0.696-1.221-1.175-2.115-1.431
		c-0.286-0.074-0.899-0.561-1.639-1.467c-0.745-0.901-1.584-2.223-2.483-3.726l-0.734-1.212c-0.382-0.549-0.581-0.761-0.882-1.153
		c-0.559-0.693-1.114-1.367-1.656-1.986c-1.083-1.242-2.081-2.279-2.783-2.919c-1.458-1.371-2.859-2.603-3.76-3.529
		c-0.338-0.322-1.609-1.547-3.87-2.832c-1.129-0.604-2.495-1.299-4.212-1.636c-1.689-0.339-3.777-0.208-5.587,0.748
		c-1.816,0.931-3.264,2.451-4.381,4.085c-1.125,1.645-1.982,3.425-2.695,5.189c-0.321,0.874-0.738,1.753-0.934,2.762
		c-0.197,0.854-0.43,1.683-0.649,2.489c-0.466,1.607-0.968,3.111-1.452,4.46c-1.971,5.295-3.425,8.23-4.277,10.066
		c-0.879,1.831-1.282,2.518-1.657,3.197c-1.514,2.793,3.911,6.473,4.628,1.596c0.189-1.189,0.313-2.066,0.896-3.913
		c0.559-1.861,1.687-4.64,3.465-9.896c0.457-1.41,0.942-2.98,1.394-4.668c0.213-0.848,0.44-1.719,0.631-2.62
		c0.119-0.559,0.126-0.593,0.305-1.106l0.447-1.23c1.224-3.228,3.09-6.552,5.587-7.853c2.444-1.352,5.245-0.324,7.287,0.816
		C115.109,53.248,116.38,54.406,116.817,54.796z"/>
	<path style="fill:#21983A;" d="M246.457,84.494c0.428,1.95,0.93,3.923,1.497,5.829c0.4,1.34,1.047,3.298,1.992,5.46
		c0.477,1.072,0.986,2.215,1.681,3.387c0.657,1.117,1.376,2.223,2.141,3.271c2.987,4.254,6.963,7.415,8.195,8.508
		c1.538,1.577,6.266,5.591,8.637,5.401c2.402-0.163,1.876-4.358,1.445-6.566c-0.339-1.838-1.481-2.671-2.666-3.269
		c-1.202-0.564-3.625-4.029-4.872-4.089c-0.403-0.004-1.509-0.398-2.954-1.261c-1.443-0.856-2.886-0.914-4.524-2.586
		c-1.653-1.692-2.564-1.768-3.648-3.688c-1.124-1.916-1.947-3.701-2.466-4.89c-1.104-2.507-1.81-5.032-2.039-6.791
		c-0.087-0.644-0.534-3.004-0.967-6.495c-0.469-3.506-0.799-8.084-1.477-13.25c-0.769-5.168-2.758-10.732-6.078-15.204
		c-3.265-4.517-7.664-7.747-11.514-9.75c-3.806-1.992-7.03-2.987-9.584-3.695c-2.564-0.687-4.496-1.047-5.973-1.31
		c-2.961-0.502-4.114-0.657-5.242-0.827c-2.298-0.32-4.031,1.202-4.246,2.607c-0.216,1.427,0.935,2.673,4.32,2.297
		c1.649-0.159,2.874-0.293,5.55-0.07c1.336,0.125,3.037,0.345,5.289,0.867c2.242,0.536,5.068,1.35,8.41,3.008
		c3.555,1.759,7.543,4.608,10.53,8.627c3.036,3.976,4.924,9.019,5.695,13.873c0.689,4.911,1.079,9.731,1.612,13.385
		C245.701,80.956,246.253,83.584,246.457,84.494z"/>
	<path style="fill:#21983A;" d="M232.35,27.644c0.752,0.195,1.497,0.447,2.197,0.736c0.983,0.411,2.861,1.27,4.308,2.387
		c1.48,1.1,2.398,2.401,2.362,2.984c-0.003,0.812,0.178,1.354,0.859,1.497c0.67,0.123,1.954,0.034,4.023-0.88
		c1.681-0.746,2.227-1.91,1.965-2.972c-0.246-1.056-1.225-1.835-2.1-1.933c-0.571-0.1-2.487-1.407-4.635-2.209
		c-2.139-0.859-4.455-1.384-5.602-1.543c-1.209-0.176-2.308-0.381-3.016-0.695c-0.513-0.235-4.003-1.189-8.336-1.573
		c-4.326-0.43-9.457-0.235-13.044,0.358c-3.532,0.564-5.535,1.246-6.793,1.672l-2.273,0.827c-1.055,0.42-2.96,2.914-2.379,4.193
		c1.28,2.813,4.423,0.954,5.053-0.095c0.349-0.521,0.63-0.937,1.514-1.496c0.89-0.54,2.404-1.278,5.458-1.924
		c3.25-0.706,8.093-1.003,12.228-0.67C228.287,26.596,231.657,27.453,232.35,27.644z"/>
	<path style="fill:#21983A;" d="M247.952,16.477c2.041,0.702,3.68,1.713,4.899,2.637c1.376,1.049,2.114,1.995,2.761,2.702
		c1.226,1.437,1.907,2.128,2.189,2.711c0.273,0.559-0.091,1.024-1.144,0.981c-1.037-0.04-2.522-0.816-3.702-2.039
		c-2.16-2.349-4.983-3.841-7.801-4.521c-1.423-0.345-2.863-0.528-4.289-0.667l-2.112-0.201l-0.043,0.004l-0.268,0.004l-0.54-0.002
		l-1.028-0.025c-5.314-0.203-10.542-0.379-15.726-0.333c-2.569,0.038-6.506,0.045-8.606,1.09c-1.079,0.481-1.486,1.399-1.699,1.543
		c-0.111,0.07-0.213-0.057-0.198-0.485c0.016-0.415,0.26-1.176,0.99-1.869c1.475-1.314,2.94-1.776,4.235-2.262
		c1.314-0.449,2.534-0.769,3.802-1.041c2.533-0.534,5.262-0.875,9.31-0.863c2.023,0.009,4.208,0.095,6.333,0.21l3.086,0.17
		l0.369,0.013c0.223-0.009,0.496,0.049,0.577,0.059l0.736,0.112l1.429,0.24C245.262,15.242,247.981,16.473,247.952,16.477z"/>
	<path style="fill:#21983A;" d="M271.129,31.111c2.72,4.345,4.497,7.582,5.662,9.837c1.159,2.27,1.7,3.512,1.804,4.197
		c0.162,0.693-0.485,0.939-1.579,0.297c-1.056-0.619-2.29-1.971-3.383-3.856c-4.267-7.541-8.892-14.721-12.552-20.336
		c-0.907-1.393-1.847-2.772-2.832-3.962c-0.471-0.566-1.045-1.153-1.362-1.348c-0.62-0.379-1.341-0.755-2.053-1.094
		c-2.895-1.365-6.056-2.382-9.252-3.161c-3.188-0.827-8.126-1.562-11.278-1.168c-1.571,0.148-2.682,0.481-2.959,0.379
		c-0.265-0.049,0.291-0.748,2.438-1.481c2.149-0.682,4.044-0.916,5.789-1.056c1.747-0.125,3.366-0.133,5.029-0.025
		c3.319,0.261,6.882,0.733,11.879,2.91c0.625,0.28,1.251,0.602,1.889,0.954c0.316,0.189,0.636,0.346,1.081,0.686
		c0.379,0.288,0.673,0.574,0.96,0.861c1.103,1.149,1.927,2.315,2.728,3.487c1.576,2.342,2.917,4.676,4.085,6.738
		C269.538,28.095,271.122,31.113,271.129,31.111z"/>
	<path style="fill:#21983A;" d="M288.977,79.258c0.017,0.934-0.078,1.882-0.178,2.898c-0.125,1.395-0.483,4.246,0.126,7.224
		c0.294,1.479,0.885,2.936,1.54,4.065c0.645,1.14,1.319,1.927,1.547,2.397c0.632,1.272,2.058,2.291,3.347,2.255
		c1.311-0.009,2.376-1.015,2.911-3.194c0.444-1.8,0.128-2.876-0.316-3.438c-0.455-0.566-1.091-0.657-1.788-0.494
		c-0.435,0.118-2.022-0.534-3.018-2.433c-1.037-1.852-1.307-4.6-1.458-5.929c-0.158-1.399-0.176-2.834-0.083-3.76
		c0.036-0.345,0.087-1.619-0.083-3.503c-0.146-1.883-0.719-4.375-1.609-6.87c-0.88-2.516-1.845-5.127-2.68-7.732
		c-0.859-2.582-1.651-5.123-2.621-7.201c-1.967-4.017-3.377-5.956-4.083-7.308c-0.749-1.314-0.983-1.855-1.225-2.378
		c-0.983-2.109-6.905,0.56-3.935,2.91c0.716,0.568,1.258,0.975,2.189,2.058c0.881,1.087,2.372,2.826,4.148,6.13
		c0.913,1.755,1.749,4.167,2.664,6.745c0.882,2.569,1.943,5.314,2.83,7.724c0.903,2.429,1.419,4.566,1.591,6.327
		C288.982,77.503,288.967,78.809,288.977,79.258z"/>
	<path style="fill:#21983A;" d="M331.039,125.612l-5.386-5.276l-5.197-5.004l-3.397-3.158c-1.24-1.117-2.483-2.033-3.639-3.056
		c-4.727-3.979-8.523-8.193-9.328-9.714c-1.155-2.043-2.747-4.26-4.362-5.716c-1.621-1.433-3.394-2.238-5.293-0.984
		c-1.542,1.022-1.365,3.353-0.186,5.577c1.157,2.234,3.23,4.237,4.834,5.131c1.031,0.629,5.511,4.655,10.805,8.371
		c1.302,0.932,2.701,1.901,3.987,2.758c1.244,0.916,2.45,1.899,3.597,2.789l5.591,4.57c2.768,2.273,5.262,4.564,6.82,6.264
		c0.568,0.623,2.772,2.838,5.969,6.085c3.12,3.355,7.686,7.334,12.423,11.804c4.713,4.453,9.845,9.549,13.713,14.842
		c3.693,5.674,6.699,11.439,8.471,16.408c1.762,4.879,2.366,8.902,2.261,11.991c-0.094,3.103-0.828,5.25-1.565,6.747
		c-1.576,2.968-2.771,3.695-3.699,4.521c-1.957,1.532-3.012,3.718-2.65,5.148c0.197,0.695,0.797,1.153,1.899,1.019
		c1.077-0.142,2.725-0.909,4.453-2.94c0.819-0.986,1.455-1.904,2.117-3.027c0.654-1.125,1.347-2.469,1.976-4.406
		c1.244-3.807,1.982-10.391-1.761-20.175c-1.958-5.212-5.113-11.102-8.934-16.874l-0.359-0.54c-0.135-0.227-0.359-0.492-0.474-0.634
		l-0.826-1.022l-1.702-2.016c-1.162-1.325-2.345-2.639-3.563-3.902c-2.42-2.542-4.929-4.937-7.357-7.203
		c-4.886-4.549-9.415-8.451-12.643-11.862L331.039,125.612z"/>
	<path style="fill:#21983A;" d="M81.773,118.933c-0.001,0.568-0.107,1.172-0.279,1.761c-0.224,0.829-0.868,2.455-1.652,4.078
		c-0.782,1.607-1.545,3.288-2.058,3.777c-0.716,0.632-1.072,1.672-0.617,2.535c0.453,0.875,1.689,1.426,3.942,1.335
		c3.673-0.195,3.819-1.384,2.906-2.429c-0.321-0.318-0.394-1.81-0.189-3.608c0.199-1.778,0.5-3.847,0.475-4.89
		c0.005-1.1-0.004-2.111,0.108-2.826c0.163-0.655-0.384-3.652-0.897-7.277c-0.559-3.618-0.918-7.838-0.188-10.522
		c0.665-2.647,1.666-3.896,2.237-4.653c0.618-0.744,0.94-0.967,1.235-1.198c1.145-0.814-2.99-5.856-3.966-2.866
		c-0.199,0.723-0.327,1.253-0.775,2.304c-0.399,1.055-1.303,2.637-1.899,5.774c-0.684,3.381-0.124,7.953,0.517,11.615l0.828,4.829
		l0.155,0.924c0.04,0.24,0.074,0.439,0.087,0.608C81.776,118.543,81.774,118.8,81.773,118.933z"/>
	<path style="fill:#21983A;" d="M146.714,33.142c-2.118-0.263-6.194,3.773-7.818,4.64c-1.646,0.875-0.773-1.459-2.14-1.157
		c-1.353,0.318-2.267-0.754-2.391-2.319c-0.145-1.547,0.704-3.466,1.704-3.976c1.955-1.094,5.551-2.402,8.323-3.091
		c1.383-0.426,6.851-1.571,12.051-2.419l3.765-0.701l0.872-0.182c0.082-0.015,0.397-0.098,0.651-0.125l0.458-0.064l1.679-0.235
		l4.332-0.56c1.175-0.136,6.421-0.511,11.97-0.579c5.551-0.11,11.354,0.377,13.59-0.049c9.452-1.804,9.66,1.104,7.663,1.394
		c-0.992,0.157-1.929,6.611-4.22,6.52l-10.791-3.196c-0.57-0.009-3.9-0.655-7.501-0.958c-3.596-0.327-7.432-0.348-8.751,0.097
		c-1.322,0.43-3.924,0.759-6.584,1.058c-0.68,0.089-1.321,0.112-1.948,0.246l-1.89,0.308l-3.036,0.468
		c-1.534,0.269-3.704,1.507-5.628,2.685C149.141,32.118,147.496,33.237,146.714,33.142z"/>
	<path style="fill:#21983A;" d="M61.665,97.733c-0.416,1.204-0.875,2.414-1.366,3.568c-0.684,1.628-2.049,4.744-3.545,7.537
		c-1.484,2.8-3.105,5.254-3.884,5.829c-2.074,1.579-3.548,4.708,0.397,6.906c3.247,1.797,5.339-1.59,5.142-3.699
		c-0.045-0.687,1.011-3.588,2.028-6.776c1.035-3.188,2.032-6.664,2.442-8.389c0.439-1.819,0.93-3.497,1.439-4.583
		c0.383-0.787,2.236-6.075,4.205-12.538c1.983-6.457,4.222-14.04,6.171-19.185c1.896-5.072,3.327-7.768,4.268-9.385
		c0.954-1.611,1.431-2.154,1.861-2.709c0.872-1.087,0.236-2.779-0.818-3.741c-1.033-0.956-2.679-1.011-3.502,1.441
		c-0.375,1.176-0.619,2.037-1.321,3.824c-0.689,1.791-1.842,4.508-3.535,9.492c-1.823,5.312-3.962,12.923-5.872,19.418
		C63.88,91.251,62.069,96.608,61.665,97.733z"/>
	<path style="fill:#21983A;" d="M107.853,35.022c-1.089,0.17-2.32,0.441-3.401,0.831c-1.568,0.454-4.359,1.992-6.539,3.595
		c-2.214,1.59-4.138,2.779-4.918,2.792c-1.051,0.072-1.973,0.437-2.432,1.261c-0.444,0.822-0.537,2.179,0.425,4.227
		c0.785,1.668,2.028,2.17,3.186,1.916c1.16-0.24,2.115-1.198,2.407-2.105c0.23-0.579,2.03-2.541,3.729-4.512
		c1.705-1.995,3.749-3.688,4.919-4.354c1.187-0.769,2.49-1.1,3.43-1.117c0.337,0.019,1.579-0.165,3.349-0.015
		c1.762,0.144,4.05,0.716,6.197,2.09c1.071,0.683,2.116,1.526,3.07,2.499c0.477,0.487,0.941,0.996,1.376,1.53
		c0.422,0.504,0.913,1.159,1.149,1.501c0.578,0.829,1.079,1.664,1.509,2.453l0.593,1.146l0.259,0.54l0.121,0.259l-0.256,0.023
		l-3.703-0.151l-2.491-0.167c-1.564-0.114-2.168-0.227-2.76-0.32c-2.388-0.377-3.584,6.02,0.199,4.89
		c0.914-0.273,1.585-0.492,3.075-0.659l1.536-0.136l2.382-0.148c1.791-0.095,4.016-0.184,6.862-0.273l0.475-0.079l-0.283-0.541
		l-0.584-1.108l-1.235-2.292c-0.851-1.556-1.82-3.213-2.99-4.839c-0.659-0.909-1.043-1.386-1.562-1.995
		c-0.498-0.585-1.026-1.155-1.582-1.7c-1.103-1.094-2.344-2.071-3.64-2.87c-2.6-1.622-5.474-2.306-7.647-2.412
		C109.89,34.657,108.371,34.939,107.853,35.022z"/>
	<path style="fill:#21983A;" d="M88.855,34.619c-0.958,0.92-1.84,1.918-2.644,2.912c-1.171,1.376-3.026,4.252-4.599,6.87
		c-1.587,2.635-3.156,4.811-3.93,5.204c-1.037,0.587-1.848,1.399-2.049,2.368c-0.176,0.965,0.094,2.312,1.596,4.004
		c1.223,1.374,3.106,0.712,1.732,1.041c-2.184,0.524,1.049-5.401,1.043-6.45c0.045-0.695,4.14-0.835,5.172-3.731
		c1.048-2.914,2.366-5.88,3.15-7.274c0.782-1.49,1.793-2.734,2.675-3.343c0.329-0.25,1.35-1.128,3.273-2.067
		c1.891-0.945,4.551-1.944,7.558-2.715c5.977-1.594,13.466-2.113,18.172-0.719c2.309,0.64,3.855,1.613,4.807,2.548
		c0.96,0.943,1.382,1.823,1.624,2.512c0.45,1.401,0.326,2.031,0.309,2.595c-0.077,1.102,1.291,2.13,2.692,2.459
		c1.332,0.326,2.928-0.42,2.148-3.177c-0.46-1.274-0.773-2.236-1.891-4.121c-1.071-1.806-3.608-4.703-8.881-5.945
		c-5.583-1.406-13.349-0.685-19.705,1.064c-3.191,0.863-6.052,1.967-8.217,3.109C90.71,32.858,89.253,34.225,88.855,34.619z"/>
	<path style="fill:#21983A;" d="M42.047,133.343c6.334-7.029,8.938-16.891,13.225-22.226c1.062-1.337,1.854-1.668,2.58-1.482
		c0.719,0.184,1.313,1.009,1.635,2.215c0.657,2.402,0.348,6.039-0.703,7.968c-2.098,3.877-5.972,10.717-9.069,16.005l-0.786,1.34
		l-0.541,0.916l-0.306,0.515l-0.171,0.288l-0.299,0.468c-1.131,1.581-2.419,3.281-3.997,5.244
		c-3.111,3.894-7.112,8.391-10.934,12.838c-3.834,4.445-7.394,8.924-9.837,12.699c-1.229,1.882-2.199,3.574-2.908,4.936
		c-0.364,0.683-0.636,1.27-0.875,1.757l-0.655,1.361c-0.604,1.299-2.732,4.803-5.854,8.466c-1.517,1.855-3.163,3.775-4.458,5.861
		c-1.303,2.084-2.242,4.392-2.662,6.984c-0.428,2.476-0.373,5.417,0.176,7.658c0.567,2.306,1.725,3.913,3.349,5.015
		c1.622,1.113,3.652,1.738,5.456,2.118c1.817,0.377,3.432,0.528,4.595,0.553c4.67,0.049,7.868,1.772,9.102,3.559
		c1.25,1.776,0.674,3.478-1.49,3.461c-2.173-0.078-7.51-0.473-12.915-1.626c-2.688-0.596-5.418-1.554-7.493-2.893
		c-2.096-1.308-3.36-2.898-3.824-3.535c-0.481-0.611-1.944-3.135-2.264-6.596c-0.187-1.715-0.153-3.612,0.059-5.57
		c0.225-2.012,0.708-4.067,1.452-6.07c1.475-4.051,4.243-7.383,6.535-10.015c2.321-2.641,4.063-4.926,4.7-6.312
		c0.704-1.374,1.575-3.287,2.685-5.706c1.158-2.368,2.725-4.936,4.471-7.396c3.494-4.928,7.631-9.434,9.894-12.08
		c2.262-2.643,4.937-7.273,7.196-11.543l3-5.825l0.62-1.158c0.19-0.354,0.443-0.763,0.395-0.75
		C41.428,134.193,41.755,133.658,42.047,133.343z"/>
	<path style="fill:#21983A;" d="M69.541,143.621c-1.904,1.825-3.747,2.974-5.776,4.92c-1.952,2.037-3.626,4.549-4.73,8.25
		c-1.035,3.68-1.513,5.664-2.098,7.306c-0.552,1.64-1.099,2.935-1.561,5.17c-0.897,4.441-0.682,3.605-2.787,9.54
		c-2.188,5.791,0.028,0.025-0.929,4.265c-1.018,4.121,0.025,6.266,0.044,6.312c1.687-0.901,3.343-1.993,4.961-3.171
		c0.597-3.402,0.906-6.738,1.207-10.039c0.006-0.021,2.503-8.663,3.517-11.9c0.464-1.662,1.355-3.625,2.344-5.331
		c0.985-1.719,2.081-3.141,2.724-4.108c0.322-0.485,0.651-1.145,1.026-1.889c0.341-0.708,0.774-1.477,1.454-2.412
		c1.279-1.829,2.891-3.805,4.525-5.519c1.672-1.776,1.372-3.237,0.396-3.425C72.87,141.376,71.405,141.864,69.541,143.621z"/>
	<path style="fill:#21983A;" d="M72.364,173.635c-0.968-0.009-1.952-0.038-2.913-0.081c-1.353-0.066-3.972-0.149-6.482-0.117
		c-2.507,0.008-4.909,0.178-5.717-0.061c-2.215-0.7-5.148,0.727-3.315,4.884c1.461,3.374,3.648,2.726,4.559,1.393
		c0.283-0.447,2.209-1.299,4.507-1.912c2.284-0.632,4.893-1.045,6.176-1.276c1.354-0.246,2.647-0.333,3.523-0.191
		c0.643,0.079,4.754,0.293,9.807,0.447c5.041,0.17,11.098-0.116,15.299-1.197c4.133-1.011,6.352-2.196,7.73-2.851l2.438-1.244
		c1.083-0.572,0.772-2.313-0.085-3.43c-0.871-1.13-2.092-1.753-2.961-0.402c-0.442,0.659-0.776,1.159-1.77,1.935
		c-1.005,0.748-2.675,1.842-6.173,2.866C89.529,174.813,74.174,173.448,72.364,173.635z"/>
	<path style="fill:#21983A;" d="M54.95,221.349c-1.358-0.091-2.734-0.216-4.069-0.377c-3.764-0.402-14.46-1.941-16.149-3.114
		c-1.175-0.74-2.667-1.174-3.854-0.913c-1.24,0.254-1.915,1.257-2.956,3.264c-0.177,0.424-0.267,0.833-0.226,1.233
		c0.062,0.407,0.207,0.778,0.39,1.102c0.379,0.649,0.964,1.123,1.607,1.433c1.293,0.619,2.836,0.591,3.85,0.17
		c1.367-0.443,12.916-0.11,16.667-0.311c1.978-0.07,3.836-0.034,5.091,0.176c0.459,0.074,2.168,0.235,4.672,0.388
		c1.257,0.068,2.692,0.155,4.335,0.15c1.672-0.059,3.319-0.174,5.132-0.276c7.169-0.415,15.598-1.049,21.522-1.774
		c5.828-0.701,11.173,1.816,13.24,1.443l5.816,0.322c1.626-0.292,0.646-5.492-2.222-7.646c-1.142-0.858-1.514-2.319-3.583-1.1
		c-1.022,0.579-1.78,1.021-3.591,1.622c-1.816,0.589-4.699,1.344-10.094,2.156c-5.753,0.878-14.064,1.609-21.258,2.109l-5.049,0.329
		c-1.503,0.023-2.987-0.045-4.255-0.098L54.95,221.349z"/>
	<path style="fill:#21983A;" d="M379.798,244.122l0.167,0.032c-0.055-0.015,1.013,0.22,0.793,0.216c0.023,0,1.038-0.14,0.623-0.019
		c0.242-0.072,0.649-0.269,0.755-0.371l0.369-0.471c-0.483-0.871-0.826-1.526-1.047-1.897c-0.882-1.543-1.815-3.09-2.763-4.563
		c-1.294-2.107-4.121-5.906-6.623-9.388c-2.505-3.495-4.548-6.882-4.884-8.099c-0.94-3.26-3.795-7.105-7.464-4.466
		c-3.016,2.171-0.962,10.477,1.342,11.755c0.739,0.426,4.38,2.253,7.432,5.492c3.06,3.239,2.409,8.54,3.877,10.34
		c1.585,1.865,6.466-0.634,7.11,0.799C379.544,243.605,379.648,243.825,379.798,244.122z"/>
	<path style="fill:#21983A;" d="M98.192,275.202c-6.563-1.14-15.118-1.179-23.932,1.429c-4.389,1.285-8.826,3.201-12.892,5.768
		c-2.027,1.284-3.96,2.736-5.663,4.332c-0.882,0.818-1.535,1.564-2.488,2.635c-0.852,0.948-1.614,1.863-2.347,2.832
		c-2.932,3.839-4.949,8.074-5.503,12.389c-0.595,4.311,0.252,8.697,1.821,12.76c0.778,2.033,1.726,3.991,2.744,5.854
		c0.51,0.933,1.039,1.842,1.577,2.728l0.815,1.312l0.341,0.566l0.188,0.339l0.371,0.67c1.965,3.561,3.913,6.721,5.689,9.437
		c7.13,10.867,14.704,18.856,21.826,25.677c7.17,6.804,13.992,12.44,20.827,18.091l5.619,4.585l3.086,2.495l3.4,2.533
		c4.699,3.54,9.776,7.546,14.841,12.056c5.055,4.515,10.132,9.511,14.593,15.217c2.22,2.861,4.287,5.899,5.984,9.212
		c1.684,3.305,3.028,6.918,3.449,10.812c0.439,3.892-0.305,7.419-1.492,9.99c-1.185,2.598-2.651,4.313-3.842,5.486
		c-2.451,2.304-3.819,2.724-4.014,2.482c-0.234-0.295,0.632-1.374,1.907-3.18c1.257-1.799,2.908-4.44,3.65-7.756
		c0.799-3.302,0.424-7.442-1.128-11.431c-1.522-4.01-4.008-7.913-6.77-11.486c-5.56-7.152-12.137-13.072-16.195-16.777
		c-2.036-1.852-6.277-5.587-11.848-9.95l-4.398-3.393c-1.584-1.206-3.087-2.525-4.672-3.807l-9.691-8.008
		c-6.52-5.422-12.89-10.954-17.865-15.706c-4.993-4.733-8.598-8.655-10.095-10.319c-1.497-1.668-4.427-4.877-7.817-9.178
		c-3.375-4.25-7.252-9.799-10.562-15.46c-3.809-5.522-7.18-11.963-8.298-18.299c-1.223-6.352,0.121-12.086,1.481-15.359
		c1.318-3.351,3.572-6.885,6.463-10.164c0.729-0.852,1.473-1.592,2.213-2.414c0.797-0.848,1.643-1.653,2.527-2.421
		c1.77-1.534,3.69-2.925,5.693-4.197c8.04-5.112,17.321-8.137,25.318-10.161c4.013-1.032,7.168-1.335,9.626-1.357
		c2.463-0.015,4.246,0.261,5.685,0.68c2.868,0.871,9.622-2.573,12.576-0.477c2.948,2.134-0.781,9.108-1.679,9.95
		c-0.452,0.437-1.484,0.549-3.264,0.337C104.263,276.355,101.74,275.804,98.192,275.202z"/>
	<path style="fill:#21983A;" d="M139.622,348.638c0.473,0.074,0.947,0.172,1.405,0.297c1.286,0.369,4.971,1.257,5.541,2.154
		c0.773,1.227,2.175,1.005,2.58-3.493c0.331-3.677-0.998-3.896-1.746-2.847c-0.49,0.693-4.48,1.106-5.802,1.331
		c-0.695,0.127-1.337,0.123-1.742-0.074c-0.296-0.148-2.285-0.526-4.652-1.106c-2.368-0.568-5.095-1.393-6.955-2.115
		c-3.653-1.439-4.019-1.978-4.438-2.325c-0.8-0.744-3.869,4.905-1.78,4.555c1.007-0.199,1.468-0.28,5.21,0.841
		c2.001,0.585,4.865,1.344,7.355,1.853C137.086,348.23,139.181,348.564,139.622,348.638z"/>
	<path style="fill:#21983A;" d="M180.221,430.354c-0.776-4.29-1.8-8.587-3.023-12.705c-0.857-2.896-2.23-7.109-4.248-11.751
		c-0.507-1.162-1.05-2.346-1.641-3.548c-0.59-1.236-1.291-2.431-1.951-3.599l-4.131-6.995c-2.745-4.6-5.31-9.051-7.215-12.747
		c-1.916-3.692-3.175-6.609-3.618-8.014c-1.236-3.813-2.876-8.32-4.121-11.666c-0.639-1.677-1.215-3.076-1.873-4.085
		c-0.663-0.998-1.447-1.685-2.595-1.588c-0.925,0.078-1.732,1.041-2.15,2.609c-0.427,1.558-0.433,3.644-0.058,5.761
		c0.732,4.273,2.902,8.584,4.676,10.994c0.58,0.797,2.065,3.444,4.243,6.963c2.166,3.527,5.035,7.921,8.082,12.449
		c2.989,4.553,6.371,9.18,8.548,13.54c2.272,4.422,3.864,8.514,4.855,11.219c2.108,5.706,3.411,11.346,3.9,15.227
		c0.139,1.412,1.105,6.679,0.995,14.38c-0.079,3.836-0.463,8.29-1.689,12.961c-1.223,4.642-3.339,9.549-6.91,13.615
		c-1.764,2.047-3.883,3.819-6.265,5.31c-2.416,1.53-4.946,2.91-7.603,4.017c-5.306,2.285-11.1,3.093-16.884,3.118
		c-5.785,0.049-11.608-0.132-17.096,0.407c-2.758,0.21-5.412,0.752-7.866,1.054c-2.491,0.33-4.899,0.589-7.192,0.807
		c-9.026,0.827-16.183,1.289-21.858,1.923c-5.679,0.608-9.884,1.284-13.092,1.914c-6.412,1.308-8.855,2.171-11.244,2.949
		c-4.892,1.655-7.397,5.144-7.011,6.535c0.168,0.723,0.993,1.021,2.464,0.632c1.513-0.341,3.687-1.331,7.037-2.889
		c3.277-1.444,5.757-2.474,11.601-3.819c2.932-0.647,6.72-1.329,11.936-1.967c5.217-0.663,11.859-1.191,20.493-2.065
		c2.303-0.241,4.731-0.523,7.259-0.877c1.258-0.176,2.571-0.371,3.845-0.592c0.661-0.121,1.274-0.212,1.894-0.282l1.954-0.218
		c5.262-0.557,10.867-0.422,16.791-0.492c5.903-0.04,12.276-0.903,17.957-3.366c2.846-1.185,5.534-2.658,8.052-4.26
		c2.584-1.611,4.983-3.616,6.933-5.88c3.974-4.526,6.259-9.926,7.554-14.95c1.297-5.059,1.663-9.831,1.708-13.962
		C181.694,438.138,180.539,432.361,180.221,430.354z"/>
	<path style="fill:#21983A;" d="M83.67,485.151c0.882-0.221,1.785-0.415,2.674-0.566c2.489-0.441,9.692-1.49,11.156-0.948
		c1.963,0.746,4.542-0.221,3.338-4.581c-0.974-3.559-3.514-3.065-4.487-1.711c-0.612,0.888-8.019,3.326-10.375,4.343
		c-1.243,0.519-2.436,0.913-3.296,0.998c-0.624,0.079-4.558,0.933-9.196,2.567c-4.642,1.586-9.9,4.309-13.061,7.116
		c-3.128,2.719-4.441,4.822-5.265,6.06l-1.415,2.281c-0.611,1.041,0.601,2.323,1.928,2.787c1.35,0.468,2.698,0.365,2.678-1.134
		c0.012-0.744,0.012-1.317,0.439-2.421c0.463-1.075,1.285-2.785,3.787-5.163c2.643-2.575,7.438-5.218,11.893-6.825
		C78.906,486.301,82.852,485.375,83.67,485.151z"/>
	<path style="fill:#21983A;" d="M74.378,482.618c0.922-0.093,1.859-0.152,2.772-0.167c2.575-0.112,9.898,0.1,11.119,1.04
		c1.706,1.143,4.074,0.969,4.404-3.523c0.243-3.711-2.779-3.991-4.085-2.866c-0.439,0.356-2.68,0.727-5.089,1.172
		c-2.414,0.435-5.009,0.939-6.273,1.255c-1.332,0.328-2.59,0.545-3.468,0.504c-0.641-0.023-4.719,0.294-9.615,1.108
		c-4.9,0.789-10.6,2.194-14.5,3.741c-3.842,1.492-5.92,2.859-7.187,3.779c-1.263,0.943-1.75,1.397-2.222,1.838
		c-0.998,0.967-0.059,2.628,1.212,3.22c0.621,0.329,1.299,0.505,1.783,0.502c0.498-0.013,0.798-0.186,0.951-0.829
		c0.169-0.627,0.33-1.142,1.109-2.001c0.806-0.833,2.281-2.064,5.589-3.521c3.516-1.577,8.97-3.044,13.759-3.896
		C69.424,483.092,73.52,482.707,74.378,482.618z"/>
	<path style="fill:#21983A;" d="M77.814,469.584c22.004-2.442,20.441,2.917,11.26,2.98c-9.191,0.078-18.244,1.655-25.236,3.025
		c-6.98,1.363-13.802,3.508-19.019,7.849c-1.297,1.085-2.828,2.581-4.102,4.32c-1.289,1.727-2.336,3.656-3.08,5.204
		c-0.748,1.549-1.231,2.698-1.52,2.849c-0.262,0.159-0.389-0.689,0.108-3.008c1.079-4.614,2.596-7.806,4.839-10.78
		c2.278-2.919,5.46-5.689,10.868-7.906c5.42-2.228,11.994-3.313,17.085-3.855C74.121,469.722,77.814,469.595,77.814,469.584z"/>
	<path style="fill:#21983A;" d="M358.572,248.451c2.558,0.549,5.432,0.763,8.43,0.793c3.056,0.049,6.028-0.165,9.792-0.161
		c1.003,0.03,1.977,0.011,3.666,0.329c0.577,0.155,1.545,0.346,2.103,0.458c1.34,0.263,2.781,0.481,4.18,0.642
		c2.819,0.325,5.66,0.43,8.461,0.392c5.607-0.089,11.048-0.789,16.082-1.753c2.552-0.492,4.865-1.011,7.315-1.636
		c2.69-0.608,4.835-0.981,7.082-1.412c17.529-3.294,32.521-5.469,45.09-3.294c3.102,0.564,7.505,1.325,12.322,3.466
		c4.805,2.067,9.897,5.84,13.467,10.903c7.214,10.216,8.635,22.866,8.089,30.65c-0.441,7.83-2.074,17.654-5.899,26.966
		c-3.733,9.332-9.233,18.015-14.977,24.467c-5.734,6.488-12.767,13.801-19.321,20.791c-3.272,3.499-6.417,6.94-9.194,10.168
		l-7.906,9.136c-4.568,5.276-8.478,8.699-12.237,12.173c-3.715,3.463-7.478,6.984-10.822,12.258
		c-1.634,2.616-3.394,5.742-4.359,8.688c-0.997,2.987-1.058,5.45-0.459,7.408c0.564,1.984,1.898,3.843,3.114,5.176
		c1.217,1.331,2.181,2.115,2.164,2.117c0.008-0.006-1.083,0.021-2.679-0.681c-1.547-0.678-3.756-2.242-4.629-5.024
		c-0.42-1.369-0.793-2.934-0.832-4.788c-0.053-1.842,0.262-3.983,0.877-6.087c1.225-4.224,3.41-8.088,4.407-9.453
		c0.972-1.399,5.314-6.828,11.162-12.758c5.793-5.948,12.745-12.62,17.425-17.322c4.598-4.708,9.779-10.623,14.998-16.832
		c5.182-6.179,10.138-12.599,13.866-17.858c3.732-5.267,4.635-8.534,5.539-11.295c0.876-2.796,1.785-5.062,4.903-9.026
		c3.093-4.004,4.998-7.247,6.378-10.178c1.357-2.94,2.215-5.573,2.84-8.625c0.624-3.044,1.565-6.047,1.952-9.504
		c0.39-3.432,0.18-7.355-1.679-11.533c-1.857-4.131-5.132-11.09-9.697-15.509c-4.434-4.579-9.617-6.403-11.547-7.792
		c-1.892-1.431-5.588-2.878-9.424-3.464c-3.823-0.627-7.654-0.511-9.54-0.144c-1.904,0.346-6.84,1.908-12.126,3.802
		c-5.298,1.855-11.022,3.962-14.921,4.354l-6.875,0.744l-1.914,0.21c-0.572,0.053-1.148,0.087-1.744,0.189
		c-1.23,0.184-2.734,0.422-4.064,0.577c-5.457,0.687-10.448,0.719-12.585,0.246c-2.141-0.471-3.042-1.098-4.426-1.583
		c-1.382-0.505-3.249-0.837-7.239-1.183c-3.981-0.413-3.597-0.581-5.031-0.738c-0.713-0.093-1.878-0.199-4.22-0.557
		c-1.179-0.191-2.608-0.434-4.462-0.882c-2.178-0.401-4.459-0.212-7.281-0.15c-5.591,0.221-9.872,0.011-13.113-0.617
		c-3.241-0.611-5.401-1.545-6.853-2.429c-2.859-1.842-3.189-3.194-3.563-4.313c-0.311-1.191,0.178-1.871,1.303-1.545
		c0.581,0.151,1.327,0.513,2.56,1.073C353.767,247.048,355.576,247.809,358.572,248.451z"/>
	<path style="fill:#21983A;" d="M352.648,347.961c-1.092,0.356-2.194,0.702-3.268,1.005c-1.514,0.418-4.394,1.257-7.061,1.649
		c-2.673,0.424-5.12,0.293-5.857-0.085c-2.697-1.388-4.635,0.875-10.127,8.79c-2.125,3.063,4.692,1.933,6.3,0.647
		c0.526-0.382,7.31-4.017,10.166-5.068c2.872-1.019,5.762-2.37,7.157-3.059c1.47-0.735,2.886-1.316,3.914-1.507
		c0.758-0.099,5.372-1.723,11.156-2.283c5.849-0.545,12.852-0.931,17.761-1.471c4.836-0.496,7.612-0.964,9.353-1.263l3.133-0.559
		c1.431-0.275,1.822-2.158,1.265-3.451c-0.585-1.308-1.531-2.221-3.012-1.119c-0.764,0.528-1.355,0.933-2.82,1.448
		c-1.472,0.504-3.844,1.113-8.312,1.736c-4.773,0.699-11.632,1.176-17.671,1.819C358.542,345.879,353.653,347.68,352.648,347.961z"
		/>
	<path style="fill:#21983A;" d="M399.583,338.842c-3.915,8.587-7.51,15.681-10.676,23.909c-0.788,2.058-1.547,4.186-2.258,6.426
		c-0.351,1.105-0.709,2.302-1.027,3.445l-1.009,3.457c-1.437,4.701-3.293,9.82-5.473,15.721
		c-4.432,11.794-7.027,18.517-8.769,24.282c-0.883,2.881-1.595,5.521-2.159,8.47c-0.55,2.946-0.982,6.219-0.874,10.346
		c0.133,4.125,0.678,6.995,1.204,9.311c0.542,2.317,1.092,4.1,1.785,6.051c0.717,1.98,1.552,3.979,2.749,6.834
		c1.251,2.845,2.745,6.556,5.742,11.578c3.07,5.026,5.587,7.194,6.664,8.15c1.137,0.949,0.992,0.767,0.653,0.456
		c-0.326-0.326-0.799-0.814-0.311-0.522c0.508,0.225,1.853,1.556,5.975,3.358c4.164,1.694,7.834,2.001,10.768,2.096
		c2.955,0.066,5.279-0.163,7.086-0.399c3.605-0.5,5.153-1.068,5.157-1.058c-5.299-1.064-10.688-2.253-15.338-4.303
		c-2.666-0.377-5.214-1.057-7.508-2.232c-2.299-1.164-4.35-2.828-6.164-4.831c-3.63-4.033-6.404-9.093-9.016-14.167
		c0.007,0.004-0.803-1.793-1.982-4.669c-1.147-2.809-2.405-6.8-2.875-11.287c-0.512-4.477-0.212-9.39,0.62-13.856
		c0.813-4.474,2.061-8.51,3.009-11.439c1.877-5.875,5.116-12.983,8.209-19.835c3.111-6.838,5.867-13.568,7.222-18.275l2.228-8.237
		c0.896-3.15,1.99-6.67,3.281-10.356c2.565-7.376,5.91-15.391,9.094-22.642c3.183-7.272,3.337-10.626,2.055-9.839
		C406.342,325.564,403.511,330.278,399.583,338.842z"/>
	<path style="fill:#21983A;" d="M473.445,454.62l-3.646-0.32c-1.687-0.163-4.949-0.375-8.037-0.43c-3.085-0.081-6.008,0-6.955-0.269
		c-2.561-0.806-6.275,0.562-4.714,4.843c1.225,3.457,4.124,2.827,5.473,1.515c0.421-0.447,2.974-1.248,5.912-1.782
		c2.927-0.558,6.198-0.846,7.809-0.988c1.697-0.161,3.307-0.133,4.38,0.097c0.774,0.182,5.9,0.651,11.839,2.287
		c2.963,0.814,6.113,1.935,8.949,3.349c2.84,1.401,5.339,3.114,7.114,4.788c3.49,3.327,4.399,5.96,4.879,7.478
		c0.437,1.568,0.423,2.207,0.448,2.817c0.034,1.195,1.568,2.007,2.997,2.111c1.386,0.113,2.771-0.846,1.763-3.262
		c-0.521-1.123-0.913-1.929-1.78-3.65c-0.924-1.647-2.251-4.453-6.149-7.9c-2.073-1.825-4.854-3.633-7.925-5.083
		c-3.067-1.465-6.405-2.601-9.538-3.419C479.99,455.158,474.577,454.73,473.445,454.62z"/>
	<path style="fill:#21983A;" d="M451.596,446.523c-13.419,1.744-19.345,3.298-21.044,2.823c-1.704-0.341,1.223-2.734,6.993-3.854
		c11.406-2.177,22.974-3.472,32.326-2.768c4.653,0.364,9.313,1.032,13.871,2.281c4.543,1.244,9.028,3.054,12.974,5.82
		c1.963,1.375,4.26,3.396,5.992,5.818c1.77,2.393,2.897,5.119,3.389,7.254c0.496,2.147,0.451,3.678,0.304,3.951
		c-0.203,0.29-0.415-0.695-1.351-3.283c-0.996-2.575-2.342-4.511-3.779-6.092c-1.45-1.575-3.001-2.807-4.699-3.919
		c-3.437-2.168-7.433-4.006-13.833-5.717c-6.414-1.721-14.269-2.508-20.45-2.596C456.102,446.128,451.594,446.54,451.596,446.523z"
		/>
	<path style="fill:#21983A;" d="M451.085,435.564c-1.647-0.015-3.315-0.053-4.934-0.125c-2.277-0.108-6.67-0.282-10.706-0.701
		c-4.055-0.388-7.648-1.189-8.572-1.818c-1.318-0.81-2.787-1.41-3.913-1.395c-0.581,0.006-1.122,0.17-1.761,0.49
		c-0.63,0.333-1.407,0.774-2.155,1.628c-1.306,1.352-0.404,3.455,1.304,4.519c1.671,1.106,3.74,1.308,5.014,0.979
		c0.869-0.167,4.906,0.034,9.151-0.159c4.262-0.151,8.83-0.454,11.071-0.642c2.363-0.203,4.589-0.282,6.104-0.134
		c1.104,0.131,8.229,0.161,16.78,0.752c4.272,0.309,8.901,0.797,13.266,1.588c4.368,0.784,8.461,1.899,11.674,3.165
		c6.341,2.507,9.196,5.149,10.796,6.768c1.574,1.685,1.977,2.486,2.42,3.216c0.845,1.456,2.731,1.886,4.103,1.439
		c1.329-0.407,2.099-2.175-0.369-4.612c-1.21-1.109-2.113-1.885-4.118-3.48c-2.022-1.52-5.218-3.976-11.7-6.357
		c-6.906-2.613-17.117-4.11-25.853-4.595C459.939,435.569,452.626,435.605,451.085,435.564z"/>
	<path style="fill:#21983A;" d="M124.064,305.663c-1.636-5.623-2.63-11.531-3.213-17.322c-0.42-4.072-0.792-10.072-0.852-16.934
		c-0.077-6.851,0.119-14.598,0.226-22.086c0.15-7.482,0.238-14.822-0.315-20.891c-0.496-6.07-1.702-10.799-2.289-12.997
		c-0.754-2.991-2.107-6.316-4.063-9.284c-1.93-2.984-4.441-5.545-6.904-7.336c-5.003-3.597-9.388-4.256-9.907-2.041
		c-0.486,1.863,2.915,4.703,6.23,8.317c1.675,1.8,3.34,3.807,4.742,5.833c1.413,2.016,2.582,4.044,3.508,5.661
		c0.608,1.049,2.139,4.589,3.124,9.988c1.034,5.38,1.441,12.538,1.594,20.124c0.189,7.605,0.281,15.539,0.534,22.642
		c0.247,7.094,0.762,13.301,1.278,17.366c1.014,8.582,2.819,16.569,4.451,21.904c0.295,0.975,1.002,3.277,2.393,6.533
		c1.399,3.239,3.519,7.455,6.931,11.863c1.684,2.283,3.956,4.26,6.175,6.441c2.273,2.16,4.728,4.392,7.36,6.652
		c5.261,4.523,11.231,9.152,17.75,13.576l1.226,0.831l1.144,0.857c0.819,0.597,1.652,1.179,2.507,1.736
		c1.708,1.113,3.487,2.143,5.313,3.099c3.654,1.914,7.496,3.533,11.41,4.97c3.915,1.435,7.904,2.692,11.897,3.854l5.982,1.695
		c1.961,0.555,4.019,1.117,6.039,1.531c16.17,3.351,31.978,4.239,44.995,3.911c12.813-0.356,22.833-1.954,30.628-3.868
		c7.802-1.935,13.391-4.152,17.538-6.102c4.158-1.946,7.399-0.842,9.489-2.181c2.09-1.346,9.262-4.261,10.658-5.331
		c2.785-2.211,4.726-4.72,5.821-6.785c1.089-2.084-0.213-12.268-0.969-12.116c-4.846,0.969-5.644,6.251-7.281,7.603
		c-1.669,1.335-4.005,3.805-7.829,7.264c-1.863,1.662-3.573,3.02-5.707,4.477c-2.141,1.446-4.72,2.991-8.488,4.755
		c-3.779,1.73-8.766,3.68-15.831,5.417c-7.056,1.719-16.202,3.224-28.129,3.635c-12.695,0.413-28.278-0.396-44.073-3.591
		c-3.862-0.791-7.845-2.029-11.804-3.114c-3.953-1.136-7.885-2.353-11.723-3.743c-3.834-1.39-7.581-2.942-11.111-4.771
		c-1.764-0.912-3.476-1.889-5.111-2.944c-0.82-0.524-1.613-1.075-2.393-1.636l-1.226-0.918l-1.247-0.841
		c-6.492-4.377-12.449-8.964-17.729-13.483c-2.642-2.259-5.115-4.498-7.416-6.677l-3.298-3.194c-0.536-0.511-1.034-1.019-1.44-1.534
		c-0.434-0.523-0.881-1.072-1.287-1.611c-3.307-4.326-5.378-8.576-6.783-11.952C125.194,309.525,124.45,306.975,124.064,305.663z"/>
	<path style="fill:#21983A;" d="M135.211,162.046c-3.051-1.357-2.777-10.183,0.926-8.332
		C139.839,155.565,143.541,165.747,135.211,162.046z"/>
	<path style="fill:#21983A;" d="M162.981,163.895c-4.579,1.145-1.851-12.959,3.703-11.107
		C172.237,154.64,166.684,162.971,162.981,163.895z"/>
	<path style="fill:#21983A;" d="M432.358,481.392c3.82-0.345,6.963-0.911,10.299-1.846c3.332-0.941,6.827-2.336,11.161-4.623
		c4.327-2.287,6.833-3.294,8.976-3.924c2.139-0.604,3.885-0.973,6.671-1.35c0.424-0.066,1.181-0.017,1.682,0
		c0.537,0.021,0.993,0.063,1.403,0.104c0.821,0.087,1.454,0.201,2.146,0.365c1.373,0.383,3.021,0.799,6.478,2.794
		c3.464,2.128,3.522,2.249,3.284,1.986c-0.21-0.225-0.7-0.693,2.054,0.742c2.808,1.454,5.162,1.922,6.648,1.98
		c1.504,0.063,2.207-0.193,2.207-0.193c-1.789-1.518-3.293-3.186-4.606-4.937c-3.936-1.517-8.054-3.926-12.705-4.917
		c0.013,0.009-3.048-1.14-6.909-1.452c-0.521-0.049-0.876-0.068-1.556-0.104c-0.687,0.051-1.074,0.076-1.622,0.144
		c-1.018,0.119-2.019,0.295-2.963,0.506c-1.886,0.422-3.547,0.952-4.724,1.386c-4.724,1.747-11.65,4.087-14.966,5.282
		c-1.661,0.629-4.008,1.901-6.742,3.008c-2.72,1.117-5.885,2.02-8.821,2.048c-2.897,0.008-4.163,0.534-3.808,1.388
		C426.288,480.581,428.493,481.704,432.358,481.392z"/>
	<path style="fill:#21983A;" d="M139.908,461.352c-5.871,2.719-14.425,3.673-22.533,3.813c-8.138,0.144-15.975-0.32-20.903-0.803
		c-9.846-1.013-16.38-1.024-22.829-0.621c-3.214,0.212-7.635,0.791-12.143,2.014c-4.495,1.202-9.047,3.203-11.811,5.992
		c-1.39,1.376-2.134,2.45-2.745,3.118c-0.596,0.674-1.028,0.943-1.371,0.814c-0.655-0.21-0.932-2.183,0.216-4.424
		c1.064-2.24,3.66-4.935,6.737-6.689c3.049-1.8,6.337-2.842,8.393-3.292c2.059-0.519,8.513-1.52,14.852-1.747
		c6.338-0.295,12.539-0.187,14.191-0.178c3.319,0.012,18.986-0.401,23.847-0.545c2.443-0.036,5.711,0.288,9.052,0.127
		c3.324-0.15,6.771-0.839,9.099-2.664c2.295-1.825,3.215-2.465,4.178-2.416c0.943,0.03,1.821,0.75,3.427,1.215
		c1.591,0.467,3.207,0.969,3.738,1.993C143.844,458.024,143.085,459.88,139.908,461.352z"/>
	<path style="fill:#21983A;" d="M320.004,203.663c1.779,1.825,3.756,3.506,5.81,4.966c1.443,1.028,5.244,1.496,7.95,2.713
		c2.696,1.236,6.516,1.34,9.693,1.939c6.376,1.284,9.19-1.479,11.059-1.45c2.565,0.093,5.726-0.632,7.811-2.014
		c2.105-1.372,3.079-3.249,1.874-5.165c-0.988-1.581-2.945-1.66-4.96-1.283c-2.014,0.4-4.167,1.253-5.53,2.103
		c-0.856,0.559-6.018,2.054-11.911,1.643c-2.928-0.167-2.998-1.037-5.613-1.912c-2.624-0.86-6.352-3.421-7.754-4.199
		c-2.971-1.634-6.871-2.065-8.25-3.764c-0.549-0.615-2.406-2.827-4.848-6.548c-2.508-3.629-5.473-8.498-7.688-14.407
		c-1.143-2.932-2.202-6.064-3.22-9.248c-1.064-3.264-2.162-6.393-3.321-9.57c-2.315-6.293-5.057-12.143-7.629-16.796
		c-1.259-2.295-2.459-4.299-3.576-6.066c-0.579-0.913-1.079-1.662-1.468-2.402c-0.403-0.75-0.741-1.49-1.053-2.211
		c-1.182-2.911-2.336-5.342-3.552-6.927c-1.183-1.619-2.19-2.577-2.952-3.311c-0.775-0.725-1.347-1.212-1.923-1.676
		c-2.373-1.878-5.049-1.479-5.915-0.363c-0.918,1.174-0.112,2.834,3.443,4.606c1.665,0.943,2.97,1.594,4.858,3.981
		c0.954,1.215,1.8,2.984,3.152,5.844c0.644,1.399,1.767,3.133,2.794,4.614c1.05,1.586,2.18,7.402,3.376,9.492
		c2.56,4.458,5.274,6.083,7.593,12.207c0.587,1.53,1.149,7.09,1.708,8.671c0.548,1.602,1.164-0.824,1.641,0.731
		c1.054,3.215,2.147,10.399,3.353,13.434c1.198,3.035,2.538,4.137,3.988,6.691c1.442,2.561,2.941,4.78,4.253,6.683l1.838,2.62
		c0.585,0.825,2.232,3.256,2.736,3.877C318.791,202.402,319.591,203.235,320.004,203.663z"/>
	<path style="fill:#21983A;" d="M115.13,94.573c-0.495-0.138-0.884-0.222-1.306-0.314l0.271,0.059l-0.839,1.967l0.218-0.206
		l0.053-0.032l-0.009-0.087l0.034-0.324c0.026-0.176,0.051-0.388,0.093-0.576c0.296-1.102,0.155-0.636,0.157-0.757l-0.261-0.125
		c-0.199-0.1-0.406-0.214-0.609-0.335c-0.407-0.244-0.795-0.513-1.14-0.795c-0.693-0.566-1.219-1.191-1.463-1.835
		c-0.288-0.761-0.853-1.244-1.535-1.019c-0.361,0.102-0.694,0.409-1.025,0.977l-0.771,0.844l-0.891,1.17
		c-1.379,1.424-0.782,2.868-0.464,3.396c0.431,0.602,1.19,0.674,1.833,0.356c0.506-0.25,1.483-0.341,2.57-0.318
		c0.543,0.011,1.115,0.051,1.677,0.117l0.839,0.116l0.437,0.07l0.294,0.046c-0.005,0,0.254,0.038,0.465-0.017
		c-0.082,0.055,0.61-0.168,0.68-0.695c0.048-0.534-0.046-0.462-0.048-0.54l-0.228-0.333l-0.772,1.497
		c0.503,0.012,0.95,0.114,1.182,0.275c0.598,0.36,0.99,0.933,1.135,1.509c0.232,0.67,0.715,1.653,1.192,2.378
		c0.513,0.776,1.974-0.002,2.889-1.071c0.929-1.075,1.476-2.276,0.523-2.435c-1.014-0.242-1.419-0.435-2.176-1.2
		C117.434,95.688,116.707,95.022,115.13,94.573z"/>
	<path style="fill:#21983A;" d="M187.971,94.522c-0.914,0.719-0.276,2.219,0.898,3.203c1.183,1.011,2.761,1.655,3.715,1.232
		c0.985-0.426,1.201-1.257,1.713-2.293c0.487-1.009,1.301-2.162,2.914-2.56c3.226-0.753,6.598,0.172,9.4-0.381
		c1.411-0.276,1.118-2.406,0.105-3.824c-0.49-0.725-1.081-1.317-1.69-1.524c-0.616-0.201-1.269-0.015-2.188,0.89
		c-2.088,1.958-2.637,0.727-6.342,1.914c-1.486,0.515-2.98,0.839-4.455,1.323C190.572,92.978,189.139,93.629,187.971,94.522z"/>
	<path style="fill:#21983A;" d="M130.334,112.163c0-3.877,3.877-5.817,3.877-1.293c0,4.525-1.293,8.402-0.647,10.986
		c0.647,2.584,4.524,9.691-0.646,6.461c-5.169-3.23-3.232-7.109-4.523-9.693C127.102,116.04,130.334,112.163,130.334,112.163z"/>
	<path style="fill:#21983A;" d="M164.582,108.931c5.169-1.291,7.108,2.586,7.108,2.586s0,1.293-1.939,5.816
		c-1.939,4.523-1.939,4.523-1.939,4.523s-6.461,3.232-5.169-0.646s1.292-6.463,1.292-6.463L164.582,108.931z"/>
	<path style="fill:#21983A;" d="M322.901,218.14c3.759,11.27,11.633,11.632,7.109,13.57c-4.524,1.939-9.047,1.291-10.339-0.647
		c-1.292-1.939-1.292-10.34-1.939-13.57C317.085,214.263,321.608,214.263,322.901,218.14z"/>
	<path style="fill:#21983A;" d="M346.81,221.37c3.904,3.904,10.979,8.591,7.754,8.402C343.58,229.124,344.872,219.431,346.81,221.37
		z"/>
	<path style="fill:#21983A;" d="M393.337,258.85c-5.109,5.108-9.046,3.23-9.693,10.339c-0.646,7.109,1.293,14.218-5.169,12.925
		c-6.462-1.293-9.047-2.584-9.047-7.754s0-6.463,0-10.34s3.231-3.23,0-6.461c-3.231-3.232,0.647-5.17,6.462-5.17
		C381.705,252.387,397.861,254.328,393.337,258.85z"/>
	<path style="fill:#21983A;" d="M412.723,254.326c8.401-1.939,12.431,3.877,12.431,3.877s-2.092,10.986-5.969,12.924
		s-5.816-5.17-5.816-5.17l-3.877-7.107L412.723,254.326z"/>
	<path style="fill:#21983A;" d="M92.208,274.359c3.232,0.646,5.17,12.279,10.339,15.509c5.169,3.23,5.816-7.754,5.816-7.754
		s0-7.756-3.877-8.402C100.609,273.066,92.208,274.359,92.208,274.359z"/>
	<path style="fill:#21983A;" d="M82.507,176.721c4.531,1.999,3.239,9.754,5.823,12.985c2.585,3.232,6.461,1.293,7.109-1.939
		c0.646-3.231-0.646-11.632-0.646-11.632L82.507,176.721z"/>
	<path style="fill:#21983A;" d="M69.177,176.466c3.523-0.191,0.415,8.716,5.583,8.071c5.17-0.646,4.524-7.754,4.524-7.754
		L69.177,176.466z"/>
	<path style="fill:#21983A;" d="M288.652,187.768c-8.339-2.779-5.169-9.695-5.169-12.924c0-3.23-1.292-7.107,1.939-6.462
		c3.231,0.646,4.523,6.462,4.523,6.462S294.468,189.706,288.652,187.768z"/>
	<path style="fill:#21983A;" d="M277.021,143.18c-3.877-3.877-6.462-12.924-0.647-9.693c5.816,3.232,7.109,8.4,7.109,8.4
		s0.646,1.94-1.293,4.525C280.252,148.996,277.021,143.18,277.021,143.18z"/>
	<path style="fill:#21983A;" d="M189.143,153.297c6.353-5.672,14.945-14.096,22.525-20.679c3.792-3.288,6.6-5.43,8.361-6.556
		c1.765-1.13,2.456-1.214,1.766-0.88c-1.326,0.765-3.439,2.921-9.06,7.887c-5.615,4.987-9.928,9.176-12.429,11.637
		c-2.499,2.467-1.543,1.28-9.271,8.426c-7.747,7.139-9.727,7.927-7.519,5.882C185.696,156.945,189.143,153.297,189.143,153.297z"/>
	<path style="fill:#21983A;" d="M144.55,48.189c5.781-1.444,6.461-6.463,5.17-9.047c-1.293-2.584-3.877-0.647-7.109,1.939
		C139.38,43.666,141.966,48.835,144.55,48.189z"/>
	<path style="fill:#21983A;" d="M295.115,217.493c-7.595,2.128-5.817-16.154-1.293-12.277
		C298.345,209.092,311.27,212.968,295.115,217.493z"/>
</g>
</svg>
