<?xml version="1.0" encoding="iso-8859-1"?>
<!-- Generator: Adobe Illustrator 18.1.1, SVG Export Plug-In . SVG Version: 6.00 Build 0)  -->
<svg version="1.1" id="_x34_" xmlns="http://www.w3.org/2000/svg" xmlns:xlink="http://www.w3.org/1999/xlink" x="0px" y="0px"
	 viewBox="0 0 512 512" style="enable-background:new 0 0 512 512;" xml:space="preserve">
<g>
	<path style="fill:#21983A;" d="M282.374,15.435c-1.747-4.57-3.699-7.181-5.191-7.306c-0.746-0.042-1.434,0.71-1.604,2.497
		c-0.17,1.771,0.221,4.501,1.521,8.067c5.432,14.406,11.982,20.025,19.723,37.496c3.942,8.653,6.807,17.408,8.652,25.622
		c0.46,2.048,0.858,4.089,1.195,6.006c0.239,1.901,0.442,3.918,0.608,5.794c0.328,3.788,0.538,7.361,0.558,10.586
		c0.018,3.154,0.261,5.309,0.587,6.495c0.181,0.576,0.34,1.057,0.608,1.369c0.272,0.302,0.744,0.455,1.369,0.116
		c1.313-0.762,2.502-3.308,2.792-7.053c0.312-3.773-0.123-8.887-1.749-15.389l-0.634-2.511l-0.695-2.292l-1.21-3.877l-2.088-6.85
		c-1.445-4.596-3.044-10.013-7.368-19.194C292.754,40.412,286.958,27.375,282.374,15.435z"/>
	<path style="fill:#21983A;" d="M279.934,3.94c-2.325,0.547-4.107,2.407-4.487,3.902c-0.453,1.508,0.052,2.497,0.677,2.848
		c0.657,0.38,1.514,0.156,2.452-0.187c1.007-0.349,1.78-0.601,3.524-0.802c1.825-0.192,3.888-0.005,5.867,0.185
		c1.997,0.21,3.995,0.471,6.091,0.829c4.197,0.733,8.815,1.883,14.783,4.704c12.088,5.392,21.725,13.193,30.949,16.659
		c2.231,0.84,4.067,0.82,5.14,0.377c1.087-0.449,1.436-1.289,0.983-2.224c-0.456-0.931-1.686-1.947-3.779-2.999
		c-2.102-1.056-5.065-2.216-9.358-3.632c-4.605-1.532-7.107-2.828-10.017-4.411l-5.014-2.738c-0.989-0.507-2.126-1.137-3.422-1.706
		l-4.253-1.93c-5.124-2.26-9.885-4.565-14.669-6.424c-2.397-0.924-4.798-1.744-7.317-2.293
		C285.569,3.578,282.904,3.219,279.934,3.94z"/>
	<path style="fill:#21983A;" d="M372.865,32.919c-1.639,0.023-3.276,0.139-4.856,0.282c-4.52,0.241-16.693,2.953-18.877,2.517
		c-1.526-0.234-3.25-0.107-4.467,0.518c-1.202,0.637-2.077,1.785-1.974,3.949c0.094,1.769,1.539,2.656,3.145,2.772
		c1.606,0.134,3.287-0.446,4.228-1.188c1.358-0.896,13.713-4.947,17.796-5.744c2.146-0.514,4.224-0.728,5.62-0.59
		c0.498,0.072,2.437,0.029,5.023,0.708c1.282,0.349,2.709,0.932,3.98,1.936c1.347,1.003,2.151,2.332,2.299,4.179
		c0.283,3.64-1.602,7.884-3.274,11.607c-1.822,3.73-4.081,7.112-5.841,10.019c-3.535,5.693-4.983,9.456-5.711,11.799
		c-0.735,2.36-0.916,3.319-1.135,4.243c-0.411,1.912,1.056,3.381,2.394,3.531c1.378,0.152,2.539-0.699,2.28-3.243
		c-0.079-1.255-0.145-2.204,0.264-4.243c0.453-2.037,1.432-5.157,4.569-10.511c1.639-2.875,3.873-6.321,5.767-10.308
		c0.471-0.989,0.92-2.037,1.307-3.073c0.377-1.01,0.797-2.041,1.137-3.14c0.674-2.169,1.199-4.474,0.985-6.906
		c-0.112-1.208-0.449-2.448-1.079-3.538c-0.311-0.545-0.692-1.047-1.116-1.479c-0.402-0.409-0.8-0.761-1.228-1.086
		c-1.695-1.3-3.524-1.99-5.09-2.379C375.849,32.798,373.629,32.944,372.865,32.919z"/>
	<path style="fill:#21983A;" d="M302.047,99.058c3.102,1.861,5.87,2.193,6.95,1.13c1.041-1.01,0.297-3.73-4.708-6.873
		c-5.117-3.111-9.644-4.246-14.457-5.126c-4.849-0.842-10.038-1.414-17.223-2.519c-7.214-1.072-14.162-1.796-20.592-2.564
		c-6.435-0.721-12.384-1.247-17.549-1.278c-5.088-0.015-7.239,2.231-5.678,3.714c1.579,1.532,6.461,2.379,16.3,1.398
		c5.291-0.511,8.333-0.373,11.911-0.06c3.582,0.373,7.75,0.741,15.177,1.637C284.095,90.026,293.971,94.201,302.047,99.058z"/>
	<path style="fill:#21983A;" d="M226.315,287.178c-3.048-4.768-4.779-12.002-5.152-19.382c-0.331-5.671-0.058-11.424,0.292-16.537
		c-1.061-1.816-2.359-2.012-3.918-1.233c-0.013,0.634-0.031,1.273-0.038,1.901c-0.054,5.776,0.074,11.415,0.918,17.499
		c0.435,3.038,1.061,6.193,2.115,9.456c1.063,3.25,2.564,6.651,4.987,9.818c2.448,3.16,4.773,4.661,6.131,5.454
		c1.402,0.766,1.927,0.862,1.688,0.587C232.931,294.166,229.277,292.011,226.315,287.178z"/>
	<path style="fill:#21983A;" d="M263.359,120.388c-2.942-7.404-7.953-13.729-13.51-19.208c-5.613-5.483-10.935-8.811-14.285-10.548
		c-3.39-1.707-4.86-1.845-3.565-0.324c1.244,1.575,5.401,4.668,12.103,10.814c3.294,3.107,7.25,7.022,10.95,12.385
		c3.614,5.316,7.084,12.382,6.736,21.004c-0.042-0.014-0.004,2.894-1.499,7.515c-0.728,2.26-2.037,5.034-3.516,8.177
		c-1.492,3.122-3.261,6.542-5.342,10.104c-4.071,7.171-9.89,14.642-15.156,23.08c-3.325,5.338-6.28,11.009-8.751,16.713
		c1.468,1.521,3.312,1.523,5.199,0.829c3.33-7.456,7.379-14.591,12.032-21.396c3.377-5.016,7.147-10.43,10.515-16.463
		c1.691-3.006,3.292-6.146,4.797-9.387c1.472-3.283,2.986-6.457,4.197-10.176c1.146-3.665,1.736-7.594,1.586-11.547
		C265.709,128.008,264.824,124.071,263.359,120.388z"/>
	<path style="fill:#21983A;" d="M392.334,138.26c-3.297-9.924-7.062-19.985-9.568-29.834c-2.542-9.812-3.799-19.411-3.107-27.328
		c0.35-3.955,1.094-5.635,1.793-5.809c0.724-0.176,1.449,1.141,2.173,3.181c1.387,4.11,3.075,10.982,3.689,15.572
		c0.552,4.612,1.682,11.044,3.551,17.805c1.832,6.769,4.387,13.845,6.913,19.95c0.63,1.528,1.738,4.167,3.288,7.629
		c1.532,3.486,3.562,7.697,5.711,12.82c2.387,5.436,3.359,11.775,3.984,18.16c0.594,6.403,0.719,12.947,1.534,19.121l1.784,9.403
		c0.587,3.165,1.17,6.253,1.805,9.229c1.255,5.954,2.754,11.458,4.405,16.253c0.413,1.197,0.829,2.352,1.25,3.458l0.632,1.624
		c0.223,0.581,0.482,1.251,0.672,1.86c0.804,2.49,1.164,4.798,1.36,6.801c0.35,4.016,0.121,6.859,0.043,8.367
		c-0.089,1.508-0.368,4.279-0.857,7.882l-0.775,5.972l-0.351,3.433c-0.132,1.315-0.333,2.684-0.612,4.074
		c-1.101,5.57-3.589,11.589-7.516,17.006c-1.954,2.716-4.239,5.291-6.803,7.638c-2.426,2.189-4.737,4.373-7.029,6.714
		c-4.556,4.655-8.827,9.686-12.641,14.824c-3.831,5.13-7.203,10.356-10.31,15.255c-3.113,4.898-5.992,9.485-9.041,13.233
		c-3.006,3.766-6.366,6.551-9.085,8.099c-2.692,1.606-5.572,2.401-8.114,2.7c-2.56,0.29-4.82,0.11-6.736-0.23
		c-3.839-0.719-6.381-2.019-7.884-3.124c-2.97-2.303-1.93-3.701,2.651-2.991c2.289,0.279,6.361,0.985,10.931,0.373
		c2.271-0.322,4.619-1.019,6.798-2.263c2.185-1.231,4.199-2.988,6.008-4.994c3.616-4.038,6.553-8.833,9.025-12.632
		c2.446-3.832,4.362-6.776,5.17-7.982c0.813-1.199,3.667-5.28,8.025-10.589c4.353-5.309,10.327-11.733,17.053-17.637
		c1.708-1.489,3.375-2.87,4.891-4.442c1.53-1.552,2.93-3.221,4.192-4.952c2.515-3.466,4.402-7.225,5.581-10.863
		c1.228-3.645,1.61-7.12,1.84-10.102c0.306-2.968,0.605-5.378,0.719-7.055c0.201-3.35,0.856-8.242,0.558-13.874
		c-0.165-2.805-0.65-5.794-1.773-8.663c-1.173-2.964-2.267-6.088-3.216-9.264c-1.921-6.352-3.259-12.909-4.322-18.784l-1.474-8.206
		l-0.69-3.542c-0.228-1.121-0.315-2.187-0.435-3.136c-0.449-3.824-0.952-8.623-1.67-13.725c-0.724-5.096-1.78-10.479-3.52-15.246
		c-0.79-2.278-1.986-4.438-3.118-6.569l-3.272-5.979C394.434,143.182,392.94,140.116,392.334,138.26z"/>
	<path style="fill:#21983A;" d="M246.586,279.66c-0.174,0.319-0.36,0.648-0.491,0.938l-0.212,0.446l0.009,0.112l0.076,0.409
		c0.109,0.308-0.06,0.417-0.134,0.637c-0.177,0.29-0.118,0.429-1.18,1.128c-0.811,0.556-1.626,1.095-2.443,1.613
		c-1.642,1.021-3.279,1.979-4.894,2.839c-3.216,1.737-6.276,3.176-8.835,4.456c-6.126,3.058-11.547,4.744-15.92,6.459
		c-2.191,0.851-6.361,1.456-10.703,2.205c-4.338,0.73-8.858,1.698-11.571,2.883c-2.709,1.172-6.482,1.706-10.372,2.598
		c-0.989,0.223-1.945,0.454-2.843,0.703c-0.467,0.128-0.884,0.241-1.387,0.4c-0.5,0.152-1.101,0.391-1.68,0.645
		c-2.271,1.008-4.146,2.267-5.572,3.697c-2.852,2.861-5.847,6.225-8.545,9.615c-2.709,3.379-5.115,6.805-6.971,9.467
		c-1.856,2.671-2.412,5.219-2.789,7.768c-0.359,2.593-0.612,5.112-1.434,8.681c-0.406,1.794-0.637,4.092-0.453,6.613
		c0.187,2.519,0.851,5.257,1.93,7.62c1.063,2.372,2.466,4.295,3.56,5.526c1.101,1.238,1.86,1.861,1.851,1.876
		c0.011-0.007,0.043-1.067-0.248-2.532c-0.299-1.479-0.871-3.303-2.171-5.343c-1.345-2.08-1.818-5.488-1.47-8.15
		c0.295-2.705,1.123-4.748,1.19-5.581c0.054-0.84,0.435-4.168,1.519-7.717c1.029-3.574,2.685-7.371,3.837-9.95
		c1.135-2.595,3.411-5.298,6.044-7.552c2.624-2.276,5.597-4.1,8.005-5.382c2.432-1.287,4.346-0.847,5.807-0.54
		c1.468,0.308,2.562,0.556,3.942-1.133c2.727-3.301,4.34-4.349,6.623-5.161c2.276-0.766,3.667-3.958,7.965-2.303
		c4.288,1.601,13.318,3.151,14.937,1.271c1.597-1.916,5.966-3.603,7.685-3.341c1.68,0.284,9.745,3.406,12.527,1.289
		c2.741-2.044,7.782-5.999,8.557-8.342c0.779-2.343-0.061-3.643,2.365-5.907c1.202-1.135,1.01-1.206,1.467-1.564
		c0.225-0.188,0.618-0.431,1.396-0.96l1.501-1.003c0.619-0.427,1.383-0.96,2.09-1.496l0.511-0.405l0.757-0.632
		c0.094-0.118,0.275-0.158,0.284-0.331l0.049-0.487c0.047-0.332,0.105-0.632,0.163-0.907c0.062-0.264,0.112-0.509,0.266-0.876
		c0.257-0.666,0.534-1.276,0.744-1.782c0.438-1.029,0.694-1.785,0.797-2.412c0.203-1.231-0.145-1.927-0.562-2.517
		c-0.5-0.679-1.349-1.181-1.947-1.431c-0.317-0.119-0.581-0.13-1.121,0.369C248.571,276.698,247.769,277.592,246.586,279.66z"/>
	<path style="fill:#21983A;" d="M309.198,345.822c2.767-0.722,5.057-1.896,6.521-3.268c1.492-1.347,1.963-2.946,1.457-3.531
		c-0.507-0.587-1.374-0.541-2.884-0.359c-1.543,0.219-4.013,0.723-7.803,1.565c-3.858,0.855-7.355,1.595-10.71,2.477
		c-1.702,0.456-3.29,0.873-5.132,1.557c-0.241,0.094-0.489,0.192-0.779,0.326c-0.156,0.074-0.308,0.147-0.511,0.261l-0.348,0.217
		l-0.047,0.029l0.136-0.083l-0.007,0.007l-0.033,0.022l-0.065,0.045l-1.038,0.723c-0.681,0.453-1.286,0.878-2.006,1.307
		c-5.579,3.437-12.496,6.265-22.681,8.009c-10.191,1.733-20.251,2.392-29.453,3.935c-4.585,0.699-8.963,1.405-13.063,1.905
		c-4.1,0.507-7.935,0.76-11.504,0.858c-6.95,0.148-10.296,1.934-8.262,3.607c1.023,0.813,3.399,1.575,7.386,1.778
		c3.96,0.208,9.668-0.27,16.668-2.249c7.446-2.082,11.692-3.096,16.764-3.839c5.099-0.791,11.078-1.208,21.95-3.158
		c8.659-1.644,16.887-3.455,24.315-6.845c0.902-0.406,1.925-0.905,2.738-1.344l0.637-0.337l0.159-0.083
		c0.123,0.237-1.068-2.144-0.543-1.108l0.04,0.056l0.074,0.114l0.139,0.232l0.282,0.525l0.078,0.145l0.002,0.002v0.002l0.023-0.007
		l0.076-0.025c0.263-0.083,0.701-0.192,1.114-0.282c1.724-0.371,3.598-0.67,5.418-0.985
		C301.976,347.396,305.607,346.76,309.198,345.822z"/>
	<path style="fill:#21983A;" d="M220.676,376.433c-2.378-3.897-5.635-5.014-6.812-4.15c-0.623,0.427-0.795,1.315-0.436,2.633
		c0.346,1.329,1.237,3.057,2.493,5.45c4.846,9.691,6.272,16.4,9.664,31.728c1.005,3.651,3.524,6.441,5.709,8.862
		c2.238,2.426,3.835,4.971,3.904,7.757l-0.005-0.141c0.023,0.866,0.168,1.297,0.288,1.838c0.129,0.512,0.273,0.989,0.42,1.465
		c0.293,0.949,0.612,1.858,0.94,2.749c0.656,1.782,1.345,3.484,2.048,5.123c1.409,3.272,2.866,6.278,4.346,8.972
		c2.655,4.78,5.802,5.662,6.247,3.486c0.52-2.214-1.441-7.123-7.141-15.918c-1.061-1.664-1.887-3.122-2.542-4.454
		c-0.326-0.663-0.609-1.296-0.842-1.898c-0.118-0.3-0.219-0.59-0.302-0.858l-0.1-0.362l-0.027-0.13l-0.004-0.007v-0.002
		l-0.188,0.005l-0.438-0.007l0.632,0.011l-0.022-0.201c-0.302-2.827-1.552-5.568-3.665-8.04c-1.034-1.255-2.247-2.472-3.442-3.87
		c-1.19-1.387-2.359-3.04-3.035-5.13c-1.651-6.033-1.921-12.159-2.607-18.048C225.113,387.413,223.74,381.441,220.676,376.433z"/>
	<path style="fill:#21983A;" d="M158.831,371.881c-0.791-5.271-0.775-9.499-2.196-10.289c-0.656-0.369-1.622,0.156-2.589,2.106
		c-0.885,1.918-1.965,5.474-0.927,10.703c1.137,5.309,3.889,9.267,6.577,12.389c2.743,3.151,5.602,5.66,8.454,8.315
		c1.429,1.325,2.863,2.68,4.295,4.143c1.458,1.503,3.037,3.077,4.697,4.672l11.342,10.846c4.282,4.158,8.331,8.301,12.152,12.545
		c3.857,4.071,6.739,8.639,8.865,13.381c1.077,2.367,2.021,4.759,2.939,7.113l1.353,3.484c0.235,0.554,0.38,1.063,0.525,1.583
		c0.152,0.547,0.282,1.09,0.398,1.628c0.952,4.348,0.141,8.27-2.079,10.946c-2.157,2.624-4.411,4.293-5.497,5.646
		c-1.119,1.315-1.155,2.296,0.286,2.52c0.717,0.105,1.803,0.011,3.256-0.492c1.436-0.512,3.281-1.423,5.211-3.256
		c1.898-1.796,3.875-4.802,4.366-8.672c0.494-3.868-0.366-8.027-2.45-12.061c-4.062-7.772-6.231-12.552-9.771-17.64
		c-0.887-1.267-1.861-2.551-2.984-3.886c-1.115-1.354-2.452-2.669-3.781-4.136c-2.742-2.977-6.231-6.455-10.777-10.76
		c-3.632-3.447-7.069-6.834-10.216-10.278c-1.575-1.724-3.062-3.462-4.476-5.206c-1.445-1.825-2.948-3.591-4.42-5.289
		c-2.946-3.402-5.84-6.605-8.128-9.901C160.951,378.745,159.361,375.357,158.831,371.881z"/>
	<path style="fill:#21983A;" d="M254.095,454.825c-1.834-4.409-4.527-6.665-5.975-6.289c-1.492,0.388-1.651,3.372,0.764,9.622
		l3.332,8.556c0.5,1.309,0.985,2.582,1.427,3.862c0.402,1.336,0.974,2.789,1.422,4.07c0.914,2.656,1.773,5.469,1.878,8.663
		c0.12,3.158-0.8,6.808-3.723,9.89c-2.884,3.089-6.786,5.047-10.578,6.631c-3.828,1.535-7.754,2.404-11.556,2.778
		c-3.808,0.377-7.493,0.283-10.958,0.007c-1.753-0.139-3.379-0.308-4.86-0.628c-0.731-0.158-1.409-0.346-1.979-0.581
		c-0.585-0.239-0.989-0.489-1.655-0.925c-0.65-0.44-1.61-0.916-2.424-1.114c-0.826-0.219-1.543-0.273-2.169-0.27
		c-1.249,0.018-2.166,0.27-2.825,0.581c-1.307,0.637-1.541,1.544-0.706,2.365c0.417,0.417,1.108,0.815,2.01,1.22
		c0.891,0.411,2.01,0.833,2.711,1.413l0.867,0.645c0.409,0.29,0.978,0.641,1.586,0.927c1.239,0.583,2.555,0.909,3.861,1.103
		c2.645,0.378,5.396,0.288,8.539-0.025c6.745-0.795,10.538-1.548,14.996-2.696c2.218-0.609,4.599-1.373,7.439-2.685
		c1.418-0.659,2.944-1.461,4.59-2.472c1.704-1.041,3.493-2.43,5.217-4.306c2.788-3.002,4.516-6.986,4.863-10.824
		c0.398-3.842-0.107-7.446-0.735-10.81l-0.5-2.437c-0.154-0.789-0.264-1.592-0.453-2.434c-0.348-1.659-0.75-3.277-1.213-4.849
		C256.366,460.668,255.276,457.684,254.095,454.825z"/>
	<path style="fill:#21983A;" d="M204.597,503.821c3.672,0.373,6.258-0.996,6.479-2.466c0.221-1.497-1.689-2.997-6.797-3.687
		c-5.224-0.726-9.365-0.666-13.903-0.467c-4.545,0.215-9.447,0.413-16.308,0.371c-6.873-0.005-13.579,0.482-19.672,2.305
		c-6.046,1.919-10.973,4.78-15.188,6.473c-2.046,0.853-3.363,1.765-4.049,2.673c-0.677,0.893-0.692,1.823,0.195,2.421
		c0.875,0.599,2.732,0.84,5.374,0.073c2.654-0.739,5.888-2.571,9.597-5.258c4.022-2.846,6.531-3.788,9.749-4.469
		c3.214-0.637,6.978-1.133,13.992-1.338C185.349,500.238,195.142,502.896,204.597,503.821z"/>
	<path style="fill:#21983A;" d="M378.771,335.384c0.913-4.172,0.924-6.663-0.014-7.844c-0.485-0.552-1.51-0.592-2.801,0.612
		c-1.262,1.184-2.573,3.538-3.363,6.979c-1.546,7.008-1.175,12.309-0.938,18.002l0.194,4.375c0.056,1.515,0.092,2.979-0.096,4.545
		c-0.359,3.127-1.543,6.606-3.417,10.426c-1.974,3.846-3.607,7.808-5.713,11.201c-0.532,0.851-1.088,1.677-1.669,2.479
		c-0.547,0.791-1.179,1.494-1.843,2.374c-0.636,0.847-1.231,1.814-1.651,2.846c-0.422,1.032-0.679,1.995-0.967,2.885
		c-0.282,0.932-0.576,1.664-0.92,2.682c-0.324,1.041-0.518,2.046-0.63,3.066c-0.217,2.026-0.087,4.007,0.263,5.879
		c0.71,3.745,2.298,7.112,4.543,9.749c2.216,2.615,4.925,3.462,6.394,3.292c1.53-0.167,1.892-1.029,1.4-2.028
		c-0.489-1.034-1.717-2.217-3.303-4.277c-1.525-2.064-3.741-5.247-4.878-10.287c-0.272-1.338-0.34-2.568-0.226-3.649
		c0.06-0.931,0.489-2.256,0.712-3.379c0.489-2.372,0.847-3.64,2.082-5.237c0.551-0.706,1.416-1.814,2.072-2.817
		c0.71-1.047,1.441-2.213,2.171-3.547c1.487-2.693,2.81-5.912,4.75-9.964c1.554-3.35,3.013-6.685,3.911-10.245
		c0.449-1.771,0.695-3.614,0.851-5.289l0.498-4.905C376.848,346.889,377.529,340.801,378.771,335.384z"/>
	<path style="fill:#21983A;" d="M306.266,391.944c-1.825-13.331-2.359-23.036-2.539-29.796c-0.145-6.756,0.237-10.562,0.862-12.018
		c1.246-2.915,3.484,3.589,4.165,14.703c0.717,11.093,1.745,22.218,3.462,32.485c0.445,2.549,0.945,5.055,1.608,7.341
		c0.329,1.126,0.717,2.242,1.142,3.076c0.493,0.954,1.117,2.012,1.735,3.006c2.521,4.029,5.264,7.77,7.936,11.138
		c2.684,3.357,5.568,6.562,8.713,9.238c1.572,1.331,3.216,2.526,4.882,3.395c0.436,0.23,0.789,0.389,1.289,0.603l1.568,0.681
		l3.087,1.4c8.159,3.822,16.096,7.965,23.788,12.717c1.919,1.201,4.052,2.591,6.245,4.23c1.095,0.829,2.202,1.699,3.306,2.781
		c0.277,0.279,0.554,0.569,0.833,0.905c0.27,0.326,0.625,0.806,0.833,1.277c0.234,0.534,0.31,0.846,0.436,1.258
		c0.101,0.402,0.197,0.808,0.253,1.242c0.119,0.851,0.118,1.793-0.136,2.723c-0.237,0.934-0.771,1.805-1.416,2.443
		c-1.326,1.28-2.857,1.745-4.224,2.035c-2.774,0.513-5.253,0.273-7.363-0.043c-4.224-0.679-6.919-1.972-7.257-2.425
		c-0.337-0.545,1.479,0.109,6.846,0.473c2.663,0.127,5.173-0.06,7.194-0.726c1.003-0.33,1.851-0.817,2.327-1.36
		c0.473-0.549,0.594-1.081,0.538-1.789c-0.031-0.349-0.127-0.733-0.263-1.123c-0.123-0.36-0.357-0.889-0.455-0.99
		c-0.105-0.134-0.38-0.406-0.724-0.69c-0.335-0.277-0.712-0.558-1.103-0.831c-1.575-1.094-3.321-2.095-5.101-3.078
		c-7.197-3.869-15.192-7.75-27.164-13.28c-1.499-0.677-3.035-1.358-4.585-2.014c-1.86-0.77-3.592-1.822-5.157-2.948
		c-3.143-2.278-5.827-4.94-8.297-7.685c-4.9-5.528-8.921-11.379-12.085-16.883c-0.775-1.416-1.523-2.694-2.153-4.375
		c-0.56-1.539-0.903-2.944-1.193-4.262c-0.565-2.635-0.885-4.918-1.143-6.816C306.467,394.173,306.273,391.945,306.266,391.944z"/>
	<path style="fill:#21983A;" d="M386.901,425.96c-6.707-5.246-12.577-6.997-13.765-5.968c-1.231,1.097,2.082,4.324,11.379,11.842
		c4.708,3.87,8.757,7.391,12.467,10.875c3.692,3.495,7.082,6.952,10.057,10.93c1.476,1.992,2.841,4.125,3.909,6.481
		c1.063,2.349,1.834,4.952,1.793,7.725c-0.022,2.762-1.03,5.657-3.113,8.134c-2.066,2.484-5.057,4.543-8.545,6.14
		c-7.051,3.212-14.714,4.547-22.127,4.992c-7.442,0.444-14.71,0.018-21.656-0.65c-6.933-0.699-13.653-1.586-20.032-2.089
		c-3.196-0.25-6.308-0.451-9.334-0.522c-3.151-0.163-6.542,0.402-9.365,1.659c-2.792,1.22-4.771,2.846-6.231,4.237
		c-1.458,1.409-2.43,2.655-3.051,3.636c-1.224,1.968-1.01,2.962,0.692,2.562c0.849-0.197,2.068-0.766,3.64-1.668
		c1.575-0.884,3.491-2.148,5.81-3.236c2.37-1.092,4.945-1.874,8.759-1.776c4.056-0.015,8.746,0.04,14.142,0.119
		c11.549,0.243,18.285,0.895,26.249,1.02c3.989,0.065,8.318,0.071,13.754-0.473c5.4-0.601,12.07-1.579,19.954-5.195
		c3.143-1.483,6.128-3.33,8.641-5.825c2.51-2.463,4.389-5.771,4.951-9.291c0.592-3.518,0.007-6.984-1.014-10.071
		c-1.036-3.105-2.51-5.919-4.136-8.541c-3.288-5.226-7.185-9.724-11.216-13.841C395.466,433.058,391.242,429.35,386.901,425.96z"/>
	<path style="fill:#21983A;" d="M313.792,150.37c0.458-0.529,5.164-1.258,5.878-4.263c0.724-2.982,0.061-3.12,0.163-3.978
		c0.109-0.86-1.295-3.648-2.187-3.913c-0.889-0.29-5.836,0.406-7.257,0.728c-1.423,0.282-3.31,1.508-3.042,2.415
		c0.27,0.909,1.48,2.787,0.913,3.417c-0.471,0.521-5.997,6.564-10.774,13.64c-4.86,7.044-8.75,14.947-9.662,16.619
		c-0.916,1.713-2.611,4.791-4.375,7.136c-0.895,1.226-1.724,2.001-2.763,3.076c-0.866,0.891-1.608,1.615-1.992,2.155
		c-1.583,2.142-2.28,2.821-3.701,3.937c-1.403,1.132-7.594,3.777-9.463,4.864c-0.465,0.257-1.497,0.804-2.774,1.572
		c-0.639,0.384-1.34,0.822-2.059,1.302l-0.523,0.364l-0.456,0.279c-0.326,0.188-0.681,0.371-1.045,0.547
		c-2.953,1.407-6.213,2.403-6.944,2.667c-0.748,0.263-3.951,1.262-7.391,2.167c-3.435,0.929-7.085,1.728-8.603,2.24
		c-3.019,1.106-6.361,2.03-6.415,3.348c-0.038,1.307,0.324,2.568,4.378,2.414c2.061-0.103,4.094-0.882,5.682-1.479
		c1.593-0.594,5.486-1.738,9.62-3.553c1.034-0.451,2.892-1.108,5.133-1.959c2.253-0.88,4.845-1.816,7.507-3.353l0.511-0.324
		l0.505-0.364l0.741-0.489c0.54-0.351,1.083-0.69,1.622-1.007c1.078-0.634,2.14-1.199,3.122-1.693
		c1.97-0.983,3.621-1.704,4.48-2.061c3.466-1.423,3.623-2.758,5.113-3.924c0.746-0.594,2.991-1.948,5.03-3.679
		c1.032-0.889,1.952-1.72,2.803-2.589c0.804-0.851,1.387-1.612,1.702-2.053c1.436-1.713,5.64-8.742,6.696-10.745
		c0.54-1.017,2.959-4.73,5.584-8.224c2.604-3.515,5.441-6.801,6.015-7.779c0.561-0.985,2.463-2.792,4.326-4.335
		C311.745,151.937,313.552,150.631,313.792,150.37z"/>
	<path style="fill:#21983A;" d="M342.586,210.038c0.042-1.775-1.007-4.284-3.062-5.995c-2.015-1.718-5.072-2.53-7.73-1.172
		c-2.676,1.3-7.598,3.831-12.135,6.774c-4.559,2.932-8.893,6.028-11.136,8.234c-2.249,2.238-5.678,4.179-9.271,5.515
		c-3.699,1.601-7.015,3.046-9.097,4.118c-4.205,2.077-14.928,7.725-24.898,10.89c-5.052,1.639-8.141,1.945-11.377,2.305
		c-3.249,0.311-6.7,0.523-12.847,0.996c-6.149,0.456-9.235,1.157-9.624,1.82c-0.389,0.652,1.945,1.257,6.602,1.168
		c4.655-0.096,7.361-0.502,10.064-0.851c2.707-0.364,5.396-0.632,10.095-0.809c4.71-0.17,9.517-0.965,13.805-2.338
		c4.291-1.367,8.045-3.2,11.085-4.981c6.077-3.546,13.695-7.308,19.252-9.557c5.878-2.423,15.131-6.674,17.774-8.183
		c1.329-0.77,4.377-2.374,7.095-3.64c2.716-1.286,5.112-2.189,5.112-2.189l4.607-0.752
		C339.276,211.008,341.713,210.755,342.586,210.038z"/>
	<path style="fill:#21983A;" d="M226.614,246.388c-1.874,0.288-3.303,0.618-4.778-0.534c-1.78-1.421-1.112-0.623-3.661-1.342
		c-0.635-0.183-3.259-0.547-6.901-1.164c-3.643-0.612-8.297-1.499-13.064-2.441c-4.771-0.938-9.666-1.898-13.827-2.582
		c-4.161-0.697-7.583-1.114-9.361-1.284c-3.558-0.351-7.658-0.469-11.511-0.275c-3.857,0.172-7.449,0.675-10.091,1.117
		c-2.638,0.445-4.145,0.331-4.679-0.065c-0.531-0.384-0.042-1.036,1.42-1.358c1.456-0.326,4.139-1.065,6.788-1.579
		c2.642-0.529,5.228-0.858,6.303-0.873c1.076-0.033,4.634-0.161,8.13-0.04c3.498,0.102,6.924,0.391,7.775,0.5
		c0.856,0.063,8.947,1.085,16.967,2.372c8.032,1.286,16.054,2.231,17.122,2.072c2.133-0.21,6.345,0.398,7.926-0.208
		c2.388-0.893,3.728,1.555,5.255,4.23C227.101,244.132,227.78,246.209,226.614,246.388z"/>
	<path style="fill:#21983A;" d="M228.265,213.033c2.012-0.442,3.605-1.376,4.543-2.369c0.945-0.999,1.23-2.017,0.96-2.703
		c-0.275-0.706-1.057-1.099-2.285-1.19c-1.239-0.094-2.923,0.103-5.4,0.5c-5.063,0.735-9.173,1.315-13.754,1.861
		c-2.292,0.253-4.712,0.445-7.442,0.474c-1.32,0.029-2.839-0.069-4.436-0.007c-1.591,0.038-3.266,0.139-5.059,0.261
		c-7.152,0.534-13.979,1.329-20.182,0.963c-6.2-0.295-11.611-1.749-15.717-3.841c-2.004-1.005-3.604-1.512-4.78-1.49
		c-1.159,0.011-1.894,0.59-1.769,1.669c0.121,1.068,1.121,2.705,3.585,4.324c2.435,1.588,6.45,3.082,11.714,3.082
		c5.588-0.074,8.601-0.369,12.235-0.503c3.605-0.139,7.806-0.558,15.107-1.333c1.456-0.134,2.883-0.206,4.268-0.192
		c1.42,0,2.64,0.141,4.127,0.315c2.828,0.308,5.593,0.601,8.319,0.804C217.738,214.043,223.041,214.162,228.265,213.033z"/>
	<path style="fill:#21983A;" d="M149.848,204.12c1.007,1.586,2.296,2.347,3.158,2.061c0.824-0.266,1.246-1.796-0.395-4.509
		c-1.706-2.716-3.683-4.291-5.881-5.726c-2.233-1.412-4.692-2.734-8.152-4.469c-3.48-1.717-7.083-2.923-10.557-3.479
		c-3.468-0.57-6.783-0.48-9.55,0.062c-2.74,0.563-3.462,2.196-2.426,2.836c0.514,0.342,1.432,0.484,2.774,0.371
		c1.354-0.1,3.123-0.464,5.584-0.923c2.651-0.46,4.241-0.266,6.026,0.103c1.783,0.425,3.842,0.998,7.384,2.58
		C143.485,195.664,147.233,200.01,149.848,204.12z"/>
	<path style="fill:#21983A;" d="M130.363,203.718c-0.047,0.699,0.61,1.351,1.467,1.646c0.797,0.277,2.041-0.092,2.189-2.07
		c0.033-1.988-0.943-3.299-1.997-4.284c-1.099-1.001-2.338-1.793-3.83-3.078c-2.998-2.542-5.968-4.769-8.387-6.151
		c-1.191-0.666-2.222,0.167-2.262,1.219c-0.038,1.065,0.829,2.28,3.458,2.745c1.414,0.268,2.128,0.636,2.903,1.152
		c0.768,0.532,1.624,1.191,3.162,2.347C129.555,199.11,130.582,201.844,130.363,203.718z"/>
	<path style="fill:#21983A;" d="M134.084,206.713c2.727-0.085,4.554-0.896,4.751-1.782c0.203-0.871-1.378-1.894-5.534-1.849
		c-4.219,0.067-7.408,0.744-10.819,1.622c-1.706,0.443-3.468,0.951-5.439,1.534c-1.966,0.609-4.161,1.215-6.647,2.318l-0.424,0.199
		l-0.018,0.007l-0.022,0.014c-0.996,0.608-2.159,0.717-3.339,0.518c-1.188-0.185-2.392-0.603-3.736-0.732
		c-1.335-0.165-2.843,0.196-3.949,0.989c-1.116,0.779-1.936,1.775-2.631,2.763c-2.663,4.012-4.141,8.041-6.272,10.582
		c-1.012,1.257-1.704,2.015-2.106,2.673c-0.393,0.626-0.454,1.217,0.259,1.452c0.674,0.25,2.334-0.036,3.978-1.67
		c1.662-1.593,3.017-4.288,4.15-7.703c1.215-3.538,2.258-5.544,4.005-6.714c0.88-0.534,1.858-0.692,3.433-0.369
		c0.789,0.141,1.709,0.411,2.908,0.554c1.17,0.156,2.796,0.033,4.194-0.855l-0.08,0.043l0.373-0.185
		c3.79-1.724,7.993-2.289,11.826-2.741C126.824,206.97,130.536,206.822,134.084,206.713z"/>
	<path style="fill:#21983A;" d="M120.494,220.449c-7.299,0.598-17.544,4.376-24.262,9.588c-3.379,2.597-4.869,5.13-5.313,6.772
		c-0.427,1.65-0.397,2.291-0.514,1.622c-0.043-0.643-0.346-1.657,0.018-3.377c0.355-1.698,1.561-4.02,4.183-6.261
		c2.618-2.235,5.276-3.775,7.558-5.019c2.296-1.231,4.259-2.115,5.713-2.763c1.459-0.637,1.914-0.724,3.129-1.01
		c1.226-0.244,3.178-0.84,7.887-1.584c4.737-0.693,7.705-0.025,8.911,0.574c1.206,0.634,0.84,0.855-0.427,0.674
		C124.747,219.288,120.471,220.431,120.494,220.449z"/>
	<path style="fill:#21983A;" d="M121.18,233.758c1.818,0.485,3.299-0.322,3.364-1.213c0.062-0.916-0.713-1.735-2.93-2.446
		c-2.32-0.755-4.512-1.088-6.888-0.849c-1.195,0.138-2.386,0.335-3.712,0.858c-1.193,0.474-2.513,0.963-4.078,1.47
		c-6.214,2.082-12.175,3.929-15.985,7.415c-0.916,0.867-1.241,1.892-1.117,2.53c0.123,0.659,0.6,0.903,1.172,0.851
		c1.195-0.148,2.388-1.054,5.609-3.964c1.746-1.543,2.982-2.164,4.443-2.794c1.48-0.612,3.227-1.235,6.41-2.394
		c1.275-0.456,2.537-0.826,3.773-1.117c1.133-0.328,2.235-0.27,3.357-0.143C116.82,232.255,118.874,233.161,121.18,233.758z"/>
	<path style="fill:#21983A;" d="M122.783,239.205c2.573-0.567,2.591-4.123-1.277-3.449c-3.94,0.704-5.479,2.953-10.252,4.489
		c-4.779,1.564-9.391,2.506-12.791,3.918c-1.709,0.728-1.78,2.245-0.807,2.77c0.936,0.563,2.571,0.503,5.416-1.496
		c3.08-2.117,3.812-1.699,8.715-3.551C115.73,240.429,119.442,239.951,122.783,239.205z"/>
	<path style="fill:#21983A;" d="M151.208,239.536c2.399-1.291,3.23-3.171,2.783-3.918c-0.482-0.824-2.019-0.498-5.001,0.954
		c-3.082,1.398-5.519,2.227-8.47,2.94c-1.474,0.355-3.067,0.623-4.903,0.989c-0.913,0.192-1.898,0.418-2.924,0.817
		c-1.046,0.465-1.903,0.911-3.031,1.306c-4.389,1.561-8.855,2.455-12.956,3.263c-4.11,0.789-7.904,1.427-11.15,2.14
		c-3.19,0.701-4.315,2.291-3.145,2.962c1.157,0.67,4.476,0.59,10.602-1.655c3.277-1.211,5.197-1.722,7.496-2.271
		c2.292-0.583,4.994-1.054,9.745-2.817l1.405-0.567l1.322-0.579c0.76-0.3,1.611-0.471,2.488-0.57c1.756-0.203,3.585-0.199,5.4-0.322
		C144.49,242.008,148.135,241.215,151.208,239.536z"/>
	<path style="fill:#21983A;" d="M244.904,129.551c3.006,0.561,5.074-0.862,5.226-2.321c0.177-1.525-1.336-2.933-4.838-3.81
		c-3.56-0.971-6.37-1.485-9.604-2.325c-3.216-0.858-6.703-2.128-10.971-5.133c-8.686-5.838-16.93-11.192-23.757-14.299
		c-3.364-1.515-5.601-0.156-5.144,1.713c0.456,1.907,3.259,4.192,10.135,5.977c3.692,0.994,5.657,1.95,7.871,3.236
		c2.209,1.305,4.71,2.913,9.282,5.758c3.623,2.372,7.12,4.86,10.669,6.852C237.315,127.211,241.051,128.819,244.904,129.551z"/>
	<path style="fill:#21983A;" d="M167.694,104.273c0.201,2.865,1.132,5.66,2.276,8.083c1.146,2.443,2.49,4.455,3.482,6.189
		c1.03,1.693,0.375,2.169-1.021,1.829c-1.376-0.331-3.238-1.775-3.936-3.056c-1.507-2.506-3.306-7.301-4.201-11.1
		c-0.545-1.883-2.073-9.383-2.576-16.862c-0.625-7.486-0.426-14.891-0.529-16.445c-0.009-1.608-0.137-8.728-0.835-16.21
		c-0.69-7.475-1.503-15.351-1.972-18.361c-1.012-6.073,2.211-8.257,2.529-5.546c0.174,1.342,0.377,4.695,0.677,7.918l0.693,7.131
		c0.072,0.809,0.252,5.566,0.431,10.607c0.19,5.038,0.234,10.339,0.458,12.233c0.273,1.892,0.281,5.582,0.279,9.3
		c0.023,3.727,0.167,7.522,0.351,9.684c0.17,2.166,1.016,5.354,1.93,8.199C166.635,100.72,167.617,103.208,167.694,104.273z"/>
	<path style="fill:#21983A;" d="M192.925,99.279c0.409,1.081,1.048,2.142,1.983,2.966c0.911,0.837,2.135,1.304,3.087,1.325
		c1.959,0.004,2.64-1.032,2.669-1.718c0.054-0.762-0.663-1.4-1.206-2.117c-0.264-0.382-0.34-0.714-0.453-1.137
		c-0.12-0.431-0.348-1.108-0.63-2.193l-0.844-3.544c-0.156-0.617-0.324-1.246-0.532-1.894c-0.239-0.681-0.389-1.231-0.905-2.195
		c-1.202-2.093-2.799-4.053-3.918-5.639c-1.092-1.532-1.666-3.717-2.227-6.491c-0.626-2.81-1.776-5.722-2.973-9.016
		c-1.199-3.27-2.014-6.595-0.913-9.456c0.503-1.427,1.36-2.716,2.352-3.873l0.331-0.357l0.46-0.456
		c0.308-0.315,0.592-0.634,0.869-0.952c0.558-0.639,1.067-1.286,1.557-1.936c3.857-5.22,6.696-10.399,8.47-15.342
		c0.858-2.421,0.742-4.518,0.15-5.653c-0.601-1.159-1.512-1.269-2.345-0.663c-1.677,1.212-3.341,4.983-6.504,13.914
		c-0.855,2.376-1.718,4.172-2.611,5.678c-0.449,0.753-0.905,1.438-1.389,2.063c-0.241,0.31-0.489,0.607-0.743,0.885l-0.19,0.199
		l-0.308,0.335l-0.467,0.585c-1.155,1.525-2.437,3.397-2.995,6.236c-0.264,1.405-0.272,3.013,0.029,4.661
		c0.293,1.651,0.858,3.332,1.528,5.088c1.079,2.796,1.976,5.373,2.318,7.945c0.312,2.477,0.259,5.632,1.525,8.583
		c0.607,1.427,1.233,2.546,1.771,3.679l0.786,1.684l0.369,0.844l0.062,0.199l0.094,0.344
		C191.723,93.934,191.911,96.508,192.925,99.279z"/>
	<path style="fill:#21983A;" d="M353.044,50.28c-0.152-0.279-0.293-0.558-0.42-0.84l-0.092-0.214l-0.056-0.129l-0.022-0.054
		c-0.072-0.168-0.259-0.442-0.453-0.596l-0.174-0.13c-0.138-0.058-0.277-0.241-0.949-0.264c-0.811-0.112-1.728,1.047-1.619,1.438
		c-0.051,0.413,0.029,0.605,0.029,0.636l0.033,0.132l0.127,0.491c0.159,0.647,0.293,1.317,0.411,1.985
		c0.233,1.336,0.391,2.667,0.487,3.917c0.094,1.251,0.12,2.426,0.08,3.469l-0.043,0.753c-0.018,0.244-0.036,0.518-0.091,0.543
		c-0.058-0.004-0.108,0.362-0.156,0.588l-0.145,0.69c-0.369,1.758-0.206,3.458,0.391,4.57c0.616,1.112,1.764,1.979,3.927,1.872
		c1.762-0.085,2.667-1.434,2.801-2.988c0.138-1.566-0.395-3.038-1.003-3.781c-0.159-0.197-0.326-0.48-0.485-0.835
		c-0.069-0.063-0.145-0.679-0.282-0.958l-0.328-0.831c-0.447-1.179-0.934-2.613-1.416-4.105l-1.396-4.472l-0.319-1.046l-0.158-0.496
		l-0.016-0.058l-0.004-0.007l-0.002-0.004l-0.522,0.139l-0.107,0.119l-0.174-0.002l0.014-0.079l-0.08,0.096
		c-0.913,0.33-0.561,0.255-0.623,0.277l0.025,0.054l0.105,0.232l0.791,1.619c1.794,3.772,5.101,6.866,8.51,8.509
		c1.744,0.864,3.455-0.306,3.841-1.592c0.402-1.331-0.134-2.58-2.379-2.858c-2.296-0.378-3.596-1.041-4.722-1.836
		C355.283,53.398,354.243,52.374,353.044,50.28z"/>
	<path style="fill:#21983A;" d="M208.179,22.96l-0.098,0.236l-0.268,0.196c-0.299,0.214-0.612,0.42-0.924,0.605l-1.387,0.804
		l-3.046,1.923c-2.093,1.304-4.065,2.731-4.876,3.01c-1.099,0.34-2.164,1.278-2.398,2.457c-0.246,1.188,0.413,2.432,2.34,3.402
		c3.138,1.541,4.21,0.129,4.301-1.449c-0.02-0.507,1.148-2.198,2.814-3.926c0.818-0.864,1.727-1.742,2.548-2.524l1.418-1.288
		l1.065-0.999c0.612-0.603,1.184-1.135,1.744-1.603c0.121-0.214,0.255-0.398,0.391-0.576c0.058-0.199-0.157-0.464-0.19-0.661
		c-0.152-0.297-0.61-1.621-2.175-2.942c-0.779-0.648-1.852-1.246-3.178-1.568c-0.645-0.167-1.416-0.253-2.086-0.272
		c-0.654-0.018-1.324,0.011-1.994,0.098c-5.427,0.699-10.676,4.353-13.577,7.598c-2.892,3.216-3.804,5.744-4.292,7.285
		c-0.445,1.582-0.523,2.26-0.617,2.906c-0.156,1.394,1.532,2.09,2.843,1.814c0.665-0.109,1.275-0.38,1.63-0.708
		c0.362-0.339,0.471-0.708,0.199-1.317c-0.246-0.603-0.438-1.101-0.313-2.227c0.161-1.099,0.623-2.977,2.877-5.72
		c2.343-2.903,7.141-6.294,11.61-6.904c0.547-0.08,1.079-0.112,1.583-0.105c0.475,0.007,0.739,0.038,1.094,0.109
		c0.656,0.134,1.224,0.402,1.659,0.721C207.741,21.993,208.059,22.732,208.179,22.96z"/>
	<path style="fill:#21983A;" d="M349.079,466.647c-4.458-0.822-9.984-1.065-15.63-0.636c-5.65,0.418-11.391,1.534-16.411,3.076
		c-5.021,1.539-8.384,3.093-10.432,3.995c-2.035,0.923-2.783,1.123-2.147,0.601c0.645-0.502,1.387-1.544,2.966-2.959
		c1.573-1.391,4.027-3.174,8-4.599c7.956-2.785,14.663-3.62,18.556-4.219c1.956-0.271,2.526-0.185,4.067-0.054
		c1.539,0.174,4.058,0.264,9.885,0.913c5.836,0.717,9.139,2.144,10.518,3.062c1.383,0.949,0.929,1.384-0.673,1.105
		C354.538,466.336,349.066,466.614,349.079,466.647z"/>
	<path style="fill:#21983A;" d="M175.942,492.405c5.785-0.163,7.654-4.558-0.875-4.54c-8.684,0.065-13.164,2.376-24.108,3.482
		c-2.74,0.32-5.439,0.632-8.076,1.251c-2.629,0.569-5.224,1.807-7.199,3.437c-1.992,1.59-3.683,3.16-5.382,4.531
		c-1.682,1.383-3.306,2.618-4.827,3.737c-2.962,2.164-3.565,4.32-1.968,4.697c1.53,0.344,5.575-1.114,10.551-7.156
		c2.597-3.212,4.06-4.836,6.281-5.91c2.218-1.076,5.21-1.659,10.866-2.441C160.283,492.316,168.446,492.649,175.942,492.405z"/>
	<path style="fill:#21983A;" d="M159.298,484.917c2.341-0.123,3.935-1.106,4.12-2.227c0.185-1.075-1.222-2.388-5.077-2.292
		c-3.9,0.17-6.754,1.228-9.673,2.533c-2.924,1.336-5.937,2.924-10.252,4.865c-4.442,1.669-8.38,4.225-12.005,6.262
		c-3.625,2.093-6.984,3.822-9.905,5.106c-2.821,1.228-3.694,3.046-2.383,3.864c1.26,0.797,5.139,0.395,10.263-3.962
		c2.698-2.316,4.284-3.482,6.272-4.713c0.992-0.612,2.07-1.253,3.422-2.014c0.675-0.382,1.42-0.791,2.262-1.219l1.342-0.655
		l0.733-0.329l0.889-0.373C146.321,486.36,153.198,485.232,159.298,484.917z"/>
	<path style="fill:#21983A;" d="M345.671,482.199c2.448,0.165,4.099-0.732,4.161-1.461c0.064-0.789-1.239-1.313-4.514-1.615
		c-3.357-0.344-6.021-0.507-8.983-0.539c-1.478-0.022-3.024-0.025-4.762,0.004c-1.742-0.009-3.703,0.194-5.903,0.514
		c-8.923,1.224-16.675,4.684-22.489,6.58c-2.832,0.969-3.875,2.292-2.794,2.803c1.07,0.514,4.4,0.076,9.787-2.876
		c2.886-1.553,4.599-2.26,6.682-2.935c2.09-0.639,4.507-1.389,9.014-2.146c1.823-0.282,3.545-0.458,5.231-0.304
		c1.715,0.112,3.384,0.348,5.017,0.612C339.381,481.365,342.517,482.016,345.671,482.199z"/>
	<path style="fill:#21983A;" d="M336.306,472.581c4.473,0.067,6.247-2.805-0.551-3.044c-3.464-0.058-6.126,0.424-8.943,1.133
		c-2.819,0.715-5.802,1.628-9.959,2.894c-8.148,2.622-16.501,2.738-22.048,6.645c-1.345,0.953-1.954,2.197-1.983,2.937
		c-0.025,0.775,0.355,1.01,0.9,0.848c1.095-0.377,2.642-1.919,7.918-4.433c2.807-1.34,4.588-1.785,6.671-2.276
		c2.068-0.523,4.619-0.815,8.967-2.345C324.105,472.669,330.494,472.568,336.306,472.581z"/>
	<path style="fill:#21983A;" d="M184.646,473.843c3.426,0.17,6.631,0.485,9.036,0.576c2.432,0.089,4.333-0.196,6.015-0.534
		c3.339-0.717,5.389-1.161,6.294-0.918c0.907,0.21,0.695,0.96-0.482,1.934c-1.181,0.945-3.315,2.213-6.492,2.872
		c-3.214,0.681-6.492,0.447-9.385,0.223l-4.351-0.292c-1.523-0.105-2.982-0.273-4.42-0.482c-2.868-0.417-5.561-0.965-8.05-1.286
		c-2.492-0.33-4.786-0.408-6.919-0.219c-9.077,0.675-17.653,4.17-26.084,8.172c-4.23,1.965-10.488,5.246-14.446,7.33
		c-3.948,2.086-5.765,2.673-1.068-1.003c4.737-3.616,8.103-6.135,11.873-8.63c3.797-2.439,7.962-4.987,14.872-7.498
		c3.469-1.215,7.359-2.276,11.38-2.687c0.708-0.031,1.842-0.277,2.83-0.328c1.012-0.083,2.015-0.107,2.993-0.08
		c1.957,0.054,3.802,0.311,5.468,0.621c3.333,0.639,6.003,1.353,7.911,1.711C183.524,473.703,184.643,473.837,184.646,473.843z"/>
	<path style="fill:#21983A;" d="M233.06,162.473c2.81,2.115,5.497,2.542,6.622,1.543c1.103-0.974,0.557-3.585-3.745-6.989
		c-8.855-6.788-15.438-7.027-27.414-13.675c-12.023-6.584-22.558-13.975-29.33-20.338c-3.261-3.051-6.024-3.39-6.323-1.279
		c-0.119,1.059,0.485,2.76,2.26,4.817c1.767,2.048,4.719,4.405,9.088,6.562c4.675,2.283,7.208,3.676,10.16,5.49
		c2.95,1.793,6.336,3.935,12.755,7.268C217.375,151.191,225.737,156.954,233.06,162.473z"/>
	<path style="fill:#21983A;" d="M294.121,21.723c-2.035-3.393-2.473-8.034,0.617-6.18C297.83,17.397,295.976,24.814,294.121,21.723z
		"/>
	<path style="fill:#21983A;" d="M311.267,63.004c-2.767-5.705-3.412-8.644-2.977-9.573c0.411-0.92,1.807,0.198,2.763,2.698
		c1.912,4.987,4.592,9.709,5.86,13.914c1.291,4.168,2.126,8.528,2.198,12.874c0.169,4.389-1.208,12.889-1.537,7.576
		c-0.201-2.647-0.534-4.483-0.889-6.426l-1.314-7.053C314.324,70.892,311.275,63.01,311.267,63.004z"/>
	<path style="fill:#21983A;" d="M309.507,119.403c-0.357-0.127-0.701-0.3-1.009-0.507c-0.436-0.279-1.215-0.938-1.657-1.728
		c-0.469-0.775-0.578-1.602-0.446-1.87c0.322-0.715,0.145-1.461-2.013-1.479c-1.802,0.004-1.717,1.738-0.947,2.258
		c0.223,0.176,0.77,1.266,1.65,2.164c0.86,0.92,2.008,1.576,2.597,1.789c0.616,0.244,1.188,0.427,1.561,0.616
		c0.239,0.123,2.22,0.871,4.585,0.194c1.159-0.324,2.329-0.989,3.238-1.845c0.92-0.851,1.597-1.843,2.057-2.698
		c0.894-1.693,1.159-2.75,1.383-3.381c0.203-0.639,0.299-0.884,0.386-1.124c0.342-1.021-2.631-1.811-2.316-0.329
		c0.067,0.366,0.121,0.641,0.063,1.213c-0.074,0.567-0.208,1.474-0.889,2.912c-0.686,1.543-2.354,3.411-4.308,3.933
		C311.508,120.117,309.808,119.517,309.507,119.403z"/>
	<path style="fill:#21983A;" d="M359.635,107.018c-2.658-2.658,0.619-12.978,4.945-8.034c4.326,4.943,1.854,9.888,1.854,9.888
		S365.815,113.198,359.635,107.018z"/>
	<path style="fill:#21983A;" d="M378.795,128.651c3.091,5.563,6.797,12.36,0,10.506c-6.797-1.854-14.216,6.798-9.271-5.563
		s-1.852-6.18,4.328-9.888C380.032,119.997,378.795,128.651,378.795,128.651z"/>
	<path style="fill:#21983A;" d="M373.852,164.498c-3.091-2.472-6.182-9.273,0.617-8.654c6.799,0.619,8.034,3.708,7.417,7.417
		C381.268,166.969,373.852,164.498,373.852,164.498z"/>
	<path style="fill:#21983A;" d="M370.143,201.581c-3.708-4.945-3.091-13.597-3.091-13.597s2.474-6.18,6.799-1.854
		c4.326,4.326,5.563,6.18,3.708,11.743C375.706,203.436,370.143,201.581,370.143,201.581z"/>
	<path style="fill:#21983A;" d="M394.248,205.29c-2.886-5.771-4.328-9.888-1.237-12.979c3.091-3.091-1.235-5.564,3.091-3.091
		c4.326,2.473,3.708,4.945,3.708,8.654S396.102,208.998,394.248,205.29z"/>
	<path style="fill:#21983A;" d="M389.302,172.532c-1.854-3.089,0.618-8.032,4.326-4.943c3.708,3.089,1.237,9.271,1.237,9.271
		L389.302,172.532z"/>
	<path style="fill:#21983A;" d="M378.795,225.686c-3.708,4.945,0,8.653,3.091,7.417c3.091-1.237,3.091-1.235,3.708-4.326
		c0.617-3.091,2.472-2.473,0-6.182C383.122,218.887,378.795,225.686,378.795,225.686z"/>
	<path style="fill:#21983A;" d="M405.373,234.339c1.528,5.092,3.708,8.652,1.854,11.743c-1.854,3.091-3.708,12.362-5.563,7.417
		c-1.854-4.945-4.945-8.036-4.945-10.508c0-2.472-1.237-2.47,0-6.798C397.956,231.866,403.519,228.159,405.373,234.339z"/>
	<path style="fill:#21983A;" d="M380.649,262.77c-0.617-3.708,3.091-8.653,3.091-8.653l3.708,3.708c0,0,3.089,3.708-1.237,9.271
		C381.886,272.658,380.649,262.77,380.649,262.77z"/>
	<path style="fill:#21983A;" d="M377.56,296.762c0.617-3.708,5.563-7.417,5.563-7.417s5.563,7.419,0.617,9.89
		C378.795,301.708,377.56,296.762,377.56,296.762z"/>
	<path style="fill:#21983A;" d="M362.727,277.603c2.698-3.147,5.561-4.326,6.797-1.854c1.237,2.472-4.943,9.888-4.943,9.888
		S359.018,281.929,362.727,277.603z"/>
	<path style="fill:#21983A;" d="M244.057,301.708c0,3.708,0,14.833,0,14.833s-1.237,7.417-9.271,0
		c-8.034-7.417-8.034-1.854-8.034-7.417s0.618-6.797,5.563-9.888S244.057,301.708,244.057,301.708z"/>
	<path style="fill:#21983A;" d="M215.009,306.653c1.854,1.854,3.089,9.888,3.089,9.888l-2.472,2.473c0,0-3.708-3.708-9.271-5.563
		c-5.563-1.854-4.326-4.328-4.326-4.328L215.009,306.653z"/>
	<path style="fill:#21983A;" d="M308.953,361.042c6.559,4.684,11.125-3.708,12.979,0c1.854,3.708,1.856,1.239-1.235,4.328
		c-3.091,3.089-6.799,7.417-8.654,8.034C310.19,374.021,304.625,357.951,308.953,361.042z"/>
	<path style="fill:#21983A;" d="M310.807,385.146c8.849,0,11.125-5.563,11.125-0.617c0,4.945,4.945,3.707-4.326,8.034
		C308.336,396.89,306.48,385.146,310.807,385.146z"/>
	<path style="fill:#21983A;" d="M305.247,166.969c6.991,12.237,16.068,17.305,2.472,21.014c-13.597,3.708-14.835,0.002-16.07-6.18
		C290.413,175.621,300.303,158.318,305.247,166.969z"/>
	<path style="fill:#21983A;" d="M282.996,191.691c4.072,6.787,12.36,14.835,2.472,12.362c-9.888-2.473-14.833-6.182-14.833-6.182
		S279.288,185.511,282.996,191.691z"/>
	<path style="fill:#21983A;" d="M229.842,123.704c0,0-3.708,16.07,3.708,12.362c7.417-3.708,8.654-11.125,8.654-11.125
		L229.842,123.704z"/>
	<path style="fill:#21983A;" d="M217.48,115.052c0,0-4.943,13.599,1.237,11.125c6.18-2.474,6.846-8.5,6.846-8.5L217.48,115.052z"/>
	<path style="fill:#21983A;" d="M169.806,22.641c-0.196-0.985,0.014-1.981,0.585-2.716c-1.912-1.137-3.696-2.629-7.92-5.081
		c-5.742-3.357-10.249-7.319-15.225-10.044c-1.923-1.056-3.842-0.35-4.503,0.969c-0.674,1.336-0.212,3.187,2.269,4.739
		c4.987,3.25,9.226,2.508,15.904,6.759c3.296,2.14,6.372,4.416,9.262,6.501C170.03,23.411,169.887,23.052,169.806,22.641z"/>
	<path style="fill:#21983A;" d="M139.871,16.087c-3.781-2.119-7.52,2.394-2.3,5.684c5.271,3.406,9.573,2.421,16.603,6.296
		c7.006,3.9,12.916,8.596,17.617,11.712c4.588,3.046,8.288-4.136-2.615-7.315c-5.852-1.698-6.026-3.084-13.604-6.911
		C149.518,22.511,144.724,18.848,139.871,16.087z"/>
	<path style="fill:#21983A;" d="M200.798,32.173c-0.272-0.659-4.525,3.132-4.237,4.413c0.346,1.331,2.754-0.337,3.824,0.509
		c0.636,0.502,1.325,1.459,2.093,2.245c0.538,0.246,1.116,0.489,1.662,0.628c0.46,0.181,0.677-1.751,0.545-3.391
		c-0.067-0.818-0.219-1.566-0.471-1.941c-0.206-0.375-0.145-0.375-0.492,0.297l-0.163,0.284c-0.322,0.438-0.502,0.346-0.628,0.203
		c-0.141-0.157-0.177-0.346-0.782-0.599C201.157,34.409,201.149,33.021,200.798,32.173z"/>
	<path style="fill:#21983A;" d="M197.51,47.01c-0.693-0.558-1.901,0.253-2.796,1.436c-0.887,1.172-1.287,2.863-0.069,3.971
		c0.482,0.438,0.967,0.701,1.463,0.866c0.239,0.08,0.492,0.138,0.735,0.174c0.268,0.047,0.742,0.196,1.081,0.268
		c0.739,0.156,1.402,0.369,2.044,0.583c0.641,0.199,1.251,0.369,1.807,0.616c0.485,0.105,0.902-1.021,1.416-1.731l1.84-2.673
		c0.656-0.991,1.146-1.67,1.659-2.339c1.021-1.351,2.019-2.441,2.814-3.335c0.759-0.829-0.42-2.434-1.95-3.135
		c-1.492-0.728-3.669-0.109-3.779,2.993c-0.031,1.611-0.281,2.347-0.742,3.149c-0.409,0.692-0.697,0.911-1.222,2.079
		c-0.201,0.339-0.42,1.045-0.746,0.445c-0.529-0.541-1.063-1.074-1.403-1.516l-0.123-0.161l-0.308-0.261l-0.601-0.505L197.51,47.01z
		"/>
	<path style="fill:#21983A;" d="M209.794,39.979c-4.382-1.2,6.397-3.739,25.524,6.886c8.344,4.636,3.314,17.492,1.854,19.469
		c-4.38,5.93-11.925,7.236-16.791,6.044c-6.935-1.697-14.158-9.586-21.081-20.708"/>
	<path style="fill:#21983A;" d="M141.024,9.095c0.13,0.069,0.183-0.234,0.295-0.741c0.179-0.503,0.342-1.212,0.359-1.948
		c0.024-0.739-0.063-1.507-0.288-2.135c-0.259-0.63-0.909-1.115-1.834-1.293c-1.604-0.288-2.852-0.002-3.569,0.559
		c0.107,2.249,0.54,4.31-0.027,5.744c-0.967,2.502-3.058,4.277-4.221,5.805c-1.153,1.485,6.131,5.039,5.409,0.413
		c-0.427-2.481,0.71-2.256,1.501-5.186c0.212-0.791,0.281-0.923,0.476-1.264c0.178-0.279,0.375-0.478,0.562-0.592
		C140.242,8.623,140.736,8.956,141.024,9.095z"/>
	<path style="fill:#21983A;" d="M128.905,10.437c1.438,1.036,3.227,0.714,4.226-0.395c0.971-1.081,1.112-3.098-1.407-5.052
		c-2.591-1.936-5.271-2.488-8.051-2.521c-2.808-0.007-5.7,0.42-9.468,1.228c-3.788,0.831-7.216,2.271-10.328,3.506
		c-3.107,1.26-5.903,2.312-8.243,3.035c-2.222,0.677-2.814,2.77-1.673,4.168c0.587,0.681,1.691,1.141,3.234,0.945
		c1.539-0.185,3.482-1.048,5.499-2.836c2.149-1.909,3.457-2.714,5.112-3.464c1.66-0.704,3.578-1.541,7.011-2.54
		c2.769-0.764,5.49-0.489,7.829,0.368C125.005,7.728,127.016,9.075,128.905,10.437z"/>
	<path style="fill:#21983A;" d="M173.601,22.507c0.17-1.269,0.379-2.115,1.353-2.559c1.197-0.473,0.599-0.38,1.628-1.353
		c0.257-0.152,1.079-1.597,3.18-2.58c1.045-0.483,2.642-0.621,3.951,0.103c1.306,0.69,2.218,1.952,2.656,3.303
		c0.853,2.651,0.583,5.313,0.253,7.513c-0.19,1.121-0.433,2.055-0.737,2.953c-0.337,1.001-0.715,1.746-0.994,2.222
		c-0.391,0.675-0.862,1.318-1.43,1.86c-0.281,0.272-0.594,0.507-0.927,0.742c-0.176,0.109-0.339,0.228-0.529,0.329l-0.277,0.156
		l-0.219-0.079c-0.958-1.208-1.648-2.405-2.1-3.998l-0.34-1.155c-0.121-0.368-0.187-0.496-0.291-0.721
		c-0.196-0.391-0.42-0.699-0.665-0.96c-0.762-0.782-1.315-1.318-1.345-1.693c-0.056-0.357,0.373-0.514,1.036-0.103
		c0.639,0.369,1.925,1.246,2.522,2.626c0.527,1.141,0.777,1.818,0.954,2.187c0.08,0.21,0.297,0.664,0.683,1.097
		c0.092,0.243,0.322-0.029,0.483-0.132c0.177-0.136,0.34-0.299,0.487-0.469c0.297-0.342,0.527-0.728,0.701-1.083
		c0.35-0.713,0.489-1.302,0.551-1.476c0.103-0.174,1.22-4.243,0.449-7.922c-0.089-0.433-0.239-0.833-0.404-1.255
		c-0.154-0.36-0.35-0.692-0.578-0.963c-0.453-0.556-1.005-0.853-1.452-0.918c-0.891-0.138-1.546,0.442-1.655,0.59
		c-0.204,0.308-0.674,0.786-0.949,1.244c-0.357,0.581-0.695,1.229-0.695,1.63c-0.011,1.244-1.492,0.969-3.265,1.291
		C174.858,23.051,173.521,23.348,173.601,22.507z"/>
	<path style="fill:#21983A;" d="M166.959,20.117c-0.206-0.543-0.538-1.05,0.015-1.88c0.34-0.505,0.424-0.67,0.445-0.891
		c0.076-0.232-0.145-0.471,0.483-1.545c0.107-0.226,0.788-0.969,1.655-1.065l-0.121,0.031c0.927-0.167,2.493-0.663,4.539-0.044
		c1.009,0.319,2.012,1.134,2.517,2.159c0.541,1.008,0.679,2.115,0.726,3.113c0.042,1.001-0.018,1.999-0.176,2.942
		c-0.17,0.969-0.378,1.749-0.786,2.751c-0.788,1.849-1.791,2.939-2.325,3.549c-0.65,0.668-1.296,1.302-2.01,1.733
		c-0.183,0.103-0.38,0.199-0.614,0.223c-0.243,0.029-0.482-0.107-0.63-0.255c-0.312-0.302-0.521-0.657-0.748-1.045
		c-1.068-1.733-0.983-3.341-0.697-5.106l0.181-1.074c0.034-0.185,0.06-0.319,0.098-0.442c0.058-0.246,0.123-0.449,0.221-0.581
		c0.163-0.272,0.648-0.215,0.79,0.483c0.158,0.735,0.044,1.778,0.045,2.604c-0.074,0.853,0.502,1.361,0.601,1.662
		c0.067,0.154,0.177,0.476,0.429,0.795c0.111,0.185,0.422,0.226,0.643,0.016c0.223-0.174,0.411-0.398,0.592-0.619
		c0.731-0.886,1.231-1.715,1.327-1.923c0.053-0.101,0.366-0.634,0.587-1.441c0.331-1.13,0.516-2.79,0.312-4.385
		c-0.159-1.599-0.904-2.586-1.7-2.727c-0.822-0.228-1.697,0.034-1.841,0.11c-0.286,0.172-0.712,0.321-1.157,0.503l-0.179,0.074
		l-0.06-0.297c-0.185-0.94-0.518-0.659,0.252-0.442l0.601,0.127l0.053,0.047l0.15,0.159c0.67,0.583-0.587,1.766-2.149,2.503
		C168.321,20.295,167.082,20.425,166.959,20.117z"/>
	<path style="fill:#21983A;" d="M159.542,16.052c-0.194-0.668-0.469-1.061,0.092-1.823c0.319-0.681,0.369-0.806,0.362-1.054
		c-0.013-0.232-0.083-0.56-0.06-1.307c0.036-0.388-0.275-2.423-0.529-4.702c-0.181-2.229-0.389-4.398-0.444-7.013l0.107-0.1
		L159.124,0l0.129,0.121l0.556,0.596l1.029,1.148c0.65,0.746,1.233,1.454,1.751,2.108c1.036,1.3,1.818,2.477,2.242,3.127
		c0.958,1.474,2.059,3.249,2.923,5.297c0.717,1.669,1.141,3.247,1.247,4.534c0.11,1.278-0.295,1.964-0.599,2.111
		c-0.319,0.152-0.579-0.154-0.558-0.766c0.022-0.621-0.194-1.771-0.585-2.801c-0.371-1.032-0.862-1.983-1.009-2.361
		c-0.109-0.315-0.583-1.277-1.079-2.021c-0.496-0.764-0.978-1.318-1.097-1.499c-0.062-0.087-0.362-0.507-0.799-1.007
		c-0.219-0.25-0.471-0.518-0.739-0.775l-0.413-0.369l-0.212-0.17l0.005,0.344c0.315,2.484,0.947,4.445,1.128,4.782
		c0.42,0.692,0.388,1.201,0.826,1.4l0.15,0.058l0.007,0.016l-0.015,0.183c-0.047,0.239-0.194,0.469-0.422,0.695
		c-0.449,0.442-1.188,0.837-1.981,1.177C160.904,16.242,159.667,16.452,159.542,16.052z"/>
</g>
</svg>
