<?xml version="1.0" encoding="iso-8859-1"?>
<!-- Generator: Adobe Illustrator 18.1.1, SVG Export Plug-In . SVG Version: 6.00 Build 0)  -->
<svg version="1.1" id="_x33_" xmlns="http://www.w3.org/2000/svg" xmlns:xlink="http://www.w3.org/1999/xlink" x="0px" y="0px"
	 viewBox="0 0 512 512" style="enable-background:new 0 0 512 512;" xml:space="preserve">
<g>
	<path style="fill:#65D69D;" d="M340.421,388.984c-4.296-5.468-6.249,0.39-7.032-1.563c-0.781-1.954-5.468-10.938-7.812-10.156
		c-2.344,0.782-6.251,3.516-8.595,0.78c-2.344-2.735-5.468-4.688-5.468-4.688l-16.799,14.845c0,0-7.421,1.562-11.328,0.782
		c-3.378-0.675-15.524-2.813-21.269-4.643c3.921-7.534,18.197-35.282,18.534-40.672c0.391-6.25-4.296-19.533-10.156-28.908
		c-5.86-9.376-7.423-22.657-9.767-30.079c-2.344-7.422-3.124-5.86-7.421-8.204c-4.299-2.344-11.33-14.063-14.846-21.095
		c-3.516-7.032-24.611,0.781-24.611,0.781s-10.547,1.172-14.063,1.563c-3.516,0.391-19.14-4.298-19.14-4.298
		s-3.907-2.344-6.251-9.766c-2.344-7.422-17.188,3.516-17.188,3.516l-14.455,12.11c0,0-13.672,9.375-25.391,18.361
		c-11.719,8.985-11.719,29.689-11.33,41.798c0.391,12.11,0.391,9.767-5.86,18.751c0,0-16.016-6.25-17.579-7.032
		c-1.563-0.782-17.188-5.468-17.188-5.468s2.344-0.392,3.124-6.251c0.781-5.86-11.328-10.938-16.796-10.938
		c-3.516-11.719-23.05-8.594-24.611-8.204c-1.563,0.39-13.283-2.344-21.486-0.39c-8.204,1.954-4.296,8.204-3.124,15.626
		c1.172,7.422,3.905,22.657,3.905,22.657s4.299-10.547,5.471-8.984c1.172,1.563,1.561,11.328,2.733,17.188
		c6.251-3.516,6.251-14.454,10.158-16.407c3.905-1.954,1.953,8.985,2.344,11.719c0.389,2.734-3.127,10.939-3.127,10.939
		s5.86,0.39,9.767-4.297c2.33-2.795,6.144-12.664,10.939-18.361c3.248-3.859,7.799-4.53,9.376-4.688
		c3.905-0.391,10.936,2.344,16.016,3.907c5.079,1.563,37.502,13.282,56.645,20.703c15.663,6.074,95.657,26.53,124.221,33.766
		c7.917,3.47,34.38,7.252,34.38,7.252l13.674,3.516c0,0,4.296,3.126,1.172,7.032c-3.127,3.906-2.735,13.283-1.172,20.314
		c1.561,7.032,6.64,7.032,6.249,5.86c-0.391-1.172,4.299-10.157,4.299-10.157s9.376,10.547,8.204,8.594
		c-1.172-1.954,3.905-11.328,3.905-11.328l2.344,3.516c0,0,3.127,9.766,4.688,5.468c1.563-4.298,5.86-7.812,12.502-10.548
		C347.844,410.469,344.719,394.453,340.421,388.984z"/>
	<path style="fill:#FFFFFF;" d="M113.455,340.934c8.204-3.516,7.618-27.541,5.86-38.674c-1.758-11.134,9.376-11.134,9.376-11.134
		s12.891,0.586,20.509-4.102c7.618-4.688,32.228-2.344,41.604,4.688c9.376,7.032,32.425,24.109,40.432,27.541
		c28.713,12.305,15.235,29.298,15.235,29.298s-3.516,7.032-5.86,15.235c-3.671,12.848,5.86,18.751,5.86,18.751
		s-55.667-15.821-67.387-18.751c-11.719-2.93-32.034-10.743-42.19-12.305C126.738,349.919,113.455,340.934,113.455,340.934z"/>
	<g>
		<path style="fill:#231815;" d="M155.858,245.934l-2.026,1.621c-1.904,1.472-6.995,5.844-8.29,6.167
			c-1.746,0.466-3.335,2.257-0.987,4.669c1.925,1.973,3.818,0.345,4.088-1.047c0.202-0.905,4.901-6.253,6.409-7.976
			c0.792-0.92,1.621-1.702,2.285-2.102c0.245-0.143,1.076-0.781,2.337-1.599c1.261-0.815,2.976-1.79,4.99-2.495
			c1.005-0.353,2.092-0.657,3.179-0.854c1.083-0.191,2.193-0.269,3.143-0.069c0.957,0.192,1.664,0.68,2.131,1.399
			c0.471,0.716,0.728,1.611,0.906,2.448c0.334,1.665,0.455,3.11,0.707,4.284c0.234,1.178,0.57,2.12,0.986,2.825
			c0.412,0.71,0.865,1.161,1.236,1.467c0.375,0.307,0.675,0.489,0.975,0.645c0.62,0.317,1.25,0.157,1.648-0.199
			c0.405-0.359,0.616-0.91,0.662-1.433c0.048-0.526-0.064-1.031-0.256-1.365c-0.199-0.341-0.444-0.499-0.794-0.425
			c-0.179,0.032-0.334,0.045-0.52-0.009c-0.183-0.057-0.398-0.177-0.652-0.513c-0.252-0.334-0.529-0.901-0.781-1.831
			c-0.268-0.932-0.444-2.209-0.868-3.994c-0.245-0.947-0.558-2.069-1.33-3.202c-0.385-0.559-0.911-1.101-1.547-1.503
			c-0.63-0.406-1.346-0.664-2.044-0.795c-1.408-0.263-2.74-0.119-3.98,0.113c-1.243,0.243-2.406,0.587-3.52,0.995
			c-2.227,0.813-4.116,1.923-5.487,2.852C157.08,244.942,156.179,245.683,155.858,245.934z"/>
		<path style="fill:#231815;" d="M222.331,251.524c-0.977,0.286-1.962,0.568-2.921,0.816c-1.353,0.342-3.926,1.05-6.324,1.523
			c-2.406,0.488-4.631,0.675-5.349,0.393c-0.987-0.367-2.051-0.374-2.809,0.242c-0.748,0.618-1.266,1.879-0.998,4.12
			c0.222,1.83,1.142,2.7,2.186,2.896c1.042,0.202,2.142-0.271,2.722-0.965c0.391-0.448,2.673-1.364,5.04-2.457
			c2.378-1.083,4.889-2.275,6.109-2.886c1.284-0.652,2.536-1.136,3.445-1.261c0.33-0.039,1.524-0.364,3.25-0.683
			c0.861-0.154,1.859-0.302,2.921-0.339c1.06-0.031,2.195,0.06,3.204,0.451c0.506,0.194,0.975,0.462,1.392,0.814
			c0.43,0.344,0.742,0.763,1.197,1.341l2.518,3.246c1.644,2.152,3.159,4.24,4.28,6.011c2.227,3.482,2.852,5.635,3.184,6.996
			c0.311,1.369,0.311,1.939,0.35,2.482c0.064,1.094,1.696,1.62,3.104,1.467c1.399-0.157,2.591-1.029,1.602-2.783
			c-0.49-0.842-0.858-1.456-1.508-2.871c-0.664-1.394-1.666-3.671-4.049-7.084c-1.261-1.824-2.866-3.914-4.571-6.055l-2.605-3.229
			l-0.327-0.401l-0.165-0.201l-0.213-0.245c-0.284-0.325-0.602-0.631-0.941-0.906c-0.678-0.555-1.451-0.982-2.232-1.266
			c-1.568-0.575-3.079-0.632-4.376-0.575c-1.307,0.07-2.442,0.269-3.415,0.467C224.094,250.992,222.791,251.396,222.331,251.524z"/>
		<path style="fill:#231815;" d="M204.1,302.98c1.772,1.387,3.536,2.836,5.23,4.278l4.937,4.208c2.01,1.695,4.308,3.581,6.672,5.277
			c2.358,1.702,4.786,3.182,6.812,4.291c2.026,1.115,3.635,1.892,4.347,2.336c1.934,1.211,4.578,2.223,6.764,2.438
			c2.19,0.227,3.898-0.307,4.09-1.988c0.16-1.38-1.314-2.464-3.159-3.265c-1.847-0.799-4.074-1.344-5.583-1.476
			c-0.984-0.081-5.848-1.575-10.68-4.448c-4.848-2.829-9.76-6.782-12.257-8.579c-2.612-1.932-5.052-3.794-6.645-5.149
			c-0.588-0.493-2.797-2.27-6.146-4.707c-3.367-2.441-8.055-5.332-13.592-7.665c-5.519-2.344-11.877-4.127-18.158-4.682
			c-3.138-0.278-6.253-0.26-9.188,0.176c-1.467,0.222-2.889,0.549-4.228,1.035c-0.698,0.256-1.257,0.513-1.838,0.72
			c-0.584,0.214-1.16,0.405-1.728,0.579c-4.498,1.331-8.231,1.772-11.163,2.099c-2.944,0.302-5.139,0.401-6.816,0.453
			c-3.358,0.088-4.658,0-5.928-0.05c-2.554-0.115-4.498,0.952-4.802,1.996c-0.304,1.032,1.103,2.102,5.274,1.643
			c2.012-0.238,3.479-0.423,6.745-0.746c1.63-0.171,3.713-0.375,6.528-0.768c2.811-0.423,6.377-0.932,10.884-2.329
			c0.6-0.192,1.213-0.405,1.836-0.642c0.627-0.231,1.28-0.533,1.808-0.732c1.14-0.429,2.41-0.743,3.747-0.958
			c2.68-0.428,5.619-0.481,8.606-0.24c5.988,0.477,12.157,2.148,17.549,4.404c5.413,2.241,10.048,5.063,13.443,7.504
			C200.895,300.462,203.271,302.335,204.1,302.98z"/>
		<path style="fill:#231815;" d="M75.383,332.514c6.077,1.765,11.584,3.594,16.803,5.663c2.614,1.044,5.118,2.13,7.581,3.398
			c2.623,1.283,5.207,2.485,7.92,3.675c10.813,4.737,23.02,8.97,39.544,13.168c8.263,2.099,14.711,3.69,20.037,5.089
			c5.329,1.394,9.543,2.573,13.356,3.699c1.907,0.575,3.722,1.087,5.455,1.677c1.744,0.617,3.536,1.243,5.4,1.869
			c3.729,1.255,7.796,2.555,12.93,4.007c10.277,2.868,14.434,3.833,19.589,5.2c5.169,1.314,11.333,3.065,25.925,6.315
			c7.304,1.599,10.96,2.313,12.679,2.65c1.712,0.332,1.458,0.251,0.934,0.112c-0.522-0.147-1.3-0.366-0.627-0.327
			c0.682,0.059,2.797,0.276,7.936,1.22c2.559,0.482,4.912,0.946,6.952,1.466c1.023,0.261,1.932,0.533,2.806,0.852
			c0.861,0.31,1.886,0.74,2.932,1.053c2.083,0.618,3.857,0.852,5.434,1.047c1.577,0.183,2.96,0.283,4.173,0.348
			c4.846,0.241,7.004,0.001,7.009,0.011c-3.44-1.062-6.887-2.142-10.236-3.38c-1.666-0.624-3.321-1.285-4.768-2.098
			c-0.723-0.404-1.38-0.862-2.172-1.368c-0.79-0.505-1.664-0.998-2.527-1.432c-2.021-0.593-3.983-0.995-5.94-1.365
			c-1.955-0.365-3.901-0.681-5.841-0.975c-3.907-0.573-7.696-1.102-11.548-1.717c-7.67-1.207-15.322-2.54-22.94-4.044
			c0.005-0.01-10.319-2.415-22.512-5.928c-6.098-1.749-12.662-3.777-18.676-5.772l-4.406-1.482c-0.73-0.244-1.428-0.504-2.149-0.72
			l-2.099-0.618c-2.683-0.785-5.116-1.472-7.169-2.036c-8.204-2.26-18.419-5.181-28.019-8.145
			c-9.611-2.945-18.557-6.045-24.483-8.165c-2.969-1.049-6.695-2.3-10.889-3.809c-2.097-0.754-4.31-1.577-6.601-2.467l-3.491-1.394
			l-1.756-0.726c-0.588-0.26-1.241-0.54-1.872-0.799c-5.088-2.073-10.479-3.724-15.883-5.285
			c-5.404-1.548-10.822-2.966-15.982-4.325c-10.325-2.686-14.722-2.567-13.356-1.339C56.181,326.602,63.217,329.03,75.383,332.514z"
			/>
		<path style="fill:#231815;" d="M135.104,263.184c-4.221,2.128-7.743,3.96-11.399,6.399c-1.822,1.226-3.674,2.611-5.571,4.341
			c-1.893,1.733-3.848,3.81-5.702,6.473c-1.845,2.667-3.033,4.905-3.939,6.791c-0.9,1.891-1.515,3.438-2.037,4.861
			c-1,2.849-1.744,5.212-2.129,9.221c-0.169,2.003-0.195,3.4-0.217,4.546l-0.043,3.026l-0.055,3.602l-0.06,6.148
			c-0.06,2.658-0.199,3.904-0.25,4.487c-0.055,0.579-0.032,0.49,0.025,0.315c0.055-0.176,0.135-0.444,0.185-0.216
			c0.039,0.219,0.108,0.969-0.117,2.687c-0.474,3.405-1.346,5.354-2.069,6.75c-0.735,1.363-1.172,2.074-1.151,2.082
			c1.263-0.325,2.536-0.862,3.731-1.678c1.195-0.81,2.296-1.896,3.227-3.142c0.87-3.139,0.835-6.203,0.666-9.115
			c-0.188-2.923-0.556-5.751-0.847-8.568c0.028,0.005-0.133-3.876,0.227-8.382c0.185-2.251,0.545-4.651,1.062-6.802
			c0.508-2.154,1.17-4.055,1.696-5.417c1.03-2.738,2.971-5.878,5.262-8.481c2.271-2.627,4.814-4.752,6.494-6.182
			c1.669-1.437,4.086-3.774,7.096-6.101c2.994-2.336,6.556-4.651,10.035-6.272c3.477-1.609,4.631-2.861,3.797-3.346
			C142.2,260.751,139.348,261.076,135.104,263.184z"/>
		<path style="fill:#231815;" d="M261.669,377.97c0.787-1.268,2.731-4.658,4.505-8.172c1.792-3.503,3.41-7.117,4.072-8.582
			c0.643-1.448,3.202-7.163,4.807-12.938c0.398-1.443,0.677-2.818,0.84-4.188c0.162-1.361,0.215-2.668,0.204-3.843
			c-0.025-2.351-0.284-4.165-0.316-4.881c-0.064-1.436-0.524-3.935-1.22-6.304c-0.68-2.374-1.545-4.616-1.952-5.647
			c-0.803-2.066-2.197-5.246-3.248-7.508c-1.034-2.26-3.532-7.46-4.067-8.603c-0.545-1.124-3.566-6.129-4.55-8.488
			c-0.501-1.171-1.92-4.308-3.223-7.81c-1.321-3.492-2.435-7.373-2.907-9.678c-1.01-4.601-1.231-8.836,0.062-8.134
			c1.305,0.667,1.692,1.381,2.708,2.008c1.025,0.605-0.098,1.997,0.792,4.862c0.446,1.419,1.03,3.56,1.84,5.86
			c0.801,2.299,1.829,4.754,2.967,6.824c2.277,4.127,3.166,7.516,4.033,10.147c0.863,2.62,1.918,7.682,3.374,10.047
			c1.474,2.362,3.243,7.086,4.26,8.851c0.524,0.88,1.678,3.349,2.756,6.031c1.096,2.671,2.037,5.592,2.731,7.1
			c0.716,1.489,1.028,4.846,0.579,8.098c-0.211,1.626-0.581,3.2-0.987,4.523c-0.401,1.306-0.787,2.323-0.975,2.947
			c-0.778,2.466,1.122,0.646-0.797,2.459c-1.943,1.768-2.795,2.22-3.445,3.859c-0.323,0.817-1.209,3.781-2.259,6.667
			c-1.039,2.889-2.223,5.696-2.712,6.293c-0.977,1.196-0.909,2.381-1.669,3.119c-0.764,0.734-1.151,0.8-1.756,2.486
			c-0.618,1.686-0.499,0.873-1.131,3.147c-0.662,2.27,0.419,0.551-1.481,3.563c-0.964,1.503-2.312,1.823-2.948,1.094
			C259.911,382.446,259.978,380.705,261.669,377.97z"/>
		<path style="fill:#231815;" d="M144.736,321.527c1.845,1.422,3.921,3.117,5.587,4.184c0.41,0.27,1.584,1.048,3.264,1.905
			c1.673,0.863,3.864,1.774,6.15,2.495c4.566,1.473,9.453,2.147,10.763,2.156c2.628,0.012,5.631,0.576,11.552,0.525
			c4.255-0.03,11.191,0.688,11.191,0.688c0.071,0.219-2.348,0.531-5.18,0.757c-2.834,0.23-6.086,0.33-7.654,0.24
			c-1.568-0.081-3.765-0.213-5.816-0.401c-2.049-0.181-3.949-0.421-4.933-0.566c-0.982-0.141-4.386-0.579-7.673-1.337
			c-3.296-0.718-6.43-1.848-7.119-2.069c-1.378-0.409-4.69-1.742-7.636-3.839c-1.479-1.036-2.344-2.059-2.861-2.882
			c-0.517-0.829-0.682-1.479-0.748-1.933C143.505,320.548,144.731,321.543,144.736,321.527z"/>
		<path style="fill:#231815;" d="M301.293,242.977c-1.522-0.2-2.882-0.602-4.072-1.177c-1.181-0.575-2.216-1.345-2.854-2.3
			c-0.636-0.954-0.838-2.051-0.446-3.397c0.192-0.669,0.538-1.38,0.998-2.115c0.456-0.714,1.081-1.54,1.724-2.351
			c2.641-3.264,4.853-4.363,6.597-4.714c0.886-0.164,1.682-0.135,2.481,0.076c0.794,0.219,1.605,0.617,2.433,1.402
			c0.817,0.801,1.213,1.561,1.492,2.18c0.27,0.629,0.414,1.158,0.511,1.752c0.091,0.594,0.144,1.264,0.057,2.186
			c-0.098,0.915-0.323,2.116-1.092,3.539c-0.801,1.397-1.438,1.901-1.685,2.165c-0.266,0.252-0.222,0.216-0.117,0.16
			c0.098-0.061,0.252-0.153,0.183-0.023c-0.076,0.124-0.332,0.518-1.266,1.222c-1.893,1.364-3.543,2.023-4.599,2.535
			c-1.069,0.49-1.582,0.777-1.577,0.785c1.829,0.448,3.807,0.666,5.91,0.386c1.943-1.042,3.671-2.588,4.816-4.493
			c1.154-1.9,1.717-4.105,1.669-6.265c0,0,0.076-0.736-0.043-1.922c-0.126-1.176-0.49-2.826-1.479-4.414
			c-0.488-0.791-1.138-1.558-1.936-2.18c-0.794-0.626-1.744-1.095-2.71-1.333c-1.959-0.499-3.781-0.071-4.926,0.366
			c-2.351,0.871-4.756,2.665-6.691,4.608c-0.964,0.984-1.852,1.912-2.623,3.035c-0.749,1.09-1.268,2.28-1.465,3.345
			c-0.211,1.037-0.169,2.565,0.561,3.979c0.71,1.423,1.98,2.536,3.353,3.268c2.785,1.475,5.974,1.812,8.808,1.87
			c1.426,0.021,2.413-0.225,2.96-0.486c0.549-0.269,0.668-0.55,0.428-0.768C306.198,243.436,304.333,243.34,301.293,242.977z"/>
		<path style="fill:#231815;" d="M303.443,207.276c-2.298-0.753-4.31-1.758-6.068-2.966c-1.73-1.206-3.296-2.664-4.136-4.395
			c-0.41-0.861-0.59-1.759-0.444-2.646c0.14-0.889,0.625-1.799,1.396-2.657c0.765-0.859,1.79-1.663,2.976-2.409l0.934-0.565
			c0.3-0.18,0.593-0.335,0.918-0.484c0.641-0.3,1.353-0.547,2.108-0.758c3.06-0.803,5.677-0.73,7.757-0.526
			c2.097,0.231,3.731,0.661,5.155,1.172c1.424,0.516,2.648,1.115,3.88,1.895c1.22,0.788,2.484,1.753,3.66,3.248
			c1.156,1.511,1.575,2.786,1.811,3.829c0.215,1.067,0.247,1.893,0.094,2.759c-0.163,0.857-0.49,1.773-1.383,2.788
			c-0.89,0.998-2.426,2.092-5.006,2.807c-1.289,0.349-2.303,0.477-3.051,0.555c-0.753,0.074-1.25,0.09-1.566,0.102
			c-0.629,0.016-0.531,0.023-0.336,0.045c0.195,0.022,0.49,0.047,0.252,0.104c-0.24,0.042-1.023,0.183-2.98,0.076
			c-3.919-0.268-6.505-1.142-8.046-1.855c-1.541-0.735-2.147-1.275-2.163-1.254c0.536,1.213,1.501,2.339,2.637,3.279
			c1.14,0.945,2.451,1.729,3.839,2.377c3.234,0.601,6.517,0.549,9.694-0.12c1.588-0.341,3.152-0.853,4.624-1.608
			c1.463-0.757,2.854-1.774,3.891-3.148c-0.005-0.002,0.195-0.217,0.495-0.655c0.3-0.436,0.698-1.109,0.998-2.02
			c0.297-0.907,0.469-2.052,0.38-3.281c-0.085-1.213-0.378-2.527-0.934-3.812c-0.552-1.283-1.373-2.507-2.355-3.557
			c-0.98-1.053-2.108-1.938-3.253-2.66c-2.294-1.448-4.635-2.244-6.345-2.683c-3.424-0.874-7.856-1.419-12.152-0.624
			c-1.071,0.201-2.136,0.497-3.154,0.921c-0.51,0.202-1.028,0.491-1.415,0.692c-0.414,0.216-0.858,0.466-1.264,0.713
			c-1.643,1-3.051,2.211-3.951,3.514c-0.446,0.642-0.893,1.465-1.147,2.477c-0.263,1.004-0.293,2.195-0.009,3.328
			c0.579,2.302,2.179,4.125,3.953,5.531c1.799,1.418,3.861,2.503,5.983,3.368c2.126,0.862,4.319,1.496,6.464,1.896
			c2.149,0.399,3.729,0.263,4.612,0.016c0.895-0.259,1.101-0.572,0.758-0.774C310.861,208.882,308.057,208.769,303.443,207.276z"/>
		<path style="fill:#231815;" d="M118.17,103.214c3.298,8.182,8.652,15.4,15.018,20.954c6.363,5.588,13.642,9.611,20.916,12.332
			c1.824,0.686,3.665,1.273,5.386,1.813c1.749,0.549,3.479,1.075,5.191,1.575c3.427,1.003,6.773,1.909,10.016,2.719
			c6.492,1.619,12.569,2.855,18.028,3.763c10.921,1.82,20.912,2.811,29.974,3.499c9.066,0.684,17.206,1.105,24.517,1.677
			c3.651,0.287,8.707,0.842,14.423,1.86c2.859,0.509,5.873,1.139,8.966,1.918c3.058,0.753,6.13,1.75,9.193,2.944
			c6.123,2.366,12.122,5.522,18.032,8.066c2.951,1.271,5.887,2.372,8.712,3.169c2.825,0.802,5.528,1.298,7.929,1.519
			c4.798,0.475,10.296,0.237,15.858-1.011c2.783-0.612,5.583-1.449,8.348-2.462c1.385-0.507,2.763-1.057,4.127-1.647l1.932-0.835
			c0.604-0.251,1.216-0.493,1.836-0.721c4.949-1.84,10.284-2.937,15.597-3.617c5.315-0.682,10.614-0.968,15.608-1.219
			c9.994-0.532,22.201,0.01,34.174,0.268c5.988,0.12,11.925,0.136,17.497-0.113c5.567-0.243,10.767-0.766,15.228-1.507
			c4.459-0.738,8.377-1.836,11.923-3.219c1.758-0.673,3.527-1.511,4.949-2.211l4.422-2.195c2.928-1.48,5.855-2.999,9.021-4.674
			c3.163-1.682,6.572-3.508,10.419-5.767c3.841-2.264,8.339-5.301,12.493-9.238c2.071-1.966,4.049-4.153,5.777-6.505
			c1.733-2.346,3.209-4.854,4.361-7.349c2.332-5.004,3.282-9.862,3.658-13.281c0.368-3.439,0.284-5.511,0.302-5.511
			c-0.016-0.002-0.412,1.396-1.058,4.144c-0.684,2.74-1.573,6.85-3.548,12.148c-0.991,2.646-2.591,5.64-4.683,8.426
			c-2.081,2.798-4.626,5.374-7.192,7.526c-5.15,4.318-10.259,7.036-12.191,8.254c-0.973,0.602-3.417,2.093-6.833,3.926
			c-3.415,1.839-7.803,4.005-12.543,6.206l-3.607,1.665l-1.856,0.843c-0.657,0.288-1.302,0.562-1.959,0.823
			c-2.623,1.052-5.32,1.907-7.961,2.606c-5.292,1.392-10.369,2.133-14.457,2.605c-8.201,0.972-18.325,0.746-28.234,0.144
			c-9.92-0.599-19.699-1.371-27.483-1.455c-7.771-0.085-11.617-0.382-15.105-0.501c-1.742-0.046-3.388-0.02-5.356,0.259
			c-1.962,0.281-4.26,0.808-7.206,1.941c-2.937,1.14-5.395,2.313-7.519,3.47c-2.106,1.188-3.987,2.219-5.803,3.039
			c-3.626,1.649-6.871,2.706-10.65,3.399c-3.768,0.672-7.604,1.258-11.882,0.971c-4.26-0.278-8.888-1.516-13.64-4.221
			c-2.387-1.336-5.56-3.204-9.14-5.27c-3.58-2.057-7.622-4.271-11.797-6.063c-2.085-0.898-4.193-1.696-6.249-2.347
			c-2.076-0.655-3.983-1.157-5.784-1.59c-3.58-0.847-6.517-1.291-8.222-1.35c-3.413-0.129-8.819-0.513-13.974-0.857
			c-5.157-0.355-10.06-0.751-12.505-1.143c-2.442-0.394-8.879-1.678-15.814-3.085c-6.947-1.391-14.356-3.02-19.131-3.55
			c-4.784-0.498-11.612-1.446-17.835-2.528c-6.224-1.061-11.848-2.219-14.299-2.455c-2.451-0.236-3.527-0.098-5.171-0.203
			c-0.819-0.056-1.792-0.168-3.131-0.445c-1.337-0.285-3.063-0.734-5.363-1.587c-2.3-0.857-3.326-1.308-4.001-1.581
			c-0.675-0.276-0.986-0.405-1.79-0.806c-0.799-0.409-2.104-1.071-4.626-2.668c-1.252-0.81-2.811-1.857-4.679-3.332
			c-1.866-1.474-4.054-3.369-6.443-5.956c-4.768-5.196-7.533-10.102-9.373-14.093c-1.827-4.019-2.754-7.17-3.431-9.571
			c-0.657-2.41-1.042-4.094-1.371-5.396c-0.316-1.302-0.584-2.224-0.824-3.154c-0.467-1.859-1.009-2.465-1.318-0.016
			c-0.137,1.222-0.195,3.219,0.151,6.174C115.476,94.492,116.239,98.429,118.17,103.214z"/>
		<path style="fill:#231815;" d="M63.3,324.496c-1.282,0.183-2.543,0.204-3.745,0.222c-1.197,0.016-2.339,0.032-3.305,0.122
			c-0.476,0.045-1.879,0.138-3.678,0.629c-0.84,0.244-1.886,0.624-2.891,1.106c-1.018,0.482-2.044,1.08-3.008,1.785
			c-3.921,2.789-6.389,7.466-6.723,8.814c-0.337,1.379-0.955,2.738-1.818,4.539l-1.518,3.083c-0.595,1.17-1.277,2.509-2.211,4.038
			c-0.694,1.131-1.751,2.335-3.038,3.335c-1.282,1.007-2.781,1.766-4.134,2.227l-1.019-4.316c0.62,0.047,1.151,0.229,1.522,0.408
			c0.382,0.181,0.634,0.351,0.806,0.47c0.172,0.121,0.254,0.19,0.256,0.232l-0.03,0.216c-0.011,0.078-0.014,0.151-0.014,0.185
			c0,0.098,0.005,0.103,0.005,0.096c-0.007-0.025-0.021-0.078-0.05-0.156l-0.059-0.128l0.018,0.017l0.124,0.007
			c0.092-0.017,0.163-0.058,0.16-0.053c0.16,0.111,0.146,0.546-0.071,0.862c-0.101,0.167-0.428,0.265-0.934,0.182
			c-0.485-0.065-1.122-0.235-1.733-0.106l0.018,0.085c1.337-1.048,2.644-2.426,3.626-3.799c0.991-1.365,1.721-2.692,2.25-3.471
			c1.827-2.64,4.342-8.193,5.491-10.051c0.542-0.92,2.241-4.307,4.804-7.146c1.261-1.422,2.715-2.668,3.955-3.559
			c1.241-0.898,2.248-1.47,2.58-1.72c0.339-0.25,0.808-0.549,1.415-0.873c0.309-0.16,0.643-0.335,1.035-0.495
			c0.366-0.153,0.753-0.308,1.167-0.454c1.651-0.59,3.715-1.055,5.835-1.175c2.129-0.122,3.639,0.464,4.589,1.156
			c0.961,0.704,1.405,1.532,1.641,2.189c0.231,0.66-0.126,1.021-0.508,1.228C63.728,324.434,63.302,324.495,63.3,324.496z"/>
		<path style="fill:#231815;" d="M65.797,319.105c-1.213-1.215-2.413-2.554-3.637-3.72c-1.22-1.17-2.472-2.151-3.612-2.787
			c-0.563-0.308-2.204-1.275-4.704-1.479c-1.243-0.104-2.685-0.006-4.2,0.342c-1.515,0.343-3.097,0.925-4.64,1.654
			c-3.097,1.459-6.02,3.471-8.377,5.188c-2.351,1.734-4.203,3.148-4.997,3.802c-0.325,0.278-0.671,0.548-1.055,0.81
			c-0.137,0.121-0.201,0.185-0.304,0.253c0,0.128,0.032,0.234,0.037,0.388l0.002,0.056l-0.002,0.18l-0.009,0.365l-0.03,0.75
			c-0.05,1.021-0.149,2.116-0.284,3.317c-0.275,2.401-0.71,5.214-1.286,8.669c-0.517,3.155-1.785,7.116-2.877,10.257l-1.916,5.51
			c-0.19,0.013-0.25-0.86-0.156-2.263c0.089-1.401,0.332-3.325,0.641-5.385c0.634-4.121,1.408-8.786,1.859-11.011
			c0.339-1.598,0.73-3.665,1.016-5.796c0.144-1.064,0.259-2.145,0.339-3.186c0.039-0.525,0.069-1.025,0.089-1.536
			c0.039-0.657,0.005-1.362,0.062-1.957c0.465-0.192,0.92-0.387,1.323-0.593l0.284-0.155l0.199-0.113l0.378-0.224
			c0.49-0.299,0.909-0.578,1.241-0.8c0.593-0.39,1.872-1.338,3.5-2.576c1.63-1.231,3.619-2.734,5.704-4.096
			c2.081-1.368,4.28-2.568,6.162-3.338c1.877-0.785,3.415-1.14,3.955-1.291c1.074-0.301,3.054-0.673,5.498-0.319
			c1.215,0.173,2.525,0.544,3.795,1.118c1.268,0.575,2.495,1.344,3.596,2.228c2.204,1.792,3.193,3.588,3.715,4.939
			c0.506,1.373,0.52,2.384,0.446,3.089C67.388,320.785,65.804,319.082,65.797,319.105z"/>
		<path style="fill:#231815;" d="M50.395,310.271c-0.89-2-2.227-3.81-3.942-5.164c-1.701-1.363-3.706-2.298-5.473-2.877
			c-0.872-0.292-3.465-1.114-7.121-1.283c-1.817-0.087-3.887-0.025-6.022,0.307c-1.067,0.165-2.149,0.4-3.2,0.726
			c-1.044,0.331-2.081,0.736-2.919,1.309c-1.982,1.307-3.964,2.651-5.438,4.158c-0.735,0.753-1.312,1.552-1.733,2.411
			c-0.423,0.857-0.703,1.78-0.918,2.695c-0.421,1.838-0.634,3.596-0.813,5.012c-0.087,0.707-0.158,1.352-0.206,1.864
			c-0.037,0.507-0.057,0.941-0.053,1.259c0.014,2.559-0.053,5.268,0.185,8.827c0.115,1.781,0.314,3.778,0.533,6.107
			c0.105,1.165,0.213,2.412,0.293,3.754c0.041,0.672,0.073,1.367,0.096,2.085l0.025,1.095l0.007,0.496l0.018,0.066
			c0.041,0.135,0.048,0.22,0.025,0.371l-0.012,0.081l0.062-0.015l0.133-0.033c0.108-0.035,0.213-0.064,0.4-0.197l0.092-0.086
			l0.121-0.124l0.24-0.251c0.158-0.168,0.311-0.339,0.458-0.514c0.298-0.346,0.575-0.703,0.831-1.064
			c0.508-0.723,0.934-1.467,1.275-2.195c0.684-1.456,1.028-2.836,1.211-3.827c0.181-0.996,0.217-1.602,0.224-1.6
			c0.131-0.048,0.314,0.543,0.387,1.605c0.071,1.058,0.014,2.6-0.467,4.344c-0.476,1.743-1.392,3.65-2.788,5.352
			c-0.764,0.932-1.726,1.84-2.744,2.587c-0.51,0.372-1.035,0.719-1.579,1.053c-0.273,0.168-0.552,0.33-0.838,0.491
			c-0.094,0.07-0.085,0.003-0.11-0.018l-0.057-0.086l-0.133-0.159c0.123-1.736,0.272-3.587,0.3-5.175l0.012-1.038l-0.005-0.782
			l-0.016-1.347c0.012-3.052-0.483-7.344-0.696-11.453c-0.227-4.112,0.096-7.949,0.375-9.927c0.162-0.983,0.394-3.121,0.874-5.902
			c0.259-1.383,0.6-2.965,1.373-4.534c0.765-1.578,1.998-2.961,3.285-4.093c1.293-1.145,2.648-2.13,3.932-3.047
			c0.325-0.227,0.618-0.449,1.003-0.694c0.375-0.229,0.723-0.412,1.083-0.588c0.71-0.343,1.401-0.615,2.058-0.84
			c2.632-0.887,4.676-1.135,5.393-1.288c1.435-0.276,3.953-0.565,7.032-0.355c3.058,0.216,6.736,0.917,10.124,2.809
			c1.687,0.947,2.985,2.13,3.88,3.323c0.9,1.195,1.405,2.377,1.671,3.391c0.515,2.053,0.181,3.397-0.115,4.225
			c-0.325,0.832-0.705,0.448-1.009-0.065C50.692,310.932,50.395,310.27,50.395,310.271z"/>
		<path style="fill:#231815;" d="M25.617,299.999c-3.594,0.813-7.86,0.621-10.868,0.646c-0.749,0.019-2.928-0.056-5.674,0.244
			c-1.36,0.164-2.889,0.436-4.196,1.053c-1.321,0.621-2.197,1.576-2.374,3c-0.046,0.354-0.06,0.728-0.034,1.115l0.098,1.354
			l0.222,2.677c0.156,1.753,0.325,3.425,0.494,4.929c0.341,3.009,0.689,5.342,0.948,6.31c0.52,1.936,0.838,4.058,1.275,6.784
			l0.172,1.051l0.14,0.794c0.037,0.174,0.08,0.348,0.128,0.508c0.092,0.309,0.215,0.589,0.327,0.42l0.057-0.046l0.092,0.01
			l0.124-0.047c0.087,0.029,0.229,0.008,0.394-0.313c0.041-0.076,0.082-0.168,0.126-0.275l0.064-0.167
			c0.021-0.054,0.041-0.109,0.066-0.259l0.073-0.375l0.073-0.493l0.135-0.88l0.272-1.724c0.185-0.043,0.375,0.85,0.536,2.293
			c0.078,0.749,0.153,1.527,0.211,2.453c0.055,0.945,0.092,2.128,0.069,3.436c-0.021,1.308-0.115,2.704-0.307,3.864
			c-0.094,0.584-0.208,1.124-0.35,1.615c-0.153,0.488-0.3,0.947-0.613,1.307c-0.082,0.087-0.19,0.167-0.33,0.187
			c-0.137,0.022-0.254-0.035-0.343-0.089c-0.183-0.113-0.302-0.258-0.417-0.395c-0.222-0.279-0.396-0.565-0.556-0.845
			c-0.316-0.561-0.579-1.125-0.781-1.7c-0.401-1.109-0.819-2.918-1.188-4.934c-0.183-0.993-0.366-2.086-0.524-3.088l-0.362-2.385
			c-0.446-3.075-0.801-5.939-0.971-7.426c-0.174-1.488-0.872-6.599-1.465-11.624l-0.217-1.875l-0.103-0.936
			c-0.032-0.341-0.048-0.687-0.037-1.034c0.009-1.384,0.515-2.795,1.302-3.769c0.783-0.979,1.68-1.559,2.371-1.941
			c0.698-0.386,1.227-0.593,1.497-0.719c1.083-0.509,3.019-1.049,5.317-1.346c2.3-0.316,4.967-0.446,7.593-0.531
			c5.242-0.141,7.505,0.987,8.709,1.789C27.993,299.434,25.622,300.006,25.617,299.999z"/>
		<path style="fill:#231815;" d="M291.236,387.51c2.211-1.344,4.457-3.005,6.567-4.775c2.11-1.765,4.097-3.61,5.798-5.178
			c0.485-0.442,1.463-1.356,2.895-2.589c0.723-0.613,1.559-1.308,2.575-2.015c0.256-0.175,0.522-0.353,0.806-0.526
			c0.357-0.223,0.849-0.493,1.291-0.699c0.458-0.214,0.925-0.376,1.396-0.511l0.714-0.203c0.24-0.057,0.515-0.165,0.703-0.13
			l1.758,3.549l1.211,2.484c0.817,1.705,1.639,3.505,2.385,5.381c0.744,1.875,1.415,3.827,1.895,5.837
			c0.476,2.006,0.765,4.085,0.627,6.152c-0.034,0.514-0.098,1.028-0.192,1.534l-0.03,0.162l-0.018,0.12l-0.055,0.367l-0.133,0.721
			c-0.199,0.952-0.467,1.856-0.78,2.704c-0.634,1.693-1.424,3.154-2.181,4.402c-1.531,2.488-2.873,4.191-3.461,5.112
			c-1.376,2.108-3.06,4.154-4.832,6.679c-0.877,1.265-1.769,2.658-2.499,4.261c-0.364,0.802-0.68,1.656-0.911,2.566
			c-0.053,0.229-0.11,0.459-0.151,0.694c-0.023,0.118-0.048,0.236-0.064,0.354l-0.028,0.18l-0.023,0.152
			c-0.012,0.069-0.018,0.136-0.023,0.198c-0.124,0.99-0.092,2.131-0.117,3.245c-1.36,0.292-3.179,0.666-5.049,0.05
			c-0.231-0.076-0.462-0.167-0.691-0.268c-0.215-0.096-0.485-0.24-0.629-0.325c-0.336-0.197-0.659-0.422-0.957-0.668
			c-0.6-0.494-1.11-1.072-1.54-1.686c-0.895-1.279-1.453-2.753-1.808-4.258c-0.35-1.509-0.494-3.066-0.497-4.611
			c0-3.091,0.563-6.141,1.458-8.761c0.888-2.621,2.158-4.807,3.417-6.176c1.248-1.388,2.403-1.89,2.385-1.892
			c0.181,0.11-1.174,1.076-2.232,3.087c-1.099,1.983-1.973,4.906-2.328,8.093c-0.359,3.176-0.236,6.642,0.552,9.506
			c0.389,1.425,0.959,2.686,1.655,3.587c0.666,0.905,1.568,1.44,2.003,1.568c0.261,0.092,0.545,0.149,0.847,0.166
			c0.151,0.008,0.305,0.007,0.46-0.003l0.238-0.023c0.043-0.041,0.014-0.148,0.025-0.22c0.03-0.622,0.053-0.963,0.316-2.169
			c0.24-1.019,0.586-2.036,1.014-3.02c0.858-1.972,2.028-3.8,3.216-5.44c1.193-1.641,2.399-3.109,3.429-4.38
			c1.035-1.268,1.897-2.336,2.493-3.106c0.661-0.882,2.213-2.836,3.585-5.567c0.677-1.365,1.273-2.94,1.573-4.635
			c0.034-0.212,0.073-0.425,0.098-0.639l0.053-0.387l0.053-0.318c0.062-0.421,0.098-0.853,0.112-1.291
			c0.028-0.873-0.036-1.769-0.165-2.661c-0.536-3.58-1.991-7.011-3.239-9.676c-1.273-2.67-2.38-4.626-2.792-5.31l-0.339-0.561
			l-0.188-0.314c-0.06-0.099-0.073-0.111-0.112-0.172l-0.343-0.471l-0.034-0.035l-0.062,0.027l-0.121,0.058
			c-0.08,0.041-0.156,0.086-0.229,0.134c-0.073,0.047-0.142,0.097-0.208,0.15c-0.048,0.033-0.032,0.031-0.133,0.101l-0.321,0.229
			c-0.861,0.634-1.774,1.443-2.721,2.341c-1.895,1.8-3.939,3.942-6.167,5.986c-2.964,2.742-5.667,4.27-7.778,4.999
			c-2.124,0.737-3.628,0.739-4.605,0.627c-0.982-0.132-0.629-0.592-0.092-1.016C290.501,387.958,291.238,387.515,291.236,387.51z"/>
		<path style="fill:#231815;" d="M319.06,378.297c0.398-0.675,0.916-1.337,1.593-1.926c0.671-0.584,1.517-1.112,2.566-1.368
			c1.037-0.268,2.273-0.14,3.211,0.314c0.952,0.442,1.625,1.073,2.129,1.648c0.256,0.288,0.705,0.865,1.158,1.676
			c0.458,0.808,0.918,1.845,1.323,3.033c0.817,2.377,1.419,5.356,1.783,8.371c0.181,1.508,0.311,3.021,0.366,4.495
			c0.014,0.371,0.021,0.737,0.021,1.107c0,0.382-0.023,0.804-0.073,1.184c-0.101,0.776-0.291,1.49-0.515,2.134
			c-0.456,1.292-1.023,2.321-1.488,3.135c-0.472,0.814-0.852,1.414-1.046,1.792c-0.783,1.518-1.925,2.922-3.424,4.621
			c-1.479,1.706-3.42,3.694-5.404,6.527c-0.701,1.022-1.534,2.141-2.22,3.278c-0.691,1.136-1.204,2.283-1.366,3.316
			c-0.382,2.063,0.746,3.811,0.705,3.794c-0.112,0.134-0.728-0.205-1.394-1.088c-0.325-0.444-0.648-1.033-0.852-1.759
			c-0.204-0.721-0.279-1.575-0.19-2.457c0.174-1.777,0.966-3.585,1.815-5.054c0.856-1.479,1.765-2.669,2.399-3.396
			c1.27-1.459,3.117-3.402,4.782-5.235c1.678-1.825,3.097-3.597,3.758-4.554c0.327-0.475,1.073-1.557,1.664-3.024
			c0.291-0.731,0.526-1.561,0.593-2.418c0.014-0.214,0.023-0.43,0.016-0.646l-0.032-0.718c-0.027-0.486-0.073-0.981-0.124-1.474
			c-0.398-3.971-1.451-7.731-1.808-8.471c-0.339-0.755-0.838-2.097-1.605-3.52c-0.382-0.704-0.845-1.426-1.364-1.992
			c-0.52-0.576-1.087-0.908-1.467-0.928c-0.364-0.033-0.758,0.016-1.275,0.161c-0.504,0.142-1.028,0.339-1.506,0.501
			c-0.966,0.341-1.79,0.525-2.41,0.586c-0.622,0.072-0.728-0.324-0.652-0.759C318.797,378.749,319.06,378.296,319.06,378.297z"/>
		<path style="fill:#231815;" d="M335.847,386.187c1.252-0.271,2.82,0.066,4.024,0.901c1.22,0.818,2.019,1.978,2.522,2.934
			c0.266,0.479,0.909,1.902,1.277,3.798c0.389,1.895,0.536,4.238,0.449,6.558c-0.078,2.323-0.371,4.627-0.703,6.51
			c-0.158,0.875-0.316,1.836-0.549,2.55c-0.215,0.728-0.439,1.279-0.547,1.621c-0.426,1.376-1.428,2.676-2.854,3.885
			c-1.415,1.231-3.292,2.352-5.297,4.012c-1.451,1.193-3.314,2.479-4.635,3.836c-1.337,1.328-2.195,2.615-2.204,2.606
			c-0.35-0.07-0.062-2.305,1.344-4.602c0.684-1.143,1.623-2.26,2.557-3.151c0.932-0.894,1.833-1.581,2.442-1.971
			c1.22-0.789,2.941-1.814,4.296-2.964c1.383-1.133,2.241-2.486,2.573-3.242c0.179-0.382,0.501-1.211,0.664-2.443
			c0.211-1.243,0.369-2.741,0.424-4.237c0.057-1.495,0.002-2.968-0.121-4.129c-0.119-1.163-0.302-2.012-0.405-2.304
			c-0.208-0.584-0.485-1.599-0.945-2.707c-0.453-1.102-1.128-2.294-1.973-3.032c-0.831-0.718-1.351-1.156-1.882-1.681
			c-0.52-0.502-0.97-1.018-1.302-1.445c-0.339-0.425-0.178-0.761,0.126-0.99C335.424,386.273,335.847,386.184,335.847,386.187z"/>
		<path style="fill:#231815;" d="M169.212,251.61c0.032,3.045-7.677,1.272-8.627-0.942
			C159.637,248.457,169.145,245.351,169.212,251.61z"/>
		<path style="fill:#231815;" d="M184.582,252.287c7.222,2.408,10.591,1.444,15.407,2.89c4.816,1.444-0.964,3.369-2.889,2.889
			c-1.925-0.481-13.962-2.889-13.962-2.889S178.802,250.361,184.582,252.287z"/>
		<path style="fill:#231815;" d="M233.128,270.027c-7.661-1.532-7.581-11.916-2.165-9.75
			C236.379,262.442,238.546,271.111,233.128,270.027z"/>
		<path style="fill:#231815;" d="M169.212,273.278c-4.333-3.25-4.333-6.501,0-4.333
			C173.545,271.112,169.212,273.278,169.212,273.278z"/>
		<path style="fill:#231815;" d="M197.695,275.293c-5.416-0.078-7.403,2.494-2.648,3.429
			C199.801,279.655,197.695,275.293,197.695,275.293z"/>
	</g>
</g>
</svg>
