<?xml version="1.0" encoding="iso-8859-1"?>
<!-- Generator: Adobe Illustrator 18.1.1, SVG Export Plug-In . SVG Version: 6.00 Build 0)  -->
<svg version="1.1" id="_x37_" xmlns="http://www.w3.org/2000/svg" xmlns:xlink="http://www.w3.org/1999/xlink" x="0px" y="0px"
	 viewBox="0 0 512 512" style="enable-background:new 0 0 512 512;" xml:space="preserve">
<g>
	<path style="fill:#21983A;" d="M219.747,147.879l5.809-0.381c2.688-0.185,7.872-0.747,12.693-1.678
		c4.828-0.884,9.275-2.105,10.733-2.187c4.005-0.143,9.104-3.012,6.629-7.103c-1.987-3.313-6.706-1.232-8.618,0.678
		c-0.612,0.647-4.477,2.536-8.996,4.044c-4.501,1.548-9.624,2.651-12.152,3.145c-2.662,0.537-5.221,0.813-6.971,0.756
		c-1.274-0.018-9.479,0.26-19.38-0.726c-9.892-0.903-21.469-2.903-29.564-4.294c-7.841-1.43-11.917-3.543-13.549-5.201
		c-0.825-0.823-1.093-1.459-1.203-1.908c-0.106-0.455-0.067-0.762-0.015-1.066c0.178-1.067-0.283-2.996-1.156-4.244
		c-0.44-0.602-1.235-0.864-2.16-0.307c-0.454,0.279-0.94,0.77-1.332,1.575c-0.381,0.798-0.685,1.964-0.481,3.389
		c0.479,2.708,1.835,4.514,4.514,6.354c2.742,1.786,7.038,3.483,14.806,4.751c8.155,1.217,19.689,3.108,29.839,3.957
		C209.322,148.359,217.942,148.006,219.747,147.879z"/>
	<path style="fill:#21983A;" d="M154.852,124.693c5.244-6.401,12.959-14.699,20.041-20.832c3.535-3.057,6.179-4.954,7.771-6.046
		c1.586-1.086,2.212-1.352,1.805-0.792c-0.813,1.066-1.584,4.332-6.722,9.171c-5.121,4.819-8.869,8.98-10.84,11.582
		c-0.99,1.298-1.378,1.56-2.362,2.374c-0.954,0.829-2.615,2.159-5.608,5.886c-2.951,3.749-4.492,5.939-5.411,6.965
		c-0.884,1.04-1.473,0.765-1.198-0.731C152.865,129.344,154.847,124.686,154.852,124.693z"/>
	<path style="fill:#21983A;" d="M209.199,93.686c-0.278-0.644-1.376-2.499-2.995-4.875c-1.632-2.345-3.823-5.296-6.588-7.49
		c-1.334-1.054-3.023-1.954-4.34-2.035c-1.213-0.069-2.156,1.144-2.812,2.394c-1.274,2.558-1.91,4.922-2.266,5.801
		c-0.977,2.78-1.704,5.594-2.745,7.877c-0.982,2.296-2.425,3.976-3.137,4.445c-1.419,0.974-2.329,0.928-2.788-0.315
		c-0.502-1.287-0.46-1.789,0.58-2.443c0.535-0.296,2.265-1.633,3.504-3.777c1.275-2.085,2.224-4.606,2.598-5.861
		c0.487-1.646,0.951-3.368,1.597-5.122c0.329-0.878,0.699-1.768,1.232-2.648c0.53-0.863,1.262-1.801,2.453-2.369
		c1.181-0.592,2.652-0.445,3.596-0.143c1.014,0.284,1.931,0.715,2.77,1.201c1.674,0.98,3.04,2.166,4.245,3.333
		c2.399,2.352,4.158,4.66,5.511,6.398c1.337,1.754,2.238,2.94,2.606,3.33c0.695,0.771,0.929,1.284,0.54,1.458
		c-0.207,0.317-0.456,0.805-0.767,1.248c-0.274,0.466-0.839,0.747-1.475,0.584C209.929,94.571,209.41,94.217,209.199,93.686z"/>
	<path style="fill:#21983A;" d="M229.92,93.322c0.628-0.377,2.16-2.283,3.833-5.35l2.829-5.169c1.082-1.867,2.268-3.88,4.044-5.644
		c0.889-0.868,1.968-1.67,3.253-2.133c1.332-0.454,2.551-0.539,3.865-0.41c2.635,0.332,4.634,1.928,5.978,3.38
		c2.688,3.02,3.868,5.744,4.449,6.783c1.611,3.248,3.296,6.26,4.802,8.505c1.491,2.268,2.768,3.651,3.123,4.199
		c0.707,1.131,0.748,1.625-0.546,2.841c-1.274,1.176-2.128,1.427-3.182-0.163c-0.549-0.782-1.843-3.511-2.954-6.394
		c-1.135-2.885-2.342-5.886-3.135-7.25c-1.014-1.785-2.121-3.584-3.411-5.168c-1.278-1.574-2.807-2.92-4.388-3.389
		c-0.796-0.241-1.541-0.284-2.381-0.133c-0.848,0.117-1.387,0.389-2.034,0.853c-1.235,0.918-2.276,2.455-3.153,3.986
		c-1.743,3.126-3.034,6.32-4.266,8.752c-1.196,2.455-2.351,4.223-2.811,4.908c-0.903,1.388-1.833,1.818-2.462,1.72
		c-0.651-0.095-1.07-0.663-1.505-1.218C229.081,95.659,228.967,93.963,229.92,93.322z"/>
	<path style="fill:#21983A;" d="M300.083,124.108c1.707-1.496,3.312-3.108,4.795-4.833c-0.979-0.873-1.96-1.728-2.926-2.573
		l-10.913-9.376c-1.836-1.597-3.621-3.205-5.416-4.877l-1.355-1.284l-0.676-0.644l-0.338-0.325l-0.482-0.408
		c-1.317-1.11-2.429-1.933-3.589-2.761c-2.668-1.871-4.402-2.887-5.538-3.569c-1.116-0.66-1.67-0.907-2.108-0.949
		c-0.789-0.054-1.373,0.511-1.344,1.466c0.092,0.958,0.279,2.043,2.365,4.035c1.045,1.006,2.624,2.186,4.835,3.899
		c0.551,0.431,1.136,0.907,1.753,1.428c0.661,0.558,1.263,1.134,1.861,1.723c1.232,1.202,2.637,2.503,4.238,3.928
		c12.964,11.332,7.599,6.517,11.841,10.984C298.866,121.888,299.663,123.108,300.083,124.108z"/>
	<path style="fill:#21983A;" d="M369.081,221.581c-0.307-3.959-1.017-7.987-2.302-11.738c-0.637-1.874-1.423-3.671-2.317-5.332
		c-0.986-1.747-1.589-2.713-2.271-4.028c-2.565-4.941-7.215-12.078-10.606-19.34c-0.762-1.752-1.868-4.121-3.002-5.91
		c-1.135-1.872-2.346-3.569-3.519-5.096c-1.021-1.321-1.99-2.499-2.89-3.582c-1.337,3.447-2.036,7.158-2.1,10.719
		c1.237,1.644,2.747,3.611,4.114,5.887c3.006,4.997,6.988,9.542,9.641,11.944c2.658,2.4,4.125,4.825,5.22,7.196
		c1.062,2.334,1.937,4.666,2.736,6.958c0.831,2.285,1.211,4.424,1.241,6.929c0.012,2.504-0.345,5.387-1.338,9.158
		c-1.019,3.756-0.759,5.649-0.218,7.899c0.526,2.238,1.257,4.82,0.857,9.702c-0.196,2.438-0.399,5.181-0.542,8.043
		c-0.072,1.43-0.125,2.889-0.151,4.35l-0.011,2.192c0.018,0.79-0.023,1.637-0.069,2.456c-0.306,6.339-1.128,12.662-2.645,17.678
		c-0.752,2.497-1.724,5.589-2.994,8.833c-0.617,1.622-1.359,3.278-2.134,4.919l-2.132,4.431l-5.621,12.195
		c-0.639,1.327-1.517,4.526-2.79,8.46c-1.295,3.893-3.074,8.297-5.618,11.358c-0.503,0.601-1.007,1.203-1.528,1.797
		c0.049,0.235,0.075,0.489,0.075,0.759v2.507c0.077-0.064,0.155-0.113,0.231-0.181c1.708-1.513,2.895-3.055,3.985-4.624
		c4.166-6.183,6.659-13.353,8.513-18.084c1.895-5.061,3.813-8.648,5.757-12.097c0.986-1.771,1.926-3.362,2.962-5.437
		c1.121-2.26,2.056-4.735,2.759-7.566c1.44-5.668,2.798-13.054,3.826-20.63l0.38-2.847c0.116-0.948,0.277-2.056,0.365-3.074
		c0.143-1.836,0.345-3.392,0.608-5.119c0.523-3.374,1.233-6.734,1.942-9.847C368.882,237.207,369.675,229.527,369.081,221.581z"/>
	<path style="fill:#21983A;" d="M174.778,153.731c-2.337-1.551-3.982-3.108-5.4-4.402l-3.423-3.28
		c-1.805-1.771-2.818-2.766-3.108-3.453c-0.295-0.666,0.246-1.033,1.437-0.825c1.181,0.201,2.904,1.066,4.572,2.57
		c1.674,1.496,3.256,3,4.859,4.368c0.8,0.683,1.603,1.333,2.412,1.901c0.757,0.541,1.722,1.093,2.605,1.716
		c3.529,2.425,6.574,5.105,8.959,7.789c4.725,5.35,8.751,11.593,10.527,18.693c0.442,1.764,0.784,4.032,0.797,6.274
		c0.029,2.241-0.292,4.431-0.749,6.04c-0.449,1.617-0.996,2.653-1.246,2.783c-0.282,0.126-0.208-0.632-0.034-2.719
		c0.252-4.195-0.553-7.092-1.543-10.012c-1.061-2.917-2.398-5.942-4.948-10.223c-2.549-4.289-6.28-8.886-9.602-12.091
		C177.571,155.594,174.861,153.816,174.778,153.731z"/>
	<path style="fill:#21983A;" d="M209.637,96.787c1.706,0.466,3.902,0.331,6.113-0.285c2.224-0.604,4.481-1.609,6.741-2.311
		c2.254-0.717,4.102-0.818,5.157-0.604c1.063,0.214,1.332,0.539,0.983,0.536c-0.778,0.032-1.893,1.19-5.026,2.386
		c-3.195,1.249-5.811,2.491-7.461,3.109c-0.819,0.325-1.09,0.297-1.787,0.289c-0.696-0.046-1.833,0.078-4.468-0.205
		c-2.653-0.371-3.966-1.435-4.407-2.06c-0.455-0.642-0.134-0.962,0.533-0.808C207.396,97.211,209.665,96.828,209.637,96.787z"/>
	<path style="fill:#21983A;" d="M189.188,257.546c-0.016,6.141-0.146,11.283,0.206,16.984c0.193,2.85,0.483,5.844,1.235,9.166
		l1.263,4.984c0.434,1.747,0.898,3.618,1.462,5.608c1.137,3.983,2.166,7.111,3.491,9.643l0.26,0.478
		c0.101,0.211,0.24,0.404,0.4,0.582l0.553,0.689c0.348,0.45,0.664,0.896,0.959,1.334c0.588,0.877,1.087,1.725,1.598,2.562
		c0.999,1.666,2.164,3.328,3.864,4.629l5.276,3.787c4.164,2.981,5.913,4.12,8.05,5.581c2.176,1.412,4.653,3.338,11.212,6.716
		c3.315,1.622,5.054,2.293,5.855,2.603c0.807,0.307,0.688,0.243,0.452,0.114c-0.459-0.298-1.444-0.668,3.623,0.813
		c5.105,1.405,8.865,1.483,11.23,1.377c2.38-0.125,3.429-0.473,3.43-0.455c-3.39-1.183-6.611-2.618-9.632-4.262
		c-7.155-1.253-14.115-3.764-20.656-7.175c-0.006,0.006-4.306-2.596-9.145-6.259l-3.756-2.837l-1.945-1.439l-1.863-1.314
		c-2.036-1.501-3.139-3.868-4.361-5.678c-0.581-0.889-1.241-1.847-1.988-2.799c-0.223-0.289-0.075-0.09-0.242-0.394l-0.326-0.693
		c-0.211-0.478-0.406-0.982-0.589-1.508c-0.732-2.101-1.269-4.459-1.729-6.785l-1.244-6.773l-1.11-5.374
		c-0.546-2.831-1.395-7.229-1.961-12.254c-0.583-5.02-0.932-10.62-0.884-15.718C192.245,243.276,189.277,245.298,189.188,257.546z"
		/>
	<path style="fill:#21983A;" d="M260.828,307.144c2.292,0.491,4.247,1.186,5.09,3.315c0.471,1.306,0.576,1.65,0.886,2.005
		c0.285,0.353,0.775,0.715,1.52,2.101c0.369,0.677,2.155,3.319,3.36,7.273c1.274,3.934,1.994,9.036,2.529,14.159
		c1.047,10.164,3.408,20.747,4.484,24.372c1.004,3.65,2.466,7.744,4.093,11.497c1.613,3.764,3.433,7.151,4.835,9.608
		c1.392,2.457,1.842,3.975,1.631,4.671c-0.198,0.681-1.038,0.453-1.91-0.875c-0.87-1.317-2.588-3.717-4.082-6.154
		c-1.507-2.427-2.799-4.863-3.212-5.924c-0.427-1.057-1.897-4.525-3.11-8.026c-1.24-3.491-2.256-6.992-2.479-7.874
		c-0.24-0.879-2.405-9.256-3.813-17.844c-0.706-4.334-1.316-8.484-2.169-11.605c-0.811-3.127-1.767-5.127-2.081-5.535
		c-0.626-0.829-1.34-2.125-2.174-3.182c-0.832-1.057-1.772-1.865-2.49-1.991c-1.073-0.206-1.381-0.866-1.566-2.005
		c-0.169-1.137-0.219-2.685-0.457-4.356C259.523,309.307,259.379,306.837,260.828,307.144z"/>
	<path style="fill:#21983A;" d="M329.559,355.262l0.499-7.352l0.296-3.298c0.071-0.626,0.084-0.795,0.077-1.389l0.015-1.496
		c0.052-3.913,0.255-7.202,0.614-9.884c0.696-5.384,2.012-8.255,2.78-9.147c0.784-0.903,0.941-0.01,0.767,2.049l-0.781,9.74
		c-0.155,2.151-0.225,4.32-0.253,6.491l-0.015,1.628l-0.004,0.818v0.405l-0.034,0.553l-0.293,3.223l-0.888,12.731
		c-0.588,8.374-1.62,16.311-3.953,23.315c-1.293,3.404-2.808,6.497-3.34,9.563c-0.262,1.523-0.259,3.008,0.079,4.445l0.459,2.714
		l0.409,2.636c0.251,1.78,0.435,3.69,0.295,5.626c-0.129,1.936-0.558,3.784-1.069,5.53c-0.259,0.877-0.541,1.734-0.835,2.581
		c-0.219,0.572-0.358,1.401-0.436,2.159c-0.151,1.572-0.083,3.254,0.031,4.97c0.11,1.72,0.303,3.696,0.335,5.853
		c0.012,1.077-0.018,2.2-0.171,3.35c-0.072,0.575-0.184,1.155-0.332,1.733c-0.183,0.725-0.367,1.053-0.501,1.569
		c-1.129,3.873-0.396,8.213-0.193,11.481c0.279,3.302,0.062,5.624-0.157,5.994c-0.249,0.371-0.23-1.122-0.945-5.392
		c-0.739-4.255-1.605-8.068-1.043-11.788c0.064-0.459,0.153-0.913,0.259-1.359l0.173-0.666l0.087-0.481
		c0.113-0.739,0.151-1.495,0.145-2.259c-0.016-1.531-0.207-3.083-0.426-4.687c-0.221-1.611-0.487-3.272-0.648-5.087
		c-0.139-1.841-0.264-3.728,0.273-6.096c0.598-1.938,1.133-3.775,1.455-5.823c0.332-2.019,0.253-4.111-0.138-6.644l-0.639-3.92
		l-0.167-1.012l0.002,0.013l-0.032-0.146l-0.065-0.291l-0.11-0.588c-0.129-0.789-0.193-1.594-0.186-2.394
		c0.027-3.232,1.098-6.172,2.15-8.796l1.571-3.835c0.443-1.132,0.798-2.434,1.156-3.689c0.698-2.51,1.239-4.974,1.673-7.3
		C329.138,362.286,329.484,355.246,329.559,355.262z"/>
	<path style="fill:#21983A;" d="M300.183,429.678c-0.053-2.303-0.106-4.642-0.21-6.94c-0.071-1.614-0.213-3.994-0.598-6.714
		c-0.374-2.72-1.056-5.747-1.875-8.581c-1.656-5.662-3.496-10.678-3.686-12.35c-0.59-4.5-3.473-10.362-7.679-8.139
		c-3.445,1.822-0.949,7.964,1.309,10.31c0.716,0.777,3.227,5.449,5.472,10.669c1.115,2.615,2.081,5.388,2.716,7.93
		c0.644,2.54,1.009,4.837,1.241,6.356c0.489,3.202,0.657,6.29,0.562,8.388l-0.067,7.771c-0.087,4.135,0.055,9.673-0.271,15.524
		c-0.214,2.907-0.652,5.924-1.938,8.522c-1.251,2.614-3.468,4.638-6.026,6.108c-5.283,2.831-11.061,4.481-15.732,6.099
		c-9.244,3.06-14.457,5.261-17.628,6.847c-3.174,1.599-4.378,2.398-5.558,3.178c-1.186,0.815-1.895,2.012-2.07,3.092
		c-0.188,1.084,0.171,2.004,0.732,2.487c0.575,0.492,1.303,0.631,2.044,0.405c0.762-0.232,1.545-0.865,2.796-2.205
		c1.241-1.28,2.263-2.241,4.953-3.841c2.712-1.588,7.197-3.709,15.845-6.759c4.568-1.692,10.359-3.371,16.153-6.531
		c2.877-1.656,5.69-4.193,7.229-7.445c1.572-3.223,1.992-6.62,2.21-9.708c0.198-3.105,0.156-6.033,0.162-8.699l-0.003-7.301
		L300.183,429.678z"/>
	<path style="fill:#21983A;" d="M322.483,465.653c0.264,4.199-0.236,7.703-1.547,11.059c-1.354,3.327-3.53,6.554-8.183,9.409
		c-2.338,1.41-4.45,2.147-6.211,2.662c-1.773,0.505-3.236,0.77-4.577,0.974l-3.969,0.526c-1.478,0.242-3.007,0.691-4.783,1.429
		c-3.506,1.531-4.757,2.283-6.453,3.02c-1.663,0.69-3.734,1.759-8.305,3.127c-2.303,0.605-3.24,0.593-3.806,0.644
		c-0.548,0.037-0.471,0.049-0.287,0.078c0.308,0.053,1.179,0.172-2.477,0.624c-3.734,0.406-6.691,1.692-8.184,3.129
		c-1.519,1.465-1.619,2.534-1.649,2.489c2.765-1.504,5.319-0.884,7.699-0.304c2.418-0.651,5.074-0.793,8.014-1.698
		c2.781-0.908,5.234-2.224,7.608-3.562c0.008,0.034,3.399-1.577,7.338-3.268c1.971-0.822,4.116-1.593,6.017-1.913
		c2.016-0.298,4.158-0.602,5.604-0.915c2.948-0.614,6.756-1.371,10.298-2.926c3.559-1.487,6.656-4.005,8.179-6.105
		c1.611-2.039,3.053-5.783,3.335-9.788c0.347-4.016-0.194-8.199-0.686-11.92c-0.522-3.741-1.728-4.996-2.394-4.288
		C322.345,458.85,322.156,461.462,322.483,465.653z"/>
	<path style="fill:#21983A;" d="M289.444,489.512c-11.027,0.483-21.198,8.116-28.39,15.97c-1.08,1.178,2.844,0.862,3.638-0.005
		c5.725-6.25,14.353-13.497,23.181-13.886C289.222,491.533,292.084,489.394,289.444,489.512z"/>
	<path style="fill:#21983A;" d="M290.434,484.826c-13.199,3.301-39.633,7.189-44.456,22.937c-0.42,1.376,3.527,0.822,3.932-0.497
		c4.292-14.024,29.266-17.546,41.045-20.492C293.331,486.179,292.795,484.235,290.434,484.826z"/>
	<path style="fill:#21983A;" d="M275.661,478.178c-16.247,6.329-29.178,16.938-37.015,32.675c-0.859,1.723,3.082,1.29,3.669,0.111
		c7.451-14.96,19.421-25.079,34.914-31.112C279.789,478.853,277.452,477.48,275.661,478.178z"/>
	<path style="fill:#21983A;" d="M242.189,407.611c5.825,12.215,11.134,26.842,4.111,39.754c-5.356,9.847-20.145,7.475-29.263,9.548
		c-6.565,1.491-12.96,4.127-19.097,6.837c-3.027,1.337-10.49,3.992-11.007,8.014c-0.22,1.711,3.759,1.03,3.948-0.434
		c0.666-5.179,18.925-9.927,23.046-11.24c8.038-2.563,16.845-1.515,24.876-4.4c21.378-7.679,14.885-33.26,7.317-49.134
		C245.419,405.085,241.565,406.302,242.189,407.611z"/>
	<path style="fill:#21983A;" d="M270.438,357.907c-8.303,14.696-4.919,29.457-1.287,44.952c2.511,10.716,5.262,21.858,5.353,32.912
		c0.041,4.868-3.103,10.566-4.745,15.103c-2.662,7.35-4.654,13.298-12.756,17.073c-2.346,1.096,1.365,0.824,2.239,0.418
		c15.232-7.099,20.301-28.931,18.28-44.166c-2.941-22.159-15.332-45.569-3.214-67.015
		C274.545,356.765,270.979,356.949,270.438,357.907z"/>
	<path style="fill:#21983A;" d="M233.191,466.039c-11.614,0.596-20.635,10.825-28.285,18.503c-1.743,1.749,2.057,2.393,3.29,1.157
		c6.535-6.559,14.703-16.274,24.644-16.785C235.064,468.798,235.873,465.901,233.191,466.039z"/>
	<path style="fill:#21983A;" d="M230.268,459.452c-10.252,3.795-20.23,5.823-29.992,10.984c-5.99,3.169-15.161,8.151-16.03,15.675
		c-0.139,1.19,3.775,0.412,3.895-0.628c0.95-8.219,11.779-13.032,18.266-16.287c8.111-4.071,16.856-5.504,25.284-8.624
		C234.307,459.605,231.852,458.865,230.268,459.452z"/>
	<path style="fill:#21983A;" d="M218.601,469.816c-4.931,2.289-10.96,1.548-16.137,3.531c-5.661,2.167-10.847,5.057-15.515,8.934
		c-2.055,1.707,1.144,2.782,2.559,1.606c4.755-3.947,10.061-6.886,15.923-8.847c4.937-1.651,10.072-0.896,14.855-3.117
		C222.742,470.784,220.536,468.917,218.601,469.816z"/>
	<path style="fill:#21983A;" d="M201.913,130.223c4.751-2.716,10.18-2.716,6.108,0.678
		C203.949,134.293,201.913,130.223,201.913,130.223z"/>
	<path style="fill:#21983A;" d="M190.378,130.9c-4.072-4.072-5.429,0-3.394,2.036C189.02,134.972,190.378,130.9,190.378,130.9z"/>
	<path style="fill:#21983A;" d="M226.256,330.272c0.618,1.623,1.245,2.794,0.318,4.362c-1.131,1.915-0.438,1.135-0.588,3.575
		c-0.011,1.207,0.865,9.72,3.31,18.308c0.62,2.153,1.321,4.277,2.15,6.346c0.825,2.123,1.501,4.253,2.078,6.171
		c1.152,3.862,1.931,7.043,2.375,8.681c1.684,6.59,4.517,14.798,6.542,19.4c1.983,4.59,0.328,5.932-0.917,3.407l-2.97-5.829
		c-1.117-2.271-2.081-4.508-2.37-5.469c-0.649-1.927-3.98-12.614-4.415-14.102c-0.111-0.377-0.678-2.377-1.608-5.115
		c-0.462-1.359-1.034-2.944-1.673-4.516c-0.677-1.59-1.499-3.412-2.175-5.249c-2.809-7.358-4.369-15.036-4.852-15.955
		c-0.921-1.891-1.408-5.99-2.399-7.337c-1.514-2.06,0.863-3.92,3.49-5.835C223.736,330.254,225.874,329.268,226.256,330.272z"/>
	<path style="fill:#21983A;" d="M253.208,468.413c-5.11,1.692-8.75,1.865-15.706,4.091c-6.982,2.238-8.032,1.811-12.483,3.039
		c-2.22,0.638-3.1,0.94-4.228,1.223l-2.066,0.523c-0.874,0.244-1.994,0.443-3.742,1.173c-3.182,1.479-3.019,1.519-2.826,1.448
		c0.25-0.066,0.696-0.169-1.192,1.091c-1.852,1.247-2.925,2.207-3.652,2.886c-0.714,0.685-1.03,1.099-1.026,1.114
		c1.625,0.379,3.477,0.406,5.284,0.304c1.43-1.016,2.722-2.081,4.023-3.018c0.649-0.463,1.299-0.892,1.959-1.244
		c0.662-0.346,1.462-0.705,2.201-1.034c-0.001-0.003,2.159-0.63,4.787-1.243l7.479-1.644c3.512-0.838,9.002-1.335,11.699-1.98
		c2.701-0.63,7.766-3.236,12.081-4.857c2.18-0.811,2.76-1.808,2.189-2.269C257.408,467.531,255.738,467.554,253.208,468.413z"/>
	<path style="fill:#21983A;" d="M313.72,58.53c-0.033-0.753-0.576-3.168-1.856-6.262c-1.269-3.092-3.324-6.835-6.004-10.16
		c-2.652-3.349-5.912-6.223-8.826-8.182c-2.907-1.977-5.399-3.113-6.398-3.574c-6.205-2.877-12.641-2.404-14.048-2.599
		c-1.47-0.201-2.116-0.529-1.981-1.883c0.135-1.341,0.475-1.862,2.184-1.648c0.85,0.117,3.681,0.615,6.602,1.485
		c2.934,0.822,5.914,2.052,7.383,2.626c3.854,1.461,7.767,3.638,11.193,6.362c3.435,2.715,6.351,5.952,8.584,9.124
		c4.503,6.372,6.286,12.279,6.794,13.59c0.971,2.704-0.182,3.018-1.231,3.159C315.048,60.702,313.777,59.768,313.72,58.53z"/>
	<path style="fill:#21983A;" d="M309.445,127.611c-3.935,6.456-8.222,10.32-11.518,12.351c-3.329,2.042-5.584,2.394-6.547,2.162
		c-0.978-0.241-0.783-1.105,0.21-2.193c0.998-1.108,2.737-2.547,5.017-4.286c4.571-3.529,8.102-8.388,10.746-13.285
		c2.665-4.919,4.519-9.905,6.079-14.341c3.099-8.897,4.947-18.25,5.449-27.612c0.114-2.342,0.184-5.279-0.05-8.168
		c-0.215-2.889-0.75-5.717-1.45-7.85c-0.675-2.141-1.479-3.582-1.418-3.994c-0.013-0.376,1.12,0.181,2.78,2.952
		c1.594,2.789,2.437,5.378,3.123,7.777c0.648,2.412,1.088,4.677,1.375,7.03c0.535,4.699,0.655,9.817-0.659,17.225
		c-1.302,7.413-4.118,15.758-7.15,21.943C312.451,123.541,309.424,127.606,309.445,127.611z"/>
	<path style="fill:#21983A;" d="M168.64,84.607c-0.008-4.667,0.325-9.8,1.284-15.159c0.978-5.344,2.54-10.968,5.446-16.256
		c0.726-1.319,1.556-2.602,2.48-3.837c0.505-0.66,0.908-1.147,1.263-1.653c0.371-0.52,0.726-1.063,1.06-1.631
		c1.35-2.267,2.44-4.836,3.626-7.444c1.193-2.604,2.46-5.311,4.358-7.789c1.843-2.48,4.582-4.608,7.602-5.498
		c1.604-0.479,2.72-0.6,3.861-0.901c1.134-0.279,2.212-0.577,3.227-0.913c2.028-0.672,3.813-1.454,5.393-2.286
		c3.144-1.65,5.644-3.466,7.936-4.255c2.275-0.829,3.898-0.65,4.588-0.534c0.713,0.136,0.634,0.241-0.175,0.265
		c-0.81,0.045-1.829,0.29-2.99,0.878c-1.168,0.589-2.411,1.556-3.919,2.855c-1.512,1.289-3.369,2.91-5.97,4.424
		c-2.57,1.51-5.969,2.849-9.895,3.679c-3.528,0.8-6.039,3.343-7.733,6.237c-1.722,2.901-2.885,6.001-4.148,8.841
		c-1.244,2.844-2.59,5.517-4.268,7.68c-1.384,1.853-2.347,3.69-3.061,5.29c-1.357,3.247-1.757,4.174-2.783,6.787
		c-0.486,1.321-1.093,3.084-1.725,5.889c-0.613,2.801-1.279,6.662-1.403,12.12c-0.166,10.936,1.381,17.274,1.946,20.222
		c0.307,1.479,0.36,2.166,0.064,2.147c-0.28-0.026-0.908-0.78-1.582-2.271c-1.361-2.97-2.659-7.162-3.396-10.653
		C168.968,87.356,168.65,84.605,168.64,84.607z"/>
	<path style="fill:#21983A;" d="M334.91,164.696c1.262-2.932,2.623-5.994,4.064-9.157c1.484-3.153,2.783-6.299,3.923-9.757
		c2.285-6.846,3.796-14.367,5.031-22.129l1.811-11.783c0.623-3.877,1.016-7.757,1.192-11.626c0.358-7.733-0.247-15.369-1.74-22.447
		c-3.043-14.195-8.487-23.13-11.674-28.234l-3.28-5.018c-0.499-0.825-0.365-0.823,0.362,0.023c1.455,1.685,3.944,3.965,7.361,8.465
		c3.308,4.509,7.688,11.413,10.452,22.491c2.705,11.069,2.85,21.422,2.163,30.075c-0.316,4.353-0.993,8.266-1.405,11.693
		l-1.182,9.129c-0.721,5.214-1.126,6.687-2.196,10.705c-0.558,2.004-1.28,4.654-2.617,8.66c-0.673,2-1.517,4.338-2.656,7.062
		c-1.164,2.775-2.608,5.711-4.13,9.305c-6.186,14.266-9.04,22.978-9.923,27.049c-0.455,2.029-0.583,2.927-0.868,2.744
		c-0.25-0.178-0.588-1.536-0.388-3.82C330.018,178.999,334.974,164.701,334.91,164.696z"/>
	<path style="fill:#21983A;" d="M324.172,36.672c-1.91-2-4.096-4.129-6.452-6.322c-1.178-1.093-2.399-2.206-3.65-3.308
		c-0.623-0.545-1.262-1.102-1.881-1.602l-0.437-0.34l-0.121-0.084l-0.246-0.147l-1.102-0.657c-2.947-1.762-5.947-3.388-9.026-4.845
		l-4.65-2.16c-1.654-0.792-3.024-1.547-4.481-2.283c-5.658-2.972-9.729-4.543-12.248-5.569c-2.497-1.001-3.254-1.513-2.286-1.345
		c0.961,0.187,2.475,0.042,4.974,0.274c2.481,0.224,6.029,0.926,10.53,3.054c2.278,1.04,4.295,2.127,6.293,2.922
		c2.02,0.862,3.915,1.69,5.653,2.491c3.48,1.606,6.284,3.087,8.351,4.127c0.292,0.153,0.42,0.202,0.781,0.418
		c0.347,0.223,0.517,0.351,0.711,0.497c0.365,0.275,0.642,0.513,0.901,0.751c0.515,0.473,0.937,0.934,1.561,1.602
		c1.241,1.34,3.287,3.473,8.243,8.244c4.948,4.779,7.469,8.08,8.34,9.885c0.442,0.901,0.44,1.443,0.174,1.491
		c-0.251,0.061-0.729-0.229-1.464-0.873C329.709,40.319,324.164,36.672,324.172,36.672z"/>
	<path style="fill:#21983A;" d="M190.35,97.455l0.092-0.485l0.201-1.837l1.421-0.241c0.893-0.151,1.967-0.362,3.108-0.276
		c1.13,0.077,2.268,0.479,3.002,1.147c1.642,1.566,0.755,3.269,0.621,3.063c-0.202-0.181-1.65,0.616-2.457,0.101
		c-0.883-0.544-1.738-0.28-2.086,0.11c-0.347,0.398-0.152-0.408-1.225-0.286l1.391-1.782l-0.005,0.235
		c0,1.756-2.032,2.092-2.437,1.589C191.569,98.292,190.35,97.455,190.35,97.455z"/>
	<path style="fill:#21983A;" d="M240.753,93.756c1.129-0.398,2.331-1.027,3.768-1.483c1.407-0.444,3.174-0.716,4.851,0.001
		c1.715,0.752,2.261,2.253,2.182,2.969c-0.055,0.771-0.392,1.048-0.469,0.895c-0.086-0.163-0.584-0.228-1.134-0.235
		c-0.57-0.02-1.061,0.07-1.59-0.11c-1.177-0.377-2.431,0.316-2.922,0.857c-0.511,0.605-0.496-0.398-2.437,0.509
		c-0.925,0.487-1.642,0.437-2.24,0.22c-0.589-0.211-1.027-0.638-0.863-1.067C240.168,95.494,240.732,93.754,240.753,93.756z"/>
	<path style="fill:#21983A;" d="M143.46,121.382c-0.126-1.156-0.395-3.596-0.405-6.964c-0.046-3.366,0.211-7.674,0.354-12.541
		c0.019-1.202,0.043-2.485-0.064-3.679c-0.155-1.291-0.288-2.631-0.392-4.023c-0.199-2.768-0.276-5.666-0.213-8.648
		c0.129-5.958,0.807-12.256,2.227-18.449c0.353-1.549,0.75-3.09,1.214-4.612l0.368-1.199l0.469-1.108l0.913-2.157
		c1.221-2.873,2.456-5.711,3.771-8.455c0.662-1.371,1.336-2.722,2.089-4.033c0.379-0.656,0.772-1.302,1.244-1.942
		c0.127-0.151,0.232-0.328,0.436-0.523l0.361-0.374l0.695-0.762c1.817-2.063,3.31-4.326,4.876-6.431
		c1.543-2.172,3.388-3.94,4.965-5.542c1.625-1.605,3.169-3.028,4.586-4.254c2.835-2.458,5.128-4.169,6.475-5.12
		c4.117-2.933,8.384-5.341,12.445-7.545c4.125-2.172,8.023-3.892,11.516-5.501c6.989-3.19,12.718-4.838,15.043-5.193
		c4.649-0.762,6.891-0.292,6.855,1.012c-0.01,1.424-0.807,1.705-5.482,2.336c-1.17,0.176-3.714,0.592-6.945,1.497
		c-3.234,0.889-7.138,2.266-11.108,3.871c-3.991,1.6-8.036,3.286-11.454,5.128c-3.436,1.818-6.333,3.539-8.128,4.804
		c-4.713,3.298-9.215,7.235-13.362,11.576c-1.016,1.108-2.095,2.157-2.931,3.324c-0.898,1.184-1.75,2.437-2.64,3.693
		c-0.889,1.256-1.813,2.523-2.842,3.732l-0.788,0.895l-0.411,0.437l-0.256,0.313c-0.387,0.533-0.76,1.162-1.114,1.793
		c-1.412,2.572-2.627,5.34-3.807,8.066l-1.717,4.103l-0.837,2.045l-0.418,1.024c-0.092,0.225-0.097,0.228-0.135,0.372l-0.147,0.515
		c-1.59,5.48-2.464,11.001-2.862,16.239c-0.412,5.246-0.336,10.219,0.049,14.722c0.113,1.123,0.213,2.214,0.369,3.319
		c0.071,0.54,0.146,1.067,0.178,1.733l0.058,1.677c0.028,2.16-0.03,4.133-0.062,5.956c-0.227,7.292,0.227,12.141,0.635,13.855
		c0.714,3.479,1.338,4.775,1.414,5.621c0.115,0.816-0.264,1.183-0.689,1.529c-0.387,0.352-1.459,0.007-2.454-1.178
		C144.42,125.171,143.637,123.284,143.46,121.382z"/>
	<path style="fill:#21983A;" d="M254.079,14.135c-0.614-0.636-5.342-1.756-10.309-2.006c-4.956-0.35-10.017,0.004-11.284,0.117
		c-3.956,0.259-7.108,2.353-7.815,2.585c-0.774,0.213-1.189,0.073-1.626-1.213c-0.431-1.28-0.444-1.856,0.533-2.142
		c0.487-0.144,2.14-0.449,3.884-0.638c1.745-0.196,3.583-0.304,4.477-0.449c4.666-0.788,10.027-1.023,14.425-0.857
		c4.39,0.123,7.885,0.783,8.783,0.964c1.795,0.309,1.403,1.422,0.93,2.368C255.59,13.835,254.613,14.582,254.079,14.135z"/>
	<path style="fill:#21983A;" d="M272.7,26.819c-0.729-0.058-3.056,0.129-6.135-0.156c-3.078-0.266-6.883-1.004-10.604-2.118
		c-1.862-0.551-3.708-1.181-5.45-1.841l-2.524-1.002l-0.569-0.238c-0.087-0.036-0.304-0.086-0.507-0.144l-1.166-0.316
		c-3.031-0.808-5.399-1.326-6.357-1.528c-2.922-0.641-5.81-0.771-8.066-0.644c-2.261,0.12-3.884,0.437-4.51,0.458
		c-1.258,0.013-1.832-0.199-1.938-1.559c-0.1-1.341,0.115-1.92,1.649-1.962c0.765-0.029,3.306,0.101,5.936,0.519
		c2.636,0.389,5.372,0.988,6.727,1.202c1.771,0.273,3.59,0.611,5.419,0.994l2.746,0.607l0.748,0.176l0.738,0.273l1.293,0.467
		c3.445,1.214,6.89,2.165,10.001,2.753c6.262,1.25,10.965,0.641,11.935,0.316c1.995-0.573,2.216,0.382,2.497,1.461
		C274.859,25.576,273.935,26.924,272.7,26.819z"/>
	<path style="fill:#21983A;" d="M269.38,9.159c-0.579-0.355-2.287-1.35-4.276-2.783c-1.01-0.696-2.136-1.487-3.355-2.098
		c-0.605-0.296-1.242-0.544-1.825-0.613l-2.301-0.171c-3.163-0.286-6.302-0.716-8.861-0.988c-2.558-0.286-4.531-0.422-5.328-0.472
		c-2.434-0.172-4.769,0.174-6.499,0.683c-1.745,0.503-2.848,1.148-3.302,1.274c-0.904,0.265-1.371,0.182-1.892-1.075
		c-0.505-1.241-0.518-1.869,0.728-2.255c0.617-0.2,2.73-0.604,4.941-0.642c2.213-0.073,4.513,0.099,5.642,0.09
		c2.952-0.029,6.08,0.182,9.115,0.398l4.451,0.29l2.108,0.086l0.976,0.013c0.444-0.012,0.957,0.056,1.385,0.144
		c1.713,0.404,2.913,1.099,3.991,1.679l2.73,1.581c1.539,0.887,2.51,1.237,2.845,1.286c0.68,0.111,0.77,0.286,0.874,0.678
		c0.088,0.378,0.116,0.923,0.11,1.463c0.012,0.533-0.229,1.097-0.703,1.4C270.472,9.436,269.83,9.478,269.38,9.159z"/>
	<path style="fill:#21983A;" d="M255.1,6.545c-1.079-0.292-6.994-0.738-12.966-0.839c-2.988-0.031-5.993,0.098-8.41,0.394
		c-2.42,0.283-4.241,0.711-4.971,0.892c-2.248,0.533-4.185,1.662-5.473,2.759c-1.305,1.095-1.998,2.105-2.351,2.396
		c-0.695,0.593-1.17,0.699-2.14-0.256c-0.958-0.951-1.205-1.485-0.277-2.319c0.466-0.407,2.159-1.612,4.13-2.487
		c1.965-0.89,4.138-1.471,5.18-1.814c5.477-1.855,12.027-2.199,17.212-2.301c5.217-0.073,9.151-0.075,10.049-0.218
		c1.799-0.24,1.79,0.832,1.794,1.92C256.886,5.753,255.985,6.84,255.1,6.545z"/>
	<path style="fill:#21983A;" d="M155.337,150.772c0.723,3.665,1.321,6.732,2.302,10.023c0.99,3.28,2.377,6.799,5.037,11.007
		c2.694,4.18,4.171,6.493,5.311,8.509c1.153,2.003,1.995,3.675,3.855,6.147c1.88,2.455,2.691,3.389,3.602,4.648
		c0.941,1.243,1.926,2.833,4.751,6.262c2.913,3.382,3.031,3.325,2.832,3.04c-0.155-0.311-0.527-0.874,1.986,1.128
		c2.555,1.977,4.893,2.748,6.484,2.95c1.602,0.207,2.431-0.123,2.418-0.109c-1.736-1.937-2.635-4.068-3.462-6.195
		c-3.578-2.066-6.984-4.801-10.16-7.75c0,0-1.843-2.328-3.837-5.257c-2.013-2.921-4.124-6.454-5.35-8.451
		c-2.57-3.969-4.8-10.69-6.013-13.9c-0.646-1.602-2.025-3.853-3.323-6.509c-1.307-2.642-2.522-5.704-2.978-8.618
		c-0.443-2.893-1.49-3.988-2.44-3.443C155.437,144.786,154.624,147.083,155.337,150.772z"/>
	<path style="fill:#21983A;" d="M197.389,199.191c-0.492,1.126-1.572,7.614-2.744,14.219c-1.189,6.605-2.202,13.335-2.395,15.043
		c-0.744,5.241,0.442,10.075,0.438,11.207c-0.022,1.153-0.29,1.678-1.645,1.68c-1.352,0.001-1.899-0.217-1.882-1.533
		c0.009-0.656,0.166-2.843,0.437-5.147c0.254-2.307,0.622-4.726,0.701-5.922c0.419-6.259,1.436-13.241,2.13-18.915
		c0.716-5.675,1.174-10.061,1.193-11.091c0.033-2.06,1.107-1.903,2.179-1.745C196.874,197.142,197.8,198.265,197.389,199.191z"/>
	<path style="fill:#21983A;" d="M268.178,144.286c1.123-1.612,2.213-3.07,2.772-5.073c0.543-2.014,0.425-4.41-1.05-6.978
		c-0.842-1.28-1.685-2.006-2.373-2.595c-0.698-0.576-1.266-1.001-1.796-1.371c-1.059-0.729-1.924-1.328-3.534-1.939
		c-1.626-0.558-2.303-0.695-3.142-0.916c-0.854-0.171-1.83-0.588-4.413-0.633c-2.623,0.125-2.661,0.386-2.445,0.314
		c0.212,0.03,0.586-0.075-1.205,0.669c-1.79,0.883-2.598,2.205-2.86,3.024c-0.278,0.841-0.18,1.271-0.194,1.265
		c1.115-0.765,2.342-1.111,3.429-1.078c1.458-1.278,3.719-1.795,5.956-1.745c-0.005-0.006,1.53,0.232,3.247,0.897
		c1.727,0.642,3.556,1.731,4.488,2.437c0.956,0.666,1.984,1.778,2.409,2.872c0.192,0.481,0.352,1.175,0.444,1.732
		c0.092,0.565,0.129,1.053,0.15,1.436c0.047,0.759,0.223,1.89-0.129,3.302c-0.329,1.406-1.171,2.976-2.114,4.308
		c-0.953,1.358-0.855,2.219-0.306,2.249C266.058,146.491,267.032,145.882,268.178,144.286z"/>
	<path style="fill:#21983A;" d="M312.129,132.633c3.066,12.264,5.366,19.93,1.533,16.865c-3.833-3.065-9.966-6.898-9.966-6.898
		s-5.366-0.768-1.533-8.434C305.996,126.5,312.129,132.633,312.129,132.633z"/>
	<path style="fill:#21983A;" d="M315.43,117.322c2.065-6.154,5.131-7.69,7.431-2.322c2.3,5.368,7.667,10.732,1.534,9.966
		c-6.133-0.765-13.032,5.365-15.333,0C306.762,119.6,315.43,117.322,315.43,117.322z"/>
	<path style="fill:#21983A;" d="M341.26,197.796c4.518,5.648,8.432,13.031,4.599,13.031c-3.833,0-13.033-3.065-13.033-3.065
		S335.126,190.13,341.26,197.796z"/>
	<path style="fill:#21983A;" d="M330.527,223.093c1,4.006,2.299,13.036,5.366,9.201c3.066-3.836,6.133-9.201,1.533-11.502
		C332.826,218.493,329.761,220.026,330.527,223.093z"/>
	<path style="fill:#21983A;" d="M351.993,234.591c1.293,6.468,6.899,9.969,1.533,11.502c-5.366,1.533-5.366,0.766-7.666-6.133
		C343.559,233.06,351.226,230.759,351.993,234.591z"/>
	<path style="fill:#21983A;" d="M333.594,258.356c-3.067-4.597-4.6-10.73,0.766-8.431c5.366,2.301,7.666,6.899,7.666,6.899
		L333.594,258.356z"/>
	<path style="fill:#21983A;" d="M342.793,272.924c-2.764-5.527-2.299-7.667,1.533-11.499c3.834-3.833,3.067-9.199,6.134-6.133
		c3.066,3.065,2.3,9.965,2.3,9.965S346.626,280.589,342.793,272.924z"/>
	<path style="fill:#21983A;" d="M329.761,293.623c-2.3-5.368-3.833-14.565,1.533-7.666c5.367,6.898,9.965,6.13,5.367,12.263
		C332.06,304.353,329.761,293.623,329.761,293.623z"/>
	<path style="fill:#21983A;" d="M344.326,287.489c-3.832-1.532,0-6.134,2.3-5.368C348.926,282.889,344.326,287.489,344.326,287.489z
		"/>
	<path style="fill:#21983A;" d="M286.063,331.952c6.046,2.521,19.166-3.067,18.399,2.301c-0.767,5.368-5.366,7.666-8.433,7.666
		c-3.066,0-4.582-2.931-9.966-2.298C273.031,341.153,276.864,328.117,286.063,331.952z"/>
	<path style="fill:#21983A;" d="M286.063,352.651c6.581,4.557,9.966-5.367,13.033-0.767c3.066,4.601-2.3,6.134-2.3,6.134
		c-9.199,3.832-10.899,7.769-18.099,2.351C271.498,354.952,276.097,345.751,286.063,352.651z"/>
	<path style="fill:#21983A;" d="M225.986,338.208c6.881,3.588,10.247-0.123,13.313,4.478c3.067,4.6-5.366,7.664-5.366,7.664
		l-3.067,3.833C230.867,354.184,220.339,335.263,225.986,338.208z"/>
	<path style="fill:#21983A;" d="M236.234,361.85c6.606,3.964,10.732-0.768,9.966,2.301c-0.766,3.067,0.766,6.901-8.433,6.901
		C228.568,371.051,228.567,357.25,236.234,361.85z"/>
	<path style="fill:#21983A;" d="M277.631,117.301c3.833,0.766,13.799,9.2,5.366,8.432
		C274.564,124.966,277.631,117.301,277.631,117.301z"/>
</g>
</svg>
