<?xml version="1.0" encoding="iso-8859-1"?>
<!-- Generator: Adobe Illustrator 18.1.1, SVG Export Plug-In . SVG Version: 6.00 Build 0)  -->
<svg version="1.1" id="_x36_" xmlns="http://www.w3.org/2000/svg" xmlns:xlink="http://www.w3.org/1999/xlink" x="0px" y="0px"
	 viewBox="0 0 512 512" style="enable-background:new 0 0 512 512;" xml:space="preserve">
<g>
	<g>
		<path style="fill:#FFFFFF;" d="M45.378,332.79c-7.297,8.513-9.726,3.646-9.726-7.297c0-10.941-3.65-110.631-3.65-128.868
			c0-18.237,3.65-49.846,36.474-74.163c32.828-24.311,74.161-69.298,85.104-75.374c10.943-6.082,27.961-14.591,31.611-19.456
			c3.646-4.859,20.669-25.531,29.178-26.744c8.509-1.217,10.943,27.961,27.961,27.961c12.159-14.589,15.805-18.239,21.885-12.157
			c6.08,6.082,6.08,15.806,20.669,27.963c14.589,12.16,41.337,25.532,38.904,34.043c-2.434,8.507-10.943,9.724-10.943,9.724
			s8.509,4.863-4.863,8.509c-13.372,3.65-58.356,38.908-59.572,60.789c-1.217,21.886,3.646,20.669,13.372,24.315
			c9.726,3.65,40.12,23.1,62.006,8.513c10.943-2.431,20.669-4.863,20.669-4.863s19.452-23.102,44.983-7.297
			c-8.509,6.078-10.943,12.16-10.943,12.16s36.474,4.859,46.2-8.513c-4.863,8.513-17.022,15.808-17.022,15.808
			s14.589,0,19.452-4.865c-2.429,4.865-17.018,10.943-17.018,10.943s-12.16,13.372-47.417,10.943
			c-7.292,1.213-13.372-2.433-20.669,3.646c-7.292,6.08-53.493,27.963-63.219,27.963s-36.474-3.646-36.474-3.646
			s0.407,30.8-8.509,45.388c-1.62,4.049,3.646,4.865,3.646,4.865s24.722,4.863,36.474,17.018
			c11.753,12.157,17.425,33.638,16.208,42.554c-1.217,8.914-6.482,17.425-11.752,23.503c-5.266,6.08-16.615,20.262-18.235,23.505
			c-1.62,3.243-12.16,15.804-17.832,20.669c-5.673,4.863-7.292,21.073,8.513,22.288c15.801,1.217,35.253-3.239,44.979,8.509
			c-14.992-2.834-18.235,0-18.235,0s20.669,6.892,23.102,12.562c-10.54-3.239-15.403-2.834-15.403-2.834s19.049,6.485,21.885,13.777
			c-15.399-5.673-19.452-4.454-31.612-2.836c-12.155,1.624-33.633,4.46-45.386,2.836c-11.752-1.62-36.071-6.885-38.094-17.018
			c-2.027-10.133,3.239-20.664,8.509-29.585c5.27-8.916,10.133-32.826,5.27-37.282c-16.616,22.29-42.554,63.216-47.417,67.677
			c-4.863,4.456-15.806,10.133-11.753,12.562c4.053,2.434,4.863,4.055,10.943,4.867c6.08,0.81,45.793-2.434,66.055,2.834
			c20.266,5.27,20.266,5.27,20.266,5.27s-27.155-0.814-35.258-0.409c-8.106,0.409,25.125,0.407,40.121,13.376
			c-2.434-2.841-38.501-5.675-41.744-2.027c21.885-1.619,35.258,10.536,37.284,14.182c-8.509-3.646-20.669-7.699-34.85-4.863
			c-14.186,2.837-64.435,11.348-83.484-0.81c-19.045-12.157-25.531-28.771-19.854-42.552c5.673-13.777,12.155-25.937,19.854-36.067
			c7.699-10.131,14.186-17.832,12.16-32.419c-2.027-14.593-17.832-28.368-49.444-35.258c-25.125-6.08-40.93-23.912-40.93-23.912
			L45.378,332.79z"/>
		<path style="fill:#FFFFFF;" d="M221.661,106.656c-5.471-6.684-6.075-17.627,0-20.058c6.08-2.432,21.885-3.644,24.923-3.644
			c3.042,0,57.143,3.644,65.044,2.429c7.905-1.217,11.551,5.471-3.646,11.547c-15.197,6.08-52.276,31.005-56.535,48.023
			c-4.254,17.022-0.604,24.317-1.821,35.866c-1.217,11.553-1.825,18.843-1.825,18.843s-29.178-19.45-39.512-27.959
			c-10.334-8.513-17.627-13.374-16.414-15.806c1.217-2.434,9.726-4.863,18.848-15.201
			C219.84,130.367,221.661,106.656,221.661,106.656z"/>
		<path style="fill:#FFFFFF;" d="M162.697,209.391c4.863,1.217,15.806,4.863,21.277,8.509c5.471,3.646,29.178,17.023,42.55,18.844
			c13.376,1.825,16.414,5.471,16.414,12.159c0,6.684,2.434,48.021-50.455,77.809c-13.98-9.12-35.258-16.416-49.238-21.885
			c-13.981-5.471-12.155-18.845-12.155-31.609C131.09,260.454,162.697,209.391,162.697,209.391z"/>
		<g>
			<path style="fill:#231815;" d="M247.767,32.221c4.747,1.294,8.569,2.849,12.742,4.576c4.173,1.744,8.702,3.663,14.837,6.157
				c6.135,2.524,9.383,4.409,12.01,6.063c2.622,1.675,4.627,3.164,8.119,5.384c3.483,2.241,4.846,3.181,6.487,4.445
				c1.632,1.281,3.556,2.875,7.909,6.714c4.319,3.869,4.285,3.903,4.04,3.545c-0.253-0.343-0.741-1.065,2.498,1.497
				c6.435,5.15,10.163,5.921,10.184,5.902c-1.238-2.802-2.537-5.602-3.886-8.396c-5.004-3.657-10.124-7.143-15.347-10.437
				c-0.004,0.004-3.282-2.644-7.382-5.617c-4.092-2.99-9.04-6.247-11.988-7.914c-2.939-1.675-6.543-3.91-10.047-5.925
				c-3.496-2.027-6.894-3.833-9.25-4.842c-2.356-1.011-6.101-2.027-10.283-2.971c-4.182-0.96-8.783-1.831-12.913-2.808
				c-4.147-0.968-6.003-0.223-5.549,0.835C240.393,29.521,243.028,30.948,247.767,32.221z"/>
			<path style="fill:#231815;" d="M181.202,29.033c1.902-4.287,5.591-9.525,9.739-14.25c4.13-4.73,8.758-8.899,12.177-11.086
				c1.71-1.095,3.325-2.054,5.116-2.787c0.454-0.182,0.921-0.349,1.431-0.489c0.274-0.073,0.463-0.107,0.677-0.154
				c0.219-0.051,0.463-0.096,0.694-0.133c0.947-0.15,1.919-0.18,2.867-0.058c1.919,0.238,3.586,1.15,4.799,2.179
				c1.23,1.041,2.129,2.189,2.913,3.342c1.572,2.303,3.213,5.531,4.876,8.918c0.835,1.686,1.697,3.413,2.609,5.013
				c0.913,1.596,1.894,3.068,2.905,4.122c1.011,1.045,1.658,1.457,2.087,1.827c0.428,0.356,0.643,0.643,0.596,0.938
				c-0.043,0.283-0.369,0.568-0.947,0.681c-0.574,0.12-1.409,0.034-2.262-0.377c-0.857-0.398-1.817-1.097-2.708-1.992
				c-0.895-0.896-1.735-1.975-2.481-3.081c-1.487-2.217-2.639-4.503-3.282-5.938c-0.321-0.72-0.96-2.207-1.812-4
				c-0.857-1.78-1.937-3.905-3.359-5.602c-0.707-0.844-1.504-1.555-2.339-2.009c-0.835-0.454-1.701-0.651-2.506-0.655
				c-0.814-0.002-1.517,0.156-2.155,0.338c-0.548,0.159-0.994,0.364-1.251,0.49c-0.514,0.24-1.5,0.825-2.673,1.731
				c-1.174,0.898-2.528,2.093-3.86,3.38c-2.665,2.569-5.193,5.512-6.431,6.892c-1.243,1.377-3.111,3.046-4.743,5.019
				c-1.632,1.964-3.025,4.257-3.261,6.577c-0.223,2.303-0.454,3.209-1.054,3.696c-0.583,0.489-1.508,0.516-2.738,1.02
				c-1.221,0.489-2.493,0.969-3.359,0.622c-0.428-0.18-0.754-0.609-0.84-1.328C180.534,31.167,180.688,30.188,181.202,29.033z"/>
			<path style="fill:#231815;" d="M310.458,99.299c-3.878,1.497-9.61,4.426-15.09,7.665c-5.501,3.218-10.763,6.701-14.135,8.841
				c-6.744,4.299-10.848,7.74-14.786,11.294c-1.962,1.789-4.529,4.394-7.074,7.4c-2.537,3.001-5.077,6.435-6.735,9.736
				c-0.818,1.645-1.243,2.759-1.555,3.455c-0.309,0.696-0.527,0.988-0.758,0.966c-0.218-0.026-0.433-0.382-0.527-1.009
				c-0.094-0.628-0.056-1.519,0.188-2.498c0.463-1.971,1.688-4.632,3.188-7.012c1.491-2.388,3.192-4.529,4.336-5.784
				c0.57-0.625,1.752-1.902,3.29-3.432c1.538-1.53,3.436-3.312,5.369-5.017c3.856-3.428,7.858-6.534,8.929-7.352
				c1.067-0.827,4.083-3.278,7.339-5.699c3.243-2.431,6.735-4.828,8.466-5.896c1.723-1.075,4.177-2.254,6.641-3.565
				c2.472-1.311,4.953-2.746,6.795-4.464c1.847-1.72,2.961-2.305,3.865-2.395c0.908-0.086,1.637,0.321,2.862,0.705
				c1.234,0.388,2.112,1.075,2.155,1.793C313.265,97.77,312.536,98.485,310.458,99.299z"/>
			<path style="fill:#231815;" d="M182.496,148.687c4.032,3.535,10.03,8.863,15.986,14.04c5.955,5.189,11.915,10.167,15.66,13.342
				c7.485,6.362,12.943,10.007,18.505,13.415c2.785,1.699,6.735,3.835,11.153,5.891c4.417,2.074,9.306,4.036,13.878,5.651
				c4.571,1.592,6.238,2.376,6.11,2.83c-0.12,0.431-2.035,0.431-4.46-0.101c-2.425-0.518-5.814-1.482-9.036-2.639
				c-3.222-1.14-6.269-2.472-8.119-3.402c-1.86-0.913-7.554-3.907-12.883-7.292c-5.356-3.346-10.386-6.975-11.723-7.952
				c-1.337-0.968-5.24-3.693-9.203-6.677c-3.967-2.978-8.016-6.187-9.906-7.791c-3.801-3.19-9.34-9.379-14.679-12.037
				c-5.347-2.659-4.666-3.425-5.506-6.208C177.428,146.969,178.16,144.878,182.496,148.687z"/>
			<path style="fill:#231815;" d="M269.837,207.351c3.745-0.641,9.353-1.639,14.876-2.674c5.523-1.024,10.96-2.095,14.422-2.652
				c6.932-1.112,11.44-2.354,15.896-3.693c4.46-1.341,12.057-4.372,18.124-7.455c3.021-1.547,4.237-1.952,4.494-1.56
				c0.24,0.379-0.583,1.517-2.014,2.577c-1.418,1.069-3.565,2.393-5.733,3.524c-2.164,1.137-4.336,2.089-5.724,2.592
				c-1.384,0.514-5.711,2.009-10.026,3.26c-4.31,1.27-8.595,2.352-9.734,2.639l-7.815,2.121c-3.415,0.904-6.992,1.782-8.723,2.129
				c-3.466,0.713-9.422,0.803-13.205,3.033c-3.792,2.23-3.976,1.217-5.968-0.008C266.709,209.96,265.805,208.034,269.837,207.351z"
				/>
			<path style="fill:#231815;" d="M338.355,186.164c1.44-1.607,3.423-3.417,5.797-5.064c2.365-1.658,5.103-3.147,7.922-4.344
				c5.634-2.425,11.551-3.591,15.309-3.856c3.758-0.278,6.885-0.276,9.709-0.113c2.824,0.18,5.347,0.506,7.854,1.219
				c0.625,0.184,1.311,0.398,2.044,0.69c0.377,0.146,0.72,0.291,1.153,0.501c0.527,0.266,1.054,0.561,1.555,0.908
				c1.007,0.692,1.885,1.579,2.494,2.588c0.308,0.504,0.544,1.037,0.716,1.598c0.163,0.557,0.291,1.14,0.411,1.774
				c-1.114,0.454-2.344,0.887-3.565,1.358l-1.86,0.707l-0.471,0.18l-0.236,0.09c-0.086,0.034-0.154,0.056-0.206,0.066l-0.686,0.182
				l-2.733,0.694l-1.38,0.339c-0.193,0.036-0.381,0.111-0.578,0.116c-0.176,0.004-0.433,0.009-0.467,0.015
				c-0.167,0.004-0.313,0.024-0.446,0.041c-0.266,0.047-0.394,0.09-0.493,0.129c-0.111,0.049-0.18,0.081-0.308,0.189
				c-0.257,0.214-0.626,0.647-0.956,0.951c-0.69,0.647-1.182,0.803-1.324,0.638c-0.163-0.159-0.034-0.61,0.167-1.217
				c0.227-0.596,0.428-1.388,1.003-2.052c0.296-0.326,0.724-0.613,1.238-0.79c0.261-0.09,0.535-0.161,0.823-0.212
				c0.296-0.06,0.561-0.054,0.818-0.174c1.114-0.381,2.327-0.782,3.513-1.155l2.854-0.906l1.02-0.302l0.445-0.122
				c0.064-0.023,0.159-0.023,0.189-0.062l-0.039-0.21c-0.056-0.257-0.167-0.656-0.437-1.093c-0.262-0.439-0.681-0.904-1.23-1.311
				c-0.274-0.208-0.583-0.396-0.908-0.57c-0.142-0.073-0.377-0.193-0.609-0.3c-0.231-0.105-0.467-0.206-0.711-0.3
				c-0.977-0.386-2.048-0.686-3.136-0.917c-4.374-0.926-8.89-0.662-10.06-0.6c-1.183,0.056-4.589,0.46-8.042,1.324
				c-3.466,0.82-6.932,2.104-8.569,2.746c-1.645,0.626-3.912,1.328-6.075,2.451c-2.155,1.105-4.194,2.661-5.227,4.537
				c-1.015,1.868-1.53,2.631-2.194,2.961c-0.651,0.332-1.405,0.214-2.549,0.42c-1.144,0.21-2.237,0.225-2.725-0.311
				C336.688,189.077,336.804,187.908,338.355,186.164z"/>
			<path style="fill:#231815;" d="M146.57,199.283c2.442,1.397,5.407,2.742,8.723,4.07c3.32,1.326,6.996,2.626,10.874,4.1
				c1.941,0.737,3.933,1.519,5.947,2.408c1.007,0.446,2.022,0.921,3.038,1.435c0.998,0.501,2.069,1.11,2.982,1.652
				c3.749,2.187,7.592,4.366,11.461,6.455c7.729,4.178,15.583,7.956,22.875,10.902c7.284,2.967,13.993,5.103,19.242,6.553
				c1.315,0.364,2.605,0.703,3.873,1.015c0.647,0.156,1.303,0.304,1.954,0.49l1.868,0.503c2.455,0.66,4.812,1.277,7.087,1.844
				c4.55,1.125,8.788,2.02,12.824,2.637c8.059,1.238,15.343,1.38,22.4,0.165c3.531-0.611,7.618-1.718,11.95-3.631
				c4.46-1.909,9.362-3.942,14.477-6.037c10.236-4.203,21.311-8.689,31.376-13.119c5.03-2.211,8.479-3.74,10.707-4.649
				c2.228-0.908,3.235-1.191,3.342-0.985c0.197,0.394-3.256,2.725-8.179,5.253c-4.91,2.545-12.018,5.87-18.993,8.903
				c-6.975,3.042-13.788,5.855-18.063,7.558c-2.142,0.852-6.53,2.583-11.98,4.824c-1.363,0.553-2.781,1.178-4.319,1.748
				c-1.53,0.566-3.132,1.088-4.795,1.534c-3.321,0.904-6.868,1.517-10.42,1.799c-7.117,0.589-14.173-0.137-19.803-1.054
				c-5.634-0.93-9.906-1.962-11.71-2.369l-9.636-2.258c-4.409-0.904-9.717-2.236-15.021-3.912
				c-5.313-1.666-10.639-3.674-15.228-5.615c-4.597-1.939-8.466-3.788-10.951-5.028c-4.979-2.479-11.371-6.221-17.922-10.105
				c-3.183-1.982-6.667-3.447-10.154-4.676c-3.479-1.225-6.915-2.202-10.09-2.999c-6.354-1.585-9.49-2.995-11.491-4.372
				c-1.002-0.696-1.727-1.386-2.442-2.185c-0.707-0.799-1.41-1.707-2.279-2.9c-0.87-1.204-1.41-2.329-1.603-3.151
				c-0.193-0.823-0.077-1.32,0.33-1.382c0.416-0.069,1.088,0.302,2.254,1.09C142.247,196.584,143.935,197.784,146.57,199.283z"/>
			<path style="fill:#231815;" d="M157.984,49.954c-3.432,2.686-7.198,5.962-11.272,9.662c-4.079,3.689-8.453,7.809-13.355,12.001
				c-1.23,1.05-2.489,2.099-3.796,3.143c-0.651,0.521-1.319,1.039-1.992,1.558l-1.752,1.302l-7.142,6.483
				c-4.97,4.471-10.064,8.976-15.159,13.441c-10.189,8.92-20.369,17.682-29.542,25.626l-12.901,11.198l-5.634,4.914
				c-0.42,0.371-0.908,0.778-1.178,1.054c-0.36,0.351-0.754,0.743-1.114,1.112c-0.728,0.75-1.418,1.491-2.065,2.222
				c-5.193,5.844-8.68,12.282-11.016,18.672c-2.339,6.405-3.582,12.744-4.344,18.833c-0.754,6.099-1.02,11.967-1.14,17.697
				c-0.107,5.73-0.081,11.356-0.068,16.96c0.064,22.447,1.662,61.761,1.941,95.494c0.133,16.868-0.703,23.218-1.65,23.218
				c-0.955-0.004-2.04-6.328-2.644-14.756c-1.187-16.847-2.614-47.734-2.755-61.783c-0.052-7.025-0.334-28.792-0.343-50.236
				c0.004-5.36,0.043-10.724,0.266-15.84c0.214-5.116,0.621-9.987,1.221-14.34c0.596-4.357,1.388-8.192,2.181-11.26
				c0.793-3.072,1.568-5.379,2.048-6.74c0.968-2.699,2.896-8.008,6.645-14.036c1.868-3.003,4.194-6.165,6.958-9.216
				c0.351-0.388,0.677-0.741,1.075-1.159c0.39-0.409,0.754-0.726,1.131-1.097l2.262-2.136l4.58-4.302
				c12.352-11.521,25.412-23.274,31.723-28.852c6.32-5.57,15.107-12.579,23.784-20.238c2.172-1.913,4.332-3.871,6.439-5.853
				l0.793-0.743l0.463-0.437c0.167-0.165,0.407-0.321,0.557-0.441c0.561-0.424,1.114-0.861,1.658-1.3
				c1.088-0.887,2.151-1.802,3.179-2.738c4.122-3.747,7.763-7.774,10.844-11.693c6.14-7.866,9.91-11.412,13.094-13.258
				c3.196-1.838,5.793-2.125,10.287-3.153c2.254-0.501,4.238-0.636,5.643-0.427c1.414,0.208,2.245,0.739,2.301,1.553
				c0.056,0.827-0.66,1.911-2.301,3.445C164.248,45.049,161.678,47.058,157.984,49.954z"/>
			<path style="fill:#231815;" d="M47.898,318.552c-0.21,1.564-0.296,3.325-0.107,5.197c0.197,1.868,0.668,3.839,1.512,5.788
				c1.65,3.925,4.82,7.661,8.625,10.722c3.8,3.083,8.149,5.572,12.207,7.586c4.07,2.014,7.875,3.561,10.831,4.747
				c5.921,2.365,11.045,3.933,15.686,5.261l6.718,1.855c0.63,0.193,1.097,0.364,1.637,0.542l1.56,0.542
				c1.033,0.362,2.057,0.73,3.081,1.114c4.07,1.547,9.764,3.676,15.433,7.327c2.824,1.825,5.621,4.066,7.987,6.793
				c2.374,2.712,4.259,5.932,5.364,9.27c1.097,3.344,1.2,5.782,1.165,7.284c-0.06,1.517-0.3,2.147-0.514,2.147
				c-0.467-0.006-0.878-2.515-1.765-5.643c-0.441-1.568-1.105-3.415-2.065-5.266c-0.96-1.855-2.215-3.702-3.646-5.347
				c-2.849-3.314-6.341-5.752-8.543-7.196c-1.097-0.73-3.406-2.166-6.474-3.646c-3.063-1.497-6.877-3.027-10.733-4.364l-2.879-0.985
				c-0.433-0.146-0.921-0.259-1.405-0.394l-1.422-0.381l-5.274-1.41c-3.205-0.872-5.669-1.602-6.705-1.915
				c-2.069-0.626-8.063-2.31-14.156-4.662c-3.046-1.174-6.11-2.515-8.736-3.848c-2.626-1.328-4.811-2.648-6.187-3.567
				c-2.751-1.84-6.157-4.751-9.049-8.331c-1.448-1.786-2.768-3.732-3.861-5.733c-1.101-2.003-1.983-4.055-2.721-6.001
				c-0.737-1.952-1.007-3.537-1.097-4.767c-0.073-1.234,0.039-2.129,0.253-2.845c0.433-1.435,1.225-2.2,2.365-3.629
				c1.161-1.427,2.369-2.108,2.948-1.641c0.3,0.236,0.441,0.754,0.416,1.624C48.326,315.651,48.133,316.872,47.898,318.552z"/>
			<path style="fill:#231815;" d="M161.785,458.378c-1.705,2.498-4.366,4.912-7.28,7.097c-1.444,1.105-2.974,2.181-4.314,3.267
				c-0.33,0.27-0.647,0.542-0.926,0.81c-0.274,0.253-0.548,0.546-0.69,0.728c-0.09,0.099-0.163,0.24-0.12,0.382
				c0.017,0.064,0.056,0.124,0.103,0.18c-0.026-0.013,0.283,0.268,0.566,0.458c0.583,0.411,1.32,0.812,2.078,1.178
				c0.21,0.099,0.45,0.206,0.643,0.308c0.189,0.092,0.347,0.167,0.527,0.249c0.351,0.154,0.711,0.291,1.079,0.422
				c0.737,0.255,1.5,0.465,2.262,0.632c3.068,0.668,6.075,0.814,8.398,0.949c4.666,0.229,8.651,0.058,12.224-0.099l9.97-0.538
				c3.201-0.15,7.614-0.445,12.468-0.465c4.85-0.019,10.154,0.283,14.992,1.138c2.421,0.424,4.049,0.908,5.056,1.307
				c1.007,0.407,1.392,0.728,1.337,0.947c-0.12,0.437-2.001,0.441-4.392,0.214c-2.399-0.24-5.771-0.518-9.04-0.636
				c-3.269-0.126-6.435-0.116-8.41-0.156c-0.99-0.017-3.021-0.047-5.557-0.002c-2.536,0.043-5.583,0.163-8.608,0.332
				c-6.046,0.362-12.018,0.786-13.62,0.842c-1.602,0.062-6.183,0.503-11.076,0.302c-2.447-0.107-4.979-0.422-7.181-1.092
				c-0.548-0.167-1.075-0.356-1.572-0.559c-0.244-0.099-0.497-0.21-0.703-0.306l-0.617-0.272c-0.844-0.381-1.568-0.767-2.129-1.125
				c-0.283-0.176-0.574-0.377-0.87-0.613c-0.146-0.12-0.296-0.248-0.45-0.39c-0.176-0.165-0.351-0.341-0.51-0.529
				c-0.643-0.737-1.118-1.724-1.046-2.787c0.03-0.523,0.193-1.041,0.437-1.521c0.124-0.244,0.27-0.476,0.429-0.7
				c0.158-0.221,0.343-0.439,0.488-0.604c0.617-0.683,1.285-1.24,1.949-1.776c1.333-1.067,2.682-2.048,3.882-3.108
				c1.2-1.052,2.249-2.17,2.982-3.333c1.444-2.333,2.001-3.318,2.729-3.854c0.694-0.544,1.513-0.596,2.695-1.255
				c1.17-0.66,2.258-1.26,2.875-0.842c0.3,0.208,0.48,0.692,0.381,1.515C163.117,455.88,162.71,457.045,161.785,458.378z"/>
			<path style="fill:#231815;" d="M327.112,81.141c-1.075,1.268-2.519,2.532-4.25,3.535c-1.727,1.007-3.71,1.748-5.767,2.228
				c-4.135,0.96-8.513,0.985-12.704,0.827c-2.095-0.079-4.152-0.216-6.136-0.33l-2.909-0.158l-1.401-0.06l-1.127-0.03
				c-3.878,0.287-7.245,0.142-9.846-0.023c-5.193-0.364-9.456-0.763-13.303-1.054c-3.843-0.298-7.25-0.521-10.656-0.713
				c-3.406-0.193-8.093-0.319-13.166-0.248c-5.064,0.086-10.557,0.347-15.322,1.268c-2.374,0.465-3.895,0.915-4.867,1.174
				c-0.964,0.257-1.418,0.309-1.534,0.107c-0.111-0.189,0.137-0.628,0.75-1.148c0.604-0.514,1.577-1.097,2.772-1.562
				c2.387-0.96,5.998-1.746,9.529-2.144c3.535-0.422,6.983-0.536,9.13-0.514c2.151,0.004,8.8,0.233,15.309,0.651
				c6.512,0.407,12.901,0.797,14.606,0.865c1.701,0.069,6.615,0.218,11.68-0.017c1.264-0.06,2.537-0.15,3.766-0.279l0.951-0.105
				c0.107-0.017,0.223-0.011,0.317-0.015l0.236-0.002l0.467-0.008h1.804c2.322,0.028,4.302,0.107,5.578,0.165
				c2.553,0.116,5.93,0.548,9.383,0.446c1.723-0.058,3.462-0.257,5.051-0.705c1.59-0.439,3.016-1.144,4.049-2.059
				c1.024-0.915,1.632-1.63,2.129-2.151c0.488-0.523,0.865-0.853,1.247-1.088c0.767-0.478,1.594-0.499,2.879-1.14
				c1.264-0.655,2.429-1.176,2.995-0.686c0.274,0.244,0.399,0.75,0.214,1.585C328.779,78.579,328.269,79.766,327.112,81.141z"/>
			<path style="fill:#231815;" d="M114.621,279.734c1.007,1.705,2.661,3.663,4.85,5.681c2.185,2.018,4.897,4.096,7.952,6.144
				c6.123,4.098,13.625,8.051,21.264,11.654c15.304,7.228,31.08,13.109,38.702,17.412l0.823,0.463
				c0.193,0.103,0.386,0.244,0.57,0.371l0.428,0.298l1.992,1.397c1.465,1.039,3.201,2.292,5.141,3.783
				c1.937,1.491,4.083,3.218,6.32,5.249c2.232,2.033,4.568,4.366,6.774,7.134c2.198,2.764,4.276,5.988,5.754,9.7
				c1.495,3.7,2.314,7.879,2.267,12.115c-0.035,4.235-0.874,8.477-2.215,12.515c-1.337,4.043-3.149,7.912-5.193,11.592l-0.797,1.401
				c-0.274,0.476-0.553,0.9-0.831,1.35l-1.602,2.596c-1.059,1.731-2.1,3.468-3.124,5.197c-2.052,3.466-4.036,6.924-5.973,10.302
				c-3.865,6.761-7.571,13.211-11.153,18.848c-3.569,5.641-7.005,10.456-9.91,14.176c-2.905,3.723-5.244,6.373-6.568,7.811
				c-2.648,2.873-4.786,4.597-6.277,5.489c-1.499,0.891-2.361,0.942-2.583,0.405c-0.45-1.103,1.645-4.505,5.844-9.066
				c2.095-2.281,8.518-9.557,15.561-20.645c3.548-5.518,7.279-11.962,11.221-18.844c1.971-3.436,4.006-6.979,6.123-10.557
				c1.054-1.786,2.129-3.584,3.226-5.381l1.654-2.691c0.57-0.885,1.045-1.722,1.547-2.643c1.984-3.605,3.702-7.361,4.906-11.204
				c1.204-3.841,1.872-7.776,1.752-11.581c-0.103-3.805-1.024-7.447-2.545-10.692c-1.517-3.256-3.582-6.12-5.806-8.618
				c-2.228-2.502-4.606-4.657-6.911-6.542c-2.309-1.885-4.55-3.505-6.598-4.906c-2.044-1.388-3.942-2.586-5.493-3.517
				c-0.064-0.032-0.124-0.069-0.189-0.094l-0.244-0.111l-0.57-0.27l-1.071-0.476c-0.686-0.292-1.298-0.536-1.825-0.731
				c-8.513-3.104-18.839-6.017-29.233-10.156c-5.201-2.061-10.442-4.413-15.489-7.2c-5.039-2.785-9.902-6.013-14.229-9.822
				c-4.319-3.807-6.898-7.022-8.346-9.51c-1.448-2.496-1.795-4.244-1.723-5.392c0.077-1.153,0.561-1.744,0.994-2.065
				C114.222,279.781,114.621,279.734,114.621,279.734z"/>
			<path style="fill:#231815;" d="M361.376,212.026c2.926,0.561,7.387,1.17,11.817,1.435c4.434,0.295,8.813,0.244,11.59,0.244
				c5.566-0.004,9.233-0.818,12.746-1.862c1.761-0.527,4.105-1.487,6.483-2.798c2.382-1.305,4.76-2.976,6.744-4.711
				c1.971-1.742,2.828-2.305,3.192-1.992c0.338,0.287,0.056,1.418-0.797,2.592c-0.835,1.165-2.249,2.674-3.809,3.933
				c-1.547,1.268-3.214,2.297-4.306,2.817c-0.548,0.261-1.671,0.791-3.115,1.354c-1.444,0.572-3.209,1.157-4.979,1.643
				c-3.543,0.996-7.121,1.527-8.072,1.652c-0.951,0.139-3.676,0.611-6.551,0.889c-2.875,0.296-5.891,0.396-7.339,0.351
				c-1.444-0.039-3.355-0.39-5.322-0.621c-1.971-0.227-3.993-0.343-5.784,0.174c-3.603,0.996-3.479-0.071-4.576-1.849
				C358.205,213.461,358.252,211.408,361.376,212.026z"/>
			<path style="fill:#231815;" d="M388.887,196.891l6.187-0.036c2.275-0.021,4.469-0.114,5.874-0.069
				c2.824,0.09,4.64-0.424,6.367-1.037c0.866-0.307,1.993-0.9,3.149-1.637c1.161-0.733,2.348-1.607,3.458-2.4
				c1.105-0.792,1.735-0.835,2.022-0.48c0.283,0.347,0.189,1.088-0.244,1.727c-0.433,0.643-1.14,1.448-1.911,2.149
				c-0.771,0.703-1.594,1.292-2.155,1.574c-0.557,0.287-2.318,1.127-4.135,1.718c-1.808,0.613-3.646,0.994-4.135,1.088
				c-0.488,0.101-1.877,0.486-3.346,0.782c-1.47,0.304-3.016,0.533-3.758,0.57c-1.495,0.088-3.954-0.885-5.66,0.658
				c-1.709,1.547-1.709,0.519-2.442-1.017C387.426,198.941,387.186,196.891,388.887,196.891z"/>
			<path style="fill:#231815;" d="M393.878,201.833l7.177-0.03c2.639-0.019,5.184-0.103,6.813-0.064
				c3.273,0.081,5.381-0.381,7.387-0.938c1.003-0.279,2.309-0.818,3.65-1.487c1.345-0.668,2.725-1.461,4.01-2.176
				c1.285-0.72,2.014-0.763,2.348-0.439c0.33,0.315,0.219,0.988-0.287,1.57c-0.497,0.581-1.319,1.315-2.215,1.95
				c-0.891,0.638-1.847,1.176-2.498,1.427c-0.647,0.266-2.686,1.026-4.795,1.564c-2.103,0.553-4.233,0.904-4.799,0.986
				c-0.566,0.094-2.172,0.441-3.882,0.711c-1.705,0.276-3.496,0.484-4.353,0.521c-1.739,0.079-4.593-0.808-6.564,0.596
				c-1.984,1.403-1.988,0.469-2.836-0.928C392.186,203.694,391.908,201.833,393.878,201.833z"/>
			<path style="fill:#231815;" d="M380.69,187.788c2.708,0.039,6.718,0.21,10.626,0.407c3.907,0.199,7.716,0.345,10.12,0.51
				c4.816,0.345,8.008-0.077,11.076-0.745c1.534-0.343,3.59-1.033,5.651-2.057c2.061-1.011,4.087-2.378,5.758-3.833
				c1.658-1.455,2.421-1.913,2.785-1.607c0.343,0.283,0.163,1.309-0.544,2.342c-0.69,1.039-1.902,2.361-3.265,3.443
				c-1.362,1.086-2.849,1.93-3.822,2.333c-0.96,0.437-4.045,1.549-7.177,2.125c-3.123,0.621-6.23,0.848-7.057,0.908
				c-0.823,0.064-3.196,0.332-5.673,0.476c-2.477,0.159-5.06,0.227-6.29,0.191c-2.468-0.058-6.53-1.258-9.431,0.193
				c-2.879,1.459-2.828,0.443-4.036-1.108C378.206,189.823,377.76,187.754,380.69,187.788z"/>
			<path style="fill:#231815;" d="M138.134,405.52c-2.421,6.007-6.118,12.965-10.386,20.429c-2.121,3.738-4.452,7.553-6.636,11.472
				c-2.249,4-4.743,8.006-7.168,11.888c-1.204,1.947-2.356,3.856-3.295,5.767c-0.943,1.907-1.658,3.848-2.185,5.872
				c-0.27,1.009-0.488,2.041-0.686,3.078c-0.188,1.028-0.368,2.104-0.484,3.081c-0.244,1.996-0.291,3.985-0.184,5.923
				c0.214,3.871,1.059,7.513,2.232,10.694c1.174,3.185,2.686,5.913,4.238,8.108c1.547,2.206,3.316,4.109,5.219,5.686
				c0.476,0.392,0.964,0.767,1.452,1.12c0.129,0.094,0.214,0.141,0.484,0.345l0.407,0.343c0.236,0.201,0.471,0.398,0.707,0.587
				c0.951,0.771,1.915,1.476,2.892,2.129c3.899,2.633,7.965,4.361,11.971,5.475c4.01,1.114,7.961,1.624,11.817,1.825
				c3.856,0.188,7.631,0.06,11.401-0.234c3.775-0.294,8.252-0.876,13.192-1.677c4.949-0.795,10.36-1.808,16.058-2.764
				c5.699-0.953,11.688-1.851,17.777-2.279c6.075-0.433,12.262-0.368,18.149,0.54c5.895,0.917,9.799,2.399,12.168,3.474
				c2.374,1.105,3.265,1.825,3.175,2.016c-0.206,0.422-4.349-1.152-10.004-2.314c-2.823-0.593-6.273-1.091-10-1.29
				c-3.732-0.208-7.734-0.131-11.658,0.156c-7.849,0.57-15.39,1.898-20.116,2.628l-13.282,2.159
				c-6.075,0.945-13.419,2.005-20.805,2.207c-3.689,0.101-7.382-0.024-10.874-0.444c-3.492-0.411-6.774-1.135-9.645-2.044
				c-5.758-1.81-9.739-4.362-11.35-5.437c-0.814-0.544-1.996-1.367-3.393-2.487l-0.261-0.212c-0.094-0.075-0.12-0.09-0.201-0.148
				l-0.604-0.409c-0.407-0.281-0.818-0.591-1.243-0.917c-0.844-0.656-1.714-1.401-2.579-2.237c-1.735-1.675-3.453-3.728-4.966-6.075
				c-1.517-2.348-2.828-4.985-3.835-7.772c-2.035-5.57-2.751-11.731-2.177-17.057c0.296-2.648,0.728-5.043,1.281-7.172
				c0.553-2.125,1.238-3.925,1.855-5.283c1.225-2.746,3.085-5.63,5.051-8.668c1.975-3.038,4.058-6.303,6.02-9.717
				c1.941-3.455,4.019-6.911,5.827-10.313c1.821-3.398,3.432-6.739,4.657-9.859c2.438-6.238,3.62-9.263,4.76-11.298
				c0.561-1.018,1.101-1.791,1.705-2.616c0.596-0.825,1.264-1.694,1.967-2.946c0.698-1.253,1.234-2.348,1.602-3.183
				c0.364-0.823,0.578-1.44,1.007-1.204c0.424,0.219,0.968,1.433,0.895,3.346C140.032,399.723,139.437,402.285,138.134,405.52z"/>
			<path style="fill:#231815;" d="M186.108,483.192c3.432-0.071,8.65-0.358,13.86-0.491c5.206-0.139,10.394-0.03,13.663,0.352
				c6.534,0.754,10.887,1.324,15.215,2.277c2.159,0.491,5.158,1.159,8.329,2.449c3.158,1.264,6.482,3.265,8.912,5.889
				c1.212,1.3,1.838,2.378,2.142,3.096c0.3,0.728,0.279,1.118,0.09,1.234c-0.394,0.225-1.457-0.606-2.669-1.701
				c-1.204-1.114-2.995-2.532-4.88-3.61c-1.872-1.105-3.8-1.917-4.996-2.442c-0.596-0.263-1.834-0.79-3.436-1.305
				c-1.598-0.525-3.565-1.037-5.544-1.427c-3.959-0.788-7.948-1.084-9.01-1.163c-1.058-0.084-4.126-0.133-7.327-0.032
				c-3.201,0.088-6.534,0.3-8.136,0.351c-3.205,0.086-8.603-0.677-12.314,1.016c-3.723,1.68-3.796,0.641-5.433-0.87
				C182.933,485.276,182.445,483.254,186.108,483.192z"/>
			<path style="fill:#231815;" d="M186.892,473.597c3.003-0.713,7.635-1.41,12.202-1.38c4.572-0.017,9.006,0.613,11.718,1.277
				c5.428,1.337,8.968,2.185,12.532,2.991c3.56,0.818,9.842,1.859,15.111,2.939c2.635,0.535,3.561,1.077,3.479,1.525
				c-0.077,0.441-1.17,0.767-2.558,0.756c-2.772-0.006-7.777-0.623-9.987-1.157l-7.892-1.857c-3.363-0.776-6.684-1.42-7.575-1.573
				c-0.887-0.16-3.462-0.488-6.144-0.66c-2.686-0.193-5.467-0.197-6.795-0.201c-1.328-0.026-3.111-0.261-4.953-0.197
				c-1.834,0.06-3.723,0.428-5.107,1.444c-1.38,1.015-2.07,1.307-2.657,1.17c-0.583-0.131-1.045-0.679-1.885-1.264
				c-0.835-0.578-1.521-1.324-1.594-2.033C184.711,474.668,185.264,473.97,186.892,473.597z"/>
			<path style="fill:#231815;" d="M245.286,187.471l0.017,0.923c0,0.623-0.009,1.258-0.034,1.905
				c-0.039,1.144-0.128,2.326-0.244,3.526c1.242,0.411,2.515,0.709,3.813,0.891c0.056-0.377,0.116-0.767,0.167-1.144
				c0.219-1.51,0.42-2.995,0.596-4.439l0.21-1.765l0.116-0.362l0.163-0.542c0.103-0.36,0.201-0.72,0.291-1.08
				c0.716-2.866,0.934-5.647,0.81-8.089c-0.133-2.635-0.69-4.456-1.199-5.602c-0.523-1.15-1.024-1.652-1.41-1.71
				c-0.793-0.111-1.135,1.517-1.482,3.595c-0.369,2.08-0.934,3.053-1.14,4.578c-0.116,0.763-0.154,1.66-0.197,2.913
				c-0.021,0.63-0.047,1.345-0.103,2.189c-0.03,0.415-0.064,0.87-0.116,1.352l-0.086,0.756l-0.051,0.394
				c-0.013,0.081-0.008,0.101-0.043,0.238l-0.073,0.349c-0.021,0.12-0.008,0.244-0.017,0.37l-0.004,0.182l0.004,0.113
				L245.286,187.471z"/>
			<path style="fill:#231815;" d="M240.8,244.854c0.051,1.718,0.094,3.351,0.116,4.842c0.051,3.297-0.013,5.906-0.081,7.249
				c-0.077,1.345-0.227,4.546-0.852,8.623c-0.613,4.079-1.821,9.019-3.749,13.747c-1.941,4.709-4.422,9.293-6.723,12.909
				c-2.305,3.635-4.456,6.328-5.518,7.622c-2.112,2.601-5.673,6.641-9.803,10.381c-4.1,3.766-8.693,7.275-11.975,9.704
				c-3.273,2.436-5.656,4.426-5.424,4.816c0.116,0.193,0.882-0.021,2.498-0.831c1.607-0.818,4.07-2.221,7.481-4.563
				c3.406-2.348,6.847-4.985,10.077-7.884c3.239-2.896,6.251-6.054,8.882-9.293c5.291-6.491,8.912-13.265,11.268-18.244
				c2.404-5.013,4.195-10.369,5.347-16.525c1.17-6.166,1.577-13.111,1.71-21.301c0-0.144,0.004-0.302,0.008-0.45
				C242.955,245.441,241.872,245.173,240.8,244.854z"/>
			<path style="fill:#231815;" d="M248.045,23.02c0.069,0.03,0.154,0.056,0.249,0.032l0.129-0.068l0.056-0.051
				c0.017-0.022,0.017-0.013,0.111-0.152c0.313-0.443,0.673-1.146,1.058-1.919c0.386-0.778,0.806-1.643,1.324-2.53
				c0.514-0.882,1.127-1.791,1.911-2.62c0.771-0.829,1.735-1.562,2.764-2.042c0.518-0.244,1.028-0.422,1.559-0.553
				c0.171-0.043,0.33-0.088,0.497-0.111l0.424-0.039c0.21-0.015,0.416-0.026,0.621-0.03c0.814-0.021,1.572,0.022,2.232,0.12
				c2.657,0.386,4.786,1.459,6.311,2.691c1.534,1.236,2.583,2.553,3.496,3.867c0.921,1.317,2.07,3.145,3.226,5.064
				c1.161,1.917,2.387,3.897,3.633,5.399c0.617,0.752,1.015,1.243,1.23,1.626c0.21,0.384,0.236,0.651,0.103,0.831
				c-0.257,0.362-1.217,0.321-2.181-0.321c-0.964-0.617-2.151-1.769-3.128-3.02c-0.981-1.243-1.795-2.53-2.237-3.351
				c-0.463-0.814-1.718-3.442-3.363-5.606c-0.823-1.082-1.774-2.003-2.639-2.588c-0.865-0.593-1.624-0.881-1.941-0.996
				c-0.317-0.111-0.955-0.283-1.782-0.351c-0.827-0.073-1.842-0.026-2.87,0.146l-0.377,0.073c-0.09,0.017-0.176,0.043-0.253,0.075
				c-0.197,0.075-0.415,0.167-0.608,0.268c-0.39,0.206-0.737,0.456-1.041,0.728c-0.609,0.531-1.041,1.142-1.328,1.542
				c-0.574,0.788-1.444,1.919-2.172,3.299c-0.369,0.688-0.703,1.418-1.045,2.202l-0.274,0.604c-0.111,0.227-0.24,0.474-0.377,0.707
				c-0.279,0.471-0.6,0.925-0.986,1.345c-0.775,0.844-1.705,1.131-2.399,1.165c-0.711,0.032-1.234-0.167-1.59-0.433
				c-0.18-0.137-0.326-0.296-0.441-0.465c-0.094-0.165-0.15-0.337-0.197-0.525c-0.09-0.373-0.137-0.803-0.189-1.294
				c-0.103-0.986,0.189-1.907,0.677-2.417c0.244-0.261,0.54-0.416,0.87-0.454c0.163-0.021,0.334-0.009,0.506,0.026
				c0.085,0.015,0.171,0.039,0.253,0.064L248.045,23.02z"/>
			<path style="fill:#231815;" d="M295.355,449.492c-0.368-0.617-1.033-1.54-2.211-2.562c-1.17-1.024-2.875-2.099-5.112-2.943
				c-2.236-0.848-4.978-1.459-8.183-1.793c-6.41-0.658-12.918-0.315-19.298-0.328c-3.188-0.002-6.346-0.073-9.357-0.467
				c-2.986-0.396-5.883-1.144-7.952-2.658c-1.033-0.748-1.829-1.682-2.378-2.776c-0.544-1.095-0.84-2.342-0.951-3.631
				c-0.026-0.326-0.043-0.651-0.051-0.977c-0.008-0.328,0-0.604,0.026-0.908c0.043-0.6,0.154-1.202,0.308-1.799
				c0.313-1.197,0.81-2.367,1.393-3.483c1.178-2.237,2.669-4.252,4.147-6.084c1.491-1.834,2.986-3.483,4.387-4.978
				c2.798-2.987,5.737-5.887,8.642-9.113c1.439-1.624,2.892-3.316,4.182-5.324l0.214-0.339l0.193-0.268l0.484-0.666l0.998-1.339
				c0.673-0.893,1.367-1.795,2.078-2.703c2.841-3.642,5.973-7.417,9.25-11.637c3.252-4.229,6.718-8.882,9.713-14.58
				c0.746-1.427,1.487-2.999,2.164-4.722c0.339-0.863,0.664-1.761,0.96-2.699c0.154-0.48,0.287-0.919,0.433-1.457
				c0.167-0.544,0.236-1.069,0.339-1.602c0.707-3.985,1.058-8.43,0.754-13.111c-0.3-4.677-1.281-9.58-3.038-14.349
				c-1.744-4.769-4.263-9.385-7.37-13.561c-3.102-4.182-6.782-7.924-10.746-11.127c-3.967-3.205-8.214-5.874-12.485-8.012
				c-7.28-3.657-14.576-5.735-20.857-6.761c-1.05,1.701-2.284,3.278-3.719,4.666c0.291,0.081,0.591,0.159,0.908,0.232
				c1.213,0.291,2.674,0.544,4.7,0.865c2.027,0.323,4.619,0.705,8.072,1.452c3.458,0.754,7.185,2.069,10.848,3.895
				c3.663,1.821,7.254,4.16,10.476,6.834c3.226,2.667,6.08,5.66,8.419,8.676c2.343,3.012,4.173,6.033,5.561,8.704
				c1.397,2.659,3.325,6.93,4.499,12.209c0.583,2.635,0.985,5.508,1.114,8.479c0.133,2.969-0.004,6.041-0.398,9.049
				c-0.094,0.754-0.214,1.504-0.33,2.206c-0.159,0.671-0.36,1.41-0.57,2.112c-0.433,1.414-0.934,2.785-1.487,4.1
				c-1.105,2.635-2.391,5.053-3.655,7.194c-2.541,4.272-4.923,7.472-6.144,9.12c-1.217,1.66-4.229,5.504-8.166,10.51
				c-0.981,1.253-2.014,2.586-3.068,3.991l-1.594,2.164l-0.403,0.557c-0.184,0.261-0.27,0.435-0.394,0.624
				c-0.24,0.366-0.493,0.737-0.754,1.105c-2.134,2.933-4.867,5.743-7.584,8.577c-2.729,2.828-5.501,5.675-7.982,8.61
				c-2.468,2.931-4.683,5.962-6.037,9.16c-0.673,1.594-1.105,3.239-1.187,4.835c-0.051,1.575,0.094,2.995,0.416,4.297
				c0.321,1.294,0.831,2.414,1.405,3.301c0.57,0.891,1.187,1.547,1.705,2.022c1.033,0.96,2.416,1.812,4.014,2.44
				c1.598,0.641,3.406,1.069,5.313,1.356c3.826,0.57,8.063,0.57,12.327,0.476c4.267-0.101,8.582-0.304,12.605-0.266
				c4.023,0.03,7.768,0.33,10.801,1.054c1.512,0.358,2.914,0.814,4.139,1.354c1.229,0.533,2.271,1.157,3.106,1.752
				c1.671,1.195,2.511,2.217,2.712,2.074C295.792,450.46,295.715,450.122,295.355,449.492z"/>
			<path style="fill:#231815;" d="M241.494,447.932c1.461,0.519,3.346,1.041,5.489,1.423c2.138,0.39,4.529,0.632,6.941,0.767
				c4.829,0.261,9.764,0.159,12.914,0.375c6.298,0.388,10.579,0.551,14.846,1.266c2.125,0.364,5.094,0.908,8.209,2.117
				c3.111,1.185,6.29,3.126,8.723,5.428c1.225,1.148,1.911,2.074,2.271,2.716c0.356,0.645,0.382,1.02,0.21,1.157
				c-0.356,0.285-1.495-0.33-2.763-1.275c-1.268-0.958-3.076-2.234-4.927-3.246c-1.838-1.033-3.706-1.804-4.867-2.292
				c-0.583-0.244-1.782-0.728-3.338-1.18c-1.555-0.452-3.47-0.859-5.398-1.121c-3.856-0.531-7.738-0.518-8.766-0.531
				c-2.052-0.068-11.907,0.801-15.103,0.686c-1.585-0.03-3.693-0.364-5.861-0.641c-2.177-0.276-4.396-0.512-6.431-0.212
				c-2.048,0.291-3.059,0.077-3.633-0.388c-0.574-0.469-0.754-1.219-1.208-2.234c-0.454-1.02-0.531-2.048-0.124-2.639
				C239.086,447.512,239.931,447.373,241.494,447.932z"/>
			<path style="fill:#231815;" d="M239.374,459.451c3.899-0.137,9.837-0.696,15.771-1.176c5.93-0.488,11.872-0.746,15.639-0.546
				c3.766,0.178,6.906,0.401,9.734,0.692c2.823,0.298,5.339,0.653,7.836,1.204c2.485,0.557,5.968,1.388,9.516,3.201
				c1.77,0.904,3.535,2.061,5.116,3.468c1.581,1.403,2.961,3.053,4.027,4.779c1.063,1.733,1.521,3.061,1.71,3.918
				c0.188,0.863,0.098,1.288-0.107,1.356c-0.433,0.15-1.358-1.046-2.434-2.575c-1.058-1.547-2.725-3.578-4.645-5.156
				c-1.894-1.607-3.985-2.77-5.296-3.464c-0.651-0.351-2.018-1.047-3.826-1.701c-1.804-0.656-4.049-1.258-6.32-1.667
				c-4.542-0.842-9.139-0.943-10.356-0.977c-1.221-0.039-4.739,0.066-8.398,0.375c-3.663,0.293-7.472,0.739-9.31,0.893
				c-3.676,0.306-9.885-0.098-14.105,1.742c-4.259,1.821-4.383,0.761-6.277-0.722c-0.951-0.75-1.555-1.654-1.406-2.357
				C236.4,460.027,237.283,459.533,239.374,459.451z"/>
			<path style="fill:#231815;" d="M207.655,464.723c1.988,0.853,4.43,1.999,7.04,3.192c2.618,1.198,5.411,2.399,8.252,3.303
				c1.418,0.45,2.854,0.844,4.272,1.159l0.227,0.053l0.06,0.015l0.514,0.052l1.067,0.094c0.707,0.058,1.405,0.105,2.082,0.142
				c2.721,0.135,5.184,0.114,7.108,0.109c3.848-0.017,7.087-0.313,10.013-0.604c2.926-0.3,5.54-0.624,8.183-0.861
				c2.639-0.231,6.298-0.621,10.364-0.548c4.062,0.052,8.522,0.677,12.442,1.956c1.958,0.63,3.231,1.262,3.993,1.746
				c0.763,0.493,1.02,0.846,0.925,1.046c-0.193,0.416-1.757,0.236-3.685-0.195c-1.932-0.452-4.657-1.005-7.309-1.296
				c-2.652-0.313-5.223-0.388-6.83-0.454c-0.801-0.034-2.451-0.086-4.516-0.024c-2.065,0.062-4.55,0.246-7.014,0.508
				c-4.923,0.535-9.803,1.2-11.11,1.313c-1.307,0.139-5.051,0.696-9.032,0.928c-1.988,0.118-4.032,0.15-5.827,0.09l-1.294-0.058
				l-0.681-0.045l-0.634-0.12c-0.724-0.137-1.35-0.278-1.842-0.398c-1.963-0.48-4.456-1.53-6.971-2.614
				c-2.519-1.071-5.103-2.142-7.498-2.395c-4.777-0.489-4.315-1.375-5.523-3.561c-0.6-1.084-0.883-2.164-0.467-2.755
				C204.378,463.909,205.513,463.794,207.655,464.723z"/>
			<path style="fill:#231815;" d="M205.594,392.002c0.064,1.523,0.116,3.038,0.124,4.492c0.039,3.618-0.159,6.926-0.51,9.3
				c-0.347,2.369-0.81,4.726-1.564,7.309c-0.763,2.581-1.816,5.39-3.453,8.586c-0.818,1.594-1.877,3.655-3.141,5.921l-0.985,1.744
				c-0.188,0.328-0.356,0.578-0.566,1.015c-0.188,0.373-0.351,0.72-0.514,1.086c-0.643,1.446-1.157,2.95-1.59,4.445
				c-0.865,2.988-1.439,5.955-2.022,8.591c-0.566,2.631-1.157,4.923-1.795,6.551c-0.343,0.878-0.51,1.485-0.531,1.962
				c-0.017,0.476,0.111,0.823,0.369,1.076c0.501,0.51,1.581,0.566,2.721,0.03c1.127-0.522,1.924-0.78,2.464-1.482
				c0.535-0.705,0.823-1.911,0.613-4.255c-0.21-2.331,0.159-4.906,0.763-7.357c0.591-2.449,1.448-4.709,2.04-6.358
				c0.3-0.833,0.72-2.117,1.448-3.483c0.754-1.478,1.581-3.209,2.322-4.919c1.512-3.419,2.631-6.83,3.029-8.008
				c0.42-1.17,1.877-5.63,2.652-10.319c0.827-4.681,1.028-9.501,1.067-11.048c0.047-1.491-0.051-3.843-0.291-6.283
				C207.415,391.145,206.537,391.621,205.594,392.002z"/>
			<path style="fill:#231815;" d="M263.902,178.833c3.111,1.939,7.802,4.76,12.567,7.198c4.756,2.468,9.61,4.443,12.708,5.611
				c3.098,1.189,5.788,1.87,8.231,2.281c2.451,0.416,4.657,0.557,6.855,0.559c2.202,0.011,5.227-0.289,8.432-1.018
				c3.209-0.711,6.581-1.851,9.623-3.089c3.033-1.251,4.285-1.538,4.499-1.118c0.201,0.394-0.694,1.435-2.159,2.359
				c-1.453,0.923-3.629,2.057-5.849,2.928c-2.215,0.883-4.46,1.5-5.891,1.748c-0.711,0.124-2.181,0.375-4.032,0.546
				c-1.851,0.173-4.083,0.259-6.294,0.182c-4.426-0.124-8.702-1.007-9.82-1.268c-1.131-0.236-4.396-0.9-7.716-1.945
				c-3.32-1.018-6.68-2.378-8.243-3.123c-1.568-0.737-3.518-1.995-5.57-3.179c-2.056-1.178-4.22-2.284-6.341-2.654
				c-4.25-0.765-3.715-1.669-4.349-3.875C259.926,178.752,260.565,176.742,263.902,178.833z"/>
			<path style="fill:#231815;" d="M214.339,37.255c-5.767,0-14.593-10.943-3.65-12.764
				C221.631,22.666,217.985,37.255,214.339,37.255z"/>
			<path style="fill:#231815;" d="M303.706,77.38c-3.248-0.81-4.062-4.87,0-4.06C307.768,74.13,303.706,77.38,303.706,77.38z"/>
			<path style="fill:#231815;" d="M271.345,75.057c4.944-0.244,8.286-0.746,8.625-1.217c0.347-0.484-2.434-1.043-9.73-0.728
				c-7.421,0.313-13.085,0.885-19.237,1.422c-1.538,0.133-3.106,0.266-4.739,0.37c-1.641,0.105-3.316,0.208-5.103,0.101
				c-3.591-0.175-7.579-0.732-12.275-1.127c-2.348-0.193-4.688-0.315-7.01-0.236c-2.318,0.094-4.644,0.364-6.808,1.191
				c-0.54,0.201-1.08,0.478-1.555,0.754c-0.488,0.272-0.972,0.552-1.452,0.831c-0.96,0.568-1.894,1.157-2.802,1.774
				c-1.812,1.238-3.531,2.583-4.979,4.188c-0.716,0.804-1.367,1.675-1.855,2.65c-0.489,0.964-0.805,2.05-0.81,3.16
				c-0.013,1.108,0.304,2.191,0.81,3.117c0.501,0.932,1.165,1.727,1.872,2.421c1.431,1.384,3.038,2.41,4.623,3.291
				c1.59,0.878,3.175,1.594,4.721,2.224c3.021,1.215,5.347,1.75,6.684,1.928c1.337,0.169,1.697-0.041,0.891-0.548
				c-0.801-0.523-2.776-1.32-5.981-2.644c-1.598-0.673-3.509-1.472-5.621-2.599c-1.054-0.568-2.155-1.219-3.226-2.024
				c-1.063-0.81-2.117-1.787-2.798-3.029c-0.733-1.326-0.754-2.721-0.36-3.933c0.386-1.221,1.084-2.254,1.83-3.151
				c1.517-1.789,3.222-3.113,5.124-4.419c0.96-0.647,1.988-1.287,3.123-1.945c0.57-0.309,1.17-0.701,1.761-0.945
				c0.621-0.272,1.307-0.497,2.048-0.683c2.982-0.735,6.804-0.81,11.693-0.433c3.92,0.298,7.704,0.859,11.44,1.208
				c0.934,0.086,1.868,0.154,2.811,0.178c0.943,0.024,1.855,0.007,2.768-0.01c1.817-0.041,3.607-0.111,5.373-0.18L271.345,75.057z"
				/>
			<path style="fill:#231815;" d="M157.389,74.775c0-5.467-1.821-10.026,5.471-10.939c4.559,0.913,6.384,6.38,4.559,10.939
				c-2.734,0-5.467,0-9.117,0H157.389z"/>
			<path style="fill:#231815;" d="M109.976,114.897c3.65-2.736,0.913-10.03,10.03-11.853c3.651,0,8.209,1.823,8.209,5.469
				c-8.209,0.91-3.65,7.294-9.117,10.941c-3.651,0.913-6.384,0-8.209-2.736L109.976,114.897z"/>
			<path style="fill:#231815;" d="M65.301,153.19c-1.825-6.382,9.118-13.681,14.589-10.028c7.293,4.557-5.471,15.499-9.117,17.325
				c-7.297,1.821-9.118-6.384-3.646-10.034L65.301,153.19z"/>
			<path style="fill:#231815;" d="M81.715,187.835c-1.825-3.642-5.471-10.938,2.733-10.026c3.646,0,3.646,4.554,4.559,8.205
				c-1.825,0.913-4.559,1.821-6.384,2.733L81.715,187.835z"/>
			<path style="fill:#231815;" d="M53.45,217.017c-2.738-6.384-5.471-13.681,4.555-15.501c0.913,4.559,5.471,4.559,8.209,7.292
				c-0.913,8.209,4.559,12.766-6.384,15.501c-7.292,2.733-6.38,0-6.38-8.205V217.017z"/>
			<path style="fill:#231815;" d="M58.005,273.543c-9.118-6.38-2.733-19.145,7.297-12.764c0,4.559,4.559,7.297,5.471,9.117
				c0,5.476-5.471,8.209-9.118,10.03c-1.825-2.734-1.825-5.471-2.738-8.205L58.005,273.543z"/>
			<path style="fill:#231815;" d="M78.065,239.806c-6.38-2.733-2.734-12.764,3.65-10.026c0.908,4.557,2.733,8.203,2.733,12.764
				c-4.559,1.825-7.297,0-8.205-4.561L78.065,239.806z"/>
			<path style="fill:#231815;" d="M181.095,156.837c0.913,4.559-13.676,19.145-7.292,21.883c7.292,3.644,25.527-19.146,8.205-20.971
				L181.095,156.837z"/>
			<path style="fill:#231815;" d="M201.156,169.602c2.734,0.912,6.384,4.561,7.297,8.207c-1.825,0.911-10.03,9.118-11.855,9.118
				c-5.471-0.913-1.825-17.325,2.733-18.235L201.156,169.602z"/>
			<path style="fill:#231815;" d="M130.036,298.162c-4.559,5.471-11.851,24.619,1.825,23.706c6.38-0.913,4.559-1.821,8.205-5.469
				c1.825-0.915,6.384-7.294,6.384-9.12c-0.913-2.734-14.589-7.292-17.327-9.118H130.036z"/>
			<path style="fill:#231815;" d="M161.039,314.576c3.646,0.908,7.292,3.646,8.205,6.38c-4.559,3.651-4.559,10.943-10.03,11.855
				c-7.292,0.913-6.384-13.676-6.384-19.145c2.738,0,5.471,0,8.209,0V314.576z"/>
			<path style="fill:#231815;" d="M244.009,292.693c-5.471-3.646-10.943,6.382-10.943,10.941c0,12.766,6.384,5.471,10.03,0
				c2.738-3.646,9.117-9.117-0.913-10.941H244.009z"/>
			<path style="fill:#231815;" d="M260.423,302.721c4.559,2.734,9.113,6.384,11.851,10.945c-2.738,0.91-5.471,0-9.118,0.91
				c-3.646,0.908-6.384,2.734-10.03,3.646c-3.646-7.294,3.646-11.855,7.297-17.322V302.721z"/>
		</g>
	</g>
	<g>
		<path style="fill:#FFFFFF;" d="M473.884,235.593c0.068,3.82,3.363,74.855,3.363,74.855s5.612,37.961,4.396,41.53
			c-1.217,3.569-9.555,1.795-9.555,1.795s-78.651,20.399-83.082,16.877c-4.434-3.526-24.795-16.44-25.54-18.256
			c-0.741-1.816-6.633-32.781-4.04-41.926c2.596-9.146,1.859-47.432,0.951-53.921c-0.913-6.489-2.185-12.205-2.185-12.205
			s8.92-5.484,14.645-6.898c5.72-1.418,46.453-8.92,53.299-10.017C432.983,226.329,473.884,235.593,473.884,235.593z"/>
		<path style="fill:#FFFFFF;" d="M459.128,234.869c0,0-62.053,14.422-73.034,14.991c-10.977,0.566-23.372-4.587-23.372-4.587
			l10.116-7.83c0,0,43.737-7.335,53.299-10.017c9.563-2.686,19.658,1.645,19.658,1.645l24.011,6.416L459.128,234.869z"/>
		<g>
			<path style="fill:#231815;" d="M440.451,249.558c-0.776-1.759-1.478-16.172-2.344-25.067c-0.137-1.32-0.737-5.197-1.568-10.561
				l-0.381-2.258c-0.086-0.503,0.034-1.189-0.06-1.692c-0.604-3.237-1.38-6.401-2.129-8.788c-0.737-2.393-1.435-4.01-1.542-4.239
				c-1.153-2.68-2.279-5.354-3.976-7.363c-1.637-2.061-3.942-3.042-4.803-3.117c-1.787-0.216-2.524,0.3-2.327,1.703
				c0.184,1.487,0.471,1.934,1.594,2.026c0.553,0.007,2.524,0.364,4.152,2.022c1.641,1.57,2.832,3.873,3.26,5.017
				c0.454,1.05,2.558,6.223,3.68,12.843l0.21,1.639l0.214,1.778c0.844,5.54,1.208,10.189,1.268,11.239
				c0.506,11.45,0.647,23.183,0.668,25.077c-0.073,2.275,1.114,2.155,2.266,2.009C439.791,251.681,440.833,250.548,440.451,249.558z
				"/>
			<path style="fill:#231815;" d="M400.802,201.719c0.326,0.574,0.716,3.201,0.938,6.431c0.236,3.226,0.326,7.048,0.36,9.97
				c0.017,0.87,0.304,3.426,0.377,6.979l0.038,1.5c0.009,0.332-0.223,0.767-0.214,1.097c0.094,4.297,0.304,8.458,0.33,8.783
				c0.197,3.719-0.921,7.303-0.818,8.166c0.09,0.848,0.428,1.2,1.872,1.028c1.448-0.176,2.014-0.394,1.919-1.29
				c-0.137-0.885-1.007-5.964-0.917-7.641c0.039-0.782-0.274-4.484-0.308-8.91l0.064-1.095l0.056-1.189
				c-0.021-3.713-0.017-6.795,0.021-7.496c0.493-7.592,0.3-15.452,0.356-16.695c0.133-1.5-1.028-1.363-2.189-1.225
				C401.53,200.277,400.442,201.081,400.802,201.719z"/>
			<path style="fill:#231815;" d="M473.438,231.524c-1.337,0.437-7.262,1.547-14.31,3.344c-7.057,1.759-15.3,4.044-21.598,5.493
				c-1.838,0.454-7.408,1.692-15.206,2.965l-3.291,0.523c-0.728,0.114-1.701,0.021-2.433,0.131
				c-9.431,1.429-18.578,2.569-19.285,2.658c-8.214,1.054-15.934,0.484-17.781,0.709c-1.847,0.221-2.652,0.613-2.481,2.059
				c0.176,1.452,0.578,1.99,2.592,1.75c2.014-0.234,13.376-2.063,17.091-2.38c1.744-0.148,9.966-1.281,19.752-2.686l2.425-0.279
				l2.631-0.321c8.183-1.268,14.97-2.412,16.525-2.772c8.346-1.679,16.585-3.766,23.145-5.09c6.551-1.358,11.375-1.984,12.669-2.035
				c3.132-0.154,2.99-1.294,2.853-2.461C476.613,231.977,474.929,231.004,473.438,231.524z"/>
			<path style="fill:#231815;" d="M379.662,251.683c-2.091,1.11-3.192,3.678-3.565,5.773c-0.399,2.112-0.176,3.796-0.18,3.792
				c-0.047,0.021,0.33,5.306,1.131,8.415c0.724,3.143,1.02,6.845,1.247,9.315c0.172,2.491,1.671,14.7,2.009,18.933
				c0.274,4.246,0.613,15.69,0.866,18.413c0.831,9.184,0.531,12.294,0.523,12.297c-0.004,0.002,0.24,8.627,0.668,12.299
				c0.411,3.672,1.645,8.483,1.328,10.996c-0.313,2.517,0.87,1.757,1.375,5.407c0.518,3.665,2.999,7.011,3.162,3.901
				c0.154-3.096-1.448-10.285-1.435-10.294l0.304-8.038c-0.004,0.002-2.905-2.781-2.022-6.57c0.865-3.779,0.133-11.093,0.488-14.197
				c0.347-3.104,0.647-6.812,0.279-11.084l-1.071-13.471c-0.377-4.377-0.484-10.538-0.746-12.961
				c-0.133-1.215-0.548-4.848-0.836-8.46c-0.308-3.614-0.42-7.2-0.424-8.389c-0.017-1.195,0.63-3.423,1.397-5.231
				c0.754-1.821,1.602-3.198,1.602-3.196c0.077,0.008-2.686-0.926-2.057-5.621c0.428-2.271-0.437-2.905-1.594-2.873
				C380.973,250.865,379.649,251.673,379.662,251.683z"/>
			<path style="fill:#231815;" d="M470.726,266.953c-0.034-17.329,0.913-25.328,1.23-27.886c0.377-2.573,0.377,0.274,1.243,4.323
				c0.883,4.045,2.296,6.082,3.346,8.655c1.084,2.575,1.795,5.654,1.757,11.804c-0.039,3.076-0.176,12.027,0.064,24.422
				c0.086,3.074,0.047,6.515,0.244,9.739c0.219,3.346,0.66,6.928,1.153,10.653c0.986,7.459,2.266,15.504,2.888,23.906
				c0.296,4.203,0.433,8.503,0.069,12.862c-0.188,2.176-0.501,4.37-1.075,6.547c-0.304,1.118-0.57,2.029-1.217,3.569
				c-0.296,0.686-0.626,1.337-0.956,1.996l-0.133,0.232l-0.266,0.03l-0.523,0.06l-1.05,0.122l-12.862,1.335
				c-4.04,0.426-8.003,0.874-11.851,1.35c-7.686,0.947-14.91,2.039-21.307,3.248l-2.344,0.452l-2.241,0.572l-4.31,1.095
				c-2.768,0.688-5.317,1.292-7.609,1.808c-18.273,4.154-28.175,3.85-32.974,1.802c-2.386-1.011-3.372-2.232-3.68-3.036
				c-0.309-0.825-0.052-1.33,0.33-1.913c0.411-0.572,0.977-0.458,1.59-0.189c0.647,0.266,1.414,0.75,2.896,1.245
				c2.905,1.056,8.466,1.579,14.507,1.463c3.021-0.004,10.827-0.94,20.994-3.419c2.541-0.608,5.227-1.303,8.042-2.052
				c2.935-0.814,5.99-1.298,9.066-1.902c6.2-1.148,12.763-2.172,19.392-3.1c6.611-0.928,13.368-1.768,19.739-2.545l1.349-0.167
				l0.296-0.075l0.124-0.253l0.21-0.518l0.219-0.625l0.291-1.031c0.189-0.692,0.334-1.395,0.463-2.104
				c0.505-2.838,0.617-5.739,0.596-8.52c-0.077-5.579-0.707-10.727-1.273-15.075l-1.469-10.435
				c-0.673-5.021-1.658-10.495-2.348-16.054c-0.167-1.388-0.313-2.8-0.403-4.199l-0.296-3.997l-0.6-7.558L470.726,266.953z"/>
			<path style="fill:#231815;" d="M359.311,240.109c0.72,0.259,2.879,0.146,6.32,0.756c0.848,0.148,1.761,0.332,2.712,0.555
				l1.448,0.362l1.212,0.334c0.994,0.274,1.868,0.705,2.571,1.418c2.738,2.753,2.104,3.207,2.798,4.042
				c0.608,0.795,1.371,4.441,0.63,5.309c-0.394,0.446-2.236,1.277-4.259,1.898c-2.018,0.632-4.173,1.12-5.142,1.309
				c-0.484,0.094-1.041,0.141-1.594,0.143c-0.24,0.109-0.261,0.249-0.351,0.304c-0.129,0.124-0.176,0.021-0.274-0.525
				c-0.103-1.052-0.951-4.081-1.671-4.353l-1.491-0.563l-1.435-0.548l-0.857-0.324l-0.463-0.169
				c-0.146-0.047-0.386-0.197-0.266,0.071c0.39,1.849,0.805,4.077,1.178,6.418l0.728,5.023c0.287,2.129,0.544,4.253,0.771,6.303
				c0.921,8.203,1.212,15.309,1.268,17.359c0.09,2.834,0.334,7.77,0.073,12.817l-0.626,6.568c-0.201,1.904-0.403,3.473-0.681,4.413
				c-1.076,3.764-1.388,5.056-1.688,7.614c-0.364,2.564,0.411,11.847,0.703,14.722c0.107,1.444,0.617,6.315,1.234,11.108l1.272,9.63
				l0.034,0.291c0.518,0.321,1.619,0.861,2.948,1.525l6.016,2.894c4.379,2.042,8.895,4.458,10.626,5.894
				c3.723,2.886,6.971,6.699,5.951,7.943c-1.011,1.294-1.992,1.962-6.135-0.505c-2.142-1.238-4.186-2.969-5.968-4.263
				c-1.727-1.332-6.495-3.869-11.838-7.209c-0.433-0.287-1.371-0.818-2.382-1.399c-1.011-0.591-2.198-1.242-3.44-1.997
				l-2.026-18.638c-0.647-5.968-1.08-11.294-1.294-13.393c-0.527-5.236,0.78-6.251,1.084-8.852c0.163-1.3,0.188-4.88,0.36-8.503
				c0.124-3.621,0.497-7.303,0.566-8.683c0.081-1.399,0.052-4.942-0.158-8.488c-0.197-3.556-0.54-7.14-0.643-8.741
				c-0.081-1.594-0.99-7.716-2.177-13.768l-1.838-9.167c-0.686-3.528-1.311-6.403-1.44-7.498c-0.227-1.937-1.513-6.56-3.085-11.89
				l0.24-0.118l0.437,0.103l0.883,0.208l1.748,0.411l3.304,0.784C357.25,239.539,358.878,239.948,359.311,240.109z"/>
			<path style="fill:#231815;" d="M373.81,240.267c-18.436,2.189-16.671,2.755-12.708,0.351c3.963-2.404,3.646-5.073,10.352-5.872
				c1.534-0.182,5.767-0.563,11.615-1.069l21.161-1.812l6.838-1.93c2.382-0.645,4.799-1.262,7.228-1.81
				c4.876-1.045,9.743-2.072,14.687-1.795c4.812,0.647,8.985,1.842,12.811,2.742c3.796,0.93,7.147,1.607,9.846,1.997
				c9.979,1.363,15.056,0.883,17.669,1.035c2.626,0.066,2.858,0.409,3.329,1.36c0.981,1.842-5.09,2.305-11.958,1.183
				c-1.508-0.246-5.124-0.531-9.897-1.303c-4.777-0.718-10.638-2.204-16.684-3.434c-1.504-0.293-3.076-0.557-4.563-0.752
				c-1.35-0.165-2.901-0.066-4.405,0.094c-3.038,0.341-6.088,1.016-8.98,1.74c-2.901,0.73-5.656,1.538-8.179,2.309l-6.945,2.187
				l-3.111,0.332l-2.267,0.214C388.711,236.949,373.81,240.267,373.81,240.267z"/>
		</g>
	</g>
</g>
</svg>
