<?xml version="1.0" encoding="iso-8859-1"?>
<!-- Generator: Adobe Illustrator 18.1.1, SVG Export Plug-In . SVG Version: 6.00 Build 0)  -->
<svg version="1.1" id="_x37_" xmlns="http://www.w3.org/2000/svg" xmlns:xlink="http://www.w3.org/1999/xlink" x="0px" y="0px"
	 viewBox="0 0 512 512" style="enable-background:new 0 0 512 512;" xml:space="preserve">
<g>
	<path style="fill:#21983A;" d="M240.37,148.594c3.018-1.342,7.044-6.709,7.715-9.728c0.67-3.019,7.381-16.773,9.728-20.127
		c2.349-3.355,6.709-7.046,9.729-4.697c3.018,2.348,6.374,9.393,10.735,9.728c4.362,0.335,6.038,3.02,2.347,3.02
		c-3.688,0-5.702-0.672-8.72-3.69c-3.02-3.019-4.361-7.38-7.045-6.709c-2.684,0.671-6.374,8.051-6.374,10.064
		c0,2.013-3.02,7.38-3.02,8.721s-2.348,4.361-3.354,4.361c-1.006,0-0.336,2.013,0.334,3.019c0.672,1.007-2.347,6.709-3.69,7.38
		C247.414,150.606,240.37,148.594,240.37,148.594z"/>
	<path style="fill:#21983A;" d="M261.84,126.117c4.064,1.22,7.044,0.001,8.386-0.335c1.341-0.336,1.341,1.342,1.006,4.361
		c-0.335,3.019,0.334,5.032-2.684,4.696c-3.02-0.335-3.02-1.006-5.367-2.013c-2.348-1.006-3.69-2.013-4.026-3.355
		C258.82,128.13,258.485,125.111,261.84,126.117z"/>
	<path style="fill:#21983A;" d="M315.846,103.977c-3.102,0.621-6.708-3.354-3.688-5.367c3.02-2.013,4.36-3.69,5.702-1.006
		C319.202,100.287,317.524,103.642,315.846,103.977z"/>
	<path style="fill:#21983A;" d="M248.42,100.958c-2.348-0.671-7.38-7.38-10.063-7.715c-2.683-0.336-5.366,3.691-6.374,7.38
		c-1.006,3.69-2.682,7.38-3.354,8.386c-0.672,1.006-1.343-1.007-0.672,1.006c0.672,2.013-0.672,6.709-0.672,10.064
		c0,3.355,0,6.374-3.018,7.38c-3.02,1.007-9.392,0.672-7.714-0.67c1.675-1.342,4.695-4.026,5.366-6.709
		c0.672-2.684,4.697-9.393,5.366-12.077c0.672-2.684,3.691-8.05,4.697-12.747c1.007-4.697,7.715-5.703,11.071-2.348
		c3.354,3.355,6.039,4.697,7.715,5.703C252.446,99.617,248.42,100.958,248.42,100.958z"/>
	<path style="fill:#21983A;" d="M235.337,96.598c1.343,1.342,1.678,2.348,4.026,1.677c2.349-0.67,3.021,1.007,2.349,2.349
		s4.026,4.361,1.342,5.366c-2.684,1.007-5.033-0.335-7.717-4.025C232.655,98.275,235.337,96.598,235.337,96.598z"/>
	<path style="fill:#21983A;" d="M254.459,92.572c3.018,2.348,11.405,7.044,15.095,5.368c3.69-1.678,4.026-4.697,5.703-4.697
		c1.678,0,2.012,1.007,3.354,1.007c1.343,0,11.407-1.342,13.083-1.678c1.678-0.335,3.691-1.342,3.691-1.342s0.334,1.007,1.34,1.007
		s16.102-0.672,19.121-1.342c3.021-0.67,14.427-3.354,16.104,1.342c1.676,4.696-2.013,6.709-2.685,7.715
		c-0.67,1.006-0.67,3.019-0.67,3.019s-3.354,0.671-3.354,1.678c0,1.006-14.426,14.424-16.774,17.779
		c-2.348,3.355-1.678,3.354-4.024,4.697c-2.349,1.342-7.381,6.709-7.717,7.715c-0.335,1.007-4.36,2.684-5.367,5.032
		c-1.006,2.347-5.03,7.044-4.36,8.05c0.67,1.007,1.678,2.348,0,3.354c-1.678,1.007-4.36,3.355-4.36,5.032
		c0,1.678,1.676,5.367-0.337,5.367c-2.012,0-1.678-4.026-2.684-3.355c-1.006,0.671-1.676,6.709-2.012,11.07
		c-0.336,4.361-1.342,6.374,3.018,5.703c4.363-0.671,9.057-4.361,7.045-4.026c-2.012,0.335-4.026,1.007-4.36,0
		c-0.336-1.006,1.008-4.36,1.678-6.038c0.67-1.678,2.348-3.691,3.018-5.703c0.67-2.013,3.354-8.721,3.354-8.721l2.013-6.038
		c0,0,3.412-6.431,5.366-8.386c2.013-2.013,3.691-5.033,4.697-5.703c1.007-0.671,5.032-5.032,5.032-5.032s2.349-1.677,3.691-2.348
		c1.342-0.671,9.728-6.709,12.411-9.392c2.684-2.684,7.717-5.367,7.717-7.044c0-1.678,2.348-4.361,1.676-5.368
		c-0.67-1.007,1.676-4.361,1.676-6.374c0-2.013,0.337-8.05-9.392-7.38c-9.729,0.671-15.767,0.671-20.798,0.671
		c-5.033,0-9.729,1.006-14.425,1.677c-4.697,0.671-7.045,1.341-10.735,1.006c-3.69-0.335-5.703-3.69-8.723-1.006
		c-3.018,2.684-0.334,2.349-6.372,2.349C259.155,92.237,254.459,92.572,254.459,92.572z"/>
	<path style="fill:#21983A;" d="M309.138,109.01c2.012-2.013,3.354,0,0.67,1.342c-2.683,1.342-3.02,3.018-4.026,4.696
		c-1.006,1.678-3.354,4.026-5.032,5.368c-1.676,1.342-4.696,3.69-6.038,6.709c-1.342,3.019-1.342,3.69-3.355,4.697
		c-2.012,1.006,0.336-1.342-2.012,1.006c-2.348,2.348-5.703,5.368-5.703,7.38c0,2.012,1.678,0,0,2.012
		c-1.676,2.013-3.02,3.691-3.354,5.368c-0.334,1.678-1.678,2.349-1.678,2.349s-1.34,0.671-1.676,2.013
		c-0.336,1.341-1.008,7.38-4.36,11.405c-3.355,4.026-7.381,7.715-7.047,11.07c0.336,3.355,1.342,8.722,0.336,8.722
		s-1.676-8.722-2.012-10.399c-0.336-1.678,3.354-6.375,4.696-9.057c1.342-2.684,2.684-6.374,3.69-8.387
		c1.006-2.013,2.684-3.69,3.02-5.703c0.336-2.013-0.672-3.355,0.336-4.361c1.006-1.007,3.69-2.349,4.696-4.026
		c1.006-1.677,2.684-4.025,2.684-4.025s5.032-6.038,5.702-7.044c0.672-1.006,3.691-4.697,3.691-4.697s4.36-4.026,6.038-5.367
		c0.711-0.569,2.752-2.648,4.864-4.853C306.137,112.234,309.138,109.01,309.138,109.01z"/>
	<path style="fill:#21983A;" d="M219.236,116.054c0-6.038-1.342-12.077-0.336-13.754c1.006-1.677,2.684-3.69,7.045-5.368
		c4.36-1.677,7.381-5.031,3.69-3.354c-3.69,1.677-4.696,2.013-6.708,3.019c-2.014,1.007-4.361,3.019-6.039,1.677
		c-1.678-1.342-2.348-4.361-3.354-3.019c-1.007,1.342-0.336,4.026-0.336,4.026s-1.342-0.335-3.355-0.671
		c-2.012-0.336-2.348,1.342,0.672,2.348c3.019,1.006,5.367,1.342,5.367,5.367c0,4.026,0.336,10.399,1.678,11.406
		C218.9,118.738,219.236,116.054,219.236,116.054z"/>
	<path style="fill:#21983A;" d="M197.599,149.85c0.755-2.012-0.27-6.584,1.509-7.295c2.517-1.006,3.523-6.038,4.278-7.799
		c0.755-1.761,3.27-4.277,3.27-1.761s-0.251,4.277,0.503,6.29c0.755,2.013,0.252,3.522-0.754,5.283
		c-1.008,1.761-2.769,5.032-3.272,6.541c-0.503,1.51-2.012,2.767-3.521,4.529c-1.51,1.761-3.02,4.277-4.278,6.29
		c-1.258,2.013-2.515,4.529-3.02,6.29c-0.502,1.761-2.012,3.27-3.27,5.032c-1.258,1.761-2.264,3.774-2.264,3.774
		s-1.258-1.51-1.761,0c-0.503,1.509-1.006,1.509-0.755,3.27c0.252,1.761-1.257,10.316-2.766,11.825
		c-1.51,1.51-6.794,8.554-7.045,12.077c-0.252,3.522-1.006,6.793-1.258,9.56c-0.252,2.767,1.509,12.076,0.755,16.605
		c-0.755,4.529,0.754,9.057,0.754,9.057l2.517,7.045c0,0,0.251,1.761,0.755,4.276c0.504,2.517-0.252,3.774,1.006,5.032
		c1.258,1.258,2.516,3.019,2.516,3.773c0,0.755-2.516,3.02-1.007,4.781c1.509,1.761,2.516,6.038,4.529,6.038
		c2.014,0,2.517,2.013,2.767,4.529c0.252,2.516,5.535,11.322,7.297,14.844c1.76,3.522,1.509,5.283-0.252,3.271
		c-1.761-2.013-6.29-12.579-8.805-15.095c-2.517-2.517-6.793-9.309-7.547-12.328c-0.757-3.019-2.266-7.548-3.021-9.309
		c-0.755-1.761-1.509-7.548-3.02-8.554c-1.509-1.006-2.767-10.063-2.767-13.586c0-3.522,0-4.026,0-5.787
		c0-1.761-0.524-15.449,1.006-19.121c1.258-3.019,2.264-7.044,3.02-8.554c0.755-1.51,3.774-6.541,4.529-8.806
		c0.755-2.264,2.767-7.547,3.523-9.057c0.755-1.51,0.503-4.277,0.755-5.535c0.251-1.258,2.264-3.02,3.773-4.529
		c1.509-1.51,2.264-3.271,2.264-3.271s1.509-3.774,2.264-5.786c0.755-2.013,2.264-7.045,3.524-7.8
		C195.585,155.135,197.599,149.85,197.599,149.85z"/>
	<path style="fill:#21983A;" d="M194.076,153.961c-2.012-3.355-1.006-13.418-3.02-17.109c-2.012-3.69-2.684-17.108-2.012-21.469
		c0.672-4.361,5.368-18.45,7.045-20.798c1.678-2.348,3.018-7.045,1.342-6.373c-1.678,0.671-5.032,3.019-5.368,6.038
		c-0.336,3.019-2.348,9.728-3.69,13.082c-1.342,3.355-3.355,13.083-3.355,17.779c0,4.697,1.678,9.058,1.678,11.741
		c0,2.684-3.354-1.342-3.354-0.336c0,1.007,2.684,4.026,2.684,5.367c0,1.342-1.678-1.342-2.013-0.335
		c-0.336,1.006-1.342,2.684,0.672,5.367c2.012,2.683,3.354,4.697,3.354,9.057c0,4.36,1.676,6.708,2.012,5.702
		C190.388,160.67,194.076,153.961,194.076,153.961z"/>
	<path style="fill:#21983A;" d="M203.133,82.844c-2.499,2.187-3.02,7.715-0.335,5.703c2.684-2.013,9.392-6.71,10.735-7.716
		c1.342-1.006,0-3.019,2.012-3.019c2.014,0,1.007,1.006,2.348,1.342c1.342,0.336,5.702-1.678,8.386-2.349
		c2.684-0.671,3.69-3.019,6.039-4.026c2.349-1.006,9.392-1.341,15.095-2.683c5.703-1.342,5.368-4.697,2.014-4.026
		c-3.355,0.671-5.702,3.02-9.393,3.355c-3.69,0.335-8.051,0.335-9.393,1.341c-1.34,1.007-0.983,3.208-2.684,3.02
		c-6.038-0.671-9.057,1.006-10.735,1.342c-1.676,0.336-2.012,1.006-3.688,2.013C211.856,78.147,205.817,80.495,203.133,82.844z"/>
	<path style="fill:#21983A;" d="M257.813,85.192c0,3.69,0.335,1.677,1.34,2.348c1.008,0.671,3.02,2.684,3.02,1.342
		c0-1.342,0.673-3.355,0.673-3.355s3.69-1.677,2.347-3.019c-1.341-1.342-5.702-12.076-6.708-14.76
		c-1.008-2.684,0.336-7.716,0.336-7.716s0.67-6.708,2.347-10.398c1.679-2.685-0.796-1.049-0.041-1.426
		c0.755-0.378,2.012-2.39,2.264-4.026c0.251-1.635,5.41-7.422,6.038-7.925c0.629-0.503,0.126-0.881,0.629-1.384
		c0.503-0.503,0.629-0.126,1.132-0.503c0.503-0.377,13.586-11.196,15.474-11.951c1.886-0.755,2.39-0.503,3.144-1.132
		c0.755-0.629,0.629-1.761,0.755-2.264c0.126-0.503,2.893-2.893,4.655-4.026c1.761-1.132,3.396-2.767,3.396-0.378
		c0,2.39-0.881,4.906,1.257,4.781c2.14-0.126,4.781-0.504,4.907-2.139c0.126-1.635,1.509-4.151-1.132-5.032
		c-2.643-0.881-4.907-1.635-7.799,0.125c-2.893,1.761-5.913,4.781-8.051,6.29c-2.138,1.51-5.156,4.403-6.416,5.284
		c-1.257,0.881-7.422,5.912-8.554,7.17c-1.132,1.258-2.767,2.264-2.892,2.642c-0.126,0.377,0,0.754-0.881,1.006
		c-0.881,0.252-6.29,7.422-6.919,9.058c-0.629,1.635-0.377,2.012-1.006,2.767c-0.629,0.754-2.264,5.535-3.019,8.554
		c-0.754,3.019-0.754,4.025-1.258,5.032c-0.503,1.005-0.503,4.906-0.503,4.906c-1.383,0.88-0.754,2.641-0.88,3.522
		c-0.126,0.881-1.006,0.503-1.006,1.132c0,0.629,0.251,2.139,1.006,3.019c0.755,0.881,0.629,2.013,0.377,2.642
		c-0.251,0.629-0.377,2.012,0.629,3.019c1.006,1.007,0.881,5.032,0.881,5.787C257.352,84.94,257.813,85.192,257.813,85.192z"/>
	<path style="fill:#21983A;" d="M278.485,55.63c-2.138-0.378-2.641,0.251-3.144-0.755c-0.503-1.006-2.264-4.151-2.766-5.409
		c-0.504-1.258-0.757-2.642,0.25-3.774c1.006-1.132,4.278-3.145,5.033-4.151c0.754-1.007,1.76-1.384,2.641-0.881
		c0.88,0.503,1.383,0.755,3.144,1.006c1.761,0.251,4.782,1.635,5.158,4.403c0.378,2.767-0.375,2.641-0.503,3.396
		c-0.126,0.754-0.503,2.138-0.503,2.641c0,0.503,0.503,1.51-0.503,1.887c-1.008,0.377-0.881,0.502-2.14,1.509
		c-1.257,1.007-0.754,1.384-2.766,1.258C280.373,56.636,278.485,55.63,278.485,55.63z"/>
	<path style="fill:#21983A;" d="M307.671,20.785c-0.684-1.23,1.006-1.887,0.251-3.271c-0.754-1.384-1.509-3.27,0.755-2.641
		c2.266,0.628,6.416,2.264,4.905,3.27c-1.509,1.007-2.264,1.132-1.635,1.887c0.629,0.755,2.767,3.02,2.39,3.9
		c-0.377,0.881,0.126,3.522-1.006,3.522c-1.132,0-2.013,0.126-2.14-2.013c-0.125-2.138,0.505-3.522-0.377-3.648
		C309.935,21.665,308.3,21.917,307.671,20.785z"/>
	<path style="fill:#21983A;" d="M313.205,28.835c-0.075,1.137-0.629,3.145-0.503,4.152c0.126,1.006,0.252,2.516-0.126,3.648
		c-0.377,1.132-0.88,1.761-0.754,2.516c0.125,0.755,0.88,2.39-0.504,3.019c-1.383,0.629-0.503,1.51,0.504,2.139
		c1.006,0.629,2.138-0.629,2.515-0.881c0.377-0.251,1.132-0.503,3.647,1.51c2.516,2.012,2.39,2.012,4.027,1.509
		c1.635-0.503,6.289-2.893,7.925-5.661c1.635-2.767,2.012-5.032,1.886-5.409c-0.126-0.377,1.006-0.754,2.014-1.887
		c1.006-1.132,1.635-3.145,1.006-4.277c-0.629-1.132-0.755-0.755-1.761,0.755c-1.006,1.51-0.629,2.39-1.384,2.893
		c-0.754,0.503-1.257,0.503-1.383,1.258c-0.126,0.755-0.377,0.755-1.006,1.509c-0.629,0.755-0.755,0.755-1.635,1.258
		c-0.881,0.503-0.755,0.378-2.769,1.384c-2.012,1.007-2.389,1.258-3.018,1.887c-0.629,0.629-0.378,0.755-1.51,1.007
		c-1.132,0.251,0,0.251-2.264,0.251c-2.264,0-2.892,0.126-3.27-0.251c-0.377-0.378,0.755-1.761,0.755-2.516
		c0-0.755,0.251-2.013-0.252-3.145c-0.503-1.132,0.126-2.139-0.251-3.396c-0.378-1.258,0.251-2.39,0.126-3.271
		C315.093,27.955,313.331,26.948,313.205,28.835z"/>
	<path style="fill:#21983A;" d="M352.076,105.319c-4.529-2.516-2.515-4.025-3.018-7.045c-0.503-3.019,0-9.56,4.529-7.548
		c4.529,2.013,9.057,0.503,12.58,3.523c3.523,3.019,12.58,6.541,15.598,12.076c3.019,5.535,5.032,7.548,8.554,11.07
		c3.523,3.522,7.044,7.045,9.057,9.56c2.014,2.517,5.032,8.555,0.503,6.542c-4.529-2.013-7.045-3.522-8.554-8.554
		c-1.509-5.032-5.032-6.541-7.548-8.554c-2.515-2.012-2.515-7.044-7.042-9.56c-4.53-2.516-4.53-3.522-9.059-3.522
		C363.146,103.307,352.076,105.319,352.076,105.319z"/>
	<path style="fill:#21983A;" d="M288.675,154.128c1.006,5.536,4.529,15.599,5.535,20.631c1.008,5.032,7.55,13.586,11.071,14.089
		c3.523,0.503,9.057-3.02,11.572-2.516c2.517,0.503,1.511,3.019,4.53,3.019c3.018,0,7.547,0,8.554,3.019
		c1.006,3.02,1.509,5.535,3.018,4.529c1.511-1.006,3.019-10.566,2.014-15.095c-1.008-4.529-3.02-6.541-4.529-10.064
		c-1.51-3.522-1.51-3.522-1.51-3.522l7.045,1.006c0,0-1.509,3.019,1.006,7.548c2.517,4.529,3.02,10.064,2.517,13.586
		c-0.503,3.523,1.006,11.07-5.031,13.587c-6.039,2.516-5.033-3.523-8.553-4.529c-3.524-1.007-9.06,1.006-16.607-3.523
		c-7.547-4.529-11.574-8.554-15.096-12.58c-3.521-4.025-8.553-23.146-8.553-23.146L288.675,154.128z"/>
	<path style="fill:#21983A;" d="M294.209,139.033c0,0,3.02,4.529,6.542,7.045c3.524,2.516,0-3.02,3.524,2.516
		c3.52,5.535,4.024,10.567,12.577,15.599c8.556,5.032,17.109,7.045,22.142,6.542c5.032-0.504,16.604-1.007,20.63,0
		c4.025,1.006,8.554,1.509,7.548-3.523c-1.006-5.032-7.548-19.624-7.548-21.637c0-2.012-4.026-13.586-8.051-15.598
		c-4.026-2.013-8.05-3.02-8.05-3.02s-7.045-4.025-10.065-5.031c-3.018-1.007-4.026-0.503-8.554-1.007
		c-4.529-0.503-6.541-4.025-6.541-4.025s-2.349,2.18-1.845,2.18c0.502,0,2.684,0.672,3.857,1.678
		c1.175,1.006,3.355,2.348,5.871,2.18c2.516-0.167,3.858-0.838,7.045,0.336c3.187,1.174,5.871,4.361,8.89,5.367
		c3.02,1.007,1.676-0.167,4.696,3.188c3.02,3.354,7.548,6.708,8.722,10.231c1.175,3.522,1.51,6.542,2.516,9.56
		c1.006,3.02,1.007,6.039-0.336,6.374c-1.342,0.335-2.012-1.007-4.696-0.504c-2.685,0.504-4.696,0.504-5.368,2.013
		c-0.672,1.51-1.678,1.342-1.678,1.342s-0.67-0.167-0.67,0.671c0,0.838-0.334,0.838-1.678,0.838c-1.342,0-3.02-0.503-4.865-0.167
		c-1.845,0.336,0.167,1.677-0.503,2.516c-0.67,0.839-1.678,1.174-2.517,1.174c-0.837,0-2.179-0.838-3.857-1.341
		c-1.678-0.504-1.006-0.672-4.361-0.839c-3.354-0.168-6.036-1.678-8.048-2.684c-2.015-1.007-8.89-6.71-10.569-9.729
		c-1.676-3.019-3.354-6.541-4.026-7.883c-0.669-1.342-0.167-1.175-3.019-2.349c-2.85-1.173-3.688-3.69-4.696-4.529
		C296.223,135.678,294.209,139.033,294.209,139.033z"/>
	<path style="fill:#21983A;" d="M209.676,328.23c0.503-4.529,2.012-7.548,3.018-4.026c1.006,3.523,5.535,8.051,1.006,10.064
		c-4.529,2.013-9.057,8.554-13.586,10.063c-4.529,1.51-5.535,0-2.012-4.025C201.624,336.281,209.676,328.23,209.676,328.23z"/>
	<path style="fill:#21983A;" d="M180.993,371.001c2.014-5.032,10.063-17.612,12.077-20.63c2.014-3.019,2.515,2.013,1.509,3.522
		c-1.006,1.509-5.535,7.548-7.547,12.579C185.019,371.504,180.993,371.001,180.993,371.001z"/>
	<path style="fill:#21983A;" d="M172.439,394.147c1.007-3.019,6.542-14.089,7.548-18.618c1.006-4.529,4.529,0,3.019,3.019
		c-1.509,3.019-4.025,10.566-5.032,14.089C176.969,396.16,172.439,394.147,172.439,394.147z"/>
	<path style="fill:#21983A;" d="M154.827,434.905c2.516-12.077,9.562-26.166,12.58-29.185c3.019-3.02,0.503,6.541-3.523,11.573
		C159.86,422.326,154.827,434.905,154.827,434.905z"/>
	<path style="fill:#21983A;" d="M149.796,452.517c0-7.116,4.026-5.032,3.523-2.517c-0.503,2.517,0,14.09-9.56,16.103
		c-9.56,2.013-7.548,3.522-14.089,0.503c-6.542-3.019-20.631-6.541-26.166-6.038c-5.535,0.503-3.523-1.006,1.509,3.019
		c5.033,4.025,11.574,10.063,9.057,9.56c-2.515-0.503-5.032-7.548-13.586-10.064c-8.553-2.516-10.063-1.006-13.586-1.509
		c-3.522-0.504,0-6.038,2.517-5.032c2.517,1.007,13.586,1.51,22.14,2.516c8.554,1.007,17.612,2.516,23.651,3.522
		C141.242,463.587,149.796,458.052,149.796,452.517z"/>
	<path style="fill:#21983A;" d="M126.146,469.625c2.515,1.007,2.515,4.026-4.529,4.529c-7.044,0.503-28.681-5.535-49.312,8.554
		c-10.566,6.038-6.541,1.006-4.529-1.006c2.012-2.013,14.089-9.057,23.146-9.561c9.057-0.503,22.645-0.503,27.675-1.509
		C123.631,469.625,126.146,469.625,126.146,469.625z"/>
	<path style="fill:#21983A;" d="M116.586,480.695c-3.523-1.006-20.127-4.529-30.694-1.006c-10.566,3.522-15.598,1.006-18.115,2.013
		c-2.517,1.006-3.02,3.522,1.006,3.522c4.025,0,16.605-2.013,18.114-2.013c1.511,0,13.083-7.045,29.688,1.007
		C122.624,483.714,116.586,480.695,116.586,480.695z"/>
	<path style="fill:#21983A;" d="M134.198,481.702c-4.026,1.006-27.172,8.553-32.203,11.573c-5.033,3.019-9.562,15.599-21.637,18.115
		c-12.077,2.516-9.057-3.523-7.548-4.026c1.509-0.503,9.561-1.51,11.575-3.523c2.011-2.012,9.512-10.136,11.068-11.069
		c7.548-4.529,7.548-4.026,10.065-4.529C108.032,487.739,134.198,481.702,134.198,481.702z"/>
	<path style="fill:#21983A;" d="M121.115,488.243c6.364,1.591,15.095,2.516,23.146-1.51c8.051-4.026,6.038-6.038,9.56-8.051
		c3.523-2.013,5.032,1.007,3.021,4.026c-2.015,3.019-4.53,4.026-6.039,4.529c-1.51,0.503-5.536,3.019-14.09,3.523
		c-8.553,0.503-13.082,0-18.618-0.504C112.56,489.752,119.103,487.739,121.115,488.243z"/>
	<path style="fill:#21983A;" d="M158.853,472.141c0.503-5.032,5.032-10.063,7.548-12.579c2.516-2.516,4.529-1.007,0.503,3.019
		s-6.038,9.56-7.044,12.076C158.853,477.173,158.853,472.141,158.853,472.141z"/>
	<path style="fill:#21983A;" d="M172.942,453.02c3.244-5.406,8.556-10.064,8.556-10.064l6.038-9.56l2.012-3.523
		c0,0,5.536-4.529,4.529-11.069c-1.006-6.542-3.521-7.548,0-11.574c3.523-4.025,6.038-2.013,4.529,0
		c-1.509,2.013,0-2.013-1.509,2.013c-1.51,4.025,0,12.58-2.517,19.624c-2.515,7.044-5.032,11.07-5.032,11.07
		s-6.038,4.026-9.56,8.051c-3.523,4.025-6.038,5.535-6.038,7.547C173.949,457.549,171.433,455.536,172.942,453.02z"/>
	<path style="fill:#21983A;" d="M205.147,398.173c5.732-2.205,24.154-19.624,28.178-23.146c4.026-3.523,6.038-1.51,8.051-3.019
		c2.012-1.51,4.529-6.542,4.529-6.542s2.012-4.529,3.018-8.051c1.007-3.522,3.523-1.006,2.517,1.51
		c-1.006,2.516-6.541,14.592-9.56,16.605c-3.02,2.013-3.02,2.013-7.548,5.032c-4.529,3.02-9.56,7.045-13.083,10.567
		c-3.521,3.523-10.063,10.064-15.095,11.573C201.121,404.211,198.605,400.689,205.147,398.173z"/>
	<path style="fill:#21983A;" d="M252.446,368.988c2.667-4.267,4.026-11.573,5.535-7.045c1.51,4.529,4.529,9.56,2.013,12.077
		c-2.517,2.516-3.523-0.504-6.542,6.541c-3.018,7.045-5.032,17.612-5.535,21.134c-0.503,3.522-6.541,11.573-12.076,18.115
		c-5.536,6.541-9.562,16.102-18.115,16.605c-8.556,0.504-14.593-2.516-17.108-1.006c-2.517,1.51-6.542,4.025-6.542,10.063
		c0,6.038-3.521,5.535,0,6.038c3.523,0.503,4.529-0.503,5.536-3.522c1.006-3.02,2.515-3.523,2.012,2.012
		c-0.503,5.535,1.006,10.567-1.006,10.567c-2.014,0-2.041-5.363-4.026-5.032c-3.02,0.503-7.045,0-5.536-4.529
		c1.51-4.529,3.523-14.593,6.542-16.605c3.02-2.012,10.065-4.025,17.612-4.025c7.547,0,10.566-2.013,11.574-5.032
		c1.006-3.019,10.566-14.592,13.082-17.108c2.516-2.516,3.019-3.523,4.529-6.542c1.51-3.019,4.026-13.083,4.026-15.599
		C248.42,383.581,249.93,373.013,252.446,368.988z"/>
	<path style="fill:#21983A;" d="M309.809,351.376c3.522-2.013,11.071,2.516,3.522,7.045c-7.548,4.529-3.522-0.504-10.065,3.522
		c-6.541,4.026-14.592,11.573-18.115,15.096c-3.521,3.522-8.553,18.115-8.05,20.128c0.503,2.013,6.541,5.535,3.02,7.547
		c-3.523,2.013-4.027,3.02-4.027,4.529c0,1.51,0,2.516,0,4.529c0,2.013,0,3.02-1.509,4.529c-1.509,1.51-10.063,3.523-12.077,5.535
		c-2.012,2.013-11.069,13.083-15.095,18.115c-4.026,5.032-8.554,10.063-10.063,10.567c-1.509,0.503-12.077,7.548-14.593,7.548
		c-2.515,0-2.515,0-2.515,0s-1.006,3.019-5.032,3.522c-4.026,0.503-7.045-2.516-7.045-2.516s2.013,3.523-0.502,3.523
		c-2.516,0-5.033-5.535-5.033-5.535l-2.517-3.019c0,0,3.02-6.039,5.033-6.039c2.012,0,0.503,4.529,2.012,7.045
		c1.51,2.516,4.529,3.522,7.548,1.006c3.02-2.516,5.032-5.535,5.032-5.535s-1.51,3.522,1.509,3.019
		c3.02-0.503,5.032-3.523,7.548-4.026c2.517-0.503,5.535-1.006,7.045-2.516c1.509-1.51,4.024-1.51,5.535-5.535
		c1.509-4.026,10.566-16.102,12.58-18.115c2.012-2.012,3.018-5.032,5.032-5.535c2.012-0.503,2.515,0,5.535-1.51
		c3.02-1.509,4.529-3.019,6.038-5.032c1.51-2.013,1.006,1.006,1.51-2.013c0.504-3.019,2.515-7.548,2.012-10.064
		c-0.503-2.516-0.503-6.038-0.503-6.038s1.006-3.523,3.019-8.554c2.012-5.032,8.051-15.599,12.076-19.121
		C292.7,363.956,309.809,351.376,309.809,351.376z"/>
	<path style="fill:#21983A;" d="M198.102,297.033c3.27,1.51,1.258,0.755,3.27,3.774c2.014,3.019,4.278,5.032,7.548,8.303
		c3.27,3.27,3.27,6.289,5.535,7.045c2.264,0.754,1.761-0.251,4.781,2.264c3.02,2.516,12.077,9.057,16.605,12.076
		c4.529,3.019,10.817,9.057,14.592,10.567c3.773,1.509,1.761,4.277,0.504,3.522c-1.26-0.755-4.782-4.78-7.297-6.541
		c-2.517-1.761-8.051-5.786-10.568-7.799c-2.515-2.013-12.831-9.56-15.85-11.07c-3.018-1.51-3.522-1.761-6.038-3.27
		c-2.515-1.51-5.284-3.774-6.29-6.29c-1.006-2.516-3.523-5.535-4.781-7.8c-1.257-2.264-2.264-3.522-3.018-4.277
		C196.34,296.781,198.102,297.033,198.102,297.033z"/>
	<path style="fill:#21983A;" d="M253.704,345.842c4.529,3.27,4.277,2.767,8.554,4.277c4.278,1.51,5.535,0.755,8.051,1.51
		c2.515,0.755,4.026-2.013,5.535-2.768c1.509-0.755,5.787-2.516,6.29-4.529c0.504-2.013,1.258-9.309,5.283-12.831
		c4.027-3.522,6.542-5.787,7.548-5.032c1.008,0.755,0,1.51-1.761,3.27c-1.76,1.762-4.024,3.271-4.276,6.542
		c-0.252,3.27-2.264,5.786-2.516,8.302c-0.251,2.516,0,3.02-1.509,5.284c-1.509,2.264-0.755,3.019-3.523,4.025
		c-2.767,1.006-2.767,0.755-5.032,2.012c-2.264,1.258-1.258,2.264-3.522,1.761c-2.264-0.503-2.767-0.503-5.787-1.509
		c-3.018-1.007-5.032,0-8.302-2.517c-3.27-2.516-3.27-3.019-6.038-4.529c-2.767-1.509-5.284-4.529-2.516-3.27
		C252.949,347.099,253.704,345.842,253.704,345.842z"/>
	<path style="fill:#21983A;" d="M298.236,327.476c5.568,1.391,21.636,1.258,25.914,0.755c4.276-0.503,11.322-0.755,16.353-2.516
		c5.032-1.761,11.069-3.523,15.095-6.038c4.026-2.516,5.285-2.264,9.309-4.78c4.026-2.516,5.535-3.774,7.547-4.78
		c2.013-1.006-4.024,4.78-5.283,6.038c-1.258,1.257-3.27,2.516-5.032,3.522c-1.761,1.007-4.026,2.013-6.29,2.516
		c-2.264,0.504-4.278,0-5.284,1.258c-1.006,1.258-1.761,1.761-3.773,3.019c-2.013,1.258-1.258,1.258-3.523,2.013
		c-2.264,0.755-7.548,2.013-11.574,2.767c-4.024,0.755-9.56,1.761-12.328,2.013c-2.767,0.252-5.165-0.752-6.038-0.503
		c-3.522,1.007-5.284,1.007-6.038,1.007c-0.755,0-2.264-0.504-6.793-2.264C295.972,329.739,297.229,327.224,298.236,327.476z"/>
	<path style="fill:#21983A;" d="M282.888,288.73c3.523,2.264,6.039,4.781,10.065,2.517c4.026-2.264,10.314-6.542,12.328-6.542
		c2.014,0,2.767-1.761,2.767-1.761s1.258-1.761,2.012-1.258c0.755,0.503,2.769-0.252,3.522-0.252c0.755,0,10.316-5.031,27.172-5.785
		c16.858-0.755,30.444,4.276,36.229,7.044c5.787,2.767,10.315,4.026,12.832,8.806c2.517,4.78,2.767,9.309,4.529,9.56
		c1.761,0.252,1.258,1.51,0.754,2.516c-0.502,1.006-1.257,1.006-0.502,2.264c0.754,1.258,0.251,7.8,1.509,9.812
		c1.257,2.013,0.251,2.768-0.503,3.522c-0.755,0.755-1.761,1.258-1.761,3.27c0,2.013-1.258,5.284-0.755,6.794
		c0.503,1.509,0.252,3.019,0,3.773c-0.252,0.755-0.503,1.51-2.012,3.02c-1.51,1.509-1.761,2.767,0.754,1.761
		c2.517-1.006,4.278-2.516,4.278-4.277c0-1.761,0-2.767,0-3.774c0-1.006,1.509-9.812,2.767-11.825
		c1.258-2.012,1.258-5.283,1.258-6.038c0-0.755-0.755-6.793-0.755-8.554c0-1.761-0.251-6.29-1.005-7.8
		c-0.757-1.509-2.517-10.315-13.336-16.605c-10.817-6.29-13.334-5.535-14.844-6.793c-1.509-1.258-3.018-1.51-6.541-1.761
		c-3.522-0.251-10.566-0.755-14.844,0.503c-4.276,1.258-7.296,1.761-9.559,1.761c-2.266,0-2.769-1.258-6.291-0.252
		c-3.523,1.007-7.296,1.258-9.559,1.51c-2.266,0.252-6.291,0.755-11.323,2.516c-5.032,1.761-18.115,8.051-20.882,9.057
		C288.425,286.466,282.888,288.73,282.888,288.73z"/>
	<path style="fill:#21983A;" d="M314.588,333.513c3.021,8.051,4.781,9.057,6.291,11.322c1.509,2.264-0.504,9.561,7.044,16.857
		c7.548,7.296,7.548,10.819,20.631,13.586c13.083,2.767,16.353,1.258,19.876,0.503c3.522-0.755,8.051-1.258,10.817-0.503
		c2.769,0.755,23.651-1.258,27.676-0.251c4.026,1.006,5.535,0.503,6.29,1.006c0.754,0.504,3.27,8.806,2.515,9.813
		c-0.754,1.006-4.276-0.755-4.276-0.755s-5.787-1.006-3.523-1.509c2.264-0.503,3.523-0.503,3.02-1.761
		c-0.503-1.258-2.517-3.523-3.272-4.026c-0.754-0.503-8.553-1.006-12.831-1.006c-4.278,0-17.612-0.251-20.63-0.251
		c-3.02,0-2.769,0.503-5.536,1.761c-2.767,1.258-3.521,1.007-5.535,1.258c-2.013,0.251-6.038-0.251-14.341-1.761
		c-8.302-1.509-10.063-2.013-14.34-4.529c-4.278-2.516-13.586-12.579-15.6-15.347c-2.014-2.767-5.535-8.302-5.787-11.07
		c-0.251-2.767,1.007-8.806,0.252-10.315C312.576,335.023,314.588,333.513,314.588,333.513z"/>
	<path style="fill:#21983A;" d="M327.252,238.831c2.685,4.025,7.717,9.728,7.717,9.728c1.676,4.361-0.672,15.432-1.678,18.114
		c-1.007,2.683-2.348,2.683-2.684,4.026c-0.336,1.341,0,3.354-1.006,3.69c-1.006,0.336-4.026,1.677-4.361,0
		c-0.336-1.677-0.336-3.69,2.012-5.703c2.349-2.013,2.349-9.057,3.355-12.076c1.007-3.02-0.001-8.052-1.342-10.735
		c-1.342-2.684-3.69-7.045-3.69-7.045C327.252,238.831,327.252,238.831,327.252,238.831z"/>
	<path style="fill:#21983A;" d="M362.811,243.863c3.019-2.013,3.355-6.374,5.033-4.697c1.676,1.677,2.684,6.038,2.012,7.715
		c-0.672,1.678,0.67,1.678,0.67,2.684c0,1.007-1.342,1.678-4.026,1.678c-2.682,0-5.03,0.671-6.373,1.342
		c-1.341,0.671-2.684,1.006-3.69,2.348c-1.006,1.342-3.355,1.342-4.026,2.348c-0.67,1.007-0.67,2.684-4.696,5.702
		c-4.026,3.02-5.703,10.065-6.709,9.393c-2.012-1.342,0-3.355,0-3.355s1.676-1.678,2.348-5.032c0.672-3.355,6.038-8.386,8.051-9.728
		C353.418,252.92,362.811,243.863,362.811,243.863z"/>
	<path style="fill:#21983A;" d="M292.366,179.791c-4.697,4.697-14.09,5.703-15.767,5.032c-1.678-0.671-2.013-1.006-4.361-1.006
		c-2.348,0-2.682,0.671-6.374-0.671c-3.69-1.342-16.437-9.056-18.115-11.741c-1.678-2.684-3.018-2.684-3.018-2.684
		s-3.02-3.019-3.02-4.361c0-1.342-3.355-3.69-4.361-4.361c-1.006-0.67,1.342-3.354,0-4.696c-1.342-1.342-3.02-1.678-5.367-5.367
		c-2.348-3.69-0.335-4.361-4.36-1.342c-4.026,3.019-5.703,3.019-6.039,9.728c-0.336,6.709,4.025,11.741,5.702,10.735
		c1.678-1.007,1.342-2.348,0-3.691c-1.34-1.342-3.018-8.05-2.683-9.392c0.336-1.342,1.676-4.697,4.026-4.697
		c2.348,0,4.696,3.02,3.02,5.032c-1.678,2.013-2.685,0.336-1.678,2.013c1.006,1.677,2.011,2.013,3.354,3.02
		c1.343,1.006,5.702,6.709,7.045,6.709c1.342,0,1.342,0.671,2.348,2.013c1.007,1.342-0.67,1.677,1.676,3.019
		c2.349,1.343,9.395,4.026,12.413,7.045c3.021,3.019,9.729,5.702,11.741,5.702c2.012,0,4.027-0.67,7.045,1.343
		c3.018,2.013,19.792,2.013,21.804-1.007L292.366,179.791z"/>
	<path style="fill:#21983A;" d="M214.54,159.999c1.055,0.106-2.014-4.025,0.67-3.69c2.684,0.335,4.361,4.026,2.684,5.032
		c-1.678,1.006-4.026,6.038,0,9.727c4.026,3.691,2.684,5.032,0.672,4.026c-2.012-1.006-3.021-3.691-3.355-2.348
		c-0.334,1.342-0.67,4.025,2.349,5.368c3.018,1.342,4.024-0.336,5.032,2.683c1.006,3.02,2.011,3.69,3.688,5.032
		c1.678,1.343,8.051,2.684,15.096,7.716c7.044,5.032,11.407,8.051,13.753,10.064c2.348,2.012,7.045,8.722,10.065,8.722
		c3.018,0,6.709-0.336,11.741-1.342c5.032-1.007,6.038,2.013,3.354,2.684c-2.684,0.671-6.038,0-12.411,1.005
		c-6.375,1.008-5.705,2.014-7.381-1.005c-1.676-3.019-6.709-8.386-10.063-11.07c-3.355-2.684-9.057-6.709-11.741-7.045
		c-2.684-0.336-4.697-2.684-6.374-3.019c-1.678-0.336-6.708-2.349-8.386-3.69c-1.678-1.342-5.367-1.677-7.38-5.703
		c-2.014-4.025-7.046-11.405-3.355-12.747C211.52,167.714,211.185,159.664,214.54,159.999z"/>
	<path style="fill:#21983A;" d="M288.675,213.672c-2.348,0.335-6.374-2.684-2.348-2.013c4.026,0.671,9.729-2.683,12.749-3.019
		c3.018-0.336,4.696-2.349,7.714-0.336c3.02,2.013,5.033,1.342,7.045,1.007c2.012-0.337,3.69-2.013,6.038-0.671
		c2.349,1.341,4.026,2.013,5.703,2.013c1.678,0,11.405-1.007,19.456,2.683c4.361,2.349,5.703,4.697,3.69,5.032
		c-2.012,0.335-1.005-0.671-3.354-1.678c-2.349-1.006-5.703-3.354-9.729-4.025c-4.024-0.672-8.051,1.341-11.069,0.335
		c-3.02-1.007-1.676-1.342-5.367-1.678c-3.69-0.335-6.036,1.342-9.729,0.671c-3.69-0.671-5.03-1.341-7.38-1.341
		C299.745,210.653,288.675,213.672,288.675,213.672z"/>
	<path style="fill:#21983A;" d="M343.018,218.704c2.013,1.007,5.369,4.696,7.717,2.348c2.348-2.348-0.336-6.374,2.012-7.38
		c2.348-1.006,2.348,1.341,3.355,0.335c1.006-1.006,2.684-4.026,3.354-5.032c0.67-1.006,8.387-5.702,9.393-6.709
		c1.006-1.006,5.702-4.697,8.386-6.374c2.684-1.677,6.039-2.348,7.717-3.69c1.676-1.342,0-3.02-2.35-1.342
		c-2.348,1.678-5.702,4.026-8.05,4.697c-2.349,0.671-4.363,1.678-5.369,3.019c-1.006,1.342-1.341,1.007-3.69,3.02
		c-2.348,2.013-5.702,3.019-7.715,4.696c-2.012,1.677-2.682,2.349-4.36,3.355c-1.678,1.007-4.026,2.013-4.697,3.02
		C348.051,213.672,343.018,218.704,343.018,218.704z"/>
	<path style="fill:#21983A;" d="M284.986,226.419c8.181,6.547,21.133,12.412,34.216,11.405c2.684,1.342,4.361,2.348,6.374,1.007
		c2.012-1.342,4.696-1.342,8.386-1.678c3.691-0.335,18.786-1.678,24.154-2.348c5.368-0.671,6.374-2.012,9.392-3.355
		c3.02-1.342,0.672,2.684-2.347,4.026c-3.02,1.342-4.026,1.007-7.381,1.677c-3.354,0.671-15.095,1.006-19.119,1.678
		c-4.027,0.671-9.732,0.336-12.414,1.677c-2.682,1.342-2.011,1.006-6.707,1.342c-4.699,0.336-7.717,0.671-11.072,0
		c-3.354-0.671-8.051-2.349-12.747-5.032c-4.696-2.684-7.045-3.355-9.728-5.367C283.307,229.439,278.277,221.052,284.986,226.419z"
		/>
	<path style="fill:#21983A;" d="M372.539,228.096c4.179-2.089,6.708-7.38,8.722-9.728c2.013-2.349,3.018-7.715,3.354-5.032
		c0.337,2.684-0.672,5.032-4.024,9.057c-3.355,4.026-8.386,8.386-9.729,8.722C369.52,231.451,369.184,229.774,372.539,228.096z"/>
	<path style="fill:#21983A;" d="M386.628,211.324c1.128-1.41,2.012-3.69,4.696-6.038c2.685-2.349,3.02-3.355,4.026-4.026
		c1.006-0.672,0.336-1.678-2.348,0.335c-2.684,2.013-7.381,5.703-8.387,7.716C383.609,211.324,383.943,214.677,386.628,211.324z"/>
	<path style="fill:#21983A;" d="M383.274,194.887c2.237-2.238,2.347-4.361,2.347-8.722c0-4.361,5.033-27.843,0-34.552
		c7.045,9.728,7.381,7.38,9.395,14.759c2.012,5.032,3.018,2.349,1.676-2.012c-1.342-4.361-1.594-6.206-3.48-8.219
		c-1.887-2.013-5.409-6.667-7.296-8.931c-1.887-2.264-2.39-1.007-2.264-0.126c0.125,0.881-2.014-0.503-1.761,1.258
		c0.252,1.76-0.378,1.257,1.132,4.151c1.509,2.893,2.39,4.78,2.39,6.164c0,1.384-0.504,2.893,0.126,4.152
		c0.628,1.258-0.504,4.151-0.504,5.032c0,0.881-1.132,11.195-1.132,12.454s-0.251,4.655-0.377,6.415
		c-0.125,1.761-0.629,3.523-1.005,4.78C382.142,192.747,382.016,196.144,383.274,194.887z"/>
	<path style="fill:#21983A;" d="M397.111,167.966c1.26-0.755-0.251,3.523,1.26,2.768c1.508-0.755,2.766-7.548,3.772-9.561
		c1.006-2.012,1.761-3.019,1.761-5.032c0-2.013-0.755-6.038-0.251-7.296c0.502-1.258,0.502-1.258,0.502-3.019
		c0-1.761,0.504-1.761,0-4.529c-0.502-2.768,0-5.284-1.509-8.051s-3.02-4.277-3.27-6.291c-0.251-2.012-1.258-3.018,1.258-1.509
		c2.515,1.509,5.032,5.032,6.541,7.8s4.781,8.051,5.536,10.063c0.754,2.013,0,7.045,0,9.058c0,2.012-0.252,4.025-0.252,5.786
		c0,1.761-1.509,4.277-1.258,5.535c0.252,1.258,0.504,2.516,0,4.277c-0.503,1.761-1.258,4.781-1.258,4.781l-1.509,3.27
		c0,0-0.755,0-2.013,1.51c-1.257,1.509-2.264,3.019-4.024,5.283c-1.761,2.264-2.014,2.264-4.024,2.767
		c-2.015,0.503-1.763-1.76,0.502-2.013c2.264-0.251,4.026-3.27,4.781-4.529c0.754-1.257,1.257-3.27,2.264-4.276
		c1.006-1.007,1.509-2.013,2.264-3.271c0.754-1.258,2.264-4.026,2.264-5.535c0-1.51-1.007-4.026-0.504-5.284
		c0.504-1.258,1.258-5.535,1.258-6.793c0-1.258,0.755-8.051,0.252-9.309s-3.523-7.548-5.033-8.554
		c-1.509-1.006-1.006,1.007-0.754,3.774s0.503,9.309,0,11.322c-0.503,2.013-0.503,5.535-2.517,10.567
		c-2.012,5.032-4.778,13.083-5.787,13.586c-1.006,0.503-1.508-1.51-1.257-3.774C396.356,169.224,397.111,167.966,397.111,167.966z"
		/>
	<path style="fill:#21983A;" d="M398.872,197.905c3.018-2.516,11.825-7.044,14.341-8.051c2.515-1.006,2.515,0.251,1.008,2.264
		c-1.51,2.013-5.788,5.535-9.311,6.793c-3.521,1.258-3.521,0.504-6.539,0.755C395.35,199.918,398.872,197.905,398.872,197.905z"/>
	<path style="fill:#21983A;" d="M401.64,190.609c2.767-1.258,3.773-3.271,5.787-4.781c2.012-1.509,2.767-1.509,4.529-4.025
		c1.761-2.516,2.266-5.032,3.02-6.541c0.754-1.51,2.012-5.284,2.012-7.548c0-2.264-0.252-6.038-0.755-7.799
		c-0.503-1.761-1.257-3.523-2.011-5.032c-0.757-1.51-1.51-3.523,0.249-1.51c1.761,2.013,3.523,4.026,3.775,6.29
		c0.251,2.264,0.251,8.05-0.503,10.818c-0.755,2.767-1.007,3.773-0.503,4.78c0.503,1.006,1.76,2.516,2.012,4.026
		c0.252,1.509-1.509,8.302-3.523,9.812c-2.012,1.51-1.761,0.755-1.006-0.755c0.755-1.51,2.769-4.781,2.769-6.541
		c0-1.761-1.26-4.026-1.26-4.026s-1.761,2.264-3.018,4.529c-1.258,2.264-3.775,4.277-3.775,4.277s-1.509,1.258-3.27,2.767
		c-1.761,1.51-3.02,3.27-4.026,3.27C401.137,192.622,401.64,190.609,401.64,190.609z"/>
	<path style="fill:#21983A;" d="M415.478,198.911c-1.008-3.019-2.517-6.038-1.257-6.793c1.257-0.755,4.778,3.271,5.787,5.284
		c1.005,2.013-0.253,4.529,0,7.044c0.25,2.516,2.011,16.353,2.766,22.14c0.754,5.786,2.515,22.643,2.515,25.411
		c0,2.767-1.006,15.096-1.257,19.373c-0.252,4.277-0.071,9.865,0.503,10.566c2.264,2.768-0.252,8.051,8.554,10.316
		c8.805,2.264,9.56,2.767,12.075,2.013c2.517-0.754,1.51,2.516-0.251,3.019c-1.761,0.503-5.284,0.755-5.284,0.755
		s-5.284,4.025-11.069,3.773c-5.787-0.251-10.065-3.773-9.562-7.296c1.761,1.258,4.025,3.27,6.542,4.529
		c2.515,1.258,7.044,0,8.805-0.755c1.761-0.755,1.008-1.51-0.754-2.013c-1.761-0.503-6.793-3.271-9.057-5.032
		c-2.264-1.761-4.278-6.039-4.278-8.303c0-2.264,0.252-9.057,0.503-10.819c0.252-1.761,0.252-11.07,0.252-14.089
		c0-3.019-0.252-5.787-0.503-7.548c-0.252-1.761,0-4.277,0-6.038c0-1.761-0.252-3.02-0.252-4.025c0-1.007-1.258-4.277-1.258-6.039
		c0-1.761,0-5.535-0.251-7.044c-0.252-1.51-0.755-7.045-0.755-8.554c0-1.509-1.258-12.076-1.258-12.831
		c0-0.754,0.252-2.264-0.251-3.019C415.981,202.183,415.478,198.911,415.478,198.911z"/>
	<path style="fill:#21983A;" d="M417.742,301.31c4.234,2.647,10.566,4.528,16.604,2.013c3.02-0.251,2.014,1.51-0.503,2.516
		c-2.515,1.007-5.787,1.258-6.541,1.258c-0.755,0,0.754,4.025-6.039,4.78c-6.793,0.755-8.553-1.007-12.075-2.516
		c-3.522-1.51-7.548-8.303-4.781-6.29c2.767,2.013,4.026,4.529,10.568,5.032c6.541,0.503,7.799-1.006,7.044-1.006
		c-0.755,0-4.026-2.264-5.787-4.529C414.471,300.304,415.729,300.052,417.742,301.31z"/>
	<path style="fill:#21983A;" d="M339.246,55.504c-1.776-2.664-4.53-5.786-3.775-7.799c0.754-2.013,2.264-5.032,2.515-6.039
		c0.252-1.006,1.761-1.258,3.272-2.516c1.509-1.258,3.018-4.277,3.018-5.283c0-1.007-0.754-2.013-1.258-3.523
		c-0.503-1.51-2.515-5.283-6.289-4.025c-3.775,1.258-2.769,3.522-1.887,2.893c0.88-0.629,1.635-2.39,3.397-1.132
		c1.761,1.258,2.012,3.27,2.264,5.283c0.251,2.013-1.006,2.768-2.264,4.026c-1.258,1.258-0.755,1.761-1.258,2.516
		c-0.503,0.755-2.264,2.013-2.515,3.522c-0.252,1.51-1.258,2.767-0.755,5.032c0.503,2.264,1.258,4.78,3.02,7.548
		C338.49,58.775,340.754,57.768,339.246,55.504z"/>
	<path style="fill:#21983A;" d="M341.006,65.82c3.773,2.767,9.813,10.063,10.819,14.843c1.006,4.781-1.761,18.115-5.032,21.386
		c-3.27,3.271-6.29,7.045-7.045,8.051c-0.754,1.006-3.773,0.503-3.522-1.761c0.252-2.264-0.503-4.529,2.516-6.29
		c3.02-1.761,6.038-5.032,7.296-7.044c1.258-2.013,2.767-10.316,2.013-12.58c-0.755-2.264-3.272-10.566-4.529-11.825
		C342.264,69.341,341.006,65.82,341.006,65.82z"/>
	<path style="fill:#21983A;" d="M293.456,89.973c-1.51-1.51-5.03-7.045-4.781-8.051c0.252-1.006,2.013-1.761,6.039,3.019
		c4.024,4.781,4.024,4.781,4.024,4.781L293.456,89.973z"/>
	<path style="fill:#21983A;" d="M280.289,90.894c-0.672-0.922,0.839-4.947-0.922-7.212c-1.761-2.264-5.787-4.026-5.284-1.761
		c0.503,2.264,1.51,6.541,2.012,7.548c0.504,1.007,2.013,3.02,3.272,3.02C280.623,92.488,280.289,90.894,280.289,90.894z"/>
	<path style="fill:#21983A;" d="M331.194,107.836c0.755,1.258,2.767,4.78-0.251,5.032c-3.02,0.251-7.296,1.258-7.296,1.258
		L331.194,107.836z"/>
	<path style="fill:#21983A;" d="M324.904,120.918c3.522-1.509,10.568-4.78,14.844-3.773c4.278,1.006,3.02,8.051,3.775,9.811
		c0.754,1.762-5.536-1.257-5.536-1.257s2.767-5.787,0.252-6.541c-2.517-0.755-9.057,2.767-9.057,2.767L324.904,120.918z"/>
	<path style="fill:#21983A;" d="M345.12,73.375c-0.435-0.93-0.492-1.672-1.156-2.893c-0.658-1.225-1.793-2.978-2.305-3.676
		c-0.499-0.711-1.342-1.808-1.678-2.208c-0.334-0.396-0.463-0.983-1.466-1.701c-1.002-0.709-1.232-0.955-2.041-1.823
		c-0.81-0.865-2.603-2.402-3.45-3.451c-0.439-0.517-0.874-1.04-1.406-1.611c-0.537-0.564-1.154-1.197-2.081-1.782
		c-0.477-0.297-1.034-0.209-1.242,0.007c-0.214,0.219-0.165,0.489,0.288,0.692c0.917,0.491,1.154,0.779,1.438,1.378
		c0.278,0.598,1.334,1.822,1.977,2.18c0.621,0.362,1.824,2.505,2.41,3.123c0.583,0.625,2.038,1.793,2.599,2.415
		c0.55,0.644,1.142,1.622,2.95,3.17c0.391,0.356,1.047,0.896,2.421,3.202c0.34,0.574,1.208,1.638,1.43,2.096
		c0.24,0.456,0.521,2.346,1.648,2.969C346.592,76.096,345.559,74.307,345.12,73.375z"/>
	<path style="fill:#21983A;" d="M337.138,82.699c0.014-1.127,0.147-1.888,0.053-3.221c-0.025-0.337-0.034-0.69-0.036-1.088
		c-0.003-0.423-0.014-0.863-0.037-1.287c-0.045-0.851-0.159-1.639-0.244-2.101c-0.142-0.929-0.615-2.382-0.863-2.896
		c-0.208-0.502-0.269-1.211-1.12-2.123c-0.87-0.935-1.049-1.241-1.767-2.281c-0.365-0.515-0.991-1.243-1.709-1.91
		c-0.716-0.681-1.495-1.269-2.068-1.725c-1.157-0.899-2.458-1.554-4.355-2.444c-0.936-0.445-2.052,0.194-0.937,0.742
		c1.112,0.533,1.428,0.675,1.923,1.222c0.514,0.536,1.902,1.337,2.547,1.54c0.325,0.08,0.887,0.642,1.353,1.245
		c0.473,0.609,0.868,1.293,1.12,1.617c0.522,0.622,1.754,2.035,2.185,2.795l1.972,3.852c0.207,0.483,0.646,1.249,0.662,4.037
		c-0.007,0.727,0.411,2.101,0.456,2.619c0.021,0.261-0.053,0.882-0.111,1.538c-0.047,0.662-0.121,1.349,0.099,1.984
		c0.211,0.646,0.426,0.448,0.628-0.107C337.09,84.155,337.141,83.265,337.138,82.699z"/>
	<path style="fill:#21983A;" d="M328.119,86.93c0.359-0.608,0.81-0.927,1.135-1.825c0.332-0.891,0.584-2.261,0.65-2.832
		c0.086-0.571,0.14-1.486,0.144-1.83c0.007-0.339,0.29-0.694-0.016-1.487c-0.314-0.781-0.337-0.997-0.445-1.782
		c-0.1-0.794-0.727-2.27-1.066-3.096c-0.332-0.833-0.689-1.684-1.578-2.761c-0.499-0.555-1.495,0.011-1.01,0.48
		c0.458,0.505,0.569,0.694,0.554,1.162c-0.009,0.461,0.395,1.304,0.78,1.597c0.423,0.286,0.292,1.818,0.36,2.3
		c0.104,0.485,0.504,1.571,0.525,2.093c0.025,0.527-0.193,1.211,0.207,2.701c0.063,0.33,0.229,0.883-0.214,2.517
		c-0.099,0.404-0.16,1.29-0.308,1.586c-0.067,0.149-0.354,0.423-0.596,0.749c-0.249,0.326-0.443,0.703-0.385,1.218
		C326.936,88.809,327.79,87.562,328.119,86.93z"/>
	<path style="fill:#21983A;" d="M321.697,87.135c-0.038-0.192,0.197-0.374,0.144-0.63l-0.173-0.784l-0.106-0.492
		c-0.019-0.09,0.225-0.234-0.079-0.392c-0.304-0.159-0.315-0.223-0.354-0.432c-0.036-0.208-0.365-0.593-0.387-0.84
		c-0.025-0.244-0.045-0.487-0.053-0.853c-0.003-0.175-1.079-0.315-1.075-0.078c0.003,0.236,0.007,0.301-0.254,0.452
		c-0.263,0.151-0.236,0.511,0.047,0.617c0.28,0.104-0.193,0.643-0.162,0.817c0.025,0.173,0.356,0.487,0.387,0.648
		c0.03,0.16-0.184,0.447,0.436,0.774c0.139,0.073,0.318,0.194,0.426,0.691c0.027,0.124,0.343,0.317,0.362,0.411
		c0.019,0.097-0.44,0.535,0.387,0.576C322.069,87.667,321.735,87.327,321.697,87.135z"/>
	<path style="fill:#21983A;" d="M339.29,93.403c0.312-0.418,0.737-0.533,1.161-1.109c0.425-0.569,1.036-1.486,1.268-1.894
		c0.243-0.396,0.585-1.074,0.699-1.341c0.11-0.257,0.489-0.437,0.443-1.178c-0.07-0.734-0.034-0.903,0.058-1.58
		c0.077-0.665-0.174-1.92-0.195-2.619l-0.06-2.442c-0.005-0.511-1.081-0.87-1.076-0.249c0.004,0.622,0.015,0.793-0.247,1.153
		c-0.256,0.36-0.232,1.228,0.042,1.562c0.282,0.347-0.263,1.535-0.296,1.919c-0.004,0.408,0.13,1.236-0.001,1.632
		c-0.123,0.391-0.503,0.768-0.585,2.033c-0.029,0.282-0.084,0.731-0.88,1.861c-0.199,0.28-0.397,0.999-0.556,1.209
		c-0.155,0.207-1.171,0.659-0.824,1.558C338.593,94.807,338.971,93.82,339.29,93.403z"/>
	<path style="fill:#21983A;" d="M279.908,25.153c-3.144-0.881-5.34-1.656-9.74-2.376c-4.541-0.772-11.419-1.232-14.281-1.284
		c-2.866-0.111-7.445-0.075-9.157-0.016c-1.715,0.052-3.447-0.176-7.428,0.333c-1.989,0.257-3.261,0.428-4.534,0.558l-4.551,0.426
		c-1.993,0.2-4.966,0.627-7.987,1.163c-3.024,0.53-6.097,1.164-8.332,1.62c-2.236,0.453-4.466,0.941-6.959,1.547l-1.924,0.48
		l-1.008,0.262l-0.517,0.135c-0.099,0.021-0.233,0.06-0.34,0.123l-0.239,0.115c-1.283,0.615-2.78,1.094-4.344,1.939
		c-0.78,0.426-1.421,0.994-1.808,1.547c-0.393,0.55-0.529,1.058-0.53,1.333c0.001,0.282,0.122,0.343,0.336,0.156
		c0.225-0.183,0.535-0.616,1.214-1.208c1.419-1.142,2.681-1.526,3.649-1.926l1.43-0.514l0.73-0.263
		c0.176-0.069,0.129-0.04,0.239-0.053l0.41-0.058c2.252-0.344,7.754-1.617,9.926-2.301c1.081-0.362,3.601-0.778,6.199-1.108
		c2.599-0.332,5.277-0.567,6.678-0.739c1.401-0.172,3.638-0.505,5.883-0.753c2.249-0.24,4.521-0.485,5.93-0.572
		c2.835-0.154,6.787-0.215,14.715-0.672c0.889-0.043,2.023-0.097,4.071-0.057c2.045,0.047,5.01,0.151,9.512,0.713
		c2.252,0.25,6.772,0.782,8.434,1.19c0.684,0.145,2.092,0.57,3.731,1.077C279.469,25.667,279.661,25.389,279.908,25.153z"/>
	<path style="fill:#21983A;" d="M270.553,34.192c0.404-0.438,0.816-0.866,1.246-1.271c-1.183-0.324-3.506-0.628-4.551-0.491
		c-0.567,0.073-1.798-0.129-3.107-0.262c-1.294-0.15-2.721-0.153-3.391-0.065c-1.38,0.147-4.343,0.84-5.699,1.075
		c-1.35,0.237-3.326,0.264-6.968,1.666c-0.802,0.351-2.1,0.686-6.271,2.102c-1.05,0.354-2.976,1.462-3.691,1.858
		c-0.363,0.188-1.283,0.515-2.185,1.112c-0.901,0.576-1.768,1.509-1.865,2.41c-0.052,0.874,0.237,0.565,0.681,0.03
		c0.45-0.553,1.277-1.344,1.931-1.775c1.31-0.856,2.377-1.101,4.333-1.901c1.97-0.808,5.081-1.695,6.393-2.011
		c1.306-0.339,3.421-0.799,4.219-0.953c0.799-0.158,1.641-0.057,3.464-0.639c1.831-0.572,2.373-0.653,4.256-0.907
		c0.95-0.108,2.353-0.403,3.758-0.495c1.427-0.099,2.917-0.03,3.995,0.09l3.387,0.421L270.553,34.192z"/>
	<path style="fill:#21983A;" d="M257.707,1.726c1.018,0.63,1.558,1.275,2.926,2.102l4.282,2.553l2.741,1.621
		c0.513,0.305,0.891,0.838,2.222,1.318c1.332,0.484,1.673,0.687,2.863,1.407c1.191,0.717,3.698,1.947,5.033,2.805
		c0.695,0.452,1.424,0.811,2.177,1.248c0.733,0.44,1.58,0.954,1.992,1.874c0.196,0.442,0.481,0.859,0.75,1.044
		c0.255,0.178,0.589,0.038,0.452-0.79c-0.186-0.816-0.522-1.274-0.77-1.626l-0.748-1.011c-0.28-0.386-0.909-0.846-1.527-1.179
		c-0.625-0.34-1.216-0.594-1.598-0.689c-0.813-0.205-2.909-2.147-3.761-2.661c-0.852-0.523-2.873-1.425-3.728-1.933
		c-0.857-0.511-1.92-1.454-4.592-2.409c-0.598-0.215-1.51-0.575-4.241-2.209c-0.684-0.408-2.185-1.002-2.693-1.315
		c-0.513-0.311-2.085-1.914-3.523-1.876C254.521,0.038,256.688,1.1,257.707,1.726z"/>
	<path style="fill:#21983A;" d="M418.701,66.918c-3.609-0.249-5.99-0.701-10.78-1.2c-4.796-0.48-11.951-1.501-14.918-2.007
		c-2.974-0.473-7.709-1.36-9.475-1.73c-1.771-0.363-3.484-0.977-7.647-1.669c-2.081-0.356-3.412-0.62-4.736-0.926
		c-1.321-0.306-2.624-0.631-4.626-1.258c-2.005-0.613-4.999-1.598-8.033-2.73c-3.037-1.125-6.12-2.37-8.35-3.307l-1.676-0.705
		l-0.847-0.354c-0.125-0.054-0.325-0.132-0.38-0.164l-0.393-0.225l-3.354-1.968c-2.363-1.353-4.99-2.92-8.457-4.203
		c-1.742-0.641-3.344-0.656-3.893-0.452c-0.28,0.096-0.31,0.227-0.025,0.37c0.285,0.141,0.886,0.295,1.872,0.561
		c1.979,0.553,3.202,1.124,4.203,1.611c0.999,0.499,1.765,0.968,2.752,1.651c0.991,0.681,2.766,1.785,4.589,2.866l1.369,0.788
		l0.339,0.187c0.129,0.066,0.174,0.106,0.425,0.224l0.704,0.271c0.883,0.332,1.668,0.609,2.251,0.781
		c1.168,0.344,3.643,1.473,6.204,2.626c2.556,1.156,5.217,2.308,6.661,2.809c1.439,0.509,3.783,1.224,6.163,1.807l6.22,1.43
		c2.947,0.685,7.037,1.957,15.491,2.898c1.894,0.172,4.807,0.641,14.419,1.818c2.403,0.297,7.247,0.503,9.053,0.643
		c1.8,0.175,8.417,1.166,12.078,0.478C429.549,67.171,422.308,67.188,418.701,66.918z"/>
	<path style="fill:#21983A;" d="M388.354,43.546c-2.142,0.295-3.601,0.165-6.479,0.27c-2.883,0.11-7.236-0.051-9.051-0.165
		c-1.815-0.096-4.722-0.309-5.816-0.394c-1.087-0.083-2.178-0.437-4.732-0.36c-2.551,0.038-3.28-0.043-5.802-0.365
		c-2.522-0.306-7.591-0.905-10.409-1.638c-1.409-0.349-2.811-0.733-4.356-1.246c-1.539-0.522-3.247-1.147-5.129-2.178
		c-0.935-0.513-1.802-0.811-2.223-0.798c-0.417,0.004-0.388,0.427,0.729,1.16c1.123,0.705,1.886,1.061,2.506,1.392
		c0.622,0.324,1.113,0.604,1.76,1.003c1.29,0.839,4.888,1.913,6.393,1.971c0.751,0.05,2.351,0.491,4.009,0.912
		c1.657,0.426,3.368,0.837,4.281,0.974c1.826,0.296,5.883,0.509,7.717,0.653c1.849,0.138,4.35,0.625,9.519,0.435
		c1.155-0.08,2.939,0,8.809,0.019c1.472,0.007,4.392-0.397,5.482-0.513c0.543-0.047,1.835-0.03,3.249-0.215
		c1.412-0.178,2.944-0.574,3.894-1.248c0.942-0.674,0.375-0.651-0.665-0.418C390.997,43.031,389.423,43.396,388.354,43.546z"/>
	<path style="fill:#21983A;" d="M321.633,31.099c4.279-1.509,3.775-5.786,2.013-8.05c-1.761-2.264,4.276-2.516,5.283-0.252
		c1.008,2.264,1.258,3.019,0.755,5.283c-0.503,2.264-1.509,3.774-5.032,4.026C321.13,32.358,321.633,31.099,321.633,31.099z"/>
	<path style="fill:#21983A;" d="M375.894,378.381c-1.937,5.807,4.363,13.083,33.881,28.849c9.057,3.02,13.42,22.14,15.096,28.179
		c1.006,5.032-1.676-0.671-4.026-7.044c-2.349-6.374-7.381-17.109-10.399-18.45c-3.019-1.341-19.122-9.728-25.494-13.418
		c-6.374-3.69-8.387-3.69-11.071-8.051c-2.684-4.361-5.369-9.226-5.2-10.148C368.85,377.375,376.565,376.368,375.894,378.381z"/>
	<path style="fill:#21983A;" d="M409.105,383.078c3.69,1.006,19.122,7.715,27.842,16.772c8.723,9.058,8.723,26.167,8.387,29.856
		c-0.336,3.69-1.342,7.38-1.342,9.392c0,2.013-1.006,6.709-1.678,9.393c-0.672,2.683-3.354,5.703-3.018,3.019
		c0.335-2.684,2.011-5.367,2.347-6.709c0.337-1.341,1.343-12.076,1.343-14.424c0-2.349-1.006-15.096-2.684-19.457
		c-1.678-4.36-5.702-10.399-8.386-13.082c-2.685-2.684-13.084-7.715-17.109-9.392c-4.025-1.678-5.492-3.673-9.729-5.367
		C401.725,381.735,409.105,383.078,409.105,383.078z"/>
	<path style="fill:#21983A;" d="M432.251,386.096c-1.342-0.671-1.006-3.69,0-6.039c1.006-2.348,2.013-5.031,1.678-6.038
		c-0.336-1.007-0.672-4.697,0.334-6.038c1.009-1.342,2.015-4.026,1.678-7.38c-0.336-3.354-2.684-6.374-5.702-6.709
		c-3.02-0.336-5.703,0.67-6.711-1.342c-1.006-2.013-2.011-4.697-4.696-4.025c-2.684,0.671-3.354,2.684-6.038,2.348
		c-2.684-0.336-4.026-2.013-6.038-2.348c-2.012-0.335-4.361-1.007-7.717-1.007c-3.354,0-4.696-2.684-3.018-2.013
		c1.678,0.672,9.392-0.335,9.392-0.335s1.678,1.007,4.026,2.013c2.349,1.007,5.703,1.342,7.715-0.336
		c2.014-1.677,6.038-2.684,7.381,0.671c1.342,3.355,4.696,3.356,5.703,3.691c1.006,0.335,5.366,0.335,8.386,3.69
		c3.018,3.355,3.354,7.044,2.012,10.063c-1.34,3.02-3.018,5.032-2.682,7.045c0.334,2.013-0.336,4.361-0.336,6.374
		c0,2.013-0.336,4.361-1.342,7.044C435.272,388.109,432.251,386.096,432.251,386.096z"/>
	<path style="fill:#21983A;" d="M408.433,409.578c-1.678,1.342-2.012,3.355-4.36,4.361c-2.349,1.007-1.679,1.007-5.369,2.013
		c-3.688,1.007-3.018-2.013-5.366-0.671c-2.348,1.342-10.399,7.38-0.336,16.102c-2.012,1.007-4.697-1.006-5.703-2.684
		c-1.006-1.677-2.684-11.74,3.356-15.095c6.038-3.355,9.393-1.342,11.741-4.361c2.349-3.019,3.354-4.361,3.354-4.361
		L408.433,409.578z"/>
	<path style="fill:#21983A;" d="M414.471,426.016c0.351-1.983,0.672-4.362,2.014-1.678c1.342,2.684,0.67,8.721-4.026,9.057
		c-4.697,0.336-8.386-5.367-8.051-7.715c0.337-2.348,1.342,1.342,4.026,3.355C411.118,431.048,413.464,431.719,414.471,426.016z"/>
	<path style="fill:#21983A;" d="M399.376,425.009c1.006,3.02,3.354,10.064,7.044,9.728c3.691-0.336,2.013-3.355,2.013-3.355
		s-2.012,1.007-3.354,0.672c-1.343-0.336-2.348-3.355-4.026-6.71C399.376,421.99,399.376,425.009,399.376,425.009z"/>
	<path style="fill:#21983A;" d="M391.66,429.035c1.678,1.007,4.361,3.019,6.374,2.348c2.013-0.671,4.36,2.013,0.67,2.013
		c-3.688,0-6.372-1.006-7.38-2.013C390.318,430.377,391.66,429.035,391.66,429.035z"/>
	<path style="fill:#21983A;" d="M410.782,397.837c-4.341-2.388-8.387-6.71-2.349-3.02c6.038,3.69,16.437,12.748,19.122,25.831
		c2.684,13.083,2.684,22.811,3.69,25.494c1.006,2.684-0.001,3.02-1.678-0.335c-1.678-3.355-2.348-20.462-3.355-24.153
		C425.205,417.965,417.491,401.527,410.782,397.837z"/>
	<path style="fill:#21983A;" d="M423.193,399.514c4.696,3.02,14.088,17.78,14.425,32.875c0.336,15.095-2.349,18.115-1.007,22.14
		c1.343,4.026,2.349,8.387,0.672,9.058c-1.678,0.67-4.361-3.69-4.697-7.045c-0.335-3.355,1.009-6.373,1.343-8.721
		c0.334-2.349,4.159-13.349,1.343-21.805c-1.343-4.026-5.033-13.754-8.053-18.115C424.199,403.54,423.193,399.514,423.193,399.514z"
		/>
	<path style="fill:#21983A;" d="M374.552,311.625c1.006,3.69,2.348,6.709,4.026,8.051c-2.014,0.336-4.697-3.691-5.032-6.038
		C373.21,311.29,374.552,311.625,374.552,311.625z"/>
	<path style="fill:#21983A;" d="M371.868,313.303c0,2.683,0.337,16.102,13.084,18.785c-1.008-1.677-13.084-7.045-11.407-18.45
		L371.868,313.303z"/>
	<path style="fill:#21983A;" d="M367.507,326.05c0,0,11.071,9.392,21.134,8.722c1.342,0-1.005,2.684-3.688,2.349
		c-2.685-0.336-11.407-4.025-15.432-8.051C365.494,325.043,367.507,326.05,367.507,326.05z"/>
	<path style="fill:#21983A;" d="M373.882,336.113c0,0,7.715,7.715,25.494,4.026c3.354,0-2.684,4.026-12.077,2.349
		c-9.392-1.678-14.089-5.032-14.089-5.032L373.882,336.113z"/>
	<path style="fill:#21983A;" d="M296.223,302.064c-7.044-1.006-8.051-4.025-5.032-7.045c3.018-3.019,5.032-7.044,7.045-4.529
		c2.012,2.516,0.502,4.025,1.006,6.541C299.745,299.548,296.223,302.064,296.223,302.064z"/>
	<path style="fill:#21983A;" d="M317.357,291.498c-1.51-2.013,0-3.02,0-5.032c0-2.012,0-4.025,3.523-5.032
		c3.521-1.005,4.529-2.012,7.044,2.013c2.517,4.026,0.503,7.045-2.011,8.554C323.396,293.511,317.357,291.498,317.357,291.498z"/>
	<path style="fill:#21983A;" d="M337.484,292.001c-2.012-2.013,0-3.523,1.006-5.535c1.007-2.012,2.517-4.025,2.517-6.038
		c0-2.013,6.038-6.038,7.045-2.013c1.006,4.026-1.007,5.535-2.517,8.051C344.026,288.982,337.484,292.001,337.484,292.001z"/>
	<path style="fill:#21983A;" d="M359.121,293.007c-2.517-0.503-3.018-3.019,0-7.045c3.019-4.026,4.529-7.044,7.045-6.038
		c2.515,1.007,4.024,5.032,1.006,8.554C364.152,292.001,359.121,293.007,359.121,293.007z"/>
	<path style="fill:#21983A;" d="M378.241,298.039c-4.149,0-2.012-5.032,1.511-7.548c3.522-2.516,3.522-3.522,5.535-0.503
		C387.299,293.007,379.752,298.039,378.241,298.039z"/>
	<path style="fill:#21983A;" d="M388.809,307.6c-3.476,1.158-3.02-3.523,0-4.026C391.827,303.071,390.318,307.097,388.809,307.6z"/>
	<path style="fill:#21983A;" d="M212.191,337.79c6.49,1.298,14.089,1.51,10.566,4.529c-3.521,3.02-3.018,3.02-9.559,3.523
		c-6.542,0.503-9.057,3.019-9.057,0.503C204.141,343.829,209.676,337.287,212.191,337.79z"/>
	<path style="fill:#21983A;" d="M198.102,361.943c-6.038,0.503-6.541-3.522-1.006-4.529c5.535-1.006,12.075-0.503,13.083,1.51
		C211.185,360.937,198.102,361.943,198.102,361.943z"/>
	<path style="fill:#21983A;" d="M187.535,375.529c0.503-4.026,4.025-6.541,7.548-4.026c3.521,2.517,3.018,8.554,0,7.045
		C192.064,377.039,187.535,375.529,187.535,375.529z"/>
	<path style="fill:#21983A;" d="M184.516,392.638c-6.541,0-6.036-5.032-0.503-5.535
		C189.548,386.599,184.516,392.638,184.516,392.638z"/>
	<path style="fill:#21983A;" d="M277.102,320.683c-3.514-1.758-2.517-6.038,1.006-7.044
		C281.631,312.631,280.122,322.192,277.102,320.683z"/>
	<path style="fill:#21983A;" d="M268.548,303.071c-4.026-2.013-4.529-4.026,0.503-5.032
		C274.083,297.033,268.548,303.071,268.548,303.071z"/>
	<path style="fill:#21983A;" d="M263.516,281.433c-3.335-1.429-4.026-3.521-2.516-5.534c1.509-2.013,1.006-5.033,5.032-5.033
		s6.543,1.007,6.543,4.026C272.575,277.912,267.037,282.944,263.516,281.433z"/>
	<path style="fill:#21983A;" d="M245.905,244.199c-3.618-0.259-6.039-6.038-4.026-8.554c2.012-2.516,1.509-4.529,6.038-5.535
		c4.529-1.006,4.529-1.006,6.039,2.013C255.465,235.141,252.949,244.702,245.905,244.199z"/>
	<path style="fill:#21983A;" d="M265.025,254.262c-3.613-0.329-2.012-7.044,3.02-5.032S270.56,254.765,265.025,254.262z"/>
	<path style="fill:#21983A;" d="M214.204,193.88c5.535,0,11.069-1.51,10.566,3.523c-0.503,5.032-0.503,8.554,1.006,12.076
		c1.509,3.523,1.509,9.057-1.006,11.573c-2.515,2.516-6.542,3.522-6.038,6.038c0.503,2.516-1.006,5.032,2.515,9.057
		c3.523,4.026,2.013,8.051,3.02,9.56c1.006,1.51,2.012,5.032,4.025,7.548c2.012,2.516,1.008,5.535,1.008,7.044
		c0,1.509,1.005,12.579,5.533,15.095c4.529,2.517,6.542,9.058,6.542,12.58c0,3.523,6.541,8.554,8.051,10.567
		c1.51,2.013,1.006,8.554,3.018,10.567c2.013,2.012,3.019,2.012,5.031,4.529c2.014,2.516,5.032,8.051,5.536,10.566
		c0.503,2.516,4.024,8.051,2.012,10.567c-2.012,2.516-12.077-16.605-14.592-19.121c-2.516-2.516-7.045-4.529-7.045-8.051
		c0-3.523,0-7.044-6.038-10.064c-6.038-3.019-6.038-3.019-7.548-5.535c-1.509-2.516-6.038-4.529-8.554-8.554
		c-2.515-4.025-3.521-9.56-3.521-9.56s-2.013-5.535-3.02-8.554c-1.007-3.019-4.529-4.026-5.032-8.554
		c-0.505-4.529-1.006-7.548,0.503-8.051c1.509-0.504,0.503-3.523,0.503-5.535c0-2.013-4.026-4.026-4.026-4.026s0-3.019-1.006-7.044
		c-1.007-4.026-3.019-13.586-2.013-15.599c1.006-2.013,2.013-4.026,2.013-6.542c0-2.516-1.509-5.535-0.503-8.05
		c1.006-2.516,0.503,0.503,3.523-6.038C211.688,189.351,214.204,193.88,214.204,193.88z"/>
	<path style="fill:#21983A;" d="M235.841,144.065c5.747,1.915,7.044-2.013,7.547-5.032c0.503-3.019,1.006-8.554,2.516-10.064
		c1.509-1.51,2.012-2.516,4.026-5.535c2.012-3.02,5.535-2.517,2.012-3.02c-3.523-0.503-4.529-0.503-7.044,3.02
		c-2.517,3.521-3.523,7.044-5.536,9.56C237.35,135.511,232.822,143.058,235.841,144.065z"/>
	<path style="fill:#21983A;" d="M279.114,108.842c2.517,2.516,4.026,0.503,7.548,1.007c3.522,0.503,6.541-2.013,9.057-2.517
		c2.517-0.503,3.522-3.522,6.541-2.516c3.02,1.007,4.529-3.522,2.517-4.529c-2.012-1.006-2.517-1.509-6.039,0.503
		c-3.521,2.013-5.03,2.516-9.559,3.523C284.65,105.319,279.114,108.842,279.114,108.842z"/>
	<path style="fill:#21983A;" d="M246.911,111.861c3.558,0,5.032-5.032,8.051-5.535c3.018-0.503,7.044-4.026,4.026-4.026
		c-3.02,0-6.542-0.503-8.554,2.516C248.42,107.836,243.388,111.861,246.911,111.861z"/>
	<path style="fill:#21983A;" d="M207.159,149.096c2.517-4.026,5.032-12.076,7.045-7.548c2.012,4.529-3.02,13.586-3.523,15.095
		c-0.503,1.51-5.535,13.586-6.541,16.102c-1.007,2.516-2.516,4.529-5.033,7.045c-2.515,2.516-4.529,5.535-4.529,7.548
		c0,2.013-1.509,3.523-1.509,6.542s0.503,6.541,0.503,10.567s-4.529,7.548-4.529,10.566c0,3.02-2.517,8.051-0.503,10.567
		c2.013,2.516-2.515-1.006,1.509,10.064c4.025,11.07,2.516,14.592,3.522,18.618c1.006,4.026,0.503,4.529,1.006,9.057
		c0.504,4.529-0.503,4.529,2.014,7.044c2.515,2.516,3.521,8.554,9.057,14.09c5.535,5.535,7.548,3.522,8.05,8.554
		c0.505,5.032-4.024,4.025,1.51,7.044c5.535,3.02,4.529,8.554,10.063,11.07c5.535,2.516,9.057,8.554,4.529,7.548
		c-4.529-1.007-19.121-14.593-20.631-17.612c-1.508-3.019-2.515-2.013-3.521-4.026c-1.007-2.013-3.019-4.529-5.536-6.541
		c-2.515-2.013-6.038-4.529-6.541-7.045c-0.503-2.516-2.012-6.038-2.516-7.547c-0.502-1.51-2.515-3.02-2.515-4.529
		c0-1.51,0.503-6.541,0.503-8.051s-2.517-6.038-2.517-9.057c0-3.019-2.012-5.535-2.012-8.051c0-2.516-4.529-9.057-4.529-12.579
		c0-3.523,0-9.057-0.503-14.089c-0.503-5.032,0-9.058,0.503-12.077c0.503-3.019,0.503-4.026,1.51-6.038
		c1.006-2.012,3.521-7.547,4.529-10.063c1.006-2.516,7.044-16.605,10.063-20.127c3.018-3.523,5.535-10.064,6.038-11.573
		C202.63,158.154,207.159,149.096,207.159,149.096z"/>
	<path style="fill:#21983A;" d="M191.057,133.498c3.861,2.573,10.065,0.503,8.556-3.522c-1.51-4.026-9.057-4.529-9.057-4.529
		S189.548,132.492,191.057,133.498z"/>
	<path style="fill:#21983A;" d="M193.573,113.37c-2.441,1.628-1.509-8.554,4.026-6.541c5.535,2.013,8.051,5.032,6.038,7.044
		C201.624,115.886,195.084,112.364,193.573,113.37z"/>
	<path style="fill:#21983A;" d="M200.114,96.262c4.501-1.125,4.027,1.51,3.523,3.02C203.133,100.79,198.102,96.766,200.114,96.262z"
		/>
	<path style="fill:#21983A;" d="M212.694,86.701c-0.503,3.02,2.013,8.051,3.523,3.02c1.51-5.032,2.516-7.548,1.006-7.045
		C215.713,83.18,212.694,86.701,212.694,86.701z"/>
	<path style="fill:#21983A;" d="M298.236,226.083c1.647-1.154,4.529-5.032,3.018-7.045c-1.509-2.013-5.032-3.019-5.535-1.509
		c-0.503,1.509-2.517,3.019-2.517,6.038C293.203,226.587,293.203,229.606,298.236,226.083z"/>
	<path style="fill:#21983A;" d="M308.803,230.612c-1.779-1.779-2.517-6.038,1.006-8.554c3.522-2.516,5.032-1.51,5.032,0.503
		C314.84,224.574,311.318,233.128,308.803,230.612z"/>
	<path style="fill:#21983A;" d="M323.898,231.619c-2.126,0.193-1.006-6.542,1.51-8.051
		C327.923,222.058,329.432,231.116,323.898,231.619z"/>
</g>
</svg>
