<?xml version="1.0" encoding="iso-8859-1"?>
<!-- Generator: Adobe Illustrator 18.1.1, SVG Export Plug-In . SVG Version: 6.00 Build 0)  -->
<svg version="1.1" id="_x31_1" xmlns="http://www.w3.org/2000/svg" xmlns:xlink="http://www.w3.org/1999/xlink" x="0px" y="0px"
	 viewBox="0 0 512 512" style="enable-background:new 0 0 512 512;" xml:space="preserve">
<g>
	<path style="fill:#21983A;" d="M190.492,381.346c-7.688-2.122-8.551-3.29-1.316-3.945
		C196.41,376.743,190.492,381.346,190.492,381.346z"/>
	<path style="fill:#21983A;" d="M218.116,378.058c5.918-0.657,9.208,1.314,3.947,2.631
		C216.799,382.004,218.116,378.058,218.116,378.058z"/>
	<path style="fill:#21983A;" d="M185.231,362.931c5.15-4.295,7.892,0.659,11.837-0.657c3.947-1.316,0,6.576,0,6.576
		s-4.6,1.314-9.206,0.657C183.257,368.85,181.284,366.221,185.231,362.931z"/>
	<path style="fill:#21983A;" d="M180.627,346.489c7.893,0,9.863-3.291,14.469-0.659c4.604,2.632,2.629,3.947,0,5.92
		c-2.631,1.973-9.208,3.289-9.208,3.289S174.051,346.489,180.627,346.489z"/>
	<path style="fill:#21983A;" d="M224.691,362.931c-6.576,0-9.206,4.604-2.629,5.919c6.576,1.316,14.467,3.289,14.467-0.657
		C236.53,364.248,228.638,362.931,224.691,362.931z"/>
	<path style="fill:#21983A;" d="M231.926,343.201c-4.788,0-12.496,2.629-12.496,2.629s-4.602,5.261,1.973,5.92
		c6.577,0.659,9.21,3.949,11.838,0.659c2.631-3.29,7.89-1.318,7.233-4.606C239.817,344.516,239.162,343.201,231.926,343.201z"/>
	<path style="fill:#21983A;" d="M297.694,108.406l-7.583,5.738c1.007,3.47,2.983,7.413,6.268,4.784
		C299.667,116.298,297.694,108.406,297.694,108.406z"/>
	<path style="fill:#21983A;" d="M283.227,118.928c-6.577-0.659-6.577,4.604-6.577,4.604s0,5.261,7.234,5.92
		C291.116,130.112,283.227,122.218,283.227,118.928z"/>
	<path style="fill:#21983A;" d="M167.308,286.968c-3.052,1.221-3.29-5.261,0.657-5.918
		C171.912,280.392,170.597,285.652,167.308,286.968z"/>
	<path style="fill:#21983A;" d="M165.993,311.795c-5.92-1.314-3.945-3.947-3.288-8.549c0.656-4.602,1.972-3.948,5.259,2.631
		C171.255,312.454,165.993,311.795,165.993,311.795z"/>
	<path style="fill:#21983A;" d="M151.853,274.306c-1.664-4.438-4.602-5.918-1.972-10.522c2.629-4.602,8.547-4.602,8.547,1.318
		c0,5.919,2.632,11.837,2.632,11.837S153.826,279.567,151.853,274.306z"/>
	<path style="fill:#21983A;" d="M166.158,253.59c-4.692-1.759-8.549-5.259-3.947-10.522c4.604-5.263,3.288-4.606,6.577,2.629
		C172.078,252.933,171.421,255.563,166.158,253.59z"/>
	<path style="fill:#21983A;" d="M153.003,249.15c-3.381,3.868-5.918-5.917-1.972-9.206
		C154.978,236.655,157.607,243.889,153.003,249.15z"/>
	<path style="fill:#21983A;" d="M158.923,218.24c0,0-5.92-5.265,0-8.551c5.92-3.288,5.92,5.261,5.92,5.261
		S166.815,222.187,158.923,218.24z"/>
	<path style="fill:#21983A;" d="M164.843,197.194c-1.791-5.367-4.604-8.549,1.314-11.839c5.92-3.29,3.288,7.236,3.288,7.236
		S166.158,201.139,164.843,197.194z"/>
	<g>
		<path style="fill:#21983A;" d="M240.817,73.198c1.479-0.988,3.945-4.44,7.399-2.466c3.452,1.972-1.48,3.945-1.48,3.945
			L240.817,73.198z"/>
		<path style="fill:#21983A;" d="M239.337,93.421c6.906-1.48,20.716-12.824,23.677-12.331c2.959,0.493-4.934,3.945-8.879,6.906
			c-3.947,2.959-8.385,6.413-14.305,7.892C233.912,97.368,239.337,93.421,239.337,93.421z"/>
		<path style="fill:#21983A;" d="M212.208,106.245c-6.908,3.454-5.425,16.278,4.438,17.759c4.44,0.493,0-2.466,0-2.466
			s-8.385-1.481-5.425-8.387C213.687,108.219,212.208,106.245,212.208,106.245z"/>
		<path style="fill:#21983A;" d="M286.197,68.263c-6.411,0-4.933-3.452-0.986-3.452C289.157,64.811,286.197,68.263,286.197,68.263z"
			/>
		<path style="fill:#21983A;" d="M246.079,57.246c-2.633-1.184-4.44-3.699-1.973-4.933c2.466-1.232,1.973-1.727,3.698-0.246
			C249.533,53.548,251.011,59.466,246.079,57.246z"/>
		<path style="fill:#21983A;" d="M205.138,77.225c-2.972-0.425-2.713-4.686-2.713-4.686s1.232-2.715,3.7-2.466
			c2.465,0.246,4.191,1.725,3.699,3.945C209.329,76.238,208.59,77.718,205.138,77.225z"/>
		<path style="fill:#21983A;" d="M188.883,394.129c1.38,5.176,1.543,8.79,3.829,15.65c1.113,3.52,2.041,5.451,2.623,7.036
			c0.618,1.596,1.059,2.857,1.909,4.89c1.795,4.163,1.555,3.273,3.17,9.258c1.33,5.945,0.063-0.003,1.337,4.111
			c1.145,4.061,2.197,5.554,2.243,5.608c0.845-1.406,1.432-3.115,1.904-4.826c-0.998-3.313-2.357-6.37-3.807-9.37
			c0.036-0.013-3.025-8.585-4.447-11.762c-0.339-0.798-0.655-1.709-0.909-2.666c-0.266-0.955-0.427-1.922-0.595-3.004
			c-0.33-2.077-0.639-4.097-0.952-5.404c-0.62-2.625-3.113-7.583-4.311-11.919C189.631,387.387,187.474,388.991,188.883,394.129z"/>
		<path style="fill:#21983A;" d="M213.749,496.707c1.43-5.734,4.309-11.562,6.324-14.219c2.161-2.59,2.963-7.722-1.677-8.242
			c-3.69-0.452-4.766,3.525-4.4,5.895c0.532,2.318-1.788,12.342-2.998,16.55c-1.375,4.159-1.939,8.881-0.982,12.949
			c0.47,2.082,2.622,2.732,3.934,2.163c1.364-0.593,1.991-1.863,0.732-3.92c-1.221-2.191-1.531-3.783-1.647-5.315
			C212.956,501.013,213.108,499.425,213.749,496.707z"/>
		<path style="fill:#21983A;" d="M224.327,491.089c3.604-6.058,8.953-11.433,12.23-12.839c1.629-0.748,3.284-1.873,4.233-3.131
			c0.912-1.255,1.313-2.752,0.293-4.82c-0.855-1.691,1.618-3.584-0.197-2.716c-1.83,0.846-7.794,6.808-8.386,8.14
			c-0.62,1.336-2.943,1.95-5.084,5.368c-2.179,3.402-4.307,7.118-5.758,9.237c-2.939,4.222-5.411,8.854-6.749,13.326
			c-0.688,2.288-2.575,5.883-1.152,6.104c1.473,0.214,4.62-2.604,4.686-5.672c0.162-3.161,2.066-4.793,2.681-6.588
			C221.773,495.7,222.611,493.953,224.327,491.089z"/>
		<path style="fill:#21983A;" d="M202.98,491.537c5.242-3.779,11.406-7.034,14.828-8.176c1.727-0.527,3.632-1.755,4.611-3.352
			c0.996-1.602,0.925-3.422-0.907-4.813c-1.498-1.15-2.947-0.98-4.225-0.32c-1.28,0.666-2.459,1.898-3.022,3.016
			c-0.991,2.298-9.474,9.353-13.412,11.878c-3.925,2.507-7.936,5.431-10.076,9.688c-0.521,1.064-0.43,2.22,0.018,3.005
			c0.445,0.8,1.2,1.24,1.911,1.331c0.718,0.096,1.407-0.118,1.88-0.536c0.489-0.436,0.734-1.027,0.92-2.209
			c0.473-2.436,1.552-3.965,2.593-5.247C199.209,494.51,200.52,493.353,202.98,491.537z"/>
		<path style="fill:#21983A;" d="M203.752,473.169c2.984-2.518,5.402-3.824,7.165-4.502c1.775-0.663,2.963-0.706,3.817-0.413
			c0.846,0.291,1.282,1.061,1.011,2.097c-0.261,1.02-1.172,2.165-2.602,2.958c-5.731,3.077-14.456,6.754-17.635,10.061
			c-3.265,3.3-4.315,7.969-5.427,12.083c-0.277,1.039,2.563,2.163,2.414,3.609c-0.168,1.441-0.198,2.963-0.209,4.188
			c0.025,2.432-0.305,3.811-1.872,0.834c-1.416-3.027-2.257-5.42-2.591-8.165c-0.289-2.706-0.036-5.959,2.113-9.811
			c2.146-3.867,5.743-7.22,8.658-9.415C201.523,474.475,203.761,473.187,203.752,473.169z"/>
		<path style="fill:#21983A;" d="M213.933,423.063c-6.134,3.206-6.393,7.381-4.674,8.524c1.707,1.116-0.436,7.824,0.82,13.089
			c0.618,2.607,0.413,4.692,0.143,6.354c-0.256,1.836-0.54,2.863-0.214,3.588c0.343,0.689,0.566,2,0.404,2.998
			c-0.129,0.995-0.748,1.723-1.206,2.145c-0.422,0.409-1.338,1.241-2.298,1.914l-1.845,1.289c-0.016-0.003-3.408,2.506-5.156,3.616
			c-1.811,1.066-8.286,6.629-12.79,11.528c-2.579,2.743-3.697,4.759-4.338,6.252c-0.623,1.509-0.788,2.538-0.97,3.777
			c-0.207,1.573,0.257,2.481,0.802,2.343c0.598-0.138,1.147-1.216,2.259-3.604c1.155-2.398,2.616-4.1,3.911-5.431
			c1.307-1.338,2.5-2.315,3.534-3.293c2.095-1.934,3.361-2.943,5.716-4.661c2.411-1.659,2.638-1.902,6.899-4.393
			c2.622-1.466,2.44-1.554,4.081-3.081c0.888-0.805,1.657-1.277,2.572-1.963c0.85-0.698,2.139-1.677,2.85-3.97
			c0.563-2.263,0.407-3.475,0.518-4.515c0.054-1.025,0.127-1.861,0.027-2.922c-0.184-1.897-0.048-2.489-0.166-7.513
			c-0.059-5.052-0.452-9.158-0.327-11.721c0.13-2.559-0.33-4.65,0.359-6.156C215.533,425.755,213.933,423.063,213.933,423.063z"/>
		<path style="fill:#21983A;" d="M239.717,430.739c0.743-3.852,1.434-7.852,1.777-11.806c0.173-1.97,0.268-3.943,0.314-5.831
			c0.045-1.716,0.33-3.266,0.857-4.763c0.52-1.495,1.264-3.052,1.882-4.661c0.634-1.629,1.118-3.147,1.525-4.765
			c0.607-3.136,1.014-5.434,1.518-7.388c0.963-3.811,1.688-8.556,1.85-12.176c0.077-1.816,0.016-3.327-0.284-4.402
			c-0.15-0.536-0.359-0.986-0.646-1.379c-0.284-0.396-0.624-0.798-1.157-1.034c-0.871-0.427-2.147,0.341-3.056,1.595
			c-0.943,1.261-1.663,3.018-2.172,4.918c-1.016,3.811-1.216,8.231-0.93,11.035c0.136,1.391,0.211,4.107,0.139,7.386
			c-0.018,1.388-0.345,3.245-0.807,5.024c-0.455,1.814-1.238,3.827-1.654,6.124c-0.464,2.286-0.262,4.681-0.218,6.713
			c0.032,2.114-0.039,4.204-0.216,6.197c-0.346,3.984-1.046,7.579-1.652,10.249c-0.439,1.681-0.773,3.706-0.725,5.535
			c0.009,1.866,0.205,3.704,0.525,5.5c0.32,1.795,0.75,3.557,1.311,5.274c0.584,1.723,1.186,3.377,2.29,5.056l0.348,0.457
			c0.184,0.114,0.05,0.379,0.091,0.553l-0.041,3.898c-0.034,1.377-0.089,2.72-0.175,4.018c-0.252,4.6,0.602,7.788,1.586,8.927
			c0.513,0.577,1.539,0.212,2.352-1.445c0.802-1.623,1.286-4.327,1.053-8.167c-0.089-1.53-0.207-2.916-0.329-4.197l-0.4-3.981
			c-0.225-0.445-0.293-0.92-0.591-1.236c-0.256-0.359-0.536-0.734-0.752-1.132c-0.904-1.077-1.631-2.581-2.204-3.943
			c-0.579-1.402-1.036-2.827-1.414-4.372c-0.368-1.545-0.672-3.225-0.77-5.131c-0.045-0.95-0.03-1.956,0.098-2.986
			C239.176,433.437,239.48,432.055,239.717,430.739z"/>
		<path style="fill:#21983A;" d="M141.952,190.281c2.822-2.682,5.695-5.356,8.62-7.763c2.936-2.398,5.861-4.561,8.867-5.9
			c6.322-2.89,12.035-5.47,15.742-7.56c1.865-1.018,3.907-2.439,5.661-4.425c1.748-1.943,3.17-4.64,3.379-7.333
			c0.23-2.698-0.713-4.897-1.764-5.911c-1.066-1.061-2.157-1.154-3.095-0.486c-0.789,0.547-1.079,1.543-1.361,2.575
			c-0.273,1.05-0.557,2.054-1.052,3.093c-0.884,2.075-3.363,4.856-5.043,6.808c-0.805,0.986-2.661,2.672-5.361,4.541
			c-2.686,1.895-6.184,3.886-9.903,6.115c-3.82,2.42-7.045,5.465-10.04,8.227c-2.965,2.782-5.583,5.342-7.629,7.152
			c-2.047,1.816-4.086,3.633-6.143,5.352c-2.039,1.67-4.243,3.377-6.211,5.156c-4,3.538-7.597,7.165-10.995,10.324
			c-3.367,3.167-4.909,6.556-4.342,7.983c0.525,1.402,3.543,0.743,8.436-5.047c4.797-5.772,7.474-9.019,10.501-11.976
			c1.493-1.504,3.082-2.815,5.027-4.599C137.141,194.871,139.27,192.835,141.952,190.281z"/>
		<path style="fill:#21983A;" d="M190.665,125.165c-1.075,1.711-2.18,3.434-3.288,5.088l-1.652,2.404
			c-0.673,0.936-1.12,1.759-1.611,2.613c-1.893,3.388-3.125,6.46-4.254,8.254c-1.123,1.836-1.957,4.127-2.043,6.042
			c-0.08,1.911,0.561,3.609,2.766,4.299c1.797,0.559,3.34-0.705,4.286-2.547c0.959-1.843,1.304-4.12,1.134-5.611
			c-0.136-1.506,0.155-5.483,1.618-9.439c0.175-0.475,0.416-1.03,0.58-1.434l0.775-1.47l1.552-2.866
			c1.018-1.827,2.002-3.441,2.838-4.584c3.336-4.568,6.704-9.142,9.781-12.778c1.523-1.816,1.393-3.986,0.62-5.218
			c-0.752-1.282-3.099-0.918-4.902,2.647C195.353,117.655,194.81,118.661,190.665,125.165z"/>
		<path style="fill:#21983A;" d="M176.641,126.308c-2.091,1.655-3.988,3.406-5.947,4.388c-1.943,1.016-3.806,1.002-5.486,0.243
			c-3.716-1.607-5.582-4.824-5.661-6.69c-0.084-0.957-0.087-1.902-0.027-2.79l0.023-0.334l0.023-0.387l0.003-0.256l0.016-0.711
			c0.02-0.521,0.046-1.134,0.032-1.773c-0.013-1.284-0.25-2.65-0.857-3.531c-0.605-0.9-1.511-1.288-2.654-1.154
			c-0.943,0.109-1.643,0.582-2.238,1.227c-0.588,0.662-1.084,1.518-1.502,2.791c-0.2,0.636-0.377,1.382-0.457,2.241
			c-0.02,0.22-0.039,0.429-0.043,0.659l-0.004,0.354c-0.021,0.441-0.007,0.879,0.027,1.305c0.134,1.723,0.739,3.227,1.4,4.217
			c0.654,0.996,1.849,2.881,3.833,4.588c1.982,1.72,4.636,3.247,7.778,3.907c1.605,0.314,3.352,0.221,4.879-0.3
			c1.532-0.516,2.813-1.352,3.92-2.188c2.198-1.7,3.918-3.368,5.402-4.316c5.995-3.974,12.124-7.844,17.525-10.505
			c2.686-1.343,3.874-3.368,4.054-4.838c0.08-0.736-0.545-1.379-1.859-1.375c-1.286-0.004-3.054,0.621-5.117,2.15
			c-4.079,3.079-6.211,4.95-8.504,6.686L176.641,126.308z"/>
		<path style="fill:#21983A;" d="M149.667,155.56c1.357-2.325,1.798-4.865,1.796-7.463c-0.014-5.386-1.813-11.174-1.798-16.987
			c0-2.95,0.445-5.891,1.773-8.817c1.331-2.927,3.55-5.865,7.192-8.777l-1.234-1.541c-3.84,3.07-6.286,6.266-7.754,9.503
			c-1.471,3.234-1.954,6.486-1.954,9.633c0.014,6.195,1.818,12.046,1.804,16.987c-0.004,2.388-0.4,4.529-1.529,6.47L149.667,155.56z
			"/>
		<path style="fill:#21983A;" d="M284.112,152.28c6.058-3.648,11.024-6.845,16.253-10.69c5.208-3.859,10.674-8.392,17.244-15.121
			l7.902-8.218l5.174-5.308l0.373-0.179l0.757-0.296c0.534-0.227,1.048-0.466,1.539-0.729c0.989-0.521,1.916-1.102,2.841-1.743
			c1.854-1.282,3.697-2.818,5.874-4.757c2.173-1.934,3.681-3.211,4.957-4.098c0.318-0.222,0.622-0.422,0.913-0.595l0.639-0.438
			l0.432-0.334l1.706-1.286c2.332-1.763,5.243-3.704,11.787-8.76c6.49-5.163,6.406-5.324,5.927-4.941
			c-0.516,0.316-1.461,1.064,2.775-3.143c4.199-4.279,6.481-7.997,7.595-10.547c1.12-2.566,1.179-3.884,1.202-3.87
			c-2.682,3.224-5.852,5.592-9.121,7.743c-5.306,6.406-11.676,12.11-18.121,17.675l-3.031,2.266l-3.272,2.447
			c-0.198,0.152-0.136,0.102-0.323,0.211l-0.554,0.338c-0.368,0.227-0.73,0.47-1.089,0.721c-0.718,0.504-1.425,1.045-2.129,1.604
			c-2.804,2.236-5.586,4.781-8.301,6.685c-1.348,0.952-2.675,1.736-3.881,2.241l-0.445,0.178l-0.9,0.32
			c-0.279,0.114-0.438,0.405-0.659,0.598l-0.495,0.514l-1.315,1.366c-3.206,3.352-7.427,7.329-11.553,10.947
			c-4.123,3.631-8.156,6.886-10.806,9.092c-2.647,2.211-6.417,5.77-10.88,9.435c-4.449,3.674-9.606,7.442-14.66,10.26
			c-5.049,2.793-6.81,4.47-5.665,4.811C273.927,156.978,278.026,155.912,284.112,152.28z"/>
		<path style="fill:#21983A;" d="M399.336,48.451c-0.498,3.776-0.952,8.327-1.802,13.03c-0.211,1.175-0.45,2.357-0.718,3.54
			l-0.207,0.884l-0.337,1.329c0,0.616-0.652,0.855-1.023,1.257l-0.507,0.431l-0.4,0.304c-2.157,1.62-4.533,2.593-6.722,3.274
			c-4.413,1.28-7.42,1.509-9.258,1.691c-1.831,0.146-2.486-0.022-1.868-0.247c0.618-0.218,1.416-0.923,2.886-1.784
			c1.459-0.879,3.618-1.847,6.652-2.863c1.513-0.52,2.888-1.111,4.072-1.793c0.593-0.336,1.132-0.702,1.625-1.08
			c0.236-0.198,0.486-0.373,0.698-0.579c0.197-0.189,0.184-0.198,0.273-0.3c0.021-0.155,0-0.159,0.048-0.416l0.155-0.852
			l0.239-1.586c0.13-1.004,0.216-1.889,0.263-2.645c0.086-1.514,0.257-1.914,0.593-3.061c0.325-1.143,0.868-3.029,1.298-7.551
			c0.405-4.516,0.902-7.201,1.464-8.451c0.554-1.249,1.141-1.043,1.327,0.289C398.488,43.911,399.343,48.44,399.336,48.451z"/>
		<path style="fill:#21983A;" d="M413.021,19.066c0.639-0.872,1.309-1.74,1.99-2.566l4.741-5.677l-1.909,0.984
			c0.337,0.016,0.904-0.137,1.03-0.206l0.457-0.227l0.455-0.307c0.248-0.186,0.405-0.323,0.566-0.461l0.816-0.754l1.309-1.259
			c0.78-0.745,1.398-1.277,1.791-1.455c1.091-0.502,2.016-1.441,2.172-2.527c0.08-0.545-0.032-1.123-0.4-1.722
			c-0.425-0.536-0.948-1.268-1.789-2.05c-0.663-0.672-1.493-0.818-2.129-0.839c-0.65-0.012-1.202,0.179-1.647,0.482
			c-0.882,0.612-1.336,1.686-1.3,2.6c0.011,0.305-0.284,1.05-0.757,1.997c-0.236,0.468-0.52,0.997-0.829,1.518l-0.461,0.743
			l-0.178,0.273l-0.014,0.041l0.18,0.221l0.25,0.373c0.304,0.454,0.491,0.813,0.473,1.034l0.339-4.577l-1.966,3.588l-3.377,6.168
			c-0.736,1.384-1.527,2.625-2.223,3.354c-0.502,0.541-3.377,4.257-6.633,8.958c-3.279,4.681-6.774,10.465-8.84,14.776
			c-2.052,4.229-2.952,6.793-3.545,8.37l-1.064,2.811c-0.918,2.582,5.313,4.645,4.899,0.907c-0.073-0.925-0.132-1.623,0.132-3.088
			c0.284-1.459,0.843-3.718,2.561-7.613c1.804-4.168,5.09-9.824,8.272-14.512C409.55,23.726,412.432,19.89,413.021,19.066z"/>
		<path style="fill:#21983A;" d="M380.545,34.096l0.206,0.325l0.339,0.314c0.207,0.134,0.482,0.218,0.939,0.186
			c0.913-0.061,2.2-0.643,3.4-1.429c2.441-1.6,4.84-3.94,7.018-6.427l0.85-1.018l0.439-0.423l0.268-0.227l0.486-0.416l1.943-1.702
			l3.865-3.49c2.575-2.331,5.154-4.636,7.772-6.692c0.695-0.543,1.222-0.932,1.736-1.382c0.52-0.448,1.018-0.914,1.491-1.379
			l2.652-2.65c1.641-1.638,3.115-2.898,4.361-3.659c1.245-0.777,2.229-1.032,2.693-1.064c0.475-0.034,0.459,0.08-0.004,0.275
			c-0.939,0.429-1.952,1.611-3.286,3.627c-0.682,1.011-1.459,2.243-2.502,3.704c-1.047,1.432-2.347,3.189-4.377,4.843
			c-3.725,3.083-6.875,6.165-9.595,8.774l-3.731,3.588l-0.825,0.779l-0.275,0.275l-0.023,0.054l-0.148,0.203l-1.189,1.557
			c-1.493,1.87-2.068,2.275-3.563,3.431c-0.763,0.566-1.743,1.331-3.397,2.391c-0.837,0.52-1.832,1.128-3.22,1.679
			c-0.7,0.266-1.502,0.523-2.502,0.614c-0.975,0.093-2.268-0.05-3.404-0.777c-0.573-0.37-0.961-0.756-1.355-1.227
			c-0.4-0.48-0.668-1.056-0.848-1.609c-0.345-1.134-0.257-2.17-0.07-3.02c0.404-1.709,1.177-2.873,1.897-3.807
			c1.479-1.841,2.954-2.704,3.986-3.036c1.065-0.323,1.588-0.054,1.527,0.186c-0.043,0.261-0.461,0.548-1.139,1.152
			c-1.373,1.191-2.649,3.525-2.888,5.291c-0.132,0.881,0.003,1.539,0.173,1.829C380.415,34.037,380.553,34.086,380.545,34.096z"/>
		<path style="fill:#21983A;" d="M366.63,47.599c0.038-2.234-0.143-4.992,0.448-7.974c0.532-2.979,2.214-6.018,4.397-7.851
			c2.181-1.843,4.088-2.357,5.216-2.529c1.15-0.148,1.602,0.059,1.273,0.239c-0.638,0.413-1.32,2.345-3.824,4.643
			c-2.539,2.42-3.002,5.254-2.916,6.783c0.048,0.786-0.08,0.977-0.298,1.573c-0.196,0.595-0.543,1.6-0.416,4.106
			c0.407,5.004-1.193,6.363-1.854,4.911C368.028,50.089,366.621,47.621,366.63,47.599z"/>
		<path style="fill:#21983A;" d="M322.36,87.154c0.239-3.218,3.682-3.572,3.697-3.586c0,0,2.634-0.632,4.395-0.904
			c1.763-0.257,3.523-1.218,4.69-1.864c1.184-0.611,6.934-4.013,8.89-5.316c2.002-1.238,6.772-5.21,7.963-6.113
			c4.056-2.972,4.961-4.493,4.967-4.483c0.016,0.013,3.27-3.352,4.759-4.679c1.509-1.305,3.888-2.72,4.432-4.05
			c0.539-1.32,1.138-0.296,2.563-1.727c1.395-1.422,4.099-1.847,3.375-0.213c-0.725,1.674-4.099,4.183-4.1,4.163
			c-0.798,1.288-1.62,2.57-2.468,3.834c-0.009,0.007-2.865-0.525-3.632,1.625c-0.779,2.175-4.002,4.729-5.002,6.193
			c-0.993,1.48-2.304,3.15-4.274,4.532c-1.966,1.388-4.247,2.918-6.263,4.211c-2.013,1.298-4.625,3.554-5.818,4.236
			c-1.165,0.732-7.176,4.029-8.415,4.608c-1.195,0.632-3.536,4.297-3.554,4.298c0,0-1.382-1.877-4.122-1.286
			C321.703,91.203,322.378,87.145,322.36,87.154z"/>
		<path style="fill:#21983A;" d="M275.851,117.314c5.177-2.022,10.871-5.8,16.668-10.012c6.133-4.249,12.569-7.788,18.284-11.294
			c5.722-3.432,9.556-5.99,11.822-7.577c2.25-1.595,3.068-2.034,2.402-1.27c-0.68,0.746-1.436,2.125-3.113,4.115
			c-1.672,1.98-4.313,4.536-8.619,7.34c-8.603,5.533-15.63,9.708-19.062,12.771c-1.848,1.523-2.473,1.832-4.122,2.757
			c-1.689,0.864-4.238,2.609-10.769,5.892c-6.636,3.191-11.203,3.491-13.199,3.343c-2.047-0.205-1.757-0.838,0.169-1.386
			c1.938-0.555,4.399-1.648,6.286-2.693C274.494,118.257,275.849,117.312,275.851,117.314z"/>
		<path style="fill:#21983A;" d="M262.541,330.679c2.111-3.756,4.191-7.631,5.983-11.558c0.898-1.961,1.721-3.936,2.457-5.901
			c0.368-0.982,0.709-1.957,1.036-2.945l0.92-2.759c1.248-3.582,2.607-6.893,3.798-9.863l3.057-7.686
			c0.413-1.043,0.805-2.174,1.145-3.359c0.179-0.588,0.323-1.195,0.47-1.807l0.143-0.639c0.075-0.257,0.078-0.536,0.075-0.813
			l0.012-1.096c-0.011-2.539-0.248-4.836-0.488-6.743c-0.259-1.922-0.498-3.408-0.898-4.559c-0.393-1.12-0.929-2.036-2.077-2.295
			c-0.918-0.209-2.052,0.579-2.865,2.131c-0.816,1.529-1.275,3.689-1.406,5.861c-0.139,2.179-0.011,4.397,0.107,6.313
			c0.112,0.048-0.086,1.321-0.15,2.15c-0.077,0.888-0.143,1.713-0.175,2.445c-0.064,1.468-0.472,4.245-1.336,7.79
			c-0.836,3.547-2.123,7.861-3.256,12.447c-1.943,9.013-6.618,17.973-9.735,23.063c-3.122,5.104-6.377,10.165-9.145,15.339
			c-2.777,5.159-5.015,10.478-6.29,15.689c-1.3,5.283,0.311,9.422,1.734,9.883c0.723,0.264,1.397-0.296,1.898-1.827
			c0.52-1.538,0.854-4.027,1.411-7.82c0.582-3.8,1.468-6.786,2.347-9.338c0.893-2.552,1.807-4.679,2.8-6.774
			C256.106,341.805,258.501,337.793,262.541,330.679z"/>
		<path style="fill:#21983A;" d="M212.905,324.389c1.291,0.625,1.861,1.747,2.27,3.186c0.398,1.38,0.463,2.791,0.455,2.788
			c0,0,0.134,1.045,0.18,2.697c0.009,0.413,0.004,0.877-0.025,1.377c-0.018,0.221-0.038,0.582-0.075,0.718
			c-0.046,0.011-0.066,0.189-0.093,0.393c-0.098,0.739-0.207,1.472-0.32,2.111c-0.454,2.557-0.321,5.595-0.266,7.626
			c0.03,1.013,0.116,4.065,0.066,7.315c-0.03,3.249-0.27,6.69-0.445,8.467c-0.171,1.813-0.457,4.931-0.409,7.967l0.111,7.036
			c-0.036,7.535,0.63,10.04,0.616,10.037c0,0,0.684,7.026,0.743,10.051c0.059,3.025-0.455,7.077,0.134,9.079
			c0.588,2.007-0.557,1.529-0.568,4.554c-0.013,3.057-1.882,5.993-2.361,3.504c-0.475-2.463,0.052-8.483,0.047-8.488l-1.24-6.499
			c0,0,2.254-2.597,1.048-5.579c-1.209-2.982-1.298-9.04-1.879-11.56c-0.584-2.523-1.166-5.563-1.073-9.153
			c0.046-1.797,0.121-3.725,0.257-5.679c0.068-0.964,0.157-1.98,0.268-2.941c0.111-0.906,0.213-1.793,0.289-2.64
			c0.363-3.409-0.104-8.336-0.125-10.306c0.077-1.95-0.323-11.933-0.455-13.967c-0.011-0.284-0.057-0.477-0.145-0.973
			c-0.036-0.336-0.062-0.307-0.113-0.479l-0.17-0.411c-0.27-0.586-0.693-1.279-1.141-1.948l-1.822-2.643
			c0,0,0.523-0.272,1.005-1.091c0.532-0.838,0.8-2.132,1.177-4.54c0.259-1.28,0.904-1.75,1.382-1.798
			c0.491-0.055,0.873,0.246,1.227,0.564C212.129,323.846,212.89,324.425,212.905,324.389z"/>
		<path style="fill:#21983A;" d="M152.965,206.431c-0.956,0.852-2.925,4.863-4.472,9.169c-1.588,4.288-2.827,8.777-3.218,10.392
			c-0.405,1.611-0.47,3.65-0.448,5.443l0.066,2.423c0.011,0.764-0.045,1.418-0.221,1.895c-0.712,1.92-0.012,4.259,0.2,6.674
			c0.498,5.717,1.67,10.881,1.395,13.296c-0.291,2.429,1.1,8.52,1.177,10.91c0.023,2.402,1.141,9.951,1.688,12.753
			c0.252,1.404,0.921,4.67,1.759,7.879c0.82,3.215,1.836,6.349,2.372,7.647c0.532,1.3,1.305,3.747,2.341,6.208l3.157,7.29
			c1.745,3.957,7.472,15.003,8.587,16.543c1.077,1.559,1.457,3.563,3.965,7.427l0.898,1.343l0.502,0.75
			c0.014,0.007,0.286,0.496,0.372,0.702l0.214,0.516c0.457,1.221,0.686,2.157,0.936,3.106c0.473,1.866,0.843,3.516,1.393,5.122
			c1.088,3.209-0.639,2.423-0.104,4.506l0.834,3.258c0,0,0.95-1.232,1.425,0.627c0.475,1.862,2.273,7.824,2.9,10.124
			c0.627,2.304-0.348,1.581,1.175,6.108c1.557,4.506,0.841,4.72,2.281,9.244c0.725,2.257,2.018,5.554,2.941,7.661
			c0.925,2.098,1.38,3.129,0.087,1.216c-2.475-3.997-3.041-4.368-4.363-7.436c-1.284-3.104-2.127-5.302-2.743-7.179
			c-2.498-7.774-2.929-9.654-3.314-11.042l-1.336-5.111c-0.598-2.327-1.311-4.129-1.67-5.524c-0.359-1.397-0.952-2.73-1.197-4.652
			c-0.239-1.92-0.157-4.433-0.157-4.433s-0.046-0.864-0.25-2.005c-0.254-1.165-0.452-2.513-1.479-3.788
			c-1.713-1.661-3.315-4.113-4.422-6.229c-1.12-2.116-4.1-6.547-4.916-8.292c-0.825-1.737-2.702-4.579-4.495-8.517
			c-1.771-3.977-2.179-5.818-5.268-11.919c-1.427-3.125-1.457-4.272-1.525-5.072c-0.05-0.811-0.075-1.297-1.116-3.275
			c-2.066-3.968-3.33-7.717-3.955-11.06c-0.623-3.359,0.061-6.895-0.589-9.724c-0.668-2.834-1.605-8.567-2.082-10.949
			c-0.532-2.375-1.237-11.065-1.293-12.517c-0.102-1.456,0.15-5.822-0.664-8.713c-0.205-0.723-0.311-1.786-0.346-3.015
			c-0.02-1.239-0.036-2.561,0.12-4.154c0.323-2.938,0.979-5.527,1.059-6.777c0.15-2.472,0.807-7.847,1.191-10.297
			c0.313-2.445,1.879-7.733,2.963-8.458c1.038-0.675,2.343-0.884,5.109-2.198c1.397-0.552,1.927,0.184,2.239,0.745
			C152.964,205.665,152.965,206.429,152.965,206.431z"/>
		<path style="fill:#21983A;" d="M274.874,145.44c-3.872,0.355-8.704,8.251-5.343,15.165c1.654,3.465,4.543,10.306,6.92,17.182
			c1.188,3.441,2.17,6.901,2.945,10.096c0.782,3.195,1.416,6.124,2.081,8.256c2.665,8.597,2.327,23.009,2.234,29.517
			c-0.005,3.268-0.193,9.272-1.034,16.234c-0.427,3.479-1.016,7.197-1.859,10.919c-0.42,1.861-0.893,3.725-1.425,5.566
			c-0.272,0.922-0.55,1.834-0.846,2.74c-0.296,0.925-0.622,1.915-0.875,2.875c-2.082,7.802-1.618,12.521-1.529,17.162
			c0.105,4.668,0.234,9.594-1.868,18.15c-1.075,4.261-2.045,7.44-2.597,9.68c-0.561,2.238-0.736,3.525-0.525,3.922
			c0.375,0.779,2.445-1.975,4.725-8.401c4.218-12.962,2.459-16.251,3.19-29.045c0.322-3.143,1.045-6.147,2.09-9.065
			c0.521-1.5,1.093-2.804,1.736-4.39c0.622-1.543,1.166-3.091,1.634-4.631c1.898-6.161,2.655-12.117,2.866-17.176
			c0.455-10.112,0.636-22.363,0.041-31.231c-0.289-4.449-0.398-10.224-0.612-15.56c-0.193-5.329-0.809-10.229-1.355-12.462
			c-0.488-2.252-1.734-7.256-3.084-11.549c-1.325-4.306-2.586-7.995-2.586-7.995C279.835,161.379,277.281,148.045,274.874,145.44z"
			/>
		<path style="fill:#21983A;" d="M281.391,90.751c-3.413,3.615-6.704,8.794-9.215,14.539c-2.525,5.747-4.295,12.035-5.176,17.825
			c-0.891,5.797-0.8,9.915-0.693,12.365c0.145,2.447,0.145,3.266-0.127,2.396c-0.232-0.871-0.897-2.104-1.491-4.354
			c-0.584-2.236-1.102-5.531-0.577-10.151c1.114-9.222,3.741-16.219,5.265-20.288c0.793-2.032,1.161-2.554,2.075-3.997
			c0.986-1.402,2.309-3.879,6.366-8.992c4.172-5.067,7.742-7.051,9.413-7.685c1.725-0.605,1.679-0.031,0.289,1.093
			c-1.393,1.14-3.016,2.909-4.183,4.449C282.162,89.487,281.398,90.755,281.391,90.751z"/>
		<path style="fill:#21983A;" d="M140.609,161.493c-0.836,0.396-1.727,0.761-2.602,1.113c-0.448,0.196-0.825,0.291-1.455,0.611
			l-1.293,0.67c-1.686,0.9-3.266,1.814-4.822,2.727c-3.106,1.83-6.088,3.664-9.183,5.631c-6.186,3.925-12.791,8.41-21.384,14.648
			c-2.148,1.554-4.075,2.922-5.826,4.109l-1.279,0.855c-0.453,0.296-0.936,0.65-1.343,1c-0.834,0.707-1.511,1.481-2.086,2.248
			c-2.236,3.131-2.98,6.067-3.45,8.667c-0.421,2.625-0.461,5.038-0.136,7.631c0.346,2.581,1.047,5.393,2.711,8.558
			c1.7,3.147,3.422,5.034,4.89,6.463c1.491,1.423,2.784,2.4,4.282,3.379c1.507,0.959,3.238,1.94,5.836,2.908
			c2.597,0.943,6.099,1.884,11.042,2.104c4.938,0.161,7.367-0.262,8.492-0.366c1.121-0.152,0.947-0.148,0.595-0.139
			c-0.352,0.009-0.877,0.023-0.459-0.112c0.413-0.145,1.793-0.365,5.14-1.17c6.684-1.688,10.947-3.925,13.594-5.445
			c2.632-1.561,3.661-2.507,3.665-2.502c-4.493,0.918-8.994,1.595-13.428,1.895c-4.479,1.572-9.088,2.766-13.758,3.3
			c-4.661,0.529-9.417,0.37-13.874-0.941c0.009-0.011-1.521-0.479-3.715-1.682c-2.184-1.198-4.979-3.279-7.142-6.279
			c-2.195-2.965-3.677-6.785-4.15-10.424c-0.516-3.642-0.055-7.011,0.634-9.256c0.655-2.245,1.968-4.64,3.957-6.065l7.961-4.906
			c5.37-3.35,10.426-6.531,13.735-8.74c3.306-2.209,8.038-5.863,13.392-9.738c2.679-1.925,5.522-3.943,8.435-5.67l0.547-0.314
			c0.184-0.109,0.198-0.116,0.459-0.232l1.204-0.541c0.804-0.368,1.609-0.734,2.429-1.154c0.804-0.42,1.697-0.914,2.479-1.688
			c0.773-0.784,1.214-1.527,1.698-2.172c1.881-2.584,3.347-4.336,4.063-5.531c0.729-1.179,0.752-1.752,0.116-1.682
			c-0.632,0.08-1.929,0.786-3.707,2.336c-0.882,0.773-1.893,1.786-2.92,3.059c-0.513,0.627-1.012,1.318-1.436,1.697
			C142.109,160.73,141.455,161.093,140.609,161.493z"/>
		<path style="fill:#21983A;" d="M170.626,110.526c3.847-5.21,8.547-10.281,11.48-12.142c2.957-1.847,5.724-5.992,1.893-8.561
			c-3.122-2.097-6.231,1.734-6.772,4.238c-0.52,2.511-6.174,11.874-9.153,15.412c-3.04,3.506-5.851,7.272-8.094,10.624
			c-2.241,3.431,2.75,7.963,4.527,2.098C166.504,116.366,167.068,115.514,170.626,110.526z"/>
		<path style="fill:#21983A;" d="M220.305,109.726c2.341,0.093,5.309-0.227,8.488-1.209c3.183-0.966,6.552-2.554,9.812-4.418
			c3.309-1.868,6.343-3.95,9.492-5.867l7.858-4.422c8.411-4.702,13.76-8.331,19.194-11.828c5.417-3.5,14.751-10.054,23.695-14.237
			c4.465-2.09,6.367-2.348,6.513-1.964c0.163,0.413-1.352,1.543-3.459,2.757c-4.259,2.366-11.751,7.042-15.169,9.149
			c-3.52,1.916-21.005,13.442-23.732,15.196c-1.359,0.873-5.188,3.5-9.278,6.12c-2.05,1.348-4.161,2.531-5.872,3.806
			c-1.782,1.247-3.341,2.297-4.381,2.943c-2.073,1.3-5.017,2.772-8.12,4.149c-3.104,1.398-6.365,2.615-9.181,3.872
			c-2.843,1.261-4.506,1.325-5.591,1.091c-1.098-0.293-1.734-0.943-2.883-1.85c-1.148-0.911-1.707-1.95-1.377-2.573
			C216.655,109.772,217.799,109.63,220.305,109.726z"/>
		<path style="fill:#21983A;" d="M243.861,59.273l-4.916,1.027c-4.536,0.852-17.296,3.913-19.832,3.927
			c-1.711-0.055-3.722,0.407-5.147,1.568c-0.698,0.579-1.304,1.343-1.598,2.366c-0.072,0.466,0.009,0.93,0.28,1.375
			c0.293,0.447,0.702,0.859,1.054,1.215c1.293,1.002,1.911,1.872,3.381,1.602c1.352-0.172,2.868-0.954,3.711-1.829
			c0.548-0.579,4.015-2.093,7.942-3.559c3.92-1.477,8.261-2.924,10.383-3.659c2.227-0.777,4.4-1.382,5.865-1.514
			c1.004-0.014,8.183-0.768,16.764-1.368c8.601-0.62,18.728-0.993,25.779-0.65c6.935,0.304,10.771,1.123,12.923,1.863
			c2.147,0.763,2.689,1.339,3.102,1.763c0.332,0.4,0.813,0.527,1.407,0.798c0.593,0.243,1.182,0.573,1.907,0.632
			c0.666,0.063,1.516-0.214,1.834-1.293c0.15-0.529,0.132-1.252-0.225-2.05c-0.329-0.773-1.143-1.684-2.129-2.216
			c-1.875-0.947-3.115-1.175-5.654-1.69c-2.529-0.45-6.317-0.959-13.065-1.095c-7.204-0.168-17.353,0.309-26.07,1.018
			c-4.361,0.345-8.361,0.727-11.469,1.047C246.957,58.9,244.852,59.036,243.861,59.273z"/>
		<path style="fill:#21983A;" d="M241.434,44.508c-1.891-0.473-4.22-0.561-6.27,0.427l-0.309,0.143l-0.52,0.307
			c-0.297,0.22-0.591,0.472-0.793,0.711c-0.452,0.491-0.725,0.963-0.984,1.42c-0.479,0.9-0.795,1.729-1.086,2.514
			c-1.095,3.113-1.959,5.547-2.992,6.854c-0.996,1.347-1.805,2.725-1.948,3.682c-0.077,0.505-0.009,1.023,0.095,1.747
			c0.113,0.693,0.232,1.629,0.771,2.64c0.43,0.813,1.222,1.286,2.218,1.207c0.988-0.061,2.109-0.67,2.932-1.527
			c1.697-1.756,2.195-4.081,2.049-5.493c-0.07-1.447-0.02-5.124,0.473-8.61c0.141-0.861,0.363-1.704,0.686-2.315
			c0.204-0.314,0.247-0.425,0.593-0.645c0.448-0.271,0.67-0.379,1.037-0.502c1.441-0.489,2.997-0.196,4.018,0.214
			c4.14,1.779,7.499,5.334,9.438,8.49c0.939,1.536,2.72,1.979,4.197,1.854c0.714-0.104,1.314-0.577,1.375-1.548
			c0.059-0.945-0.45-2.307-1.822-3.595c-2.752-2.514-4.504-3.502-6.201-4.64c-0.855-0.546-1.723-1.08-2.789-1.659
			C244.532,45.617,243.257,44.985,241.434,44.508z"/>
		<path style="fill:#21983A;" d="M193.649,63.088c-2.688,1.843-4.315,4.415-5.686,6.847c-1.364,2.484-2.357,5.065-3.116,7.492
			c-1.5,4.873-2.263,9.09-3.193,11.681c-0.897,2.623-1.497,5.811-1.459,8.329c0.057,2.514,0.736,4.554,3.018,4.947
			c1.857,0.32,3.422-1.675,4.236-4.299c0.832-2.618,0.938-5.708,0.598-7.643c-0.277-1.952-0.557-7.351,0.495-12.919
			c0.536-2.781,1.507-5.591,2.836-7.938c1.288-2.354,3.025-4.122,4.588-4.74c3.141-1.386,6.534,0.35,9.31,2.343
			c2.83,2.041,5.368,4.436,7.845,6.579c2.481,2.189,5.49,2.329,6.515,1.268c1.016-1.088,0.4-2.909-3.888-5.529
			c-4.343-2.681-6.949-4.393-9.76-5.86c-1.418-0.72-2.898-1.441-4.906-1.895C199.144,61.295,196.249,61.311,193.649,63.088z"/>
	</g>
</g>
</svg>
