<?xml version="1.0" encoding="iso-8859-1"?>
<!-- Generator: Adobe Illustrator 18.1.1, SVG Export Plug-In . SVG Version: 6.00 Build 0)  -->
<svg version="1.1" id="_x34_" xmlns="http://www.w3.org/2000/svg" xmlns:xlink="http://www.w3.org/1999/xlink" x="0px" y="0px"
	 viewBox="0 0 512 512" style="enable-background:new 0 0 512 512;" xml:space="preserve">
<g>
	<g>
		<path style="fill:#94C85C;" d="M169.302,119.609c0-10.959,6.323-29.084,12.223-35.407c5.903-6.323,9.695-7.167,10.539-9.695
			c0.844-2.53,10.539-18.969,16.017-19.812c5.48-0.844,13.911,12.223,16.439,12.645c2.53,0.422,18.547-1.264,18.547-1.264
			l16.439-0.844c0,0,7.587-16.86,16.441-10.959c8.851,5.901,20.232,20.234,23.182,24.87c2.952,4.636,19.811,31.193,21.92,37.093
			c2.106,5.902,9.273,12.225,9.273,12.225s20.234,18.125,36.673,32.457c16.439,14.333,28.895,14.828,38.359,17.283
			c22.2,5.76,39.623-3.794,39.623-3.794s8.853-6.323,20.654-9.273c11.803-2.95,18.548-9.275,18.548-9.275s0.42,6.744-4.636,9.697
			c-5.058,2.95-11.803,2.528-5.058,2.95c6.745,0.422,21.92,0,28.242-0.844c6.322-0.842,2.528,5.058,2.528,5.058l6.745-2.106
			l-7.167,7.587c3.794,0.842,2.53,2.108-0.842,4.214c-3.372,2.108-31.193,13.911-37.937,14.333
			c-6.744,0.42-4.216-0.844-14.333,3.372c-10.115,4.214-31.613,8.851-50.16,1.686c-21.92,3.792-45.526-4.216-56.905-10.961
			c-8.011-3.792-0.422,2.95,0.422,7.589c0.842,4.636,8.429,51.846-5.903,72.502c-0.422,10.117,10.537,8.851,10.537,8.851
			s40.045,19.812,18.55,55.643c-21.5,35.829-32.881,44.26-40.889,55.219c-8.009,10.959-13.489,33.301,13.911,37.095
			c27.398,3.793,41.729-3.794,53.112,18.126c-5.903-5.48-11.805-3.794-11.805-3.794s10.539,5.48,13.489,13.489
			c-5.9-2.108-16.017-5.059-22.762-8.009c-6.745-2.952,2.95,7.165,2.95,7.165s-14.331-8.009-31.191-8.009
			c-16.861,0-41.311-0.842-51.006-10.539c-9.695-9.695-9.273-20.654-5.479-29.507c3.794-8.851,14.331-28.662,18.546-36.251
			c4.216-7.587,14.952-27.274,10.539-29.085c-10.961-4.496-40.887-14.753-47.632-18.969c-6.744-4.214-8.431-2.528-8.431-2.528
			s-24.028,2.95-31.615,0.422c-14.753,5.058-29.926,9.695-39.201,17.281c-9.275,7.589-16.439,11.803-9.695,23.606
			c6.743,11.803,11.381,17.703,16.018,26.556c4.636,8.853,12.647,34.565,6.745,44.681c-5.902,10.117-12.225,13.067-22.342,13.489
			c-10.117,0.42-30.77,2.106-37.093,2.95c-6.323,0.842-21.076,2.95-25.292,6.744c-4.214,3.792-5.9,2.95-5.9,2.95
			s10.961-10.959,14.331-12.645c-0.42-1.266-21.92,2.106-27.398,9.273c-0.422-6.745,13.911-16.017,13.911-16.017
			s-16.019,8.009-14.755,4.214c1.266-3.794,7.589-10.959,17.705-11.803c10.117-0.842,25.29-3.372,35.407-4.214
			c10.117-0.844,18.968-10.539,18.548-18.548c-0.422-8.009-1.686-18.548-10.959-24.87c-9.275-6.323-32.036-34.987-37.517-44.682
			c-5.479-9.695-2.95-34.565,6.323-44.682c9.275-10.115,23.184-22.34,23.184-22.34s-12.645-42.995,0.844-73.766
			c2.106-2.53-6.323-3.794-6.323-3.794l-10.117,6.322c0,0-8.431,5.903-28.242,3.372c-21.076,5.9-51.848-5.48-56.483-6.323
			c-4.638-0.844-12.227-0.844-19.392-2.95c-7.164-2.108-22.342-8.853-27.398-13.067c-5.06-4.216,0.422-5.48,0.422-5.48
			s-6.744-4.216-5.06-5.058c1.688-0.842,9.275,0.842,9.275,0.842s-10.117-6.323-3.372-5.479c6.745,0.842,19.39,2.528,24.87,2.95
			c5.478,0.422,2.106-4.215,2.106-4.215s-7.165-2.108-7.165-8.431c8.431,2.95,13.067,6.323,13.067,6.323s18.125-0.844,27.398,12.645
			c10.539,0,31.194,1.264,36.673,4.636c7.167-1.686,12.645-3.372,14.333-7.165c1.684-3.794,21.918-28.664,29.926-34.987
			c8.009-6.323,20.654-12.645,20.654-12.645L169.302,119.609z"/>
		<path style="fill:#FFFFFF;" d="M192.486,118.767c5.9,4.636,13.911,24.448,7.589,39.201c-6.324,14.753-24.45,45.946-26.978,77.561
			c-2.53,31.614,7.587,63.651,29.928,75.032c22.34,11.381,32.879,11.381,46.368,11.381c13.487,0,44.258-8.009,56.905-21.498
			c12.645-13.489,22.342-70.396,9.695-100.322c-12.647-29.929-28.665-37.095-25.292-49.318c3.372-12.225,8.853-36.251,8.853-36.251
			s-9.275,6.743-24.87,6.323c-10.988-0.298-18.968,3.792-27.82,4.214c-6.029,0.288-8.431-2.528-17.281-3.794
			c-8.853-1.264-17.283-0.42-23.184-0.42C200.494,120.875,192.486,118.767,192.486,118.767z"/>
	</g>
	<g>
		<path style="fill:#231815;" d="M209.88,123.049c-3.82-0.406-7.754-0.428-11.521-0.994c-1.882-0.286-3.727-0.72-5.407-1.473
			c-1.676-0.741-3.195-1.862-4.136-3.258c-0.925-1.414-0.862-2.232-0.629-2.416c0.266-0.209,0.789,0.113,1.463,0.527
			c0.682,0.416,1.522,0.901,2.41,1.264c0.872,0.381,1.789,0.674,2.507,0.986c1.432,0.631,3.678,1.207,6.196,1.515
			c2.516,0.318,5.279,0.412,7.709,0.426c1.215,0.016,4.214-0.018,8.149-0.124c1.97-0.043,4.173-0.101,6.523-0.055
			c1.175,0.024,2.392,0.077,3.645,0.203c0.627,0.067,1.266,0.154,1.917,0.278l1.803,0.385c4.816,1.098,9.304,2.576,12.929,3.041
			c3.613,0.544,6.255,0.083,7.249-0.081c0.984-0.142,3.625-0.712,7.253-1.887c1.818-0.564,3.901-1.237,6.208-1.777
			c0.576-0.132,1.166-0.26,1.769-0.371l0.941-0.16c0.347-0.041,0.678-0.069,0.99-0.091c1.272-0.085,2.528-0.073,3.779-0.036
			c4.978,0.199,9.904,0.708,14.039,0.485c2.061-0.097,3.907-0.353,5.386-0.757c1.483-0.398,2.593-0.925,3.285-1.394
			c1.4-0.925,2.327-1.814,3.096-2.605c0.757-0.793,1.353-1.483,1.852-1.923c0.495-0.44,0.909-0.614,1.166-0.428
			c0.248,0.184,0.361,0.744,0.075,1.651c-0.276,0.891-0.99,2.479-2.465,3.909c-1.448,1.453-3.605,2.544-5.753,3.133
			c-2.154,0.609-4.297,0.824-6.009,0.921c-1.716,0.093-3.013,0.071-3.55,0.067c-0.536-0.004-2.368-0.118-4.853-0.371
			c-2.487-0.229-5.63-0.651-8.841-0.7c-0.803,0.002-1.597,0.004-2.38,0.124c-0.791,0.113-1.587,0.258-2.365,0.422
			c-1.55,0.329-3.041,0.746-4.4,1.146l-6.137,1.872c-1.177,0.384-2.95,0.85-5.078,1.033c-2.126,0.203-4.575,0.014-6.969-0.452
			c-2.396-0.454-4.757-1.126-6.865-1.712c-2.108-0.592-3.978-1.085-5.354-1.367c-2.741-0.74-6.975-0.29-10.811,0.213
			C214.853,122.731,211.311,123.21,209.88,123.049z"/>
		<path style="fill:#231815;" d="M199.132,61.103l-1.743,2.615c-1.651,2.41-5.591,9.509-6.877,10.257
			c-0.848,0.576-1.546,1.4-1.694,2.26c-0.13,0.852,0.174,1.878,1.461,3.094c1.063,0.986,2.309,0.763,3.157,0.035
			c0.86-0.718,1.306-1.84,1.29-2.678c0.008-0.556,0.915-2.83,1.846-5.258c0.941-2.432,2.039-5.005,2.603-6.263
			c0.576-1.329,1.258-2.516,1.873-3.209c0.229-0.247,0.953-1.278,2.177-2.578c0.611-0.645,1.361-1.349,2.256-1.972
			c0.448-0.31,0.935-0.596,1.451-0.832c0.26-0.116,0.529-0.221,0.805-0.309l0.485-0.152c0.142-0.047,0.282-0.097,0.426-0.132
			c1.148-0.325,2.386-0.341,3.568,0.028c1.185,0.357,2.297,1.065,3.289,1.909c1.986,1.708,3.526,3.851,4.753,5.626
			c2.37,3.548,3.615,5.719,4.455,7.031l1.467,2.386c0.669,1.075,2.215,0.955,3.057,0.237c0.43-0.349,0.722-0.816,0.742-1.284
			c0.02-0.475-0.225-0.96-0.927-1.491c-0.678-0.521-1.193-0.919-2.114-2.01c-0.939-1.088-2.185-2.93-4.617-6.332
			c-1.329-1.791-2.96-4.011-5.279-5.958c-1.16-0.958-2.536-1.842-4.139-2.311c-1.592-0.489-3.36-0.45-4.853,0.002
			c-0.189,0.051-0.373,0.112-0.554,0.176l-0.446,0.146c-0.365,0.12-0.716,0.264-1.051,0.418c-0.669,0.313-1.27,0.684-1.813,1.071
			c-1.083,0.777-1.93,1.615-2.621,2.371C200.197,59.516,199.42,60.699,199.132,61.103z"/>
		<path style="fill:#231815;" d="M264.435,56.179c-0.704,0.684-1.386,1.398-2.039,2.098c-0.935,0.974-2.595,2.952-4.039,4.885
			c-1.459,1.921-2.741,3.772-3.352,4.22c-1.669,1.209-2.603,3.901,0.702,5.192c2.682,1.057,3.83-1.205,3.629-2.674
			c-0.071-0.483,0.631-2.483,1.625-4.587c0.982-2.11,2.296-4.285,2.976-5.334c0.7-1.116,1.511-2.067,2.189-2.564
			c0.25-0.174,1.079-0.965,2.43-1.836c0.676-0.428,1.489-0.87,2.406-1.138c0.907-0.272,1.949-0.341,2.863,0.004
			c0.956,0.361,1.945,1.088,2.862,1.895c0.921,0.815,1.796,1.734,2.619,2.67c1.645,1.875,3.081,3.82,4.22,5.453
			c2.232,3.224,3.337,5.179,4.003,6.392c0.655,1.219,0.848,1.722,1.049,2.205c0.406,0.974,1.783,1.049,2.826,0.674
			c1.051-0.365,1.645-1.513,0.377-2.777c-0.615-0.613-1.075-1.047-1.907-2.122c-0.842-1.069-2.026-2.796-4.299-5.857
			c-1.223-1.629-2.731-3.585-4.491-5.526c-0.884-0.97-1.826-1.937-2.869-2.834c-1.051-0.885-2.163-1.745-3.615-2.284
			c-1.538-0.552-3.085-0.379-4.305,0.004c-1.233,0.39-2.213,0.96-3.013,1.493C265.69,54.917,264.775,55.865,264.435,56.179z"/>
		<path style="fill:#231815;" d="M182.209,81.351c-1.544,2.136-2.795,3.879-4.078,5.857c-1.276,1.97-2.522,4.216-3.913,7.263
			c-0.175,0.377-0.345,0.73-0.509,1.053l-0.124,0.239c-0.037,0.073-0.073,0.142-0.152,0.274c-0.077,0.11-0.12,0.238-0.168,0.361
			l-0.103,0.266c-0.237,0.639-0.459,1.205-0.669,1.714c-0.422,1.02-0.791,1.816-1.146,2.536c-0.702,1.442-1.367,2.56-2.094,4.623
			c-0.706,2.079-0.901,2.956-1.231,4.027c-0.3,1.069-0.765,2.386-1.288,5.455c-0.479,3.049-0.432,3.031-0.355,2.822
			c0.093-0.217,0.258-0.635,0.235,1.507c-0.026,4.268,1.353,5.934,1.349,5.94l2.723-4.22c-0.207-3.088-0.438-6.143-0.241-9.121
			c0.002-0.002,0.424-1.99,1.319-4.25c0.878-2.266,2.181-4.873,2.848-6.407c0.333-0.767,0.757-1.611,1.219-2.483l0.355-0.659
			c0.051-0.091,0.138-0.264,0.162-0.288l0.085-0.087l0.947-1.296c1.197-1.688,2.27-3.252,2.903-4.344
			c0.629-1.092,1.272-2.893,2.069-4.842c0.797-1.939,1.763-4.062,3.045-5.611c0.635-0.769,0.986-1.329,1.124-1.767
			c0.134-0.432,0.077-0.789-0.249-0.982c-0.325-0.191-0.958-0.158-1.704,0.235C183.826,79.556,182.988,80.282,182.209,81.351z"/>
		<path style="fill:#231815;" d="M229.176,68.579c2.789,0.081,4.68,0.714,8.316-0.168c3.605-0.913,4.102-0.29,6.374-0.473
			c2.264-0.187,1.82-0.158,5.021,0.264c3.175,0.449,0.004-0.006,2.229-0.16c2.197-0.138,3.019-1.473,3.035-1.479
			c-0.734-0.907-1.544-1.785-2.365-2.651c-1.692,0.318-3.337,0.68-4.982,1.045c-0.002-0.002-4.583-0.288-6.374-0.158
			c-1.802,0.142-4.528-0.379-5.849-0.334c-1.315,0.053-3.964,1.483-6.189,1.351c-1.096-0.065-1.601,0.556-1.499,1.254
			C226.993,67.763,227.766,68.528,229.176,68.579z"/>
		<path style="fill:#231815;" d="M295.413,72.127c3.67,3.731,6.695,7.524,8.427,10.328c1.71,2.8,3.141,4.987,4.194,6.875
			c1.077,1.864,5.003,5.865,6.234,8.212c0.107,0.217,0.262,0.416,0.357,0.655l0.154,0.361l0.142,0.31
			c0.17,0.345,0.363,0.702,0.564,1.063l1.302,2.262c0.87,1.55,1.659,3.157,1.842,4.64c0.355,2.982,1.396,6.829,2.499,8.766
			c0.54,0.974,0.633,1.785,0.761,2.591c0.126,0.797,0.29,1.613,0.964,2.333c0.667,0.728,1.487,1.611,2.185,2.147
			c0.692,0.556,1.27,0.85,1.268,0.86c0-0.002-0.28,0.278-0.684,0.452c-0.398,0.175-0.939,0.219-1.313-0.201
			c-0.363-0.414-1.065-0.791-1.731-1.23c-0.661-0.434-1.274-0.899-1.41-1.15c-0.14-0.246-0.688-1.256-1.158-2.556
			c-0.477-1.29-0.885-2.852-1.053-3.952c-0.347-2.169-2.051-5.212-3.081-7.307c-1.037-2.082-2.984-1.554-2.686-3.463
			c0.28-1.921,0.162-2.783-0.264-3.8c-0.108-0.254-0.15-0.53-0.177-0.82c-0.032-0.312-0.067-0.647-0.213-0.957
			c-0.233-0.582-0.615-1.11-1.609-1.436c-1.972-0.671-5.549-2.84-5.542-3.94c0.022-1.124-0.998-2.954-1.674-3.325
			c-0.335-0.187-1.422-0.538-2.469-0.976c-1.049-0.442-2.059-0.966-2.27-1.639c-0.404-1.357-1.357-3.8-1.219-4.867
			c0.152-1.073,0.763-1.475,0.13-2.83c-0.325-0.674-0.245-0.672-0.383-0.897c-0.152-0.221-0.491-0.694-1.858-2.217
			c-1.386-1.505-2.181-2.416-2.599-3.104c-0.422-0.684-0.473-1.134-0.525-1.587c-0.055-0.454,0.093-0.89,0.552-0.949
			C293.528,70.715,294.328,71.035,295.413,72.127z"/>
		<path style="fill:#231815;" d="M161.419,126.916c-1.978,0.868-3.808,1.651-5.595,2.487c-0.885,0.424-1.787,0.844-2.674,1.367
			c-0.88,0.505-1.704,1.021-2.556,1.582c-3.376,2.242-6.835,5.076-10.651,9.49c-3.777,4.433-5.772,6.975-7.559,9.003l-2.554,2.933
			l-1.355,1.601c-0.245,0.3-0.505,0.607-0.765,0.947l-0.763,1.075c-2.055,2.933-2.873,4.098-3.978,5.494
			c-0.552,0.696-1.174,1.452-2.067,2.489c-0.895,1.028-2.055,2.361-3.763,4.049c-1.712,1.674-2.637,2.364-3.051,2.71
			c-0.42,0.335-0.345,0.292-0.193,0.217c0.152-0.077,0.379-0.199,0.26-0.02c-0.124,0.17-0.57,0.68-1.883,1.674
			c-2.631,1.95-4.634,3.13-5.946,4.005c-1.315,0.852-1.911,1.355-1.905,1.361c2.487,0.201,5.086,0.126,7.748-0.396
			c2.367-1.526,4.457-3.41,6.267-5.443c1.822-2.033,3.404-4.201,4.902-6.39c0.008,0.006,2.292-2.804,4.883-6.236l1.98-2.609
			l2.094-2.487l3.542-4.224c1.8-2.187,4.236-4.753,6.668-7.019c2.427-2.276,4.855-4.234,6.453-5.542
			c1.576-1.303,3.859-3.505,6.589-5.526c2.796-1.948,6.318-3.814,9.588-5.242c3.301-1.424,4.317-2.743,3.514-3.098
			C167.87,124.82,165.383,125.202,161.419,126.916z"/>
		<path style="fill:#231815;" d="M392.231,176.484c-1.278-0.284-4.638-1.037-7.914-2.199c-3.291-1.126-6.454-2.654-7.701-3.339
			c-0.621-0.345-2.146-1.154-4.031-2.327c-1.885-1.167-4.129-2.704-6.259-4.352c-4.285-3.286-8.105-6.975-8.902-7.987
			c-1.621-2.021-6.078-6.551-7.387-7.924l-4.828-5.005l-1.365-1.41c-0.252-0.266-0.507-0.523-0.789-0.771l-0.911-0.854l-2.607-2.536
			c-0.375-0.365-1.542-1.266-2.804-2.167c-1.258-0.911-2.625-1.779-3.408-2.343c-0.777-0.58-2.962-1.978-5.553-2.968
			c-2.58-1.029-5.548-1.664-7.293-1.99c-3.487-0.68-6.737-0.854-6.011-2.272c0.737-1.4,1.404-1.704,2.161-2.72
			c0.769-1.006,1.668,0.528,4.26,0.621c1.305,0.057,3.242,0.373,5.356,0.899c2.116,0.519,4.398,1.272,6.465,2
			c2.071,0.724,3.648,1.838,4.841,2.954c1.197,1.122,2.037,2.25,2.783,3.193c0.749,0.947,1.603,2.428,2.509,3.826
			c0.455,0.698,0.927,1.379,1.412,1.958c0.481,0.576,1.004,1.073,1.463,1.441c1.885,1.418,4.536,4.706,5.971,5.662
			c1.42,0.972,6.839,5.97,9.411,6.869c1.276,0.468,3.049,2.258,4.757,4.047c1.7,1.793,3.363,3.574,4.181,4.193
			c1.637,1.234,1.026-1.037,1.639,1.225c0.641,2.258,0.779,3.224,2.009,4.027c0.615,0.402,2.99,1.473,5.372,2.349
			c2.378,0.899,4.757,1.592,5.261,1.988c1.018,0.803,2.049,0.4,2.702,1.016c0.659,0.605,0.753,1.031,2.25,1.104
			c1.489,0.051,0.802,0.247,2.777,0.006c1.96-0.29,0.361-0.635,3.141-0.053c1.387,0.266,2.027,1.459,1.655,2.51
			C396.475,176.191,395.004,177.108,392.231,176.484z"/>
		<path style="fill:#231815;" d="M141.681,194.917c0.793-0.398,1.538-0.862,2.319-1.317c0.785-0.45,1.597-0.923,2.643-1.177
			c0.525-0.12,1.114-0.182,1.755-0.055c0.631,0.116,1.207,0.414,1.668,0.816c0.888,0.811,1.181,1.714,1.262,2.439
			c0.083,1.477-0.797,1.331-1.593,0.923c-0.412-0.205-0.848-0.477-1.211-0.645c-0.361-0.181-0.621-0.225-0.674-0.264
			c-0.071-0.055-0.15-0.095-0.288-0.104c-0.166-0.016-0.477,0.028-0.852,0.17c-0.753,0.282-1.659,0.886-2.394,1.477
			c-0.215,0.172-0.607,0.495-1.112,0.96c-0.252,0.233-0.533,0.501-0.828,0.801l-0.456,0.471l-0.233,0.25l-0.428,0.485l-1.136,0.619
			l-0.951,0.483c-0.651,0.316-1.329,0.629-2.019,0.925c-1.378,0.59-2.8,1.11-4.122,1.544c-2.639,0.868-4.861,1.367-5.494,1.52
			c-0.891,0.221-4.875,0.927-9.056,1.335c-4.181,0.442-8.547,0.633-10.202,0.984c-3.335,0.704-4.522-2.13-3.035-2.438
			c0.739-0.156,2.587-0.256,4.358-0.371l3.905-0.266c0.442-0.031,3.043,0.079,5.802-0.014c2.753-0.083,5.658-0.41,6.642-0.789
			c0.986-0.373,2.939-0.816,4.907-1.365c1.968-0.533,3.948-1.181,5.045-1.643c0.556-0.231,1.203-0.637,1.854-1.142
			c0.327-0.249,0.653-0.525,0.972-0.807c0.16-0.14,0.318-0.286,0.471-0.434c0.185-0.164,0.246-0.256,0.3-0.349l0.043-0.166
			c0.012-0.053,0.091-0.177,0.134-0.26l0.308-0.536c0.209-0.347,0.416-0.667,0.617-0.947
			C141.006,195.472,141.387,195.065,141.681,194.917z"/>
		<path style="fill:#231815;" d="M156.361,186.294c-2.749,6.137-4.733,11.353-6.61,17.195c-0.923,2.925-1.799,6.009-2.603,9.474
			c-0.793,3.475-1.548,7.287-2.043,11.789c-0.42,4.504-0.418,8.009-0.386,10.912c0.047,2.903,0.156,5.204,0.28,7.299
			c0.28,4.181,0.513,7.553,1.668,13.044c1.231,5.474,1.974,7.604,2.777,10.3c0.422,1.343,0.887,2.822,1.643,4.881
			c0.767,2.055,1.793,4.705,3.65,8.259c1.889,3.54,3.094,5.193,3.623,5.968c0.546,0.769,0.479,0.637,0.333,0.384
			c-0.142-0.256-0.353-0.639-0.093-0.384c0.274,0.245,0.96,1.171,2.897,3.323c3.932,4.289,7.628,6.309,10.01,7.318
			c2.418,1,3.613,1.087,3.605,1.104c-3.061-2.388-5.583-5.198-7.598-8.208c-5.938-4.986-10.407-11.748-13.676-18.989
			c0.004,0.004-2.015-5.066-3.431-11.434c-0.724-3.177-1.321-6.658-1.714-9.886c-0.4-3.228-0.605-6.202-0.72-8.362
			c-0.248-4.321-0.028-9.756,0.809-14.761c0.884-4.985,2.173-9.77,2.958-12.915c0.789-3.161,1.751-7.979,3.179-13.256
			c1.42-5.27,3.317-11.018,5.818-15.848c1.246-2.41,2.1-4.096,2.499-5.173c0.404-1.071,0.337-1.548-0.183-1.402
			C162.039,177.194,159.138,180.141,156.361,186.294z"/>
		<path style="fill:#231815;" d="M334.283,175.402c1.795,3.051,3.98,6.92,6.102,11.344c2.126,4.414,4.165,9.393,5.723,14.507
			c1.574,5.108,2.659,10.328,3.25,15.079c0.302,2.376,0.489,4.634,0.594,6.707l0.065,1.522l0.035,1.505
			c0.024,0.976-0.061,1.915-0.095,2.694c-0.649,12.888-1.546,21.855-4.439,30.301c-0.361,1.053-0.771,2.203-1.258,3.416
			c-0.237,0.623-0.497,1.189-0.743,1.814c-0.233,0.611-0.544,1.339-0.856,2.008c-1.27,2.729-2.942,5.472-4.763,8.194
			c-3.634,5.435-7.882,10.882-10.693,16.163c-1.406,2.633-2.14,4.439-2.68,5.581c-0.53,1.142-0.879,1.625-1.195,1.57
			c-0.607-0.075-0.974-2.51-0.02-5.615c0.883-3.092,2.993-7.224,5.372-10.973c2.372-3.761,4.828-7.252,6.331-9.421
			c0.741-1.087,2.331-3.293,3.895-6.216c0.387-0.732,0.767-1.509,1.116-2.325c0.349-0.862,0.767-1.739,1.116-2.623
			c0.724-1.775,1.363-3.674,1.905-5.591c2.199-7.685,2.404-15.688,2.507-17.788c0.043-1.059,0.063-3.112,0.012-5.705l-0.099-4.222
			c-0.051-1.453-0.244-2.984-0.414-4.563c-0.375-3.138-0.897-6.313-1.483-9.068c-0.582-2.757-1.201-5.096-1.597-6.614
			c-0.802-3.027-1.712-7.143-3.266-11.209c-1.53-4.064-3.67-8.058-6.334-10.799c-2.674-2.729-3.751-4.197-4.106-5.514
			c-0.355-1.309,0.006-2.441,0.087-4.358c0.079-1.915,0.564-3.489,1.534-3.779C330.852,171.134,332.335,172.122,334.283,175.402z"/>
		<path style="fill:#231815;" d="M343.13,186.982c2.655,0.56,5.094,2.252,6.887,3.426c0.897,0.576,5.005,3.54,9.537,5.751
			c2.26,1.114,4.628,2.015,6.63,2.567c1.998,0.558,3.609,0.799,4.313,0.757c2.798-0.193,5.865,0.787,12.19,0.606
			c4.536-0.13,11.882,1.856,11.886,1.86c0.108,0.988-10.468,2.335-13.846,1.974c-1.676-0.158-4.033-0.379-6.236-0.678
			c-2.199-0.29-4.24-0.676-5.289-0.917c-1.049-0.225-4.715-0.933-8.192-2.138c-3.487-1.162-6.729-2.706-7.482-2.927
			c-1.524-0.43-4.938-2.082-8.226-3.893c-3.293-1.812-3.828-4.007-3.887-5.386C341.359,186.605,343.134,186.982,343.13,186.982z"/>
		<path style="fill:#231815;" d="M400.287,201.635c1.019-0.255,2.234,0.012,3.228,0.3c0.988,0.292,1.747,0.627,1.747,0.627
			c-0.008,0.022,2.489,0.929,4.11,1.434c1.609,0.542,3.642,0.755,4.995,0.84c0.341,0.016,1.012,0.065,1.899,0.091
			c0.895,0.035,1.964,0.156,3.049,0.231c2.181,0.17,4.495,0.294,5.695,0.335c1.199,0.047,3.388,0.04,5.463-0.077
			c2.075-0.106,4.025-0.337,4.784-0.42c2.548-0.266,4.22-0.658,5.254-0.929c1.031-0.278,1.43-0.444,1.43-0.442
			c0,0,1.15-0.327,2.526-0.787c1.379-0.456,2.974-1.055,3.936-1.406c1.927-0.684,4.554-1.519,5.707-2.311
			c1.152-0.789,1.039-0.187,2.907-1.069c1.862-0.885,4.031-1.166,2.593-0.168c-1.438,1.014-5.327,2.528-5.331,2.508
			c-1.313,0.757-2.647,1.487-4.004,2.179c0,0-1.948-0.294-3.774,0.805c-0.919,0.554-2.396,1.12-3.865,1.568
			c-1.467,0.454-2.921,0.791-3.769,1.055c-1.694,0.533-3.784,1.041-6.25,1.177c-2.461,0.142-5.264,0.13-7.697,0.036
			c-2.436-0.085-5.914-0.097-7.291-0.217c-0.357-0.024-0.982-0.105-1.85-0.118c-0.854-0.03-1.925-0.098-2.974-0.193
			c-2.106-0.191-4.19-0.562-4.881-0.706c-0.692-0.128-2.037-0.184-3.222-0.251l-2.203-0.144c0.01-0.016-0.055-1.004-2.56-2.232
			C397.475,202.064,400.313,201.64,400.287,201.635z"/>
		<path style="fill:#231815;" d="M400.924,176.496c1.258-1.063,3.402-0.258,3.402-0.258s1.729,0.499,2.798,0.901
			c1.069,0.404,2.39,0.596,3.274,0.724c0.879,0.104,5.285,0.818,6.794,0.891c0.767,0.057,2.171,0.057,3.504-0.03
			c1.335-0.079,2.595-0.223,3.088-0.258c3.309-0.254,4.374-0.69,4.374-0.674c0.004,0.008,3.041-0.641,4.358-0.844
			c1.318-0.195,3.116-0.223,3.956-0.6c0.842-0.373,0.702,0.142,2.023-0.049c1.325-0.193,2.751,0.367,1.688,0.755
			c-1.057,0.384-3.727,0.54-3.727,0.54l-2.783,0.919c0,0-1.26-0.803-2.507-0.128c-1.248,0.68-3.918,1.014-5.013,1.361
			c-1.09,0.355-2.426,0.714-4.023,0.783c-1.595,0.067-3.431,0.063-5.039-0.057l-2.664-0.17c-0.864-0.059-1.643-0.11-2.084-0.173
			l-6.167-0.89c-0.879-0.128-3.427,0.497-3.427,0.497s-0.095-1.008-1.824-1.503C399.196,177.742,400.92,176.496,400.924,176.496z"/>
		<path style="fill:#231815;" d="M442.513,175.711c-0.203-0.86,0.185-1.818,0.673-2.501c0.481-0.688,1.024-1.106,1.024-1.106
			c-0.018-0.016,1.623-1.422,2.808-2c1.158-0.621,2.439-1.416,3.339-1.88c0.442-0.241,1.793-0.915,3.281-1.451
			c1.487-0.546,3.09-0.984,3.925-1.195c1.658-0.456,6.034-1.584,7.087-1.812c3.56-0.759,4.634-1.374,4.636-1.367
			c0,0,0.795-0.28,1.738-0.659c0.947-0.375,2.027-0.868,2.674-1.164c1.302-0.552,3.082-1.327,3.706-2.096
			c0.605-0.765,0.736-0.207,1.832-1.155c1.049-0.955,2.579-1.639,1.925-0.533c-0.335,0.556-1.112,1.325-1.848,1.885
			c-0.728,0.57-1.394,0.941-1.394,0.941c-0.802,0.757-1.67,1.46-2.585,2.092c-0.018,0.006-1.54-0.323-2.728,0.645
			c-1.211,1.018-4.102,1.814-5.238,2.315c-1.14,0.525-2.536,1.071-4.201,1.414c-1.668,0.347-3.55,0.74-5.163,1.156
			c-1.629,0.394-3.779,1.373-4.621,1.74c-0.43,0.173-1.71,0.716-2.897,1.42c-1.191,0.692-2.268,1.554-2.605,1.86
			c-0.349,0.302-0.811,1.067-1.11,1.767c-0.304,0.706-0.467,1.329-0.469,1.327c0.016,0.018-0.951-0.467-2.177,1.014
			c-0.58,0.751-0.99,0.619-1.25,0.266C442.612,176.285,442.513,175.711,442.513,175.711z"/>
		<path style="fill:#231815;" d="M478.125,171.678c-5.082,1.244-7.492,1.38-8.237,0.858c-0.734-0.495,0.339-1.603,2.564-2.017
			c4.41-0.811,8.732-2.029,12.264-2.491c3.528-0.46,7.038-0.838,10.557-1.02c1.759-0.087,4.414-0.126,6.104-0.073
			c1.69,0.051,2.424,0.278,0.266,0.838c-4.317,1.059-6.031,1.844-11.3,2.491l-8.093,0.889
			C479.855,171.43,478.125,171.68,478.125,171.678z"/>
		<path style="fill:#231815;" d="M467.466,177.342c0.619-0.306,1.091-0.258,1.534-0.124c0.426,0.136,0.777,0.351,0.777,0.353
			c-0.016,0.01,1.183,0.55,2.039,0.877c0.836,0.347,1.911,0.396,2.623,0.402c0.353,0.006,1.424,0.004,2.57-0.063
			c1.144-0.061,2.357-0.181,2.988-0.255c1.262-0.114,4.532-0.885,5.323-1.059c2.67-0.517,3.487-0.996,3.487-0.986
			c0.004,0.008,2.4-0.828,3.438-1.134c1.043-0.29,2.51-0.485,3.112-0.951c0.595-0.463,0.6,0.061,1.623-0.315
			c1.004-0.371,2.343-0.177,1.588,0.424c-0.769,0.617-2.966,1.114-2.964,1.104c-0.704,0.404-1.418,0.797-2.138,1.177
			c0,0-1.177-0.678-2.096,0.071c-0.927,0.761-3.081,1.266-3.926,1.688c-0.846,0.43-1.884,0.887-3.165,1.106
			c-1.278,0.221-2.749,0.434-4.043,0.578c-1.286,0.156-3.128,0.528-3.881,0.55c-0.375,0.014-1.503,0.051-2.639,0.012
			c-1.136-0.03-2.28-0.162-2.658-0.219c-0.381-0.049-1.128,0.073-1.826,0.15c-0.694,0.085-1.345,0.102-1.345,0.105
			c0-0.004,0.024-0.247-0.126-0.607c-0.146-0.359-0.465-0.807-1.079-1.337c-0.603-0.576-0.307-0.943,0.034-1.164
			C467.062,177.502,467.466,177.346,467.466,177.342z"/>
		<path style="fill:#231815;" d="M473.842,187.684c-6.072,0.696-8.875-0.063-9.496-0.726c-0.625-0.694,0.876-1.402,3.363-1.311
			c5.001,0.183,9.925-0.83,13.795-1.481c3.889-0.647,7.695-1.576,11.393-2.802c1.86-0.588,4.599-1.66,6.295-2.514
			c0.858-0.408,1.467-0.714,1.654-0.669c0.182,0.036-0.051,0.448-1.033,1.292c-1.984,1.647-3.506,2.664-5.2,3.642
			c-1.702,0.954-3.611,1.836-6.605,2.643c-2.994,0.805-6.547,1.343-9.34,1.603C475.875,187.629,473.842,187.678,473.842,187.684z"/>
		<path style="fill:#231815;" d="M465.019,195.71c1.296-1.089,3.66-0.641,3.686-0.659c-0.004,0.008,1.968,0.156,3.246,0.219
			c1.276,0.093,2.775-0.185,3.763-0.4c0.493-0.107,1.976-0.442,3.534-0.893c1.56-0.446,3.191-1.002,4.033-1.306
			c0.842-0.298,2.349-0.929,3.757-1.582l3.246-1.548c3.487-1.615,4.498-2.459,4.504-2.447c0.004,0.01,3.073-1.86,4.414-2.611
			c1.347-0.735,3.258-1.534,4.023-2.26c0.765-0.726,0.793-0.172,2.126-0.947c1.329-0.777,3.037-0.933,2.055-0.067
			c-0.982,0.87-3.784,2.209-3.786,2.205l-2.678,2.075c0,0-1.605-0.231-2.733,0.929c-1.124,1.171-3.895,2.581-4.958,3.359
			c-1.057,0.785-2.368,1.67-4.045,2.396c-1.672,0.73-3.615,1.503-5.337,2.118c-1.714,0.627-4.151,1.621-5.175,1.879
			c-0.507,0.136-2.033,0.535-3.587,0.83c-1.55,0.308-3.124,0.505-3.648,0.558c-0.525,0.057-1.485,0.394-2.343,0.676l-1.607,0.529
			c0.004-0.016-0.29-0.939-2.365-1.317C463.092,197.01,465.048,195.712,465.019,195.71z"/>
		<path style="fill:#231815;" d="M475.055,165.8c-0.158-1.199,0.481-0.85,0.501-0.862c0,0,0.505,0.11,0.891,0.225
			c0.383,0.124,0.714-0.012,0.929-0.104c0.217-0.081,1.29-0.607,1.654-0.826c0.375-0.199,1.181-0.974,1.404-1.126
			c0.769-0.497,0.85-0.86,0.852-0.858c0.002,0.002,0.533-0.667,0.828-0.882c0.296-0.213,0.864-0.329,0.889-0.653
			c0.026-0.321,0.317,0.065,0.613-0.156c0.296-0.221,1.11,0.081,1.037,0.44c-0.075,0.361-0.842,0.635-0.842,0.633l-0.312,0.834
			c-0.002,0.002-0.929-0.529-0.893,0.047c0.031,0.576-0.588,1.008-0.686,1.367c-0.103,0.361-0.264,0.761-0.645,1
			c-0.379,0.242-0.822,0.509-1.215,0.732c-0.391,0.223-0.826,0.726-1.067,0.842c-0.229,0.128-1.438,0.659-1.696,0.736
			c-0.229,0.089-0.554,1.213-0.572,1.215c0.002-0.002-0.456-0.876-1.045-0.992C475.102,167.283,475.074,165.792,475.055,165.8z"/>
		<path style="fill:#231815;" d="M112.068,205.644c-1.309,0.801-2.303,1.519-3.796,0.952c-1.797-0.716-1.039-0.207-3.211-0.144
			c-0.538,0.012-2.666,0.396-5.662,0.615c-1.487,0.108-3.226,0.168-5.013,0.138c-1.688-0.016-3.637,0.104-5.565,0.12
			c-3.877,0.075-7.904-0.006-11.312-0.345c-3.408-0.32-6.173-0.889-7.597-1.207c-2.852-0.619-6.086-1.509-9.076-2.572
			c-2.992-1.053-5.739-2.238-7.719-3.226c-3.95-2.014-3.345-3.808-1.278-2.702c1.041,0.544,3.092,1.331,5.08,2.004
			c1.988,0.678,3.913,1.227,4.682,1.526c0.769,0.308,3.357,1.185,5.956,1.787c2.595,0.627,5.183,0.958,5.827,1.055
			c0.322,0.049,2.018,0.31,4.431,0.452c2.414,0.154,5.553,0.156,8.719-0.012c1.583-0.081,3.169-0.195,4.676-0.323l2.244-0.205
			c0.726-0.041,1.418-0.065,2.009-0.12c2.422-0.184,4.124-0.538,4.502-0.7c1.519-0.613,4.703-1.132,5.652-2.086
			c1.414-1.396,3.124,0.315,5.153,2.128C111.67,203.595,112.884,205.143,112.068,205.644z"/>
		<path style="fill:#231815;" d="M103.935,181.525c-0.678,0.542-1.599,0.542-2.296,0.406c-0.7-0.134-1.207-0.4-1.207-0.4
			c-0.004,0.004-1.649-0.706-2.619-1.256c-0.978-0.546-2.22-0.919-3.047-1.16c-0.414-0.118-1.655-0.487-2.974-0.811
			c-0.659-0.16-1.339-0.303-1.935-0.388c-0.576-0.087-1.122-0.077-1.511-0.099c-1.513-0.059-5.532,0.036-6.504-0.016
			c-3.252-0.152-4.35-0.006-4.35,0c0.002,0.008-3.057,0.016-4.356-0.138c-1.304-0.138-3-0.609-3.891-0.495
			c-0.891,0.117-0.615-0.335-1.897-0.542c-1.29-0.213-2.441-1.177-1.341-1.229c1.095-0.041,3.607,0.59,3.609,0.584
			c0.945-0.03,1.885-0.071,2.824-0.126c-0.004-0.002,0.978,1.106,2.309,0.735c1.323-0.361,3.895-0.18,4.984-0.373
			c1.087-0.185,2.382-0.369,3.893-0.306l4.761,0.183l1.307,0.029c0.491,0.026,0.961,0.077,1.402,0.136
			c0.879,0.115,1.645,0.252,2.075,0.365c0.876,0.209,5.037,1.461,5.853,1.7c0.844,0.258,3.329-0.095,3.309-0.114
			c0-0.018-0.024,1.051,1.586,1.576c0.785,0.229,0.85,0.625,0.667,1.025C104.4,181.207,103.935,181.527,103.935,181.525z"/>
		<path style="fill:#231815;" d="M65.712,176.802c-0.809-0.233-1.353-0.854-1.755-1.408c-0.398-0.552-0.635-1.059-0.635-1.061
			c0.016-0.006-0.891-1.54-1.597-2.481c-0.671-0.964-1.818-1.798-2.619-2.286c-0.393-0.252-1.611-0.972-3.002-1.586
			c-1.384-0.623-2.919-1.161-3.719-1.426c-1.59-0.56-5.993-1.517-7.044-1.822c-3.514-1.016-4.741-1.252-4.743-1.244
			c0-0.002-0.834-0.225-1.828-0.57c-0.998-0.341-2.146-0.824-2.804-1.181c-1.345-0.688-2.832-2.025-3.737-2.477
			c-0.911-0.467-0.43-0.657-1.467-1.694c-1.035-1.092-1.268-2.69-0.365-1.913c0.454,0.379,1.096,1.112,1.688,1.712
			c0.584,0.605,1.102,1.085,1.102,1.087c0.893,0.507,1.814,0.943,2.763,1.307c-0.016-0.012,0.548,1.473,2.082,1.631
			c1.483,0.177,4.165,1.124,5.396,1.23c1.215,0.124,2.662,0.284,4.303,0.748c1.641,0.461,3.534,0.998,5.183,1.55
			c1.651,0.525,4.076,1.258,4.986,1.734c0.458,0.223,1.826,0.919,3.092,1.799c1.278,0.868,2.418,1.923,2.773,2.291
			c0.365,0.361,1.203,0.895,1.923,1.42c0.716,0.521,1.327,1.004,1.327,1.002c-0.02,0.006-0.604,0.765,0.118,2.635
			c0.331,0.957-0.043,1.183-0.479,1.193C66.213,176.999,65.708,176.8,65.712,176.802z"/>
		<path style="fill:#231815;" d="M39.657,173.414c-1.215,0.872-2.777-0.12-2.785-0.118c0-0.002-1.321-0.645-2.146-1.112
			c-0.822-0.475-1.893-0.73-2.607-0.896c-0.706-0.183-4.299-0.927-5.571-1.142c-1.264-0.241-4.664-0.57-5.481-0.704
			c-2.727-0.456-3.672-0.371-3.672-0.371c0,0.002-2.587-0.197-3.68-0.41c-1.093-0.203-2.501-0.74-3.268-0.655
			c-0.767,0.083-0.499-0.355-1.576-0.601c-1.089-0.25-1.994-1.239-1.053-1.26c0.937-0.014,3.029,0.698,3.033,0.692l2.42-0.01
			c0,0,0.743,1.146,1.907,0.854c1.16-0.284,3.333,0.087,4.276-0.004c0.943-0.091,2.069-0.152,3.347,0.065l4.013,0.702
			c1.278,0.235,3.146,0.355,3.875,0.515c0.736,0.132,4.368,0.996,5.086,1.217c0.714,0.179,2.954-0.172,2.958-0.166
			c-0.002,0.002-0.079,0.996,1.258,1.7C41.321,172.426,39.645,173.41,39.657,173.414z"/>
		<path style="fill:#231815;" d="M35.862,178.464c5.096-0.089,6.906-0.686,7.79-0.477c0.422,0.105,0.528,0.499,0.138,1.053
			c-0.383,0.55-1.3,1.126-2.493,1.327c-2.365,0.387-4.611,0.412-6.758,0.393c-2.14-0.04-4.155-0.195-5.91-0.511
			c-3.507-0.639-6.962-1.52-10.251-2.867c-1.649-0.667-4.035-1.909-5.399-2.911c-0.684-0.495-1.116-0.915-1.13-1.095
			c-0.012-0.183,0.371-0.114,1.382,0.25c2.031,0.718,3.538,1.004,5.124,1.343c1.591,0.325,3.274,0.692,5.77,1.327
			c2.493,0.637,5.423,1.294,7.738,1.669C34.178,178.354,35.862,178.46,35.862,178.464z"/>
		<path style="fill:#231815;" d="M45.405,187.992c-1.091,1.187-3.203,0.566-3.197,0.564c0,0-1.684-0.361-2.72-0.702
			c-1.037-0.336-2.297-0.465-3.134-0.562c-0.844-0.071-5.027-0.659-6.472-0.962l-3.317-0.57c-1.262-0.229-2.449-0.495-2.903-0.625
			c-3.041-0.887-4.09-1.106-4.098-1.089c-0.004,0.022-2.861-0.862-3.995-1.481c-1.156-0.576-2.487-1.662-3.313-1.947
			c-0.838-0.286-0.4-0.558-1.396-1.333c-1.01-0.809-1.373-2.215-0.473-1.698c0.45,0.25,1.096,0.799,1.668,1.262l1.041,0.856
			c0.824,0.353,1.66,0.66,2.508,0.935c-0.016-0.006,0.462,1.376,1.803,1.445c1.311,0.083,3.607,0.952,4.666,1.02
			c1.049,0.087,2.284,0.201,3.672,0.556c1.392,0.357,3.002,0.708,4.422,0.972c1.422,0.272,3.502,0.337,4.319,0.444
			c0.817,0.138,4.942,0.578,5.774,0.623c0.834,0.075,3.157-0.761,3.155-0.765c0-0.002,0.164,1.002,1.826,1.327
			C46.91,186.579,45.411,187.992,45.405,187.992z"/>
		<path style="fill:#231815;" d="M34.689,194.511c3.54,0.736,6.111,1.063,7.912,1.351c1.801,0.276,2.838,0.524,3.244,0.846
			c0.41,0.318,0.176,0.692-0.584,0.986c-0.757,0.288-2.051,0.464-3.639,0.286c-6.32-0.702-12.468-2.236-17.104-4.183
			c-4.621-1.956-9.048-4.299-13.191-7.042c-4.175-2.725-11.821-9.048-6.472-5.985c2.68,1.517,4.629,2.453,6.699,3.465
			c2.074,1.004,4.26,2.106,7.502,3.784c3.244,1.682,7.092,3.489,10.2,4.67C32.36,193.892,34.691,194.507,34.689,194.511z"/>
		<path style="fill:#231815;" d="M34.413,167.953c-0.751,0.998-1.225,0.164-1.201,0.166c-0.004,0-0.375-0.523-0.521-0.935
			c-0.154-0.408-0.452-0.647-0.651-0.812c-0.211-0.156-1.156-1.01-1.455-1.329c-0.315-0.304-1.258-0.97-1.438-1.185
			c-0.617-0.704-0.972-0.769-0.972-0.767c-0.004,0.002-0.723-0.499-0.954-0.795c-0.231-0.292-0.359-0.86-0.682-0.883
			c-0.325-0.022,0.059-0.32-0.162-0.615c-0.225-0.296,0.079-1.108,0.438-1.035c0.359,0.075,0.631,0.832,0.631,0.832l0.828,0.28
			c-0.004-0.002-0.501,0.945,0.071,0.878c0.568-0.065,1.022,0.495,1.385,0.54c0.359,0.049,0.749,0.134,1.023,0.444
			c0.274,0.308,0.594,0.653,0.882,0.945c0.288,0.296,0.854,0.497,1.024,0.649c0.164,0.166,1.043,0.897,1.235,1.02
			c0.199,0.146,1.108-0.416,1.094-0.428c0,0-0.363,0.933-0.039,1.388C35.286,166.762,34.435,167.961,34.413,167.953z"/>
		<path style="fill:#231815;" d="M143.661,277.164c-2.593,1.927-5.135,3.901-7.352,5.865c-2.221,1.96-4.104,3.915-5.459,5.634
			c-2.702,3.431-4.626,6.419-5.879,9.052c-0.625,1.309-2.014,3.503-3.132,5.975c-1.14,2.457-1.988,5.173-2.183,6.967
			c-0.211,1.785-0.84,3.972-1.242,6.313c-0.406,2.333-0.584,4.806-0.11,6.863c0.463,2.055,1.018,4.48,1.617,6.794l1.649,6.192
			c0.885,3.352,2.737,4.461,3.916,7.634c0.6,1.594,1.67,3.68,2.649,5.327c0.968,1.653,1.824,2.879,1.824,2.879
			c-0.002-0.006,0.684-1.666-0.521-3.272c-1.243-1.621-1.974-5.234-2.365-5.987c-0.207-0.38-1.039-1.901-1.935-3.715
			c-0.903-1.81-1.846-3.922-2.505-5.362c-0.666-1.438-1.098-3.368-1.309-5.319c-0.217-1.952-0.217-3.913-0.177-5.451
			c0.036-1.544,0.607-2.347,1.018-3.031c0.418-0.692,0.682-1.262,0.252-2.404c-0.836-2.309-0.909-3.459-0.722-4.889
			c0.203-1.4-0.71-3.055,1.059-4.812c0.881-0.862,2.094-2.315,3.149-3.599c1.043-1.298,1.919-2.453,1.887-3.112
			c-0.105-1.325,1.063-3.733,1.844-4.268c0.381-0.278,1.588-0.854,2.792-1.46c1.199-0.617,2.4-1.264,2.773-2.041
			c0.371-0.783,0.964-1.882,1.52-2.929c0.55-1.047,1.065-2.041,1.138-2.648c0.154-1.213-0.434-1.674,0.734-3.187
			c0.596-0.753,0.501-0.747,0.734-0.998c0.248-0.239,0.799-0.771,2.889-2.406c2.108-1.617,3.299-2.581,3.958-3.315
			c0.67-0.724,0.82-1.201,0.972-1.678C147.467,275.838,146.729,274.933,143.661,277.164z"/>
		<path style="fill:#231815;" d="M136.893,349.697c0.588,2.081,2.086,4.666,3.731,7.092c1.641,2.43,3.424,4.7,4.487,6.254
			c2.116,3.116,5.579,6.934,7.141,9.206c0.773,1.138,3.684,4.526,6.598,7.989c2.923,3.453,5.778,7.034,6.689,8.295l1.828,2.461
			l1.126,1.519c0.388,0.523,0.789,1.108,1.144,1.68c1.438,2.311,2.22,4.751,2.532,5.609c0.322,0.862,0.406,1.039,0.505,1.439
			c0.083,0.402,0.233,1.034,0.319,2.862c0.067,1.826-0.126,2.915-0.268,3.67c-0.154,0.757-0.292,1.189-0.39,1.722
			c-0.103,0.529-0.298,1.688-0.564,2.698c-0.252,1.014-0.56,1.873-0.56,1.873c0-0.002-0.475,1.745-1.404,3.5
			c-0.897,1.771-2.25,3.455-2.808,3.785c-1.298,0.789-1.749,1.209-2.045,1.658c-0.3,0.438-0.448,0.874-1.221,1.404
			c-0.777,0.521-1.558,0.852-2.54,1.248l-3.842,1.548c-1.684,0.682-3.694,1.201-5.664,1.564c-1.968,0.365-3.897,0.594-5.467,0.816
			c-3.14,0.434-4.879,0.197-7.293,0.241l-2.41,0.029c-4.788,0.067-4.457-1.155-3.084-1.441c1.373-0.282,4.465-0.063,6.182-0.339
			c1.722-0.272,5.138-0.588,7.879-0.572c2.749,0.016,4.13-0.217,5.435-0.71c0.651-0.25,1.785-0.68,2.919-1.172
			c1.14-0.485,2.268-1.041,3.029-1.374c1.527-0.667,2.599-1.373,3.495-1.913c1.988-1.217,3.181-2.317,4.009-3.161
			c0.818-0.858,1.272-1.491,1.544-2.126c0.272-0.633,0.351-0.779,0.55-1.102c0.176-0.333,0.519-0.83,1.014-2.268
			c0.481-1.442,0.671-2.522,0.811-3.469c0.136-0.951,0.225-1.771,0.339-2.755c0.205-1.98-0.101-2.978-0.189-4.275
			c-0.108-1.311-0.602-2.554-0.947-3.794c-0.178-0.621-0.564-1.605-1.098-2.554c-0.527-0.951-1.193-1.856-1.739-2.432
			c-1.126-1.26-4.345-5.67-4.986-6.888c-0.627-1.231-0.846-1.933-2.932-3.776c-2.096-1.836-2.079-1.412-3.37-3.006
			c-1.298-1.591-1.347-2.43-2.218-3.491c-0.872-1.055-2.434-3.327-3.696-4.08c-1.266-0.751-2.337-1.661-3.644-3.268
			c-1.308-1.611-1.759-2.576-2.402-3.386c-0.647-0.815-2.311-1.724-3.155-2.828c-0.848-1.099-2.923-2.603-3.952-4.443
			c-1.035-1.832-2.023-4.534-1.952-6.644C134.415,350.47,136.037,346.629,136.893,349.697z"/>
		<path style="fill:#231815;" d="M127.241,428.417c-2.094,0.156-3.065,0.733-5.396,1.317c-1.163,0.302-2.023,0.274-2.99,0.256
			c-0.962-0.012-2.037-0.022-3.538,0.432c-3.017,0.939-4.252,2.455-4.248,2.43c1.167-0.183,2.327-0.298,3.473-0.347
			c0.004-0.01,1.942-0.41,3.504-1.025c1.59-0.625,3.045,0.087,5.62-0.738c2.607-0.805,4.311-1.382,6.015-1.217
			C131.386,429.721,131.375,428.178,127.241,428.417z"/>
		<path style="fill:#231815;" d="M111.106,434.493c-1.653,0.318-1.988-0.947-3.743,0.16c-1.747,1.108-3.846,2.952-4.611,4.13
			c-0.398,0.576-1.227,1.672-1.889,2.668c-0.67,0.99-1.189,1.871-1.193,1.869c0,0,0.207,0.247,0.601,0.172
			c0.4-0.075,0.958-0.475,1.791-1.7c0.844-1.217,1.213-1.668,1.481-2.039c0.27-0.369,0.456-0.649,1.102-1.416
			c1.306-1.564,3.53-2.447,3.522-2.43C109.121,435.375,110.104,434.905,111.106,434.493z"/>
		<path style="fill:#231815;" d="M185.871,344.483c-2.461,2.457-4.043,5.831-4.473,9.044c-0.469,3.24,0.191,6.169,0.864,8.604
			c0.343,1.225,0.406,1.846,0.148,2.067c-0.242,0.215-0.787,0.012-1.418-0.513c-0.631-0.521-1.345-1.377-1.887-2.382
			c-0.55-1.002-0.921-2.146-1.02-3.084c-0.223-1.869-0.144-4.56,0.627-7.251c0.743-2.7,2.122-5.34,3.593-7.417
			c0.73-1.037,2.609-3.587,5.731-6.149c1.558-1.28,3.41-2.569,5.538-3.648c1.065-0.538,2.201-1.023,3.404-1.408
			c0.304-0.097,0.607-0.185,0.919-0.266l0.471-0.114l0.051-0.014l0.053-0.016l0.201-0.063l1.633-0.517
			c4.339-1.428,8.531-3.287,11.896-4.853l6.849-3.252c0.601-0.284,1.879-0.876,3.642-1.655c0.88-0.391,1.883-0.828,2.988-1.29
			l1.729-0.712l2.335-0.927l0.887,0.245l0.617,0.16l1.045,0.252c0.708,0.166,1.438,0.322,2.179,0.467
			c1.487,0.294,3.027,0.55,4.591,0.759c3.124,0.42,6.334,0.641,9.348,0.623c3.009-0.014,5.818-0.272,8.141-0.68
			c2.325-0.4,4.161-0.945,5.301-1.386c3.361-1.305,5.692-1.942,7.052-1.927c1.337-0.008,1.637,0.749,0.15,1.729
			c-0.742,0.477-2.106,1.207-3.826,1.891c-1.716,0.688-3.782,1.318-5.841,1.763c-4.12,0.917-8.153,1.067-9.194,1.098
			c-0.72,0.024-3.865-0.022-7.803-0.521c-1.97-0.245-4.136-0.598-6.305-1.037c-1.081-0.221-2.163-0.463-3.224-0.722l-1.568-0.4
			l-0.765-0.209l-0.667-0.199c-0.189,0.059-0.375,0.134-0.564,0.201l-0.619,0.233l-1.195,0.464
			c-0.775,0.305-1.497,0.605-2.149,0.887c-1.31,0.564-2.351,1.055-3.004,1.412c-2.116,1.136-6.265,3.177-10.568,5.118
			c-4.297,1.954-8.819,3.611-11.446,4.425l-2.179,0.716c-0.775,0.264-1.572,0.633-2.365,1.069c-1.589,0.874-3.14,2.043-4.484,3.282
			C188.561,340.848,186.767,343.57,185.871,344.483z"/>
		<path style="fill:#231815;" d="M193.503,383.986c0.227,0.361,0.434,0.732,0.623,1.112l0.603,1.229l1.14,2.428
			c0.732,1.599,1.404,3.171,2.039,4.735c1.262,3.126,2.363,6.226,3.347,9.507c0.968,3.28,1.848,6.746,2.412,10.616
			c0.531,3.851,0.846,8.178-0.187,12.842c-0.538,2.333-1.374,4.258-2.41,5.91c-1,1.732-2.031,3.072-3.106,4.226
			c-2.146,2.282-4.287,3.642-6.311,4.662c-2.041,1.01-4.005,1.671-6.192,2.238c-2.193,0.562-4.621,1.017-7.707,1.402
			c-3.088,0.375-5.285,0.491-7.092,0.576c-1.806,0.077-3.224,0.099-4.804,0.095c-1.582-0.004-3.323-0.041-5.786-0.105
			c-2.465-0.053-5.652-0.17-10.168-0.14c-4.524,0.047-6.827,0.26-7.886,0.351c-1.063,0.103-0.897,0.105-0.566,0.105
			c0.331-0.004,0.828,0.002,0.428,0.104c-0.4,0.122-1.696,0.26-4.942,0.899c-6.523,1.311-10.765,3.853-13.073,5.784
			c-2.331,1.96-2.994,3.181-3.015,3.157c3.879-2.256,8.072-3.343,12.182-3.714c4.204-1.473,8.72-2.242,13.288-2.716
			c4.571-0.471,9.214-0.645,13.874-0.823l4.139,0.042c2.552,0.014,6.07,0.025,9.939-0.189c3.861-0.217,8.089-0.7,11.941-1.716
			c3.855-0.98,7.271-2.581,9.527-4.114c2.272-1.503,4.638-3.554,6.606-6.1c0.489-0.621,0.978-1.313,1.392-1.95
			c0.426-0.631,0.903-1.333,1.306-2.077c0.82-1.469,1.471-3.031,1.96-4.607c0.978-3.157,1.302-6.338,1.325-9.166
			c0.014-2.832-0.264-5.331-0.594-7.295c-0.633-3.946-2.467-9.608-5.124-15.505c-1.317-2.956-2.818-5.989-4.38-8.977l-1.175-2.232
			c-0.383-0.718-0.816-1.54-1.321-2.274c-0.982-1.501-2.371-2.789-3.648-3.755c-1.294-0.972-1.96-1.655-2.363-2.505
			c-0.406-0.832-0.603-1.651-0.785-2.254c-0.337-1.225-0.639-1.654-0.986-1.167c-0.169,0.242-0.337,0.71-0.434,1.424
			c-0.083,0.714-0.144,1.692,0.241,2.952c0.193,0.623,0.54,1.311,1.034,1.929c0.491,0.625,1.086,1.154,1.652,1.647
			C191.588,381.552,192.608,382.526,193.503,383.986z"/>
		<path style="fill:#231815;" d="M155.955,437.552c-0.718,0.558-1.698,0.708-2.524,0.745c-0.824,0.036-1.495-0.047-1.495-0.049
			c0.004-0.01-2.148-0.118-3.536-0.144c-1.386-0.055-3.011,0.276-4.08,0.538c-0.534,0.126-2.142,0.525-3.814,1.079
			c-1.678,0.54-3.419,1.227-4.315,1.607c-0.895,0.375-2.489,1.152-3.956,1.982c-1.475,0.816-2.816,1.682-3.349,2.002
			c-3.554,2.179-4.455,3.313-4.469,3.285c0,0-0.746,0.625-1.619,1.412c-0.878,0.785-1.872,1.741-2.475,2.309
			c-1.215,1.116-2.919,2.572-3.435,3.587c-0.515,1.008-0.733,0.469-1.743,1.804c-0.982,1.327-2.489,2.414-1.935,1.069
			c0.286-0.672,0.988-1.68,1.653-2.479c0.665-0.801,1.27-1.408,1.27-1.406c0.684-1.043,1.416-2.057,2.191-3.043
			c0.008-0.008,1.684-0.29,2.639-1.753c0.951-1.505,3.696-3.56,4.759-4.526c1.047-0.996,2.38-2.122,4.139-3.088
			c1.755-0.97,3.818-1.97,5.664-2.743c1.834-0.791,4.461-1.95,5.569-2.266c0.548-0.164,2.201-0.643,3.885-1.002
			c1.68-0.367,3.388-0.609,3.956-0.672c0.568-0.073,1.613-0.432,2.544-0.73l1.741-0.552c-0.002,0.018,0.322,0.931,2.578,1.298
			C158.033,436.248,155.919,437.548,155.955,437.552z"/>
		<path style="fill:#231815;" d="M142.911,435.897c-1.329,1.305-4.122,0.88-4.114,0.878c-0.002,0.002-2.207-0.203-3.575-0.428
			c-1.371-0.225-3.003-0.187-4.09-0.144c-0.542,0.022-2.171,0.085-3.889,0.239c-1.718,0.146-3.522,0.422-4.449,0.607
			c-0.929,0.171-2.601,0.607-4.132,1.183c-1.536,0.564-2.921,1.26-3.459,1.524c-1.818,0.882-2.919,1.684-3.585,2.197
			c-0.663,0.524-0.891,0.777-0.893,0.775c0.002,0.002-0.73,0.599-1.568,1.377c-0.844,0.773-1.787,1.733-2.359,2.303
			c-1.155,1.124-2.777,2.599-3.27,3.603c-0.487,0.998-0.71,0.471-1.704,1.775c-0.978,1.302-2.516,2.256-1.929,0.98
			c0.576-1.298,2.84-3.767,2.857-3.749c0.641-1.029,1.319-2.043,2.045-3.033c0.012-0.006,1.653-0.319,2.548-1.781
			c0.454-0.74,1.337-1.65,2.272-2.453c0.931-0.811,1.909-1.509,2.451-1.978c1.087-0.939,2.511-1.97,4.384-2.704
			c1.866-0.742,4.074-1.349,6.015-1.712c1.937-0.391,4.701-0.905,5.814-0.97c1.124-0.128,6.634-0.268,7.721-0.266
			c1.098-0.014,4.068-1.061,4.063-1.067c0-0.004,0.298,0.988,2.487,1.138C144.745,434.323,142.923,435.897,142.911,435.897z"/>
		<path style="fill:#231815;" d="M120.163,447.45c-0.255,1.329-1.631,1.197-1.635,1.199c0,0-1.065,0.047-1.763,0.002
			c-0.702-0.043-1.442,0.191-1.931,0.357c-0.495,0.146-2.924,1.027-3.753,1.394c-0.848,0.329-2.909,1.558-3.412,1.836
			c-1.731,0.889-2.146,1.445-2.146,1.439c-0.006-0.006-1.422,1.12-2.067,1.548c-0.647,0.418-1.652,0.813-1.925,1.306
			c-0.266,0.497-0.473,0.032-1.1,0.495c-0.627,0.462-1.731,0.385-1.365-0.203c0.363-0.598,1.81-1.339,1.81-1.333
			c0.369-0.458,0.742-0.915,1.128-1.365c0.004-0.004,1.128,0.426,1.515-0.39c0.386-0.83,1.771-1.635,2.232-2.156
			c0.457-0.527,1.049-1.118,1.899-1.524c0.846-0.412,1.826-0.85,2.688-1.207c0.862-0.361,2.012-1.059,2.518-1.234
			c0.497-0.197,3.025-1.021,3.536-1.158c0.501-0.156,1.594-1.479,1.594-1.479c0.004,0.002,0.442,0.897,1.532,0.864
			C120.609,445.813,120.157,447.45,120.163,447.45z"/>
		<path style="fill:#231815;" d="M344.376,280.54c2.398,0.755,4.441,1.191,6.259,1.944c1.822,0.728,3.428,1.69,4.96,2.944
			c0.763,0.629,1.507,1.329,2.246,2.102c0.722,0.783,1.562,1.686,2.347,2.57c1.59,1.812,3.26,3.869,4.94,6.391
			c1.674,2.53,2.692,4.698,3.386,6.537c0.698,1.846,1.073,3.376,1.337,4.773c0.493,2.806,0.639,5.084,0.631,8.863
			c-0.099,3.782-0.393,5.293-0.773,7.147c-0.205,0.927-0.477,1.938-0.919,3.341c-0.45,1.4-1.081,3.195-2.152,5.622
			c-1.083,2.424-1.733,3.581-2.01,4.133c-0.28,0.544-0.227,0.467-0.106,0.314c0.217-0.316,0.749-0.913-0.927,2.503
			c-1.72,3.392-2.871,5.83-3.514,7.48c-0.659,1.641-0.832,2.471-0.826,2.473c2.207-1.629,4.38-3.372,6.474-5.269
			c2.67-5.25,4.79-10.807,5.991-16.575c-0.014,0.004,1.235-3.838,1.728-8.697c0.249-2.424,0.294-5.084,0.095-7.535
			c-0.197-2.449-0.623-4.678-1.045-6.265c-0.828-3.179-2.189-7.09-4.035-10.557c-1.81-3.485-4.023-6.504-5.672-8.338
			c-0.406-0.456-0.876-0.921-1.402-1.452c-0.562-0.548-1.201-1.122-1.923-1.688c-1.44-1.13-3.219-2.238-5.218-3.055
			c-1.992-0.836-4.169-1.321-6.204-1.716c-2.035-0.402-3.948-0.822-5.462-1.729c-1.507-0.893-2.432-1.74-3.12-2.168
			c-0.674-0.44-1.092-0.465-1.197-0.024c-0.093,0.434,0.112,1.363,1.016,2.574c0.45,0.598,1.095,1.254,1.958,1.852
			C342.1,279.633,343.181,280.155,344.376,280.54z"/>
		<path style="fill:#231815;" d="M359.451,352.916c-0.795,2.161-2.615,4.903-4.272,7.058c-1.65,2.159-3.12,3.749-3.12,3.749
			c0.016,0.016-4.597,5.175-7.616,8.234c-3.001,3.08-6.409,6.96-8.632,9.586c-1.11,1.312-4.449,5.24-7.75,9.606
			c-0.81,1.087-1.69,2.215-2.412,3.301c-0.714,1.109-1.309,2.266-1.755,3.408c-0.901,2.28-1.242,4.435-1.369,5.898
			c-0.122,1.464-0.126,3.57,0.337,5.883c0.442,2.311,1.379,4.806,2.733,6.974c1.349,2.175,3.078,4.013,4.723,5.281
			c1.645,1.284,3.159,2.047,4.005,2.455c2.862,1.365,5.49,1.954,7.65,2.347c2.167,0.377,3.907,0.525,5.244,0.621
			c2.676,0.176,3.761,0.144,3.761,0.154c0,0.006,3.005,0.097,6.677,0.166c3.668,0.067,8.007,0.268,10.596,0.598
			c2.589,0.298,5.591,0.874,8.304,1.686c2.72,0.797,5.121,1.846,6.731,2.566c1.611,0.73,2.124,1.16,2.794,1.714
			c0.651,0.578,1.499,1.252,3.416,3.009c1.913,1.777,3.347,3.954,3.94,5.202c0.584,1.262,0.491,1.526-0.812-0.132
			c-0.663-0.822-1.562-1.917-2.617-3.021c-1.051-1.108-2.27-2.213-3.467-3.138c-2.388-1.866-4.676-2.968-4.668-2.972
			c-3.364-1.463-6.965-2.292-10.61-2.747c0,0.002-0.978-0.428-2.635-0.822c-1.655-0.398-3.995-0.736-6.603-0.631
			c-2.603,0.087-6.482,0.106-10.279,0.01c-3.796-0.081-7.504-0.42-9.703-0.71c-2.201-0.27-4.638-0.724-7.202-1.678
			c-2.548-0.952-5.226-2.469-7.51-4.765c-2.28-2.274-4.185-5.232-5.307-8.48c-1.134-3.236-1.497-6.701-1.205-9.866
			c0.256-3.163,1.345-6.979,3.272-9.997c0.489-0.771,0.968-1.43,1.422-2.069l1.313-1.81c0.828-1.126,1.552-2.075,2.09-2.755
			c1.065-1.367,4.35-5.402,7.75-9.31l7.912-9.103c1.124-1.302,3.041-3.93,4.628-6.256c1.592-2.323,2.858-4.343,2.858-4.343
			c-0.02-0.016,1.302,0.049,5.569-5.329C361.821,347.049,359.463,352.906,359.451,352.916z"/>
		<path style="fill:#231815;" d="M265.201,319.662c2.276-0.361,5.53,1.735,5.518,1.739c0.004-0.004,2.629,1.554,4.201,2.631
			c1.574,1.069,3.595,2.096,4.946,2.769c0.674,0.335,2.696,1.349,4.873,2.357c2.171,1.018,4.514,1.996,5.741,2.469
			c0.97,0.383,2.639,0.966,4.35,1.475c2.643,0.562,5.569,1.101,6.549,1.347c5.534,1.327,7.389,1.899,7.397,1.87
			c-0.004,0.006,1.288,0.379,2.808,1.018c1.524,0.621,3.238,1.611,4.141,2.4c0.919,0.757,1.842,1.862,2.406,3.047
			c0.58,1.179,0.775,2.375,0.923,3.171c0.146,0.807,0.031,1.114-0.1,1.489c-0.152,0.377-0.32,0.84-0.665,1.935
			c-0.353,1.1-1.037,2.043-1.511,2.465c-0.481,0.424-0.726,0.369-0.402-0.485c0.319-0.854,0.927-2.238,1.195-3.463
			c0.292-1.223,0.229-2.254,0.229-2.25c-0.29-1.467-1.108-2.712-2.209-3.67c-0.004,0.004-0.089-0.479-0.505-1.089
			c-0.41-0.608-1.177-1.325-2.266-1.664c-1.077-0.347-2.621-0.937-4.171-1.41c-1.548-0.479-3.084-0.868-4.015-1
			c-1.865-0.274-4.098-0.552-6.677-1.132l-3.589-0.828c-1.633-0.53-3.116-1.073-4.548-1.633c-2.504-0.964-6.082-2.335-7.454-3.002
			c-1.396-0.633-8.151-4.063-9.49-4.735c-1.353-0.69-5.514-1.609-5.51-1.593c-0.004,0.006,0.107-1.061-2.542-2.508
			C262.162,319.954,265.189,319.66,265.201,319.662z"/>
		<path style="fill:#231815;" d="M311.198,361.247c-1.359,1.958-2.82,3.309-4.114,4.589c-1.302,1.266-2.477,2.457-3.465,3.639
			c-1.974,2.337-3.157,4.646-3.086,5.969c0.036,0.657-0.515,1.779-1.424,3.284l-1.585,2.569c-0.292,0.483-0.596,0.994-0.9,1.542
			l-0.446,0.846l-0.42,0.818c-2.278,4.451-4.847,10.004-6.033,15.209c-1.197,5.177-2.392,9.214-3.234,12.489
			c-0.844,3.262-1.317,5.755-1.037,7.411c0.274,1.651,0.574,4.68,1.442,7.634c0.42,1.475,0.976,2.921,1.576,4.153
			c0.304,0.617,0.604,1.187,0.903,1.68c0.144,0.251,0.292,0.479,0.43,0.694l0.333,0.526c0.85,1.416,2.81,3.806,4.869,5.435
			c2.031,1.669,3.991,2.648,3.983,2.655c0-0.006,1.911,1.069,4.439,1.952c2.522,0.917,5.626,1.587,7.691,1.982
			c1.031,0.207,2.877,0.473,5.275,0.643c2.396,0.179,5.34,0.258,8.573,0.248c6.458,0,14.094-0.353,20.882,0.168
			c7.636,0.578,12.16,1.58,15.408,2.465c3.244,0.923,5.268,1.651,7.695,2.879c3.017,1.595,4.743,2.652,4.625,1.868
			c-0.077-0.371-0.639-1.195-1.972-2.357c-1.327-1.148-3.459-2.633-6.618-3.93c-3.157-1.288-6.064-2.053-8.685-2.619
			c-2.627-0.558-4.982-0.911-7.123-1.181c-4.287-0.526-7.734-0.745-10.894-0.82c-6.295-0.13-9.75-0.071-15.832-0.369
			c-3.025-0.173-4.68-0.331-6.8-0.599c-1.059-0.14-2.232-0.312-3.716-0.605c-1.479-0.302-3.279-0.706-5.477-1.487
			c-2.652-0.976-3.824-1.641-4.849-2.108c-1.006-0.495-1.85-0.816-3.41-1.802c-1.548-1.012-2.481-2.077-3.441-3.384
			c-0.241-0.335-0.477-0.68-0.71-1.026l-0.454-0.702l-0.394-0.594c-0.533-0.828-1.116-1.798-1.714-3.059
			c-1.181-2.544-1.416-4.522-1.495-6.198c-0.057-1.696,0.065-3.157,0.195-5.114c0.146-1.96,0.355-3.187,0.742-5.137
			c0.414-1.948,0.974-4.642,2.532-9.45c1.582-4.804,3.266-9.084,4.818-12.736l1.142-2.621l0.554-1.223
			c0.163-0.357,0.337-0.712,0.519-1.055c0.722-1.378,1.511-2.611,2.228-3.666c1.444-2.112,2.717-4.108,3.834-5.914
			c1.122-1.804,2.098-3.406,3.104-4.743c1.014-1.329,1.712-3.566,1.83-5.484C311.643,362.699,311.192,361.19,311.198,361.247z"/>
		<path style="fill:#231815;" d="M337.517,435.268c0.72-0.629,1.85-0.787,2.773-0.751c0.923,0.031,1.639,0.241,1.639,0.241
			c0.002-0.012,2.297,0.526,3.642,1.085c1.357,0.527,3.002,0.968,4.09,1.306c0.54,0.168,2.169,0.678,3.846,1.349
			c1.684,0.659,3.412,1.465,4.295,1.907c0.887,0.436,2.512,1.213,4.015,2.041c1.507,0.815,2.885,1.674,3.408,2.029
			c3.463,2.428,4.619,3.252,4.642,3.226c0,0.002,0.797,0.59,1.726,1.357c0.933,0.767,1.982,1.724,2.566,2.345
			c1.185,1.232,2.437,3.126,3.297,3.893c0.866,0.771,0.315,0.823,1.25,2.225c0.927,1.436,1.029,3.252,0.16,2.167
			c-0.438-0.534-1.037-1.516-1.576-2.349l-0.986-1.526c-0.85-0.848-1.736-1.655-2.65-2.424c0.008,0.01-0.201-1.702-1.751-2.516
			c-1.511-0.824-4.023-2.954-5.287-3.567c-1.242-0.637-2.714-1.388-4.327-2.41c-1.615-1.023-3.524-2.102-5.248-2.946
			c-1.714-0.872-4.342-1.684-5.368-2.047c-0.513-0.189-2.055-0.742-3.637-1.179c-1.574-0.448-3.179-0.777-3.715-0.872
			c-0.538-0.101-1.59-0.03-2.485,0.114c-0.897,0.142-1.637,0.333-1.637,0.335c-0.004,0.018-0.18-1.049-2.382-1.311
			C335.6,436.789,337.486,435.268,337.517,435.268z"/>
		<path style="fill:#231815;" d="M352.229,433.156c0.635,0.252,2.765,0.503,5.695,0.706c2.927,0.219,6.668,0.383,10.468,0.965
			c3.798,0.554,7.616,1.708,10.499,3.169c2.903,1.436,4.891,2.99,5.674,3.617c4.755,3.832,9.277,7.575,10.101,8.724
			c0.793,1.15,0.838,1.87-0.568,2.779c-1.414,0.917-2.1,1.077-2.897-0.094c-0.4-0.584-1.639-2.607-3.189-4.583
			c-1.528-1.992-3.418-3.879-4.479-4.621c-2.739-1.988-5.924-3.609-9.233-4.545c-3.305-0.961-6.701-1.298-9.805-1.422
			c-3.104-0.12-5.926-0.071-8.121-0.057c-2.193,0.022-3.755,0.03-4.346,0.073c-2.374,0.168-2.262-1.197-2.14-2.532
			C350.016,433.994,351.188,432.748,352.229,433.156z"/>
		<path style="fill:#231815;" d="M374.123,445.278c1.018-0.919,2.09,0.069,2.086,0.067c0,0,0.895,0.653,1.408,1.156
			c0.513,0.505,1.229,0.838,1.704,1.073c0.483,0.217,2.828,1.436,3.619,1.915c0.807,0.444,2.992,1.542,3.471,1.893
			c1.623,1.126,2.266,1.351,2.272,1.345c0.002-0.006,1.603,0.939,2.199,1.463c0.607,0.515,1.235,1.41,1.779,1.58
			c0.54,0.173,0.132,0.454,0.698,0.998c0.568,0.55,0.619,1.649,0,1.375c-0.615-0.276-1.578-1.519-1.584-1.519
			c-0.515-0.253-1.031-0.499-1.552-0.734c0.004,0.002,0.116-1.205-0.783-1.305c-0.885-0.102-2.1-1.041-2.755-1.205
			c-0.653-0.172-1.4-0.4-2.144-0.888c-0.743-0.489-1.607-1.025-2.384-1.471c-0.773-0.452-2.006-0.834-2.461-1.063
			c-0.446-0.248-2.761-1.359-3.24-1.556c-0.473-0.219-2.112,0.15-2.11,0.152c-0.002,0.002,0.219-0.976-0.665-1.601
			C372.794,446.33,374.119,445.276,374.123,445.278z"/>
		<path style="fill:#231815;" d="M209.714,74.997c-2.593-1.556-2.075-6.744,1.558-6.744c5.187,0,7.305,8.115-2.595,6.226
			L209.714,74.997z"/>
		<path style="fill:#231815;" d="M271.148,71.624c-7.904,0.394-5.928-5.93-1.185-6.324
			C274.706,64.904,276.647,71.348,271.148,71.624z"/>
		<path style="fill:#231815;" d="M159.286,132.102c0,3.161,5.137,9.882,3.161,12.253c-2.765,2.767-5.139-1.976-6.325-3.161
			c-1.976-1.582-5.534-0.791-7.113-2.767c-3.56-4.348,6.717-6.325,9.486-6.325H159.286z"/>
		<path style="fill:#231815;" d="M134.778,149.891c0-1.582,3.161-3.954,4.743-4.35c3.556-1.58,3.556,1.187,5.137,3.163
			c1.978,2.767,4.35,4.743,0.394,5.139c-2.37,0.394-7.51-1.185-7.113-4.349c-0.791,0-1.976-0.394-1.976-0.394L134.778,149.891z"/>
		<path style="fill:#231815;" d="M328.86,129.73c0.791,1.582-0.394,3.161-0.789,4.349c-1.582,3.558-2.372,5.93-1.976,9.882
			c3.159,0.791,3.159,0,5.137-1.582c1.58-1.582,3.161-2.37,4.743-3.558c1.976-1.58,2.769-3.161,1.187-5.534
			c-1.582-1.976-3.558-1.185-5.93-1.976c0-0.791,0.396-0.791,0.791-1.185L328.86,129.73z"/>
		<path style="fill:#231815;" d="M346.648,142.773c0.789,0.791,1.976,1.582,2.765,2.767c0.793,1.187,0.793,1.582,1.98,3.163
			c0.789,1.185,2.371,1.185,3.159,3.161v0.791c-1.976,0.396-3.556-0.791-5.139-0.791c-1.58,0-4.347,1.187-5.532,0.396
			c-2.372-1.582,0-8.301-1.187-11.464c1.187-0.394,2.372,0,3.163,0.791L346.648,142.773z"/>
		<path style="fill:#231815;" d="M349.413,281.124c4.35-0.791,11.069,5.137,12.254,8.695c-1.185,1.976-4.346,1.187-6.324,1.582
			c-3.161,0.791-3.95,3.952-6.324,4.349c-5.532,0.791-2.765-5.139-2.371-7.115c0.394-2.372-1.187-5.93,2.765-5.93V281.124z"/>
		<path style="fill:#231815;" d="M366.018,300.886c1.58-1.185,7.113,7.512,0.789,9.882c-2.37,0.791-4.745,1.187-7.115,0
			c-1.185-0.789-3.556-3.558-3.161-4.743c0.396-1.976,3.952-2.767,5.137-3.952c0.791-1.187-0.394-3.558,2.375-2.767L366.018,300.886
			z"/>
		<path style="fill:#231815;" d="M143.473,283.494c-4.743,0.397,10.278,14.231-0.396,12.649c-1.974-0.394-3.556-2.37-5.928-2.767
			c-2.37-0.394-5.534,0.396-4.745-3.558c0.793-3.952,7.117-6.324,10.673-5.928L143.473,283.494z"/>
		<path style="fill:#231815;" d="M125.291,318.674c-1.185-1.976-4.743-7.906,0.791-8.301c5.534-0.395,5.928,7.115,8.302,9.486
			c-0.793,2.769-9.49,1.582-9.093,0V318.674z"/>
		<path style="fill:#231815;" d="M155.726,246.338c-1.58-2.767-2.371-10.277,1.976-10.277c0.793,2.767,1.98,7.51,0.793,10.671
			l-0.396,0.791c-1.185,0-3.161-0.791-3.161-1.976L155.726,246.338z"/>
		<path style="fill:#231815;" d="M162.447,196.929c0.394-1.582,1.976-2.372,3.163-3.56h0.394c0,1.978,0.396,4.745-0.394,6.324
			c-2.769,3.56-4.745-1.976-3.163-2.37V196.929z"/>
		<path style="fill:#231815;" d="M335.581,210.763c1.582,0.394,2.37,3.952,2.37,5.534c-4.347,0.791-4.347-2.372-3.952-5.93
			c0.394,0,0.789,0,1.582,0V210.763z"/>
		<path style="fill:#231815;" d="M334.788,257.802c0,1.58-1.976,4.743-3.556,5.137c-1.978,0-2.767-2.767-1.978-3.952
			c1.187-1.582,3.163-1.185,4.745-1.185H334.788z"/>
		<path style="fill:#231815;" d="M229.482,134.792c0.347,0.193,1.57,0.609,3.305,0.992l2.913,0.613
			c0.527,0.114,1.071,0.231,1.619,0.365c0.469,0.13,1.083,0.166,1.625,0.229c4.506,0.46,9.131-0.101,10.269-0.294
			c1.765-0.25,3.404-0.775,4.628-1.317c1.237-0.535,2.045-1.087,2.382-1.248c0.67-0.341,1.004-0.432,1.306,0.048
			c0.292,0.469,0.292,0.763-0.521,1.187c-0.398,0.219-1.795,0.815-3.333,1.213c-1.53,0.422-3.181,0.687-3.984,0.84
			c-2.094,0.412-4.366,0.655-6.605,0.73c-1.118,0.039-2.23,0.034-3.311-0.01c-0.54-0.028-1.073-0.057-1.594-0.107l-0.391-0.037
			l-0.193-0.02c-0.055-0.008-0.128-0.006-0.248-0.035l-0.726-0.15l-4.934-0.883c-1.329-0.254-2.272-0.505-2.629-0.598
			c-1.444-0.375-1.26-0.848-1.083-1.242C228.167,134.658,228.916,134.491,229.482,134.792z"/>
		<path style="fill:#231815;" d="M231.62,114.314c-1.974,0-3.558-3.952-1.58-4.743c2.372-1.185,3.952,3.161,2.767,4.347
			c-0.791,0.793-0.394,0-0.394-0.395L231.62,114.314z"/>
		<path style="fill:#231815;" d="M252.571,113.918c-2.767,2.372-3.952-3.952-0.396-5.137c3.954-1.582,2.769,4.348-0.791,5.137
			H252.571z"/>
	</g>
</g>
</svg>
