<?xml version="1.0" encoding="iso-8859-1"?>
<!-- Generator: Adobe Illustrator 18.1.1, SVG Export Plug-In . SVG Version: 6.00 Build 0)  -->
<svg version="1.1" id="_x37_" xmlns="http://www.w3.org/2000/svg" xmlns:xlink="http://www.w3.org/1999/xlink" x="0px" y="0px"
	 viewBox="0 0 512 512" style="enable-background:new 0 0 512 512;" xml:space="preserve">
<g>
	<g>
		<g>
			<path style="fill:#21983A;" d="M369.588,64.419c0.853-1.333,1.096-2.78,1.574-4.265c0.04-0.126,0.095-0.234,0.148-0.343
				c-1.125-6.241-2.944-13.301-5.782-21.267C354.139,6.567,339.555,6.316,339.555,6.316l-1.126,3.938c0,0-3.781-2.275-4.691-4.154
				c-0.913-1.881-2.591,6.075-2.591,6.075c-13.204,44.965,7.268,74.682,25.676,85.403l2.711,1.543c0,0-1.327-3.108-5.446-7.182
				c-21.949-14.715-24.472-43.133-24.931-52.551c-0.458-9.42,3.043-13.617,3.359-15.913c0.316-2.294,3.343-3.047,3.58-4.769
				c0.236-1.722,1.543-2.71,1.543-2.71l2.136,1.462l5.82,0.216c0,0,0.421-4.109,4.829-1.089
				c9.618,6.586,13.561,24.671,16.572,36.782c1.27,5.103,1.906,10.943,2.09,16.679c0.332-0.921,0.743-1.816,1.216-2.693
				C369.364,66.772,368.817,65.62,369.588,64.419z"/>
			<path style="fill:#21983A;" d="M366.62,96.495c-0.734-12.147-0.625-70.486,40.52-92.726c3.121-1.244,3.121-1.244,3.121-1.244
				l5.021,1.171L420.887,0c0,0,7.602,9.655,2.774,30.361c-4.827,20.704-22.058,55.494-36.344,68.992
				c-3.7,6.716-4.978,4.296-3.756,0.639c1.221-3.656,6.978-8.058,13-17.737c4.94-7.944,24.06-41.536,24.545-57.342l-3.759,0.035
				l-5.024-1.778c0,0-1.612-0.75-3.149-1.797c-4.413-2.998-4.413-2.998-4.413-2.998s-1.309-6.674-6.3-4.2
				c-4.989,2.477-28.683,14.839-29.348,81.083C370.441,103.756,366.62,96.495,366.62,96.495z"/>
			<path style="fill:#21983A;" d="M339.271,144.654c-4.979-1.764-4.634-7.934-3.159-14.035c1.315-5.447-1.763-7.695,1.854-15.383
				c8.742-18.577,12.84-12.813,20.188-18.84c3.436-2.477,4.182,2.819,3.189,3.48c-0.989,0.66-14.414,4.777-14.745,5.768
				c-0.33,0.99-3.356,6.235-6.234,10.072c-1.585,2.113-0.959,6.715-1.353,11.422c-0.371,4.416-2.32,9.283-0.58,11.601
				c1.19,1.585-0.113,4.021,3.192,4.35c3.301,0.332,5.195,1.812,3.542,2.803C343.514,146.884,340.887,145.226,339.271,144.654z"/>
			<path style="fill:#21983A;" d="M345.47,146c2.229,2.229,0.559,3.9,4.181,3.343c3.621-0.557,9.751-4.737,10.586-6.688
				c0-1.113-1.114,0.279-2.228,1.115c-1.115,0.836-3.622,2.229-5.294,3.064c-1.672,0.837-3.776,0.09-4.397-0.931
				C347.699,144.885,345.47,146,345.47,146z"/>
			<path style="fill:#21983A;" d="M336.325,138.323c-6.703,4.544-25.73,9.934-36.167,11.608
				c-10.44,1.675-20.215,13.314-29.099,16.623c-10.787,4.018-14.985,4.987-18.869,4.823c-3.882-0.164-6.085,7.766-2.113,9.783
				c3.971,2.02,2.938,3.563,3.971,2.02c1.033-1.542,4.502-4.239,3.214-6.122c-1.919,0.381-2.54,4.784-4.066,3.751
				c-1.526-1.034-2.062-4.539-1.108-5.799c0.956-1.26,2.314-1.798,4.076-1.613c1.761,0.185,11.224-4.508,12.425-4.479
				c1.202,0.028,3.277-0.919,4.277-1.251c0.999-0.333,2.516-1.437,3.312-2.13c0.797-0.694,18.277-11.394,22.195-12.441
				c3.918-1.046,31.53-10.15,35.089-10.992C337.02,141.261,336.325,138.323,336.325,138.323z"/>
			<path style="fill:#21983A;" d="M269.061,186.089c8.676,2.411,10.845-5.396,23.04-12.288c12.195-6.891,15.953-0.239,18.893-4.094
				c2.939-3.855,34.625-11.721,44.842-14.306c2.347-0.594,4.226,2.732,2.907,2.988c-1.317,0.257-1.976,0.387-3.502,0.274
				c-1.528-0.114-25.242,5.423-26.928,5.889c-1.689,0.466-9.671,2.296-11.311,3.709c-1.64,1.414-2.171,2.201-2.988,2.908
				c-0.82,0.706-0.274,2.102-2.668,1.749c-2.394-0.353,0,0.001-2.394-0.353c-2.392-0.353-13.687-0.066-10.346,0.24
				c3.34,0.306-0.657,0.829-1.56,1.124c-3.084,1.013-3.694,2.089-3.694,2.089l-3.952,0.77c0,0,0.545,1.396-0.852,1.944
				c-1.398,0.546-4.836,3.951-5.945,4.578c-1.109,0.626-7.182,4.547-9.078,4.642c-1.896,0.096-2.764-0.145-5.158-0.497
				c-2.392-0.355-3.229-1.833-1.14-3.745C269.32,181.799,269.061,186.089,269.061,186.089z"/>
			<path style="fill:#21983A;" d="M254.603,182.07c-0.644,2.313,1.06,4.033,2.955,3.937c1.896-0.097,1.896-0.097,1.896-0.097
				s4.273,3.681,6.023,0.741c-2.972-0.514-5.235-0.211-4.062-3.31c1.172-3.1-0.757-1.767-1.528-0.113
				c-0.771,1.654-3.229-1.831-3.936-2.651C255.246,179.758,254.603,182.07,254.603,182.07z"/>
			<path style="fill:#21983A;" d="M336.164,212.38c-0.912-2.524-1.543-2.294-1.543-2.294c-5.728,10.206-51.106,15.051-60.209,34.448
				c-0.397,0.845-0.779,1.695-1.153,2.544c0.635,0.084,1.271,0.194,1.902,0.319c0.302-0.154,1.006-0.513,2.669-1.361
				c1.438-0.734,1.313-3.472,2.487-5.751c1.174-2.281,9.815-6.403,12.708-7.878c2.892-1.474,2.928-1.773,5.452-2.686
				c2.523-0.913,6.643-2.546,11.13-4.739c4.488-2.194,11.642-1.356,13.868-2.304c2.225-0.947,5.805-0.529,6.997-0.388
				c1.19,0.14,3.786-1.369,3.786-1.369s0.141-1.192,0.315-2.683c0.175-1.49,1.471-2.245,1.471-2.245S337.078,214.905,336.164,212.38
				z"/>
			<path style="fill:#21983A;" d="M319.546,252.278c-2.521,2.607-5.177,7-7.375,10.625c-2.211,3.623-3.431,4.963-3.202,4.366
				c0.261-0.578,0.107-2.095,1.682-4.967l3.633-6.47c0.369-0.678,0.536-0.83,0.946-1.274c0.418-0.44,1.056-1.188,2.526-2.95
				c1.484-1.756,2.611-2.576,3.221-2.85c0.613-0.269,0.725,0,0.339,0.521C320.532,250.321,319.537,252.278,319.546,252.278z"/>
			<path style="fill:#21983A;" d="M306.753,257.81c-1.867,2.406-4.264,5.908-5.91,8.978c-0.837,1.529-1.354,2.631-1.681,3.285
				c-0.315,0.659-0.472,0.854-0.405,0.596c0.148-0.495-0.057-1.71,1.139-4.158c1.215-2.415,2.362-4.237,2.979-5.337
				c0.633-1.087,0.494-0.542,2.688-3.559c1.099-1.503,1.766-2.343,2.092-2.73c0.313-0.394,0.459-0.287,0.283,0.253
				C307.563,256.179,306.742,257.807,306.753,257.81z"/>
			<path style="fill:#21983A;" d="M293.376,264.842c-1.11,1.847-1.882,4.78-2.577,7.138c-0.709,2.353-1.327,3.321-1.341,2.955
				c0.022-0.361-0.681-1.233-0.266-3.185c0.43-1.922,0.794-3.456,0.947-4.387c0.18-0.918,0.31-0.454,1.449-2.951
				c1.215-2.478,2.301-2.448,2.075-1.698C293.445,263.474,293.37,264.845,293.376,264.842z"/>
			<path style="fill:#21983A;" d="M343.275,250.619c-1.524-0.32-3.475-0.264-5.388,0.186c-1.919,0.437-3.782,1.26-5.273,2.257
				c-1.494,0.996-2.374,1.924-2.924,2.495c-0.538,0.578-0.781,0.76-0.67,0.488c0.12-0.266,0.136-0.74,0.404-1.475
				c0.27-0.719,0.823-1.733,2.062-2.685c2.497-1.871,4.901-2.607,6.279-3.073c0.7-0.219,0.919-0.2,1.491-0.198
				c0.575,0.028,1.506-0.048,3.666,0.148c2.173,0.243,3.347,1.002,3.766,1.455c0.425,0.473,0.195,0.657-0.358,0.503
				C345.193,250.379,343.262,250.598,343.275,250.619z"/>
			<path style="fill:#21983A;" d="M326.516,251.937c-1.267,1.26-2.198,3.618-3.071,5.489c-0.878,1.881-1.707,2.583-1.648,2.264
				c0.09-0.306-0.479-1.143,0.095-2.729c0.585-1.565,1.049-2.832,1.291-3.614c0.276-0.761,0.322-0.347,1.718-2.259
				c0.73-0.945,1.399-1.299,1.792-1.354c0.397-0.057,0.544,0.178,0.387,0.472C326.746,250.788,326.511,251.942,326.516,251.937z"/>
			<path style="fill:#21983A;" d="M272.787,247.577c-15.705,9.696-28.129,21.185-34.441,21.385
				c-7.184,0.228-22.556,6.709-31.357-6.193c-12.58-18.776-22.242-2.29-19.734,1.226c0,0,1.787,4.589,3.687,4.316
				c-0.684-1.464,0.522-3.627,2.603-4.968c-1.371-2.929-2.122,0.069-3.395,0.109c-1.272,0.041,0,0-0.671-1.042
				c-0.673-1.039,0.589-1.504,0.589-1.504s1.587-3.447,2.875-3.064c1.285,0.384,2.708-1.573,6.389,0.642
				c3.68,2.218,5.46,4.709,7.472,7.829c2.011,3.12,7.387,5.284,12.52,6.392c5.131,1.109,19.27-1.682,20.322-1.928
				c1.054-0.247,23.744-14.354,24.566-15.23c0.82-0.876,6.664-4.036,7.883-5.774c0.397-0.567,0.926-1.047,1.505-1.456
				C273.331,248.065,273.061,247.819,272.787,247.577z"/>
			<path style="fill:#21983A;" d="M203.206,278.141c1.599,1.306,4.272,3.021,7.197,3.813c2.907,0.827,5.85,0.883,7.62,1.002
				c1.776,0.138,4.965,0.012,8.036,0.169c3.066,0.151,5.986,0.468,7.227,0.838c1.245,0.367,5.295,0.837,9.041,1.175
				c1.874,0.167,3.671,0.29,5.001,0.335c1.328,0.05,2.186,0.021,2.186,0.021c-0.002-0.008,0.607,0.028,1.543-0.063
				c0.232-0.026,0.49-0.064,0.736-0.145c0.239-0.082,0.502-0.25,0.784-0.375l1.821-0.837l6.895-3.007
				c2.809-1.209,7.496-3.219,10.58-5.08c3.087-1.859,3.987-4.87,7.156-5.226c3.164-0.366,2.184,1.133,0.43,3.485
				c-1.751,2.351-3.909,3.813-5.973,4.183c-2.064,0.371-3.471,0.978-6.282,2.186c-1.403,0.605-4.71,2.282-8.113,4.02l-4.904,2.535
				l-1.081,0.596c-0.6,0.272-0.934,0.325-1.232,0.395c-0.3,0.061-0.548,0.094-0.783,0.121c-0.919,0.099-1.598,0.094-2.158,0.085
				c-2.217-0.054-5.409-0.496-8.075-0.907l-4.795-0.774l-4.037-0.438c-2.015-0.205-3.064,0.175-5.056,0.016
				c-2.005-0.172-4.369-1.213-5.972-0.769c-1.568,0.406-3.631,0.404-6.914-0.017c-1.654-0.234-2.734-0.733-3.772-1.222
				c-1.043-0.507-2.061-0.987-3.687-1.545c-1.632-0.574-2.93-1.464-3.981-2.339c-1.056-0.881-1.888-1.764-2.677-2.478
				c-0.784-0.718-0.542-1.158,0.166-1.153C200.845,276.74,202.01,277.172,203.206,278.141z"/>
			<path style="fill:#21983A;" d="M193.503,268.654c0.397-0.863,4.132-3.53,3.147-1.163c-0.986,2.366-2.641,3.694-0.658,5.966
				c1.985,2.271,3.872,1.574,5.338,0.89c1.464-0.683-0.082,4.036-2.668,2.846c-2.588-1.189-8.266-6.104-7.721-8.88
				C191.255,266.726,193.503,268.654,193.503,268.654z"/>
			<path style="fill:#21983A;" d="M385.668,136.175c0,0-1.341-2.48-4.34-1.187c-3,1.294-3.123,5.471-2.25,4.505
				c0.876-0.967,2.009-1.909,4.11-1.977c2.101-0.068,2.898,2.624,2.898,2.624L385.668,136.175z"/>
			<path style="fill:#21983A;" d="M357.96,144.555l-0.074,0.04c1.316,3.347,0.714,6.46-1.173,6.46c-2.158,0-3.117,1.2-1.918,1.679
				c1.199,0.48,2.399-0.719,3.118-0.719c0.719,0,1.679-0.479,1.919-1.199c0.238-0.719,0.238-3.118,0.238-3.118l-1.056-3.87
				C358.66,144.064,358.304,144.301,357.96,144.555z"/>
			<path style="fill:#21983A;" d="M356.422,151.278c0.856,0.531,0.184,0.469,1.404,1.938c1.222,1.469,1.815-0.06,4.18-1.198
				c2.365-1.139,2.875-1.769,4.284-4.805c1.41-3.035,1.163-0.346,1.059,0.776c-0.103,1.121-1.551,2.117-1.837,2.77
				c-0.286,0.652-1.734,1.649-1.734,1.649s-0.714,0.386-1.652,0.752c-0.937,0.366-3.058,1.301-3.058,1.301s-1.203,0.793-1.569-0.144
				c-0.365-0.938-2.259-2.469-2.259-2.469L356.422,151.278z"/>
			<path style="fill:#21983A;" d="M354.24,129.275c-1.519-0.319-1.279,0.161-2.4-0.797c-1.118-0.96-2.158-2.796-1.837-4.636
				c0.32-1.839,0.479-1.998,1.118-2.877c0.641-0.879,0.32-0.879,0.8-1.36c0.48-0.478,1.04-0.559,1.04-0.559
				c1.119,0.158,1.251-0.208,1.517-0.32c0.959-0.399,0.641-0.399,1.519-0.159c0.878,0.239,1.279-0.08,1.919,0.638
				c0.638,0.72,0.958,1.041,1.438,1.6c0.479,0.558,0.719,0.32,0.959,1.358c0.239,1.039,0.159,1.438,0.159,1.838
				c0,0.401,0.239,0.48,0.239,0.96c0,0.48-0.399,1.36-0.959,2.079c-0.559,0.72-0.799,0.639-1.598,1.198
				c-0.801,0.56-1.52,0.96-1.998,0.96c-0.48,0-0.4,0.239-0.798,0.4C354.959,129.755,354.24,129.275,354.24,129.275z"/>
			<path style="fill:#21983A;" d="M383.965,130.772c2.151,0.608,5.301,0.76,7.849,0.495l2.732-0.284
				c0.549-0.049,0.744-0.008,0.556,0.057c-0.371,0.111-0.996,0.858-3.027,1.171c-2.02,0.278-3.654,0.279-4.614,0.307
				c-0.48,0.01-0.614-0.033-0.979-0.117c-0.365-0.091-0.965-0.209-2.353-0.491c-2.771-0.62-3.099-1.366-2.312-1.23
				C382.615,130.797,383.966,130.778,383.965,130.772z"/>
			<path style="fill:#21983A;" d="M391.713,126.826c0.535,0.188,1.113,0.372,1.703,0.445c0.147,0.016,0.295,0.027,0.442,0.027
				l0.225,0.021l0.117,0.02l0.239,0.035c0.321,0.043,0.648,0.064,0.978,0.067c1.329,0.011,2.679-0.342,3.882-0.774
				c1.204-0.437,2.061-0.797,2.594-0.968c0.531-0.176,0.729-0.178,0.559-0.072c-0.348,0.189-0.768,1.057-2.664,1.887
				c-1.897,0.809-3.592,1.058-4.595,1.104c-0.503,0.025-0.647-0.02-1.029-0.117l-0.305-0.088l-0.165-0.021
				c-0.089-0.007-0.181-0.02-0.281-0.035c-0.406-0.059-0.936-0.178-1.621-0.382c-1.356-0.427-2.057-0.699-2.426-0.855
				c-0.361-0.16-0.317-0.324,0.107-0.357C390.316,126.703,391.722,126.838,391.713,126.826z"/>
			<path style="fill:#21983A;" d="M397.214,122.449c1.707,0.427,4.248-0.142,6.191-0.836c1.952-0.688,2.814-1.005,2.577-0.783
				c-0.258,0.17-0.547,0.981-2.114,1.643c-1.554,0.632-2.861,0.97-3.64,1.177c-0.389,0.102-0.509,0.082-0.823,0.064
				c-0.318-0.036-0.829-0.018-2.025-0.151c-1.206-0.157-1.852-0.596-2.077-0.859c-0.231-0.269-0.096-0.386,0.211-0.303
				C396.147,122.587,397.219,122.46,397.214,122.449z"/>
			<path style="fill:#21983A;" d="M325.79,125.274c-3.68-2.428-8.229-5.183-13.05-7.844c-4.816-2.671-9.906-5.239-14.583-7.466
				c-4.675-2.228-7.986-3.721-9.925-4.636c-1.943-0.906-2.513-1.238-1.787-0.955c1.442,0.589,4.541,1.249,11.649,4.493
				c7.089,3.274,12.619,6.184,15.849,7.879c1.614,0.851,2.052,1.137,3.27,1.892l7.842,4.889c4.614,2.931,7.215,4.892,8.369,5.853
				c1.15,0.965,0.843,0.951-0.474,0.117C330.323,127.816,325.795,125.262,325.79,125.274z"/>
			<path style="fill:#21983A;" d="M326.116,132.22c-3.261-1.125-7.395-1.917-11.708-2.413c-4.319-0.503-8.824-0.735-12.922-0.911
				c-8.2-0.302-11.505-0.628-10.268-0.657c1.236,0.015,3.703-0.474,9.886-0.326c6.182,0.163,11.124,0.516,14.012,0.787
				c1.445,0.137,1.853,0.225,2.972,0.444c1.111,0.257,2.964,0.508,7.168,1.682c4.207,1.225,6.451,2.713,7.369,3.469
				c0.913,0.787,0.642,0.786-0.412,0.171c-1.066-0.605-2.582-1.224-3.843-1.62C327.109,132.446,326.115,132.223,326.116,132.22z"/>
			<path style="fill:#21983A;" d="M327.177,138.537c-2.741,0.116-6.04,0.509-9.318,1.429c-3.286,0.903-6.496,2.388-9.264,4.018
				c-2.77,1.626-4.631,2.931-5.763,3.653c-1.124,0.735-1.504,0.92-1.126,0.608c0.38-0.308,0.879-0.854,1.787-1.681
				c0.91-0.823,2.225-1.944,4.32-3.241c4.191-2.606,7.962-3.948,10.174-4.619c1.111-0.333,1.444-0.374,2.341-0.513
				c0.9-0.117,2.366-0.384,5.8-0.663c3.436-0.247,5.483-0.082,6.42,0.048c0.937,0.147,0.772,0.308-0.203,0.366
				C330.391,138.04,327.172,138.522,327.177,138.537z"/>
			<path style="fill:#21983A;" d="M380.096,133.882c4.339,0.501,9.539,1.297,14.882,2.345c5.345,1.038,10.836,2.304,15.792,3.568
				c9.904,2.555,13.757,3.992,12.273,3.612c-1.491-0.367-4.566-0.713-12.009-2.548c-7.442-1.833-13.451-3.032-16.976-3.605
				c-1.763-0.29-2.259-0.406-3.631-0.697c-1.374-0.267-3.618-0.781-8.925-1.433c-5.31-0.624-8.486-0.793-9.949-0.971
				c-1.464-0.163-1.214-0.322,0.325-0.361C374.95,133.697,380.096,133.861,380.096,133.882z"/>
			<path style="fill:#21983A;" d="M376.332,95.567c0-4.202,7.803-21.61,9.004-24.011"/>
			<path style="fill:#21983A;" d="M377.763,92.757c-0.09,1.423-0.617,2.27-1.122,2.635c-0.253,0.181-0.53,0.251-0.753,0.065
				c-0.225-0.184-0.377-0.629-0.317-1.285c0.053-0.661,0.407-2.183,1.056-4.094c0.643-1.915,1.556-4.241,2.57-6.614
				c2.031-4.747,4.449-9.684,5.816-11.966c0.508-0.684-1.505,3.97-3.457,9.175c-0.983,2.599-1.96,5.33-2.658,7.562
				C378.193,90.469,377.789,92.198,377.763,92.757z"/>
			<path style="fill:#21983A;" d="M338.517,141.335c2.551-0.149,3.001-1.05,3.601-1.5c0.6-0.45-0.45,3.002-1.951,3.151
				C338.666,143.137,338.517,141.335,338.517,141.335z"/>
			<path style="fill:#21983A;" d="M345.819,167.119c1.069,0.654,2.973,1.557,4.858,2.602c1.886,1.04,3.752,2.229,4.767,3.253
				c1.019,1.014,2.411,2.223,3.659,3.386c1.253,1.158,2.357,2.276,2.937,2.911c0.582,0.633,1.428,1.416,2.426,2.51
				c0.986,1.098,2.149,2.518,3.097,4.535c0.919,2.035,1.077,3.07,1.157,4.042c0.026,0.975-0.024,2.022-0.726,4.155
				c-0.694,2.122-1.92,4.799-3.194,6.464c-1.261,1.667-2.223,2.38-1.828,1.048c0.666-2.521,1.807-4.916,2.494-7.267
				c0.715-2.315,0.8-4.562,0.37-5.587c-0.419-1.015-0.676-1.89-1.084-2.878c-0.404-0.978-0.974-2.066-2.089-3.239
				c-1.124-1.162-2.1-1.891-3.095-2.577c-0.999-0.682-2.025-1.315-3.392-2.14c-2.723-1.602-3.692-3.989-6.727-5.313
				c-1.513-0.639-1.518-0.628-1.809-0.801c-0.296-0.164-0.868-0.533-3.613-1.735c-2.742-1.184-4.001-2.956-3.723-4.021
				C340.574,165.419,342.447,165.076,345.819,167.119z"/>
			<path style="fill:#21983A;" d="M357.08,207.851c-2.103,1.126-3.045,1.189-3.919,1.35c-0.892,0.128-1.714,0.353-3.927,1.135
				c-2.244,0.723-2.26,0.879-2.232,1.019c0.009,0.086,0.036,0.203-2.46,0.08c-1.259-0.094-2.041-0.46-2.362-0.813
				c-0.329-0.363-0.203-0.688,0.112-0.958c0.651-0.524,1.939-1.02,3.249-1.145c1.318-0.126,1.715-0.218,2.438-0.352
				c0.714-0.164,1.789-0.321,4.313-1.25c2.497-0.948,4.563-1.395,5.681-1.262C359.067,205.76,359.169,206.657,357.08,207.851z"/>
			<path style="fill:#21983A;" d="M421.102,214.19c2.196-1.861,3.868-2.867,6.694-5.5c1.408-1.32,3.134-3.014,4.661-4.658
				c1.532-1.639,2.858-3.234,3.608-4.2c0.757-0.96,1.696-2.249,2.492-3.496c0.801-1.245,1.45-2.447,1.781-3.116
				c0.332-0.667,0.721-1.313,1.131-2.233c0.399-0.92,0.836-2.126,1.054-3.89c0.199-1.763,0.198-2.894,0.196-4.017
				c-0.019-1.121-0.043-2.244-0.281-3.961c-0.233-1.72-0.93-4.225-1.941-6.636c-0.997-2.419-2.244-4.763-3.145-6.463
				c-1.807-3.398-3.794-6.687-6.916-11.507c-1.568-2.409-3.683-3.298-1.848-0.507c1.824,2.796,2.331,3.606,3.071,5.386
				c0.757,1.775,3.156,5.839,4.288,7.37c0.581,0.759,1.493,2.69,2.225,4.729c0.749,2.037,1.256,4.172,1.525,5.277
				c0.288,1.103,0.729,2.871,0.895,4.677c0.187,1.803,0.063,3.628-0.156,4.744c-0.214,1.117-0.621,2.426-1.329,4.171
				c-0.714,1.746-1.746,3.932-3.411,6.789c-0.376,0.637-0.867,1.449-1.908,2.807c-1.045,1.353-2.642,3.258-5.362,5.926
				c-1.343,1.344-3.951,4.15-5.039,5.087c-1.068,0.967-5.482,3.851-7.135,6.371C414.601,219.88,418.909,216.059,421.102,214.19z"/>
			<path style="fill:#21983A;" d="M352.337,265.176c0.283,0.438,0.737,1.033,1.437,1.534c0.693,0.504,1.635,0.89,2.727,0.88
				c1.089-0.005,2.317-0.428,3.466-1.224c0.579-0.39,1.133-0.877,1.664-1.409c0.615-0.624,1.285-1.232,1.966-1.796
				c5.518-4.485,12.035-7.037,14.646-8.058c1.319-0.493,4.511-1.706,8.806-2.783c2.151-0.53,4.567-1.042,7.22-1.292
				c0.663-0.061,1.345-0.101,2.048-0.107c0.788-0.009,1.526,0.086,2.224,0.196c1.396,0.236,2.717,0.571,4.021,0.929
				c5.185,1.47,10.129,3.231,14.176,4.554l8.315,2.735c2.385,0.837,6.624,2.109,10.765,2.968c4.139,0.899,8.16,1.217,9.979,1.166
				c1.828-0.009,4.138-0.188,6.277-0.97c2.172-0.766,4.192-2.066,5.664-3.389c0.743-0.654,1.674-1.592,2.567-2.739
				c0.889-1.148,1.748-2.494,2.416-3.87c1.38-2.742,1.96-5.531,2.111-6.513c0.181-0.977,0.438-3.821-0.134-6.779
				c-0.266-1.477-0.731-2.961-1.291-4.252c-0.557-1.294-1.209-2.39-1.737-3.19c-0.521-0.8-1.585-2.245-3.299-3.693
				c-0.829-0.702-1.94-1.5-3.076-2.278c-1.149-0.784-2.392-1.568-3.681-2.328c-5.157-3.061-11.136-5.549-14.642-6.864
				c-7.02-2.712-13.506-4.168-12.051-4.831c1.443-0.673,2.754-0.572,4.186-0.929c1.443-0.335,3.232,1.157,8.12,2.686
				c2.448,0.778,6.056,2.15,9.902,3.948c3.851,1.787,7.922,4.024,11.404,6.283c0.438,0.281,0.857,0.565,1.274,0.858
				c0.428,0.306,0.84,0.622,1.233,0.951c0.783,0.659,1.491,1.361,2.123,2.088c1.269,1.453,2.205,3.016,2.896,4.54
				c1.372,3.076,1.723,5.974,1.766,8.436c0.06,2.481-0.527,5.942-1.798,9.082c-1.235,3.167-3.092,5.955-4.481,7.87
				c-1.345,1.953-3.855,4.326-6.749,5.754c-1.434,0.728-2.926,1.24-4.283,1.54c-1.353,0.3-2.542,0.42-3.406,0.531
				c-0.864,0.111-2.468,0.192-4.454,0.108c-1.985-0.084-4.346-0.34-6.739-0.709c-4.788-0.735-9.692-1.901-12.258-2.281
				c-2.575-0.368-7.552-2.036-12.327-3.807c-4.777-1.777-9.413-3.503-11.402-3.951c-1.985-0.461-2.091-0.166-2.161-0.067
				c-0.033,0.058-0.048,0.087-0.256,0.008c-0.22-0.066-0.563-0.272-1.372-0.505c-1.781-0.453-3.106-0.624-4.276-0.697
				c-1.179-0.059-2.249,0.022-3.695,0.355c-1.449,0.311-6.428,1.87-11.061,4.04c-2.324,1.066-4.564,2.257-6.323,3.296
				c-1.764,1.034-3.048,1.911-3.596,2.211c-1.099,0.602-1.887,1.288-2.55,1.933c-0.686,0.649-1.152,1.237-1.929,1.787
				c-0.756,0.507-1.281,0.743-1.926,1.079c-0.66,0.309-1.405,0.807-2.96,1.265c-0.786,0.211-1.328,0.226-1.728,0.225
				c-0.401-0.005-0.669-0.047-0.966-0.087c-0.294-0.052-0.622-0.104-1.135-0.253c-0.505-0.156-1.218-0.389-2.147-1.016
				c-0.919-0.642-1.329-1.094-1.604-1.346c-0.266-0.264-0.379-0.363-0.522-0.537c-0.131-0.179-0.314-0.428-0.595-1.056
				c-0.264-0.628-0.686-1.647-0.814-3.397c-0.106-1.761,0.415-3.092,0.923-3.788c0.521-0.709,1.009-0.843,1.263-0.504
				c0.273,0.341,0.299,1.148,0.385,2.419C350.992,261.388,351.132,263.224,352.337,265.176z"/>
			<path style="fill:#21983A;" d="M420.303,125.44c5.673,0.887,10.296,2.459,15.328,4.19c5.037,1.762,10.47,3.873,17.826,6.535
				c3.685,1.321,6.561,2.373,9.036,3.124c1.302,0.369,2.256,0.609,3.137,1.068c0.866,0.431,1.586,0.949,2.183,1.527
				c1.189,1.159,1.922,2.514,2.312,4.088c0.372,1.571,0.432,3.415-0.228,5.534c-0.698,2.111-1.739,3.334-2.654,4.171
				c-0.901,0.787-1.937,1.377-2.929,2.05c-2.036,1.357-4.571,2.838-10.213,6.832c-2.809,2.023-4.159,3.143-4.788,3.658
				c-0.624,0.523-0.52,0.452-0.314,0.307c0.206-0.145,0.517-0.359,0.306-0.126c-0.106,0.116-0.341,0.345-0.78,0.759l-0.815,0.775
				l-1.112,1.088c-0.762,0.717-1.547,1.191-2.115,1.299c-0.557,0.106-0.896-0.015-1.284-0.379c-0.369-0.362-0.628-0.918-0.761-1.438
				c-0.137-0.527-0.165-1.036-0.135-1.476c0.062-0.889,0.34-1.505,0.55-1.887c0.216-0.386,0.363-0.556,0.358-0.559
				c-1.299,0.651-2.251,2.227-2.335,3.98c-0.044,0.875,0.097,1.814,0.603,2.699c0.478,0.88,1.516,1.677,2.717,1.815
				c1.31-0.026,2.349-0.59,3.18-1.191c0.419-0.307,0.797-0.642,1.15-0.989l0.943-0.958c1.239-1.233,2.556-2.414,3.905-3.561
				c2.702-2.295,5.535-4.463,8.412-6.579l2.642-1.746l2.864-1.877c1.146-0.723,2.331-1.816,3.219-3.146
				c1.826-2.651,2.544-6.325,1.74-9.518c-0.385-1.593-1.13-3.039-2.047-4.167c-0.918-1.131-1.978-1.947-2.925-2.491
				c-0.945-0.55-2.024-0.995-3.156-1.311c-0.982-0.279-2.02-0.645-3.074-1.039c-2.111-0.796-4.299-1.713-6.433-2.611
				c-4.265-1.807-8.33-3.53-11.091-4.559c-2.759-1.029-6.995-2.349-11.782-3.56c-4.79-1.192-10.128-2.329-15.145-2.539
				c-2.513-0.095-4.307,0.314-5.274,0.751c-0.974,0.447-1.155,0.796-0.736,0.885c0.418,0.094,1.431-0.005,3.042,0
				C415.241,124.874,417.469,125.022,420.303,125.44z"/>
			<path style="fill:#21983A;" d="M438.889,242.284l-0.101-0.131l-0.385-0.057c-0.163-0.079-0.279-0.188-0.366-0.315
				c-0.175-0.253-0.231-0.576-0.246-0.93c-0.021-0.352,0.027-0.746,0.03-1.135c-0.015-0.381,0.022-0.79,0.069-1.192
				c0.09-0.804,0.194-1.579-0.188-1.799c-0.102-0.059-0.246-0.09-0.443-0.09c-0.098,0.001-0.21,0.008-0.335,0.025l-0.199,0.03
				c-0.056,0.003-0.207,0.031-0.104-0.005l0.074-0.034l-0.028-0.005l-0.063-0.003l-0.177,0.024c-0.141,0.028-0.328,0.08-0.566,0.153
				c-0.962,0.296-2.532,0.499-4.281,0.578c-1.755,0.082-3.714,0.053-5.608-0.038c-3.794-0.184-7.328-0.611-8.727-0.843
				c-1.388-0.218-5.215-0.874-9.956-1.469c-2.382-0.279-4.968-0.595-7.75-0.56c-1.379,0.036-2.91,0.164-4.401,0.824
				c-0.734,0.325-1.372,0.755-1.904,1.138c-0.537,0.388-1.001,0.738-1.47,1.048c-1.813,1.236-4.203,2.129-6.733,2.983
				c-2.528,0.839-5.189,1.584-7.795,2.267c-2.608,0.682-5.166,1.298-7.519,1.842l-3.356,0.757l-1.534,0.324
				c-0.531,0.113-1.03,0.243-1.502,0.382c-3.75,1.169-5.634,2.517-7.201,3.761c-1.519,1.306-2.819,2.588-4.32,5.091
				c-0.716,1.274-0.879,2.199-0.794,2.673c0.082,0.477,0.411,0.521,0.853,0.209c0.444-0.313,1.007-0.975,1.745-1.876
				c0.736-0.906,1.641-2.058,2.897-3.395c1.255-1.341,2.88-2.484,4.68-3.346c0.9-0.428,1.844-0.792,2.81-1.076
				c0.483-0.143,0.965-0.264,1.461-0.365l1.546-0.332c4.075-0.909,7.983-1.814,11.326-2.671c1.67-0.436,4.505-1.085,7.866-2.082
				c1.68-0.513,3.491-1.082,5.349-1.96c0.924-0.439,1.844-0.992,2.683-1.559c0.849-0.574,1.561-1.048,2.303-1.274
				c1.491-0.473,3.417-0.328,5.202-0.146c1.803,0.201,3.545,0.495,5.122,0.774l6.93,1.313c5.1,0.918,11.476,1.235,16.115,1.83
				c2.327,0.305,4.109,0.859,5.598,1.149c0.743,0.143,1.411,0.219,2.012,0.153c0.3-0.033,0.582-0.101,0.846-0.216l0.193-0.095
				l0.32-0.16L438.889,242.284z"/>
			<path style="fill:#21983A;" d="M408.087,123.482c-0.028-0.355-0.289-1.297-0.736-2.233c-0.428-0.939-1.017-1.855-1.227-2.242
				c-0.197-0.391-1.147-1.83-2.259-3.192c-1.098-1.37-2.312-2.664-2.463-3.117c-0.285-0.924-1.887-2.439-2.392-2.859
				c-0.494-0.435-1.28-1.09-1.858-1.536c-0.569-0.46-1.935-1.43-2.24-1.624c-0.306-0.219-2.135-0.402-2.735-0.72
				c-0.302-0.174-1.179-0.532-2.105-0.834c-0.93-0.309-1.889-0.53-2.403-0.666c-1.047-0.299-1.794-0.315-1.543-1.955
				c0.318-1.626,0.606-2.014,1.029-3.199c0.459-1.18,0.632,0.499,1.673,0.345c1.106-0.15,2.982,0.542,4.76,0.532
				c1.82-0.01,2.439,1.34,2.965,2.156c0.563,0.837,0.903,3.081,1.815,3.263c0.945,0.187,1.901,1.501,2.637,1.604
				c0.762,0.079,3.061,1.677,4.629,1.572c0.792-0.068,1.422,0.769,1.873,1.703c0.456,0.935,0.723,1.964,0.968,2.298
				c0.493,0.67,1.389-0.897,0.489,0.676c-0.918,1.561-1.494,2.188-1.2,2.648c0.146,0.228,0.997,0.817,1.766,1.521
				c0.769,0.696,1.438,1.524,1.333,1.834c-0.21,0.604,0.674,0.658,0.385,1.112c-0.3,0.45-0.668,0.615-0.135,1.081
				c0.523,0.497,0.081,0.298,1.016,0.953c0.905,0.728,0.866-0.025,0.939,1.345c0.017,0.727-1.264,1.031-2.483,0.846
				C409.344,124.602,408.168,124.213,408.087,123.482z"/>
			<path style="fill:#21983A;" d="M453.937,161.714c-0.287-0.911-0.12-1.649-0.622-2.874c-0.479-1.225-1.493-3.004-2.065-3.69
				c-0.504-0.715-1.568-1.73-2.05-2.038c-0.44-0.297-0.768-1.031-2.204-1.115c-0.7-0.014-1.122,0.024-1.535,0.028
				c-0.412,0.009-0.817-0.008-1.435,0.043c-0.633,0.049-1.483,0.303-2.349,0.708l-2.117,1.165c-0.575,0.32-1.161,0.666-1.733,1.273
				c-0.278,0.307-0.563,0.688-0.722,1.199c-0.17,0.504-0.164,1.121,0.013,1.67c0.184,0.572,0.767,0.745,1.149,0.641
				c0.394-0.101,0.623-0.415,0.433-0.777c-0.312-0.72-0.17-0.943,0.263-1.06c0.224-0.04,0.432-0.174,0.725-0.418
				c0.285-0.239,0.63-0.552,0.781-0.85c0.149-0.302,0.776-0.501,1.466-0.63c0.372-0.077,0.658-0.104,0.908-0.102
				c0.282-0.013,0.519-0.02,0.673-0.049c0.309-0.066,0.784-0.23,1.276-0.32c0.488-0.09,0.995-0.094,1.29-0.007
				c0.297,0.088,0.606,0.297,1.042,0.546c0.438,0.259,1.012,0.546,1.947,1.041c0.387,0.237,1.123,0.6,2.179,2.789
				c0.262,0.537,1.061,1.541,1.208,1.987c0.171,0.451-0.075,2.253,1.252,2.868C455.05,164.38,454.228,162.629,453.937,161.714z"/>
			<path style="fill:#21983A;" d="M445.611,157.284c-0.316,0.165-0.704-0.06-1.122,0.167l-1.282,0.708l-0.809,0.448
				c-0.151,0.083-0.484-0.169-0.653,0.356c-0.171,0.523-0.273,0.579-0.625,0.762c-0.35,0.184-0.891,0.88-1.307,1.064
				c-0.411,0.188-0.826,0.366-1.454,0.597c-0.304,0.107-0.06,1.64,0.345,1.497c0.406-0.141,0.512-0.188,0.883,0.076
				c0.373,0.266,0.956,0.017,1.015-0.434c0.063-0.441,1.15-0.122,1.425-0.264c0.273-0.136,0.676-0.781,0.934-0.92
				c0.259-0.14,0.81-0.005,1.153-1.067c0.076-0.238,0.222-0.562,1.033-1.009c0.202-0.112,0.428-0.667,0.582-0.75
				c0.158-0.085,1.063,0.302,0.858-0.876C446.394,156.455,445.924,157.118,445.611,157.284z"/>
			<path style="fill:#21983A;" d="M447.207,164.292c-0.277,0.115-0.611-0.158-0.978-0.001l-1.134,0.487l-0.718,0.305
				c-0.134,0.056-0.412-0.241-0.578,0.24c-0.169,0.479-0.26,0.516-0.573,0.636c-0.309,0.123-0.809,0.712-1.176,0.827
				c-0.363,0.119-0.728,0.228-1.272,0.359c-0.257,0.057-0.177,1.601,0.186,1.521c0.365-0.077,0.458-0.109,0.764,0.207
				c0.307,0.315,0.835,0.156,0.912-0.273c0.079-0.42,1.009,0.057,1.257-0.037c0.247-0.091,0.63-0.653,0.862-0.748
				c0.232-0.094,0.711,0.122,1.055-0.853c0.075-0.218,0.215-0.507,0.94-0.819c0.181-0.078,0.393-0.583,0.53-0.641
				c0.14-0.06,0.922,0.441,0.769-0.731C447.907,163.594,447.484,164.176,447.207,164.292z"/>
			<path style="fill:#21983A;" d="M383,171.639l0.272,0.15l0.218,0.129l0.145,0.104l0.534,0.384c0.368,0.253,0.755,0.51,1.163,0.757
				c0.811,0.503,1.702,0.972,2.619,1.422c1.841,0.892,3.823,1.63,5.647,2.229c1.826,0.594,3.127,0.977,3.898,1.249
				c0.771,0.256,1.002,0.423,0.711,0.383c-0.57-0.1-1.852,0.37-4.752-0.427c-2.875-0.822-5.097-1.728-6.409-2.25
				c-0.652-0.269-0.818-0.389-1.272-0.707l-2.939-1.998c-0.084-0.076-0.382-0.202-0.573-0.316c-0.211-0.117-0.413-0.236-0.599-0.363
				c-0.374-0.251-0.691-0.536-0.918-0.839c-0.469-0.613-0.499-1.209-0.453-1.513c0.14-0.634,0.333-0.464,0.464,0.048
				C381.029,171.261,383.019,171.621,383,171.639z"/>
			<path style="fill:#21983A;" d="M394.949,173.307c0.914,0.782,2.28,1.44,3.755,1.942c1.478,0.511,3.07,0.881,4.52,1.252
				c2.905,0.714,4.052,1.366,3.596,1.313c-0.449-0.079-1.434,0.343-3.693-0.106c-2.251-0.458-4.056-0.885-5.13-1.157
				c-0.538-0.134-0.673-0.227-1.05-0.445c-0.367-0.241-1.014-0.525-2.411-1.454c-1.395-0.967-1.893-1.955-1.99-2.418
				c-0.099-0.478,0.127-0.501,0.423-0.176C393.576,172.748,394.952,173.324,394.949,173.307z"/>
			<path style="fill:#21983A;" d="M405.527,171.637c1.775,1.521,4.792,2.894,7.327,3.809c2.536,0.915,3.614,1.433,3.193,1.414
				c-0.402-0.072-1.351,0.392-3.421-0.228c-2.045-0.641-3.632-1.298-4.583-1.657c-0.475-0.183-0.583-0.285-0.9-0.526
				c-0.311-0.251-0.842-0.618-2.066-1.489c-1.219-0.883-1.776-1.613-1.958-2.016c-0.181-0.407,0.009-0.505,0.363-0.278
				C404.194,171.131,405.527,171.646,405.527,171.637z"/>
			<path style="fill:#21983A;" d="M415.98,171.496c0.799,0.878,2.193,1.857,3.031,2.99c0.836,1.13,0.76,1.904,0.633,1.742
				c-0.138-0.155-0.799-0.133-1.477-0.885c-0.685-0.752-1.347-1.239-1.78-1.468c-0.431-0.23-0.089-0.292-1.139-1.246
				c-1.06-0.933-0.859-1.614-0.455-1.453C415.194,171.336,415.982,171.491,415.98,171.496z"/>
			<path style="fill:#21983A;" d="M421.991,167.736c0.288,1.112,1.462,2.446,1.839,4.002c0.181,0.771,0.076,1.362-0.056,1.679
				c-0.134,0.322-0.272,0.404-0.272,0.298c-0.014-0.231-0.512-0.613-0.794-1.542c-0.311-0.959-0.849-1.64-1.183-2.023
				c-0.34-0.394-0.03-0.29-0.678-1.698c-0.314-0.723-0.283-1.244-0.161-1.491c0.123-0.251,0.328-0.257,0.446-0.075
				C421.366,167.263,421.989,167.741,421.991,167.736z"/>
			<path style="fill:#21983A;" d="M428.519,165.808c0.295,0.951,0.661,2.083,0.868,3.321c0.209,1.228,0.238,2.595-0.175,3.797
				c-0.414,1.214-1.196,1.835-1.655,2.048c-0.478,0.216-0.666,0.166-0.53,0.07c0.134-0.103,0.266-0.361,0.425-0.748
				c0.16-0.39,0.352-0.882,0.579-1.607c0.436-1.489,0.108-2.813-0.117-3.501c-0.123-0.352-0.11-0.459-0.121-0.754
				c-0.019-0.292-0.034-0.785-0.405-1.845c-0.381-1.053-0.564-1.695-0.56-2.06c-0.002-0.359,0.189-0.429,0.424-0.167
				C427.717,164.872,428.524,165.8,428.519,165.808z"/>
			<path style="fill:#21983A;" d="M451.684,149.066c0.084-0.448-0.913-0.606-1.942-0.458c-1.036,0.139-2.132,0.43-2.38,0.591
				c-0.255,0.172,0.116,0.298,0.492,0.639c0.381,0.321,0.75,0.822,0.546,1.278c-0.409,0.888-1.576,1.53-2.036,2.435
				c-0.228,0.456,1.111,0.831,2.271,0.889c0.581,0.04,1.115,0.041,1.399-0.02c0.287-0.069,0.317-0.194-0.045-0.603
				c-0.377-0.451-0.349-0.675-0.224-0.876c0.128-0.21,0.366-0.403,0.495-0.998c0.101-0.479,0.397-0.876,0.701-1.338
				C451.265,150.15,451.573,149.618,451.684,149.066z"/>
		</g>
		<g>
			<path style="fill:#21983A;" d="M184.698,237.012c-3.514-1.688-8.838-4.174-14.216-5.718c-2.674-0.761-5.378-1.264-7.641-1.187
				c-0.262,0.005-0.581,0.023-0.917,0.046l-0.96,0.054l-1.816,0.073c-1.158,0.037-2.211,0.052-3.129,0.052
				c-7.326-0.028-12.143,0.343-16.963,0.869c-2.4,0.261-5.725,0.769-9.259,1.418c-1.741,0.338-3.545,0.754-5.186,1.332
				c-0.812,0.287-1.591,0.629-2.171,1.005l-0.185,0.128l-0.081,0.067l-0.143,0.148c-0.086,0.106-0.145,0.235-0.148,0.37
				c0.007,0.286,0.107,0.442,0.264,0.672c0.277,0.352,0.587,0.665,0.816,0.916c0.475,0.505,0.669,0.811,0.565,0.981
				c-0.099,0.166-0.483,0.189-1.038,0.032c-0.544-0.157-1.286-0.5-1.917-1.125c-0.309-0.316-0.636-0.741-0.765-1.288
				c-0.14-0.547,0.011-1.176,0.377-1.696c0.788-1.076,2.018-1.709,3.185-2.235c2.388-1.018,4.828-1.521,6.346-1.767
				c1.523-0.234,6.207-0.888,10.847-1.348c4.638-0.477,9.212-0.766,10.429-0.844c1.217-0.086,4.719-0.384,8.341-0.742l2.702-0.295
				c0.941-0.112,1.893-0.141,2.753-0.113c1.731,0.059,3.179,0.303,4.104,0.493c1.858,0.384,4.201,1.277,6.576,2.188
				c2.383,0.907,4.824,1.814,7.067,2.089c4.492,0.586,4.112,1.438,5.17,3.431C188.751,237.034,188.481,238.866,184.698,237.012z"/>
			<path style="fill:#21983A;" d="M160.418,222.64c-1.962,2.243-2.107,3.424-5.005,3.687c-2.897,0.264-3.687-1.316-0.79-2.633
				s5.005-5.005,7.903-7.112c2.897-2.107,6.058-4.478,7.375-2.634c1.316,1.844,6.849,7.64,6.849,14.751
				c0.264,1.317-1.581,2.371-2.634,1.054c-1.053-1.316-1.316-5.794-1.316-7.111s-2.108-5.795-4.215-6.322
				C166.477,215.791,162.261,220.533,160.418,222.64z"/>
			<path style="fill:#21983A;" d="M184.652,235.02c3.842-0.961,11.327-4.742,14.487-7.112c3.162-2.371,7.376-3.688,8.43-0.526
				c1.054,3.161,3.688,11.063,5.268,13.434c1.581,2.371,0.264,5.004-1.317,2.633c-1.58-2.37-3.424-6.058-4.214-8.692
				c-0.79-2.634-1.844-6.059-3.161-6.059c-1.317,0-3.951,1.844-6.322,3.424c-2.37,1.581-4.477,3.162-6.585,4.742
				c-2.107,1.581-2.107,2.898-4.478,1.581C184.388,237.127,183.598,235.284,184.652,235.02z"/>
			<path style="fill:#21983A;" d="M179.562,264.085c-1.471-0.857-2.988-1.754-3.932-2.348c-0.491-0.306-1.182-0.652-1.94-1.04
				l-2.484-1.306c-1.717-0.903-3.374-1.788-4.079-2.503c-1.413-1.428-2.62-1.752-4.607-3.032c-1.993-1.288-5.625-2.13-7.458-3.641
				c-1.844-1.53-5.28-3.423-7.737-4.833c-1.234-0.711-2.077-1.398-2.983-2.033c-0.201-0.157-0.52-0.312-0.66-0.448l-0.503-0.416
				c-0.328-0.276-0.648-0.548-0.991-0.8c-0.685-0.503-2.217-0.35-3.605-0.132c-1.384,0.225-2.63,0.513-2.631,0.512
				c0.002-0.002-0.923-0.231-1.932-0.563c-1.019-0.325-2.072-0.795-2.461-1.037c-0.261-0.164-0.579-0.247-0.938-0.569l-0.48-0.487
				l-0.617-0.599c-0.473-0.442-0.98-0.854-1.528-1.154c-0.536-0.298-1.163-0.495-1.746-0.363c-0.56,0.121-1.061,0.455-1.484,0.596
				c-0.204,0.065-0.483,0.053-0.779,0.088c-0.276,0.037-0.502,0.171-0.567,0.432c-0.051,0.253-0.021,0.673,0.597,1.081
				c0.159,0.096,0.368,0.18,0.618,0.22c0.124,0.019,0.257,0.027,0.39,0.021l0.307-0.024c0.216-0.01,0.414-0.115,0.662-0.199
				c0.536-0.194,1.026,0.238,1.346,0.605c0.172,0.197,0.315,0.392,0.457,0.606c0.182,0.258,0.361,0.536,0.581,0.884
				c0.276,0.43,0.627,0.796,1.017,1.103c0.391,0.308,0.721,0.514,1.067,0.717c0.679,0.386,1.318,0.665,1.914,0.88
				c2.398,0.806,3.473-0.188,5.854-0.079c2.377,0.06,2.893,1.739,4.838,2.404c1.565,0.607,2.379,1.476,2.392,1.445
				c-0.002-0.002,0.779,0.18,1.797,0.527c1.016,0.344,2.253,0.848,3.1,1.293c1.696,0.884,3.371,1.85,4.374,2.437
				c1.002,0.587,2.457,1.925,4.099,2.956c1.647,1.028,4.041,3.056,5.427,4.471c0.348,0.353,1.423,1.013,2.864,1.847l2.39,1.365
				l1.328,0.761c0.501,0.291,0.996,0.551,1.49,0.806c2.693,1.353,5.41,2.545,7.241,3.389
				C179.447,266.664,179.451,265.378,179.562,264.085z"/>
			<path style="fill:#21983A;" d="M179.842,269.691c-1.816-0.019-3.632,0.172-5.306,0.465c-2.674,0.457-5.031,1.139-6.745,1.606
				c-3.43,0.945-6.761,2.135-11.797,3.668c-2.521,0.746-6.401,2.22-10.31,3.277c-1.956,0.525-3.923,0.91-5.71,1.049
				c-1.79,0.145-3.395,0.034-4.645-0.191c-1.34-0.247-1.995-0.128-2.248,0.32c-0.246,0.432-0.042,1.16,0.487,1.846
				c0.529,0.681,0.799,1.19,1.361,1.464c0.556,0.264,1.45,0.327,3.097-0.176c1.632-0.504,3.496-0.783,5.317-1.101
				c1.816-0.311,3.577-0.636,4.848-1.033c2.586-0.743,10.193-4.105,11.827-4.686c0.82-0.296,3.88-1.451,7.046-2.383
				c3.165-0.958,6.459-1.564,7.525-1.694c1.064-0.152,2.759-0.437,4.535-0.563c0.4-0.032,0.802-0.05,1.203-0.062
				C180.131,270.907,179.969,270.304,179.842,269.691z"/>
			<path style="fill:#21983A;" d="M156.111,256.716c-3.017,2.181-5.299,3.276-9.239,6.386c-3.935,3.116-4.64,3.199-7.184,5.045
				c-1.267,0.933-1.765,1.321-2.415,1.773c-0.639,0.47-1.465,0.932-3.241,2.387c-1.74,1.524-1.686,1.632-1.56,1.499
				c0.152-0.089,0.391-0.341-0.62,1.027c-0.989,1.409-1.248,2.802-1.094,3.684c0.143,0.894,0.572,1.225,0.559,1.212
				c-0.078-0.725,0.222-1.235,0.52-1.679c0.319-0.438,0.702-0.787,1.112-1.093c0.853-1.869,2.453-3.55,4.103-5.063
				c-0.002,0,1.245-0.917,2.793-1.959l4.394-2.949c2.041-1.431,5.333-3.255,6.885-4.312c1.547-1.067,4.286-3.708,6.804-5.619
				c1.27-0.967,1.489-1.728,1.072-1.786C158.6,255.197,157.615,255.623,156.111,256.716z"/>
			<path style="fill:#21983A;" d="M156.73,303.507c-1.326-3.451-8.429-11.063-13.17-14.487c-4.742-3.424-6.849-6.059-7.376-6.849
				c-0.526-0.791-2.634,0,0,2.897s6.586,4.741,9.747,8.166c3.161,3.424,6.849,6.059,7.112,8.956
				C153.305,305.087,158.047,306.932,156.73,303.507z"/>
			<path style="fill:#21983A;" d="M132.759,237.655c-1.317-0.527-0.79-3.162,0.527-2.898
				C134.604,235.02,132.759,237.655,132.759,237.655z"/>
			<path style="fill:#21983A;" d="M140.663,239.498c-1.844-0.527-0.791-1.843,1.58-2.371c2.371-0.527,2.371,1.581,1.053,2.371
				C141.98,240.288,140.663,239.498,140.663,239.498z"/>
			<path style="fill:#21983A;" d="M155.94,237.391c2.371,0,5.269-1.054,5.269-1.054s2.633,1.054,4.214,1.054
				c1.58,0,1.843-1.317,4.478-0.264c2.633,1.054,3.405,1.142,5.005,1.054c4.742-0.264,6.058,1.054,6.849,2.898
				c0.79,1.843,1.053,2.633-0.265,2.633c-1.316,0-3.16-0.79-4.477-1.317c-1.317-0.526-0.264-1.58-3.952-1.316
				c-3.687,0.263-3.687,0.526-5.532,0.263c-1.844-0.263-2.107-0.263-2.897-0.79c-0.791-0.527-0.791-1.054-2.634-1.054
				c-1.844,0-1.581,0-4.742-0.264C154.095,238.971,153.569,237.391,155.94,237.391z"/>
			<path style="fill:#21983A;" d="M180.368,259.594c0.076-0.28,0.155-0.558,0.239-0.836c-2.763-1.307-4.599-3.083-6.227-4.246
				c-1.844-1.317-2.371,0,0,1.58c0,0,3.687,2.634,5.795,3.424L180.368,259.594z"/>
			<path style="fill:#21983A;" d="M224.367,266.149c0.277,0.454,0.518,0.862,0.74,1.245c1.585,0.552,3.108,0.357,4.296-0.511
				c-0.683-2.113-1.116-4.693-1.666-6.103c-0.693-1.756-3.648-4.721-5.222-7.538c-0.803-1.437-1.902-1.504-2.476-0.844
				c-0.592,0.673-0.749,1.959,0.052,3.534C221.701,259.159,221.698,261.758,224.367,266.149z"/>
			<path style="fill:#21983A;" d="M304.843,331.483c1.075-0.078,1.852-0.883,2.105-1.667c0.252-0.782-0.076-1.567-1.332-1.5
				c-2.482,0.15-4.622-1.174-6.069-0.634c-1.445,0.538-6.363,1.107-10.071,1.068c-1.854-0.016-5.642,0.319-9.144,0.467
				c-3.505,0.164-6.718,0.111-7.436-0.109c-0.721-0.212-2.944-0.381-5.131-0.644c-2.193-0.246-4.341-0.615-5.03-0.752
				c-0.689-0.132-2.724-0.431-4.896-1.049c-2.176-0.594-4.438-1.577-5.759-2.433c-1.336-0.828-2.699-1.806-3.745-2.843
				c-1.052-1.031-1.785-2.099-2.021-2.856c-0.423-1.512-2.534,0.326-1.85,1.438c0.313,0.529,1.69,2.738,3.73,4.55
				c1.997,1.856,4.527,3.232,5.563,3.685c2.058,0.975,5.222,1.898,6.767,1.824c0.77-0.017,2.722,0.294,4.776,0.556
				c2.049,0.275,4.2,0.518,5.305,0.768c2.194,0.552,7.723,1.319,10.697,0.738c2.952-0.537,6.272,0.367,9.706-0.366
				C294.439,330.999,303.462,331.52,304.843,331.483z"/>
			<path style="fill:#21983A;" d="M273.67,305.596c-0.888,0.009-1.515,0.897-1.557,1.693c-0.047,0.805,0.303,1.504,1.013,1.442
				c0.743-0.052,1.412,0.371,1.951,0.762c0.547,0.395,0.99,0.754,1.457,0.638c0.924-0.272,3.909,0.462,5.997,1.559
				c2.068,1.041,9.163,3.128,9.966,3.776c0.766,0.693,5.524,2.158,6.486,2.371c0.47,0.123,1.87,0.393,3.454,0.622
				c1.585,0.239,3.354,0.412,4.515,0.526c2.333,0.28,5.034-0.197,6.275,0.017c1.277,0.215,0.303-2.392-0.432-2.301
				c-0.386,0.053-1.986,0.099-3.646-0.085c-1.662-0.161-3.37-0.512-4.058-0.628c-1.379-0.212-3.344-0.653-4.348-0.51
				c-1.012,0.181-4.955-0.961-6.168-1.788c-1.23-0.795-4.23-2.645-6.14-2.894c-1.906-0.245-3.472-2.017-5.728-2.309
				c-1.126-0.141-2.942-0.986-4.749-1.7C276.179,306.054,274.27,305.563,273.67,305.596z"/>
			<path style="fill:#21983A;" d="M320.45,323.568c0.976-0.403,2.01-1.007,2.907-1.869c0.45-0.427,0.86-0.918,1.225-1.449
				c0.182-0.267,0.346-0.544,0.501-0.828l0.415-0.806c1.025-1.853,3.155-3.163,5.105-3.931c1.988-0.775,3.491-0.895,4.299-0.745
				c0.409,0.07,0.668,0.184,0.8,0.238c0.138,0.049,0.16,0.019,0.039-0.093c-0.231-0.214-0.591-0.645-1.466-0.924
				c-0.862-0.273-2.191-0.356-3.888,0.197c-3.381,1.119-5.624,3.193-6.483,4.83c-0.382,0.63-0.451,0.816-0.721,1.32
				c-0.144,0.245-0.335,0.57-0.717,1c-0.387,0.42-0.965,0.964-1.958,1.437c-2.007,0.896-3.422,0.963-4.049,1.186
				c-0.644,0.176-0.563,0.408,0.135,0.499c0.693,0.088,1.643,0.153,2.439,0.107C319.824,323.697,320.45,323.569,320.45,323.568z"/>
			<path style="fill:#21983A;" d="M318.956,314.399c1.51-1.142,3.745-2.025,6.107-2.309c1.176-0.139,2.388-0.135,3.492,0.06
				c0.561,0.1,1.05,0.232,1.556,0.449c0.63,0.257,1.273,0.472,1.911,0.619c1.275,0.302,2.368,0.326,3.13,0.387
				c0.769,0.055,1.207,0.177,1.58,0.392c0.367,0.209,0.613,0.434,0.754,0.521c0.142,0.09,0.185,0.058,0.099-0.099
				c-0.189-0.287-0.214-0.922-1.009-1.608c-0.825-0.691-2.196-0.937-3.825-1.358c-0.417-0.107-0.814-0.236-1.192-0.381
				c-0.389-0.147-0.703-0.304-1.152-0.49c-0.842-0.322-1.649-0.496-2.392-0.602c-1.485-0.205-2.72-0.162-3.633-0.123
				c-0.913,0.056-1.161,0.168-1.823,0.43c-0.649,0.296-1.775,0.617-4.116,1.948c-2.326,1.408-3.182,2.925-3.399,3.637
				c-0.211,0.745,0.135,0.812,0.646,0.327c0.525-0.486,1.338-0.993,2.025-1.309C318.402,314.561,318.958,314.399,318.956,314.399z"
				/>
			<path style="fill:#21983A;" d="M309.979,332.307c1.245,1.268,2.962,2.15,4.773,2.683c1.822,0.539,3.763,0.782,5.713,0.872
				c1.953,0.087,3.923,0.02,5.845-0.135l1.43-0.132c0.436-0.049,0.827-0.065,1.254-0.064c0.838,0.007,1.688,0.096,2.521,0.222
				c3.341,0.554,5.717,1.315,7.139,1.645c1.423,0.362,1.9,0.397,1.429,0.157c-0.481-0.228-1.114-0.758-2.286-1.451
				c-1.175-0.675-2.88-1.576-5.58-2.143c-1.349-0.27-2.668-0.431-3.946-0.401c-1.278,0.073-2.301,0.162-3.335,0.183
				c-2.018,0.055-3.673-0.048-4.866-0.212c-1.191-0.171-1.526-0.157-2.458-0.204c-0.463-0.03-1.078-0.075-1.981-0.278
				c-0.883-0.217-2.128-0.552-3.435-1.556c-1.286-1.016-1.895-2.194-2.277-3.166c-0.369-0.98-0.534-1.755-0.695-2.243
				c-0.281-0.989-0.613-0.863-0.701,0.244c-0.075,1.092-0.014,2.625,0.409,3.87C309.335,331.445,309.986,332.311,309.979,332.307z"
				/>
			<path style="fill:#21983A;" d="M332.69,332.333c2.169,0.912,4.805,2.99,6.742,4.672c0.978,0.842,1.623,1.424,2.042,1.81
				c0.413,0.385,0.643,0.53,0.592,0.326c-0.057-0.196,0.048-0.559-0.03-1.153c-0.08-0.583-0.37-1.395-1.149-2.203
				c-1.559-1.584-2.893-2.69-3.624-3.441c-0.75-0.711-0.58-0.191-3.206-1.665c-2.68-1.419-3.659-0.612-2.97-0.092
				C331.763,331.131,332.697,332.332,332.69,332.333z"/>
			<path style="fill:#21983A;" d="M333.06,328.849c3.96,0.154,9.408,2.019,13.514,4.151c2.07,1.059,3.45,1.928,4.285,2.438
				c0.83,0.519,1.136,0.648,0.885,0.392c-0.257-0.249-0.539-0.728-1.155-1.411c-0.615-0.674-1.57-1.566-3.163-2.461
				c-3.188-1.773-5.923-2.795-7.516-3.423c-0.8-0.306-1.05-0.331-1.712-0.44c-0.67-0.087-1.737-0.331-4.286-0.643
				c-2.558-0.287-4.159,0.113-4.803,0.481c-0.643,0.394-0.42,0.542,0.255,0.454C330.773,328.206,333.072,328.844,333.06,328.849z"/>
			<path style="fill:#21983A;" d="M333.836,324.763c4.527,1.166,10.43,4.539,14.273,8.264c1.949,1.842,3.085,3.347,3.787,4.256
				c0.692,0.915,0.984,1.203,0.839,0.802c-0.154-0.39-0.193-1.057-0.536-2.103c-0.344-1.038-1.024-2.475-2.532-4.069
				c-3.045-3.144-5.995-5.027-7.666-6.197c-0.848-0.572-1.137-0.652-1.887-0.93c-0.76-0.257-1.96-0.766-4.822-1.762
				c-2.882-0.968-4.791-0.992-5.666-0.744c-0.879,0.288-0.645,0.581,0.13,0.718C331.392,323.323,333.851,324.763,333.836,324.763z"
				/>
			<path style="fill:#21983A;" d="M334.233,317.588c1.805,0.088,3.962,0.581,6.07,1.377c2.118,0.79,4.173,1.887,5.988,2.98
				c1.816,1.092,3.096,1.91,3.914,2.348c0.81,0.449,1.153,0.506,0.918,0.271c-0.478-0.431-0.777-2.093-3.594-4.068
				c-2.819-1.916-5.304-3.103-6.763-3.819c-0.731-0.352-0.972-0.369-1.602-0.464c-0.634-0.076-1.645-0.296-4.02-0.635
				c-2.388-0.309-3.843,0.012-4.476,0.326c-0.64,0.332-0.475,0.631,0.169,0.702C332.169,316.741,334.246,317.576,334.233,317.588z"
				/>
			<path style="fill:#21983A;" d="M334.034,322.412c2.815-0.264,6.813-0.038,10.068,0.151c3.24,0.16,4.542,0.353,4.129,0.131
				c-0.425-0.176-1.261-1.145-3.823-1.432c-2.529-0.262-4.544-0.406-5.726-0.565c-1.181-0.136-0.677,0.116-4.205,0.224
				c-3.533,0.148-4.141,0.98-3.133,1.043C332.353,322.044,334.036,322.41,334.034,322.412z"/>
			<path style="fill:#21983A;" d="M202.368,237.318c0.591,0.269,0.857,1.089,0.903,1.893c0.033,0.825-0.032,1.786-0.544,2.893
				c-0.579,1.102-1.346,1.343-1.933,1.447c-0.624,0.103-1.14,0.109-1.878,0.021c-0.723-0.124-0.926-0.311-1.136-0.535
				c-0.177-0.244-0.412-0.561-0.305-1.5c0.202-0.956,0.303-0.961,0.218-0.897c-0.043,0.06-0.199,0.199,0.01-0.545
				c0.507-1.471,0.453-2.407,0.417-2.418c-0.701,0.256-1.401,0.584-2.083,1.034c-0.231,0.714-0.399,1.462-0.411,2.244
				c-0.018,0.775,0.134,1.609,0.578,2.315c0.006-0.003,0.101,0.269,0.389,0.637c0.279,0.372,0.801,0.8,1.449,1.035
				c1.316,0.495,2.796,0.26,3.595,0.007c0.861-0.259,1.919-0.869,2.605-1.748c0.705-0.858,1.059-1.858,1.152-2.53
				c0.101-0.673-0.026-1.725-0.543-2.753c-0.26-0.509-0.618-1.026-1.124-1.423c-0.495-0.405-1.162-0.63-1.755-0.626
				c-0.601,0.001-0.946,0.235-1.094,0.422c-0.149,0.199-0.123,0.374,0.008,0.503C201.149,237.064,201.835,237.079,202.368,237.318z"
				/>
			<path style="fill:#21983A;" d="M139.242,358.656c0.094-1.454,0.243-2.723,0.396-3.792l1.032-6.894
				c0.158-1.198,0.371-2.464,0.41-3.489l0.089-3.69c0.051-2.511,0.172-5.081,0.573-7.455c0.22-1.206,0.386-2.111,0.607-3.159
				c0.217-0.987,0.435-1.856,0.633-2.612c0.393-1.511,0.989-3.294,1.452-5.235l0.16-0.735l0.074-0.372l0.063-0.374l0.066-0.27
				c0.16-0.635,0.346-1.276,0.559-1.911c0.42-1.278,0.942-2.538,1.499-3.774l0.889-1.911c1.354,0.662,2.63,1.414,3.659,2.352
				c-0.672,1.958-1.255,3.844-1.592,5.789l-0.078,0.478l-0.011,0.114l-0.028,0.299c-0.033,0.399-0.089,0.791-0.141,1.19
				c-0.113,0.791-0.262,1.575-0.43,2.36c-0.337,1.566-0.771,3.129-1.202,4.707c-0.216,0.8-0.422,1.564-0.621,2.407
				c-0.209,0.883-0.439,1.678-0.602,2.525c-0.349,1.704-0.603,3.573-0.844,5.63l-0.331,2.958l-0.164,1.43
				c-0.063,0.473-0.171,0.954-0.25,1.367l-0.9,4.463c-0.516,2.651-0.819,4.746-0.964,6.643c-0.077,0.965-0.113,1.814-0.076,2.666
				c0.034,0.856,0.119,1.707,0.254,2.592c0.277,1.771,0.738,3.681,1.527,6.043c0.803,2.363,1.539,3.988,2.156,5.314
				c0.626,1.325,1.162,2.349,1.792,3.476c0.63,1.126,1.361,2.35,2.409,4.093l1.826,3.082c0.721,1.262,1.419,2.518,2.38,4.027
				c1.899,3.01,2.967,4.506,3.422,5.216c0.469,0.707,0.379,0.609,0.2,0.411c-0.366-0.4-1.057-1.164,1.579,3.285
				c0.939,1.558,1.877,2.954,2.596,4.229c0.37,0.635,0.706,1.236,1.013,1.804l0.436,0.826c0.095,0.169,0.083,0.184,0.106,0.238
				l0.147,0.258c0.447,0.712,1.111,1.464,1.615,2.19c0.52,0.726,0.907,1.477,1.081,2.107l0.16,0.579l-0.009,0.056
				c-0.03,0.162-0.05,0.305-0.13,0.56c-0.033,0.104-0.106,0.291-0.214,0.457c-0.076,0.116-0.166,0.219-0.263,0.308
				c-0.119,0.106-0.259,0.197-0.392,0.253c-0.594,0.221-0.855,0.07-0.963,0.051c-0.131-0.044-0.172-0.075-0.202-0.098l-0.149-0.116
				l0.197-0.053c0.082-0.022,0.196,0.037,0.622-0.018c0.207-0.02,0.547-0.209,0.673-0.413c0.079-0.106,0.116-0.197,0.138-0.266
				l0.045-0.197c0.028-0.228-0.007-0.341-0.03-0.469l-0.056-0.31l-0.024-0.025c-0.669-0.737-1.433-1.097-2.171-1.457
				c-0.744-0.354-1.5-0.666-2.259-1.141c-0.83-0.57-1.37-1.077-2.052-1.593l-1.956-1.555l-1.52-2.47
				c-0.509-0.81-0.956-1.734-1.422-2.561l-2.758-5.073c-0.909-1.72-1.8-3.44-2.625-5.246c-0.786-1.77-1.567-3.455-2.402-5.195
				l-1.693-2.959c-1.032-1.835-2.459-4.381-3.79-7.34c-1.328-2.951-2.522-6.366-2.998-9.745
				C139.222,361.836,139.15,360.184,139.242,358.656z"/>
			<path style="fill:#21983A;" d="M241.233,314.578c1.598,2.064,3.343,3.866,4.964,5.689c1.65,1.822,3.186,3.649,4.797,5.529
				c3.21,3.795,6.75,7.95,10.862,13.984c2.033,3.027,3.553,5.462,4.756,7.478l3.149,5.031c1.761,2.938,3.194,5.352,4.795,9.681
				c1.526,4.347,1.917,6.12,2.584,8.307c0.674,2.436,0.917,5.344,0.385,11.76c-0.295,3.207-0.524,4.783-0.614,5.516
				c-0.091,0.695-0.091,0.61-0.086,0.368c0.004-0.211,0.011-0.549-0.074-0.283c-0.116,0.185-0.136,1.272-0.978,3.64
				c-0.879,2.36-2.206,4.132-3.55,5.35c-1.35,1.225-2.708,1.891-3.791,2.239c-1.093,0.347-1.914,0.408-2.442,0.414
				c-0.528,0.003-0.774-0.039-0.774-0.033c1.556-0.538,2.893-1.431,3.921-2.509c1.029-1.085,1.767-2.34,2.262-3.641
				c0.885-1.196,1.567-2.574,2.003-4.024c0.229-0.725,0.347-1.446,0.511-2.306l0.453-2.43c0.57-3.235,1.072-6.492,1.158-9.718
				c-0.016,0.009,0.011-1.123-0.278-2.781c-0.145-0.76-0.496-1.829-0.823-2.945c-0.343-1.126-0.728-2.353-1.167-3.616
				c-0.864-2.532-1.959-5.19-3.162-7.549c-1.196-2.362-2.468-4.449-3.402-5.966c-0.471-0.766-0.973-1.542-1.543-2.395
				c-0.555-0.84-1.092-1.73-1.686-2.585c-1.168-1.732-2.446-3.491-3.747-5.17c-2.592-3.36-5.22-6.427-6.925-8.519
				c-1.694-2.09-4.108-5.384-6.791-9.019c-1.333-1.799-2.81-3.637-4.314-5.499c-1.484-1.867-3.053-3.77-4.089-5.984
				c-1.03-2.237-0.956-4.044-0.786-4.987c0.191-0.972,0.479-1.224,0.714-0.877c0.249,0.344,0.428,1.307,0.856,2.688
				C238.806,310.806,239.624,312.52,241.233,314.578z"/>
			<path style="fill:#21983A;" d="M252.436,408.441c-1.027,1.505-1.964,2.77-3.257,3.89c-1.285,1.102-2.96,2.055-5.311,2.423
				c-2.335,0.334-3.546,0.513-4.571,0.804c-1.019,0.271-1.832,0.589-3.225,0.698c-1.388,0.099-1.938,0.106-2.627,0.232
				c-0.689,0.117-1.514,0.352-3.456,0.724c-3.881,0.694-0.008,0.014-2.738-0.121c-2.721-0.166-3.636-1.958-3.641-1.954l2.888-3.204
				c1.902,0.407,3.795,0.78,5.703,1.061c-0.002-0.001,1.305-0.204,2.823-0.503c1.523-0.293,3.226-0.721,4.183-0.909
				c0.968-0.176,2.105-0.666,3.071-1.227c0.976-0.557,1.762-1.176,2.314-1.49c0.556-0.311,1.572-0.452,2.675-0.89
				c1.096-0.418,2.261-1.191,2.847-2.244c0.561-1.024,1.505-1.187,2.226-0.68C253.038,405.541,253.464,406.887,252.436,408.441z"/>
			<path style="fill:#21983A;" d="M157.729,448.86c0.155,0.028,0.557,0.524,0.85,1.533c0.607,2.021,0.712,4.756,1.659,6.562
				c0.856,1.91,1.844,3.178,1.832,3.184c1.255,2.386,3.176,4.772,5.527,6.993c2.342,2.234,5.114,4.288,8.028,6.269
				c2.917,1.966,6.008,3.776,9.131,5.44c1.571,0.832,3.11,1.636,4.676,2.385c1.595,0.774,3.147,1.591,4.624,2.47
				c0.807,0.476,1.549,0.961,2.259,1.449c-0.016,0.306,0.019,0.617,0.113,0.915c-0.561,0.033-1.096,0.253-1.529,0.605
				c-0.424-0.263-0.86-0.53-1.324-0.802c-2.142-1.263-4.258-2.271-6.31-3.224c-2.046-0.993-3.924-1.943-5.643-2.86
				c-3.439-1.83-6.208-3.508-8.227-4.781c-2.018-1.285-2.521-1.753-3.95-2.974c-0.712-0.616-1.656-1.447-3.026-2.77
				c-1.355-1.343-3.232-3.151-5.305-6.182c-2.029-3.064-3.024-5.935-3.196-8.276c-0.128-2.26-0.078-3.676-0.211-4.611
				C157.601,449.263,157.548,448.839,157.729,448.86z"/>
			<path style="fill:#21983A;" d="M192.487,455.264c0.8,1.072,1.715,2.225,2.699,3.432c0.969,1.23,2.066,2.411,3.1,3.84
				c1.014,1.372,1.973,2.788,2.899,4.175l2.725,4.05c0.919,1.632,1.209,2.878,1.57,3.915c0.33,1.021,0.597,1.79,0.844,2.339
				c0.51,1.063,0.792,1.43,0.411,1.16c-0.345-0.28-1.02-0.626-1.822-1.581c-0.83-0.916-1.595-2.519-2.622-4.431l-3.639-5.062
				c-1.062-1.455-1.995-2.613-2.713-3.394c-1.461-1.552-0.551-1.106-4.678-6.228c-4.158-5.093-4.093-6.786-2.7-5.498
				C189.952,453.276,192.49,455.263,192.487,455.264z"/>
			<path style="fill:#21983A;" d="M256.734,418.633c4.809,2.096,10.806,4.09,17.168,5.472c6.359,1.402,13.051,2.239,19.143,2.549
				c6.092,0.304,10.357,0.081,12.863-0.124c2.507-0.217,3.263-0.436,2.354-0.435c-1.821-0.038-5.455-0.756-14.487-1.289
				c-9.043-0.573-16.157-2.019-20.2-3.137c-2.023-0.563-2.614-0.66-4.227-1c-0.805-0.176-1.865-0.415-3.464-0.876
				c-1.597-0.469-3.747-1.137-6.638-2.355c-5.77-2.461-8.967-4.407-10.557-5.143c-1.57-0.775-1.533-0.347-0.094,0.798
				c1.437,1.136,3.424,2.582,5.11,3.672C255.387,417.861,256.736,418.63,256.734,418.633z"/>
			<path style="fill:#21983A;" d="M286.324,392.363c2.947,0.45,6.174,1.214,9.57,2.161c3.401,0.95,6.919,2.05,10.344,3.442
				c1.713,0.696,3.406,1.464,5.061,2.306c0.827,0.42,1.645,0.859,2.456,1.314l1.205,0.693l0.597,0.355l0.182,0.109
				c0.099,0.058,0.198,0.127,0.3,0.167l0.402,0.177c3.194,1.491,6.313,3.489,9.071,5.503c5.554,4.073,8.69,7.721,10.386,10.022
				c0.854,1.15,1.377,1.956,1.684,2.325c0.303,0.371,0.389,0.301,0.213-0.204c-0.37-0.993-0.551-2.665-1.698-5.223
				c-1.146-2.524-3.34-5.94-7.672-9.44c-2.164-1.741-4.324-3.244-6.433-4.546c-1.056-0.649-2.098-1.249-3.143-1.791l-0.79-0.396
				l-0.183-0.089l-0.071-0.04l-0.29-0.187l-1.38-0.858c-3.628-2.213-6.815-3.765-9.17-4.869c-2.364-1.092-3.111-1.212-5.082-1.669
				l-4.248-0.988c-1.967-0.462-4.605-1.146-8.363-1.966c-7.554-1.618-12.292-1.187-14.368-0.679
				c-2.103,0.559-1.709,1.181,0.415,1.433c2.133,0.264,4.927,0.915,7.135,1.607C284.669,391.708,286.322,392.364,286.324,392.363z"
				/>
			<path style="fill:#21983A;" d="M335.018,430.649c-0.908,2.266-2.951,4.674-5.196,7.048c-2.117,2.32-4.925,4.132-8.025,5.813
				c-3.089,1.678-6.424,3.203-9.665,4.985c-0.81,0.447-1.614,0.91-2.406,1.395c-0.793,0.48-1.586,1.027-2.267,1.482
				c-1.446,0.902-2.97,1.901-4.367,2.892c-5.686,3.98-8.933,7.846-10.461,10.275c-1.531,2.451-1.656,3.378-1.084,2.537
				c0.606-0.823,1.794-1.858,3.77-3.441c1.987-1.578,4.776-3.659,8.915-6.483c2.066-1.439,4.121-2.603,6.074-3.861
				c1.864-1.17,3.723-2.12,5.458-2.964c3.485-1.669,6.475-2.969,8.672-4.057c2.195-1.098,2.763-1.565,4.281-2.822
				c0.747-0.645,1.751-1.49,3.134-2.991c0.64-0.714,1.394-1.551,2.271-2.584c0.87-1.042,1.885-2.253,2.917-3.885
				c1.032-1.621,1.701-3.416,1.871-5.041c0.179-1.625,0.011-2.967-0.149-4.08c-0.355-2.219-0.743-3.693-1.042-4.647
				c-0.595-1.896-1.086-1.544-1.096,0.514c-0.021,2.035,0.053,4.845-0.336,6.822C335.908,429.524,335.004,430.629,335.018,430.649z"
				/>
			<path style="fill:#21983A;" d="M291.723,429.841c-1.615,1.43-3.028,3.348-4.226,5.404c-0.605,1.031-1.181,2.103-1.74,3.2
				l-1.701,3.266c-2.321,4.392-4.818,8.959-6.586,13.384c-1.777,4.42-2.457,7.717-2.748,9.653c-0.274,1.947-0.186,2.565-0.024,1.881
				c0.169-0.684,0.629-1.661,1.328-3.279l3.004-7.084c1.356-3.214,2.82-6.007,4.11-8.367c1.296-2.359,2.424-4.286,3.268-5.705
				c0.843-1.416,1.012-1.872,1.517-3.054c0.252-0.584,0.59-1.353,1.187-2.478c0.613-1.107,1.433-2.64,3.021-4.32
				c1.604-1.648,3.246-2.652,4.472-3.534c1.241-0.865,2.098-1.53,2.601-2.004c1.006-0.95,0.639-1.092-0.618-0.456
				c-1.258,0.637-2.984,1.383-4.392,2.084C292.784,429.123,291.72,429.842,291.723,429.841z"/>
			<path style="fill:#21983A;" d="M272.077,475.957c0.127,1.965,0.255,4.144,0.658,6.473c0.207,1.164,0.487,2.369,0.984,3.586
				c0.501,1.213,1.216,2.345,2.063,3.351c1.706,2.019,3.889,3.556,6.161,4.711c2.279,1.153,4.668,1.94,6.991,2.41
				c4.663,0.93,8.092,0.426,9.956-0.245c0.94-0.338,1.492-0.705,1.731-0.906c0.238-0.204,0.184-0.238-0.129-0.088
				c-0.638,0.286-1.702,0.438-3.392,0.404c-1.694-0.044-4.035-0.244-7.315-0.918c-3.278-0.688-6.093-1.887-8.227-3.239
				c-2.148-1.349-3.579-2.864-4.381-4.078c-0.775-1.231-0.991-1.559-1.501-2.565c-0.464-1.014-1.187-2.88-1.439-7.614
				c-0.198-4.732-0.381-7.62-0.737-8.931c-0.334-1.314-0.635-1.06-0.701,0.305C272.626,471.338,272.045,475.944,272.077,475.957z"/>
			<path style="fill:#21983A;" d="M295.613,497.445c1.965,0.356,4.104,0.816,6.302,1.476c1.113,0.328,2.185,0.697,3.338,1.138
				c1.157,0.435,2.357,0.854,3.572,1.241c2.434,0.773,4.958,1.413,7.466,1.908c1.256,0.247,2.506,0.451,3.741,0.625l1.869,0.238
				c0.704,0.056,1.308,0.042,1.927,0.024c2.436-0.112,4.355-0.356,5.922-0.293c1.561,0.04,2.733,0.34,3.57,0.696
				c0.835,0.355,1.347,0.713,1.608,0.866c0.265,0.151,0.286,0.099,0.04-0.153c-0.493-0.47-1.141-1.399-2.841-2.179
				c-0.843-0.378-1.935-0.674-3.257-0.801c-1.321-0.138-2.862-0.094-4.605-0.04c-0.878,0.015-1.695,0.034-2.482-0.087
				c-0.805-0.113-1.614-0.237-2.384-0.373c-1.543-0.266-2.974-0.57-4.279-0.891c-2.609-0.64-4.71-1.354-6.227-1.945
				c-1.518-0.599-1.964-0.7-3.2-1.074c-1.272-0.359-3.363-1.064-8.254-2.14c-4.894-1.023-7.808-1.308-9.191-1.355
				c-1.383-0.027-1.234,0.332,0.129,0.758C291.108,495.923,295.628,497.428,295.613,497.445z"/>
			<path style="fill:#21983A;" d="M309.352,496.8c3.41,0.564,7.49,1.145,11.609,2.013c4.116,0.864,8.259,2.096,11.585,3.964
				c3.333,1.851,5.181,3.853,6.269,5.048c1.069,1.221,1.449,1.613,1.173,1.076c-0.29-0.524-0.541-1.415-1.318-2.756
				c-0.777-1.315-2.145-3.132-4.805-4.784c-2.657-1.628-5.279-2.599-7.508-3.337c-2.24-0.726-4.116-1.211-5.491-1.588
				c-2.742-0.731-1.669-0.09-9.941-1.481c-4.114-0.728-6.5-1.216-7.671-1.334c-1.163-0.128-1.115,0.237,0,0.753
				C305.465,495.417,309.352,496.808,309.352,496.8z"/>
			<path style="fill:#21983A;" d="M314.268,495.33c7.631,0.643,18.247,2.982,26.923,5.376c8.678,2.388,12.056,3.719,10.845,3.109
				c-1.239-0.521-3.551-2.138-10.096-4.074c-6.538-1.9-11.847-3.124-14.944-3.863c-1.55-0.364-2.005-0.413-3.244-0.585
				c-1.241-0.155-3.258-0.49-7.996-1.067c-4.747-0.554-7.62-0.436-8.924-0.268c-1.306,0.183-1.068,0.366,0.283,0.428
				C309.828,494.495,314.272,495.318,314.268,495.33z"/>
			<path style="fill:#21983A;" d="M311.397,489.212c7.7,1.49,18.303,4.896,26.538,8.811c4.127,1.939,6.854,3.58,8.466,4.579
				c1.597,1.016,2.141,1.305,1.638,0.823c-0.512-0.465-1.146-1.322-2.44-2.531c-1.291-1.201-3.259-2.753-6.4-4.354
				c-6.293-3.158-11.593-5.029-14.647-6.232c-1.535-0.584-2.002-0.665-3.259-0.944c-1.26-0.267-3.302-0.772-8.071-1.893
				c-4.776-1.1-7.699-1.341-9.064-1.299c-1.367,0.052-1.188,0.402,0.16,0.75C307.025,487.605,311.404,489.202,311.397,489.212z"/>
			<path style="fill:#21983A;" d="M307.57,486.203c1.901-0.602,4.006-1.224,6.258-1.698c1.125-0.236,2.287-0.437,3.473-0.566
				c1.161-0.158,2.369-0.114,3.599-0.075c4.917,0.201,9.888,1.561,14.346,2.969c4.462,1.428,7.616,2.439,9.512,2.907
				c1.891,0.483,2.494,0.528,1.82,0.317c-1.363-0.41-3.835-1.848-10.529-4.154c-3.359-1.126-6.442-2.006-9.125-2.556
				c-2.681-0.56-4.95-0.793-6.629-0.889c-1.666-0.085-2.21-0.028-3.508,0.183c-1.297,0.228-3.447,0.564-8.22,1.952
				c-9.445,2.932-11.159,3.729-8.381,3.241C302.969,487.259,307.57,486.181,307.57,486.203z"/>
			<path style="fill:#21983A;" d="M304.452,480.158c1.784-0.195,3.771-0.304,5.882-0.388c2.114-0.093,4.291-0.122,6.506,0.022
				c2.211,0.139,4.441,0.457,6.623,0.897c1.065,0.221,2.234,0.457,3.172,0.729c0.979,0.293,1.935,0.69,2.866,1.124
				c1.863,0.878,3.47,1.757,4.867,2.379c1.395,0.636,2.57,1.035,3.461,1.247c1.795,0.4,2.374,0.23,1.746,0.094
				c-0.626-0.167-1.498-0.644-2.839-1.505c-1.362-0.837-3.117-2.179-6.003-3.713c-1.451-0.748-2.915-1.378-4.382-1.757
				c-1.399-0.361-2.72-0.664-3.946-0.911c-2.452-0.493-4.518-0.753-6.043-0.918c-3.043-0.254-1.799,0.039-10.783,0.511
				c-4.523,0.289-7.186,1.056-8.334,1.59c-1.151,0.55-0.857,0.8,0.405,0.642C300.191,479.861,304.454,480.144,304.452,480.158z"/>
			<path style="fill:#21983A;" d="M304.638,477.827c-2.005,0.039-4.479-0.371-6.849-1.183c-2.344-0.805-4.689-2.078-5.79-3.718
				c-1.081-1.605-0.741-3.248-0.578-4.204c0.203-0.967,0.23-1.348,0.032-1.026c-0.182,0.32-0.647,0.686-1.161,1.542
				c-0.241,0.433-0.491,1.002-0.585,1.76c-0.084,0.75,0.02,1.713,0.531,2.655c1.049,1.877,2.629,2.895,3.901,3.672
				c1.306,0.766,2.445,1.258,3.285,1.629c0.844,0.361,1.116,0.369,1.826,0.457c0.715,0.061,1.854,0.274,4.546,0.481
				c2.698,0.175,4.402-0.405,5.038-1.025c0.32-0.31,0.332-0.553,0.222-0.62c-0.117-0.078-0.308-0.04-0.641,0.028
				C307.028,478.582,304.613,477.822,304.638,477.827z"/>
			<path style="fill:#21983A;" d="M217.166,492.774c-0.315,1.957-1.276,3.853-2.582,5.419c-1.305,1.586-2.92,2.904-4.648,4.069
				c-3.482,2.314-7.447,4.047-11.516,5.582c-0.502,0.183-1.034,0.393-1.58,0.564l-1.574,0.475l-3.15,0.911
				c-2.117,0.581-4.266,1.104-6.435,1.5c-2.17,0.398-4.369,0.666-6.573,0.702c-1.101,0.015-2.202-0.025-3.296-0.154
				c-0.274-0.039-0.548-0.067-0.82-0.115l-0.407-0.069l-0.07-0.011l-0.211-0.023c-0.564-0.051-1.112-0.154-1.646-0.265
				c-2.134-0.476-3.906-1.234-5.505-1.901c-1.591-0.681-3.003-1.3-4.299-1.79c-2.579-0.995-4.696-1.399-6.3-1.477
				c-1.6-0.083-2.666,0.069-3.177,0.116c-0.516,0.042-0.488-0.026,0.095-0.182c1.148-0.278,2.93-0.934,6.044-0.7
				c1.544,0.122,3.387,0.515,5.5,1.216c2.12,0.669,4.496,1.726,7.313,2.473c5.768,1.372,11.164,0.424,15.609-0.658
				c2.228-0.55,4.243-1.16,6.038-1.736c0.89-0.29,1.766-0.565,2.489-0.83l2.091-0.86c2.56-1.118,3.304-1.382,5.313-2.222
				c0.992-0.435,2.311-1.014,4.174-2.129c0.923-0.568,1.988-1.27,3.104-2.247c1.103-0.976,2.299-2.239,3.083-3.97
				c0.783-1.73,0.848-3.462,0.574-4.979c-0.274-1.527-0.846-2.84-1.409-3.952c-1.166-2.218-2.279-3.683-2.91-4.649
				c-1.333-1.898-0.805-1.892,0.93-0.146c1.699,1.752,3.853,4.322,4.903,6.972C217.451,490.342,217.168,492.809,217.166,492.774z"/>
			<path style="fill:#21983A;" d="M173.867,504.721c-3.005-0.245-6.534-0.654-10.135-0.784c-3.579-0.125-7.283,0.076-10.057,1.366
				c-2.775,1.272-4.007,3.264-4.77,4.397c-0.733,1.177-1.025,1.579-0.895,1.07c0.151-0.492,0.128-1.305,0.533-2.602
				c0.402-1.246,1.355-3.187,3.844-4.581c2.482-1.329,4.957-1.687,6.988-1.917c2.051-0.209,3.734-0.239,4.973-0.29
				c2.457-0.089,1.436,0.352,8.608,0.936c3.567,0.25,5.583,0.265,6.594,0.354c0.999,0.07,0.986,0.455-0.044,0.821
				C177.47,504.215,173.858,504.727,173.867,504.721z"/>
			<path style="fill:#21983A;" d="M172.951,500.546c-5.417-2.096-13.517-3.839-20.259-4.122c-3.371-0.165-5.726,0.007-7.129,0.121
				c-1.4,0.134-1.859,0.136-1.365-0.017c0.495-0.136,1.197-0.505,2.461-0.881c1.257-0.371,3.091-0.75,5.719-0.713
				c5.246,0.112,9.376,0.848,11.796,1.203c1.21,0.191,1.54,0.319,2.453,0.615l5.88,1.902c3.462,1.171,5.384,2.234,6.208,2.828
				c0.823,0.606,0.561,0.757-0.417,0.426C176.34,501.225,172.951,500.534,172.951,500.546z"/>
			<path style="fill:#21983A;" d="M176.792,496.311l-13.026-2.3c-1.168-0.199-2.344-0.397-3.48-0.527
				c-1.133-0.135-2.167-0.128-3.27,0.007c-2.178,0.272-4.325,1.002-6.387,1.768l-1.489,0.558c-0.46,0.167-0.883,0.359-1.33,0.546
				c-0.872,0.373-1.691,0.714-2.446,0.996c-1.509,0.568-2.779,0.912-3.776,1.02c-0.992,0.124-1.71-0.04-2.007-0.215
				c-0.296-0.184-0.227-0.213,0.116-0.13c0.724,0.138,1.716-0.278,3.164-1.084l2.643-1.522c0.526-0.302,1.099-0.628,1.744-0.969
				c0.635-0.348,1.407-0.681,2.172-0.995c3.132-1.302,6.169-2.286,8.948-2.399c1.409-0.066,2.635,0.089,3.695,0.198l2.781,0.322
				c3.144,0.319,1.717,0.647,10.976,2.197c4.633,0.731,7.373,1.341,8.613,1.822c1.241,0.475,0.98,0.798-0.373,0.755
				C181.357,496.279,176.795,496.321,176.792,496.311z"/>
			<path style="fill:#21983A;" d="M185.455,491.397c-2.39-0.354-4.947-1.098-7.473-2.21c-2.529-1.105-5.023-2.579-7.428-4.168
				c-1.201-0.785-2.394-1.623-3.543-2.3c-1.164-0.655-2.328-1.162-3.612-1.439c-2.562-0.592-5.374-0.578-8.134-0.955
				c-0.717-0.111-1.301-0.17-2.066-0.394l-1.719-0.509c-1.102-0.335-2.101-0.664-3.002-0.985c-1.8-0.643-3.203-1.253-4.209-1.805
				c-1.01-0.549-1.63-1.054-1.854-1.424c-0.181-0.374-0.114-0.344,0.179-0.037c0.667,0.55,1.883,0.805,3.844,1.217l8.552,1.772
				c3.868,0.466,7.652,0.269,10.823,1.424c1.589,0.562,2.873,1.32,3.964,1.993c1.087,0.665,2.021,1.239,2.827,1.701
				c1.611,0.912,2.021,1.23,3.218,2.025c0.604,0.389,1.404,0.897,2.694,1.541c1.295,0.624,3.083,1.433,5.72,1.975
				c2.641,0.523,4.79,0.534,6.454,0.445c1.662-0.093,2.848-0.275,3.619-0.338c1.533-0.169,1.441,0.254-0.096,0.858
				c-1.526,0.588-3.674,1.179-5.497,1.407C186.898,491.436,185.455,491.392,185.455,491.397z"/>
			<path style="fill:#21983A;" d="M167.526,491.753c-1.163-0.891-2.374-1.942-3.605-3.051c-1.257-1.118-2.46-2.225-3.947-3.093
				c-2.958-1.844-6.225-3.551-9.031-5.428c-2.821-1.865-4.568-3.551-5.459-4.645c-0.892-1.096-1.023-1.535-0.686-1.165
				c0.722,0.72,2.5,1.717,6.657,4.379c4.208,2.63,7.834,4.387,9.889,5.591c2.118,1.214,1.122,1.053,6.371,5.495
				c2.689,2.103,4.495,2.998,5.295,3.553c0.813,0.52,0.597,0.716-0.388,0.444c-0.98-0.276-2.277-0.734-3.303-1.202
				C168.288,492.174,167.525,491.751,167.526,491.753z"/>
			<path style="fill:#21983A;" d="M220.953,420.283c-3.42,3.65-5.038,6.637-9.767,11.504c-4.755,4.86-4.87,5.879-7.736,9.045
				c-1.453,1.565-2.055,2.172-2.756,2.985c-0.708,0.808-1.494,1.832-3.528,4.082c-4.174,4.414,0.025,0.029-3.275,2.808
				c-3.373,2.724-5.516,2.674-5.497,2.688c0.701-1.468,1.347-2.943,1.943-4.419c2.515-1.716,4.939-3.582,7.279-5.57
				c-0.002-0.001,1.403-1.553,3.011-3.477l4.502-5.496c2.173-2.544,4.867-6.861,6.486-8.836c1.615-1.974,5.789-5.162,8.798-8.182
				c1.512-1.522,2.56-1.65,2.729-1.001C223.32,417.072,222.665,418.481,220.953,420.283z"/>
			<path style="fill:#21983A;" d="M165.874,409.492c0.037-1.628-3.087-2.403-3.094-0.756c-0.027,1.689-1.694,2.813-1.443,3.754
				c0.127,0.489,0.05,1.515-0.255,2.703c-0.298,1.189-0.814,2.536-1.377,3.657c-0.281,0.56-0.622,1.451-0.993,2.49l-0.569,1.643
				c-0.191,0.553-0.404,1.23-0.569,1.826c-0.674,2.443-1.043,4.681-1.327,5.161c-0.282,0.477-0.633,2.043-0.868,3.629
				c-0.241,1.585-0.359,3.189-0.388,3.709c-0.035,0.52-0.032,2.047,0.067,3.755c0.089,1.708,0.303,3.6,0.464,4.852
				c0.152,1.252,0.501,2.593,0.926,3.788c0.417,1.199,0.938,2.247,1.218,3.004c0.298,0.779,0.935,0.571,1.328,0.074
				c0.406-0.501,0.727-1.172,0.525-1.504c-0.248-0.326-0.915-1.885-1.153-3.644c-0.281-1.743-0.302-3.604-0.339-4.342
				c-0.088-1.482-0.051-3.626-0.387-4.643c-0.387-1.016,0.018-5.382,0.669-6.802c0.586-1.451,2.02-4.845,2.226-6.784
				c0.214-1.977,2.056-3.702,2.388-6.075c0.164-1.191,1.074-3.125,1.777-5.098C165.415,411.918,165.856,410.013,165.874,409.492z"/>
			<path style="fill:#21983A;" d="M157.752,331.608c-0.702-4.215-2.458-8.079-4.566-2.459c-2.107,5.62-3.161,9.833-2.107,10.536
				c1.054,0.703,2.809-3.51,5.268-3.862C158.805,335.47,157.752,331.608,157.752,331.608z"/>
			<path style="fill:#21983A;" d="M155.996,352.328c1.101-1.928,2.809-3.159,0.35-3.862c-2.457-0.703-3.862-1.053-4.564,1.054
				C151.078,351.627,154.591,354.787,155.996,352.328z"/>
			<path style="fill:#21983A;" d="M155.293,369.187c2.458-2.108,1.053-7.024-1.054-7.727c-2.107-0.702-5.969-2.809-5.969-1.404
				c0,1.404-2.107,4.916,0.35,6.673c2.458,1.755,1.055,3.512,3.162,4.917C153.889,373.05,155.293,369.187,155.293,369.187z"/>
			<path style="fill:#21983A;" d="M163.722,378.319c0.95-2.374-0.702-7.023-2.81-5.619c-2.107,1.404-3.161,3.161-2.107,4.214
				C159.86,377.968,163.02,380.075,163.722,378.319z"/>
			<path style="fill:#21983A;" d="M174.961,389.206c0-2.459-4.214-3.862-6.322-3.512c-2.107,0.352-5.619-1.755-7.024-1.405
				c-1.405,0.351-1.405,2.457-0.351,4.917c1.053,2.46,2.108,4.214,4.215,4.214s1.448-3.682,3.16-3.161
				C176.717,392.719,174.961,389.206,174.961,389.206z"/>
			<path style="fill:#21983A;" d="M183.741,420.114c-3.577-0.162-7.724-0.001-9.131-1.406c-1.405-1.404,0-2.107-3.863-3.512
				c-3.864-1.404-3.025-6.125-5.201-3.589c-2.174,2.536-4.282,6.751-4.282,9.912c0,3.16,0.001,3.862,1.756,3.16
				c1.756-0.702,3.512-0.351,4.917,0c1.406,0.351,3.513-2.81,6.674-1.054c3.162,1.756,2.107,1.755,5.97,2.458
				C184.444,426.786,191.467,420.466,183.741,420.114z"/>
			<path style="fill:#21983A;" d="M173.557,434.162c-3.022,0.863-5.971-1.405-8.429-2.107c-2.459-0.704-3.513-0.352-3.864,1.053
				c-0.351,1.404-0.001,2.809,1.405,3.16c1.406,0.352,2.108,0.703,4.566,2.107c2.458,1.405,2.107,2.811,5.619,1.054
				c3.512-1.756-0.703,0.351,3.512-1.756C180.58,435.566,176.016,433.459,173.557,434.162z"/>
			<path style="fill:#21983A;" d="M171.098,446.455c-3.71-0.742-4.565,0.702-7.024,0c-2.459-0.703-2.107,2.459-1.055,3.16
				c1.055,0.702,2.81,0.702,5.619,0.702C171.449,450.318,176.366,447.508,171.098,446.455z"/>
			<path style="fill:#21983A;" d="M285.243,390.26c1.081,2.103-1.055,2.459-2.107,4.918c-1.055,2.458-2.459,5.97,0.35,4.565
				c2.81-1.404,2.458-0.352,4.214-2.107c1.757-1.755,1.054-2.809,3.864-2.809c2.81,0,6.903,1.855,4.329-0.302
				C293.32,392.367,285.243,390.26,285.243,390.26z"/>
			<path style="fill:#21983A;" d="M302.803,396.231c-2.107-0.351-5.269,0.701-7.726,3.511c-2.458,2.81-1.055,3.161,0.35,2.81
				c1.407-0.35,2.811-1.053,4.566-1.053c1.756,0,0.702-2.109,3.863-1.757c3.161,0.353,5.97-1.053,4.215-2.458
				C306.316,395.88,302.803,396.231,302.803,396.231z"/>
			<path style="fill:#21983A;" d="M312.638,405.363c2.107-0.352,1.755-3.513-0.352-3.864c-2.107-0.351-4.565,0.703-4.917,1.756
				c-0.352,1.054-2.459,3.161-0.352,3.512C309.124,407.118,312.638,405.363,312.638,405.363z"/>
			<path style="fill:#21983A;" d="M145.169,330.906c-1.232-0.145-2.346-0.274-3.1-0.462c-1.361-0.348-2.726-0.213-3.993-0.01
				c-1.275,0.204-2.461,0.475-3.637,0.401c-1.179-0.076-2.808,0.257-4.301,0.748c-1.498,0.485-2.866,1.11-3.651,1.502
				c-1.565,0.77-6.32,2.053-7.521,1.934c-1.196-0.101-3.573,0.444-5.235,0.686c-0.829,0.129-2.895,0.516-4.904,0.555
				c-2.006,0.076-3.916-0.248-4.365-0.377c-0.861-0.228-2.33,2.17-0.776,2.211c0.765,0.002,1.939,0.265,3.307,0.441
				c1.367,0.19,2.923,0.286,4.346,0.182c1.425-0.093,3.577-0.306,5.472-0.613c1.902-0.298,3.557-0.632,4.115-0.773
				c1.149-0.296,6.761-1.785,7.74-2.363c0.496-0.307,2.886-0.859,5.469-1.164c2.587-0.334,5.344-0.294,6.693-0.355
				c1.118-0.077,2.387,0.025,3.549,0.239C144.555,332.731,144.823,331.806,145.169,330.906z"/>
			<path style="fill:#21983A;" d="M100.362,346.934c-2.476,3.12-5.563,6.742-8.807,10.432c-3.236,3.695-0.776-0.378-3.7,3.113
				c-2.938,3.48-4.745,6.045-5.586,7.677c-0.434,0.809-0.65,1.372-0.771,1.642c-0.128,0.27-0.176,0.239-0.121-0.099
				c0.111-0.665,0.169-1.733,0.771-3.408c0.596-1.668,1.773-3.887,3.939-6.63c2.17-2.737,4.209-5.103,5.917-7.144
				c1.712-2.035-2.746,4.107-1.748,2.835c0.995-1.273,1.339-1.583,2.234-2.479c0.877-0.909,2.378-2.358,5.359-6.119
				c2.957-3.774,4.546-6.095,5.395-7.133c0.832-1.046,1.039-0.724,0.498,0.582C102.687,342.81,100.373,346.942,100.362,346.934z"/>
			<path style="fill:#21983A;" d="M139.634,302.319c-2.046,0.626-3.883,0.793-5.886,0.89c-1.005,0.044-2.062,0.056-3.234,0.06
				c-1.147,0.003-2.512-0.029-4.076,0.061c-3.11,0.157-7.02,0.638-10.556,1.564c-3.547,0.891-6.663,2.237-8.429,3.122
				c-1.778,0.867-3.994,2.167-5.928,3.488c-1.938,1.32-3.613,2.618-4.522,3.322c-1.826,1.393-3.87,2.516-7.731,6.022l-0.703,0.618
				c-0.134,0.112-0.173,0.156-0.382,0.319l-0.301,0.238l-0.228,0.302c-0.169,0.225-0.196,0.28-0.292,0.417l-0.233,0.351l-0.425,0.66
				l-1.451,2.328l-3.244,5.189c-2.824,4.535-7.658,14.008-10.578,19.324c-2.929,5.314,0.009,2.796-4.22,10.859
				c-1.053,2.016-1.485,3.942-1.323,4.752c0.095,0.39,0.327,0.47,0.626,0.259c0.326-0.255,0.792-0.914,1.395-2.089
				c2.435-4.695,3.162-6.028,5.016-8.467c1.853-2.441-0.385-1.244,0.657-4.123c1.016-2.9,7.083-11.633,9.028-14.846l3.912-6.855
				c0.755-1.293,1.528-2.572,2.263-3.687c0.366-0.558,0.724-1.075,1.061-1.529l0.248-0.326l0.078-0.093l0.509-0.371
				c1.568-1.126,3.471-2.443,5.916-4.393c2.473-1.924,5.364-4.559,9.558-7.621c0.951-0.669,2.173-1.532,4.602-2.68
				c2.426-1.116,6.112-2.554,12.076-3.277c1.486-0.18,3.721-0.486,5.888-0.647c2.181-0.154,4.261-0.424,5.389-0.557
				c1.124-0.132,3.825-0.171,6.693-1.088c1.423-0.457,2.877-1.166,4.017-2.148c1.158-0.977,1.894-2.199,2.262-3.319
				c0.356-1.119,0.632-1.632,0.207-1.465c-0.43,0.171-1.051,0.925-1.701,1.677c-0.667,0.77-1.556,1.6-2.641,2.268
				C141.877,301.497,140.653,302.004,139.634,302.319z"/>
			<path style="fill:#21983A;" d="M88.692,373.477c0.611,1.279,1.251,2.72,1.722,4.346c0.467,1.62,0.768,3.456,0.529,5.367
				c-0.219,1.908-1.097,3.811-2.379,5.237l-3.413,3.622c-4.286,4.605-5.851,6.609-5.478,5.757c0.436-0.806,0.673-3.023,3.838-6.751
				c0.79-0.923,1.554-1.785,2.278-2.589l1.045-1.158c0.306-0.341,0.569-0.694,0.791-1.046c0.896-1.417,1.086-2.796,1.075-3.776
				c-0.038-0.992-0.016-1.269-0.021-2.075c-0.048-0.787-0.055-2.186-1.432-5.128c-1.437-2.904-2.456-4.617-2.73-5.547
				c-0.298-0.917,0.051-0.97,0.694-0.247c0.646,0.724,1.545,1.681,2.251,2.5C88.169,372.805,88.692,373.477,88.692,373.477z"/>
			<path style="fill:#21983A;" d="M81.761,382.67c-0.555,0.574-0.946,1.382-1.103,2.272c-0.161,0.891-0.11,1.858-0.099,2.782
				c0.067,1.848-0.382,2.895-0.501,2.601c-0.065-0.29-1.11-0.636-1.362-2.255c-0.235-1.595-0.263-2.968-0.244-3.831
				c0.007-0.433,0.103-0.536,0.291-0.815l1.125-1.72c0.682-0.959,1.267-1.217,1.655-1.288c0.39-0.067,0.643,0.128,0.545,0.457
				C81.854,381.527,81.736,382.681,81.761,382.67z"/>
			<path style="fill:#21983A;" d="M80.172,390.217c-0.339,0.362-0.553,1.06-0.66,1.791c-0.115,0.734-0.152,1.527-0.245,2.25
				c-0.164,1.45-0.619,2.076-0.633,1.849c-0.002-0.222-0.537-0.662-0.505-1.816c0.039-1.147,0.046-2.083,0.044-2.664
				c-0.005-0.289,0.053-0.363,0.154-0.567c0.127-0.203,0.225-0.543,0.667-1.341c0.468-0.827,1.266-1.015,1.546-0.86
				c0.298,0.148,0.177,0.339,0.036,0.426C80.195,389.495,80.155,390.228,80.172,390.217z"/>
			<path style="fill:#21983A;" d="M76.028,384.399c-4.045,2.327-9.244,7.038-12.541,11.536c-1.664,2.242-2.569,3.946-3.083,4.974
				c-0.504,1.031-0.695,1.374-0.596,0.978c0.103-0.392,0.133-0.991,0.414-2.009c0.285-1.009,0.851-2.458,2.119-4.294
				c2.565-3.641,5.134-6.134,6.589-7.615c0.74-0.73,0.99-0.896,1.641-1.367c0.661-0.456,1.697-1.276,4.237-2.958
				c2.554-1.66,4.265-2.194,5.029-2.278c0.77-0.068,0.628,0.186-0.102,0.527C78.233,382.577,76.012,384.396,76.028,384.399z"/>
			<path style="fill:#21983A;" d="M59.357,390.288c-1.062,1.696-1.704,4.124-1.517,6.621c0.084,1.248,0.345,2.508,0.727,3.72
				c0.093,0.294,0.207,0.626,0.298,0.878c0.083,0.224,0.224,0.5,0.368,0.783c0.296,0.573,0.623,1.208,0.869,1.872
				c0.51,1.331,0.618,2.616,0.512,3.605c-0.102,0.998-0.365,1.731-0.596,2.245c-0.484,1.022-0.82,1.23-0.693,0.87
				c0.114-0.368,0.086-0.993,0-1.939c-0.105-0.951-0.242-2.193-0.881-3.833c-0.319-0.832-0.776-1.561-1.205-2.368
				c-0.106-0.203-0.21-0.427-0.3-0.652l-0.223-0.592c-0.145-0.388-0.272-0.77-0.388-1.139c-0.46-1.474-0.682-2.761-0.81-3.723
				c-0.112-0.968-0.036-1.254,0.114-2c0.087-0.374,0.192-0.864,0.395-1.601c0.207-0.735,0.502-1.722,1.111-3.02
				c1.27-2.592,2.76-3.617,3.48-3.937c0.769-0.301,0.837,0.047,0.379,0.621c-0.464,0.595-0.935,1.495-1.218,2.245
				C59.486,389.697,59.358,390.289,59.357,390.288z"/>
			<path style="fill:#21983A;" d="M55.065,381.999c-1.788,0.642-3.796,1.889-5.243,3.662c-1.478,1.76-2.238,4.006-2.443,6.165
				l-0.066,0.787c-0.012,0.089-0.012,0.324-0.016,0.531l-0.005,0.301l-0.003,0.147l-0.096,0.141l-0.344,0.505l-0.214,0.284
				l-0.408,0.524c-0.525,0.657-0.974,1.158-1.33,1.516c-0.708,0.715-1.041,0.861-0.857,0.557c0.183-0.306,0.28-0.873,0.563-1.744
				c0.14-0.434,0.327-0.946,0.593-1.539l0.217-0.46c0.058-0.151,0.097-0.17,0.098-0.297c-0.014-0.15-0.033-0.192-0.035-0.435
				c-0.006-0.216-0.009-0.443,0.002-0.675c0.064-1.879,0.481-3.571,1.045-4.934c0.563-1.368,1.252-2.408,1.781-3.152
				c0.545-0.736,0.786-0.877,1.37-1.278c0.603-0.372,1.525-1.092,3.882-2.235c2.387-1.096,3.998-1.139,4.732-1.015
				c0.747,0.156,0.654,0.486,0,0.727C56.932,380.556,55.039,381.984,55.065,381.999z"/>
			<path style="fill:#21983A;" d="M56.096,386.458c-1.972-0.133-4.678,0.662-6.582,1.804c-0.972,0.55-1.632,1.009-2.07,1.257
				c-0.422,0.259-0.621,0.296-0.502,0.161c0.245-0.235,0.284-1.229,1.853-2.306c1.57-1.025,2.987-1.55,3.81-1.884
				c0.416-0.158,0.548-0.154,0.896-0.168l2.207-0.117c1.305-0.038,2.069,0.214,2.394,0.427c0.327,0.223,0.225,0.395-0.128,0.414
				C57.249,386.073,56.088,386.452,56.096,386.458z"/>
			<path style="fill:#21983A;" d="M54.296,376.744c-1.388-0.201-3.108-0.185-4.792,0.194c-1.69,0.365-3.302,1.122-4.551,2.1
				c-1.257,0.973-1.981,1.879-2.453,2.395c-0.456,0.529-0.656,0.679-0.544,0.446c0.116-0.226,0.172-0.626,0.42-1.244
				c0.251-0.608,0.699-1.466,1.712-2.354c2.054-1.761,4.19-2.392,5.38-2.75c0.608-0.171,0.795-0.16,1.288-0.167
				c0.494,0.011,1.294-0.039,3.139,0.079c1.845,0.146,2.889,0.585,3.326,0.874c0.44,0.307,0.284,0.453-0.21,0.385
				C55.993,376.548,54.29,376.731,54.296,376.744z"/>
			<path style="fill:#21983A;" d="M61.198,369.568c-2.784,1.176-6.187,2.248-9.722,3.187c-0.948,0.243-1.617,0.418-2.346,0.804
				c-0.717,0.366-1.404,0.843-2.051,1.374c-1.295,1.068-2.435,2.348-3.432,3.634c-1.981,2.592-3.087,4.648-3.593,5.856
				c-0.251,0.609-0.334,1.005-0.361,1.192c-0.021,0.197-0.078,0.216-0.143-0.015c-0.1-0.453-0.23-1.272,0.01-2.585
				c0.246-1.301,0.84-3.104,2.349-5.272c1.517-2.154,3.159-3.915,4.844-5.168c0.842-0.625,1.697-1.118,2.532-1.461
				c0.891-0.343,1.5-0.499,2.074-0.715c1.122-0.399,1.459-0.437,2.373-0.609c0.899-0.201,2.437-0.425,5.677-1.732
				c3.213-1.345,4.923-2.429,5.838-2.84c0.894-0.434,1.023-0.108,0.304,0.675c-0.717,0.766-1.766,1.733-2.687,2.451
				C61.947,369.063,61.197,369.566,61.198,369.568z"/>
			<path style="fill:#21983A;" d="M124.159,308.711c-1.788,0.902-2.373,2.18-3.544,4.733c-1.171,2.553-0.824,3.486-2.74,2.607
				c-1.915-0.879-3.203-3.795-1.808-5.663C117.463,308.521,124.159,308.711,124.159,308.711z"/>
			<path style="fill:#21983A;" d="M135.17,306.978c-1.518,1.624,1.61,5.762-3.447,4.99c-5.054-0.773-4.056-3.793-2.513-4.63
				C130.753,306.5,135.17,306.978,135.17,306.978z"/>
			<path style="fill:#21983A;" d="M240.263,292.165c1.9,0.805,4.396,1.397,7.374,2.032c2.972,0.64,6.428,1.383,10.131,2.719
				c7.43,2.688,12.463,6.384,14.137,7.521c1.695,1.174,4.283,3.802,2.43,2.869c-1.84-0.927-3.805-2.323-5.268-3.019
				c-1.462-0.679-2.357-1.535-5.287-2.82c-1.469-0.627-3.255-1.259-5.017-1.748c-1.762-0.494-3.501-0.849-4.856-1.093
				c-2.706-0.48-4.521-1.445-8.182-1.637c-3.65-0.168-5.964-0.132-6.612-0.998c-0.324-0.426-0.163-0.931-0.173-1.569
				c-0.002-0.642-0.197-1.403-0.999-2.415c-0.764-1.029-0.181-0.93,0.556-0.624C239.242,291.691,240.258,292.169,240.263,292.165z"
				/>
			<path style="fill:#21983A;" d="M245.726,296.99c0,0-3.335,7.295,0.879,7.295c4.214,0,4.214-7.727,4.214-7.727L245.726,296.99z"/>
			<path style="fill:#21983A;" d="M257.768,296.915c0,0-6.247,12.988-0.628,10.178c5.619-2.809,6.64-5.626,6.64-5.626
				L257.768,296.915z"/>
			<path style="fill:#21983A;" d="M190.552,286.956c0.592,0.281,0.852,1.103,0.823,1.836c-0.031,0.724-0.456,1.354-1.335,1.012
				c-0.857-0.345-1.755-0.429-2.582-0.585c-0.819-0.154-1.552-0.378-1.897-0.896c-0.347-0.514-1.228-1.425-2.148-2.57
				c-0.928-1.139-1.884-2.512-2.675-3.726c-0.825-1.199-1.914-3.997-2.414-6.68c-0.547-2.678-0.598-5.19-0.777-5.758
				c-0.189-0.566-0.269-2.346-0.093-4.127c0.156-1.782,0.586-3.546,0.752-4.112c0.154-0.566,0.712-2.206,1.652-3.919
				c0.915-1.726,2.304-3.456,3.373-4.457c1.044-1.026,2.442-1.867,3.758-2.367c1.315-0.519,2.511-0.721,3.227-0.98
				c1.478-0.46,0.868,2.031,0.061,2.121c-0.428,0.039-2.241,0.43-3.76,1.531c-1.55,1.051-2.688,2.659-3.113,3.298
				c-0.92,1.259-1.816,3.33-2.461,4.237c-0.341,0.444-0.846,1.801-1.106,3.284c-0.275,1.479-0.305,3.059-0.156,3.864
				c0.141,0.808,0.392,2.175,0.687,3.57c0.284,1.398,0.61,2.821,0.666,3.872c0.052,1.055,0.518,2.069,1.058,3.055
				c0.542,0.992,1.15,1.954,1.56,3.067c0.394,1.127,1.812,2.787,3.375,3.804C188.582,286.391,190.155,286.78,190.552,286.956z"/>
		</g>
	</g>
	<path style="fill:#21983A;" d="M97.164,273.048c-0.749-0.415-0.331-1.159-0.828-1.323c-0.497-0.167-0.248-0.912,0.163-1.074
		c0.414-0.168,0.828-0.332,1.322-0.332c0.497,0,0.829,0.578,0.829,0.824c0,0.251,0.743,0.829,0.167,0.912
		c-0.577,0.08,0,0.661-0.498,0.744C97.821,272.88,97.164,273.048,97.164,273.048z"/>
	<path style="fill:#21983A;" d="M114.312,271.261c-0.993-0.218-0.426-1.753,0.223-1.323c1.317,0.882,1.54,1.323,1.099,1.656
		c-0.441,0.33-0.33,0.33-1.211,0.33S114.312,271.261,114.312,271.261z"/>
	<path style="fill:#21983A;" d="M124.533,261.571c0,0,0.062-1.18,0.062-1.366c0-0.184-0.248-0.248,0.371-0.37
		c0.62-0.126,1.116,0.122,1.116,0.122s0.188,0.311,0.433,0.559c0.251,0.248-0.06,0.558-0.06,0.558
		c-0.436,0.619-0.496,0.807-0.806,0.866c-0.311,0.062-0.371-0.122-0.684-0.122C124.658,261.819,124.533,261.571,124.533,261.571z"/>
	<path style="fill:#21983A;" d="M86.135,221.253c0.34,0.076,2.203-1.327,2.645-1.327c0.44,0,0.551,0.112,1.215,0.663
		c0.659,0.552,0.106,1.211-0.111,1.652c-0.223,0.441-0.112,1.104-1.104,1.434c-0.993,0.334-2.316-0.441-2.316-0.441
		s-0.106-0.659-0.552-0.77C85.476,222.352,84.701,220.919,86.135,221.253z"/>
	<path style="fill:#21983A;" d="M103.973,241.456c-0.225-0.303,0.155-0.986-0.076-1.212c-0.226-0.226-0.982,0.153-0.226-0.226
		c0.758-0.379,0.758-0.456,1.062-0.529c0.303-0.076,0.375-0.153,0.758-0.076c0.376,0.076,0.376,0.303,0.376,0.529
		s0.076,0.908,0.076,0.908v0.533c-0.453,0.304-0.605,0.757-0.986,0.757c-0.38,0-0.602,0.076-0.908-0.077
		C103.747,241.913,103.973,241.456,103.973,241.456z"/>
	<path style="fill:#21983A;" d="M68.525,256.07c-0.441-0.441,0.659-1.656,1.216-1.656c0.547,0,0.881,0.112,1.54,0.112
		c0.659,0,0.329,0.552,0.329,1.104c0,0.552-0.106,1.211-0.106,1.211s-0.374,0.628-0.775,0.663c-1.211,0.106-1.099,0.218-1.763-0.334
		c-0.663-0.547,0.329-0.77,0.329-0.77L68.525,256.07z"/>
	<path style="fill:#21983A;" d="M97.8,255.151c-0.329,0.223-0.441,0.663-0.659,1.104c-0.223,0.441-0.663,0.663-0.223,0.881
		c0.441,0.223,0.441,0.223,0.441,0.223l1.211-0.329c0.993,0.547,0.445,1.099,0.993,0.547c0.551-0.547,0.445-0.441,0.663-0.993
		c0.218-0.547,0.218-1.433-0.112-1.322c-0.329,0.112-0.106-0.218-0.106-0.547c0-0.334,0-0.334,0-0.334l-0.881-0.329l-0.334,0.881
		L97.8,255.151z"/>
</g>
</svg>
