<?xml version="1.0" encoding="iso-8859-1"?>
<!-- Generator: Adobe Illustrator 18.1.1, SVG Export Plug-In . SVG Version: 6.00 Build 0)  -->
<svg version="1.1" id="_x31_" xmlns="http://www.w3.org/2000/svg" xmlns:xlink="http://www.w3.org/1999/xlink" x="0px" y="0px"
	 viewBox="0 0 512 512" style="enable-background:new 0 0 512 512;" xml:space="preserve">
<g>
	<path style="fill:#FFFFFF;" d="M466.569,164.011c-0.949,2.849-15.193,28.488-16.143,33.236c-0.95,4.748,0-19.941,0-29.437
		c0-9.496-7.598-23.74-6.648-14.244c0.95,9.496-2.849,36.084-3.798,43.681c-0.949,7.597-6.647,20.891-6.647,18.042
		s3.797-37.034-3.799-41.782c0,18.042-11.394,53.177-18.991,59.824c-7.597,6.647-39.883,25.639-54.127,32.286
		c-14.244,6.647-20.892,7.597-20.892,7.597s-45.58,6.651-57.925,12.345c-4.113,1.897-8.214,3.258-11.87,4.243
		c3.759-12.71,3.323-46.029,3.323-46.029s11.395,4.747,16.618,6.647c5.223,1.899,14.718,3.324,20.416,0.949
		c5.698-2.374,13.295-6.172,14.719-8.071c1.424-1.899,4.273-9.496,6.647-11.87c2.374-2.375,2.374-6.647,0.95-10.445
		c-1.424-3.798-6.173-15.668-9.496-18.517c-3.324-2.849-10.92,2.849-10.92,2.849s-3.798-4.273-7.597-6.648
		c-3.799-2.374-0.474,9.971-0.474,9.971s-3.324,1.424-3.324,2.849c0,1.424,1.424,7.597,1.899,10.446
		c0.475,2.849-13.77,0-16.618-2.374c-2.849-2.374-12.344-6.173-13.294-8.546c-0.949-2.374,0.949-10.446,1.899-16.143
		c0.949-5.697,2.849-23.74,1.899-37.034c-0.949-13.295-9.971-23.265-15.668-28.014c-5.698-4.748-6.647-8.546-10.92-12.82
		c-4.273-4.273-20.417-21.366-24.69-25.164c-4.273-3.798-10.445,0.949-12.82,4.748c-2.374,3.799-5.697,7.122-7.122,8.071
		c-1.424,0.949-13.294,3.324-16.143,3.798c-2.849,0.474-10.921-7.122-18.517-9.496c-7.596-2.374-10.446,8.546-12.82,15.668
		c-2.374,7.122-3.799,13.294-4.273,18.517c-0.475,5.223-3.799,15.193-3.799,15.193s-2.849-4.273-3.798-5.698
		c-0.949-1.424-19.466-23.265-22.315-26.588s-9.496-12.345-10.446-13.769c-0.949-1.424-9.971-18.043-10.446-21.366
		c-0.475-3.323-10.445-14.244-10.92-19.941c-0.475-5.698-0.949-18.043-1.424-19.467c-0.475-1.424-1.424-5.222,0.949-9.971
		c2.374-4.748,0.475-14.244-3.798-19.466c-4.273-5.223-0.475-5.698-3.798-9.971c-6.173,1.899-5.223,10.92-5.698,16.143
		c-0.475,5.223-3.799,6.647-4.273,1.899c-0.475-4.748-1.424-9.971-3.799-11.869c-2.375-1.899-10.445-4.748-13.769-4.748
		c-3.324,0-2.849,3.324-3.324,5.223c-0.475,1.899-3.798,6.648-5.223,12.345c-1.424,5.698-0.475,25.164-0.475,28.013
		c0,2.849,13.77,9.021,17.568,11.87c3.798,2.849,3.324,4.747,5.223,7.122c1.899,2.374,10.921,23.265,11.869,27.538
		c0.95,4.273,14.244,30.387,14.72,32.761c0.474,2.374,11.869,13.297,14.244,21.369c2.374,8.072,14.243,25.164,18.042,33.236
		c3.798,8.072,7.123,14.244,10.446,22.79c0,0-8.072,26.111-11.87,33.707c-3.798,7.596-5.698,33.711-4.748,50.329
		c0.556,9.733,5.19,22.397,10.647,35.035c-2.215-0.811-3.524-1.321-3.524-1.321c-8.546-0.949-31.337-4.748-49.379,0.95
		c-18.042,5.698-29.437,22.79-26.588,30.387c2.849,7.597,19.941,31.337,35.135,41.782c15.194,10.446,36.086,22.791,35.136,38.934
		c-0.95,16.143-13.295,24.69-18.992,28.488c-5.698,3.798-17.093,10.445-25.639,13.294c-8.546,2.849-7.597,6.647-7.597,6.647
		l19.941-3.799c0,0-22.79,8.546-25.639,17.093c13.295-0.949,38.934-19.941,41.782-15.193c2.849,4.748,4.747,1.899-4.748,7.597
		s-22.789,15.193-24.689,20.891c-1.899,5.698,15.194-8.546,25.639-11.395c10.445-2.849,19.941-11.395,24.689-17.093
		c4.748-5.698,17.093-28.487,19.941-32.286c2.849-3.799,2.85-19.942-1.899-29.438c-4.748-9.496-10.446-26.589-16.143-37.034
		c-5.698-10.445-8.546-17.093,0-14.244c8.546,2.849,53.177-3.799,57.925-5.698c4.748-1.899,9.496-3.799,14.244-2.849
		c4.748,0.95,26.588-7.597,31.337-11.395c4.748-3.798,23.74-1.899,32.287-2.849c8.546-0.949,44.63-11.395,50.328-14.244
		c5.698-2.849,18.992-12.345,18.992-12.345s30.387-23.74,33.236-23.74c2.849,0,34.185-9.496,44.63-15.194
		c10.446-5.698,18.992-22.79,18.992-22.79s15.194,0,18.992-6.647c3.798-6.647,11.395-18.992,11.395-31.337
		c0-12.344,3.798-36.084,9.496-43.681C474.166,168.759,467.519,161.162,466.569,164.011z"/>
	<g>
		<g>
			<path style="fill:#231815;" d="M84.876,37.033c3.402-6,4.773-11.419,2.241-18.032c-1.21-3.16-3.871-5.635-5.188-8.804
				c-1.202-2.892-0.732-6.958-0.741-10.018c-0.001-0.239-0.676-0.172-0.774-0.163c-9.94,0.843-9.012,12.412-8.285,19.824
				c0.047,0.484,2.821-0.031,2.751-0.737c-0.483-4.936-1.113-9.921,0.808-14.626c1.018-2.491,2.74-2.388,2.796,0.501
				c0.04,2.029,0.285,3.974,0.694,5.957c0.796,3.857,4.518,7.053,5.937,10.761c2.076,5.423-0.281,11.132-2.948,15.836
				C81.984,37.85,84.492,37.711,84.876,37.033z"/>
			<path style="fill:#231815;" d="M50.963,13.865c1.586-0.213,3.523-0.072,5.275,0.788c1.758,0.841,3.183,2.261,4.275,3.805
				c2.171,3.131,3.276,6.769,3.801,10.068c0.496,3.318,0.261,5.673,0.002,7.035c-0.277,1.366-0.579,1.762-0.577,1.278
				c-0.046-0.983-1.066-2.881-1.877-7.511c-0.85-4.669-2.733-8.036-4.163-9.437c-0.712-0.703-0.839-0.932-1.308-1.525
				c-0.243-0.279-0.575-0.654-1.193-1.047c-0.616-0.378-1.536-0.804-2.954-0.739c-1.416,0.069-2.595,0.468-3.528,0.742
				c-0.935,0.291-1.63,0.52-2.117,0.595c-0.97,0.172-1.102-0.255-0.346-0.918c0.755-0.648,1.803-1.531,2.802-2.152
				C50.045,14.222,50.963,13.863,50.963,13.865z"/>
			<path style="fill:#231815;" d="M51.681,28.518c1.397,0.449,2.983,1.061,4.458,2.004c1.472,0.928,2.837,2.177,3.677,3.631
				c0.846,1.455,0.933,2.747,0.796,3.469c-0.142,0.734-0.417,0.943-0.452,0.726c-0.045-0.221-0.384-0.501-0.829-0.892
				c-0.444-0.399-0.976-0.897-1.533-1.725c-1.157-1.678-2.695-2.482-3.585-2.738c-0.456-0.128-0.523-0.248-0.779-0.517
				c-0.256-0.248-0.707-0.714-1.996-1.09c-1.273-0.338-2.024-0.61-2.462-0.969c-0.431-0.347-0.46-0.772,0.001-0.965
				C49.838,29.031,51.664,28.483,51.681,28.518z"/>
			<g>
				<path style="fill:#231815;" d="M168.363,97.995c-1.125-0.23-2.352-0.223-3.499,0.066c-1.151,0.284-2.189,0.825-3.089,1.454
					c-0.945,0.695-1.598,1.337-2.332,2.02c-0.71,0.682-1.381,1.391-1.996,2.118c-2.49,2.943-3.772,6.066-4.747,7.93
					c-0.976,1.91-1.6,4.267-1.78,5.939c-0.088,0.854-0.065,1.576,0.129,2.216c0.199,0.632,0.561,1.229,1.306,1.611
					c0.601,0.309,1.319,0.172,1.997-0.351c0.68-0.516,1.274-1.385,1.7-2.337c0.858-1.934,1.111-4.08,1.068-5.433
					c-0.04-1.346,0.419-5.118,2.761-8.47c0.573-0.839,1.243-1.653,1.961-2.422c0.711-0.789,1.414-1.428,2.244-1.879
					c1.625-0.944,3.423-0.846,4.598-0.387c2.399,0.905,4.367,2.806,6.121,4.681c1.756,1.909,3.309,3.911,4.843,5.75
					c1.533,1.874,3.744,2.311,4.553,1.608c0.793-0.728,0.57-1.967-2.192-4.345l-6.152-5.401c-0.858-0.723-1.725-1.449-2.846-2.231
					C171.882,99.379,170.507,98.462,168.363,97.995z"/>
				<path style="fill:#231815;" d="M210.055,91.616c-0.96,0.644-1.801,1.419-2.541,2.203c-0.527,0.549-1.235,1.39-1.957,2.373
					c-0.37,0.509-0.712,0.971-1.123,1.607l-0.999,1.709c-1.212,2.153-2.664,3.64-3.304,3.859c-0.847,0.342-1.607,0.826-1.998,1.568
					c-0.38,0.731-0.491,1.795,0.362,3.224c0.693,1.16,1.843,1.346,2.897,0.874c1.059-0.453,1.895-1.522,2.102-2.378
					c0.178-0.54,1.642-2.809,2.55-5.332l0.692-1.821c0.199-0.538,0.483-1.064,0.753-1.596c0.536-1.033,1.062-1.89,1.425-2.442
					c0.754-1.171,1.728-2.078,2.521-2.435c0.285-0.121,1.301-0.757,2.978-0.935c0.836-0.085,1.828-0.046,2.907,0.167
					c1.095,0.173,2.09,0.613,3.124,1.319c2.035,1.401,3.773,3.681,5.638,5.769c1.868,2.05,3.727,4.006,5.275,5.538
					c6.067,6.075,6.367,7.23,6.957,8.151c0.524,0.939,1.857,1.038,2.831,0.643c0.963-0.375,1.469-1.565-0.064-2.942
					c-1.495-1.218-2.134-1.924-8.064-7.55c-1.596-1.491-3.396-3.313-5.275-5.31c-1.827-1.96-3.632-4.35-6.098-6.036
					c-0.612-0.418-1.269-0.773-1.943-1.054c-0.668-0.291-1.436-0.467-2.036-0.568c-1.273-0.233-2.516-0.27-3.604-0.126
					C211.854,90.387,210.488,91.343,210.055,91.616z"/>
				<path style="fill:#231815;" d="M244.594,116.579c0.561,1.689,0.298,2.971,0.289,4.04c-0.047,1.075,0.017,1.982,0.237,2.771
					c0.421,1.561,1.471,2.605,2.459,2.679c0.496,0.04,0.999,0.513,1.648,1.293l2.344,2.779c1.78,2.057,4.032,4.325,6.346,5.817
					c2.325,1.493,3.619,3.249,4.405,4.713c0.794,1.47,1.086,2.614,1.71,3.094c0.618,0.485,1.468,1.61,1.997,2.863
					c0.581,1.27,0.978,2.656,1.164,3.408c0.196,0.752,0.629,2.128,0.942,3.354c0.323,1.222,0.552,2.279,0.554,2.278
					c0.037-0.019,0.876,4.255,0.864,6.453c-0.011,1.087,0.369,3.861,0.432,7.248c0.047,3.402-0.374,7.427-0.979,10.935
					c-0.686,3.951-0.845,6.36-0.79,8.104c0.053,1.745,0.279,2.827,0.543,4.158c0.348,1.678,1.013,2.504,1.436,2.173
					c0.454-0.34,0.613-1.751,0.672-4.788c0.088-3.057,0.563-5.533,0.986-7.634c0.434-2.104,0.847-3.845,1.085-5.499
					c0.461-3.33,0.725-5.209,0.872-8.764c0.047-1.769,0.022-2.662,0.025-3.861c-0.013-1.205,0.002-2.683-0.122-5.54
					c-0.21-3.493-0.417-3.464-1.242-5.7c-0.91-2.203-0.54-3.511-2.169-6.749l-1.036-2.02l-0.811-1.641
					c-0.462-0.949-0.843-1.781-1.541-2.744c-0.703-0.955-1.134-1.549-1.859-2.46c-0.727-0.903-1.775-2.114-3.776-4.062
					c-2.003-1.939-3.87-3.491-5.386-4.867c-0.757-0.681-1.447-1.335-2.007-1.91c-0.271-0.272-0.597-0.643-0.814-0.879
					c-0.205-0.232-0.397-0.488-0.569-0.738c-1.369-2.097-2.885-3.869-3.467-5.6c-0.287-0.887-1.293-1.767-2.37-2.258
					c-0.542-0.254-1.05-0.373-1.497-0.446C244.726,116.511,244.623,116.6,244.594,116.579z"/>
				<path style="fill:#231815;" d="M168.469,149.536c-1.757-0.168-3.518-0.292-4.841-0.093c-1.333,0.175-2.28,0.672-2.413,1.249
					c-0.115,0.574,0.31,1.126,1.436,1.778c0.576,0.324,1.346,0.674,2.386,1.013c1.056,0.323,2.306,0.695,4.158,0.769
					c0.888-0.017,1.846,0.04,3.229-0.691l-0.163,0.09c2.732-1.328,4.747-2.9,6.628-4.279c0.938-0.695,1.84-1.356,2.757-1.949
					c0.457-0.3,0.926-0.575,1.378-0.825c0.478-0.254,1.042-0.515,1.584-0.779c2.187-1.048,4.476-2.112,7.139-3.009
					c2.657-0.88,5.716-1.623,9.298-1.609c7.664,0.223,14.957,2.263,21.862,3.363c3.486,0.537,6.734,0.992,9.939,1.295
					c0.795,0.078,1.586,0.127,2.363,0.174l1.16,0.054l0.036,0.002l0.186-0.009l0.07-0.004l0.159-0.012
					c0.214-0.032,0.49-0.095,0.647-0.15c0.298-0.099,0.543-0.213,0.771-0.328c1.666-0.94,2.646-1.941,3.711-2.874
					c1.974-1.836,3.08-3.368,3.494-4.157c0.214-0.424,0.458-0.722,0.482-0.949c0.028-0.224-0.125-0.729-0.682-0.928
					c-0.537-0.225-1.525,0.021-2.426,0.448c-0.936,0.44-1.967,1.139-3.105,2.048l-1.786,1.479c-0.591,0.498-1.333,1.093-1.743,1.317
					l-0.072,0.042c0.04,0.233,0.199,0.356,0.269,0.54c0.09,0.178,0.146,0.388,0.053,0.503l-0.081,0.209l-0.041,0.104
					c0.191-2.751,0.046-0.762,0.085-1.376h-0.012l-0.024,0.001l-0.194,0.004l-0.392,0.009l-1.647,0.04l-3.686,0.065
					c-5.724,0.067-8.901-0.296-12.722-0.981l-6.59-1.171c-2.639-0.403-5.788-0.927-10.07-0.967
					c-6.293,0.079-11.911,1.817-17.044,3.488l-1.922,0.641c-0.671,0.229-1.376,0.525-2.002,0.816
					c-1.278,0.598-2.461,1.269-3.589,1.938c-2.246,1.341-4.306,2.663-6.336,3.589l-0.135,0.061l0.218,0.408
					c-0.31-0.58-0.191-0.376-0.308-0.396c-0.09,0.014-0.221,0.029-0.374,0.036C169.259,149.589,168.869,149.571,168.469,149.536z"/>
				<path style="fill:#231815;" d="M185.113,109.133c4.041-0.085,7.891-1.148,11.704-2.407c1.66-0.548,1.168-2.497-0.519-1.94
					c-3.58,1.182-7.16,2.201-10.954,2.28C183.757,107.099,183.243,109.172,185.113,109.133z"/>
				<path style="fill:#231815;" d="M148.701,125.487c-1.549,4.232-1.457,8.811-3.516,12.892c-0.335,0.663,2.333,0.403,2.738-0.398
					c2.058-4.081,1.967-8.66,3.516-12.892C151.723,124.311,149.005,124.658,148.701,125.487z"/>
				<path style="fill:#231815;" d="M61.956,28.591c10.872,3.167,7.583-9.689,6.217-16.1c-1.47-6.888-12.525-11.84-18.936-8.423
					c-1.225,0.653-1.405,0.81-1.98,2.091c-1.247,2.778-1.541,6.13-2.858,9.051c-2.978,6.6-4.389,13.747-3.553,20.958
					c0.497,4.296,0.845,8.464,0.669,12.792c-0.067,1.632,0.188,2.802,1.643,3.752c2.243,1.465,4.648,2.397,7.07,3.535
					c4.245,1.995,6.569,4.791,9.775,7.997c0.915,0.915,3.512-0.236,2.512-1.235c-4.142-4.142-7.29-7.067-12.715-9.616
					c-7.777-3.655-6.997-21.822-5.642-28.986c0.914-4.831,3.056-9.225,5.065-13.663c0.369-0.814,0.389-2.169,0.492-3.009
					c0.401-3.272,5.095-1.958,6.847-1.702c5.305,0.774,8.102,3.643,9.223,8.902c0.503,2.357,3.044,13.286-2.256,11.742
					C62.295,26.318,60.278,28.103,61.956,28.591z"/>
				<path style="fill:#231815;" d="M88.047,61.53c-0.227-1.171-0.307-2.301-0.213-3.51c0.032-1.751,0.424-5.035,0.724-8.306
					c0.34-3.243,0.181-6.483,0.233-7.541c0.154-1.413-0.284-3.247-1.262-4.352c-0.981-1.123-2.299-1.376-3.571-0.316
					c-1.057,0.872-1.169,1.898-1.026,2.838c0.167,0.935,0.651,1.904,1.209,2.554c0.396,0.387,1.144,2.985,1.287,6.168
					c0.181,3.149,0.105,6.741,0.273,8.496c0.066,1.84,0.361,3.662,0.556,4.841c0.066,0.436,0.407,2.07,1.364,4.251
					c0.935,2.189,2.514,4.862,4.34,7.657c1.823,2.831,3.822,5.727,5.093,8.909c1.353,3.153,2.48,6.283,3.437,8.858
					c3.732,10.164,4.545,11.577,5.074,12.968c0.602,1.414,2.19,1.789,3.119,1.321c0.944-0.488,1.319-1.539-0.07-3.238
					c-1.299-1.728-2.147-2.402-5.905-11.901c-1.011-2.537-2.18-5.643-3.608-8.867c-0.362-0.807-0.74-1.616-1.152-2.43
					c-0.413-0.838-0.901-1.622-1.363-2.383c-0.943-1.526-1.925-2.981-2.843-4.375c-1.852-2.778-3.402-5.359-4.319-7.456
					C88.482,63.626,88.16,62.066,88.047,61.53z"/>
				<path style="fill:#231815;" d="M129.457,197.701l-1.391-4.859c-0.303-1.029-0.646-2.188-1.052-3.146l-0.149-0.321l-0.203-0.37
					l-0.218-0.435l-0.198-0.353c-0.274-0.471-0.592-0.945-0.947-1.426c-1.409-1.885-3.448-4.044-4.57-6.355
					c-1.066-1.936-1.993-3.637-2.475-4.671l-0.486-1.052l-0.315-0.739l-0.284-0.71l-0.376-0.725l-0.481-0.883
					c-0.338-0.613-0.724-1.274-1.15-1.972c-1.675-2.804-4.071-6.168-6.198-9.931c-0.532-0.938-1.03-1.907-1.5-2.889
					c-0.483-1.024-0.863-1.98-1.231-2.871l-2.098-5.004c-1.29-3.01-2.362-5.229-2.728-6.124c-0.185-0.447-0.413-0.972-0.693-1.545
					l-0.448-0.895l-0.331-0.635l-0.241-0.636c-0.524-1.387-1.177-2.884-1.928-4.239c-0.387-0.691-0.748-1.275-1.213-1.906
					c-0.401-0.583-0.555-0.949-0.782-1.491c-0.21-0.516-0.346-1.175-0.369-1.641c0.007-0.321-0.118-0.556-0.247-0.754l-0.26-0.257
					l-0.495-0.471c-2.271-2.208-5.311-5.823-7.235-8.769c-0.476-0.735-1.118-1.73-1.694-2.987l-1.559-3.476l-2.333-5.149
					c-0.346-0.745-1.479-2.759-2.758-4.891l-1.949-3.169c-0.629-1.057-1.191-2.03-1.579-2.778c-0.761-1.496-2.885-5.503-4.973-9.896
					c-1.054-2.192-2.095-4.482-3.021-6.57l-1.271-2.95l-0.919-2.498c-0.98-2.585-2.272-4.862-2.997-6.578
					c-0.02-0.146-0.343-0.638-0.614-1.289c-0.268-0.651-0.345-1.278-0.314-1.677c0.081-0.807,0.38-0.973,0.768-0.66
					c0.79,0.634,1.467,1.086,2.085,1.275c0.6,0.179,1.232,0.354,1.979,0.67c0.301,0.006,0.557,0.196,0.763,0.519
					c0.205,0.307,0.352,0.731,0.522,1.246c0.334,1.038,0.743,2.437,1.683,4.261c1.61,3.637,4.81,10.88,8.146,16.204
					c1.686,2.643,2.89,5.072,3.871,7.214c0.977,2.145,1.769,4.202,2.392,5.929c1.326,3.482,2.657,10.155,4.486,13.315
					c1.778,3.011,5.794,8.322,7.897,9.9l1.052,0.846c0.177,0.15,0.553,0.417,0.86,0.73c0.269,0.353,0.544,0.754,0.737,1.225
					c0.095,0.236,0.169,0.488,0.212,0.753c0.045,0.264,0.072,0.575,0.099,0.646c0.067,0.264,0.17,0.483,0.356,0.791
					c0.098,0.162,0.186,0.298,0.266,0.38c0.089,0.095,0.299,0.351,0.435,0.524c0.31,0.388,0.602,0.789,0.887,1.196
					c1.137,1.63,2.112,3.369,2.965,4.903c0.232,0.417,0.858,1.13,1.28,1.714c0.451,0.581,0.863,1.086,1.22,1.482
					c1.461,1.572,3.153,5.44,4.463,9.238c0.682,1.908,1.235,3.813,1.792,5.193c0.582,1.464,1.161,2.67,1.572,3.361
					c1.662,2.766,1.4-0.501,1.686,2.764c0.335,3.294,0.277,4.536,1.479,6.516c0.294,0.501,1.059,1.566,1.959,2.985l0.701,1.134
					l0.643,1.277c0.442,0.836,0.952,1.69,1.477,2.537l1.572,2.505l0.725,1.181c0.221,0.365,0.436,0.633,0.671,0.956
					c0.922,1.213,1.733,2.149,1.963,2.607c0.936,1.779,2.386,2.551,2.726,4.06c0.076,0.59,0.215,1.204,0.298,1.739
					c0.116,0.565,0.333,1.206,0.836,2.288c0.986,2.157,0.355,1.304,1.845,3.974c0.748,1.318,0.954,1.328,1.12,1.572
					c0.18,0.214,0.274,0.766,1.018,2.678c0.391,0.943,0.455,1.527,0.335,1.977c-0.083,0.507-0.101,1.034-0.547,1.436
					c-0.224,0.198-0.568,0.353-1.011,0.304c-0.441-0.039-0.995-0.328-1.493-0.774C130.962,201.382,130.083,199.832,129.457,197.701z
					"/>
				<path style="fill:#231815;" d="M128.052,332.499c1.748,0.992,3.167,1.056,4.309,0.444c-2.053-4.476-1.472-3.207-3.128-6.194
					c-0.913-1.695-3.052-6.624-4.807-12.099c-1.799-5.46-3.144-11.454-3.697-14.851c-0.284-1.698-0.867-5.047-1.33-9.247
					c-0.469-4.197-0.789-9.247-0.767-14.278c-0.035-10.076,1.525-19.979,2.312-22.931c0.76-2.993,1.641-7.224,3.039-11.679
					c1.362-4.455,3.129-9.117,4.88-12.977c1.729-3.864,4.234-9.912,6.713-16.228c2.508-6.306,4.717-12.968,6.579-17.77
					c1.377-3.578,0.31-4.165-1.291-3.348c-1.616,0.81-3.896,2.803-5.283,4.432c-2.713,3.313-5.494,8.548-7.4,12.631
					c-1.856,4.067-2.697,9.523-3.854,12.41c-1.153,2.869-1.448,7.002-2.282,9.206c-0.827,2.208-2.08,4.248-3.551,8.819
					c-1.442,4.574-1.805,7.9-1.609,11.202c0.156,3.267-1.25,9.39-1.576,12.537c-0.341,3.13-1.36,4.604-1.62,9.375
					c-0.168,4.761,0.211,4.021,1.141,10.345c1.063,6.294,0.871,7.843,0.764,11.028c-0.042,1.587,0.348,5.532,1.102,9.526
					c0.732,3.997,1.843,8.02,2.564,9.88c1.381,3.745,4.012,10.349,5.177,13.265c0.819,2.146,1.893,4.189,2.919,6.243
					C127.582,332.289,127.815,332.365,128.052,332.499z"/>
				<path style="fill:#231815;" d="M120.225,436.124c-0.107,2.289-0.319,4.001-0.678,5.82c-0.372,1.808-0.919,3.744-2.267,6.18
					c-1.376,2.423-2.929,3.727-4.636,5.024c-1.74,1.283-3.66,2.566-6.344,4.72c-5.4,4.242-8.232,7.145-8.208,7.194
					c2.495-0.85,4.976-1.81,7.436-2.909c-0.011,0.013,4.139-2.473,6.774-5.618c1.316-1.547,2.776-2.639,4.357-4.14
					c1.55-1.499,3.284-3.442,4.449-6.73c1.137-3.289,1.384-6.182,1.328-8.637c-0.098-2.482-0.404-4.517-0.785-6.648
					c-0.394-2.028-1.252-2.767-1.566-1.947c-0.163,0.412-0.193,1.216-0.063,2.47C120.133,432.157,120.3,433.862,120.225,436.124z"/>
				<path style="fill:#231815;" d="M97.952,468.07c-3.86,1.209-4.084-1.032-8.224,1.064c-4.152,2.085-9.877,4.408-12.667,5.841
					c-1.388,0.733-4.263,1.953-6.831,2.885c-2.562,0.947-4.808,1.626-4.806,1.63c-0.011-0.038-0.275,2.344,6.443-0.104
					c3.332-1.269,4.586-1.856,5.575-2.316l3.815-1.892c4.236-2.096,9.51-3.735,9.516-3.753
					C93.195,470.395,95.588,469.276,97.952,468.07z"/>
				<path style="fill:#231815;" d="M264.356,254.154c0.095,4.179,0.158,20.929-0.329,29.254c1.514-0.211,3.014-0.371,4.335-1.12
					c0.106-1.322,0.2-2.669,0.27-4.053c0.373-6.935,0.502-23.117,0.256-30.737c-0.243-7.622-0.613-15.238-0.746-22.2
					c-0.145-6.962-0.021-13.267,0.346-18.263c0.403-5.371,0.213-7.708-0.571-8.219c-0.759-0.503-2.038,0.885-3.198,3.165
					c-1.151,2.279-1.993,3.43-2.432,5.418c-0.423,1.985-0.459,4.84,0.395,10.43C264.371,228.961,264.18,244.721,264.356,254.154z"/>
				<path style="fill:#231815;" d="M128.605,385.335c1.068,7.919,5.668,14.322,8.438,21.673c3.245,8.62,4.729,17.96,7.461,26.756
					c0.218,0.709,2.819-0.402,2.548-1.27c-2.502-8.064-4.37-16.3-6.73-24.402c-2.398-8.233-7.957-15.079-9.121-23.704
					C131.075,383.441,128.5,384.563,128.605,385.335z"/>
				<path style="fill:#231815;" d="M94.387,494.237c4.763-2.967,9.9-5.549,14.344-8.324l0.876-0.567l0.825-0.696
					c0.488-0.432,0.957-0.865,1.392-1.303c0.877-0.868,1.662-1.726,2.379-2.531c1.427-1.616,2.604-3.008,3.593-4.023
					c1.972-2.063,4.064-4.615,5.594-6.575c1.488-1.982,2.592-3.621,1.504-4.919c-0.878-1.055-3.459-0.26-5.707,1.716
					c-2.274,1.938-4.06,4.731-4.879,6.578c-0.423,0.929-1.321,2.631-2.575,4.644c-0.631,1.004-1.359,2.085-2.211,3.147
					c-0.426,0.534-0.881,1.063-1.375,1.569c-0.14,0.142-0.198,0.217-0.296,0.296l-0.434,0.344l-0.894,0.678
					c-2.43,1.794-5.152,3.476-7.637,5.013c-2.491,1.529-4.759,2.909-6.477,3.9c-6.897,3.945-13.449,8.516-18.838,12.717
					c-2.706,2.102-3.863,4.653-3.427,5.652c0.449,1.015,2.397,0.468,6.169-3.262c3.806-3.711,6.157-5.716,8.581-7.61
					C87.336,498.803,89.857,497.032,94.387,494.237z"/>
				<path style="fill:#231815;" d="M97.546,477.469l3.141-1.296c1.459-0.593,4.266-1.787,6.838-3.197
					c2.587-1.371,4.859-3.092,5.685-3.519c1.136-0.531,2.276-1.654,2.64-2.867c0.375-1.221-0.042-2.384-1.55-3.066
					c-1.243-0.565-2.192-0.26-2.893,0.284c-0.694,0.553-1.197,1.413-1.373,2.181c-0.089,0.501-1.591,2.372-3.774,4.062
					c-2.148,1.712-4.818,3.261-6.123,4.026c-1.376,0.812-2.742,1.463-3.727,1.767c-0.712,0.248-5.221,1.951-10.714,4.06
					c-5.49,2.1-11.845,4.948-16.061,7.481c-4.162,2.456-6.346,4.189-7.716,5.229l-2.417,1.868c-2.111,1.736,0.544,5.745,2.644,2.445
					c0.544-0.787,0.938-1.381,2.042-2.474c1.122-1.068,2.929-2.691,6.675-5.037C78.765,484.225,95.65,478.469,97.546,477.469z"/>
				<path style="fill:#231815;" d="M275.976,213.456c1.035,0.116,1.348,0.335,1.431,0.574c0.079,0.234-0.063,0.506-0.063,0.509
					c-0.011-0.005-0.221,0.815-0.287,1.525c-0.09,0.703,0.357,1.273,0.683,1.601c0.159,0.171,0.671,0.669,1.323,1.124
					c0.647,0.458,1.416,0.868,1.826,1.064c0.805,0.442,3.218,0.845,3.795,0.973c1.93,0.527,2.65,0.206,2.643,0.215
					c0.001,0.01,1.87-0.055,2.665,0.054c0.792,0.122,1.855,0.677,2.404,0.325c0.545-0.351,0.394,0.463,1.206,0.555
					c0.812,0.09,1.616,1.421,0.933,1.764c-0.682,0.345-2.323-0.255-2.322-0.258l-1.819,0.595c-0.006-0.001-0.604-1.753-1.468-1.058
					c-0.879,0.701-2.545,0.373-3.293,0.614c-0.75,0.246-1.674,0.442-2.668,0.13c-0.99-0.307-2.116-0.727-3.08-1.181
					c-0.957-0.428-2.488-0.881-3.014-1.298c-0.259-0.191-1.04-0.791-1.714-1.539c-0.686-0.736-1.214-1.609-1.367-1.906
					c-0.161-0.29-0.791-0.648-1.369-1.044c-0.579-0.385-1.095-0.785-1.095-0.783c0.018,0.009,1.476-0.732,1.782-1.986
					c0.172-0.641,0.906-0.718,1.576-0.698C275.36,213.355,275.976,213.458,275.976,213.456z"/>
				<path style="fill:#231815;" d="M270.227,243.288c1.8-1.678,4.209-0.047,4.186-0.046c0.005-0.004,1.921,1.068,3.038,1.903
					c1.123,0.831,2.602,1.358,3.587,1.708c0.985,0.363,5.9,2.066,7.647,2.546c0.869,0.261,2.485,0.61,4.028,0.858
					c1.543,0.252,3.01,0.392,3.576,0.47c3.824,0.514,5.091-0.104,5.081-0.061c-0.001-0.004,0.88-0.107,1.923-0.317
					c1.045-0.204,2.241-0.532,2.961-0.717c1.434-0.321,3.501-0.721,4.196-1.568c0.665-0.84,0.887,0.026,2.198-0.814
					c1.255-0.835,3.334-0.991,2.544,0.194c-0.406,0.595-1.377,1.308-2.274,1.79c-0.896,0.489-1.696,0.763-1.696,0.763
					c-0.943,0.781-1.968,1.495-3.062,2.121c-0.039,0.008-1.811-1.163-3.199-0.104c-1.462,1.144-4.839,1.219-6.209,1.484
					c-1.39,0.324-3.106,0.528-5,0.16c-1.89-0.364-3.989-0.909-5.787-1.443c-1.8-0.526-4.432-0.973-5.43-1.321l-6.914-2.432
					c-0.994-0.353-4.124,0.374-4.109,0.389c-0.004,0.006,0.202-1.698-1.691-2.663C267.911,245.246,270.202,243.283,270.227,243.288z
					"/>
				<path style="fill:#231815;" d="M302.487,242.729c-0.348-0.036-0.707-0.076-1.078-0.131l-0.564-0.088
					c-0.205-0.037-0.332-0.051-0.684-0.131c-1.221-0.236-2.502-0.668-3.806-1.078l-0.597-2.638l-0.242-1.319l-0.12-0.819
					c-0.148-1.097-0.252-2.212-0.332-3.34c-0.159-2.256-0.219-4.565-0.315-6.865c-0.098-2.298-0.226-4.596-0.548-6.762
					c-0.162-1.081-0.373-2.128-0.654-3.105c-0.071-0.245-0.141-0.487-0.224-0.719l-0.248-0.664l-0.353-0.745
					c-0.464-0.991-1.019-1.991-1.502-2.931l5.994-3.596l3.717-2.157c2.4-1.351,4.627-2.494,6.564-3.324
					c1.339-0.572,2.658-1.086,4.038-1.482c0.345-0.099,0.698-0.187,1.056-0.267l0.73-0.147c0.246-0.022,0.533,0.013,0.763,0.017
					c0.716,0.047,1.433,0.145,2.139,0.314c1.412,0.328,2.776,0.988,3.847,1.877c1.077,0.886,1.867,1.929,2.472,2.942
					c1.205,2.045,1.853,3.999,2.486,5.845c0.103,0.31,0.065,0.224,0.168,0.431l0.314,0.622l0.64,1.244l1.276,2.497
					c0.835,1.684,1.86,3.674,2.788,6.082c0.23,0.604,0.451,1.237,0.645,1.916c0.097,0.339,0.186,0.691,0.265,1.056l0.107,0.563
					c0.033,0.214,0.078,0.52,0.09,0.766c0.052,0.519,0.049,1.05-0.14,1.545c-0.173,0.479-0.493,0.988-0.737,1.382
					c-0.402,0.636-0.805,1.212-1.216,1.795l-2.497,3.448l-1.226,1.716c-0.37,0.533-0.823,1.21-0.98,1.531l-0.713,1.849l-0.83,2.043
					c-0.574,1.359-1.199,2.708-1.904,4.004c-1.408,2.602-2.799,4.21-3.778,5.1c-0.983,0.896-1.559,1.111-1.715,0.952
					c-0.344-0.355,0.866-2.219,2.16-4.695c1.362-2.458,2.723-6.122,3.927-9.739l0.248-0.712c0.124-0.268,0.246-0.489,0.369-0.703
					c0.248-0.429,0.504-0.829,0.761-1.221c0.514-0.78,1.029-1.516,1.519-2.209l2.543-3.508l0.618-0.862l0.357-0.529
					c0.094-0.147,0.193-0.305,0.28-0.48c0.111-0.173,0.097-0.387,0.079-0.599c-0.018-0.221-0.035-0.403-0.095-0.73
					c-0.104-0.592-0.27-1.236-0.483-1.911c-0.865-2.715-2.447-5.876-4.065-8.996l-0.607-1.174l-0.301-0.589l-0.15-0.295
					c-0.056-0.125-0.138-0.246-0.174-0.381c-0.3-0.897-0.559-1.632-0.86-2.409c-0.588-1.514-1.249-2.885-2.025-3.921
					c-1.529-2.139-3.526-2.587-4.326-2.726c-0.337-0.064-0.844-0.116-1.434-0.124c-0.388-0.025-1.113,0.247-1.904,0.527
					c-1.569,0.595-3.437,1.553-5.374,2.662c-1.94,1.113-3.955,2.379-5.873,3.613l-2.786,1.803l-0.737,0.49
					c-0.198,0.161-0.518,0.274-0.583,0.447c0.414,0.736,0.556,1.059,0.921,2.224c0.887,2.871,0.999,6.718,1.1,10.546
					c0.111,3.819,0.33,7.793,1.612,10.698c0.1,0.254,0.153,0.254,0.214,0.312l0.166,0.124l0.26,0.117
					c0.184-0.04,0.3-0.088,0.378-0.114l0.113-0.026c0.039-0.003,0.042-0.006,0.226,0.026c0.549,0.104,0.979,0.248,1.365,0.452
					c0.776,0.401,1.376,1.037,2.535,1.761c1.355,0.833,2.299,1.769,2.063,2.516C307.37,242.328,306.072,243.013,302.487,242.729z"/>
				<path style="fill:#231815;" d="M166.53,109.351c4.508-0.693,2.624,3.75-0.375,3.75
					C163.156,113.101,161.656,110.101,166.53,109.351z"/>
				<path style="fill:#231815;" d="M218.178,105.583c-5.645-0.565-4.124-4.499-0.375-4.499S221.927,105.958,218.178,105.583z"/>
				<path style="fill:#231815;" d="M185.186,131.077c2.999,0.375,5.249,2.624,1.499,2.624
					C182.936,133.701,185.186,131.077,185.186,131.077z"/>
				<path style="fill:#231815;" d="M201.307,132.576c-1.494-0.135,0-3.749,2.249-4.124
					C205.806,128.077,205.431,132.951,201.307,132.576z"/>
				<path style="fill:#231815;" d="M193.434,160.32c6.748,0.375,9.748-1.5,14.247-2.625c4.499-1.125,4.124,2.25,0,3.375
					c-4.124,1.125-8.998,2.624-12.747,1.874C191.185,162.194,193.434,160.32,193.434,160.32z"/>
				<path style="fill:#231815;" d="M119.987,115.506c1.804,2.116,3.873,4.382,5.967,6.954c0.522,0.647,1.045,1.317,1.552,2.039
					c0.538,0.757,0.954,1.496,1.391,2.193c0.879,1.412,1.819,2.824,2.798,4.231c1.958,2.815,4.069,5.608,6.192,8.338l3.148,4.014
					c1.054,1.193,2.193,2.406,3.308,3.566c2.25,2.318,4.203,4.318,5.737,6.061c1.592,1.825,2.529,3.247,3.473,4.07
					c0.911,0.849,1.665,1.235,2.017,1.455c0.356,0.219,0.308,0.279-0.156,0.145c-0.892-0.269-2.427-0.617-4.372-2.266
					c-1.851-1.665-4.489-3.734-8.034-7.187c-1.731-1.731-3.46-3.395-4.852-5.158l-3.864-4.76c-2.369-2.943-4.286-5.425-5.692-7.272
					c-1.402-1.853-1.696-2.466-2.555-4.072c-0.438-0.851-0.884-1.732-1.961-3.171c-1.048-1.42-2.604-3.279-4.895-5.819
					c-4.613-5.056-7.06-8.464-7.825-10.279c-0.74-1.826-0.195-1.709,1.018-0.229C114.907,111.305,120.006,115.484,119.987,115.506z"
					/>
				<path style="fill:#231815;" d="M145.511,441.663c0.102,4.667-1.389,8.327-3.505,12.122c-0.536,0.952-1.12,1.918-1.743,2.92
					c-0.637,0.997-1.285,2.066-1.977,3.051c-1.549,2.167-3.15,4.6-4.953,7.367c-3.615,5.536-6.007,8.381-8.079,10.669
					c-2.089,2.277-3.869,3.994-6.716,6.96c-2.866,2.951-4.065,4.083-5.614,5.44c-1.559,1.343-3.469,2.924-8.055,6.421
					c-9.279,6.846,0.033,0.034-6.31,5.275c-6.41,5.15-8.226,8.256-8.213,8.275c2.807-0.854,5.614-1.751,8.418-2.699
					c4.659-3.998,9.193-8.143,13.539-12.471c-0.002-0.004,3.222-2.669,6.896-6.109c3.691-3.422,7.755-7.694,9.903-10.286
					c2.164-2.573,4.91-5.768,7.417-8.87l3.532-4.428c1.078-1.403,1.991-2.497,2.797-3.693c1.408-2.192,3.241-5.614,4.555-9.906
					c0.641-2.135,1.079-4.471,1.188-6.8c0.118-2.331-0.074-4.631-0.387-6.769c-0.708-4.287-2.1-5.624-2.591-4.823
					c-0.278,0.403-0.384,1.342-0.358,2.75C145.278,437.47,145.453,439.345,145.511,441.663z"/>
				<path style="fill:#231815;" d="M53.616,39.633c1.132,0.486,2.515,0.97,3.866,1.638c1.35,0.662,2.666,1.474,3.673,2.402
					c1.993,1.869,2.05,3.424,1.757,3.174c-0.312-0.242-1.636,0.129-3.182-1.044c-1.556-1.171-3.012-1.724-3.9-1.872
					c-0.903-0.098-0.261-0.579-2.683-1.468c-1.21-0.394-1.898-0.839-2.203-1.294c-0.303-0.449-0.193-0.862,0.234-0.933
					L53.616,39.633z"/>
				<path style="fill:#231815;" d="M309.917,215.166c-1.483,0.398-3.161,1.324-4.742,2.477c-1.591,1.152-3.096,2.51-4.47,3.736
					c-2.705,2.45-4.292,3.32-4.035,2.8c0.317-0.455-0.038-2.178,2.053-4.432c2.091-2.191,3.896-3.824,4.945-4.857
					c0.527-0.513,0.747-0.561,1.288-0.758c0.55-0.184,1.391-0.565,3.39-1.404c2.027-0.821,3.45-0.684,4.07-0.392
					c0.634,0.302,0.561,0.743,0.031,0.965C311.337,213.745,309.897,215.157,309.917,215.166z"/>
				<path style="fill:#231815;" d="M307.506,225.222c-1.322,0.404-2.736,1.337-4.025,2.521c-1.297,1.182-2.496,2.598-3.705,3.837
					c-2.399,2.509-4.135,3.036-3.824,2.591c0.33-0.422,0.027-1.974,1.738-4.086l3.982-4.903c0.429-0.534,0.634-0.596,1.123-0.82
					c0.502-0.205,1.253-0.639,3.061-1.516c1.84-0.849,3.118-0.757,3.706-0.509c0.601,0.258,0.589,0.7,0.12,0.958
					C308.698,223.807,307.478,225.212,307.506,225.222z"/>
				<path style="fill:#231815;" d="M294.92,205.408c0.257-0.751,0.441-1.616,0.552-2.525c0.056-0.455,0.09-0.92,0.112-1.388
					l0.01-0.352c0.01-0.239,0.015-0.479,0.013-0.718l-0.001-1.456c0.956-0.501,2.011-1.063,3.222-1.075
					c1.063-0.028,1.986,0.321,2.706,0.899c0.924,0.759,1.273,1.661,1.408,2.346c0.129,0.702,0.05,1.243-0.061,1.623
					c-0.241,0.757-0.563,0.918-0.556,0.689c-0.056-0.447-1.063-1.515-2.194-2.513c-0.373-0.321-0.94-0.398-1.23-0.323
					c-0.252,0.078-0.462,0.207-0.454,0.376l0.127,0.268l0.067,0.08l0.054,0.26c0.147,1.171-0.259,0.679-0.898,3.962
					c-0.737,3.238-2.299,3.442-2.34,2.488C295.411,207.077,294.927,205.401,294.92,205.408z"/>
				<path style="fill:#231815;" d="M259.812,288.01c11.931-3.622,29.88-8.858,47.987-12.889c9.062-1.993,18.143-3.724,26.655-4.473
					c1.065-0.091,2.123-0.163,3.173-0.214l1.57-0.058l1.467-0.02l0.306-0.042l1.253-0.489l2.514-1.013
					c3.277-1.344,6.253-2.646,8.848-3.79c10.382-4.611,18.825-9.032,26.336-13.135c7.507-4.124,14.076-7.991,20.593-11.935
					l4.683-2.889l2.561-1.62l2.201-1.424l1.103-1.976l1.381-2.618c0.915-1.787,1.819-3.652,2.703-5.576
					c1.767-3.85,3.448-7.947,4.947-12.177c3.007-8.453,5.261-17.479,6.055-26.004c0.502-5.484,0.426-9.235,0.426-11.632
					c-0.011-2.396,0.078-3.455,0.404-3.507c0.597-0.12,2.096,3.948,2.358,9.7c0.333,5.721-0.415,13.92-2.274,21.647
					c-1.798,7.743-4.508,14.995-6.462,19.391c-0.576,1.303-1.524,3.409-2.821,6.033c-0.65,1.312-1.384,2.753-2.207,4.287
					l-1.299,2.365l-0.702,1.226l-0.417,0.708l-0.487,0.791l-6.379,3.974l-6.509,3.952c-4.401,2.643-8.866,5.263-13.004,7.637
					c-8.271,4.755-15.253,8.494-17.638,9.752c-3.393,1.778-13.027,7.123-23.587,11.83l-1.991,0.87l-1.124,0.475
					c-0.232,0.083-0.455,0.22-0.697,0.259l-0.748,0.014c-1.554,0.042-2.824,0.133-4.238,0.263c-2.751,0.254-5.435,0.632-7.94,1.033
					c-5.012,0.81-9.31,1.705-12.099,2.269c-11.148,2.194-30.021,5.602-42.231,11.424c-12.183,5.809-12.552,4.48-18.669,4.094
					C249.713,294.203,246.96,291.982,259.812,288.01z"/>
				<path style="fill:#231815;" d="M310.136,331.344c-1.189,0.752-2.32,1.535-3.452,2.182c-1.132,0.652-2.312,1.171-3.562,1.605
					c-2.499,0.859-5.17,1.431-7.805,1.936c-5.382,1.002-10.576,2.167-15.425,3.195c-9.692,2.104-18.065,3.539-23.494,3.902
					c-5.43,0.424-12.094,0.878-17.264,1.056c-5.157,0.234-8.966,0.273-8.773,2.022c0.152,1.421,4.621,2.966,10.099,3.238
					c5.469,0.338,11.722-0.529,15.528-1.508l10.23-2.436c4.635-1.138,10.209-2.63,16.005-4.153c2.899-0.758,5.855-1.518,8.786-2.215
					c2.918-0.718,5.851-1.255,8.647-1.981c2.778-0.714,5.449-1.58,7.684-2.853c2.219-1.281,4.009-2.591,5.694-3.484
					c1.665-0.923,3.389-1.744,5.137-2.503c0.897-0.391,1.707-0.723,2.657-1.081c0.929-0.378,1.809-0.828,2.668-1.299
					c3.419-1.914,6.49-4.199,9.471-6.456c5.935-4.542,11.428-9.151,16.758-12.922c2.661-1.888,4.878-3.611,6.545-4.921
					c1.655-1.315,2.813-2.223,3.036-2.817c0.239-0.574-0.709-0.966-2.966-0.315c-2.235,0.65-5.536,2.452-9.648,5.833
					c-4.11,3.383-7.165,6.173-9.865,8.53c-2.689,2.363-4.975,4.333-7.322,6.203c-2.352,1.849-4.746,3.689-7.747,5.367
					c-0.759,0.416-1.521,0.794-2.393,1.128c-0.951,0.389-1.876,0.812-2.863,1.273C314.54,328.792,312.394,329.903,310.136,331.344z"
					/>
				<path style="fill:#231815;" d="M403.141,282.526c-1.424,0.919-2.726,1.956-3.982,3.013c-1.056,0.924-2.469,1.728-3.785,2.416
					c-2.701,1.381-5.57,2.304-8.302,2.967c-5.484,1.305-10.419,1.687-13.623,1.759c-3.206,0.051-7.217,0.449-10.298,1.344
					c-3.087,0.886-5.145,2.27-4.469,3.818c0.551,1.271,3.117,1.43,6.132,1.214c3.01-0.23,6.501-0.897,8.677-1.634
					c2.155-0.78,8.549-1.995,15.292-4.295c3.358-1.163,6.771-2.689,9.599-4.584c0.359-0.227,0.697-0.478,1.034-0.72
					c0.16-0.125,0.347-0.227,0.53-0.405l0.44-0.391c0.582-0.511,1.153-0.995,1.714-1.432c1.119-0.882,2.191-1.588,3.154-2.083
					c1.892-0.978,4.139-1.61,6.148-2.772c1.006-0.553,1.967-1.158,2.897-1.784c0.954-0.61,1.882-1.395,2.679-2.161
					c3.265-3.146,5.525-6.806,7.748-9.872c1.104-1.546,1.853-2.987,2.327-4.168c0.466-1.182,0.662-2.126,0.44-2.644
					c-0.213-0.509-0.896-0.579-2.018,0.206c-1.12,0.775-2.589,2.459-4.099,5.161c-2.954,5.379-4.711,8.226-7.126,10.533
					c-1.139,1.043-2.644,2.099-4.32,3.091c-0.862,0.496-1.799,0.949-2.936,1.435C405.857,281.022,404.487,281.644,403.141,282.526z"
					/>
				<path style="fill:#231815;" d="M131.496,330.045c-4.959-1.566-11.309-3.139-18.38-4.068c-7.063-0.934-14.845-1.21-22.435-0.415
					c-7.589,0.767-14.948,2.65-21.121,5.369c-3.098,1.352-5.88,2.881-8.353,4.494c-2.504,1.575-4.359,3.12-5.767,4.683
					c-2.822,3.078-3.833,6.697-3.551,10.357c0.274,3.664,1.61,7.184,3.153,10.375c0.779,1.602,1.633,3.138,2.518,4.623
					c0.887,1.459,1.811,2.994,2.709,4.197c1.936,2.596,4.11,4.996,6.406,7.26c4.572,4.593,11.806,10.005,19.894,15.969
					c8.021,5.988,16.94,12.886,23.283,21.494c3.153,4.289,4.684,7.724,5.417,9.95c0.727,2.244,0.708,3.307,0.375,3.429
					c-0.716,0.252-2.735-3.146-5.703-7.208c-1.481-2.041-3.381-4.4-5.616-6.751c-2.229-2.356-4.773-4.715-7.376-6.923
					c-5.209-4.411-10.604-8.284-13.882-10.853c-1.637-1.285-5.038-3.868-9.229-7.232c-4.177-3.372-9.149-7.57-13.489-12.411
					c-1.083-1.21-2.125-2.457-3.103-3.731c-1.03-1.3-1.856-2.664-2.67-3.935c-1.625-2.591-3.05-5.148-4.162-7.549
					c-2.285-4.785-3.021-9.01-3.11-10.791c-0.127-1.734-0.317-5.42,1.562-9.534c0.921-2.032,2.325-4.068,4.073-5.892
					c1.733-1.835,3.851-3.446,5.938-4.89c4.25-2.961,9.015-5.332,13.349-6.951c4.334-1.64,8.214-2.58,10.739-3.071
					c5.062-1.019,11.937-1.327,18.929-1.088c7.013,0.197,14.136,0.9,20.259,0.869c6.143-0.01,9.167,0.725,11.106,1.737
					c1.942,1.042,2.853,2.447,4.809,4.495c1.951,2.064,2.898,4.064,2.082,4.976C139.317,331.973,136.824,331.747,131.496,330.045z"
					/>
				<path style="fill:#231815;" d="M179.886,368.661c-3.517,0.85-8.834,1.907-14.118,2.571c-5.282,0.675-10.514,1.008-13.822,0.949
					c-6.613-0.118-10.972,0.028-15.343,0.156c-4.367,0.135-12.002,0.815-18.536,0.813c-6.529,0.003-4.896-1.803-1.635-2.404
					c3.264-0.598,9.238-1.221,11.95-1.257c1.357-0.018,5.563-0.066,9.696-0.2c4.133-0.122,8.191-0.341,9.272-0.413
					c1.082-0.063,4.183-0.403,7.399-0.845l8.15-1.185c3.185-0.396,8.764-0.076,12.084-2.632c3.272-2.55,3.489-1.395,5.503-0.031
					C182.492,365.533,183.686,367.729,179.886,368.661z"/>
				<path style="fill:#231815;" d="M451.012,240.508c-0.668,1.62-1.417,3.228-2.242,4.727c-1.135,2.088-3.585,6.155-6.867,8.596
					c-1.612,1.234-3.373,1.981-4.842,2.256c-1.473,0.284-2.635,0.168-3.158,0.019c-1.427-0.397-3.099-0.856-4.617-0.947
					c-1.505-0.073-2.902,0.25-3.428,1.843c-0.423,1.285,0.636,2.534,2.327,3.293c1.671,0.778,3.946,0.919,5.326,0.505
					c0.448-0.134,1.874-0.223,3.741-0.772c1.866-0.527,4.103-1.639,5.982-3.24c3.827-3.2,6.144-7.831,7.158-10.046
					c1.077-2.368,1.961-4.63,2.669-6.13c0.257-0.551,1.127-2.621,2.181-5.72c1.07-3.166,1.833-7.413,2.495-12.05
					c1.277-9.279,2.462-20.169,4.341-27.566c1.772-7.29,3.725-11.073,5.059-13.242c1.373-2.16,2.108-2.811,2.758-3.485
					c1.31-1.305,1.761-2.961,1.35-3.966c-0.218-0.486-0.694-0.753-1.472-0.554c-0.753,0.212-1.813,0.932-2.822,2.427
					c-0.931,1.458-1.565,2.538-2.753,4.949c-1.147,2.416-2.82,6.214-4.433,13.331c-1.789,7.584-2.902,18.507-4.115,27.778
					c-0.628,4.627-1.367,8.858-2.384,11.9C452.215,237.569,451.324,239.75,451.012,240.508z"/>
				<path style="fill:#231815;" d="M447.643,194.302l-0.783,2.329c-0.369,1.078-0.976,3.22-1.36,5.276
					c-0.405,2.055-0.656,3.96-0.978,4.525c-0.861,1.555-0.575,3.838,2.74,3.682c2.713-0.131,2.761-2.406,1.956-3.44
					c-0.266-0.348-0.548-2.132-0.627-4.084c-0.09-1.95,0.133-4.087,0.266-5.147c0.131-1.116,0.387-2.155,0.718-2.801
					c0.215-0.481,1.468-3.627,3.253-7.377c1.765-3.754,3.86-8.192,5.114-11.444c1.25-3.189,1.774-5.118,2.101-6.321l0.571-2.165
					c0.236-0.986-0.874-1.765-1.905-1.833c-1.052-0.063-1.972,0.319-1.686,1.601c0.124,0.641,0.226,1.129,0.129,2.201
					c-0.108,1.07-0.408,2.737-1.438,5.696c-1.085,3.162-3.073,7.556-4.804,11.381C449.159,190.193,447.865,193.56,447.643,194.302z"
					/>
				<path style="fill:#231815;" d="M437.702,202.539c1.167-4.588,1.938-10.271,2.205-16.194c0.291-5.926,0.112-12.086,0.072-17.728
					c-0.144-11.31,1.073-15.889,1.067-14.174c-0.001,1.71,1.171,5.058,1.473,13.53c0.317,8.483,0.472,15.323,0.46,19.344
					c0.001,2.011-0.122,2.58-0.382,4.138c-0.295,1.552-0.611,4.114-1.763,10.014c-1.214,5.898-2.701,9.203-3.55,10.637
					c-0.881,1.431-1.19,1.018-0.806-0.629C437.287,208.168,437.734,202.533,437.702,202.539z"/>
				<path style="fill:#231815;" d="M181.271,356.081c4.149-1.234,8.968-1.013,13.182-0.57c2.104,0.225,4.088,0.515,5.663,0.733
					c1.524,0.223,2.648,0.339,3.683,0.464c2.011,0.262,3.866-0.131,5.609-0.691c1.746-0.568,3.387-1.301,5.127-1.943l0.684-0.262
					l0.365-0.143l0.157-0.082c0.275-0.142,0.711-0.395,1.103-0.65c0.817-0.525,1.742-1.214,2.755-1.964
					c2.045-1.49,4.403-3.316,7.553-4.454c1.58-0.562,2.977-0.584,3.864-0.311c0.894,0.269,1.271,0.788,1.26,1.303
					c-0.049,1.056-1.219,2.246-2.281,3.165c-2.256,1.743-5.384,5.061-7.311,6.147c-0.47,0.263-1.424,0.819-2.711,1.477
					c-0.671,0.334-1.32,0.661-2.249,1.019c-0.796,0.267-1.451,0.513-2.199,0.811c-2.863,1.193-5.982,2.527-6.881,2.763
					c-0.847,0.288-3.351,1.383-6.233,1.831c-2.925,0.447-5.617,0.426-6.894,0.359c-1.277-0.096-2.895-0.828-4.578-1.045
					c-1.657-0.223-3.467,0.105-4.491,2.029c-0.972,1.927-1.123,2.307-1.567,1.797c-0.432-0.504-0.996-1.904-2.163-3.373
					c-1.143-1.479-2.737-2.966-3.473-4.457c-0.359-0.742-0.463-1.519-0.141-2.249C179.416,357.069,180.164,356.41,181.271,356.081z"
					/>
			</g>
		</g>
		<path style="fill:#231815;" d="M150.082,152.902c-5.425,8.257-12.072,17.753-11.122,8.257c0.949-9.496-1.232-21.449,2.077-17.883
			C144.345,146.841,150.082,152.902,150.082,152.902z"/>
		<path style="fill:#231815;" d="M131.696,130.923c-3.094,1.004-14.661,10.413-6.031,9.345c8.629-1.068,8.629-1.068,8.629-1.068
			L131.696,130.923z"/>
		<path style="fill:#231815;" d="M113.116,325.977c-0.745,5.16,5.902,19.403-5.493,12.756
			c-11.395-6.647-16.144-10.445-12.345-12.345C99.076,324.489,113.116,325.977,113.116,325.977z"/>
		<path style="fill:#231815;" d="M85.782,325.439c3.424,0,0.949,11.395-5.698,11.395c-6.647,0-18.992-3.799-14.244-6.648
			C70.589,327.338,82.933,325.439,85.782,325.439z"/>
		<path style="fill:#231815;" d="M281.398,285.556c0,0,3.797,12.345-0.95,14.244c-4.747,1.899-7.596-6.648-10.445-9.496
			C267.155,287.455,281.398,285.556,281.398,285.556z"/>
		<path style="fill:#231815;" d="M297.541,280.808c10.446-2.849,10.446-9.496,10.446-2.849s0.949,12.345-2.849,13.294
			c-3.798,0.949-12.345-8.546-12.345-8.546L297.541,280.808z"/>
		<path style="fill:#231815;" d="M258.608,267.513c2.442,4.072,2.849,8.546-2.849,8.546
			C250.062,276.06,255.759,262.765,258.608,267.513z"/>
	</g>
</g>
</svg>
