<?xml version="1.0" standalone="no"?>
<!DOCTYPE svg PUBLIC "-//W3C//DTD SVG 20010904//EN"
 "http://www.w3.org/TR/2001/REC-SVG-20010904/DTD/svg10.dtd">
<svg version="1.0" xmlns="http://www.w3.org/2000/svg"
 width="16.000000pt" height="16.000000pt" viewBox="0 0 16.000000 16.000000"
 preserveAspectRatio="xMidYMid meet">
<metadata>
Created by potrace 1.11, written by Peter Selinger 2001-2013
</metadata>
<g transform="translate(0.000000,16.000000) scale(0.016000,-0.016000)"
fill="#000000" stroke="none">
<path d="M0 500 l0 -500 500 0 500 0 0 500 0 500 -500 0 -500 0 0 -500z m54
480 c-38 -15 -35 -27 16 -60 53 -34 60 -49 33 -71 -19 -17 -52 -87 -53 -113 0
-16 2 -17 16 -5 13 10 11 2 -6 -31 -20 -39 -44 -158 -34 -169 2 -2 9 1 17 7
11 9 11 1 3 -47 -7 -47 -6 -68 8 -111 10 -29 22 -94 27 -144 6 -50 18 -122 29
-159 17 -63 17 -68 2 -65 -22 4 -49 105 -58 217 -4 47 -13 98 -20 112 -9 18
-14 77 -16 185 -3 223 -1 234 30 298 l29 56 -33 21 c-28 17 -34 27 -34 55 0
32 2 34 33 33 28 0 29 -1 11 -9z m328 -30 l40 -40 56 16 c80 23 208 15 290
-18 46 -19 62 -22 62 -12 0 25 99 94 133 94 30 -1 31 -1 12 -15 -106 -73 -114
-81 -120 -113 -3 -18 -9 -32 -13 -30 -123 64 -149 73 -227 76 -61 3 -96 -2
-144 -18 l-65 -20 -23 27 c-12 16 -22 30 -23 33 -1 20 -73 44 -149 50 l-86 7
109 2 108 1 40 -40z m-171 -19 c-11 -7 -10 -10 4 -18 15 -9 14 -11 -12 -20
-25 -9 -33 -7 -61 18 l-32 29 57 0 c37 0 53 -3 44 -9z m779 -19 c0 -15 -61
-53 -78 -50 -13 3 -7 11 23 31 41 28 55 33 55 19z m-453 -419 c26 -54 47 -106
45 -116 -1 -14 2 -16 17 -7 16 8 18 7 14 -10 -4 -16 1 -21 27 -27 l33 -6 -22
-18 c-12 -10 -20 -23 -16 -29 12 -19 74 -11 97 12 17 17 20 18 15 4 -4 -10 -7
-22 -7 -27 0 -5 -6 -9 -14 -9 -8 0 -18 -5 -21 -10 -8 -13 20 -42 30 -32 5 4 5
1 1 -6 -4 -7 -12 -10 -17 -7 -5 4 -9 2 -9 -3 0 -11 -39 -29 -83 -37 -32 -6
-35 -5 -30 13 8 33 -14 62 -47 62 -33 0 -34 -1 -21 -48 7 -23 6 -32 -2 -33
-35 -3 -86 5 -117 17 -57 24 -70 42 -69 93 1 25 3 38 6 29 8 -32 25 -19 19 15
-3 17 -3 26 0 20 3 -7 19 -13 36 -13 30 0 30 0 14 -25 -18 -28 -14 -45 11 -45
30 0 53 31 53 72 0 24 4 37 10 33 18 -11 11 8 -12 32 -12 13 -27 23 -35 23
-16 0 -16 4 0 43 24 57 39 102 40 120 1 9 3 17 4 17 2 0 24 -44 50 -97z m96
-36 l25 -33 -28 -11 c-25 -9 -29 -8 -34 11 -9 32 -7 66 3 66 5 0 20 -15 34
-33z m99 -38 l16 -26 -34 16 c-29 13 -34 20 -34 49 l0 35 18 -24 c10 -13 25
-36 34 -50z m-334 25 c9 -29 8 -33 -17 -52 l-28 -20 16 53 c9 30 16 53 17 52
1 -1 6 -16 12 -33z m571 -128 c-12 -23 -45 -66 -74 -96 -29 -30 -58 -66 -65
-79 -12 -23 -11 -24 20 -18 26 6 80 28 133 55 14 7 7 -26 -9 -39 -28 -24 -138
-59 -148 -49 -6 6 -18 10 -28 10 -10 0 -18 4 -18 8 0 21 42 83 92 133 30 32
67 85 84 119 28 61 29 61 32 29 2 -20 -5 -48 -19 -73z m-109 14 c-6 -11 -12
-20 -14 -20 -2 0 -2 9 1 20 3 11 9 20 15 20 5 0 4 -9 -2 -20z m-560 -174 c0
-28 47 -100 78 -121 l37 -25 -30 0 c-18 0 -40 10 -57 27 l-28 27 0 -27 c0 -16
-6 -27 -14 -27 -14 0 -26 66 -26 143 0 35 1 36 20 25 11 -7 20 -17 20 -22z
m169 -32 c3 -2 -5 -14 -16 -27 -15 -16 -19 -31 -16 -55 3 -19 1 -32 -5 -32
-12 0 -18 17 -27 82 l-6 48 33 -7 c18 -3 35 -7 37 -9z m85 1 c3 -9 0 -15 -9
-15 -8 0 -15 7 -15 15 0 8 4 15 9 15 5 0 11 -7 15 -15z m101 -5 c-3 -5 -11
-10 -16 -10 -6 0 -7 5 -4 10 3 6 11 10 16 10 6 0 7 -4 4 -10z m65 -7 c0 -5 -5
-15 -10 -23 -8 -12 -10 -11 -10 8 0 12 5 22 10 22 6 0 10 -3 10 -7z m266 -10
c-4 -4 -41 -20 -83 -35 -92 -34 -86 -20 7 16 67 26 88 31 76 19z m-256 -58
c-12 -15 -30 -12 -30 6 0 5 10 9 21 9 18 0 19 -2 9 -15z m260 0 c0 -19 -40
-35 -87 -35 -44 0 -37 10 25 32 60 21 62 21 62 3z m-505 -25 c3 -5 1 -10 -4
-10 -6 0 -11 5 -11 10 0 6 2 10 4 10 3 0 8 -4 11 -10z m335 0 c0 -5 -8 -10
-17 -10 -15 0 -16 2 -3 10 19 12 20 12 20 0z"/>
<path d="M366 221 c-7 -11 22 -23 35 -15 5 3 7 10 4 15 -8 12 -32 12 -39 0z"/>
</g>
</svg>
